<svg xmlns="http://www.w3.org/2000/svg" width="216" height="72" viewBox="0 0 216 72" fill="none">
  <g filter="url(#filter0_b_10988_5602)">
    <path d="M216 55V67H175V4H189V55H216ZM26 68C40.8358 68 53.4469 57.64 57 44L93 72L129 44V67H170V55H143V4H129V28L94 55L86 49L121 22L111 14L76 41L68 35L103 8L93 0L57 28C53.4469 14.36 40.8358 4 26 4H0V68H26ZM14 55V17H26C35.6067 17 43.2402 25.4533 43.2402 36C43.2402 46.5467 35.6067 55 26 55H14Z" fill="#F9F9FB" fill-opacity="0.48"/>
  </g>
  <g filter="url(#filter1_b_10988_5602)">
    <path fill-rule="evenodd" clip-rule="evenodd" d="M188 54.0192V56H189.964V55H189V54.0192H188ZM189 5V4H188V4.98075H188.125V5H189ZM176 4H175V5H175.875V4.98438H176V4ZM175 54.2031V56.1719H176V54.2031H175ZM175 66V67H176.025V66H175ZM216 56V55H215V56H216ZM191.893 55V56H193.821V55H191.893ZM195.75 55V56H197.679V55H195.75ZM199.607 55V56H201.536V55H199.607ZM203.464 55V56H205.393V55H203.464ZM207.321 55V56H209.25V55H207.321ZM211.179 55V56H213.107V55H211.179ZM216 58H215V60H216V58ZM216 62H215V64H216V62ZM216 66H214.975V67H216V66ZM212.925 67V66H210.875V67H212.925ZM208.825 67V66H206.775V67H208.825ZM204.725 67V66H202.675V67H204.725ZM200.625 67V66H198.575V67H200.625ZM196.525 67V66H194.475V67H196.525ZM192.425 67V66H190.375V67H192.425ZM188.325 67V66H186.275V67H188.325ZM184.225 67V66H182.175V67H184.225ZM180.125 67V66H178.075V67H180.125ZM175 64.0469H176V62.0781H175V64.0469ZM175 60.1094H176V58.1406H175V60.1094ZM175 52.2344H176V50.2656H175V52.2344ZM175 48.2969H176V46.3281H175V48.2969ZM175 44.3594H176V42.3906H175V44.3594ZM175 40.4219H176V38.4531H175V40.4219ZM175 36.4844H176V34.5156H175V36.4844ZM175 32.5469H176V30.5781H175V32.5469ZM175 28.6094H176V26.6406H175V28.6094ZM175 24.6719H176V22.7031H175V24.6719ZM175 20.7344H176V18.7656H175V20.7344ZM175 16.7969H176V14.8281H175V16.7969ZM175 12.8594H176V10.8906H175V12.8594ZM175 8.92188H176V6.95312H175V8.92188ZM177.625 4V5H179.375V4H177.625ZM181.125 4V5H182.875V4H181.125ZM184.625 4V5H186.375V4H184.625ZM189 6.94229H188V8.90383H189V6.94229ZM189 10.8654H188V12.8269H189V10.8654ZM189 14.7885H188V16.75H189V14.7885ZM189 18.7115H188V20.6731H189V18.7115ZM189 22.6346H188V24.5962H189V22.6346ZM189 26.5577H188V28.5192H189V26.5577ZM189 30.4808H188V32.4423H189V30.4808ZM189 34.4038H188V36.3654H189V34.4038ZM189 38.3269H188V40.2885H189V38.3269ZM189 42.25H188V44.2115H189V42.25ZM189 46.1731H188V48.1346H189V46.1731ZM189 50.0962H188V52.0577H189V50.0962ZM57.8903 44.5436C57.8792 44.5846 57.8681 44.6255 57.8568 44.6664L57 44C56.9544 44.1751 56.9073 44.3496 56.8587 44.5236C56.8214 44.6572 56.7832 44.7905 56.7442 44.9235C56.7327 44.9627 56.7211 45.0018 56.7095 45.0409L56.446 44.836L55.7847 44.6418C55.8717 44.3455 55.9543 44.0475 56.0323 43.7479L56.4151 42.2782L58.4321 43.847L57.8903 44.5436ZM56.1484 46.7438L55.208 46.4038C54.9974 46.9863 54.7694 47.5612 54.5246 48.128L55.4427 48.5245C55.6955 47.9392 55.9309 47.3454 56.1484 46.7438ZM54.6305 50.259L53.7381 49.8079C53.4587 50.3605 53.1631 50.9041 52.8517 51.4382L53.7155 51.9419C54.0369 51.3907 54.3421 50.8295 54.6305 50.259ZM52.702 53.567C52.348 54.0988 51.9784 54.6199 51.5939 55.1294L50.7956 54.5271C51.1683 54.0332 51.5265 53.5282 51.8696 53.0129L52.702 53.567ZM50.3957 56.6238L49.6342 55.9757C49.233 56.447 48.818 56.9066 48.3897 57.3537L49.112 58.0454C49.5537 57.5841 49.9818 57.1101 50.3957 56.6238ZM47.7472 59.3894L47.0666 58.6567C46.6133 59.0777 46.1474 59.4857 45.6697 59.8799L46.3062 60.6512C46.799 60.2446 47.2795 59.8237 47.7472 59.3894ZM44.7936 61.8265L44.2035 61.0192C43.7043 61.3841 43.194 61.7347 42.6732 62.0702L43.2148 62.9108C43.7521 62.5647 44.2786 62.203 44.7936 61.8265ZM41.5746 63.9003L41.0837 63.0291C40.5455 63.3324 39.9975 63.6201 39.4406 63.8917L39.8788 64.7905C40.4537 64.5102 41.0192 64.2132 41.5746 63.9003ZM38.1328 65.5782L37.7491 64.6547C37.1793 64.8915 36.6011 65.1117 36.0153 65.3147L36.3427 66.2596C36.9476 66.0499 37.5445 65.8226 38.1328 65.5782ZM34.515 66.8317C33.9021 67.0033 33.282 67.157 32.6553 67.2921L32.4446 66.3146C33.0513 66.1838 33.6518 66.035 34.2453 65.8687L34.515 66.8317ZM30.7722 67.6385L30.6213 66.65C30.0128 66.7429 29.3987 66.8178 28.7795 66.8741L28.8701 67.87C29.5095 67.8118 30.1438 67.7345 30.7722 67.6385ZM26.959 67.9855L26.9289 66.986C26.6203 66.9953 26.3107 67 26 67H25.0714V68H26C26.3207 68 26.6404 67.9952 26.959 67.9855ZM23.2143 68V67H21.3571V68H23.2143ZM19.5 68V67H17.6429V68H19.5ZM15.7857 68V67H13.9286V68H15.7857ZM12.0714 68V67H10.2143V68H12.0714ZM8.35715 68V67H6.5V68H8.35715ZM4.64286 68V67H2.78571V68H4.64286ZM1 68V67H0V68H1ZM0 65H1V63H0V65ZM0 61H1V59H0V61ZM0 57H1V55H0V57ZM59.4545 45.9091L60.0685 45.1197L61.7048 46.3925L61.0909 47.1818L59.4545 45.9091ZM62.7273 48.4545L63.3412 47.6652L64.9776 48.9379L64.3636 49.7273L62.7273 48.4545ZM66 51L66.6139 50.2106L68.2503 51.4834L67.6364 52.2727L66 51ZM69.2727 53.5455L70.9091 54.8182L71.523 54.0288L69.8867 52.7561L69.2727 53.5455ZM72.5455 56.0909L73.1594 55.3016L74.7958 56.5743L74.1818 57.3636L72.5455 56.0909ZM75.8182 58.6364L77.4545 59.9091L78.0685 59.1197L76.4321 57.847L75.8182 58.6364ZM79.0909 61.1818L79.7048 60.3925L81.3412 61.6652L80.7273 62.4545L79.0909 61.1818ZM82.3636 63.7273L82.9776 62.9379L84.6139 64.2106L84 65L82.3636 63.7273ZM85.6364 66.2727L87.2727 67.5455L87.8867 66.7561L86.2503 65.4834L85.6364 66.2727ZM88.9091 68.8182L89.523 68.0288L91.1594 69.3016L90.5455 70.0909L88.9091 68.8182ZM92.1818 71.3636L92.7958 70.5743L93 70.7331L93.2042 70.5743L93.8182 71.3636L93 72L92.1818 71.3636ZM95.4545 70.0909L94.8406 69.3016L96.477 68.0288L97.0909 68.8182L95.4545 70.0909ZM98.7273 67.5455L100.364 66.2727L99.7497 65.4834L98.1133 66.7561L98.7273 67.5455ZM102 65L101.386 64.2106L103.022 62.9379L103.636 63.7273L102 65ZM105.273 62.4545L104.659 61.6652L106.295 60.3925L106.909 61.1818L105.273 62.4545ZM108.545 59.9091L107.932 59.1197L109.568 57.847L110.182 58.6364L108.545 59.9091ZM111.818 57.3636L113.455 56.0909L112.841 55.3016L111.204 56.5743L111.818 57.3636ZM115.091 54.8182L114.477 54.0288L116.113 52.7561L116.727 53.5455L115.091 54.8182ZM118.364 52.2727L117.75 51.4834L119.386 50.2106L120 51L118.364 52.2727ZM121.636 49.7273L121.022 48.9379L122.659 47.6652L123.273 48.4545L121.636 49.7273ZM124.909 47.1818L124.295 46.3925L125.932 45.1197L126.545 45.9091L124.909 47.1818ZM129 54.5417V56.4583H130V54.5417H129ZM129 66V67H130.025V66H129ZM168.975 67H170V66H168.975V67ZM169 55V56H170V55H169ZM143.964 55H143V54.0192H142V56H143.964V55ZM143 5V4H142V4.98077H142.125V5H143ZM130 4H129V5L130 5V4ZM126.614 29.8409L127.224 30.6327L125.634 31.86L125.023 31.0682L126.614 29.8409ZM123.432 32.2955L124.043 33.0872L122.452 34.3145L121.841 33.5227L123.432 32.2955ZM120.25 34.75L120.861 35.5418L119.27 36.7691L118.659 35.9773L120.25 34.75ZM117.068 37.2045L117.679 37.9963L116.088 39.2236L115.477 38.4318L117.068 37.2045ZM113.886 39.6591L114.497 40.4509L112.906 41.6781L112.295 40.8864L113.886 39.6591ZM110.705 42.1136L111.315 42.9054L109.724 44.1327L109.114 43.3409L110.705 42.1136ZM107.523 44.5682L108.134 45.36L106.543 46.5872L105.932 45.7955L107.523 44.5682ZM104.341 47.0227L104.952 47.8145L103.361 49.0418L102.75 48.25L104.341 47.0227ZM101.159 49.4773L101.77 50.2691L100.179 51.4963L99.5682 50.7045L101.159 49.4773ZM97.9773 51.9318L98.5881 52.7236L96.9972 53.9509L96.3864 53.1591L97.9773 51.9318ZM94.7955 54.3864L95.4063 55.1781L94.0085 56.2564L92.7333 55.3L93.3333 54.5L94 55L94.7955 54.3864ZM92 53.5L90.6667 52.5L90.0667 53.3L91.4 54.3L92 53.5ZM89.3333 51.5L88.7333 52.3L87.4 51.3L88 50.5L89.3333 51.5ZM88.3864 47.1591L87.7756 46.3673L89.3665 45.14L89.9773 45.9318L88.3864 47.1591ZM91.5682 44.7045L90.9574 43.9128L92.5483 42.6855L93.1591 43.4773L91.5682 44.7045ZM94.75 42.25L94.1392 41.4582L95.7301 40.2309L96.3409 41.0227L94.75 42.25ZM97.9318 39.7955L97.321 39.0037L98.9119 37.7764L99.5227 38.5682L97.9318 39.7955ZM101.114 37.3409L100.503 36.5491L102.094 35.3219L102.705 36.1136L101.114 37.3409ZM104.295 34.8864L103.685 34.0946L105.276 32.8673L105.886 33.6591L104.295 34.8864ZM107.477 32.4318L106.866 31.64L108.457 30.4128L109.068 31.2045L107.477 32.4318ZM110.659 29.9773L110.048 29.1855L111.639 27.9582L112.25 28.75L110.659 29.9773ZM113.841 27.5227L113.23 26.7309L114.821 25.5037L115.432 26.2955L113.841 27.5227ZM117.023 25.0682L116.412 24.2764L118.003 23.0491L118.614 23.8409L117.023 25.0682ZM121 22L120.167 21.3333L120.069 21.4549L119.594 21.8219L119.683 21.9377L119.542 22.1142L120.185 22.6287L121 22ZM118.5 20L116.833 18.6667L116.209 19.4475L117.875 20.7809L118.5 20ZM115.167 17.3333L113.5 16L112.875 16.7809L114.542 18.1142L115.167 17.3333ZM111.833 14.6667L111.209 15.4475L110.989 15.2716L110.815 15.4054L110.205 14.6136L111 14L111.833 14.6667ZM108.614 15.8409L109.224 16.6327L107.634 17.86L107.023 17.0682L108.614 15.8409ZM105.432 18.2955L106.043 19.0872L104.452 20.3145L103.841 19.5227L105.432 18.2955ZM102.25 20.75L102.861 21.5418L101.27 22.7691L100.659 21.9773L102.25 20.75ZM99.0682 23.2045L99.679 23.9963L98.0881 25.2236L97.4773 24.4318L99.0682 23.2045ZM95.8864 25.6591L96.4972 26.4509L94.9063 27.6781L94.2954 26.8864L95.8864 25.6591ZM92.7045 28.1136L93.3153 28.9054L91.7244 30.1327L91.1136 29.3409L92.7045 28.1136ZM89.5227 30.5682L90.1335 31.36L88.5426 32.5872L87.9318 31.7955L89.5227 30.5682ZM86.3409 33.0227L86.9517 33.8145L85.3608 35.0418L84.75 34.25L86.3409 33.0227ZM83.1591 35.4773L83.7699 36.2691L82.179 37.4963L81.5682 36.7045L83.1591 35.4773ZM79.9773 37.9318L80.5881 38.7236L78.9972 39.9509L78.3864 39.1591L79.9773 37.9318ZM74 39.5L72.6667 38.5L72.0667 39.3L73.4 40.3L74 39.5ZM71.3333 37.5L70.7333 38.3L69.4 37.3L70 36.5L71.3333 37.5ZM70.3864 33.1591L69.7756 32.3673L71.3665 31.14L71.9773 31.9318L70.3864 33.1591ZM73.5682 30.7045L72.9574 29.9128L74.5483 28.6855L75.1591 29.4773L73.5682 30.7045ZM76.75 28.25L76.1392 27.4582L77.7301 26.2309L78.3409 27.0227L76.75 28.25ZM79.9318 25.7955L79.321 25.0037L80.9119 23.7764L81.5227 24.5682L79.9318 25.7955ZM83.1136 23.3409L82.5028 22.5491L84.0937 21.3219L84.7046 22.1136L83.1136 23.3409ZM86.2955 20.8864L85.6847 20.0946L87.2756 18.8673L87.8864 19.6591L86.2955 20.8864ZM89.4773 18.4318L88.8665 17.64L90.4574 16.4128L91.0682 17.2045L89.4773 18.4318ZM92.6591 15.9773L92.0483 15.1855L93.6392 13.9582L94.25 14.75L92.6591 15.9773ZM95.8409 13.5227L95.2301 12.7309L96.821 11.5037L97.4318 12.2955L95.8409 13.5227ZM99.0227 11.0682L98.4119 10.2764L100.003 9.04913L100.614 9.84091L99.0227 11.0682ZM103 8L102.167 7.33333L102.069 7.45493L101.594 7.82185L101.683 7.93774L101.542 8.1142L102.185 8.62867L103 8ZM100.5 6L98.8333 4.66667L98.2086 5.44754L99.8753 6.78087L100.5 6ZM68.8216 34.3662L68 35L68.8301 35.6226L68.6108 35.7918L68.5282 35.6847L68.0667 36.3L66.3483 35.0112L68.1846 33.5946L68.7226 34.292L68.8216 34.3662ZM75.3333 40.5L74.7333 41.3L76.0085 42.2564L77.4063 41.1781L76.7955 40.3864L76 41L75.3333 40.5ZM86.8216 48.3662L86 49L86.8301 49.6226L86.6108 49.7918L86.5282 49.6847L86.0667 50.3L84.3483 49.0112L86.1846 47.5946L86.7226 48.292L86.8216 48.3662ZM128.205 28.6136L128.815 29.4054L130 28.4915V27H129V28L128.205 28.6136ZM129 25H130V23H129V25ZM129 21H130V19H129V21ZM129 17H130V15H129V17ZM129 13H130V11H129V13ZM129 9H130V7H129V9ZM131.625 4V5H133.375V4H131.625ZM135.125 4V5H136.875V4H135.125ZM138.625 4V5H140.375V4H138.625ZM143 6.94231H142V8.90385H143V6.94231ZM143 10.8654H142V12.8269H143V10.8654ZM143 14.7885H142V16.75H143V14.7885ZM143 18.7115H142V20.6731H143V18.7115ZM143 22.6346H142V24.5962H143V22.6346ZM143 26.5577H142V28.5192H143V26.5577ZM143 30.4808H142V32.4423H143V30.4808ZM143 34.4038H142V36.3654H143V34.4038ZM143 38.3269H142V40.2885H143V38.3269ZM143 42.25H142V44.2115H143V42.25ZM143 46.1731H142V48.1346H143V46.1731ZM143 50.0962H142V52.0577H143V50.0962ZM145.893 55V56H147.821V55H145.893ZM149.75 55V56H151.679V55H149.75ZM153.607 55V56H155.536V55H153.607ZM157.464 55V56H159.393V55H157.464ZM161.321 55V56H163.25V55H161.321ZM165.179 55V56H167.107V55H165.179ZM170 58H169V60H170V58ZM170 62H169V64H170V62ZM166.925 67V66H164.875V67H166.925ZM162.825 67V66H160.775V67H162.825ZM158.725 67V66H156.675V67H158.725ZM154.625 67V66H152.575V67H154.625ZM150.525 67V66H148.475V67H150.525ZM146.425 67V66H144.375V67H146.425ZM142.325 67V66H140.275V67H142.325ZM138.225 67V66H136.175V67H138.225ZM134.125 67V66H132.075V67H134.125ZM129 64.125H130V62.2083H129V64.125ZM129 60.2917H130V58.375H129V60.2917ZM129 52.625H130V50.7083H129V52.625ZM129 48.7917H130V46.875H129V48.7917ZM129 45.2669V44L128 44.7778V44.4026L127.568 43.847L130 41.9554V44.9583H129.397L129 45.2669ZM56.446 27.164L56.7095 26.9591C56.7211 26.9982 56.7327 27.0373 56.7442 27.0765C56.7832 27.2095 56.8214 27.3428 56.8587 27.4764C56.9073 27.6504 56.9544 27.8249 57 28L57.8568 27.3336C57.8681 27.3745 57.8792 27.4154 57.8903 27.4563L58.4321 28.153L56.4151 29.7218L56.0323 28.2521C55.9543 27.9525 55.8717 27.6545 55.7847 27.3582L56.446 27.164ZM59.4545 26.0909L60.0685 26.8803L61.7048 25.6075L61.0909 24.8182L59.4545 26.0909ZM62.7273 23.5455L63.3412 24.3348L64.9776 23.0621L64.3636 22.2727L62.7273 23.5455ZM66 21L66.6139 21.7894L68.2503 20.5166L67.6364 19.7273L66 21ZM69.2727 18.4545L69.8867 19.2439L71.523 17.9712L70.9091 17.1818L69.2727 18.4545ZM72.5455 15.9091L73.1594 16.6984L74.7958 15.4257L74.1818 14.6364L72.5455 15.9091ZM75.8182 13.3636L76.4321 14.153L78.0685 12.8803L77.4545 12.0909L75.8182 13.3636ZM79.0909 10.8182L79.7048 11.6075L81.3412 10.3348L80.7273 9.54546L79.0909 10.8182ZM82.3636 8.27273L82.9776 9.06208L84.6139 7.78935L84 7L82.3636 8.27273ZM85.6364 5.72727L86.2503 6.51662L87.8867 5.2439L87.2727 4.45454L85.6364 5.72727ZM56.1484 25.2562L55.208 25.5962C54.9974 25.0137 54.7694 24.4388 54.5246 23.872L55.4427 23.4755C55.6955 24.0608 55.9309 24.6546 56.1484 25.2562ZM54.6305 21.741L53.7381 22.1921C53.4587 21.6395 53.1631 21.0959 52.8517 20.5618L53.7155 20.0581C54.0369 20.6093 54.3421 21.1705 54.6305 21.741ZM52.702 18.433L51.8696 18.9871C51.5265 18.4718 51.1683 17.9668 50.7956 17.4729L51.5939 16.8706C51.9784 17.3801 52.348 17.9012 52.702 18.433ZM50.3957 15.3762L49.6342 16.0243C49.233 15.553 48.818 15.0934 48.3897 14.6463L49.112 13.9546C49.5537 14.4158 49.9818 14.8899 50.3957 15.3762ZM47.7472 12.6106L47.0666 13.3433C46.6133 12.9223 46.1474 12.5143 45.6697 12.1201L46.3062 11.3488C46.799 11.7554 47.2795 12.1763 47.7472 12.6106ZM44.7936 10.1735C44.2786 9.797 43.7521 9.43534 43.2148 9.08916L42.6732 9.92979C43.194 10.2653 43.7043 10.6159 44.2035 10.9808L44.7936 10.1735ZM41.5746 8.09974L41.0837 8.97094C40.5455 8.66764 39.9975 8.37988 39.4406 8.10831L39.8788 7.20946C40.4537 7.48977 41.0192 7.78675 41.5746 8.09974ZM38.1328 6.42184L37.7491 7.3453C37.1793 7.10853 36.6011 6.88832 36.0153 6.68531L36.3427 5.74044C36.9476 5.95005 37.5445 6.17741 38.1328 6.42184ZM34.515 5.16832L34.2453 6.13127C33.6518 5.96504 33.0513 5.81622 32.4446 5.68541L32.6553 4.70787C33.282 4.84296 33.9021 4.99666 34.515 5.16832ZM1 4H0V5H1V4ZM0 53H1V51H0V53ZM0 49H1V47H0V49ZM0 45H1V43H0V45ZM0 41H1V39H0V41ZM0 37H1V35H0V37ZM0 33H1V31H0V33ZM0 29H1V27H0V29ZM0 25H1V23H0V25ZM0 21H1V19H0V21ZM0 17H1V15H0V17ZM0 13H1V11H0V13ZM0 9H1V7H0V9ZM2.78571 4V5H4.64286V4H2.78571ZM6.5 4V5H8.35714V4H6.5ZM10.2143 4V5H12.0714V4H10.2143ZM13.9286 4V5H15.7857V4H13.9286ZM17.6429 4V5H19.5V4H17.6429ZM21.3571 4V5H23.2143V4H21.3571ZM25.0714 4V5H26C26.3107 5 26.6203 5.00469 26.9289 5.014L26.959 4.01446C26.6404 4.00484 26.3207 4 26 4H25.0714ZM28.8701 4.13002L28.7795 5.12591C29.3987 5.18222 30.0128 5.25712 30.6213 5.35002L30.7722 4.36148C30.1438 4.26552 29.5095 4.18817 28.8701 4.13002ZM13 54.05V56H15V55H14V54.05H13ZM25 17V16H26C26.3629 16 26.7233 16.0114 27.0809 16.0338L27.0183 17.0319C26.6815 17.0107 26.342 17 26 17H25ZM29.0377 17.288L29.2265 16.306C29.9401 16.4432 30.6387 16.6252 31.3198 16.8492L31.0074 17.7992C30.3664 17.5883 29.7091 17.4171 29.0377 17.288ZM32.8966 18.556L33.3261 17.653C33.977 17.9626 34.6072 18.3122 35.2142 18.6989L34.677 19.5423C34.1041 19.1774 33.5099 18.8477 32.8966 18.556ZM36.3251 20.7371L36.959 19.9637C37.512 20.417 38.0399 20.9038 38.5403 21.4213L37.8215 22.1165C37.3475 21.6263 36.8479 21.1657 36.3251 20.7371ZM39.1523 23.6568L39.9441 23.046C40.3784 23.6089 40.7843 24.1986 41.1597 24.8125L40.3065 25.3342C39.9498 24.7509 39.5644 24.1909 39.1523 23.6568ZM41.2751 27.1242L42.1783 26.6949C42.482 27.3339 42.755 27.9933 42.9954 28.6707L42.053 29.0052C41.824 28.3599 41.564 27.7321 41.2751 27.1242ZM42.6365 30.9556L43.6076 30.7172C43.7757 31.4017 43.9117 32.1007 44.0139 32.8124L43.024 32.9546C42.9265 32.2753 42.7967 31.6083 42.6365 30.9556ZM43.2164 34.9818L44.2153 34.9349C44.2318 35.2876 44.2402 35.6427 44.2402 36C44.2402 36.3573 44.2318 36.7124 44.2153 37.0651L43.2164 37.0182C43.2322 36.6811 43.2402 36.3417 43.2402 36C43.2402 35.6583 43.2322 35.3189 43.2164 34.9818ZM43.024 39.0454L44.0139 39.1876C43.9117 39.8993 43.7757 40.5983 43.6076 41.2828L42.6365 41.0444C42.7967 40.3917 42.9265 39.7247 43.024 39.0454ZM42.053 42.9948L42.9954 43.3293C42.755 44.0067 42.482 44.6661 42.1783 45.3051L41.2751 44.8758C41.564 44.2679 41.824 43.6401 42.053 42.9948ZM40.3065 46.6658C39.9498 47.2491 39.5644 47.8091 39.1523 48.3432L39.9441 48.954C40.3784 48.3911 40.7843 47.8014 41.1597 47.1875L40.3065 46.6658ZM37.8215 49.8835L38.5403 50.5787C38.0399 51.0962 37.512 51.583 36.959 52.0363L36.3251 51.2629C36.8479 50.8343 37.3475 50.3737 37.8215 49.8835ZM34.677 52.4577L35.2142 53.3011C34.6072 53.6878 33.977 54.0374 33.3261 54.347L32.8966 53.444C33.5099 53.1523 34.1041 52.8226 34.677 52.4577ZM31.0074 54.2008L31.3198 55.1508C30.6387 55.3748 29.9401 55.5568 29.2265 55.694L29.0377 54.712C29.7091 54.5829 30.3664 54.4117 31.0074 54.2008ZM23 17V16H21V17H23ZM19 17V16H17V17H19ZM15 17V16H13V17.95H14V17H15ZM14 19.85H13V21.75H14V19.85ZM14 23.65H13V25.55H14V23.65ZM14 27.45H13V29.35H14V27.45ZM14 31.25H13V33.15H14V31.25ZM14 35.05H13V36.95H14V35.05ZM14 38.85H13V40.75H14V38.85ZM14 42.65H13V44.55H14V42.65ZM14 46.45H13V48.35H14V46.45ZM14 50.25H13V52.15H14V50.25ZM19 55H17V56H19V55ZM88.9091 3.18182L90.5455 1.90909L91.1594 2.69844L89.523 3.97117L88.9091 3.18182ZM92.1818 0.636362L92.7958 1.42571L92.9913 1.27364L93.2086 1.44754L93.8333 0.666668L93 0L92.1818 0.636362ZM95.5 2L94.8753 2.78087L96.542 4.1142L97.1667 3.33333L95.5 2ZM27.0183 54.9681C26.6815 54.9893 26.342 55 26 55H25V56H26C26.3629 56 26.7233 55.9886 27.0809 55.9662L27.0183 54.9681ZM21 55V56H23V55H21Z" fill="#6E56CF"/>
  </g>
  <defs>
    <filter id="filter0_b_10988_5602" x="-12" y="-12" width="240" height="96" filterUnits="userSpaceOnUse" color-interpolation-filters="sRGB">
      <feFlood flood-opacity="0" result="BackgroundImageFix"/>
      <feGaussianBlur in="BackgroundImageFix" stdDeviation="6"/>
      <feComposite in2="SourceAlpha" operator="in" result="effect1_backgroundBlur_10988_5602"/>
      <feBlend mode="normal" in="SourceGraphic" in2="effect1_backgroundBlur_10988_5602" result="shape"/>
    </filter>
    <filter id="filter1_b_10988_5602" x="-12" y="-12" width="240" height="96" filterUnits="userSpaceOnUse" color-interpolation-filters="sRGB">
      <feFlood flood-opacity="0" result="BackgroundImageFix"/>
      <feGaussianBlur in="BackgroundImageFix" stdDeviation="6"/>
      <feComposite in2="SourceAlpha" operator="in" result="effect1_backgroundBlur_10988_5602"/>
      <feBlend mode="normal" in="SourceGraphic" in2="effect1_backgroundBlur_10988_5602" result="shape"/>
    </filter>
  </defs>
</svg>