<svg xmlns="http://www.w3.org/2000/svg" width="216" height="72" fill="none" viewBox="0 0 216 72"><g filter="url(#a)"><path fill="#F9F9FB" fill-opacity=".48" d="M216 55v12h-41V4h14v51zM26 68c14.836 0 27.447-10.36 31-24l36 28 36-28v23h41V55h-27V4h-14v24L94 55l-8-6 35-27-10-8-35 27-8-6 35-27-10-8-36 28C53.447 14.36 40.836 4 26 4H0v64zM14 55V17h12c9.607 0 17.24 8.453 17.24 19S35.607 55 26 55z"/></g><g filter="url(#b)"><path fill="#6E56CF" fill-rule="evenodd" d="M188 54.02V56h1.964v-1H189v-.98zM189 5V4h-1v.98h.125V5zm-13-1h-1v1h.875v-.016H176zm-1 50.203v1.969h1v-1.969zM175 66v1h1.025v-1zm41-10v-1h-1v1zm-24.107-1v1h1.928v-1zm3.857 0v1h1.929v-1zm3.857 0v1h1.929v-1zm3.857 0v1h1.929v-1zm3.857 0v1h1.929v-1zm3.858 0v1h1.928v-1zM216 58h-1v2h1zm0 4h-1v2h1zm0 4h-1.025v1H216zm-3.075 1v-1h-2.05v1zm-4.1 0v-1h-2.05v1zm-4.1 0v-1h-2.05v1zm-4.1 0v-1h-2.05v1zm-4.1 0v-1h-2.05v1zm-4.1 0v-1h-2.05v1zm-4.1 0v-1h-2.05v1zm-4.1 0v-1h-2.05v1zm-4.1 0v-1h-2.05v1zM175 64.047h1v-1.969h-1zm0-3.938h1v-1.968h-1zm0-7.875h1v-1.968h-1zm0-3.937h1v-1.969h-1zm0-3.938h1v-1.968h-1zm0-3.937h1v-1.969h-1zm0-3.938h1v-1.968h-1zm0-3.937h1v-1.969h-1zm0-3.938h1v-1.968h-1zm0-3.937h1v-1.969h-1zm0-3.938h1v-1.968h-1zm0-3.937h1v-1.969h-1zm0-3.938h1v-1.968h-1zm0-3.937h1V6.953h-1zM177.625 4v1h1.75V4zm3.5 0v1h1.75V4zm3.5 0v1h1.75V4zM189 6.942h-1v1.962h1zm0 3.923h-1v1.962h1zm0 3.924h-1v1.961h1zm0 3.923h-1v1.961h1zm0 3.923h-1v1.961h1zm0 3.923h-1v1.961h1zm0 3.923h-1v1.961h1zm0 3.923h-1v1.961h1zm0 3.923h-1v1.962h1zm0 3.923h-1v1.962h1zm0 3.923h-1v1.962h1zm0 3.923h-1v1.962h1zM57.89 44.544l-.033.122L57 44a31 31 0 0 1-.29 1.04l-.264-.204-.661-.194q.131-.446.247-.894l.383-1.47 2.017 1.569zm-1.742 2.2-.94-.34a31 31 0 0 1-.683 1.724l.918.397q.38-.88.705-1.781m-1.518 3.515-.892-.451q-.42.83-.886 1.63l.864.504q.481-.827.914-1.683m-1.928 3.308a32 32 0 0 1-1.108 1.562l-.798-.602q.558-.741 1.074-1.514zm-2.306 3.057-.762-.648q-.602.706-1.244 1.378l.722.691q.663-.691 1.284-1.421m-2.649 2.765-.68-.732q-.681.631-1.397 1.223l.636.771q.74-.61 1.441-1.262m-2.953 2.438-.59-.808q-.75.548-1.53 1.051l.54.84a33 33 0 0 0 1.58-1.083m-3.22 2.073-.49-.87q-.809.454-1.643.862l.438.898q.862-.42 1.696-.89m-3.441 1.678-.384-.923a31 31 0 0 1-1.734.66l.328.945q.907-.315 1.79-.682m-3.618 1.254q-.92.257-1.86.46l-.21-.977a31 31 0 0 0 1.8-.446zm-3.743.806-.15-.988q-.914.14-1.843.224l.091.996q.96-.088 1.902-.232m-3.813.347-.03-.999Q26.466 67 26 67h-.929v1H26q.48 0 .959-.014M23.214 68v-1h-1.857v1zM19.5 68v-1h-1.857v1zm-3.714 0v-1h-1.857v1zm-3.715 0v-1h-1.857v1zm-3.714 0v-1H6.5v1zm-3.714 0v-1H2.786v1zM1 68v-1H0v1zm-1-3h1v-2H0zm0-4h1v-2H0zm0-4h1v-2H0zm59.455-11.09.614-.79 1.636 1.273-.614.789zm3.272 2.545.614-.79 1.637 1.273-.614.79zM66 51l.614-.79 1.636 1.273-.614.79zm3.273 2.545 1.636 1.273.614-.79-1.636-1.272zm3.273 2.546.613-.79 1.637 1.273-.614.79zm3.272 2.545 1.636 1.273.615-.79-1.637-1.272zm3.273 2.546.614-.79 1.636 1.273-.614.79zm3.273 2.545.614-.79 1.636 1.274L84 65zm3.272 2.546 1.637 1.273.614-.79-1.637-1.273zm3.273 2.545.614-.79 1.636 1.274-.614.789zm3.273 2.546.614-.79.204.16.204-.16.614.79L93 72zm3.272-1.273-.613-.79 1.636-1.272.614.79zm3.273-2.545 1.637-1.273-.614-.79-1.637 1.273zM102 65l-.614-.79 1.636-1.272.614.79zm3.273-2.545-.614-.79 1.636-1.273.614.79zm3.272-2.546-.613-.79 1.636-1.272.614.79zm3.273-2.545 1.637-1.273-.614-.79-1.637 1.273zm3.273-2.546-.614-.79 1.636-1.272.614.79zm3.273-2.545-.614-.79 1.636-1.272L120 51zm3.272-2.546-.614-.79 1.637-1.272.614.79zm3.273-2.545-.614-.79 1.637-1.272.613.79zm4.091 7.36v1.916h1v-1.916zM129 66v1h1.025v-1zm39.975 1H170v-1h-1.025zM169 55v1h1v-1zm-25.036 0H143v-.98h-1V56h1.964zM143 5V4h-1v.98h.125V5zm-13-1h-1v1h1zm-3.386 25.84.61.793-1.59 1.227-.611-.792zm-3.182 2.455.611.792-1.591 1.227-.611-.791zm-3.182 2.455.611.792-1.591 1.227-.611-.792zm-3.182 2.455.611.791-1.591 1.228-.611-.792zm-3.182 2.454.611.792-1.591 1.227-.611-.792zm-3.181 2.455.61.791-1.591 1.228-.61-.792zm-3.182 2.454.611.792-1.591 1.227-.611-.792zm-3.182 2.455.611.791-1.591 1.228-.611-.792zm-3.182 2.454.611.792-1.591 1.227-.61-.791zm-3.182 2.455.611.792-1.59 1.227-.612-.792zm-3.181 2.454.61.792-1.398 1.078-1.275-.956.6-.8.667.5zM92 53.5l-1.333-1-.6.8 1.333 1zm-2.667-2-.6.8-1.333-1 .6-.8zm-.947-4.34-.61-.793 1.59-1.227.611.792zm3.182-2.455-.61-.792 1.59-1.227.611.791zm3.182-2.455-.61-.792 1.59-1.227.61.792zm3.182-2.455-.611-.791 1.59-1.228.612.792zm3.182-2.454-.611-.792 1.591-1.227.611.792zm3.181-2.455-.61-.791 1.591-1.228.61.792zm3.182-2.454-.611-.792 1.591-1.227.611.791zm3.182-2.455-.611-.791 1.591-1.228.611.792zm3.182-2.454-.611-.792 1.591-1.227.611.791zm3.182-2.455-.611-.792 1.591-1.227.611.792zM121 22l-.833-.667-.098.122-.475.367.089.116-.141.176.643.515zm-2.5-2-1.667-1.333-.624.78 1.666 1.334zm-3.333-2.667L113.5 16l-.625.78 1.667 1.334zm-3.334-2.666-.624.78-.22-.175-.174.133-.61-.791L111 14zm-3.219 1.174.61.792-1.59 1.227-.611-.792zm-3.182 2.455.611.791-1.591 1.227-.611-.791zm-3.182 2.454.611.792-1.591 1.227-.611-.792zm-3.182 2.454.611.792-1.59 1.228-.612-.792zm-3.182 2.455.611.792-1.59 1.227-.612-.792zm-3.181 2.455.61.791-1.59 1.228-.611-.792zm-3.182 2.454.61.792-1.59 1.227-.611-.792zm-3.182 2.455.61.791-1.59 1.228-.611-.792zm-3.182 2.454.61.792-1.59 1.227-.61-.791zm-3.182 2.455.611.792-1.59 1.227-.612-.792zM74 39.5l-1.333-1-.6.8 1.333 1zm-2.667-2-.6.8-1.333-1 .6-.8zm-.947-4.34-.61-.793 1.59-1.227.611.792zm3.182-2.455-.61-.792 1.59-1.227.611.791zm3.182-2.455-.61-.792 1.59-1.227.61.792zm3.182-2.454-.611-.792 1.59-1.228.612.792zm3.182-2.455-.611-.792 1.59-1.227.612.792zm3.182-2.455-.611-.791 1.59-1.228.611.792zm3.181-2.454-.61-.792 1.59-1.227.611.791zm3.182-2.455-.61-.792 1.59-1.227.611.792zm3.182-2.454-.61-.792 1.59-1.227.61.792zm3.182-2.455-.611-.792 1.591-1.227.611.792zM103 8l-.833-.667-.098.122-.475.367.089.116-.141.176.643.515zm-2.5-2-1.667-1.333-.624.78 1.666 1.334zM68.822 34.366 68 35l.83.623-.22.169-.082-.107-.461.615-1.719-1.289 1.837-1.416.538.697zm6.511 6.134-.6.8 1.275.956 1.398-1.078-.61-.792L76 41zm11.489 7.866L86 49l.83.623-.22.169-.082-.107-.461.615-1.719-1.289 1.837-1.416.538.697zm41.383-19.752.61.791 1.185-.914V27h-1v1zM129 25h1v-2h-1zm0-4h1v-2h-1zm0-4h1v-2h-1zm0-4h1v-2h-1zm0-4h1V7h-1zm2.625-5v1h1.75V4zm3.5 0v1h1.75V4zm3.5 0v1h1.75V4zM143 6.942h-1v1.962h1zm0 3.923h-1v1.962h1zm0 3.924h-1v1.961h1zm0 3.923h-1v1.961h1zm0 3.923h-1v1.961h1zm0 3.923h-1v1.961h1zm0 3.923h-1v1.961h1zm0 3.923h-1v1.961h1zm0 3.923h-1v1.962h1zm0 3.923h-1v1.962h1zm0 3.923h-1v1.962h1zm0 3.923h-1v1.962h1zM145.893 55v1h1.928v-1zm3.857 0v1h1.929v-1zm3.857 0v1h1.929v-1zm3.857 0v1h1.929v-1zm3.857 0v1h1.929v-1zm3.858 0v1h1.928v-1zM170 58h-1v2h1zm0 4h-1v2h1zm-3.075 5v-1h-2.05v1zm-4.1 0v-1h-2.05v1zm-4.1 0v-1h-2.05v1zm-4.1 0v-1h-2.05v1zm-4.1 0v-1h-2.05v1zm-4.1 0v-1h-2.05v1zm-4.1 0v-1h-2.05v1zm-4.1 0v-1h-2.05v1zm-4.1 0v-1h-2.05v1zM129 64.125h1v-1.917h-1zm0-3.833h1v-1.917h-1zm0-7.667h1v-1.917h-1zm0-3.833h1v-1.917h-1zm0-3.525V44l-1 .778v-.375l-.432-.556L130 41.955v3.003h-.603zM56.446 27.164l.264-.205.034.117A32 32 0 0 1 57 28l.857-.666.033.122.542.697-2.017 1.569-.383-1.47q-.117-.45-.247-.894zm3.009-1.073.614.79 1.636-1.273-.614-.79zm3.272-2.546.614.79 1.637-1.273-.614-.79zM66 21l.614.79 1.636-1.273-.614-.79zm3.273-2.546.614.79 1.636-1.273-.614-.79zm3.273-2.545.613.79 1.637-1.273-.614-.79zm3.272-2.545.614.789 1.636-1.273-.614-.79zm3.273-2.546.614.79 1.636-1.273-.614-.79zm3.273-2.545.614.79 1.636-1.274L84 7zm3.272-2.546.614.79 1.637-1.273-.614-.79zm-29.488 19.53-.94.34a31 31 0 0 0-.683-1.725l.918-.396q.38.878.705 1.78M54.63 21.74l-.892.451a31 31 0 0 0-.886-1.63l.864-.504q.481.827.914 1.683m-1.928-3.308-.832.554a32 32 0 0 0-1.074-1.514l.798-.602q.577.765 1.108 1.562m-2.306-3.057-.762.648q-.602-.706-1.244-1.378l.722-.691q.663.691 1.284 1.421m-2.649-2.765-.68.732a32 32 0 0 0-1.397-1.223l.636-.771q.74.61 1.441 1.262m-2.953-2.437a33 33 0 0 0-1.58-1.085l-.54.84q.78.504 1.53 1.052zM41.574 8.1l-.49.87a31 31 0 0 0-1.643-.862l.438-.899q.862.421 1.696.89m-3.441-1.678-.384.923a31 31 0 0 0-1.734-.66l.328-.945q.907.315 1.79.682m-3.618-1.254-.27.963a31 31 0 0 0-1.8-.446l.21-.977q.94.203 1.86.46M1 4H0v1h1zM0 53h1v-2H0zm0-4h1v-2H0zm0-4h1v-2H0zm0-4h1v-2H0zm0-4h1v-2H0zm0-4h1v-2H0zm0-4h1v-2H0zm0-4h1v-2H0zm0-4h1v-2H0zm0-4h1v-2H0zm0-4h1v-2H0zm0-4h1V7H0zm2.786-5v1h1.857V4zM6.5 4v1h1.857V4zm3.714 0v1h1.857V4zm3.715 0v1h1.857V4zm3.714 0v1H19.5V4zm3.714 0v1h1.857V4zm3.714 0v1H26q.465 0 .929.014l.03-1Q26.481 4 26 4zm3.8.13-.091.996q.929.084 1.841.224l.151-.989a32 32 0 0 0-1.902-.231M13 54.05V56h2v-1h-1v-.95zM25 17v-1h1q.544 0 1.08.034l-.062.998A16 16 0 0 0 26 17zm4.038.288.189-.982q1.07.207 2.093.543l-.313.95a16 16 0 0 0-1.97-.511m3.859 1.268.43-.903q.976.466 1.887 1.046l-.537.843a17 17 0 0 0-1.78-.986m3.428 2.181.634-.773q.83.68 1.581 1.457l-.718.695q-.712-.735-1.497-1.379m2.827 2.92.792-.611q.652.845 1.216 1.767l-.853.521a19 19 0 0 0-1.155-1.677m2.123 3.467.903-.43q.456.96.817 1.977l-.942.334a20 20 0 0 0-.778-1.88m1.361 3.832.972-.239q.253 1.028.406 2.095l-.99.143a21 21 0 0 0-.388-2m.58 4.026 1-.047a23 23 0 0 1 0 2.13l-1-.047a22 22 0 0 0 0-2.036m-.192 4.063.99.143q-.154 1.067-.406 2.095l-.971-.239q.24-.98.387-1.999m-.971 3.95.942.334q-.36 1.017-.817 1.976l-.903-.43q.434-.912.778-1.88m-1.746 3.67a19 19 0 0 1-1.155 1.678l.792.611q.652-.845 1.216-1.767zm-2.486 3.218.72.696q-.752.777-1.582 1.457l-.634-.773q.785-.644 1.496-1.38m-3.144 2.575.537.843q-.911.58-1.888 1.046l-.43-.903a17 17 0 0 0 1.781-.986m-3.67 1.743.313.95a17 17 0 0 1-2.093.543l-.19-.982q1.009-.195 1.97-.511M23 17v-1h-2v1zm-4 0v-1h-2v1zm-4 0v-1h-2v1.95h1V17zm-1 2.85h-1v1.9h1zm0 3.8h-1v1.9h1zm0 3.8h-1v1.9h1zm0 3.8h-1v1.9h1zm0 3.8h-1v1.9h1zm0 3.8h-1v1.9h1zm0 3.8h-1v1.9h1zm0 3.8h-1v1.9h1zm0 3.8h-1v1.9h1zM19 55h-2v1h2zM88.91 3.182l1.636-1.273.613.79-1.636 1.272zM92.181.636l.614.79.195-.152.218.174.624-.781L93 0zM95.5 2l-.625.78 1.667 1.334.625-.78zM27.018 54.968Q26.513 55 26 55h-1v1h1q.544 0 1.08-.034zM21 55v1h2v-1z" clip-rule="evenodd"/></g><defs><filter id="a" width="240" height="96" x="-12" y="-12" color-interpolation-filters="sRGB" filterUnits="userSpaceOnUse"><feFlood flood-opacity="0" result="BackgroundImageFix"/><feGaussianBlur in="BackgroundImageFix" stdDeviation="6"/><feComposite in2="SourceAlpha" operator="in" result="effect1_backgroundBlur_10988_5602"/><feBlend in="SourceGraphic" in2="effect1_backgroundBlur_10988_5602" result="shape"/></filter><filter id="b" width="240" height="96" x="-12" y="-12" color-interpolation-filters="sRGB" filterUnits="userSpaceOnUse"><feFlood flood-opacity="0" result="BackgroundImageFix"/><feGaussianBlur in="BackgroundImageFix" stdDeviation="6"/><feComposite in2="SourceAlpha" operator="in" result="effect1_backgroundBlur_10988_5602"/><feBlend in="SourceGraphic" in2="effect1_backgroundBlur_10988_5602" result="shape"/></filter></defs></svg>