<svg xmlns="http://www.w3.org/2000/svg" width="232" height="30" fill="none" viewBox="0 0 232 30"><g clip-path="url(#a)"><path fill="url(#b)" d="M230.681 19.293c0-2.78-1.546-4.013-4.634-4.632-3.087-.615-4.939-.927-4.939-3.086 0-1.543 1.234-2.47 3.398-2.47 2.779 0 3.704 1.234 3.704 2.78l.309.308h1.235l.309-.309c0-3.086-2.471-4.323-5.559-4.323-3.398 0-5.248 1.853-5.248 4.016 0 2.47 1.852 3.705 4.938 4.323 3.089.618 4.632.927 4.632 3.398 0 1.543-.925 2.78-4.013 2.78-2.78 0-4.014-1.546-4.014-3.398l-.309-.31h-1.234l-.309.31c0 2.78 2.161 4.94 5.866 4.94 4.013-.004 5.868-1.856 5.868-4.327m-13.277-3.086.306-.31v-.924c0-4.323-2.47-7.412-6.793-7.412s-6.793 3.089-6.793 7.412v.616c0 4.322 2.161 8.027 7.102 8.027 4.323 0 5.866-2.78 6.175-4.632l-.309-.309h-1.234l-.309.31c-.618 1.851-1.852 3.088-4.323 3.088-4.016 0-5.25-3.705-5.25-5.557l.309-.31zm-1.853-1.546h-9.263l-.309-.309c0-2.161 1.234-5.247 4.94-5.247 3.705 0 4.941 3.086 4.941 5.247zm-13.586 8.337V8.175l-.309-.31h-1.234l-.309.31v14.823l.309.309h1.234zm0-17.91V3.237l-.309-.309h-1.234l-.309.31V5.09l.309.309h1.234zm-11.732 16.985c-3.089 0-4.941-2.162-4.941-6.484 0-4.323 1.852-6.484 4.941-6.484 3.086 0 4.939 2.16 4.939 6.484 0 4.32-1.853 6.484-4.939 6.484m4.939-.928c0 4.014-.928 7.103-4.632 7.103-2.78 0-3.705-1.234-4.014-2.78l-.309-.309h-1.234l-.309.31c.309 2.47 2.161 4.322 5.866 4.322 4.016 0 6.484-2.47 6.484-8.646V8.175l-.309-.31h-.927l-.309.31-.31 1.855h-.309c-.616-1.235-2.161-2.47-4.941-2.47-4.322 0-6.484 3.397-6.484 8.029 0 4.63 2.162 8.027 6.484 8.027 2.78 0 4.323-1.234 4.941-2.47zm-20.068-12.04c3.086 0 5.247 2.47 5.247 6.484s-2.161 6.484-5.247 6.484c-3.089 0-5.25-2.47-5.25-6.484s2.161-6.484 5.25-6.484m0 14.51c4.013 0 7.1-2.779 7.1-8.026 0-5.248-3.087-8.03-7.1-8.03-4.016 0-7.103 2.78-7.103 8.03 0 5.247 3.089 8.027 7.103 8.027m-9.264-.617V2.002l-.309-.309h-1.234l-.309.31V23l.309.31h1.234zM154.726 9.105c3.087 0 5.248 2.47 5.248 6.484s-2.161 6.484-5.248 6.484-5.25-2.47-5.25-6.484 2.162-6.484 5.25-6.484m0 14.51c4.014 0 7.103-2.779 7.103-8.026 0-5.248-3.089-8.03-7.103-8.03s-7.102 2.78-7.102 8.03c0 5.247 3.089 8.027 7.102 8.027m-8.954-.617v-9.264c0-4.014-2.162-6.175-5.557-6.175-2.161 0-4.016.927-4.941 2.47h-.309l-.307-1.854-.309-.31h-.927l-.309.31v14.823l.309.309h1.236l.307-.31v-8.336c0-3.397 1.545-5.556 4.941-5.556 2.47 0 4.013 1.543 4.013 4.63v9.263l.31.309h1.234zm-15.748 0v-9.264c0-4.014-2.161-6.175-5.557-6.175-2.161 0-4.013.927-4.941 2.47h-.309V2.003l-.309-.309h-1.234l-.309.31V23l.309.31h1.234l.309-.31v-8.339c0-3.397 1.546-5.556 4.941-5.556 2.471 0 4.014 1.543 4.014 4.63v9.263l.309.309h1.236zm-26.552-7.41c0-4.322 2.161-6.483 5.247-6.483 3.087 0 4.323 1.852 4.63 3.704l.309.31h1.236l.31-.31c-.31-3.086-2.78-5.248-6.485-5.248-4.013 0-7.1 2.47-7.1 8.03 0 5.557 3.087 8.027 7.1 8.027 3.705 0 6.175-2.161 6.485-5.247l-.31-.31h-1.236l-.309.31c-.309 1.852-1.543 3.704-4.63 3.704-3.088-.002-5.247-2.166-5.247-6.486m-3.398.619.309-.31v-.924c0-4.323-2.47-7.412-6.795-7.412-4.32 0-6.793 3.089-6.793 7.412v.616c0 4.322 2.16 8.027 7.102 8.027 4.322 0 5.866-2.78 6.175-4.632l-.31-.309H98.53l-.31.31c-.615 1.851-1.852 3.088-4.322 3.088-4.014 0-5.248-3.705-5.248-5.557l.31-.31zm-1.852-1.546h-9.264l-.309-.309c0-2.161 1.234-5.247 4.939-5.247 3.707 0 4.94 3.086 4.94 5.247zm-8.32-11.734v-.925l-.31-.309H73.535l-.309.31v.927l.31.309h6.793l.309.309V23l.309.31h1.234l.309-.31V3.545l.309-.309h6.793zM73.225 19.011v4.296H59.283V1.693h4.91v17.318zM8.76 23.307c5.03 0 9.257-3.436 10.462-8.086l12.227 9.552 12.22-9.548v8.082h13.944V19.01h-9.034V1.693h-4.91v8.082l-11.72 9.157-2.62-2.048 5.609-4.384 6.109-4.773L37.56 5l-11.722 9.16-2.62-2.049 11.72-9.156L31.449.227 19.222 9.78C18.017 5.13 13.79 1.693 8.76 1.693H0v21.614zM4.908 19.01V5.99H8.76c3.257 0 5.898 2.916 5.898 6.511s-2.64 6.511-5.898 6.511z"/></g><defs><linearGradient id="b" x1="130.878" x2="232.594" y1=".227" y2="18.556" gradientUnits="userSpaceOnUse"><stop stop-color="#1C2024"/><stop offset="1" stop-color="#60646C"/></linearGradient><clipPath id="a"><path fill="#fff" d="M0 0h231.136v30H0z"/></clipPath></defs></svg>