<svg xmlns="http://www.w3.org/2000/svg" width="320" height="232" fill="none" viewBox="0 0 320 232"><g filter="url(#a)"><rect width="80" height="80" x="80" y="76" fill="#0E0F10" rx="40"/><path fill="#5F43D0" d="M112.77 120.642c-1.886 1.123-6.832 3.417-3.82 6.287 1.472 1.402 3.111 2.404 5.171 2.404h11.758c2.06 0 3.699-1.002 5.171-2.404 3.012-2.87-1.934-5.164-3.82-6.287-4.424-2.634-10.036-2.634-14.46 0M126 108.667a6 6 0 1 1-12 0 6 6 0 0 1 12 0" opacity=".33"/></g><g filter="url(#b)"><rect width="80" height="80" x="120" y="76" fill="#0E0F10" rx="40"/><path fill="#5F43D0" d="M152.77 120.642c-1.886 1.123-6.832 3.417-3.82 6.287 1.472 1.402 3.111 2.404 5.171 2.404h11.758c2.06 0 3.699-1.002 5.171-2.404 3.012-2.87-1.934-5.164-3.82-6.287-4.424-2.634-10.036-2.634-14.46 0M166 108.667a6 6 0 1 1-12 0 6 6 0 0 1 12 0" opacity=".66"/></g><g filter="url(#c)"><rect width="80" height="80" x="160" y="76" fill="#0E0F10" rx="40"/><path fill="#5F43D0" d="M192.77 120.642c-1.886 1.123-6.832 3.417-3.82 6.287 1.472 1.402 3.111 2.404 5.171 2.404h11.758c2.06 0 3.699-1.002 5.171-2.404 3.012-2.87-1.934-5.164-3.82-6.287-4.424-2.634-10.036-2.634-14.46 0M206 108.667a6 6 0 1 1-12 0 6 6 0 0 1 12 0"/></g><defs><filter id="a" width="120" height="120" x="60" y="68" color-interpolation-filters="sRGB" filterUnits="userSpaceOnUse"><feFlood flood-opacity="0" result="BackgroundImageFix"/><feColorMatrix in="SourceAlpha" result="hardAlpha" values="0 0 0 0 0 0 0 0 0 0 0 0 0 0 0 0 0 0 127 0"/><feOffset dy="12"/><feGaussianBlur stdDeviation="10"/><feComposite in2="hardAlpha" operator="out"/><feColorMatrix values="0 0 0 0 0 0 0 0 0 0 0 0 0 0 0 0 0 0 0.03 0"/><feBlend in2="BackgroundImageFix" result="effect1_dropShadow_10060_19120"/><feColorMatrix in="SourceAlpha" result="hardAlpha" values="0 0 0 0 0 0 0 0 0 0 0 0 0 0 0 0 0 0 127 0"/><feOffset dy="2"/><feGaussianBlur stdDeviation="3"/><feComposite in2="hardAlpha" operator="out"/><feColorMatrix values="0 0 0 0 0 0 0 0 0 0 0 0 0 0 0 0 0 0 0.05 0"/><feBlend in2="effect1_dropShadow_10060_19120" result="effect2_dropShadow_10060_19120"/><feBlend in="SourceGraphic" in2="effect2_dropShadow_10060_19120" result="shape"/></filter><filter id="b" width="120" height="120" x="100" y="68" color-interpolation-filters="sRGB" filterUnits="userSpaceOnUse"><feFlood flood-opacity="0" result="BackgroundImageFix"/><feColorMatrix in="SourceAlpha" result="hardAlpha" values="0 0 0 0 0 0 0 0 0 0 0 0 0 0 0 0 0 0 127 0"/><feOffset dy="12"/><feGaussianBlur stdDeviation="10"/><feComposite in2="hardAlpha" operator="out"/><feColorMatrix values="0 0 0 0 0 0 0 0 0 0 0 0 0 0 0 0 0 0 0.03 0"/><feBlend in2="BackgroundImageFix" result="effect1_dropShadow_10060_19120"/><feColorMatrix in="SourceAlpha" result="hardAlpha" values="0 0 0 0 0 0 0 0 0 0 0 0 0 0 0 0 0 0 127 0"/><feOffset dy="2"/><feGaussianBlur stdDeviation="3"/><feComposite in2="hardAlpha" operator="out"/><feColorMatrix values="0 0 0 0 0 0 0 0 0 0 0 0 0 0 0 0 0 0 0.05 0"/><feBlend in2="effect1_dropShadow_10060_19120" result="effect2_dropShadow_10060_19120"/><feBlend in="SourceGraphic" in2="effect2_dropShadow_10060_19120" result="shape"/></filter><filter id="c" width="120" height="120" x="140" y="68" color-interpolation-filters="sRGB" filterUnits="userSpaceOnUse"><feFlood flood-opacity="0" result="BackgroundImageFix"/><feColorMatrix in="SourceAlpha" result="hardAlpha" values="0 0 0 0 0 0 0 0 0 0 0 0 0 0 0 0 0 0 127 0"/><feOffset dy="12"/><feGaussianBlur stdDeviation="10"/><feComposite in2="hardAlpha" operator="out"/><feColorMatrix values="0 0 0 0 0 0 0 0 0 0 0 0 0 0 0 0 0 0 0.03 0"/><feBlend in2="BackgroundImageFix" result="effect1_dropShadow_10060_19120"/><feColorMatrix in="SourceAlpha" result="hardAlpha" values="0 0 0 0 0 0 0 0 0 0 0 0 0 0 0 0 0 0 127 0"/><feOffset dy="2"/><feGaussianBlur stdDeviation="3"/><feComposite in2="hardAlpha" operator="out"/><feColorMatrix values="0 0 0 0 0 0 0 0 0 0 0 0 0 0 0 0 0 0 0.05 0"/><feBlend in2="effect1_dropShadow_10060_19120" result="effect2_dropShadow_10060_19120"/><feBlend in="SourceGraphic" in2="effect2_dropShadow_10060_19120" result="shape"/></filter></defs></svg>