<svg xmlns="http://www.w3.org/2000/svg" width="320" height="232" fill="none" viewBox="0 0 320 232"><g filter="url(#a)"><rect width="216" height="108" x="52" y="62" fill="#0E0F10" rx="12"/><g clip-path="url(#b)"><path fill="#5F43D0" fill-rule="evenodd" d="M92.7 105.194C91.26 105 89.413 105 87.062 105h-.122c-2.351 0-4.198 0-5.64.194-1.477.198-2.65.614-3.57 1.535-.921.921-1.337 2.093-1.535 3.57-.194 1.442-.194 3.289-.194 5.64v.122c0 2.351 0 4.198.194 5.64.198 1.477.614 2.649 1.535 3.57s2.093 1.337 3.57 1.535c1.442.194 3.289.194 5.64.194h.122c2.351 0 4.198 0 5.64-.194 1.477-.198 2.65-.614 3.57-1.535.921-.921 1.337-2.093 1.535-3.57.194-1.442.194-3.289.194-5.64v-.122c0-2.351 0-4.198-.194-5.64-.198-1.477-.614-2.649-1.535-3.57s-2.093-1.337-3.57-1.535m-2.108 9.473a1.074 1.074 0 0 1 1.401-1.626l1.317 1.134.04.035c.24.208.498.429.685.641.212.239.477.619.477 1.149s-.265.91-.477 1.149a7 7 0 0 1-.686.641l-.04.035-1.316 1.134a1.073 1.073 0 0 1-1.401-1.625l1.316-1.135.23-.199-.23-.199zm-7.072-1.514a1.074 1.074 0 0 1-.112 1.514l-1.316 1.134-.23.199.23.199 1.316 1.135a1.072 1.072 0 1 1-1.401 1.625l-1.317-1.134-.04-.035c-.24-.208-.498-.429-.685-.641-.212-.239-.477-.619-.477-1.149s.265-.91.477-1.149c.188-.212.444-.433.686-.641l.04-.035 1.316-1.134a1.073 1.073 0 0 1 1.513.112m5.572-.033a1.073 1.073 0 0 0-2.037-.679l-2.146 6.439a1.074 1.074 0 0 0 2.036.679z" clip-rule="evenodd"/></g><rect width="109" height="10" x="122" y="91" fill="#2F1C78" rx="5"/><rect width="122" height="10" x="122" y="131" fill="#2F1C78" rx="5"/><rect width="93" height="10" x="122" y="111" fill="#2F1C78" rx="5"/></g><defs><clipPath id="b"><path fill="#fff" d="M76 105h22v22H76z"/></clipPath><filter id="a" width="256" height="148" x="32" y="54" color-interpolation-filters="sRGB" filterUnits="userSpaceOnUse"><feFlood flood-opacity="0" result="BackgroundImageFix"/><feColorMatrix in="SourceAlpha" result="hardAlpha" values="0 0 0 0 0 0 0 0 0 0 0 0 0 0 0 0 0 0 127 0"/><feOffset dy="12"/><feGaussianBlur stdDeviation="10"/><feComposite in2="hardAlpha" operator="out"/><feColorMatrix values="0 0 0 0 0 0 0 0 0 0 0 0 0 0 0 0 0 0 0.03 0"/><feBlend in2="BackgroundImageFix" result="effect1_dropShadow_10060_19253"/><feColorMatrix in="SourceAlpha" result="hardAlpha" values="0 0 0 0 0 0 0 0 0 0 0 0 0 0 0 0 0 0 127 0"/><feOffset dy="2"/><feGaussianBlur stdDeviation="3"/><feComposite in2="hardAlpha" operator="out"/><feColorMatrix values="0 0 0 0 0 0 0 0 0 0 0 0 0 0 0 0 0 0 0.05 0"/><feBlend in2="effect1_dropShadow_10060_19253" result="effect2_dropShadow_10060_19253"/><feBlend in="SourceGraphic" in2="effect2_dropShadow_10060_19253" result="shape"/></filter></defs></svg>