<svg xmlns="http://www.w3.org/2000/svg" width="320" height="232" fill="none" viewBox="0 0 320 232"><g fill="#5F43D0" filter="url(#a)"><path d="M140 108c0-6.627 5.373-12 12-12h4a2 2 0 0 1 2 2v14a2 2 0 0 1-2 2h-14a2 2 0 0 1-2-2zm22 12a2 2 0 0 1 2-2h14a2 2 0 0 1 2 2v4c0 6.627-5.373 12-12 12h-4a2 2 0 0 1-2-2z"/><path d="M162 98a2 2 0 0 1 2-2h4c6.627 0 12 5.373 12 12v4a2 2 0 0 1-2 2h-14a2 2 0 0 1-2-2zm-22 22a2 2 0 0 1 2-2h14a2 2 0 0 1 2 2v14a2 2 0 0 1-2 2h-4c-6.627 0-12-5.373-12-12z" opacity=".4"/></g><defs><filter id="a" width="80" height="80" x="120" y="88" color-interpolation-filters="sRGB" filterUnits="userSpaceOnUse"><feFlood flood-opacity="0" result="BackgroundImageFix"/><feColorMatrix in="SourceAlpha" result="hardAlpha" values="0 0 0 0 0 0 0 0 0 0 0 0 0 0 0 0 0 0 127 0"/><feOffset dy="12"/><feGaussianBlur stdDeviation="10"/><feComposite in2="hardAlpha" operator="out"/><feColorMatrix values="0 0 0 0 0 0 0 0 0 0 0 0 0 0 0 0 0 0 0.03 0"/><feBlend in2="BackgroundImageFix" result="effect1_dropShadow_10060_19416"/><feColorMatrix in="SourceAlpha" result="hardAlpha" values="0 0 0 0 0 0 0 0 0 0 0 0 0 0 0 0 0 0 127 0"/><feOffset dy="2"/><feGaussianBlur stdDeviation="3"/><feComposite in2="hardAlpha" operator="out"/><feColorMatrix values="0 0 0 0 0 0 0 0 0 0 0 0 0 0 0 0 0 0 0.05 0"/><feBlend in2="effect1_dropShadow_10060_19416" result="effect2_dropShadow_10060_19416"/><feBlend in="SourceGraphic" in2="effect2_dropShadow_10060_19416" result="shape"/></filter></defs></svg>