<svg xmlns="http://www.w3.org/2000/svg" width="320" height="232" fill="none" viewBox="0 0 320 232"><g fill="#5F43D0" filter="url(#a)"><rect width="6" height="20" x="157" y="84" rx="3"/><rect width="6" height="20" x="128" y="119" opacity=".56" rx="3" transform="rotate(-90 128 119)"/><rect width="6" height="20" x="157" y="128" opacity=".72" rx="3"/><rect width="6" height="20" x="172" y="119" opacity=".88" rx="3" transform="rotate(-90 172 119)"/><rect width="6" height="20" x="180.506" y="91.251" opacity=".96" rx="3" transform="rotate(45 180.506 91.251)"/><rect width="6" height="20" x="135.251" y="95.494" opacity=".48" rx="3" transform="rotate(-45 135.251 95.494)"/><rect width="6" height="20" x="149.393" y="122.364" opacity=".64" rx="3" transform="rotate(45 149.393 122.364)"/><rect width="6" height="20" x="166.364" y="126.607" opacity=".8" rx="3" transform="rotate(-45 166.364 126.607)"/></g><defs><filter id="a" width="104" height="104" x="108" y="76" color-interpolation-filters="sRGB" filterUnits="userSpaceOnUse"><feFlood flood-opacity="0" result="BackgroundImageFix"/><feColorMatrix in="SourceAlpha" result="hardAlpha" values="0 0 0 0 0 0 0 0 0 0 0 0 0 0 0 0 0 0 127 0"/><feOffset dy="12"/><feGaussianBlur stdDeviation="10"/><feComposite in2="hardAlpha" operator="out"/><feColorMatrix values="0 0 0 0 0 0 0 0 0 0 0 0 0 0 0 0 0 0 0.03 0"/><feBlend in2="BackgroundImageFix" result="effect1_dropShadow_10060_19637"/><feColorMatrix in="SourceAlpha" result="hardAlpha" values="0 0 0 0 0 0 0 0 0 0 0 0 0 0 0 0 0 0 127 0"/><feOffset dy="2"/><feGaussianBlur stdDeviation="3"/><feComposite in2="hardAlpha" operator="out"/><feColorMatrix values="0 0 0 0 0 0 0 0 0 0 0 0 0 0 0 0 0 0 0.05 0"/><feBlend in2="effect1_dropShadow_10060_19637" result="effect2_dropShadow_10060_19637"/><feBlend in="SourceGraphic" in2="effect2_dropShadow_10060_19637" result="shape"/></filter></defs></svg>