<svg width="131" height="155" viewBox="0 0 131 155" fill="none" xmlns="http://www.w3.org/2000/svg">
<path d="M53.3335 1.86673C53.3335 3.06673 63.2002 37.4668 75.3336 78.5335C87.4669 119.467 97.3336 153.467 97.3336 153.867C97.3336 154.267 104.934 154.667 114.134 154.667H130.934L130.134 150.267C129.6 148 119.2 113.334 106.8 73.3335L84.4002 0.666725L68.9335 0.266725C55.7335 5.81664e-05 53.3335 0.266726 53.3335 1.86673ZM39.8668 82.1335C31.7335 84.5335 20.8001 94.4002 16.4001 103.2C13.0668 109.734 0.00012207 149.467 0.00012207 152.934C0.00012207 154.267 3.86679 154.667 16.4001 154.667H32.8002L39.3335 131.6C47.4668 102.667 51.3335 93.8668 59.4669 86.1335L65.8669 80.0002L55.8669 80.1335C50.4002 80.1335 43.2002 81.0668 39.8668 82.1335Z" fill="#ECEDF0"/>
</svg>
