<svg xmlns="http://www.w3.org/2000/svg" width="80" height="78" fill="none" viewBox="0 0 80 78"><g filter="url(#a)"><path fill="url(#b)" d="M13 11a8 8 0 0 1 8-8h38a8 8 0 0 1 8 8v38a6 6 0 0 1-6 6H19a6 6 0 0 1-6-6z"/><path fill="url(#c)" d="M13 11a8 8 0 0 1 8-8h38a8 8 0 0 1 8 8v38a6 6 0 0 1-6 6H19a6 6 0 0 1-6-6z"/><path fill="url(#d)" d="M31.436 34.875a1 1 0 0 1-1.436-.9v-3a1 1 0 0 1 .596-.916l14.572-6.432a.063.063 0 0 0 0-.114L30.596 17.08a1 1 0 0 1-.596-.915v-3.001a1 1 0 0 1 1.436-.9l18 8.713a1 1 0 0 1 .564.9v3.384a1 1 0 0 1-.564.9z"/><path stroke="#20117E" stroke-opacity=".04" d="M13 11a8 8 0 0 1 8-8h38a8 8 0 0 1 8 8v38a6 6 0 0 1-6 6H19a6 6 0 0 1-6-6z"/></g><defs><radialGradient id="b" cx="0" cy="0" r="1" gradientTransform="matrix(0 52 -54 0 40 3)" gradientUnits="userSpaceOnUse"><stop stop-color="#fff" stop-opacity=".9"/><stop offset="1" stop-color="#4E3DB9" stop-opacity=".24"/></radialGradient><radialGradient id="c" cx="0" cy="0" r="1" gradientTransform="matrix(0 52 -54 0 40 3)" gradientUnits="userSpaceOnUse"><stop stop-color="#fff"/><stop offset="1" stop-color="#F7F7F7"/></radialGradient><radialGradient id="d" cx="0" cy="0" r="1" gradientTransform="matrix(0 24 -20 0 40 11.57)" gradientUnits="userSpaceOnUse"><stop stop-color="#F5F3FF"/><stop stop-color="#fff"/><stop offset="1" stop-color="#E1DDF4"/></radialGradient><filter id="a" width="79" height="77" x=".5" y=".5" color-interpolation-filters="sRGB" filterUnits="userSpaceOnUse"><feFlood flood-opacity="0" result="BackgroundImageFix"/><feColorMatrix in="SourceAlpha" result="hardAlpha" values="0 0 0 0 0 0 0 0 0 0 0 0 0 0 0 0 0 0 127 0"/><feMorphology in="SourceAlpha" radius="4" result="effect1_dropShadow_198_2360"/><feOffset dy="10"/><feGaussianBlur stdDeviation="8"/><feColorMatrix values="0 0 0 0 0.0784314 0 0 0 0 0.0705882 0 0 0 0 0.231373 0 0 0 0.06 0"/><feBlend in2="BackgroundImageFix" result="effect1_dropShadow_198_2360"/><feColorMatrix in="SourceAlpha" result="hardAlpha" values="0 0 0 0 0 0 0 0 0 0 0 0 0 0 0 0 0 0 127 0"/><feMorphology in="SourceAlpha" radius="6" result="effect2_dropShadow_198_2360"/><feOffset dy="12"/><feGaussianBlur stdDeviation="3"/><feColorMatrix values="0 0 0 0 0.0784314 0 0 0 0 0.0705882 0 0 0 0 0.231373 0 0 0 0.1 0"/><feBlend in2="effect1_dropShadow_198_2360" result="effect2_dropShadow_198_2360"/><feColorMatrix in="SourceAlpha" result="hardAlpha" values="0 0 0 0 0 0 0 0 0 0 0 0 0 0 0 0 0 0 127 0"/><feMorphology in="SourceAlpha" radius="4" result="effect3_dropShadow_198_2360"/><feOffset dy="10"/><feGaussianBlur stdDeviation="3"/><feColorMatrix values="0 0 0 0 0.12549 0 0 0 0 0.0666667 0 0 0 0 0.494118 0 0 0 0.16 0"/><feBlend in2="effect2_dropShadow_198_2360" result="effect3_dropShadow_198_2360"/><feBlend in="SourceGraphic" in2="effect3_dropShadow_198_2360" result="shape"/><feColorMatrix in="SourceAlpha" result="hardAlpha" values="0 0 0 0 0 0 0 0 0 0 0 0 0 0 0 0 0 0 127 0"/><feMorphology in="SourceAlpha" operator="dilate" radius="2" result="effect4_innerShadow_198_2360"/><feOffset dy="-8"/><feGaussianBlur stdDeviation="2"/><feComposite in2="hardAlpha" k2="-1" k3="1" operator="arithmetic"/><feColorMatrix values="0 0 0 0 0.678431 0 0 0 0 0.607843 0 0 0 0 0.972549 0 0 0 0.22 0"/><feBlend in2="shape" result="effect4_innerShadow_198_2360"/></filter></defs></svg>