<svg xmlns="http://www.w3.org/2000/svg" width="86" height="80" fill="none" viewBox="0 0 86 80"><g filter="url(#a)"><rect width="34.036" height="34.036" fill="#fff" rx="2" transform="scale(1.22477 .70706)rotate(-45 72.072 14.238)"/></g><path fill="#fff" d="M45 2.155a4 4 0 0 0-4 0L14 17.743a2 2 0 0 0-1 1.732v27.05a2 2 0 0 0 1 1.733l27 15.587a4 4 0 0 0 4 0l27-15.587a2 2 0 0 0 1-1.733V19.474a2 2 0 0 0-1-1.732z"/><path fill="url(#b)" fill-opacity=".75" d="M45 2.155a4 4 0 0 0-4 0L14 17.743a2 2 0 0 0-1 1.732v27.05a2 2 0 0 0 1 1.733l27 15.587a4 4 0 0 0 4 0l27-15.587a2 2 0 0 0 1-1.733V19.474a2 2 0 0 0-1-1.732z"/><path stroke="#20117E" stroke-opacity=".06" d="M45.25 1.722a4.5 4.5 0 0 0-4.5 0l-27 15.587a2.5 2.5 0 0 0-1.25 2.165v27.051a2.5 2.5 0 0 0 1.25 2.166l27 15.587a4.5 4.5 0 0 0 4.5 0l27-15.587a2.5 2.5 0 0 0 1.25-2.166V19.474a2.5 2.5 0 0 0-1.25-2.165z"/><mask id="c" width="60" height="64" x="13" y="1" maskUnits="userSpaceOnUse" style="mask-type:alpha"><path fill="#fff" d="M45 2.155a4 4 0 0 0-4 0L14 17.743a2 2 0 0 0-1 1.732v27.05a2 2 0 0 0 1 1.733l27 15.587a4 4 0 0 0 4 0l27-15.587a2 2 0 0 0 1-1.733V19.474a2 2 0 0 0-1-1.732z"/></mask><g mask="url(#c)"><g filter="url(#d)"><path fill="#fff" d="M41.5 1.867 13 18.32l28.5 16.453a3 3 0 0 0 3 0L73 18.32 44.5 1.867a3 3 0 0 0-3 0"/><path fill="url(#e)" fill-opacity=".8" d="M41.5 1.867 13 18.32l28.5 16.453a3 3 0 0 0 3 0L73 18.32 44.5 1.867a3 3 0 0 0-3 0"/><path fill="url(#f)" fill-opacity=".8" d="M41.5 1.867 13 18.32l28.5 16.453a3 3 0 0 0 3 0L73 18.32 44.5 1.867a3 3 0 0 0-3 0"/></g><path fill="#fff" fill-opacity=".12" d="M43 1 13 18.32 35.469 31.3 43 26.98z"/><path fill="#fff" fill-opacity=".4" d="M43 1.867V26.98l7.133 4.183a.6.6 0 0 0 .603.002L73 18.32 43.75 1.434a.5.5 0 0 0-.75.433"/><g filter="url(#g)"><path fill="url(#h)" d="m14 48.258 27.5 15.875a1 1 0 0 0 1.5-.866v-27.05a1 1 0 0 0-.5-.867l-28-16.164a1 1 0 0 0-1.5.866v26.474a2 2 0 0 0 1 1.732"/></g><g filter="url(#i)"><path fill="url(#j)" d="M44.5 64.133 72 48.258a2 2 0 0 0 1-1.733V20.053a1 1 0 0 0-1.5-.866l-28 16.164a1 1 0 0 0-.5.866v27.051a1 1 0 0 0 1.5.866"/></g></g><defs><radialGradient id="b" cx="0" cy="0" r="1" gradientTransform="rotate(-25.407 115.159 2.515)scale(29.69 29.6906)" gradientUnits="userSpaceOnUse"><stop stop-color="#9387B6"/><stop offset="1" stop-color="#F5EFFE"/></radialGradient><radialGradient id="e" cx="0" cy="0" r="1" gradientTransform="matrix(16 24.35481 -35.40739 23.26105 27 9.12)" gradientUnits="userSpaceOnUse"><stop stop-color="#9387B6"/><stop offset="1" stop-color="#F5EFFE"/></radialGradient><radialGradient id="f" cx="0" cy="0" r="1" gradientTransform="matrix(0 -19.6586 36.3226 0 44.127 35.639)" gradientUnits="userSpaceOnUse"><stop stop-color="#CAB9FF"/><stop offset="1" stop-color="#fff"/></radialGradient><radialGradient id="h" cx="0" cy="0" r="1" gradientTransform="rotate(-46.925 71.764 16.299)scale(44.7587 29.3681)" gradientUnits="userSpaceOnUse"><stop stop-color="#fff"/><stop offset="1" stop-color="#fff" stop-opacity=".61"/></radialGradient><radialGradient id="j" cx="0" cy="0" r="1" gradientTransform="rotate(130.407 24.099 34.295)scale(35.2262 23.1134)" gradientUnits="userSpaceOnUse"><stop stop-color="#fff"/><stop offset="1" stop-color="#fff" stop-opacity="0"/></radialGradient><filter id="a" width="84.924" height="60.862" x=".538" y="18.551" color-interpolation-filters="sRGB" filterUnits="userSpaceOnUse"><feFlood flood-opacity="0" result="BackgroundImageFix"/><feColorMatrix in="SourceAlpha" result="hardAlpha" values="0 0 0 0 0 0 0 0 0 0 0 0 0 0 0 0 0 0 127 0"/><feMorphology in="SourceAlpha" radius="2" result="effect1_dropShadow_195_2279"/><feOffset dy="10"/><feGaussianBlur stdDeviation="8"/><feColorMatrix values="0 0 0 0 0.0784314 0 0 0 0 0.0705882 0 0 0 0 0.231373 0 0 0 0.32 0"/><feBlend in2="BackgroundImageFix" result="effect1_dropShadow_195_2279"/><feColorMatrix in="SourceAlpha" result="hardAlpha" values="0 0 0 0 0 0 0 0 0 0 0 0 0 0 0 0 0 0 127 0"/><feMorphology in="SourceAlpha" radius="2" result="effect2_dropShadow_195_2279"/><feOffset dy="12"/><feGaussianBlur stdDeviation="3"/><feColorMatrix values="0 0 0 0 0.0784314 0 0 0 0 0.0705882 0 0 0 0 0.231373 0 0 0 0.24 0"/><feBlend in2="effect1_dropShadow_195_2279" result="effect2_dropShadow_195_2279"/><feColorMatrix in="SourceAlpha" result="hardAlpha" values="0 0 0 0 0 0 0 0 0 0 0 0 0 0 0 0 0 0 127 0"/><feMorphology in="SourceAlpha" radius="2" result="effect3_dropShadow_195_2279"/><feOffset dy="6"/><feGaussianBlur stdDeviation="3"/><feColorMatrix values="0 0 0 0 0.12549 0 0 0 0 0.0666667 0 0 0 0 0.494118 0 0 0 0.24 0"/><feBlend in2="effect2_dropShadow_195_2279" result="effect3_dropShadow_195_2279"/><feBlend in="SourceGraphic" in2="effect3_dropShadow_195_2279" result="shape"/></filter><filter id="d" width="60" height="39.71" x="13" y="-4.535" color-interpolation-filters="sRGB" filterUnits="userSpaceOnUse"><feFlood flood-opacity="0" result="BackgroundImageFix"/><feBlend in="SourceGraphic" in2="BackgroundImageFix" result="shape"/><feColorMatrix in="SourceAlpha" result="hardAlpha" values="0 0 0 0 0 0 0 0 0 0 0 0 0 0 0 0 0 0 127 0"/><feOffset dy="-6"/><feGaussianBlur stdDeviation="10"/><feComposite in2="hardAlpha" k2="-1" k3="1" operator="arithmetic"/><feColorMatrix values="0 0 0 0 0.12549 0 0 0 0 0.0666667 0 0 0 0 0.494118 0 0 0 0.12 0"/><feBlend in2="shape" result="effect1_innerShadow_195_2279"/><feColorMatrix in="SourceAlpha" result="hardAlpha" values="0 0 0 0 0 0 0 0 0 0 0 0 0 0 0 0 0 0 127 0"/><feOffset dy="-4"/><feGaussianBlur stdDeviation="4"/><feComposite in2="hardAlpha" k2="-1" k3="1" operator="arithmetic"/><feColorMatrix values="0 0 0 0 1 0 0 0 0 1 0 0 0 0 1 0 0 0 0.6 0"/><feBlend in2="effect1_innerShadow_195_2279" result="effect2_innerShadow_195_2279"/></filter><filter id="g" width="30.5" height="46.718" x="13" y="18.55" color-interpolation-filters="sRGB" filterUnits="userSpaceOnUse"><feFlood flood-opacity="0" result="BackgroundImageFix"/><feBlend in="SourceGraphic" in2="BackgroundImageFix" result="shape"/><feColorMatrix in="SourceAlpha" result="hardAlpha" values="0 0 0 0 0 0 0 0 0 0 0 0 0 0 0 0 0 0 127 0"/><feOffset dy="2"/><feGaussianBlur stdDeviation=".5"/><feComposite in2="hardAlpha" k2="-1" k3="1" operator="arithmetic"/><feColorMatrix values="0 0 0 0 1 0 0 0 0 1 0 0 0 0 1 0 0 0 1 0"/><feBlend in2="shape" result="effect1_innerShadow_195_2279"/><feColorMatrix in="SourceAlpha" result="hardAlpha" values="0 0 0 0 0 0 0 0 0 0 0 0 0 0 0 0 0 0 127 0"/><feOffset dx=".5" dy="-.5"/><feGaussianBlur stdDeviation=".5"/><feComposite in2="hardAlpha" k2="-1" k3="1" operator="arithmetic"/><feColorMatrix values="0 0 0 0 1 0 0 0 0 1 0 0 0 0 1 0 0 0 1 0"/><feBlend in2="effect1_innerShadow_195_2279" result="effect2_innerShadow_195_2279"/></filter><filter id="i" width="30.5" height="46.718" x="42.5" y="18.05" color-interpolation-filters="sRGB" filterUnits="userSpaceOnUse"><feFlood flood-opacity="0" result="BackgroundImageFix"/><feBlend in="SourceGraphic" in2="BackgroundImageFix" result="shape"/><feColorMatrix in="SourceAlpha" result="hardAlpha" values="0 0 0 0 0 0 0 0 0 0 0 0 0 0 0 0 0 0 127 0"/><feOffset dy="-1"/><feGaussianBlur stdDeviation=".5"/><feComposite in2="hardAlpha" k2="-1" k3="1" operator="arithmetic"/><feColorMatrix values="0 0 0 0 1 0 0 0 0 1 0 0 0 0 1 0 0 0 1 0"/><feBlend in2="shape" result="effect1_innerShadow_195_2279"/><feColorMatrix in="SourceAlpha" result="hardAlpha" values="0 0 0 0 0 0 0 0 0 0 0 0 0 0 0 0 0 0 127 0"/><feOffset dx="-.5" dy=".5"/><feGaussianBlur stdDeviation=".5"/><feComposite in2="hardAlpha" k2="-1" k3="1" operator="arithmetic"/><feColorMatrix values="0 0 0 0 1 0 0 0 0 1 0 0 0 0 1 0 0 0 1 0"/><feBlend in2="effect1_innerShadow_195_2279" result="effect2_innerShadow_195_2279"/></filter></defs></svg>