<svg xmlns="http://www.w3.org/2000/svg" width="92" height="73" fill="none" viewBox="0 0 92 73"><g filter="url(#a)"><rect width="58" height="38" x="17" y="23.5" fill="#fff" rx="19"/></g><path fill="#0C2755" fill-opacity=".12" d="M75.03 19.049C75.03 13.499 62.031 9 46 9s-29.03 4.499-29.03 10.049v8.934c0 1.388.814 2.71 2.283 3.912-1.47 1.203-2.282 2.525-2.282 3.912q0 .306.051.605v.005a3.6 3.6 0 0 1-.051-.6v7.134c0 1.394.82 2.722 2.301 3.928-1.481 1.207-2.301 2.535-2.301 3.928q0 .305.051.605v.005a3.6 3.6 0 0 1-.051-.6v7.134C16.97 63.501 29.968 68 46 68s29.03-4.499 29.03-10.049v-7.134q0 .303-.052.6v-.005q.051-.3.051-.605c0-1.393-.82-2.72-2.302-3.928 1.482-1.206 2.302-2.534 2.302-3.928v-7.134q0 .303-.05.6l-.002-.005q.052-.3.052-.605c0-1.387-.813-2.71-2.282-3.912 1.47-1.202 2.282-2.524 2.282-3.912z"/><g filter="url(#b)"><path fill="#fff" d="M75.03 49.518c0-5.55-12.998-10.048-29.03-10.048s-29.03 4.499-29.03 10.048v5.935C16.97 61.003 29.969 65.5 46 65.5s29.03-4.499 29.03-10.049z"/><path stroke="#E9F0FB" d="M75.03 49.518c0-5.55-12.998-10.048-29.03-10.048s-29.03 4.499-29.03 10.048v5.935C16.97 61.003 29.969 65.5 46 65.5s29.03-4.499 29.03-10.049z"/></g><g filter="url(#c)"><path fill="#fff" d="M75.03 49.518c0 5.55-12.998 10.049-29.03 10.049s-29.03-4.499-29.03-10.049S29.969 39.47 46 39.47s29.03 4.499 29.03 10.048"/></g><g filter="url(#d)"><path fill="#fff" d="M75.03 48.309c0 5.55-12.998 10.048-29.03 10.048S16.97 53.858 16.97 48.31 29.969 38.26 46 38.26s29.03 4.499 29.03 10.049"/><path fill="url(#e)" fill-opacity=".75" d="M75.03 48.309c0 5.55-12.998 10.048-29.03 10.048S16.97 53.858 16.97 48.31 29.969 38.26 46 38.26s29.03 4.499 29.03 10.049"/></g><path stroke="#EDF4FF" d="M74.53 48.309c0 1.176-.689 2.37-2.099 3.524-1.406 1.151-3.471 2.21-6.068 3.108-5.188 1.796-12.387 2.916-20.363 2.916s-15.175-1.12-20.363-2.916c-2.597-.898-4.662-1.957-6.068-3.108-1.41-1.154-2.098-2.348-2.098-3.524s.688-2.37 2.098-3.525c1.406-1.15 3.471-2.21 6.068-3.108C30.825 39.88 38.024 38.76 46 38.76s15.175 1.12 20.363 2.916c2.597.898 4.662 1.957 6.068 3.108 1.41 1.154 2.098 2.348 2.098 3.525Z"/><g filter="url(#f)"><path fill="#fff" d="M46 58.367c16.032 0 29.03-4.499 29.03-10.049v7.135C75.03 61.003 62.031 65.5 46 65.5s-29.03-4.499-29.03-10.049v-7.134c0 5.55 12.998 10.049 29.03 10.049"/><path fill="url(#g)" d="M46 58.367c16.032 0 29.03-4.499 29.03-10.049v7.135C75.03 61.003 62.031 65.5 46 65.5s-29.03-4.499-29.03-10.049v-7.134c0 5.55 12.998 10.049 29.03 10.049"/></g><g filter="url(#h)"><path fill="#fff" d="M75.03 34.518c0-5.55-12.998-10.048-29.03-10.048s-29.03 4.499-29.03 10.048v5.935C16.97 46.003 29.969 50.5 46 50.5s29.03-4.499 29.03-10.048z"/><path stroke="#E9F0FB" d="M75.03 34.518c0-5.55-12.998-10.048-29.03-10.048s-29.03 4.499-29.03 10.048v5.935C16.97 46.003 29.969 50.5 46 50.5s29.03-4.499 29.03-10.048z"/></g><g filter="url(#i)"><path fill="#fff" d="M75.03 34.518c0 5.55-12.998 10.049-29.03 10.049s-29.03-4.499-29.03-10.049S29.969 24.47 46 24.47s29.03 4.499 29.03 10.048"/></g><g filter="url(#j)"><path fill="#fff" d="M75.03 33.309c0 5.55-12.998 10.048-29.03 10.048S16.97 38.858 16.97 33.31 29.969 23.26 46 23.26s29.03 4.499 29.03 10.049"/><path fill="url(#k)" fill-opacity=".75" d="M75.03 33.309c0 5.55-12.998 10.048-29.03 10.048S16.97 38.858 16.97 33.31 29.969 23.26 46 23.26s29.03 4.499 29.03 10.049"/></g><path stroke="#EDF4FF" d="M74.53 33.309c0 1.176-.689 2.37-2.099 3.524-1.406 1.151-3.471 2.21-6.068 3.108-5.188 1.796-12.387 2.916-20.363 2.916s-15.175-1.12-20.363-2.916c-2.597-.898-4.662-1.957-6.068-3.108-1.41-1.154-2.098-2.348-2.098-3.524s.688-2.37 2.098-3.525c1.406-1.15 3.471-2.21 6.068-3.108C30.825 24.88 38.024 23.76 46 23.76s15.175 1.12 20.363 2.916c2.597.898 4.662 1.957 6.068 3.108 1.41 1.154 2.098 2.348 2.098 3.525Z"/><g filter="url(#l)"><path fill="#fff" d="M46 43.367c16.032 0 29.03-4.499 29.03-10.049v7.135C75.03 46.003 62.031 50.5 46 50.5s-29.03-4.499-29.03-10.048v-7.135c0 5.55 12.998 10.049 29.03 10.049"/><path fill="url(#m)" d="M46 43.367c16.032 0 29.03-4.499 29.03-10.049v7.135C75.03 46.003 62.031 50.5 46 50.5s-29.03-4.499-29.03-10.048v-7.135c0 5.55 12.998 10.049 29.03 10.049"/></g><g filter="url(#n)"><path fill="#fff" d="M75.03 16.55C75.03 11 62.031 6.5 46 6.5S16.97 11 16.97 16.55v8.934c0 5.55 12.998 10.048 29.03 10.048s29.03-4.498 29.03-10.048z"/><path fill="url(#o)" fill-opacity=".5" d="M75.03 16.55C75.03 11 62.031 6.5 46 6.5S16.97 11 16.97 16.55v8.934c0 5.55 12.998 10.048 29.03 10.048s29.03-4.498 29.03-10.048z"/><path fill="url(#p)" d="M75.03 16.55C75.03 11 62.031 6.5 46 6.5S16.97 11 16.97 16.55v8.934c0 5.55 12.998 10.048 29.03 10.048s29.03-4.498 29.03-10.048z"/></g><g filter="url(#q)"><path fill="#fff" d="M75.03 16.55c0 5.55-12.998 10.048-29.03 10.048S16.97 22.1 16.97 16.55 29.969 6.5 46 6.5 75.03 11 75.03 16.55"/><path fill="url(#r)" fill-opacity=".5" d="M75.03 16.55c0 5.55-12.998 10.048-29.03 10.048S16.97 22.1 16.97 16.55 29.969 6.5 46 6.5 75.03 11 75.03 16.55"/><path fill="url(#s)" d="M75.03 16.55c0 5.55-12.998 10.048-29.03 10.048S16.97 22.1 16.97 16.55 29.969 6.5 46 6.5 75.03 11 75.03 16.55"/><path fill="url(#t)" d="M75.03 16.55c0 5.55-12.998 10.048-29.03 10.048S16.97 22.1 16.97 16.55 29.969 6.5 46 6.5 75.03 11 75.03 16.55"/></g><g filter="url(#u)"><path fill="#fff" d="M46 26.598c16.032 0 29.03-4.499 29.03-10.048v8.934c0 5.55-12.998 10.048-29.03 10.048s-29.03-4.498-29.03-10.048V16.55c0 5.55 12.998 10.048 29.03 10.048"/><path fill="url(#v)" fill-opacity=".5" d="M46 26.598c16.032 0 29.03-4.499 29.03-10.048v8.934c0 5.55-12.998 10.048-29.03 10.048s-29.03-4.498-29.03-10.048V16.55c0 5.55 12.998 10.048 29.03 10.048"/><path fill="url(#w)" d="M46 26.598c16.032 0 29.03-4.499 29.03-10.048v8.934c0 5.55-12.998 10.048-29.03 10.048s-29.03-4.498-29.03-10.048V16.55c0 5.55 12.998 10.048 29.03 10.048"/></g><g filter="url(#x)"><path fill="#fff" fill-opacity=".12" d="M75.03 49.149c0 5.55-12.998 10.048-29.03 10.048S16.97 54.698 16.97 49.15 29.969 39.1 46 39.1s29.03 4.499 29.03 10.049"/></g><g filter="url(#y)"><path fill="#fff" fill-opacity=".12" d="M75.03 33.309c0 5.55-12.998 10.048-29.03 10.048S16.97 38.858 16.97 33.31 29.969 23.26 46 23.26s29.03 4.499 29.03 10.049"/></g><defs><filter id="a" width="58" height="52" x="17" y="23.5" color-interpolation-filters="sRGB" filterUnits="userSpaceOnUse"><feFlood flood-opacity="0" result="BackgroundImageFix"/><feColorMatrix in="SourceAlpha" result="hardAlpha" values="0 0 0 0 0 0 0 0 0 0 0 0 0 0 0 0 0 0 127 0"/><feMorphology in="SourceAlpha" radius="16" result="effect1_dropShadow_197_2265"/><feOffset dy="20"/><feGaussianBlur stdDeviation="5"/><feColorMatrix values="0 0 0 0 0.0470588 0 0 0 0 0.152941 0 0 0 0 0.333333 0 0 0 0.6 0"/><feBlend in2="BackgroundImageFix" result="effect1_dropShadow_197_2265"/><feColorMatrix in="SourceAlpha" result="hardAlpha" values="0 0 0 0 0 0 0 0 0 0 0 0 0 0 0 0 0 0 127 0"/><feMorphology in="SourceAlpha" radius="7" result="effect2_dropShadow_197_2265"/><feOffset dy="12"/><feGaussianBlur stdDeviation="3"/><feColorMatrix values="0 0 0 0 0.06651 0 0 0 0 0.205908 0 0 0 0 0.4434 0 0 0 0.4 0"/><feBlend in2="effect1_dropShadow_197_2265" result="effect2_dropShadow_197_2265"/><feBlend in="SourceGraphic" in2="effect2_dropShadow_197_2265" result="shape"/></filter><filter id="b" width="63.059" height="33.031" x="14.471" y="38.97" color-interpolation-filters="sRGB" filterUnits="userSpaceOnUse"><feFlood flood-opacity="0" result="BackgroundImageFix"/><feColorMatrix in="SourceAlpha" result="hardAlpha" values="0 0 0 0 0 0 0 0 0 0 0 0 0 0 0 0 0 0 127 0"/><feOffset dy="4"/><feGaussianBlur stdDeviation="1"/><feComposite in2="hardAlpha" operator="out"/><feColorMatrix values="0 0 0 0 0.0470588 0 0 0 0 0.152941 0 0 0 0 0.333333 0 0 0 0.08 0"/><feBlend in2="BackgroundImageFix" result="effect1_dropShadow_197_2265"/><feBlend in="SourceGraphic" in2="effect1_dropShadow_197_2265" result="shape"/><feColorMatrix in="SourceAlpha" result="hardAlpha" values="0 0 0 0 0 0 0 0 0 0 0 0 0 0 0 0 0 0 127 0"/><feMorphology in="SourceAlpha" radius="1.935" result="effect2_innerShadow_197_2265"/><feOffset/><feGaussianBlur stdDeviation="4.838"/><feComposite in2="hardAlpha" k2="-1" k3="1" operator="arithmetic"/><feColorMatrix values="0 0 0 0 1 0 0 0 0 1 0 0 0 0 1 0 0 0 1 0"/><feBlend in2="shape" result="effect2_innerShadow_197_2265"/><feColorMatrix in="SourceAlpha" result="hardAlpha" values="0 0 0 0 0 0 0 0 0 0 0 0 0 0 0 0 0 0 127 0"/><feOffset dy="4"/><feGaussianBlur stdDeviation="2"/><feComposite in2="hardAlpha" k2="-1" k3="1" operator="arithmetic"/><feColorMatrix values="0 0 0 0 1 0 0 0 0 1 0 0 0 0 1 0 0 0 0.4 0"/><feBlend in2="effect2_innerShadow_197_2265" result="effect3_innerShadow_197_2265"/></filter><filter id="c" width="70.059" height="32.097" x="10.971" y="35.47" color-interpolation-filters="sRGB" filterUnits="userSpaceOnUse"><feFlood flood-opacity="0" result="BackgroundImageFix"/><feColorMatrix in="SourceAlpha" result="hardAlpha" values="0 0 0 0 0 0 0 0 0 0 0 0 0 0 0 0 0 0 127 0"/><feOffset dy="2"/><feGaussianBlur stdDeviation="3"/><feColorMatrix values="0 0 0 0 0.0470588 0 0 0 0 0.152941 0 0 0 0 0.333333 0 0 0 0.16 0"/><feBlend in2="BackgroundImageFix" result="effect1_dropShadow_197_2265"/><feBlend in="SourceGraphic" in2="effect1_dropShadow_197_2265" result="shape"/></filter><filter id="d" width="58.059" height="28.097" x="16.971" y="34.26" color-interpolation-filters="sRGB" filterUnits="userSpaceOnUse"><feFlood flood-opacity="0" result="BackgroundImageFix"/><feBlend in="SourceGraphic" in2="BackgroundImageFix" result="shape"/><feColorMatrix in="SourceAlpha" result="hardAlpha" values="0 0 0 0 0 0 0 0 0 0 0 0 0 0 0 0 0 0 127 0"/><feOffset dy="-6"/><feGaussianBlur stdDeviation="2"/><feComposite in2="hardAlpha" k2="-1" k3="1" operator="arithmetic"/><feColorMatrix values="0 0 0 0 1 0 0 0 0 1 0 0 0 0 1 0 0 0 1 0"/><feBlend in2="shape" result="effect1_innerShadow_197_2265"/><feColorMatrix in="SourceAlpha" result="hardAlpha" values="0 0 0 0 0 0 0 0 0 0 0 0 0 0 0 0 0 0 127 0"/><feOffset dy="4"/><feGaussianBlur stdDeviation="2"/><feComposite in2="hardAlpha" k2="-1" k3="1" operator="arithmetic"/><feColorMatrix values="0 0 0 0 0.803922 0 0 0 0 0.8 0 0 0 0 0.819608 0 0 0 0.14 0"/><feBlend in2="effect1_innerShadow_197_2265" result="effect2_innerShadow_197_2265"/><feColorMatrix in="SourceAlpha" result="hardAlpha" values="0 0 0 0 0 0 0 0 0 0 0 0 0 0 0 0 0 0 127 0"/><feOffset dy="4"/><feGaussianBlur stdDeviation="2"/><feComposite in2="hardAlpha" k2="-1" k3="1" operator="arithmetic"/><feColorMatrix values="0 0 0 0 1 0 0 0 0 1 0 0 0 0 1 0 0 0 0.4 0"/><feBlend in2="effect2_innerShadow_197_2265" result="effect3_innerShadow_197_2265"/><feColorMatrix in="SourceAlpha" result="hardAlpha" values="0 0 0 0 0 0 0 0 0 0 0 0 0 0 0 0 0 0 127 0"/><feOffset dy="-1"/><feComposite in2="hardAlpha" k2="-1" k3="1" operator="arithmetic"/><feColorMatrix values="0 0 0 0 1 0 0 0 0 1 0 0 0 0 1 0 0 0 1 0"/><feBlend in2="effect3_innerShadow_197_2265" result="effect4_innerShadow_197_2265"/></filter><filter id="f" width="58.559" height="17.683" x="16.971" y="47.818" color-interpolation-filters="sRGB" filterUnits="userSpaceOnUse"><feFlood flood-opacity="0" result="BackgroundImageFix"/><feBlend in="SourceGraphic" in2="BackgroundImageFix" result="shape"/><feColorMatrix in="SourceAlpha" result="hardAlpha" values="0 0 0 0 0 0 0 0 0 0 0 0 0 0 0 0 0 0 127 0"/><feOffset dx=".5" dy="-.5"/><feGaussianBlur stdDeviation=".5"/><feComposite in2="hardAlpha" k2="-1" k3="1" operator="arithmetic"/><feColorMatrix values="0 0 0 0 1 0 0 0 0 1 0 0 0 0 1 0 0 0 1 0"/><feBlend in2="shape" result="effect1_innerShadow_197_2265"/></filter><filter id="h" width="63.059" height="33.031" x="14.471" y="23.97" color-interpolation-filters="sRGB" filterUnits="userSpaceOnUse"><feFlood flood-opacity="0" result="BackgroundImageFix"/><feColorMatrix in="SourceAlpha" result="hardAlpha" values="0 0 0 0 0 0 0 0 0 0 0 0 0 0 0 0 0 0 127 0"/><feOffset dy="4"/><feGaussianBlur stdDeviation="1"/><feComposite in2="hardAlpha" operator="out"/><feColorMatrix values="0 0 0 0 0.0470588 0 0 0 0 0.152941 0 0 0 0 0.333333 0 0 0 0.08 0"/><feBlend in2="BackgroundImageFix" result="effect1_dropShadow_197_2265"/><feBlend in="SourceGraphic" in2="effect1_dropShadow_197_2265" result="shape"/><feColorMatrix in="SourceAlpha" result="hardAlpha" values="0 0 0 0 0 0 0 0 0 0 0 0 0 0 0 0 0 0 127 0"/><feMorphology in="SourceAlpha" radius="1.935" result="effect2_innerShadow_197_2265"/><feOffset/><feGaussianBlur stdDeviation="4.838"/><feComposite in2="hardAlpha" k2="-1" k3="1" operator="arithmetic"/><feColorMatrix values="0 0 0 0 1 0 0 0 0 1 0 0 0 0 1 0 0 0 1 0"/><feBlend in2="shape" result="effect2_innerShadow_197_2265"/><feColorMatrix in="SourceAlpha" result="hardAlpha" values="0 0 0 0 0 0 0 0 0 0 0 0 0 0 0 0 0 0 127 0"/><feOffset dy="4"/><feGaussianBlur stdDeviation="2"/><feComposite in2="hardAlpha" k2="-1" k3="1" operator="arithmetic"/><feColorMatrix values="0 0 0 0 1 0 0 0 0 1 0 0 0 0 1 0 0 0 0.4 0"/><feBlend in2="effect2_innerShadow_197_2265" result="effect3_innerShadow_197_2265"/></filter><filter id="i" width="70.059" height="32.097" x="10.971" y="20.47" color-interpolation-filters="sRGB" filterUnits="userSpaceOnUse"><feFlood flood-opacity="0" result="BackgroundImageFix"/><feColorMatrix in="SourceAlpha" result="hardAlpha" values="0 0 0 0 0 0 0 0 0 0 0 0 0 0 0 0 0 0 127 0"/><feOffset dy="2"/><feGaussianBlur stdDeviation="3"/><feColorMatrix values="0 0 0 0 0.0470588 0 0 0 0 0.152941 0 0 0 0 0.333333 0 0 0 0.16 0"/><feBlend in2="BackgroundImageFix" result="effect1_dropShadow_197_2265"/><feBlend in="SourceGraphic" in2="effect1_dropShadow_197_2265" result="shape"/></filter><filter id="j" width="58.059" height="28.097" x="16.971" y="19.26" color-interpolation-filters="sRGB" filterUnits="userSpaceOnUse"><feFlood flood-opacity="0" result="BackgroundImageFix"/><feBlend in="SourceGraphic" in2="BackgroundImageFix" result="shape"/><feColorMatrix in="SourceAlpha" result="hardAlpha" values="0 0 0 0 0 0 0 0 0 0 0 0 0 0 0 0 0 0 127 0"/><feOffset dy="-6"/><feGaussianBlur stdDeviation="2"/><feComposite in2="hardAlpha" k2="-1" k3="1" operator="arithmetic"/><feColorMatrix values="0 0 0 0 1 0 0 0 0 1 0 0 0 0 1 0 0 0 1 0"/><feBlend in2="shape" result="effect1_innerShadow_197_2265"/><feColorMatrix in="SourceAlpha" result="hardAlpha" values="0 0 0 0 0 0 0 0 0 0 0 0 0 0 0 0 0 0 127 0"/><feOffset dy="4"/><feGaussianBlur stdDeviation="2"/><feComposite in2="hardAlpha" k2="-1" k3="1" operator="arithmetic"/><feColorMatrix values="0 0 0 0 0.803922 0 0 0 0 0.8 0 0 0 0 0.819608 0 0 0 0.14 0"/><feBlend in2="effect1_innerShadow_197_2265" result="effect2_innerShadow_197_2265"/><feColorMatrix in="SourceAlpha" result="hardAlpha" values="0 0 0 0 0 0 0 0 0 0 0 0 0 0 0 0 0 0 127 0"/><feOffset dy="4"/><feGaussianBlur stdDeviation="2"/><feComposite in2="hardAlpha" k2="-1" k3="1" operator="arithmetic"/><feColorMatrix values="0 0 0 0 1 0 0 0 0 1 0 0 0 0 1 0 0 0 0.4 0"/><feBlend in2="effect2_innerShadow_197_2265" result="effect3_innerShadow_197_2265"/><feColorMatrix in="SourceAlpha" result="hardAlpha" values="0 0 0 0 0 0 0 0 0 0 0 0 0 0 0 0 0 0 127 0"/><feOffset dy="-1"/><feComposite in2="hardAlpha" k2="-1" k3="1" operator="arithmetic"/><feColorMatrix values="0 0 0 0 1 0 0 0 0 1 0 0 0 0 1 0 0 0 1 0"/><feBlend in2="effect3_innerShadow_197_2265" result="effect4_innerShadow_197_2265"/></filter><filter id="l" width="58.559" height="17.683" x="16.971" y="32.818" color-interpolation-filters="sRGB" filterUnits="userSpaceOnUse"><feFlood flood-opacity="0" result="BackgroundImageFix"/><feBlend in="SourceGraphic" in2="BackgroundImageFix" result="shape"/><feColorMatrix in="SourceAlpha" result="hardAlpha" values="0 0 0 0 0 0 0 0 0 0 0 0 0 0 0 0 0 0 127 0"/><feOffset dx=".5" dy="-.5"/><feGaussianBlur stdDeviation=".5"/><feComposite in2="hardAlpha" k2="-1" k3="1" operator="arithmetic"/><feColorMatrix values="0 0 0 0 1 0 0 0 0 1 0 0 0 0 1 0 0 0 1 0"/><feBlend in2="shape" result="effect1_innerShadow_197_2265"/></filter><filter id="n" width="90.059" height="61.031" x=".971" y=".501" color-interpolation-filters="sRGB" filterUnits="userSpaceOnUse"><feFlood flood-opacity="0" result="BackgroundImageFix"/><feColorMatrix in="SourceAlpha" result="hardAlpha" values="0 0 0 0 0 0 0 0 0 0 0 0 0 0 0 0 0 0 127 0"/><feOffset dy="10"/><feGaussianBlur stdDeviation="8"/><feColorMatrix values="0 0 0 0 0.0784314 0 0 0 0 0.0705882 0 0 0 0 0.231373 0 0 0 0.04 0"/><feBlend in2="BackgroundImageFix" result="effect1_dropShadow_197_2265"/><feColorMatrix in="SourceAlpha" result="hardAlpha" values="0 0 0 0 0 0 0 0 0 0 0 0 0 0 0 0 0 0 127 0"/><feOffset dy="12"/><feGaussianBlur stdDeviation="3"/><feColorMatrix values="0 0 0 0 0.0784314 0 0 0 0 0.0705882 0 0 0 0 0.231373 0 0 0 0.02 0"/><feBlend in2="effect1_dropShadow_197_2265" result="effect2_dropShadow_197_2265"/><feColorMatrix in="SourceAlpha" result="hardAlpha" values="0 0 0 0 0 0 0 0 0 0 0 0 0 0 0 0 0 0 127 0"/><feOffset dy="6"/><feGaussianBlur stdDeviation="3"/><feColorMatrix values="0 0 0 0 0.0470588 0 0 0 0 0.152941 0 0 0 0 0.333333 0 0 0 0.06 0"/><feBlend in2="effect2_dropShadow_197_2265" result="effect3_dropShadow_197_2265"/><feBlend in="SourceGraphic" in2="effect3_dropShadow_197_2265" result="shape"/><feColorMatrix in="SourceAlpha" result="hardAlpha" values="0 0 0 0 0 0 0 0 0 0 0 0 0 0 0 0 0 0 127 0"/><feMorphology in="SourceAlpha" operator="dilate" radius="2" result="effect4_innerShadow_197_2265"/><feOffset dy="4"/><feGaussianBlur stdDeviation="2"/><feComposite in2="hardAlpha" k2="-1" k3="1" operator="arithmetic"/><feColorMatrix values="0 0 0 0 1 0 0 0 0 1 0 0 0 0 1 0 0 0 0.4 0"/><feBlend in2="shape" result="effect4_innerShadow_197_2265"/><feColorMatrix in="SourceAlpha" result="hardAlpha" values="0 0 0 0 0 0 0 0 0 0 0 0 0 0 0 0 0 0 127 0"/><feOffset/><feGaussianBlur stdDeviation="4"/><feComposite in2="hardAlpha" k2="-1" k3="1" operator="arithmetic"/><feColorMatrix values="0 0 0 0 1 0 0 0 0 1 0 0 0 0 1 0 0 0 1 0"/><feBlend in2="effect4_innerShadow_197_2265" result="effect5_innerShadow_197_2265"/><feColorMatrix in="SourceAlpha" result="hardAlpha" values="0 0 0 0 0 0 0 0 0 0 0 0 0 0 0 0 0 0 127 0"/><feMorphology in="SourceAlpha" radius="2" result="effect6_innerShadow_197_2265"/><feOffset dy="4"/><feGaussianBlur stdDeviation="2"/><feComposite in2="hardAlpha" k2="-1" k3="1" operator="arithmetic"/><feColorMatrix values="0 0 0 0 0.678431 0 0 0 0 0.607843 0 0 0 0 0.972549 0 0 0 0.08 0"/><feBlend in2="effect5_innerShadow_197_2265" result="effect6_innerShadow_197_2265"/><feColorMatrix in="SourceAlpha" result="hardAlpha" values="0 0 0 0 0 0 0 0 0 0 0 0 0 0 0 0 0 0 127 0"/><feMorphology in="SourceAlpha" radius="1" result="effect7_innerShadow_197_2265"/><feOffset/><feComposite in2="hardAlpha" k2="-1" k3="1" operator="arithmetic"/><feColorMatrix values="0 0 0 0 0.12549 0 0 0 0 0.0666667 0 0 0 0 0.494118 0 0 0 0.02 0"/><feBlend in2="effect6_innerShadow_197_2265" result="effect7_innerShadow_197_2265"/><feColorMatrix in="SourceAlpha" result="hardAlpha" values="0 0 0 0 0 0 0 0 0 0 0 0 0 0 0 0 0 0 127 0"/><feMorphology in="SourceAlpha" operator="dilate" radius="2" result="effect8_innerShadow_197_2265"/><feOffset dy="-4"/><feGaussianBlur stdDeviation="2"/><feComposite in2="hardAlpha" k2="-1" k3="1" operator="arithmetic"/><feColorMatrix values="0 0 0 0 1 0 0 0 0 1 0 0 0 0 1 0 0 0 0.2 0"/><feBlend in2="effect7_innerShadow_197_2265" result="effect8_innerShadow_197_2265"/></filter><filter id="q" width="61.929" height="25.903" x="15.035" y="6.501" color-interpolation-filters="sRGB" filterUnits="userSpaceOnUse"><feFlood flood-opacity="0" result="BackgroundImageFix"/><feColorMatrix in="SourceAlpha" result="hardAlpha" values="0 0 0 0 0 0 0 0 0 0 0 0 0 0 0 0 0 0 127 0"/><feMorphology in="SourceAlpha" radius="1.935" result="effect1_dropShadow_197_2265"/><feOffset dy="3.871"/><feGaussianBlur stdDeviation=".968"/><feComposite in2="hardAlpha" operator="out"/><feColorMatrix values="0 0 0 0 0.121569 0 0 0 0 0.0980392 0 0 0 0 0.266667 0 0 0 0.08 0"/><feBlend in2="BackgroundImageFix" result="effect1_dropShadow_197_2265"/><feColorMatrix in="SourceAlpha" result="hardAlpha" values="0 0 0 0 0 0 0 0 0 0 0 0 0 0 0 0 0 0 127 0"/><feMorphology in="SourceAlpha" radius="1.935" result="effect2_dropShadow_197_2265"/><feOffset dy="3.871"/><feGaussianBlur stdDeviation="1.935"/><feComposite in2="hardAlpha" operator="out"/><feColorMatrix values="0 0 0 0 0.121569 0 0 0 0 0.0980392 0 0 0 0 0.266667 0 0 0 0.02 0"/><feBlend in2="effect1_dropShadow_197_2265" result="effect2_dropShadow_197_2265"/><feColorMatrix in="SourceAlpha" result="hardAlpha" values="0 0 0 0 0 0 0 0 0 0 0 0 0 0 0 0 0 0 127 0"/><feOffset dy="3.871"/><feGaussianBlur stdDeviation=".968"/><feComposite in2="hardAlpha" operator="out"/><feColorMatrix values="0 0 0 0 0.121569 0 0 0 0 0.0980392 0 0 0 0 0.266667 0 0 0 0.01 0"/><feBlend in2="effect2_dropShadow_197_2265" result="effect3_dropShadow_197_2265"/><feBlend in="SourceGraphic" in2="effect3_dropShadow_197_2265" result="shape"/><feColorMatrix in="SourceAlpha" result="hardAlpha" values="0 0 0 0 0 0 0 0 0 0 0 0 0 0 0 0 0 0 127 0"/><feMorphology in="SourceAlpha" operator="dilate" radius="1.935" result="effect4_innerShadow_197_2265"/><feOffset dy="3.871"/><feGaussianBlur stdDeviation="1.935"/><feComposite in2="hardAlpha" k2="-1" k3="1" operator="arithmetic"/><feColorMatrix values="0 0 0 0 1 0 0 0 0 1 0 0 0 0 1 0 0 0 0.4 0"/><feBlend in2="shape" result="effect4_innerShadow_197_2265"/><feColorMatrix in="SourceAlpha" result="hardAlpha" values="0 0 0 0 0 0 0 0 0 0 0 0 0 0 0 0 0 0 127 0"/><feMorphology in="SourceAlpha" radius="1.935" result="effect5_innerShadow_197_2265"/><feOffset/><feGaussianBlur stdDeviation="4.838"/><feComposite in2="hardAlpha" k2="-1" k3="1" operator="arithmetic"/><feColorMatrix values="0 0 0 0 1 0 0 0 0 1 0 0 0 0 1 0 0 0 0.6 0"/><feBlend in2="effect4_innerShadow_197_2265" result="effect5_innerShadow_197_2265"/><feColorMatrix in="SourceAlpha" result="hardAlpha" values="0 0 0 0 0 0 0 0 0 0 0 0 0 0 0 0 0 0 127 0"/><feMorphology in="SourceAlpha" radius="1.935" result="effect6_innerShadow_197_2265"/><feOffset/><feGaussianBlur stdDeviation="5.806"/><feComposite in2="hardAlpha" k2="-1" k3="1" operator="arithmetic"/><feColorMatrix values="0 0 0 0 1 0 0 0 0 1 0 0 0 0 1 0 0 0 1 0"/><feBlend in2="effect5_innerShadow_197_2265" result="effect6_innerShadow_197_2265"/></filter><filter id="u" width="90.059" height="50.983" x=".971" y="10.55" color-interpolation-filters="sRGB" filterUnits="userSpaceOnUse"><feFlood flood-opacity="0" result="BackgroundImageFix"/><feColorMatrix in="SourceAlpha" result="hardAlpha" values="0 0 0 0 0 0 0 0 0 0 0 0 0 0 0 0 0 0 127 0"/><feOffset dy="10"/><feGaussianBlur stdDeviation="8"/><feColorMatrix values="0 0 0 0 0.0784314 0 0 0 0 0.0705882 0 0 0 0 0.231373 0 0 0 0.04 0"/><feBlend in2="BackgroundImageFix" result="effect1_dropShadow_197_2265"/><feColorMatrix in="SourceAlpha" result="hardAlpha" values="0 0 0 0 0 0 0 0 0 0 0 0 0 0 0 0 0 0 127 0"/><feOffset dy="12"/><feGaussianBlur stdDeviation="3"/><feColorMatrix values="0 0 0 0 0.0784314 0 0 0 0 0.0705882 0 0 0 0 0.231373 0 0 0 0.02 0"/><feBlend in2="effect1_dropShadow_197_2265" result="effect2_dropShadow_197_2265"/><feColorMatrix in="SourceAlpha" result="hardAlpha" values="0 0 0 0 0 0 0 0 0 0 0 0 0 0 0 0 0 0 127 0"/><feOffset dy="6"/><feGaussianBlur stdDeviation="3"/><feColorMatrix values="0 0 0 0 0.12549 0 0 0 0 0.0666667 0 0 0 0 0.494118 0 0 0 0.06 0"/><feBlend in2="effect2_dropShadow_197_2265" result="effect3_dropShadow_197_2265"/><feBlend in="SourceGraphic" in2="effect3_dropShadow_197_2265" result="shape"/><feColorMatrix in="SourceAlpha" result="hardAlpha" values="0 0 0 0 0 0 0 0 0 0 0 0 0 0 0 0 0 0 127 0"/><feMorphology in="SourceAlpha" operator="dilate" radius="2" result="effect4_innerShadow_197_2265"/><feOffset dy="4"/><feGaussianBlur stdDeviation="2"/><feComposite in2="hardAlpha" k2="-1" k3="1" operator="arithmetic"/><feColorMatrix values="0 0 0 0 1 0 0 0 0 1 0 0 0 0 1 0 0 0 0.4 0"/><feBlend in2="shape" result="effect4_innerShadow_197_2265"/><feColorMatrix in="SourceAlpha" result="hardAlpha" values="0 0 0 0 0 0 0 0 0 0 0 0 0 0 0 0 0 0 127 0"/><feOffset/><feGaussianBlur stdDeviation="4"/><feComposite in2="hardAlpha" k2="-1" k3="1" operator="arithmetic"/><feColorMatrix values="0 0 0 0 1 0 0 0 0 1 0 0 0 0 1 0 0 0 1 0"/><feBlend in2="effect4_innerShadow_197_2265" result="effect5_innerShadow_197_2265"/><feColorMatrix in="SourceAlpha" result="hardAlpha" values="0 0 0 0 0 0 0 0 0 0 0 0 0 0 0 0 0 0 127 0"/><feMorphology in="SourceAlpha" radius="2" result="effect6_innerShadow_197_2265"/><feOffset dy="4"/><feGaussianBlur stdDeviation="2"/><feComposite in2="hardAlpha" k2="-1" k3="1" operator="arithmetic"/><feColorMatrix values="0 0 0 0 0.678431 0 0 0 0 0.607843 0 0 0 0 0.972549 0 0 0 0.08 0"/><feBlend in2="effect5_innerShadow_197_2265" result="effect6_innerShadow_197_2265"/><feColorMatrix in="SourceAlpha" result="hardAlpha" values="0 0 0 0 0 0 0 0 0 0 0 0 0 0 0 0 0 0 127 0"/><feMorphology in="SourceAlpha" radius="1" result="effect7_innerShadow_197_2265"/><feOffset/><feComposite in2="hardAlpha" k2="-1" k3="1" operator="arithmetic"/><feColorMatrix values="0 0 0 0 0.12549 0 0 0 0 0.0666667 0 0 0 0 0.494118 0 0 0 0.02 0"/><feBlend in2="effect6_innerShadow_197_2265" result="effect7_innerShadow_197_2265"/><feColorMatrix in="SourceAlpha" result="hardAlpha" values="0 0 0 0 0 0 0 0 0 0 0 0 0 0 0 0 0 0 127 0"/><feMorphology in="SourceAlpha" operator="dilate" radius="2" result="effect8_innerShadow_197_2265"/><feOffset dy="-4"/><feGaussianBlur stdDeviation="2"/><feComposite in2="hardAlpha" k2="-1" k3="1" operator="arithmetic"/><feColorMatrix values="0 0 0 0 1 0 0 0 0 1 0 0 0 0 1 0 0 0 0.2 0"/><feBlend in2="effect7_innerShadow_197_2265" result="effect8_innerShadow_197_2265"/></filter><filter id="x" width="58.059" height="20.097" x="16.971" y="39.1" color-interpolation-filters="sRGB" filterUnits="userSpaceOnUse"><feFlood flood-opacity="0" result="BackgroundImageFix"/><feBlend in="SourceGraphic" in2="BackgroundImageFix" result="shape"/><feColorMatrix in="SourceAlpha" result="hardAlpha" values="0 0 0 0 0 0 0 0 0 0 0 0 0 0 0 0 0 0 127 0"/><feOffset dy="-2"/><feComposite in2="hardAlpha" k2="-1" k3="1" operator="arithmetic"/><feColorMatrix values="0 0 0 0 1 0 0 0 0 1 0 0 0 0 1 0 0 0 0.8 0"/><feBlend in2="shape" result="effect1_innerShadow_197_2265"/></filter><filter id="y" width="58.059" height="20.097" x="16.971" y="23.26" color-interpolation-filters="sRGB" filterUnits="userSpaceOnUse"><feFlood flood-opacity="0" result="BackgroundImageFix"/><feBlend in="SourceGraphic" in2="BackgroundImageFix" result="shape"/><feColorMatrix in="SourceAlpha" result="hardAlpha" values="0 0 0 0 0 0 0 0 0 0 0 0 0 0 0 0 0 0 127 0"/><feOffset dy="-2"/><feComposite in2="hardAlpha" k2="-1" k3="1" operator="arithmetic"/><feColorMatrix values="0 0 0 0 1 0 0 0 0 1 0 0 0 0 1 0 0 0 0.6 0"/><feBlend in2="shape" result="effect1_innerShadow_197_2265"/></filter><radialGradient id="e" cx="0" cy="0" r="1" gradientTransform="matrix(0 6.03496 -18.0384 0 46 50.194)" gradientUnits="userSpaceOnUse"><stop stop-color="#CAD7EC"/><stop offset="1" stop-color="#fff"/></radialGradient><radialGradient id="g" cx="0" cy="0" r="1" gradientTransform="matrix(59.15803 -22.54058 9.86417 25.88863 12.803 75.39)" gradientUnits="userSpaceOnUse"><stop stop-color="#fff"/><stop offset="1" stop-color="#fff" stop-opacity=".61"/></radialGradient><radialGradient id="k" cx="0" cy="0" r="1" gradientTransform="matrix(0 6.03496 -18.0384 0 46 35.194)" gradientUnits="userSpaceOnUse"><stop stop-color="#CAD7EC"/><stop offset="1" stop-color="#fff"/></radialGradient><radialGradient id="m" cx="0" cy="0" r="1" gradientTransform="matrix(59.15803 -22.54058 9.86417 25.88863 12.803 60.39)" gradientUnits="userSpaceOnUse"><stop stop-color="#fff"/><stop offset="1" stop-color="#fff" stop-opacity=".61"/></radialGradient><radialGradient id="o" cx="0" cy="0" r="1" gradientTransform="matrix(15.48224 36.00903 -41.3961 17.79844 30.518 28.553)" gradientUnits="userSpaceOnUse"><stop stop-color="#D6E6FF"/><stop offset="1" stop-color="#F0F6FF"/></radialGradient><radialGradient id="p" cx="0" cy="0" r="1" gradientTransform="rotate(-171.382 36.582 11.744)scale(47.8889 22.7466)" gradientUnits="userSpaceOnUse"><stop stop-color="#BDD7FF"/><stop offset="1" stop-color="#BAB4E1" stop-opacity="0"/></radialGradient><radialGradient id="r" cx="0" cy="0" r="1" gradientTransform="matrix(0 10.0486 -29.0292 0 46 16.55)" gradientUnits="userSpaceOnUse"><stop stop-color="#A0B1CA"/><stop offset="1" stop-color="#F1F7FF"/></radialGradient><radialGradient id="s" cx="0" cy="0" r="1" gradientTransform="rotate(-167.967 34.871 8.131)scale(53.6266 23.3818)" gradientUnits="userSpaceOnUse"><stop stop-color="#B4D1FF"/><stop offset="1" stop-color="#BCB7E1" stop-opacity="0"/></radialGradient><radialGradient id="t" cx="0" cy="0" r="1" gradientTransform="matrix(0 20.0972 -58.0584 0 46 6.501)" gradientUnits="userSpaceOnUse"><stop stop-color="#F2F7FF"/><stop stop-color="#FAF7FF"/><stop offset="1" stop-color="#E6EFFF"/></radialGradient><radialGradient id="v" cx="0" cy="0" r="1" gradientTransform="matrix(15.48224 36.00903 -41.3961 17.79844 30.518 28.553)" gradientUnits="userSpaceOnUse"><stop stop-color="#EBF3FF"/><stop offset="1" stop-color="#EFF5FF"/></radialGradient><radialGradient id="w" cx="0" cy="0" r="1" gradientTransform="rotate(-171.382 36.582 11.744)scale(47.8889 22.7466)" gradientUnits="userSpaceOnUse"><stop stop-color="#C0D9FF"/><stop offset="1" stop-color="#BBCAE3" stop-opacity="0"/></radialGradient></defs></svg>