<svg width="92" height="73" viewBox="0 0 92 73" fill="none" xmlns="http://www.w3.org/2000/svg">
<g filter="url(#filter0_dd_197_2265)">
<rect x="17" y="23.5" width="58" height="38" rx="19" fill="white"/>
</g>
<path d="M75.0291 19.0486C75.0291 13.4989 62.0323 9 45.9999 9C29.9675 9 16.9707 13.4989 16.9707 19.0486L16.9707 27.9827C16.9707 29.3706 17.7835 30.6927 19.2532 31.8951C17.7835 33.0976 16.9707 34.4197 16.9707 35.8075C16.9707 36.0106 16.9881 36.2123 17.0224 36.4124L17.0216 36.4173C16.9878 36.2188 16.9707 36.0187 16.9707 35.8173V42.9514C16.9707 44.3453 17.7905 45.6728 19.2724 46.8795C17.7905 48.0861 16.9707 49.4137 16.9707 50.8075C16.9707 51.0106 16.9881 51.2123 17.0224 51.4124L17.0216 51.4173C16.9878 51.2188 16.9707 51.0187 16.9707 50.8173V57.9514C16.9707 63.5011 29.9675 68 45.9999 68C62.0323 68 75.0291 63.5011 75.0291 57.9514V50.8173C75.0291 51.0187 75.012 51.2188 74.9782 51.4173L74.9774 51.4124C75.0117 51.2123 75.0291 51.0106 75.0291 50.8075C75.0291 49.4137 74.2093 48.0861 72.7274 46.8795C74.2093 45.6728 75.0291 44.3453 75.0291 42.9514V35.8173C75.0291 36.0187 75.012 36.2188 74.9782 36.4173L74.9774 36.4124C75.0117 36.2123 75.0291 36.0106 75.0291 35.8075C75.0291 34.4197 74.2164 33.0976 72.7466 31.8951C74.2164 30.6927 75.0291 29.3706 75.0291 27.9827L75.0291 19.0486Z" fill="#0C2755" fill-opacity="0.12"/>
<g filter="url(#filter1_dii_197_2265)">
<path d="M75.0291 49.5184C75.0291 43.9687 62.0323 39.4698 45.9999 39.4698C29.9675 39.4698 16.9707 43.9687 16.9707 49.5184V55.4525C16.9707 61.0022 29.9675 65.5011 45.9999 65.5011C62.0323 65.5011 75.0291 61.0022 75.0291 55.4525V49.5184Z" fill="white"/>
<path d="M75.0291 49.5184C75.0291 43.9687 62.0323 39.4698 45.9999 39.4698C29.9675 39.4698 16.9707 43.9687 16.9707 49.5184V55.4525C16.9707 61.0022 29.9675 65.5011 45.9999 65.5011C62.0323 65.5011 75.0291 61.0022 75.0291 55.4525V49.5184Z" stroke="#E9F0FB"/>
</g>
<g filter="url(#filter2_d_197_2265)">
<path d="M75.0291 49.5184C75.0291 55.068 62.0323 59.5669 45.9999 59.5669C29.9675 59.5669 16.9707 55.068 16.9707 49.5184C16.9707 43.9687 29.9675 39.4698 45.9999 39.4698C62.0323 39.4698 75.0291 43.9687 75.0291 49.5184Z" fill="white"/>
</g>
<g filter="url(#filter3_iiii_197_2265)">
<path d="M75.0291 48.3086C75.0291 53.8583 62.0323 58.3572 45.9999 58.3572C29.9675 58.3572 16.9707 53.8583 16.9707 48.3086C16.9707 42.7589 29.9675 38.26 45.9999 38.26C62.0323 38.26 75.0291 42.7589 75.0291 48.3086Z" fill="white"/>
<path d="M75.0291 48.3086C75.0291 53.8583 62.0323 58.3572 45.9999 58.3572C29.9675 58.3572 16.9707 53.8583 16.9707 48.3086C16.9707 42.7589 29.9675 38.26 45.9999 38.26C62.0323 38.26 75.0291 42.7589 75.0291 48.3086Z" fill="url(#paint0_radial_197_2265)" fill-opacity="0.75"/>
</g>
<path d="M74.5291 48.3086C74.5291 49.4852 73.8413 50.679 72.4312 51.833C71.0248 52.984 68.9595 54.0428 66.3631 54.9415C61.1752 56.7373 53.9757 57.8572 45.9999 57.8572C38.0241 57.8572 30.8247 56.7373 25.6367 54.9415C23.0404 54.0428 20.975 52.984 19.5686 51.833C18.1586 50.679 17.4707 49.4852 17.4707 48.3086C17.4707 47.132 18.1586 45.9382 19.5686 44.7842C20.975 43.6332 23.0404 42.5744 25.6367 41.6757C30.8247 39.8798 38.0241 38.76 45.9999 38.76C53.9757 38.76 61.1752 39.8798 66.3631 41.6757C68.9595 42.5744 71.0248 43.6332 72.4312 44.7842C73.8413 45.9382 74.5291 47.132 74.5291 48.3086Z" stroke="#EDF4FF"/>
<g filter="url(#filter4_i_197_2265)">
<path d="M45.9999 58.3669C62.0323 58.3669 75.0291 53.868 75.0291 48.3184V55.4525C75.0291 61.0022 62.0323 65.5011 45.9999 65.5011C29.9675 65.5011 16.9707 61.0022 16.9707 55.4525V48.3184C16.9707 53.868 29.9675 58.3669 45.9999 58.3669Z" fill="white"/>
<path d="M45.9999 58.3669C62.0323 58.3669 75.0291 53.868 75.0291 48.3184V55.4525C75.0291 61.0022 62.0323 65.5011 45.9999 65.5011C29.9675 65.5011 16.9707 61.0022 16.9707 55.4525V48.3184C16.9707 53.868 29.9675 58.3669 45.9999 58.3669Z" fill="url(#paint1_radial_197_2265)"/>
</g>
<g filter="url(#filter5_dii_197_2265)">
<path d="M75.0291 34.5184C75.0291 28.9687 62.0323 24.4698 45.9999 24.4698C29.9675 24.4698 16.9707 28.9687 16.9707 34.5184V40.4525C16.9707 46.0022 29.9675 50.5011 45.9999 50.5011C62.0323 50.5011 75.0291 46.0022 75.0291 40.4525V34.5184Z" fill="white"/>
<path d="M75.0291 34.5184C75.0291 28.9687 62.0323 24.4698 45.9999 24.4698C29.9675 24.4698 16.9707 28.9687 16.9707 34.5184V40.4525C16.9707 46.0022 29.9675 50.5011 45.9999 50.5011C62.0323 50.5011 75.0291 46.0022 75.0291 40.4525V34.5184Z" stroke="#E9F0FB"/>
</g>
<g filter="url(#filter6_d_197_2265)">
<path d="M75.0291 34.5184C75.0291 40.068 62.0323 44.5669 45.9999 44.5669C29.9675 44.5669 16.9707 40.068 16.9707 34.5184C16.9707 28.9687 29.9675 24.4698 45.9999 24.4698C62.0323 24.4698 75.0291 28.9687 75.0291 34.5184Z" fill="white"/>
</g>
<g filter="url(#filter7_iiii_197_2265)">
<path d="M75.0291 33.3086C75.0291 38.8583 62.0323 43.3572 45.9999 43.3572C29.9675 43.3572 16.9707 38.8583 16.9707 33.3086C16.9707 27.7589 29.9675 23.26 45.9999 23.26C62.0323 23.26 75.0291 27.7589 75.0291 33.3086Z" fill="white"/>
<path d="M75.0291 33.3086C75.0291 38.8583 62.0323 43.3572 45.9999 43.3572C29.9675 43.3572 16.9707 38.8583 16.9707 33.3086C16.9707 27.7589 29.9675 23.26 45.9999 23.26C62.0323 23.26 75.0291 27.7589 75.0291 33.3086Z" fill="url(#paint2_radial_197_2265)" fill-opacity="0.75"/>
</g>
<path d="M74.5291 33.3086C74.5291 34.4852 73.8413 35.679 72.4312 36.833C71.0248 37.984 68.9595 39.0428 66.3631 39.9415C61.1752 41.7373 53.9757 42.8572 45.9999 42.8572C38.0241 42.8572 30.8247 41.7373 25.6367 39.9415C23.0404 39.0428 20.975 37.984 19.5686 36.833C18.1586 35.679 17.4707 34.4852 17.4707 33.3086C17.4707 32.132 18.1586 30.9382 19.5686 29.7842C20.975 28.6332 23.0404 27.5744 25.6367 26.6757C30.8247 24.8798 38.0241 23.76 45.9999 23.76C53.9757 23.76 61.1752 24.8798 66.3631 26.6757C68.9595 27.5744 71.0248 28.6332 72.4312 29.7842C73.8413 30.9382 74.5291 32.132 74.5291 33.3086Z" stroke="#EDF4FF"/>
<g filter="url(#filter8_i_197_2265)">
<path d="M45.9999 43.3669C62.0323 43.3669 75.0291 38.868 75.0291 33.3184V40.4525C75.0291 46.0022 62.0323 50.5011 45.9999 50.5011C29.9675 50.5011 16.9707 46.0022 16.9707 40.4525V33.3184C16.9707 38.868 29.9675 43.3669 45.9999 43.3669Z" fill="white"/>
<path d="M45.9999 43.3669C62.0323 43.3669 75.0291 38.868 75.0291 33.3184V40.4525C75.0291 46.0022 62.0323 50.5011 45.9999 50.5011C29.9675 50.5011 16.9707 46.0022 16.9707 40.4525V33.3184C16.9707 38.868 29.9675 43.3669 45.9999 43.3669Z" fill="url(#paint3_radial_197_2265)"/>
</g>
<g filter="url(#filter9_dddiiiii_197_2265)">
<path d="M75.0291 16.5497C75.0291 11 62.0323 6.5011 45.9999 6.5011C29.9675 6.5011 16.9707 11 16.9707 16.5497V25.4838C16.9707 31.0335 29.9675 35.5324 45.9999 35.5324C62.0323 35.5324 75.0291 31.0335 75.0291 25.4838V16.5497Z" fill="white"/>
<path d="M75.0291 16.5497C75.0291 11 62.0323 6.5011 45.9999 6.5011C29.9675 6.5011 16.9707 11 16.9707 16.5497V25.4838C16.9707 31.0335 29.9675 35.5324 45.9999 35.5324C62.0323 35.5324 75.0291 31.0335 75.0291 25.4838V16.5497Z" fill="url(#paint4_radial_197_2265)" fill-opacity="0.5"/>
<path d="M75.0291 16.5497C75.0291 11 62.0323 6.5011 45.9999 6.5011C29.9675 6.5011 16.9707 11 16.9707 16.5497V25.4838C16.9707 31.0335 29.9675 35.5324 45.9999 35.5324C62.0323 35.5324 75.0291 31.0335 75.0291 25.4838V16.5497Z" fill="url(#paint5_radial_197_2265)"/>
</g>
<g filter="url(#filter10_dddiii_197_2265)">
<path d="M75.0291 16.5497C75.0291 22.0994 62.0323 26.5983 45.9999 26.5983C29.9675 26.5983 16.9707 22.0994 16.9707 16.5497C16.9707 11 29.9675 6.5011 45.9999 6.5011C62.0323 6.5011 75.0291 11 75.0291 16.5497Z" fill="white"/>
<path d="M75.0291 16.5497C75.0291 22.0994 62.0323 26.5983 45.9999 26.5983C29.9675 26.5983 16.9707 22.0994 16.9707 16.5497C16.9707 11 29.9675 6.5011 45.9999 6.5011C62.0323 6.5011 75.0291 11 75.0291 16.5497Z" fill="url(#paint6_radial_197_2265)" fill-opacity="0.5"/>
<path d="M75.0291 16.5497C75.0291 22.0994 62.0323 26.5983 45.9999 26.5983C29.9675 26.5983 16.9707 22.0994 16.9707 16.5497C16.9707 11 29.9675 6.5011 45.9999 6.5011C62.0323 6.5011 75.0291 11 75.0291 16.5497Z" fill="url(#paint7_radial_197_2265)"/>
<path d="M75.0291 16.5497C75.0291 22.0994 62.0323 26.5983 45.9999 26.5983C29.9675 26.5983 16.9707 22.0994 16.9707 16.5497C16.9707 11 29.9675 6.5011 45.9999 6.5011C62.0323 6.5011 75.0291 11 75.0291 16.5497Z" fill="url(#paint8_radial_197_2265)"/>
</g>
<g filter="url(#filter11_dddiiiii_197_2265)">
<path d="M45.9999 26.5983C62.0323 26.5983 75.0291 22.0994 75.0291 16.5497V25.4838C75.0291 31.0335 62.0323 35.5324 45.9999 35.5324C29.9675 35.5324 16.9707 31.0335 16.9707 25.4838V16.5497C16.9707 22.0994 29.9675 26.5983 45.9999 26.5983Z" fill="white"/>
<path d="M45.9999 26.5983C62.0323 26.5983 75.0291 22.0994 75.0291 16.5497V25.4838C75.0291 31.0335 62.0323 35.5324 45.9999 35.5324C29.9675 35.5324 16.9707 31.0335 16.9707 25.4838V16.5497C16.9707 22.0994 29.9675 26.5983 45.9999 26.5983Z" fill="url(#paint9_radial_197_2265)" fill-opacity="0.5"/>
<path d="M45.9999 26.5983C62.0323 26.5983 75.0291 22.0994 75.0291 16.5497V25.4838C75.0291 31.0335 62.0323 35.5324 45.9999 35.5324C29.9675 35.5324 16.9707 31.0335 16.9707 25.4838V16.5497C16.9707 22.0994 29.9675 26.5983 45.9999 26.5983Z" fill="url(#paint10_radial_197_2265)"/>
</g>
<g filter="url(#filter12_i_197_2265)">
<path d="M75.0291 49.1486C75.0291 54.6982 62.0323 59.1971 45.9999 59.1971C29.9675 59.1971 16.9707 54.6982 16.9707 49.1486C16.9707 43.5989 29.9675 39.1 45.9999 39.1C62.0323 39.1 75.0291 43.5989 75.0291 49.1486Z" fill="white" fill-opacity="0.12"/>
</g>
<g filter="url(#filter13_i_197_2265)">
<path d="M75.0291 33.3086C75.0291 38.8583 62.0323 43.3572 45.9999 43.3572C29.9675 43.3572 16.9707 38.8583 16.9707 33.3086C16.9707 27.7589 29.9675 23.26 45.9999 23.26C62.0323 23.26 75.0291 27.7589 75.0291 33.3086Z" fill="white" fill-opacity="0.12"/>
</g>
<defs>
<filter id="filter0_dd_197_2265" x="17" y="23.5" width="58" height="52" filterUnits="userSpaceOnUse" color-interpolation-filters="sRGB">
<feFlood flood-opacity="0" result="BackgroundImageFix"/>
<feColorMatrix in="SourceAlpha" type="matrix" values="0 0 0 0 0 0 0 0 0 0 0 0 0 0 0 0 0 0 127 0" result="hardAlpha"/>
<feMorphology radius="16" operator="erode" in="SourceAlpha" result="effect1_dropShadow_197_2265"/>
<feOffset dy="20"/>
<feGaussianBlur stdDeviation="5"/>
<feColorMatrix type="matrix" values="0 0 0 0 0.0470588 0 0 0 0 0.152941 0 0 0 0 0.333333 0 0 0 0.6 0"/>
<feBlend mode="normal" in2="BackgroundImageFix" result="effect1_dropShadow_197_2265"/>
<feColorMatrix in="SourceAlpha" type="matrix" values="0 0 0 0 0 0 0 0 0 0 0 0 0 0 0 0 0 0 127 0" result="hardAlpha"/>
<feMorphology radius="7" operator="erode" in="SourceAlpha" result="effect2_dropShadow_197_2265"/>
<feOffset dy="12"/>
<feGaussianBlur stdDeviation="3"/>
<feColorMatrix type="matrix" values="0 0 0 0 0.06651 0 0 0 0 0.205908 0 0 0 0 0.4434 0 0 0 0.4 0"/>
<feBlend mode="normal" in2="effect1_dropShadow_197_2265" result="effect2_dropShadow_197_2265"/>
<feBlend mode="normal" in="SourceGraphic" in2="effect2_dropShadow_197_2265" result="shape"/>
</filter>
<filter id="filter1_dii_197_2265" x="14.4707" y="38.9698" width="63.0586" height="33.0313" filterUnits="userSpaceOnUse" color-interpolation-filters="sRGB">
<feFlood flood-opacity="0" result="BackgroundImageFix"/>
<feColorMatrix in="SourceAlpha" type="matrix" values="0 0 0 0 0 0 0 0 0 0 0 0 0 0 0 0 0 0 127 0" result="hardAlpha"/>
<feOffset dy="4"/>
<feGaussianBlur stdDeviation="1"/>
<feComposite in2="hardAlpha" operator="out"/>
<feColorMatrix type="matrix" values="0 0 0 0 0.0470588 0 0 0 0 0.152941 0 0 0 0 0.333333 0 0 0 0.08 0"/>
<feBlend mode="normal" in2="BackgroundImageFix" result="effect1_dropShadow_197_2265"/>
<feBlend mode="normal" in="SourceGraphic" in2="effect1_dropShadow_197_2265" result="shape"/>
<feColorMatrix in="SourceAlpha" type="matrix" values="0 0 0 0 0 0 0 0 0 0 0 0 0 0 0 0 0 0 127 0" result="hardAlpha"/>
<feMorphology radius="1.93528" operator="erode" in="SourceAlpha" result="effect2_innerShadow_197_2265"/>
<feOffset/>
<feGaussianBlur stdDeviation="4.8382"/>
<feComposite in2="hardAlpha" operator="arithmetic" k2="-1" k3="1"/>
<feColorMatrix type="matrix" values="0 0 0 0 1 0 0 0 0 1 0 0 0 0 1 0 0 0 1 0"/>
<feBlend mode="normal" in2="shape" result="effect2_innerShadow_197_2265"/>
<feColorMatrix in="SourceAlpha" type="matrix" values="0 0 0 0 0 0 0 0 0 0 0 0 0 0 0 0 0 0 127 0" result="hardAlpha"/>
<feOffset dy="4"/>
<feGaussianBlur stdDeviation="2"/>
<feComposite in2="hardAlpha" operator="arithmetic" k2="-1" k3="1"/>
<feColorMatrix type="matrix" values="0 0 0 0 1 0 0 0 0 1 0 0 0 0 1 0 0 0 0.4 0"/>
<feBlend mode="normal" in2="effect2_innerShadow_197_2265" result="effect3_innerShadow_197_2265"/>
</filter>
<filter id="filter2_d_197_2265" x="10.9707" y="35.4698" width="70.0586" height="32.0972" filterUnits="userSpaceOnUse" color-interpolation-filters="sRGB">
<feFlood flood-opacity="0" result="BackgroundImageFix"/>
<feColorMatrix in="SourceAlpha" type="matrix" values="0 0 0 0 0 0 0 0 0 0 0 0 0 0 0 0 0 0 127 0" result="hardAlpha"/>
<feOffset dy="2"/>
<feGaussianBlur stdDeviation="3"/>
<feColorMatrix type="matrix" values="0 0 0 0 0.0470588 0 0 0 0 0.152941 0 0 0 0 0.333333 0 0 0 0.16 0"/>
<feBlend mode="normal" in2="BackgroundImageFix" result="effect1_dropShadow_197_2265"/>
<feBlend mode="normal" in="SourceGraphic" in2="effect1_dropShadow_197_2265" result="shape"/>
</filter>
<filter id="filter3_iiii_197_2265" x="16.9707" y="34.26" width="58.0586" height="28.0972" filterUnits="userSpaceOnUse" color-interpolation-filters="sRGB">
<feFlood flood-opacity="0" result="BackgroundImageFix"/>
<feBlend mode="normal" in="SourceGraphic" in2="BackgroundImageFix" result="shape"/>
<feColorMatrix in="SourceAlpha" type="matrix" values="0 0 0 0 0 0 0 0 0 0 0 0 0 0 0 0 0 0 127 0" result="hardAlpha"/>
<feOffset dy="-6"/>
<feGaussianBlur stdDeviation="2"/>
<feComposite in2="hardAlpha" operator="arithmetic" k2="-1" k3="1"/>
<feColorMatrix type="matrix" values="0 0 0 0 1 0 0 0 0 1 0 0 0 0 1 0 0 0 1 0"/>
<feBlend mode="normal" in2="shape" result="effect1_innerShadow_197_2265"/>
<feColorMatrix in="SourceAlpha" type="matrix" values="0 0 0 0 0 0 0 0 0 0 0 0 0 0 0 0 0 0 127 0" result="hardAlpha"/>
<feOffset dy="4"/>
<feGaussianBlur stdDeviation="2"/>
<feComposite in2="hardAlpha" operator="arithmetic" k2="-1" k3="1"/>
<feColorMatrix type="matrix" values="0 0 0 0 0.803922 0 0 0 0 0.8 0 0 0 0 0.819608 0 0 0 0.14 0"/>
<feBlend mode="normal" in2="effect1_innerShadow_197_2265" result="effect2_innerShadow_197_2265"/>
<feColorMatrix in="SourceAlpha" type="matrix" values="0 0 0 0 0 0 0 0 0 0 0 0 0 0 0 0 0 0 127 0" result="hardAlpha"/>
<feOffset dy="4"/>
<feGaussianBlur stdDeviation="2"/>
<feComposite in2="hardAlpha" operator="arithmetic" k2="-1" k3="1"/>
<feColorMatrix type="matrix" values="0 0 0 0 1 0 0 0 0 1 0 0 0 0 1 0 0 0 0.4 0"/>
<feBlend mode="normal" in2="effect2_innerShadow_197_2265" result="effect3_innerShadow_197_2265"/>
<feColorMatrix in="SourceAlpha" type="matrix" values="0 0 0 0 0 0 0 0 0 0 0 0 0 0 0 0 0 0 127 0" result="hardAlpha"/>
<feOffset dy="-1"/>
<feComposite in2="hardAlpha" operator="arithmetic" k2="-1" k3="1"/>
<feColorMatrix type="matrix" values="0 0 0 0 1 0 0 0 0 1 0 0 0 0 1 0 0 0 1 0"/>
<feBlend mode="normal" in2="effect3_innerShadow_197_2265" result="effect4_innerShadow_197_2265"/>
</filter>
<filter id="filter4_i_197_2265" x="16.9707" y="47.8184" width="58.5586" height="17.6827" filterUnits="userSpaceOnUse" color-interpolation-filters="sRGB">
<feFlood flood-opacity="0" result="BackgroundImageFix"/>
<feBlend mode="normal" in="SourceGraphic" in2="BackgroundImageFix" result="shape"/>
<feColorMatrix in="SourceAlpha" type="matrix" values="0 0 0 0 0 0 0 0 0 0 0 0 0 0 0 0 0 0 127 0" result="hardAlpha"/>
<feOffset dx="0.5" dy="-0.5"/>
<feGaussianBlur stdDeviation="0.5"/>
<feComposite in2="hardAlpha" operator="arithmetic" k2="-1" k3="1"/>
<feColorMatrix type="matrix" values="0 0 0 0 1 0 0 0 0 1 0 0 0 0 1 0 0 0 1 0"/>
<feBlend mode="normal" in2="shape" result="effect1_innerShadow_197_2265"/>
</filter>
<filter id="filter5_dii_197_2265" x="14.4707" y="23.9698" width="63.0586" height="33.0313" filterUnits="userSpaceOnUse" color-interpolation-filters="sRGB">
<feFlood flood-opacity="0" result="BackgroundImageFix"/>
<feColorMatrix in="SourceAlpha" type="matrix" values="0 0 0 0 0 0 0 0 0 0 0 0 0 0 0 0 0 0 127 0" result="hardAlpha"/>
<feOffset dy="4"/>
<feGaussianBlur stdDeviation="1"/>
<feComposite in2="hardAlpha" operator="out"/>
<feColorMatrix type="matrix" values="0 0 0 0 0.0470588 0 0 0 0 0.152941 0 0 0 0 0.333333 0 0 0 0.08 0"/>
<feBlend mode="normal" in2="BackgroundImageFix" result="effect1_dropShadow_197_2265"/>
<feBlend mode="normal" in="SourceGraphic" in2="effect1_dropShadow_197_2265" result="shape"/>
<feColorMatrix in="SourceAlpha" type="matrix" values="0 0 0 0 0 0 0 0 0 0 0 0 0 0 0 0 0 0 127 0" result="hardAlpha"/>
<feMorphology radius="1.93528" operator="erode" in="SourceAlpha" result="effect2_innerShadow_197_2265"/>
<feOffset/>
<feGaussianBlur stdDeviation="4.8382"/>
<feComposite in2="hardAlpha" operator="arithmetic" k2="-1" k3="1"/>
<feColorMatrix type="matrix" values="0 0 0 0 1 0 0 0 0 1 0 0 0 0 1 0 0 0 1 0"/>
<feBlend mode="normal" in2="shape" result="effect2_innerShadow_197_2265"/>
<feColorMatrix in="SourceAlpha" type="matrix" values="0 0 0 0 0 0 0 0 0 0 0 0 0 0 0 0 0 0 127 0" result="hardAlpha"/>
<feOffset dy="4"/>
<feGaussianBlur stdDeviation="2"/>
<feComposite in2="hardAlpha" operator="arithmetic" k2="-1" k3="1"/>
<feColorMatrix type="matrix" values="0 0 0 0 1 0 0 0 0 1 0 0 0 0 1 0 0 0 0.4 0"/>
<feBlend mode="normal" in2="effect2_innerShadow_197_2265" result="effect3_innerShadow_197_2265"/>
</filter>
<filter id="filter6_d_197_2265" x="10.9707" y="20.4698" width="70.0586" height="32.0972" filterUnits="userSpaceOnUse" color-interpolation-filters="sRGB">
<feFlood flood-opacity="0" result="BackgroundImageFix"/>
<feColorMatrix in="SourceAlpha" type="matrix" values="0 0 0 0 0 0 0 0 0 0 0 0 0 0 0 0 0 0 127 0" result="hardAlpha"/>
<feOffset dy="2"/>
<feGaussianBlur stdDeviation="3"/>
<feColorMatrix type="matrix" values="0 0 0 0 0.0470588 0 0 0 0 0.152941 0 0 0 0 0.333333 0 0 0 0.16 0"/>
<feBlend mode="normal" in2="BackgroundImageFix" result="effect1_dropShadow_197_2265"/>
<feBlend mode="normal" in="SourceGraphic" in2="effect1_dropShadow_197_2265" result="shape"/>
</filter>
<filter id="filter7_iiii_197_2265" x="16.9707" y="19.26" width="58.0586" height="28.0972" filterUnits="userSpaceOnUse" color-interpolation-filters="sRGB">
<feFlood flood-opacity="0" result="BackgroundImageFix"/>
<feBlend mode="normal" in="SourceGraphic" in2="BackgroundImageFix" result="shape"/>
<feColorMatrix in="SourceAlpha" type="matrix" values="0 0 0 0 0 0 0 0 0 0 0 0 0 0 0 0 0 0 127 0" result="hardAlpha"/>
<feOffset dy="-6"/>
<feGaussianBlur stdDeviation="2"/>
<feComposite in2="hardAlpha" operator="arithmetic" k2="-1" k3="1"/>
<feColorMatrix type="matrix" values="0 0 0 0 1 0 0 0 0 1 0 0 0 0 1 0 0 0 1 0"/>
<feBlend mode="normal" in2="shape" result="effect1_innerShadow_197_2265"/>
<feColorMatrix in="SourceAlpha" type="matrix" values="0 0 0 0 0 0 0 0 0 0 0 0 0 0 0 0 0 0 127 0" result="hardAlpha"/>
<feOffset dy="4"/>
<feGaussianBlur stdDeviation="2"/>
<feComposite in2="hardAlpha" operator="arithmetic" k2="-1" k3="1"/>
<feColorMatrix type="matrix" values="0 0 0 0 0.803922 0 0 0 0 0.8 0 0 0 0 0.819608 0 0 0 0.14 0"/>
<feBlend mode="normal" in2="effect1_innerShadow_197_2265" result="effect2_innerShadow_197_2265"/>
<feColorMatrix in="SourceAlpha" type="matrix" values="0 0 0 0 0 0 0 0 0 0 0 0 0 0 0 0 0 0 127 0" result="hardAlpha"/>
<feOffset dy="4"/>
<feGaussianBlur stdDeviation="2"/>
<feComposite in2="hardAlpha" operator="arithmetic" k2="-1" k3="1"/>
<feColorMatrix type="matrix" values="0 0 0 0 1 0 0 0 0 1 0 0 0 0 1 0 0 0 0.4 0"/>
<feBlend mode="normal" in2="effect2_innerShadow_197_2265" result="effect3_innerShadow_197_2265"/>
<feColorMatrix in="SourceAlpha" type="matrix" values="0 0 0 0 0 0 0 0 0 0 0 0 0 0 0 0 0 0 127 0" result="hardAlpha"/>
<feOffset dy="-1"/>
<feComposite in2="hardAlpha" operator="arithmetic" k2="-1" k3="1"/>
<feColorMatrix type="matrix" values="0 0 0 0 1 0 0 0 0 1 0 0 0 0 1 0 0 0 1 0"/>
<feBlend mode="normal" in2="effect3_innerShadow_197_2265" result="effect4_innerShadow_197_2265"/>
</filter>
<filter id="filter8_i_197_2265" x="16.9707" y="32.8184" width="58.5586" height="17.6827" filterUnits="userSpaceOnUse" color-interpolation-filters="sRGB">
<feFlood flood-opacity="0" result="BackgroundImageFix"/>
<feBlend mode="normal" in="SourceGraphic" in2="BackgroundImageFix" result="shape"/>
<feColorMatrix in="SourceAlpha" type="matrix" values="0 0 0 0 0 0 0 0 0 0 0 0 0 0 0 0 0 0 127 0" result="hardAlpha"/>
<feOffset dx="0.5" dy="-0.5"/>
<feGaussianBlur stdDeviation="0.5"/>
<feComposite in2="hardAlpha" operator="arithmetic" k2="-1" k3="1"/>
<feColorMatrix type="matrix" values="0 0 0 0 1 0 0 0 0 1 0 0 0 0 1 0 0 0 1 0"/>
<feBlend mode="normal" in2="shape" result="effect1_innerShadow_197_2265"/>
</filter>
<filter id="filter9_dddiiiii_197_2265" x="0.970703" y="0.501099" width="90.0586" height="61.0313" filterUnits="userSpaceOnUse" color-interpolation-filters="sRGB">
<feFlood flood-opacity="0" result="BackgroundImageFix"/>
<feColorMatrix in="SourceAlpha" type="matrix" values="0 0 0 0 0 0 0 0 0 0 0 0 0 0 0 0 0 0 127 0" result="hardAlpha"/>
<feOffset dy="10"/>
<feGaussianBlur stdDeviation="8"/>
<feColorMatrix type="matrix" values="0 0 0 0 0.0784314 0 0 0 0 0.0705882 0 0 0 0 0.231373 0 0 0 0.04 0"/>
<feBlend mode="normal" in2="BackgroundImageFix" result="effect1_dropShadow_197_2265"/>
<feColorMatrix in="SourceAlpha" type="matrix" values="0 0 0 0 0 0 0 0 0 0 0 0 0 0 0 0 0 0 127 0" result="hardAlpha"/>
<feOffset dy="12"/>
<feGaussianBlur stdDeviation="3"/>
<feColorMatrix type="matrix" values="0 0 0 0 0.0784314 0 0 0 0 0.0705882 0 0 0 0 0.231373 0 0 0 0.02 0"/>
<feBlend mode="normal" in2="effect1_dropShadow_197_2265" result="effect2_dropShadow_197_2265"/>
<feColorMatrix in="SourceAlpha" type="matrix" values="0 0 0 0 0 0 0 0 0 0 0 0 0 0 0 0 0 0 127 0" result="hardAlpha"/>
<feOffset dy="6"/>
<feGaussianBlur stdDeviation="3"/>
<feColorMatrix type="matrix" values="0 0 0 0 0.0470588 0 0 0 0 0.152941 0 0 0 0 0.333333 0 0 0 0.06 0"/>
<feBlend mode="normal" in2="effect2_dropShadow_197_2265" result="effect3_dropShadow_197_2265"/>
<feBlend mode="normal" in="SourceGraphic" in2="effect3_dropShadow_197_2265" result="shape"/>
<feColorMatrix in="SourceAlpha" type="matrix" values="0 0 0 0 0 0 0 0 0 0 0 0 0 0 0 0 0 0 127 0" result="hardAlpha"/>
<feMorphology radius="2" operator="dilate" in="SourceAlpha" result="effect4_innerShadow_197_2265"/>
<feOffset dy="4"/>
<feGaussianBlur stdDeviation="2"/>
<feComposite in2="hardAlpha" operator="arithmetic" k2="-1" k3="1"/>
<feColorMatrix type="matrix" values="0 0 0 0 1 0 0 0 0 1 0 0 0 0 1 0 0 0 0.4 0"/>
<feBlend mode="normal" in2="shape" result="effect4_innerShadow_197_2265"/>
<feColorMatrix in="SourceAlpha" type="matrix" values="0 0 0 0 0 0 0 0 0 0 0 0 0 0 0 0 0 0 127 0" result="hardAlpha"/>
<feOffset/>
<feGaussianBlur stdDeviation="4"/>
<feComposite in2="hardAlpha" operator="arithmetic" k2="-1" k3="1"/>
<feColorMatrix type="matrix" values="0 0 0 0 1 0 0 0 0 1 0 0 0 0 1 0 0 0 1 0"/>
<feBlend mode="normal" in2="effect4_innerShadow_197_2265" result="effect5_innerShadow_197_2265"/>
<feColorMatrix in="SourceAlpha" type="matrix" values="0 0 0 0 0 0 0 0 0 0 0 0 0 0 0 0 0 0 127 0" result="hardAlpha"/>
<feMorphology radius="2" operator="erode" in="SourceAlpha" result="effect6_innerShadow_197_2265"/>
<feOffset dy="4"/>
<feGaussianBlur stdDeviation="2"/>
<feComposite in2="hardAlpha" operator="arithmetic" k2="-1" k3="1"/>
<feColorMatrix type="matrix" values="0 0 0 0 0.678431 0 0 0 0 0.607843 0 0 0 0 0.972549 0 0 0 0.08 0"/>
<feBlend mode="normal" in2="effect5_innerShadow_197_2265" result="effect6_innerShadow_197_2265"/>
<feColorMatrix in="SourceAlpha" type="matrix" values="0 0 0 0 0 0 0 0 0 0 0 0 0 0 0 0 0 0 127 0" result="hardAlpha"/>
<feMorphology radius="1" operator="erode" in="SourceAlpha" result="effect7_innerShadow_197_2265"/>
<feOffset/>
<feComposite in2="hardAlpha" operator="arithmetic" k2="-1" k3="1"/>
<feColorMatrix type="matrix" values="0 0 0 0 0.12549 0 0 0 0 0.0666667 0 0 0 0 0.494118 0 0 0 0.02 0"/>
<feBlend mode="normal" in2="effect6_innerShadow_197_2265" result="effect7_innerShadow_197_2265"/>
<feColorMatrix in="SourceAlpha" type="matrix" values="0 0 0 0 0 0 0 0 0 0 0 0 0 0 0 0 0 0 127 0" result="hardAlpha"/>
<feMorphology radius="2" operator="dilate" in="SourceAlpha" result="effect8_innerShadow_197_2265"/>
<feOffset dy="-4"/>
<feGaussianBlur stdDeviation="2"/>
<feComposite in2="hardAlpha" operator="arithmetic" k2="-1" k3="1"/>
<feColorMatrix type="matrix" values="0 0 0 0 1 0 0 0 0 1 0 0 0 0 1 0 0 0 0.2 0"/>
<feBlend mode="normal" in2="effect7_innerShadow_197_2265" result="effect8_innerShadow_197_2265"/>
</filter>
<filter id="filter10_dddiii_197_2265" x="15.0354" y="6.5011" width="61.9292" height="25.903" filterUnits="userSpaceOnUse" color-interpolation-filters="sRGB">
<feFlood flood-opacity="0" result="BackgroundImageFix"/>
<feColorMatrix in="SourceAlpha" type="matrix" values="0 0 0 0 0 0 0 0 0 0 0 0 0 0 0 0 0 0 127 0" result="hardAlpha"/>
<feMorphology radius="1.93528" operator="erode" in="SourceAlpha" result="effect1_dropShadow_197_2265"/>
<feOffset dy="3.87056"/>
<feGaussianBlur stdDeviation="0.967641"/>
<feComposite in2="hardAlpha" operator="out"/>
<feColorMatrix type="matrix" values="0 0 0 0 0.121569 0 0 0 0 0.0980392 0 0 0 0 0.266667 0 0 0 0.08 0"/>
<feBlend mode="normal" in2="BackgroundImageFix" result="effect1_dropShadow_197_2265"/>
<feColorMatrix in="SourceAlpha" type="matrix" values="0 0 0 0 0 0 0 0 0 0 0 0 0 0 0 0 0 0 127 0" result="hardAlpha"/>
<feMorphology radius="1.93528" operator="erode" in="SourceAlpha" result="effect2_dropShadow_197_2265"/>
<feOffset dy="3.87056"/>
<feGaussianBlur stdDeviation="1.93528"/>
<feComposite in2="hardAlpha" operator="out"/>
<feColorMatrix type="matrix" values="0 0 0 0 0.121569 0 0 0 0 0.0980392 0 0 0 0 0.266667 0 0 0 0.02 0"/>
<feBlend mode="normal" in2="effect1_dropShadow_197_2265" result="effect2_dropShadow_197_2265"/>
<feColorMatrix in="SourceAlpha" type="matrix" values="0 0 0 0 0 0 0 0 0 0 0 0 0 0 0 0 0 0 127 0" result="hardAlpha"/>
<feOffset dy="3.87056"/>
<feGaussianBlur stdDeviation="0.967641"/>
<feComposite in2="hardAlpha" operator="out"/>
<feColorMatrix type="matrix" values="0 0 0 0 0.121569 0 0 0 0 0.0980392 0 0 0 0 0.266667 0 0 0 0.01 0"/>
<feBlend mode="normal" in2="effect2_dropShadow_197_2265" result="effect3_dropShadow_197_2265"/>
<feBlend mode="normal" in="SourceGraphic" in2="effect3_dropShadow_197_2265" result="shape"/>
<feColorMatrix in="SourceAlpha" type="matrix" values="0 0 0 0 0 0 0 0 0 0 0 0 0 0 0 0 0 0 127 0" result="hardAlpha"/>
<feMorphology radius="1.93528" operator="dilate" in="SourceAlpha" result="effect4_innerShadow_197_2265"/>
<feOffset dy="3.87056"/>
<feGaussianBlur stdDeviation="1.93528"/>
<feComposite in2="hardAlpha" operator="arithmetic" k2="-1" k3="1"/>
<feColorMatrix type="matrix" values="0 0 0 0 1 0 0 0 0 1 0 0 0 0 1 0 0 0 0.4 0"/>
<feBlend mode="normal" in2="shape" result="effect4_innerShadow_197_2265"/>
<feColorMatrix in="SourceAlpha" type="matrix" values="0 0 0 0 0 0 0 0 0 0 0 0 0 0 0 0 0 0 127 0" result="hardAlpha"/>
<feMorphology radius="1.93528" operator="erode" in="SourceAlpha" result="effect5_innerShadow_197_2265"/>
<feOffset/>
<feGaussianBlur stdDeviation="4.8382"/>
<feComposite in2="hardAlpha" operator="arithmetic" k2="-1" k3="1"/>
<feColorMatrix type="matrix" values="0 0 0 0 1 0 0 0 0 1 0 0 0 0 1 0 0 0 0.6 0"/>
<feBlend mode="normal" in2="effect4_innerShadow_197_2265" result="effect5_innerShadow_197_2265"/>
<feColorMatrix in="SourceAlpha" type="matrix" values="0 0 0 0 0 0 0 0 0 0 0 0 0 0 0 0 0 0 127 0" result="hardAlpha"/>
<feMorphology radius="1.93528" operator="erode" in="SourceAlpha" result="effect6_innerShadow_197_2265"/>
<feOffset/>
<feGaussianBlur stdDeviation="5.80584"/>
<feComposite in2="hardAlpha" operator="arithmetic" k2="-1" k3="1"/>
<feColorMatrix type="matrix" values="0 0 0 0 1 0 0 0 0 1 0 0 0 0 1 0 0 0 1 0"/>
<feBlend mode="normal" in2="effect5_innerShadow_197_2265" result="effect6_innerShadow_197_2265"/>
</filter>
<filter id="filter11_dddiiiii_197_2265" x="0.970703" y="10.5497" width="90.0586" height="50.9827" filterUnits="userSpaceOnUse" color-interpolation-filters="sRGB">
<feFlood flood-opacity="0" result="BackgroundImageFix"/>
<feColorMatrix in="SourceAlpha" type="matrix" values="0 0 0 0 0 0 0 0 0 0 0 0 0 0 0 0 0 0 127 0" result="hardAlpha"/>
<feOffset dy="10"/>
<feGaussianBlur stdDeviation="8"/>
<feColorMatrix type="matrix" values="0 0 0 0 0.0784314 0 0 0 0 0.0705882 0 0 0 0 0.231373 0 0 0 0.04 0"/>
<feBlend mode="normal" in2="BackgroundImageFix" result="effect1_dropShadow_197_2265"/>
<feColorMatrix in="SourceAlpha" type="matrix" values="0 0 0 0 0 0 0 0 0 0 0 0 0 0 0 0 0 0 127 0" result="hardAlpha"/>
<feOffset dy="12"/>
<feGaussianBlur stdDeviation="3"/>
<feColorMatrix type="matrix" values="0 0 0 0 0.0784314 0 0 0 0 0.0705882 0 0 0 0 0.231373 0 0 0 0.02 0"/>
<feBlend mode="normal" in2="effect1_dropShadow_197_2265" result="effect2_dropShadow_197_2265"/>
<feColorMatrix in="SourceAlpha" type="matrix" values="0 0 0 0 0 0 0 0 0 0 0 0 0 0 0 0 0 0 127 0" result="hardAlpha"/>
<feOffset dy="6"/>
<feGaussianBlur stdDeviation="3"/>
<feColorMatrix type="matrix" values="0 0 0 0 0.12549 0 0 0 0 0.0666667 0 0 0 0 0.494118 0 0 0 0.06 0"/>
<feBlend mode="normal" in2="effect2_dropShadow_197_2265" result="effect3_dropShadow_197_2265"/>
<feBlend mode="normal" in="SourceGraphic" in2="effect3_dropShadow_197_2265" result="shape"/>
<feColorMatrix in="SourceAlpha" type="matrix" values="0 0 0 0 0 0 0 0 0 0 0 0 0 0 0 0 0 0 127 0" result="hardAlpha"/>
<feMorphology radius="2" operator="dilate" in="SourceAlpha" result="effect4_innerShadow_197_2265"/>
<feOffset dy="4"/>
<feGaussianBlur stdDeviation="2"/>
<feComposite in2="hardAlpha" operator="arithmetic" k2="-1" k3="1"/>
<feColorMatrix type="matrix" values="0 0 0 0 1 0 0 0 0 1 0 0 0 0 1 0 0 0 0.4 0"/>
<feBlend mode="normal" in2="shape" result="effect4_innerShadow_197_2265"/>
<feColorMatrix in="SourceAlpha" type="matrix" values="0 0 0 0 0 0 0 0 0 0 0 0 0 0 0 0 0 0 127 0" result="hardAlpha"/>
<feOffset/>
<feGaussianBlur stdDeviation="4"/>
<feComposite in2="hardAlpha" operator="arithmetic" k2="-1" k3="1"/>
<feColorMatrix type="matrix" values="0 0 0 0 1 0 0 0 0 1 0 0 0 0 1 0 0 0 1 0"/>
<feBlend mode="normal" in2="effect4_innerShadow_197_2265" result="effect5_innerShadow_197_2265"/>
<feColorMatrix in="SourceAlpha" type="matrix" values="0 0 0 0 0 0 0 0 0 0 0 0 0 0 0 0 0 0 127 0" result="hardAlpha"/>
<feMorphology radius="2" operator="erode" in="SourceAlpha" result="effect6_innerShadow_197_2265"/>
<feOffset dy="4"/>
<feGaussianBlur stdDeviation="2"/>
<feComposite in2="hardAlpha" operator="arithmetic" k2="-1" k3="1"/>
<feColorMatrix type="matrix" values="0 0 0 0 0.678431 0 0 0 0 0.607843 0 0 0 0 0.972549 0 0 0 0.08 0"/>
<feBlend mode="normal" in2="effect5_innerShadow_197_2265" result="effect6_innerShadow_197_2265"/>
<feColorMatrix in="SourceAlpha" type="matrix" values="0 0 0 0 0 0 0 0 0 0 0 0 0 0 0 0 0 0 127 0" result="hardAlpha"/>
<feMorphology radius="1" operator="erode" in="SourceAlpha" result="effect7_innerShadow_197_2265"/>
<feOffset/>
<feComposite in2="hardAlpha" operator="arithmetic" k2="-1" k3="1"/>
<feColorMatrix type="matrix" values="0 0 0 0 0.12549 0 0 0 0 0.0666667 0 0 0 0 0.494118 0 0 0 0.02 0"/>
<feBlend mode="normal" in2="effect6_innerShadow_197_2265" result="effect7_innerShadow_197_2265"/>
<feColorMatrix in="SourceAlpha" type="matrix" values="0 0 0 0 0 0 0 0 0 0 0 0 0 0 0 0 0 0 127 0" result="hardAlpha"/>
<feMorphology radius="2" operator="dilate" in="SourceAlpha" result="effect8_innerShadow_197_2265"/>
<feOffset dy="-4"/>
<feGaussianBlur stdDeviation="2"/>
<feComposite in2="hardAlpha" operator="arithmetic" k2="-1" k3="1"/>
<feColorMatrix type="matrix" values="0 0 0 0 1 0 0 0 0 1 0 0 0 0 1 0 0 0 0.2 0"/>
<feBlend mode="normal" in2="effect7_innerShadow_197_2265" result="effect8_innerShadow_197_2265"/>
</filter>
<filter id="filter12_i_197_2265" x="16.9707" y="39.1" width="58.0586" height="20.0972" filterUnits="userSpaceOnUse" color-interpolation-filters="sRGB">
<feFlood flood-opacity="0" result="BackgroundImageFix"/>
<feBlend mode="normal" in="SourceGraphic" in2="BackgroundImageFix" result="shape"/>
<feColorMatrix in="SourceAlpha" type="matrix" values="0 0 0 0 0 0 0 0 0 0 0 0 0 0 0 0 0 0 127 0" result="hardAlpha"/>
<feOffset dy="-2"/>
<feComposite in2="hardAlpha" operator="arithmetic" k2="-1" k3="1"/>
<feColorMatrix type="matrix" values="0 0 0 0 1 0 0 0 0 1 0 0 0 0 1 0 0 0 0.8 0"/>
<feBlend mode="normal" in2="shape" result="effect1_innerShadow_197_2265"/>
</filter>
<filter id="filter13_i_197_2265" x="16.9707" y="23.26" width="58.0586" height="20.0972" filterUnits="userSpaceOnUse" color-interpolation-filters="sRGB">
<feFlood flood-opacity="0" result="BackgroundImageFix"/>
<feBlend mode="normal" in="SourceGraphic" in2="BackgroundImageFix" result="shape"/>
<feColorMatrix in="SourceAlpha" type="matrix" values="0 0 0 0 0 0 0 0 0 0 0 0 0 0 0 0 0 0 127 0" result="hardAlpha"/>
<feOffset dy="-2"/>
<feComposite in2="hardAlpha" operator="arithmetic" k2="-1" k3="1"/>
<feColorMatrix type="matrix" values="0 0 0 0 1 0 0 0 0 1 0 0 0 0 1 0 0 0 0.6 0"/>
<feBlend mode="normal" in2="shape" result="effect1_innerShadow_197_2265"/>
</filter>
<radialGradient id="paint0_radial_197_2265" cx="0" cy="0" r="1" gradientUnits="userSpaceOnUse" gradientTransform="translate(45.9999 50.1943) rotate(90) scale(6.03496 18.0384)">
<stop stop-color="#CAD7EC"/>
<stop offset="1" stop-color="white"/>
</radialGradient>
<radialGradient id="paint1_radial_197_2265" cx="0" cy="0" r="1" gradientUnits="userSpaceOnUse" gradientTransform="translate(12.8036 75.3916) rotate(-20.8584) scale(63.3068 27.7042)">
<stop stop-color="white"/>
<stop offset="1" stop-color="white" stop-opacity="0.61"/>
</radialGradient>
<radialGradient id="paint2_radial_197_2265" cx="0" cy="0" r="1" gradientUnits="userSpaceOnUse" gradientTransform="translate(45.9999 35.1943) rotate(90) scale(6.03496 18.0384)">
<stop stop-color="#CAD7EC"/>
<stop offset="1" stop-color="white"/>
</radialGradient>
<radialGradient id="paint3_radial_197_2265" cx="0" cy="0" r="1" gradientUnits="userSpaceOnUse" gradientTransform="translate(12.8036 60.3916) rotate(-20.8584) scale(63.3068 27.7042)">
<stop stop-color="white"/>
<stop offset="1" stop-color="white" stop-opacity="0.61"/>
</radialGradient>
<radialGradient id="paint4_radial_197_2265" cx="0" cy="0" r="1" gradientUnits="userSpaceOnUse" gradientTransform="translate(30.5177 28.5527) rotate(66.7345) scale(39.1963 45.0602)">
<stop stop-color="#D6E6FF"/>
<stop offset="1" stop-color="#F0F6FF"/>
</radialGradient>
<radialGradient id="paint5_radial_197_2265" cx="0" cy="0" r="1" gradientUnits="userSpaceOnUse" gradientTransform="translate(70.9918 28.8366) rotate(-171.382) scale(47.8889 22.7466)">
<stop stop-color="#BDD7FF"/>
<stop offset="1" stop-color="#BAB4E1" stop-opacity="0"/>
</radialGradient>
<radialGradient id="paint6_radial_197_2265" cx="0" cy="0" r="1" gradientUnits="userSpaceOnUse" gradientTransform="translate(45.9999 16.5497) rotate(90) scale(10.0486 29.0292)">
<stop stop-color="#A0B1CA"/>
<stop offset="1" stop-color="#F1F7FF"/>
</radialGradient>
<radialGradient id="paint7_radial_197_2265" cx="0" cy="0" r="1" gradientUnits="userSpaceOnUse" gradientTransform="translate(67.2808 23.3538) rotate(-167.967) scale(53.6266 23.3818)">
<stop stop-color="#B4D1FF"/>
<stop offset="1" stop-color="#BCB7E1" stop-opacity="0"/>
</radialGradient>
<radialGradient id="paint8_radial_197_2265" cx="0" cy="0" r="1" gradientUnits="userSpaceOnUse" gradientTransform="translate(45.9999 6.5011) rotate(90) scale(20.0972 58.0584)">
<stop stop-color="#F2F7FF"/>
<stop stop-color="#FAF7FF"/>
<stop offset="1" stop-color="#E6EFFF"/>
</radialGradient>
<radialGradient id="paint9_radial_197_2265" cx="0" cy="0" r="1" gradientUnits="userSpaceOnUse" gradientTransform="translate(30.5177 28.5527) rotate(66.7345) scale(39.1963 45.0602)">
<stop stop-color="#EBF3FF"/>
<stop offset="1" stop-color="#EFF5FF"/>
</radialGradient>
<radialGradient id="paint10_radial_197_2265" cx="0" cy="0" r="1" gradientUnits="userSpaceOnUse" gradientTransform="translate(70.9918 28.8366) rotate(-171.382) scale(47.8889 22.7466)">
<stop stop-color="#C0D9FF"/>
<stop offset="1" stop-color="#BBCAE3" stop-opacity="0"/>
</radialGradient>
</defs>
</svg>
