<svg xmlns="http://www.w3.org/2000/svg" width="92" height="87" fill="none" viewBox="0 0 92 87"><g fill-rule="evenodd" clip-rule="evenodd" filter="url(#a)"><path fill="url(#b)" d="M38.807 6.586c2.056-.363 4.393-.572 6.84-.583a44.7 44.7 0 0 1 7.457.583c3.885.648 7.157 3.562 7.157 7.441v13.63c0 3.997-3.177 7.274-7.157 7.274H38.807c-4.855 0-8.943 4.168-8.943 8.892v2.54a4 4 0 0 1-4 4h-.921c-4.16 0-6.59-3.02-7.608-7.257-1.372-5.693-1.314-9.096 0-14.548 1.14-4.757 4.782-7.257 8.942-7.257h18.777a.91.91 0 0 0 0-1.818H35.65a4 4 0 0 1-4-4v-1.456c0-4.13 1.1-6.37 7.157-7.44m1.785 6.54c0-1.509-1.208-2.736-2.686-2.736-1.484 0-2.686 1.227-2.686 2.736 0 1.504 1.202 2.72 2.686 2.72 1.478 0 2.686-1.216 2.686-2.72"/><path fill="url(#c)" d="M62.046 25.301a4 4 0 0 1 4-4h1.372c4.165 0 6.129 3.116 7.157 7.257 1.431 5.752 1.495 10.064 0 14.548-1.447 4.355-2.997 7.257-7.157 7.257H46.873a.91.91 0 1 0 0 1.819h9.388a4 4 0 0 1 4 4v1.455c0 4.13-3.553 6.23-7.157 7.274-5.421 1.573-9.766 1.332-14.297 0-3.784-1.113-7.158-3.395-7.158-7.274v-13.63c0-3.922 3.241-7.274 7.157-7.274h14.298c4.764 0 8.942-4.148 8.942-9.076zm-5.355 33.237c0-1.504-1.202-2.72-2.686-2.72-1.479 0-2.686 1.216-2.686 2.72 0 1.509 1.207 2.736 2.686 2.736 1.484 0 2.686-1.227 2.686-2.736"/></g><g filter="url(#d)"><path fill="url(#e)" d="M45.647 6.003c-2.447.01-4.784.22-6.84.583-6.058 1.07-7.158 3.31-7.158 7.441v1.456a4 4 0 0 0 4 4h9.405a.91.91 0 0 1 0 1.818H26.277c-4.16 0-7.802 2.5-8.942 7.257-1.314 5.453-1.372 8.855 0 14.548 1.018 4.237 3.448 7.257 7.608 7.257h.921a4 4 0 0 0 4-4v-2.54c0-4.724 4.088-8.892 8.942-8.892h14.298c3.98 0 7.157-3.277 7.157-7.274v-13.63c0-3.88-3.273-6.793-7.157-7.44a44.7 44.7 0 0 0-7.457-.584m-7.741 4.387c1.478 0 2.686 1.227 2.686 2.736 0 1.504-1.208 2.72-2.686 2.72-1.484 0-2.686-1.216-2.686-2.72 0-1.509 1.202-2.736 2.686-2.736"/></g><g filter="url(#f)"><path fill="url(#g)" d="M62.046 21.301v6.356c0 4.928-4.178 9.076-8.942 9.076H38.807c-3.917 0-7.158 3.352-7.158 7.274v13.63c0 3.879 3.374 6.16 7.157 7.274 4.532 1.332 8.877 1.573 14.298 0 3.604-1.044 7.157-3.144 7.157-7.274V52.18H45.964v-1.818h21.454c4.16 0 5.71-2.902 7.157-7.257 1.495-4.484 1.431-8.796 0-14.548-1.028-4.141-2.992-7.257-7.157-7.257zm-8.041 34.517c1.484 0 2.686 1.216 2.686 2.72 0 1.509-1.202 2.736-2.686 2.736-1.479 0-2.686-1.227-2.686-2.736 0-1.504 1.207-2.72 2.686-2.72"/></g><defs><radialGradient id="b" cx="0" cy="0" r="1" gradientTransform="matrix(0 44.7011 -44.0228 0 53.66 21.301)" gradientUnits="userSpaceOnUse"><stop stop-color="#fff"/><stop offset="1" stop-color="#F7F7F7"/></radialGradient><radialGradient id="c" cx="0" cy="0" r="1" gradientTransform="matrix(0 44.7011 -44.0228 0 53.66 21.301)" gradientUnits="userSpaceOnUse"><stop stop-color="#fff"/><stop offset="1" stop-color="#F7F7F7"/></radialGradient><radialGradient id="e" cx="0" cy="0" r="1" gradientTransform="matrix(0 44.3609 -43.9334 0 38.294 6.002)" gradientUnits="userSpaceOnUse"><stop stop-color="#F2F7FF"/><stop stop-color="#FAF7FF"/><stop offset="1" stop-color="#E6EFFF"/></radialGradient><radialGradient id="g" cx="0" cy="0" r="1" gradientTransform="matrix(0 33.3031 -32.6569 0 59.37 32.704)" gradientUnits="userSpaceOnUse"><stop stop-color="#fff"/><stop offset="1" stop-color="#F7F7F7"/></radialGradient><filter id="a" width="91.345" height="92" x=".328" y=".002" color-interpolation-filters="sRGB" filterUnits="userSpaceOnUse"><feFlood flood-opacity="0" result="BackgroundImageFix"/><feColorMatrix in="SourceAlpha" result="hardAlpha" values="0 0 0 0 0 0 0 0 0 0 0 0 0 0 0 0 0 0 127 0"/><feOffset dy="10"/><feGaussianBlur stdDeviation="8"/><feColorMatrix values="0 0 0 0 0.0470588 0 0 0 0 0.152941 0 0 0 0 0.333333 0 0 0 0.01 0"/><feBlend in2="BackgroundImageFix" result="effect1_dropShadow_197_2284"/><feColorMatrix in="SourceAlpha" result="hardAlpha" values="0 0 0 0 0 0 0 0 0 0 0 0 0 0 0 0 0 0 127 0"/><feOffset dy="10"/><feGaussianBlur stdDeviation="3"/><feColorMatrix values="0 0 0 0 0.0470588 0 0 0 0 0.152941 0 0 0 0 0.333333 0 0 0 0.04 0"/><feBlend in2="effect1_dropShadow_197_2284" result="effect2_dropShadow_197_2284"/><feColorMatrix in="SourceAlpha" result="hardAlpha" values="0 0 0 0 0 0 0 0 0 0 0 0 0 0 0 0 0 0 127 0"/><feOffset dy="4"/><feGaussianBlur stdDeviation="1.5"/><feColorMatrix values="0 0 0 0 0.0470588 0 0 0 0 0.152941 0 0 0 0 0.333333 0 0 0 0.12 0"/><feBlend in2="effect2_dropShadow_197_2284" result="effect3_dropShadow_197_2284"/><feColorMatrix in="SourceAlpha" result="hardAlpha" values="0 0 0 0 0 0 0 0 0 0 0 0 0 0 0 0 0 0 127 0"/><feOffset dx="-1" dy="1"/><feComposite in2="hardAlpha" operator="out"/><feColorMatrix values="0 0 0 0 0.0470588 0 0 0 0 0.152941 0 0 0 0 0.333333 0 0 0 0.02 0"/><feBlend in2="effect3_dropShadow_197_2284" result="effect4_dropShadow_197_2284"/><feBlend in="SourceGraphic" in2="effect4_dropShadow_197_2284" result="shape"/></filter><filter id="d" width="51.934" height="52.361" x="12.328" y="6.002" color-interpolation-filters="sRGB" filterUnits="userSpaceOnUse"><feFlood flood-opacity="0" result="BackgroundImageFix"/><feColorMatrix in="SourceAlpha" result="hardAlpha" values="0 0 0 0 0 0 0 0 0 0 0 0 0 0 0 0 0 0 127 0"/><feOffset dy="4"/><feGaussianBlur stdDeviation="1"/><feComposite in2="hardAlpha" operator="out"/><feColorMatrix values="0 0 0 0 0.0470588 0 0 0 0 0.152941 0 0 0 0 0.333333 0 0 0 0.08 0"/><feBlend in2="BackgroundImageFix" result="effect1_dropShadow_197_2284"/><feColorMatrix in="SourceAlpha" result="hardAlpha" values="0 0 0 0 0 0 0 0 0 0 0 0 0 0 0 0 0 0 127 0"/><feOffset dy="4"/><feGaussianBlur stdDeviation="2"/><feComposite in2="hardAlpha" operator="out"/><feColorMatrix values="0 0 0 0 0.0470588 0 0 0 0 0.152941 0 0 0 0 0.333333 0 0 0 0.12 0"/><feBlend in2="effect1_dropShadow_197_2284" result="effect2_dropShadow_197_2284"/><feColorMatrix in="SourceAlpha" result="hardAlpha" values="0 0 0 0 0 0 0 0 0 0 0 0 0 0 0 0 0 0 127 0"/><feOffset dy="4"/><feGaussianBlur stdDeviation="1"/><feComposite in2="hardAlpha" operator="out"/><feColorMatrix values="0 0 0 0 0.0470588 0 0 0 0 0.152941 0 0 0 0 0.333333 0 0 0 0.08 0"/><feBlend in2="effect2_dropShadow_197_2284" result="effect3_dropShadow_197_2284"/><feBlend in="SourceGraphic" in2="effect3_dropShadow_197_2284" result="shape"/><feColorMatrix in="SourceAlpha" result="hardAlpha" values="0 0 0 0 0 0 0 0 0 0 0 0 0 0 0 0 0 0 127 0"/><feOffset dy="4"/><feGaussianBlur stdDeviation="2"/><feComposite in2="hardAlpha" k2="-1" k3="1" operator="arithmetic"/><feColorMatrix values="0 0 0 0 1 0 0 0 0 1 0 0 0 0 1 0 0 0 0.4 0"/><feBlend in2="shape" result="effect4_innerShadow_197_2284"/></filter><filter id="f" width="76.023" height="76.701" x="15.649" y="15.301" color-interpolation-filters="sRGB" filterUnits="userSpaceOnUse"><feFlood flood-opacity="0" result="BackgroundImageFix"/><feColorMatrix in="SourceAlpha" result="hardAlpha" values="0 0 0 0 0 0 0 0 0 0 0 0 0 0 0 0 0 0 127 0"/><feOffset dy="10"/><feGaussianBlur stdDeviation="8"/><feColorMatrix values="0 0 0 0 0.0470588 0 0 0 0 0.152941 0 0 0 0 0.333333 0 0 0 0.02 0"/><feBlend in2="BackgroundImageFix" result="effect1_dropShadow_197_2284"/><feColorMatrix in="SourceAlpha" result="hardAlpha" values="0 0 0 0 0 0 0 0 0 0 0 0 0 0 0 0 0 0 127 0"/><feOffset dy="10"/><feGaussianBlur stdDeviation="3"/><feColorMatrix values="0 0 0 0 0.0470588 0 0 0 0 0.152941 0 0 0 0 0.333333 0 0 0 0.06 0"/><feBlend in2="effect1_dropShadow_197_2284" result="effect2_dropShadow_197_2284"/><feColorMatrix in="SourceAlpha" result="hardAlpha" values="0 0 0 0 0 0 0 0 0 0 0 0 0 0 0 0 0 0 127 0"/><feOffset dy="4"/><feGaussianBlur stdDeviation="1.5"/><feColorMatrix values="0 0 0 0 0.0470588 0 0 0 0 0.152941 0 0 0 0 0.333333 0 0 0 0.12 0"/><feBlend in2="effect2_dropShadow_197_2284" result="effect3_dropShadow_197_2284"/><feColorMatrix in="SourceAlpha" result="hardAlpha" values="0 0 0 0 0 0 0 0 0 0 0 0 0 0 0 0 0 0 127 0"/><feOffset dx="-1" dy="1"/><feComposite in2="hardAlpha" operator="out"/><feColorMatrix values="0 0 0 0 0.0470588 0 0 0 0 0.152941 0 0 0 0 0.333333 0 0 0 0.04 0"/><feBlend in2="effect3_dropShadow_197_2284" result="effect4_dropShadow_197_2284"/><feBlend in="SourceGraphic" in2="effect4_dropShadow_197_2284" result="shape"/></filter></defs></svg>