<svg xmlns="http://www.w3.org/2000/svg" width="96" height="19" fill="none" viewBox="0 0 96 19"><g fill="#151618" clip-path="url(#a)"><path d="M0 16.83c.757 0 1.461-.054 2.192-1.879L7.853.914h1.644l5.427 13.62c.705 1.748 1.305 2.296 2.218 2.296v1.176H10.88v-1.098c1.54-.078 2.192-.6 1.565-2.218l-1.069-2.766H5.088L4.072 14.56c-.574 1.487-.313 2.348 1.305 2.348v1.096H0zm10.828-6.34L8.245 3.732l-2.61 6.758zm7.884 7.044V2.609l-2.009-.363V1.41L20.252 0h.626v8.062c1.33-1.59 2.374-2.218 3.887-2.218 2.844 0 4.775 2.246 4.775 5.584 0 3.679-2.375 6.862-6.578 6.862a13.6 13.6 0 0 1-4.253-.757m4.958-.391c2.085 0 3.496-2.009 3.496-4.905 0-2.766-1.278-4.618-3.522-4.618A3.47 3.47 0 0 0 20.876 9v5.376a2.654 2.654 0 0 0 2.791 2.765m9.208-.105-1.357 1.148h-.47l-.286-4.305h1.043c.992 2.193 2.349 3.131 4.044 3.131 1.279 0 2.193-.626 2.193-1.748 0-.704-.365-1.409-1.644-1.905l-2.113-.809c-2.035-.783-3.026-1.774-3.026-3.366 0-2.061 1.721-3.366 3.809-3.366a3.4 3.4 0 0 1 2.687 1.177l1.357-1.097h.444v3.862H38.51c-.861-2.139-1.905-2.661-3.105-2.661-1.357 0-2.14.678-2.14 1.644 0 .73.445 1.278 1.592 1.696l2.322.834c1.879.678 2.897 1.775 2.897 3.418 0 2.035-1.566 3.601-3.966 3.601a4.77 4.77 0 0 1-3.236-1.254m10.676-2.268.079-7.07h-2.035V6.261h1.356l2.27-2.844h.496v2.844h3.731v1.435h-3.731v6.577c0 1.487.678 2.27 1.983 2.27a3.06 3.06 0 0 0 2.009-.835l.39.47c-.782 1.226-1.877 2.085-3.235 2.085-1.982 0-3.34-1.07-3.315-3.496m9.525.496V8.609l-1.775-.365V7.46l3.105-1.409h.835v2.246c1.644-1.827 2.505-2.322 3.392-2.322a1.297 1.297 0 0 1 1.409 1.278 1.99 1.99 0 0 1-1.096 1.644l-1.878-1.07a5.45 5.45 0 0 0-1.827 1.383v6.312c0 1.148.365 1.436 1.827 1.436h.391v1.043h-6.288v-1.045c1.513 0 1.905-.287 1.905-1.696m14.037 1.021c-1.124 1.462-2.14 2.01-3.288 2.01a2.55 2.55 0 0 1-2.662-2.662c0-1.54.966-2.453 2.845-3.208l3.079-1.2v-1.017c0-1.591-.757-2.53-2.246-2.53-1.044 0-1.983.521-3 1.904l-.861-.574c1.46-2.374 3.078-3.154 4.67-3.154 2.192 0 3.6 1.513 3.6 4.044v5.683c0 .6.21 1.016.888 1.016a1.56 1.56 0 0 0 1.122-.574l.157.652c-.913 1.226-1.54 1.618-2.322 1.618-1.177 0-1.827-.887-1.983-2.01m-2.218.236a3.32 3.32 0 0 0 2.192-.966v-2.945l-1.957.443c-1.252.314-1.826 1.016-1.826 1.983a1.448 1.448 0 0 0 1.591 1.487m6.843-3.993a6.534 6.534 0 0 1 6.442-6.628c1.983 0 3.236.861 3.236 1.905a1.48 1.48 0 0 1-1.41 1.331l-2.245-2.166c-2.114.261-3.836 2.062-3.836 4.827 0 2.323 1.2 4.462 3.966 4.462 1.461 0 2.557-.574 3.47-2.139l.653.548c-1.148 2.61-3 3.627-5.036 3.627-3.13 0-5.243-2.662-5.243-5.767M84.8 14.768l.079-7.07h-2.035V6.261H84.2l2.27-2.844h.496v2.844h3.731v1.435h-3.731v6.577c0 1.487.678 2.27 1.983 2.27a3.06 3.06 0 0 0 2.008-.835l.392.47c-.783 1.226-1.879 2.085-3.236 2.085-1.982 0-3.34-1.07-3.315-3.496m8.331 2.193a1.435 1.435 0 1 1 1.461 1.435 1.42 1.42 0 0 1-1.461-1.435"/></g><defs><clipPath id="a"><path fill="#fff" d="M0 0h96v18.394H0z"/></clipPath></defs></svg>