<svg xmlns="http://www.w3.org/2000/svg" width="96" height="38" fill="none" viewBox="0 0 96 38"><g fill="#151618" fill-rule="evenodd" clip-path="url(#a)" clip-rule="evenodd"><path d="M17.447 0H0v17.447h17.447zm-5.531 11.79q.29-.504.29-1.236a2 2 0 0 0-.151-.795 1.9 1.9 0 0 0-.391-.618 1.9 1.9 0 0 0-.58-.43 2.3 2.3 0 0 0-.707-.239v-.025q.655-.214 1.06-.694.403-.492.403-1.236 0-.681-.277-1.123a2 2 0 0 0-.72-.694 3 3 0 0 0-.983-.366 5 5 0 0 0-1.06-.113H5.242v8.932H8.8a6 6 0 0 0 1.249-.127q.618-.139 1.097-.441a2.3 2.3 0 0 0 .77-.795M9.759 6.807q0-.455-.354-.656-.34-.215-1.022-.215h-1.06v1.842h1.161q.606 0 .934-.24.34-.251.34-.731m.29 3.545q0-.555-.417-.77-.415-.214-1.11-.214H7.324v2.044h1.21q.254 0 .518-.038.278-.05.492-.164a.95.95 0 0 0 .366-.316 1 1 0 0 0 .139-.542M37.076 0H19.628v17.447h17.448zm-4.054 10.592a5 5 0 0 0 .366-1.943q0-1.072-.366-1.93A4.2 4.2 0 0 0 32 5.243a4.45 4.45 0 0 0-1.54-.934 5.6 5.6 0 0 0-1.942-.328q-1.047 0-1.943.328a4.6 4.6 0 0 0-1.539.934 4.3 4.3 0 0 0-1.01 1.476q-.365.858-.365 1.93 0 1.06.366 1.943.366.87 1.009 1.502.655.618 1.54.958.895.34 1.942.34t1.943-.34A4.5 4.5 0 0 0 32 12.094q.656-.631 1.022-1.502M31.079 8.65q0-.58-.19-1.085a2.5 2.5 0 0 0-.53-.857 2.2 2.2 0 0 0-.807-.568 2.45 2.45 0 0 0-1.034-.215q-.567 0-1.035.215-.466.202-.807.567a2.5 2.5 0 0 0-.53.858 3.3 3.3 0 0 0-.177 1.085q0 .606.19 1.123.189.505.517.87.34.367.808.581a2.6 2.6 0 0 0 1.034.202q.567 0 1.034-.202.467-.215.808-.58.34-.367.53-.87.189-.518.189-1.124M56.704 0H39.257v17.447h17.447zm-8.961 9.999 1.955 3.154h2.662l-3.23-4.719 2.826-4.213h-2.51l-1.64 2.775-1.665-2.775h-2.6l2.877 4.213-3.129 4.719h2.574zm-10.667 9.63H19.628v17.447h17.448zm-9.354 9.607 1.93 3.545h2.523l-2.334-3.823q.87-.264 1.363-.883.492-.618.492-1.526 0-.77-.29-1.287a2.3 2.3 0 0 0-.783-.833 3.1 3.1 0 0 0-1.097-.441 5.6 5.6 0 0 0-1.25-.14h-3.405v8.933h2.119v-3.545zm1.842-2.65q0-.315-.14-.504a.8.8 0 0 0-.34-.303 1.3 1.3 0 0 0-.467-.151 3 3 0 0 0-.492-.038h-1.148v2.081H28q.265 0 .543-.037.278-.051.504-.165a.9.9 0 0 0 .366-.328q.152-.213.152-.555m-12.118-6.957H0v17.447h17.447zm-6.199 13.165a7 7 0 0 0 1.54-.555v-4.73H9.103v1.74h1.703v1.628a3 3 0 0 1-.631.19 5 5 0 0 1-.72.05q-.655 0-1.173-.202a2.6 2.6 0 0 1-.857-.58q-.34-.38-.518-.896a3.5 3.5 0 0 1-.176-1.136q0-.606.189-1.11.203-.518.555-.883a2.4 2.4 0 0 1 .833-.58q.48-.215 1.047-.215.655 0 1.173.24.518.227.833.593l1.362-1.552q-.567-.543-1.476-.858a5.8 5.8 0 0 0-1.968-.328q-1.021 0-1.905.328a4.5 4.5 0 0 0-1.539.946 4.3 4.3 0 0 0-1.034 1.476q-.366.87-.366 1.943 0 1.06.366 1.93.365.858 1.009 1.476.655.619 1.552.96.907.34 1.98.34 1.035 0 1.905-.215m45.457-13.165H39.257v17.447h17.447zM52.65 30.22a5 5 0 0 0 .366-1.943q0-1.072-.366-1.93a4.2 4.2 0 0 0-1.022-1.476 4.45 4.45 0 0 0-1.539-.934 5.6 5.6 0 0 0-1.943-.328q-1.047 0-1.942.328a4.6 4.6 0 0 0-1.54.934 4.3 4.3 0 0 0-1.009 1.476q-.366.858-.366 1.93 0 1.06.366 1.943.365.87 1.01 1.501.656.618 1.539.959a5.4 5.4 0 0 0 1.942.34q1.047 0 1.943-.34a4.5 4.5 0 0 0 1.54-.959q.655-.63 1.021-1.501m-1.943-1.943q0-.58-.189-1.085a2.5 2.5 0 0 0-.53-.858 2.2 2.2 0 0 0-.807-.568 2.45 2.45 0 0 0-1.035-.214q-.567 0-1.034.214a2.4 2.4 0 0 0-.808.568 2.5 2.5 0 0 0-.53.858 3.3 3.3 0 0 0-.176 1.085q0 .606.19 1.123.188.504.517.87.34.367.807.58a2.6 2.6 0 0 0 1.034.203 2.6 2.6 0 0 0 1.035-.202 2.5 2.5 0 0 0 .807-.58q.34-.367.53-.871.19-.518.19-1.123m25.625-8.648H58.885v17.447h17.448zm-5.229 11.26q.279-.669.278-1.477V23.85h-2.157v5.387q0 .366-.088.694a1.7 1.7 0 0 1-.291.593 1.4 1.4 0 0 1-.53.403q-.315.152-.769.152t-.783-.152a1.46 1.46 0 0 1-.517-.403 2 2 0 0 1-.29-.593 2.7 2.7 0 0 1-.088-.694V23.85h-2.145v5.563q0 .808.265 1.476.265.656.757 1.136.492.467 1.199.731.705.265 1.59.265.87 0 1.576-.265.72-.264 1.224-.731.504-.48.77-1.136m24.856-11.26H78.513v17.447h17.448zm-5.72 8.295q.29-.543.29-1.325 0-.77-.278-1.287a2.1 2.1 0 0 0-.745-.845 3 3 0 0 0-1.11-.467 5.8 5.8 0 0 0-1.362-.151h-3.28v8.932h2.157v-3.369h1.072q.695 0 1.338-.151.643-.15 1.135-.48a2.4 2.4 0 0 0 .782-.857m-1.868-1.312a.96.96 0 0 0-.126-.518.9.9 0 0 0-.34-.315 1.5 1.5 0 0 0-.493-.151 4 4 0 0 0-.555-.038h-.946v2.107h.908q.303 0 .58-.05a1.5 1.5 0 0 0 .493-.177.95.95 0 0 0 .353-.328 1.03 1.03 0 0 0 .126-.53"/></g><defs><clipPath id="a"><path fill="#fff" d="M0 0h96v37.076H0z"/></clipPath></defs></svg>