<svg xmlns="http://www.w3.org/2000/svg" width="96" height="10" fill="none" viewBox="0 0 96 10"><g fill="#151618" clip-path="url(#a)"><path d="M0 .378A.246.246 0 0 1 .246.13h2.957a2.892 2.892 0 1 1 .013 5.784h-1.88v3.047a.255.255 0 0 1-.247.247H.246A.246.246 0 0 1 0 8.962zm3.125 4.266a1.65 1.65 0 0 0 1.648-1.66 1.6 1.6 0 0 0-1.648-1.556h-1.79v3.216zM17.966 0a4.5 4.5 0 0 1 3.139 1.207.242.242 0 0 1 .013.363l-.57.583c-.092.117-.208.117-.325 0a3.52 3.52 0 0 0-2.24-.869 3.367 3.367 0 0 0 .012 6.73 3.47 3.47 0 0 0 2.23-.856.24.24 0 0 1 .312-.013l.594.584a.25.25 0 0 1-.014.35 4.45 4.45 0 0 1-3.15 1.258 4.67 4.67 0 1 1 0-9.336m5.408.376a.255.255 0 0 1 .247-.246h.868a.246.246 0 0 1 .247.246v5.356a2.17 2.17 0 1 0 4.332.026V.377a.247.247 0 0 1 .246-.246h.87a.255.255 0 0 1 .245.246v5.448a3.527 3.527 0 0 1-7.052 0zm9.514 7.521c.117-.17.22-.364.337-.532a.294.294 0 0 1 .441-.104 3.8 3.8 0 0 0 2.075.895 1.307 1.307 0 0 0 1.466-1.207c0-.777-.674-1.27-1.958-1.802-1.323-.558-2.361-1.245-2.361-2.749 0-1.012.778-2.399 2.84-2.399a4.4 4.4 0 0 1 2.4.765.31.31 0 0 1 .077.441c-.103.156-.22.338-.324.493a.306.306 0 0 1-.454.132 4 4 0 0 0-1.75-.649c-1.09 0-1.466.688-1.466 1.168 0 .738.57 1.192 1.647 1.633 1.505.61 2.789 1.322 2.789 2.905 0 1.348-1.206 2.45-2.892 2.45a4.2 4.2 0 0 1-2.789-1.024.274.274 0 0 1-.078-.416M48.448 0a4.5 4.5 0 0 1 3.138 1.207.242.242 0 0 1 .013.363l-.57.583c-.092.118-.208.118-.325 0a3.52 3.52 0 0 0-2.24-.868 3.367 3.367 0 0 0 .013 6.73 3.47 3.47 0 0 0 2.23-.857.24.24 0 0 1 .312-.013l.593.584a.25.25 0 0 1-.014.35 4.45 4.45 0 0 1-3.151 1.258 4.669 4.669 0 1 1 0-9.337m4.046 8.87 3.98-8.728A.3.3 0 0 1 56.696 0h.132a.3.3 0 0 1 .22.142L61 8.87a.23.23 0 0 1-.101.315.23.23 0 0 1-.12.022h-.817a.3.3 0 0 1-.299-.198l-.804-1.78h-4.24c-.26.594-.532 1.181-.79 1.78a.33.33 0 0 1-.299.198h-.817a.228.228 0 0 1-.221-.337m5.878-2.75-1.595-3.552h-.066L55.128 6.12zM62.813.378a.245.245 0 0 1 .246-.247h2.957a2.892 2.892 0 1 1 .013 5.784h-1.881v3.047a.255.255 0 0 1-.246.247h-.843a.246.246 0 0 1-.246-.247zm3.125 4.266a1.653 1.653 0 0 0 1.647-1.66 1.597 1.597 0 0 0-1.647-1.556h-1.79v3.216zM71.031.377a.255.255 0 0 1 .247-.246h.856a.255.255 0 0 1 .247.246v8.585a.255.255 0 0 1-.246.246h-.857a.255.255 0 0 1-.247-.246zm5.626.973h-2.114a.246.246 0 0 1-.246-.246V.38a.245.245 0 0 1 .246-.246h5.576a.246.246 0 0 1 .246.246v.725a.247.247 0 0 1-.246.246h-2.114v7.612a.255.255 0 0 1-.247.247h-.856a.255.255 0 0 1-.247-.247zm3.913 7.52L84.553.142a.3.3 0 0 1 .22-.142h.133a.3.3 0 0 1 .22.142L89.08 8.87a.23.23 0 0 1-.101.315.23.23 0 0 1-.12.022h-.817a.3.3 0 0 1-.298-.198l-.804-1.78h-4.241c-.26.594-.531 1.181-.791 1.78a.33.33 0 0 1-.299.198h-.816a.229.229 0 0 1-.222-.337m5.876-2.75L84.85 2.569h-.066L83.203 6.12zM90.89.377a.247.247 0 0 1 .247-.246h.857a.255.255 0 0 1 .246.246V8h3.514a.246.246 0 0 1 .247.247v.713a.247.247 0 0 1-.247.246h-4.616a.246.246 0 0 1-.247-.246zM11.924 2.056l-.155.454a.2.2 0 0 1-.208.115.2.2 0 0 1-.08-.027l-1.04-.497v6.864a.246.246 0 0 1-.243.244h-.794a.233.233 0 0 1-.232-.232V2.1l-1.04.497a.198.198 0 0 1-.288-.088l-.155-.454a.26.26 0 0 1 .044-.264L9.17.487l.395-.365L9.59.1a.313.313 0 0 1 .427 0l.024.022.396.365 1.438 1.306a.26.26 0 0 1 .05.263"/></g><defs><clipPath id="a"><path fill="#fff" d="M0 0h96v9.337H0z"/></clipPath></defs></svg>