<svg xmlns="http://www.w3.org/2000/svg" width="96" height="20" fill="none" viewBox="0 0 96 20"><g fill="#151618" clip-path="url(#a)"><path d="M53.904 3.838c.165 0 .207.206.207.371.04.66.082 1.28.082 1.94.041.62.041 1.238.041 1.857.372-.288.702-.577 1.115-.701a2.5 2.5 0 0 1 2.105.041c.701.372 1.155 1.032 1.403 1.734.206.701.289 1.444.248 2.146-.083.866-.29 1.692-.785 2.393-.288.413-.66.743-1.155.909-.784.288-1.61.165-2.312-.248-.206-.124-.412-.33-.577-.495-.083.247-.124.495-.207.742-.371 0-.701.042-1.073-.04.124-.579.124-1.198.165-1.776.042-2.104 0-4.21 0-6.273-.041-.825 0-1.65-.123-2.435.247-.083.577-.165.866-.165m2.724 4.334a2.5 2.5 0 0 0-.95-.042c-.577.083-1.03.496-1.402.908v3.756c0 .124.082.206.165.248.578.536 1.403.784 2.146.619.371-.083.702-.33.867-.66.289-.455.371-.991.412-1.528.042-.412.083-.825.042-1.197 0-.454-.124-.949-.372-1.362-.206-.412-.536-.66-.908-.742m4.746-4.045c.207-.083.496-.083.702.041s.372.33.454.537c.124.495-.248 1.031-.743 1.073-.371.041-.784-.165-.908-.578-.165-.372.083-.908.495-1.073m-34.132.867c.537-.372 1.197-.66 1.857-.66.702 0 1.404.04 2.023.33.247.123.495.247.743.412-.165.289-.372.495-.578.743-.248-.124-.495-.289-.784-.413-.66-.247-1.445-.289-2.105 0-.578.207-1.032.66-1.321 1.197-.165.413-.33.826-.413 1.238s-.082.826-.123 1.239c0 .536-.042 1.114 0 1.65.082.785.37 1.527.866 2.105.454.537 1.115.826 1.816.908.372 0 .702 0 1.073-.082.413-.083.785-.33 1.197-.495.207.206.413.495.62.742-.29.165-.578.33-.909.454-.825.33-1.774.372-2.641.248-.66-.124-1.238-.454-1.734-.867-.577-.495-.99-1.155-1.238-1.857a6.3 6.3 0 0 1-.289-1.486c0-.371-.082-.743 0-1.155 0-.702.124-1.445.413-2.105.289-.826.784-1.61 1.527-2.146"/><path fill-rule="evenodd" d="M19.274 0H0v19.398h19.274zM5.82 4.808a.5.5 0 0 1-.123.02c.206.372.412.744.577 1.074l.832 1.592c.574 1.101 1.141 2.19 1.727 3.278.083.124.083.289.083.413v3.714h1.362v-3.797c0-.082 0-.123.041-.206.95-1.775 1.899-3.55 2.807-5.324q.062-.122.133-.239c.091-.156.183-.312.238-.504-.372-.062-.72-.054-1.064-.046l-.34.005a398 398 0 0 1-1.052 2.084q-.525 1.034-1.052 2.084a10 10 0 0 1-.371.66 4.7 4.7 0 0 1-.413-.784c-.447-.893-.874-1.786-1.296-2.666q-.302-.633-.603-1.255-.015-.016-.026-.032c-.021-.028-.037-.05-.098-.05-.412-.041-.825-.041-1.238-.041-.041 0-.082.01-.124.02" clip-rule="evenodd"/><path d="M80.154 5.406a10 10 0 0 1 1.156-.289 18 18 0 0 0-.124 2.146c.577 0 1.197 0 1.774.042a4.5 4.5 0 0 1-.33.784h-1.527v1.98c0 .496.041 1.033 0 1.57 0 .577 0 1.196.041 1.774 0 .248.248.413.454.495.372.083.743.042 1.115-.041.082.206.124.454.124.66-.33.165-.702.207-1.074.248-.495 0-1.073-.083-1.444-.454-.289-.289-.289-.743-.33-1.114-.041-.826 0-1.693-.041-2.518V8.13h-.95v-.825h.95c.123-.66.123-1.321.206-1.899m-43.75 1.651c.29 0 .62 0 .909.083.66.206 1.238.701 1.568 1.279.29.537.495 1.114.537 1.733.041.826.082 1.651-.206 2.436-.248.742-.744 1.403-1.445 1.774-.702.372-1.527.413-2.27.207-.66-.166-1.238-.62-1.651-1.197-.413-.62-.578-1.362-.578-2.146 0-.702-.041-1.445.207-2.147a3.22 3.22 0 0 1 1.279-1.692c.289-.165.578-.33.908-.371.248.041.495.041.743.041m-.577.95c-.371.082-.743.33-.95.66-.288.495-.37 1.073-.37 1.65-.042.413 0 .826.04 1.239.083.495.166 1.032.413 1.486.248.495.785.701 1.321.742.495.042 1.032-.082 1.403-.495.29-.33.454-.701.496-1.155a6.7 6.7 0 0 0 .04-1.569c0-.536-.082-1.114-.288-1.65a1.46 1.46 0 0 0-.66-.744c-.454-.247-.95-.289-1.445-.165m5.613-.702a4.2 4.2 0 0 1 1.032-.248c.124.33.206.66.248 1.032.247-.124.412-.33.66-.454a2.9 2.9 0 0 1 1.733-.578.8.8 0 0 1 .413.124c.206.124.413.206.62.371.164.165.288.413.412.62.289-.124.495-.372.743-.537.413-.29.908-.537 1.486-.578.495-.041.99.124 1.362.454.165.165.33.33.412.537.083.206.124.412.124.66.083 1.156.041 2.352.083 3.508v2.353h-1.156V11.06c0-.742 0-1.485-.041-2.27a.98.98 0 0 0-.372-.619c-.206-.123-.495-.123-.784-.123-.454.04-.825.33-1.197.619-.165.123-.33.289-.495.412-.041.042-.041.124-.041.165v5.283h-1.156V9.41c0-.33 0-.702-.124-.991-.247-.33-.701-.413-1.073-.289-.578.124-1.073.495-1.527.908-.082.041-.082.124-.082.206v5.325h-.99c-.042-1.816 0-3.632-.083-5.448 0-.413 0-.826-.083-1.239-.041-.206-.124-.412-.124-.577m19.687-.042c.372-.04.743-.123 1.115-.206.04 1.032.04 2.064.04 3.054v4.416h-1.155V8.213c0-.29-.041-.66 0-.95m14.817-.165c.784.124 1.445.867 1.486 1.692.041 1.197 0 2.436 0 3.632v.372c0 .247 0 .495.082.701.042.248.29.372.454.496-.165.206-.288.495-.495.66-.124.124-.289 0-.371-.082-.29-.207-.454-.496-.62-.826-.247.124-.412.372-.701.495-.413.29-.908.413-1.445.413-.454 0-.908-.082-1.32-.289-.66-.371-1.032-1.114-.99-1.857 0-.702.37-1.403.907-1.816.66-.495 1.527-.66 2.353-.743.371-.041.743-.041 1.155-.041 0-.372 0-.743-.082-1.115-.041-.288-.207-.619-.495-.784a1.72 1.72 0 0 0-1.115-.124c-.701.083-1.362.372-1.94.785-.165-.207-.33-.413-.454-.66-.082-.125.042-.207.124-.248.784-.413 1.61-.785 2.518-.785h.371c.207.083.372.083.578.124m-.495 3.673c-.372.042-.702.042-1.073.124a1.87 1.87 0 0 0-1.032.743c-.124.207-.124.454-.124.702s-.041.536.083.784c.082.248.288.495.536.578.29.124.62.124.95.124.37-.042.701-.248.99-.496.248-.206.495-.454.495-.784.041-.578.041-1.197.041-1.774-.288.04-.577-.042-.866 0M87.996 7.14c.66.165 1.238.577 1.65 1.114q.495.681.62 1.486c.082.495.123 1.031.082 1.568a3.93 3.93 0 0 1-.784 2.353c-.413.536-1.073.866-1.692.99-.784.124-1.651 0-2.353-.495-.578-.413-.949-1.073-1.155-1.775-.124-.371-.124-.701-.165-1.073 0-.619 0-1.197.082-1.816.165-.66.495-1.32.99-1.816.372-.371.867-.578 1.363-.66q.743 0 1.362.124m-1.239.866c-.536.083-.99.496-1.155.99-.207.537-.207 1.115-.207 1.652s0 1.073.124 1.568c.083.372.165.702.413.99.206.29.578.455.908.496.124.041.289.041.413.041h.247a2.5 2.5 0 0 0 .784-.248c.29-.165.496-.453.62-.784.124-.371.165-.784.206-1.155 0-.454.041-.908 0-1.404s-.082-.99-.33-1.403a1.9 1.9 0 0 0-.867-.743 2.7 2.7 0 0 0-1.156 0m5.572-.66c.372-.083.702-.206 1.032-.289.206.371.206.784.248 1.156.165-.124.33-.29.495-.454.495-.496 1.238-.785 1.94-.66v.082c-.165.33-.248.701-.413 1.073 0 .082-.124.041-.165.041-.289 0-.66 0-.908.165-.289.165-.495.372-.702.62-.206.247-.165.577-.165.866 0 .413-.041.825 0 1.238v3.385h-1.155v-3.756c0-.867 0-1.692-.042-2.56-.04-.33-.123-.618-.165-.907m-27.817 0c.33-.124.701-.248 1.031-.248.124.33.207.702.248 1.032.289-.206.578-.454.867-.619.619-.371 1.362-.62 2.022-.371.413.123.784.371 1.032.742.206.248.248.62.289.908.082 1.156.041 2.27.041 3.426v2.27h-1.156c0-1.238-.04-2.518-.04-3.756 0-.701 0-1.403-.083-2.105-.124-.33-.413-.619-.785-.619-.247 0-.536 0-.784.083-.536.206-1.032.536-1.486.908v5.49h-.99c0-1.033-.041-2.065-.041-3.138s0-2.146-.083-3.219c.083-.206 0-.495-.082-.784"/></g><defs><clipPath id="a"><path fill="#fff" d="M0 0h96v19.398H0z"/></clipPath></defs></svg>