<svg xmlns="http://www.w3.org/2000/svg" width="320" height="232" fill="none" viewBox="0 0 320 232"><g filter="url(#a)"><rect width="78" height="40" x="121" y="96" fill="#0E0F10" rx="12"/><path fill="#5F43D0" d="M174.385 121v-7.14h2.058v1.302c.49-.882 1.358-1.442 2.562-1.442 1.582 0 2.45.952 2.45 2.45V121h-2.1v-4.424c0-.784-.406-1.176-1.176-1.176-.994 0-1.694.714-1.694 1.764V121zm-4.886.14c-2.352 0-3.948-1.512-3.948-3.738 0-2.212 1.582-3.682 3.948-3.682 2.38 0 3.948 1.47 3.948 3.682 0 2.226-1.596 3.738-3.948 3.738m0-1.652c.98 0 1.764-.784 1.764-2.1 0-1.288-.77-2.016-1.764-2.016s-1.764.742-1.764 2.016c0 1.316.784 2.1 1.764 2.1m-5.472 1.666c-1.834 0-2.702-.868-2.702-2.688v-3.01h-1.33v-1.596h1.33v-1.596l2.1-.784v2.38h1.848v1.596h-1.848v3.08c0 .644.35.952 1.092.952.28 0 .518-.056.756-.14v1.596c-.252.14-.7.21-1.246.21m-5.745 0c-1.834 0-2.702-.868-2.702-2.688v-3.01h-1.33v-1.596h1.33v-1.596l2.1-.784v2.38h1.848v1.596h-1.848v3.08c0 .644.35.952 1.092.952.28 0 .518-.056.756-.14v1.596c-.252.14-.7.21-1.246.21m-9.324-.014c-1.526 0-2.394-1.092-2.394-2.45v-4.83h2.1v4.424c0 .784.406 1.176 1.12 1.176.938 0 1.638-.714 1.638-1.764v-3.836h2.1V121h-2.058v-1.302c-.49.882-1.344 1.442-2.506 1.442M137.7 121v-10.08h4.69c1.792 0 2.996.98 2.996 2.548 0 1.12-.658 1.89-1.596 2.212 1.092.336 1.876 1.274 1.876 2.576 0 1.666-1.218 2.744-3.094 2.744zm4.228-8.54h-2.072v2.492h2.03c.882 0 1.344-.42 1.344-1.246s-.448-1.246-1.302-1.246m.07 4.032h-2.142v2.968h2.212c.924 0 1.414-.546 1.414-1.456 0-.938-.532-1.512-1.484-1.512"/></g><defs><filter id="a" width="118" height="80" x="101" y="88" color-interpolation-filters="sRGB" filterUnits="userSpaceOnUse"><feFlood flood-opacity="0" result="BackgroundImageFix"/><feColorMatrix in="SourceAlpha" result="hardAlpha" values="0 0 0 0 0 0 0 0 0 0 0 0 0 0 0 0 0 0 127 0"/><feOffset dy="12"/><feGaussianBlur stdDeviation="10"/><feComposite in2="hardAlpha" operator="out"/><feColorMatrix values="0 0 0 0 0 0 0 0 0 0 0 0 0 0 0 0 0 0 0.03 0"/><feBlend in2="BackgroundImageFix" result="effect1_dropShadow_10159_2493"/><feColorMatrix in="SourceAlpha" result="hardAlpha" values="0 0 0 0 0 0 0 0 0 0 0 0 0 0 0 0 0 0 127 0"/><feOffset dy="2"/><feGaussianBlur stdDeviation="3"/><feComposite in2="hardAlpha" operator="out"/><feColorMatrix values="0 0 0 0 0 0 0 0 0 0 0 0 0 0 0 0 0 0 0.05 0"/><feBlend in2="effect1_dropShadow_10159_2493" result="effect2_dropShadow_10159_2493"/><feBlend in="SourceGraphic" in2="effect2_dropShadow_10159_2493" result="shape"/></filter></defs></svg>