<svg width="320" height="232" viewBox="0 0 320 232" fill="none" xmlns="http://www.w3.org/2000/svg">
<g filter="url(#filter0_dd_10159_2616)">
<rect x="79" y="98" width="36" height="36" rx="10" fill="#0E0F10"/>
<path d="M91.75 116H97.4342C99.2655 116 100.75 114.489 100.75 112.625C100.75 110.761 99.2655 109.25 97.4342 109.25H94C92.9393 109.25 92.409 109.25 92.0795 109.58C91.75 109.909 91.75 110.439 91.75 111.5V116ZM91.75 116V120.5C91.75 121.561 91.75 122.091 92.0795 122.421C92.409 122.75 92.9393 122.75 94 122.75H98.25C100.045 122.75 101.5 121.239 101.5 119.375C101.5 117.511 100.045 116 98.25 116H97.3215" stroke="#5F43D0" stroke-width="2" stroke-linecap="round" stroke-linejoin="round"/>
<rect x="121" y="98" width="36" height="36" rx="10" fill="#0E0F10"/>
<path d="M134.125 109.25V115.625C134.125 118.317 136.308 120.5 139 120.5C141.692 120.5 143.875 118.317 143.875 115.625V109.25" stroke="#5F43D0" stroke-width="2" stroke-linecap="round" stroke-linejoin="round"/>
<path d="M132.25 122.75H145.75" stroke="#5F43D0" stroke-width="2" stroke-linecap="round"/>
<rect x="163" y="98" width="36" height="36" rx="10" fill="#0E0F10"/>
<path d="M181 110H186.25" stroke="#5F43D0" stroke-width="2" stroke-linecap="round"/>
<path d="M178 122L184 110" stroke="#5F43D0" stroke-width="2" stroke-linecap="round"/>
<path d="M175.75 122H181" stroke="#5F43D0" stroke-width="2" stroke-linecap="round"/>
<rect x="205" y="98" width="36" height="36" rx="10" fill="#0E0F10"/>
<path d="M222.25 122.001H217.75" stroke="#5F43D0" stroke-width="2" stroke-linecap="round" stroke-linejoin="round"/>
<path d="M216.25 109.25L229.75 122.75" stroke="#5F43D0" stroke-width="2" stroke-linecap="round" stroke-linejoin="round"/>
<path d="M228.25 112.25C228.25 111.776 228.25 111.465 228.19 111.258C228.064 110.825 227.73 110.453 227.316 110.283C227.116 110.202 226.891 110.179 226.441 110.132C225.377 110.023 224.041 110 223 110H220" stroke="#5F43D0" stroke-width="2" stroke-linecap="round"/>
<path d="M223 110L222.4 112.4M220 122.001L221.8 114.8" stroke="#5F43D0" stroke-width="2" stroke-linecap="round" stroke-linejoin="round"/>
</g>
<defs>
<filter id="filter0_dd_10159_2616" x="59" y="90" width="202" height="76" filterUnits="userSpaceOnUse" color-interpolation-filters="sRGB">
<feFlood flood-opacity="0" result="BackgroundImageFix"/>
<feColorMatrix in="SourceAlpha" type="matrix" values="0 0 0 0 0 0 0 0 0 0 0 0 0 0 0 0 0 0 127 0" result="hardAlpha"/>
<feOffset dy="12"/>
<feGaussianBlur stdDeviation="10"/>
<feComposite in2="hardAlpha" operator="out"/>
<feColorMatrix type="matrix" values="0 0 0 0 0 0 0 0 0 0 0 0 0 0 0 0 0 0 0.03 0"/>
<feBlend mode="normal" in2="BackgroundImageFix" result="effect1_dropShadow_10159_2616"/>
<feColorMatrix in="SourceAlpha" type="matrix" values="0 0 0 0 0 0 0 0 0 0 0 0 0 0 0 0 0 0 127 0" result="hardAlpha"/>
<feOffset dy="2"/>
<feGaussianBlur stdDeviation="3"/>
<feComposite in2="hardAlpha" operator="out"/>
<feColorMatrix type="matrix" values="0 0 0 0 0 0 0 0 0 0 0 0 0 0 0 0 0 0 0.05 0"/>
<feBlend mode="normal" in2="effect1_dropShadow_10159_2616" result="effect2_dropShadow_10159_2616"/>
<feBlend mode="normal" in="SourceGraphic" in2="effect2_dropShadow_10159_2616" result="shape"/>
</filter>
</defs>
</svg>
