<svg xmlns="http://www.w3.org/2000/svg" width="320" height="232" fill="none" viewBox="0 0 320 232"><path fill="#5F43D0" fill-rule="evenodd" d="M159.876 98.5h.248c3.627 0 6.518 0 8.785.305 2.341.314 4.264.981 5.784 2.502 1.521 1.521 2.188 3.444 2.502 5.784.305 2.267.305 5.158.305 8.785v.248c0 3.627 0 6.518-.305 8.785-.314 2.341-.981 4.264-2.502 5.784-1.52 1.521-3.443 2.188-5.784 2.502-2.267.305-5.158.305-8.785.305h-.248c-3.627 0-6.518 0-8.785-.305-2.34-.314-4.263-.981-5.784-2.502s-2.188-3.443-2.502-5.784c-.305-2.267-.305-5.158-.305-8.785v-.248c0-3.627 0-6.518.305-8.785.314-2.34.981-4.263 2.502-5.784s3.444-2.188 5.784-2.502c2.267-.305 5.158-.305 8.785-.305" clip-rule="evenodd" opacity=".4"/><path fill="#5F43D0" fill-rule="evenodd" d="M167.5 105.167a3.333 3.333 0 1 0 0 6.665 3.333 3.333 0 0 0 0-6.665m3.136 18.75a11.4 11.4 0 0 1 3.262.477l-.009.071c-.265 1.971-.758 3.073-1.556 3.871s-1.9 1.291-3.871 1.556q-.657.088-1.415.141a18.1 18.1 0 0 0-2.713-4.337c2.069-1.2 4.194-1.788 6.302-1.779m-24.777-3.316c.033 1.52.101 2.784.246 3.864.265 1.971.758 3.073 1.556 3.871s1.9 1.291 3.871 1.556c2.019.271 4.686.275 8.465.275 1.64 0 3.071-.001 4.33-.024-1.182-2.262-2.967-4.288-5.254-5.897-3.469-2.441-7.848-3.747-12.357-3.658h-.028q-.415-.002-.829.013" clip-rule="evenodd"/></svg>