<svg xmlns="http://www.w3.org/2000/svg" width="320" height="232" fill="none" viewBox="0 0 320 232"><path fill="#5F43D0" d="M177.067 112.299c-.007-.609-.011-.914-.206-1.107s-.502-.192-1.117-.192h-31.493c-.615 0-.923 0-1.117.192-.195.193-.199.498-.206 1.107-.014 1.107-.014 2.307-.014 3.606v.19c0 3.651 0 6.519.301 8.758.309 2.294.954 4.115 2.384 5.545 1.43 1.431 3.251 2.076 5.545 2.384 2.239.301 5.107.301 8.758.301h.191c3.651 0 6.519 0 8.758-.301 2.294-.308 4.115-.953 5.545-2.384 1.43-1.43 2.075-3.251 2.384-5.545.301-2.239.301-5.107.301-8.758v-.19c0-1.299 0-2.499-.014-3.606" opacity=".4"/><path fill="#5F43D0" d="M154.26 98.976c.528-.02.792-.03.893.141s-.035.399-.306.857l-4.083 6.876c-.237.398-.355.597-.546.707s-.424.109-.887.109H143.9c-.35 0-.525 0-.625-.116s-.074-.285-.024-.622c.292-1.963.914-3.889 2.352-5.328 1.431-1.43 3.251-2.075 5.546-2.383a33 33 0 0 1 3.111-.24m6.045-.063c-.462.001-.693.002-.883.11s-.309.306-.546.7l-4.159 6.932c-.269.448-.403.671-.307.841.095.169.356.169.879.169h5.751c.459 0 .689 0 .879-.108.191-.107.31-.304.547-.696l3.877-6.409c.381-.63.571-.944.436-1.195-.136-.252-.498-.266-1.223-.293-1.749-.066-3.502-.056-5.251-.051m11.646 1.075c-.509-.21-.764-.315-1.056-.22-.291.094-.453.357-.777.883l-3.69 5.998c-.277.449-.415.674-.32.845.096.171.36.171.888.171h9.105c.35 0 .525 0 .625-.116s.074-.285.024-.622c-.291-1.963-.914-3.889-2.352-5.328a7.4 7.4 0 0 0-2.447-1.611m-7.029 20.836c-.253 1.044-1.446 1.782-3.832 3.259-2.307 1.427-3.46 2.14-4.39 1.853a2.3 2.3 0 0 1-1.017-.654c-.683-.75-.683-2.206-.683-5.116 0-2.911 0-4.367.683-5.117a2.3 2.3 0 0 1 1.017-.654c.93-.287 2.083.427 4.39 1.854 2.386 1.476 3.579 2.214 3.832 3.259.104.431.104.884 0 1.316"/></svg>