<svg xmlns="http://www.w3.org/2000/svg" width="320" height="232" fill="none" viewBox="0 0 320 232"><g filter="url(#a)"><rect width="160" height="62" x="80" y="85" fill="#0E0F10" rx="12"/><g clip-path="url(#b)"><path fill="#5F43D0" fill-rule="evenodd" d="M120.701 105.194c-1.442-.194-3.289-.194-5.64-.194h-.122c-2.351 0-4.198 0-5.64.194-1.477.198-2.649.614-3.57 1.535s-1.337 2.093-1.535 3.57c-.194 1.442-.194 3.289-.194 5.64v.122c0 2.351 0 4.198.194 5.64.198 1.477.614 2.649 1.535 3.57s2.093 1.337 3.57 1.535c1.442.194 3.289.194 5.64.194h.122c2.351 0 4.198 0 5.64-.194 1.477-.198 2.649-.614 3.57-1.535s1.337-2.093 1.535-3.57c.194-1.442.194-3.289.194-5.64v-.122c0-2.351 0-4.198-.194-5.64-.198-1.477-.614-2.649-1.535-3.57s-2.093-1.337-3.57-1.535m-2.109 9.473a1.074 1.074 0 0 1 1.401-1.626l1.317 1.134.039.035c.242.208.498.429.686.641.212.239.477.619.477 1.149s-.265.91-.477 1.149a7 7 0 0 1-.686.641l-.039.035-1.317 1.134a1.072 1.072 0 1 1-1.401-1.625l1.316-1.135.23-.199-.23-.199zm-7.072-1.514a1.074 1.074 0 0 1-.112 1.514l-1.316 1.134-.23.199.23.199 1.316 1.135a1.072 1.072 0 1 1-1.401 1.625l-1.317-1.134-.039-.035a7 7 0 0 1-.686-.641c-.212-.239-.477-.619-.477-1.149s.265-.91.477-1.149c.188-.212.444-.433.686-.641l.039-.035 1.317-1.134a1.07 1.07 0 0 1 1.513.112m5.572-.033a1.073 1.073 0 0 0-2.037-.679l-2.146 6.439a1.074 1.074 0 0 0 2.036.679z" clip-rule="evenodd"/></g><rect width="74" height="10" x="142" y="111" fill="#2F1C78" rx="5"/></g><defs><clipPath id="b"><path fill="#fff" d="M104 105h22v22h-22z"/></clipPath><filter id="a" width="200" height="102" x="60" y="77" color-interpolation-filters="sRGB" filterUnits="userSpaceOnUse"><feFlood flood-opacity="0" result="BackgroundImageFix"/><feColorMatrix in="SourceAlpha" result="hardAlpha" values="0 0 0 0 0 0 0 0 0 0 0 0 0 0 0 0 0 0 127 0"/><feOffset dy="12"/><feGaussianBlur stdDeviation="10"/><feComposite in2="hardAlpha" operator="out"/><feColorMatrix values="0 0 0 0 0 0 0 0 0 0 0 0 0 0 0 0 0 0 0.03 0"/><feBlend in2="BackgroundImageFix" result="effect1_dropShadow_10186_36986"/><feColorMatrix in="SourceAlpha" result="hardAlpha" values="0 0 0 0 0 0 0 0 0 0 0 0 0 0 0 0 0 0 127 0"/><feOffset dy="2"/><feGaussianBlur stdDeviation="3"/><feComposite in2="hardAlpha" operator="out"/><feColorMatrix values="0 0 0 0 0 0 0 0 0 0 0 0 0 0 0 0 0 0 0.05 0"/><feBlend in2="effect1_dropShadow_10186_36986" result="effect2_dropShadow_10186_36986"/><feBlend in="SourceGraphic" in2="effect2_dropShadow_10186_36986" result="shape"/></filter></defs></svg>