<svg xmlns="http://www.w3.org/2000/svg" width="320" height="232" fill="none" viewBox="0 0 320 232"><g filter="url(#a)"><mask id="b" fill="#fff"><path d="M113 115.2c0-6.721 0-10.081 1.308-12.648a12 12 0 0 1 5.244-5.244C122.119 96 125.479 96 132.2 96h55.6c6.721 0 10.081 0 12.648 1.308a12 12 0 0 1 5.244 5.244C207 105.119 207 108.479 207 115.2v1.6c0 6.721 0 10.081-1.308 12.648a12 12 0 0 1-5.244 5.244C197.881 136 194.521 136 187.8 136h-55.6c-6.721 0-10.081 0-12.648-1.308a12 12 0 0 1-5.244-5.244C113 126.881 113 123.521 113 116.8z"/></mask><path fill="#0E0F10" d="M113 115.2c0-6.721 0-10.081 1.308-12.648a12 12 0 0 1 5.244-5.244C122.119 96 125.479 96 132.2 96h55.6c6.721 0 10.081 0 12.648 1.308a12 12 0 0 1 5.244 5.244C207 105.119 207 108.479 207 115.2v1.6c0 6.721 0 10.081-1.308 12.648a12 12 0 0 1-5.244 5.244C197.881 136 194.521 136 187.8 136h-55.6c-6.721 0-10.081 0-12.648-1.308a12 12 0 0 1-5.244-5.244C113 126.881 113 123.521 113 116.8z"/><path fill="#5F43D0" d="M113 96h94zm94 28c0 8.284-6.716 15-15 15h-64c-8.284 0-15-6.716-15-15 0 4.971 5.373 9 12 9h70c6.627 0 12-4.029 12-9m-94 12V96zm94-40v40z" mask="url(#b)"/><path fill="#5F43D0" d="M130.678 121.126c-2.618 0-4.242-1.218-4.508-3.346h2.072c.126 1.078 1.106 1.75 2.534 1.75 1.162 0 1.806-.434 1.806-1.134 0-.644-.336-1.022-1.246-1.274l-1.876-.518c-1.932-.532-2.772-1.456-2.772-2.884 0-1.82 1.498-2.954 3.794-2.954 2.352 0 3.822 1.204 4.004 3.038h-2.072c-.182-.98-.938-1.442-2.058-1.442-.98 0-1.596.406-1.596 1.036 0 .49.224.896 1.232 1.176l1.876.518c1.974.546 2.786 1.47 2.786 2.898 0 2.016-1.47 3.136-3.976 3.136m4.954-.126v-10.08h2.1v4.172c.504-.84 1.344-1.372 2.52-1.372 1.582 0 2.45.952 2.45 2.45V121h-2.1v-4.424c0-.784-.406-1.176-1.176-1.176-.994 0-1.694.714-1.694 1.764V121zm8.341-8.092v-2.268h2.24v2.268zm.07 8.092v-7.14h2.1V121zm4.048 0v-5.544h-1.19v-1.596h1.19v-.476c0-1.722.938-2.604 2.772-2.604.392 0 .658.042.938.126v1.61c-.14-.056-.322-.084-.574-.084-.714 0-1.036.35-1.036.98v.448h1.456v1.596h-1.456V121zm7.999.154c-1.834 0-2.702-.868-2.702-2.688v-3.01h-1.33v-1.596h1.33v-1.596l2.1-.784v2.38h1.848v1.596h-1.848v3.08c0 .644.35.952 1.092.952.28 0 .518-.056.756-.14v1.596c-.252.14-.7.21-1.246.21m7.061-2.016v-2.576h-2.38v-1.512h2.38v-2.59h1.568v2.59h2.366v1.512h-2.366v2.576zM173.724 121v-8.428h-3.29v-1.652h8.736v1.652h-3.29V121zm6.67.14c-1.414 0-2.324-.77-2.324-1.974 0-1.33 1.05-2.142 2.842-2.394l1.764-.252v-.364c0-.574-.392-.924-1.134-.924-.714 0-1.134.252-1.26.714h-2.002c.182-1.288 1.344-2.226 3.332-2.226 2.044 0 3.164.938 3.164 2.66v3.15c0 .476.056.924.21 1.47h-2.1c-.098-.336-.14-.7-.154-1.162-.448.854-1.26 1.302-2.338 1.302m-.224-2.254c0 .462.364.714.924.714.882 0 1.582-.56 1.582-1.19v-.658l-1.414.21c-.756.112-1.092.406-1.092.924m10.399 2.254c-1.162 0-1.988-.49-2.296-1.33V121h-2.058v-10.08h2.1v4.088c.35-.798 1.204-1.288 2.366-1.288 1.918 0 3.15 1.442 3.15 3.682 0 2.268-1.288 3.738-3.262 3.738m-.588-1.68c.98 0 1.666-.742 1.666-2.044s-.686-2.016-1.694-2.016c-.98 0-1.666.728-1.666 2.03s.686 2.03 1.694 2.03"/></g><defs><filter id="a" width="134" height="80" x="93" y="88" color-interpolation-filters="sRGB" filterUnits="userSpaceOnUse"><feFlood flood-opacity="0" result="BackgroundImageFix"/><feColorMatrix in="SourceAlpha" result="hardAlpha" values="0 0 0 0 0 0 0 0 0 0 0 0 0 0 0 0 0 0 127 0"/><feOffset dy="12"/><feGaussianBlur stdDeviation="10"/><feComposite in2="hardAlpha" operator="out"/><feColorMatrix values="0 0 0 0 0 0 0 0 0 0 0 0 0 0 0 0 0 0 0.03 0"/><feBlend in2="BackgroundImageFix" result="effect1_dropShadow_10186_37111"/><feColorMatrix in="SourceAlpha" result="hardAlpha" values="0 0 0 0 0 0 0 0 0 0 0 0 0 0 0 0 0 0 127 0"/><feOffset dy="2"/><feGaussianBlur stdDeviation="3"/><feComposite in2="hardAlpha" operator="out"/><feColorMatrix values="0 0 0 0 0 0 0 0 0 0 0 0 0 0 0 0 0 0 0.05 0"/><feBlend in2="effect1_dropShadow_10186_37111" result="effect2_dropShadow_10186_37111"/><feBlend in="SourceGraphic" in2="effect2_dropShadow_10186_37111" result="shape"/></filter></defs></svg>