<svg xmlns="http://www.w3.org/2000/svg" width="320" height="232" fill="none" viewBox="0 0 320 232"><g filter="url(#a)"><rect width="160" height="62" x="80" y="85" fill="#0E0F10" rx="12"/><path fill="#5F43D0" fill-rule="evenodd" d="M118.809 115.191a4.07 4.07 0 0 0-5.631-.116 1 1 0 1 1-1.356-1.47 6.067 6.067 0 0 1 8.401 8.752l-2.866 2.866a6.068 6.068 0 0 1-8.58-8.58l.464-.464a1 1 0 1 1 1.415 1.414l-.465.464a4.068 4.068 0 0 0 5.752 5.752l2.866-2.866a4.07 4.07 0 0 0 0-5.752" clip-rule="evenodd"/><path fill="#5F43D0" fill-rule="evenodd" d="M119.809 108.191a4.07 4.07 0 0 0-5.752 0l-2.866 2.866a4.068 4.068 0 0 0 5.631 5.868 1 1 0 1 1 1.356 1.47 6.067 6.067 0 0 1-8.401-8.752l2.866-2.866a6.068 6.068 0 0 1 8.58 8.58l-.464.464a.999.999 0 1 1-1.414-1.414l.464-.464a4.07 4.07 0 0 0 0-5.752" clip-rule="evenodd"/><rect width="74" height="10" x="142" y="111" fill="#2F1C78" rx="5"/></g><defs><filter id="a" width="200" height="102" x="60" y="77" color-interpolation-filters="sRGB" filterUnits="userSpaceOnUse"><feFlood flood-opacity="0" result="BackgroundImageFix"/><feColorMatrix in="SourceAlpha" result="hardAlpha" values="0 0 0 0 0 0 0 0 0 0 0 0 0 0 0 0 0 0 127 0"/><feOffset dy="12"/><feGaussianBlur stdDeviation="10"/><feComposite in2="hardAlpha" operator="out"/><feColorMatrix values="0 0 0 0 0 0 0 0 0 0 0 0 0 0 0 0 0 0 0.03 0"/><feBlend in2="BackgroundImageFix" result="effect1_dropShadow_10186_37150"/><feColorMatrix in="SourceAlpha" result="hardAlpha" values="0 0 0 0 0 0 0 0 0 0 0 0 0 0 0 0 0 0 127 0"/><feOffset dy="2"/><feGaussianBlur stdDeviation="3"/><feComposite in2="hardAlpha" operator="out"/><feColorMatrix values="0 0 0 0 0 0 0 0 0 0 0 0 0 0 0 0 0 0 0.05 0"/><feBlend in2="effect1_dropShadow_10186_37150" result="effect2_dropShadow_10186_37150"/><feBlend in="SourceGraphic" in2="effect2_dropShadow_10186_37150" result="shape"/></filter></defs></svg>