<svg xmlns="http://www.w3.org/2000/svg" width="320" height="232" fill="none" viewBox="0 0 320 232"><path fill="#5F43D0" fill-rule="evenodd" d="M165.118 103.222a1 1 0 0 0 .104 1.411l1.84 1.585c.366.316.587.508.728.657-.141.149-.362.341-.728.657l-1.84 1.586a1 1 0 0 0 1.306 1.515l1.84-1.586.043-.038c.349-.3.684-.589.923-.859.262-.296.541-.713.541-1.275s-.279-.979-.541-1.275c-.239-.27-.574-.558-.923-.859l-.043-.038-1.84-1.585a1 1 0 0 0-1.41.104m-2.486 0a1 1 0 0 1-.104 1.411l-1.84 1.585c-.366.316-.587.508-.728.657.141.149.362.341.728.657l1.84 1.586a1 1 0 0 1-1.306 1.515l-1.84-1.586-.043-.038c-.349-.3-.684-.589-.923-.859-.262-.296-.541-.713-.541-1.275s.279-.979.541-1.275c.239-.27.574-.558.923-.859l.043-.038 1.84-1.585a1 1 0 0 1 1.41.104" clip-rule="evenodd"/><path fill="#5F43D0" d="M154.812 110.522c.982.103.545.103 2.086.103a.978.978 0 0 0 0-1.955c-1.609 0-1.015-.001-1.885-.092-.854-.089-1.337-.256-1.695-.509a3 3 0 0 1-.632-.596c-.255-.323-.425-.755-.517-1.542-.095-.81-.097-1.867-.097-3.391v-2.9c0-.267 0-.906.281-1.378.173-.29.394-.534.622-.658.366-.2.787-.312 1.233-.312l1.041.036c.38.008.823-.004 1.251-.119a2.42 2.42 0 0 0 1.709-1.709c.115-.428.127-.871.119-1.251l-.036-1.04c0-.469.124-.876.341-1.254.127-.22.348-.422.653-.6.462-.269 1.015-.271 1.353-.273l.993-.002c1.834 0 2.501.014 3.005.19.872.308 1.538.95 1.848 1.735.078.197.133.455.162.903.03.457.031 1.04.031 1.88v5.113a.974.974 0 1 0 1.947 0v-5.146c0-.8 0-1.447-.035-1.975-.036-.545-.111-1.03-.294-1.495-.529-1.339-1.638-2.373-3.014-2.858-.859-.303-2.331-.303-3.886-.302-2.84 0-4.526 0-5.909.487-2.22.782-3.994 2.445-4.837 4.58-.281.713-.406 1.477-.466 2.394-.059.9-.059 2.013-.059 3.432v2.583c0 1.448 0 2.621.11 3.558.114.974.357 1.812.927 2.531.295.372.644.701 1.034.977.745.527 1.606.75 2.616.855" opacity=".4"/><path fill="#5F43D0" d="M111.986 138v-8.8h1.952v1.776h.544l-.592.48q0-1.12.656-1.76.672-.656 1.824-.656 1.344 0 2.096.864.753.864.752 2.416v.832h-2v-.736q0-.816-.416-1.232t-1.184-.416q-.784 0-1.216.48-.416.48-.416 1.36V138zm7.978 0 3.072-4.544-2.864-4.256h2.256l1.36 2.16q.128.192.224.432.112.24.176.384.064-.144.176-.384t.224-.432l1.36-2.16h2.272l-2.864 4.256 3.056 4.544h-2.272l-1.52-2.416a5 5 0 0 1-.24-.448 7 7 0 0 0-.192-.384l-.176.384q-.112.24-.24.448L122.236 138zm13.178.16q-.672 0-1.088-.4-.4-.416-.4-1.072 0-.672.4-1.072.416-.416 1.088-.416t1.072.416q.416.4.416 1.072 0 .656-.416 1.072-.4.4-1.072.4m4.906-.16v-8.8h1.664v1.28h.336l-.304.224q0-.736.4-1.2t1.072-.464q.72 0 1.168.56.464.544.464 1.424l-.384-.576h.544l-.256.256q.015-.768.432-1.216.415-.448 1.104-.448.816 0 1.328.624.528.624.528 1.632V138h-1.76v-6.56q0-.432-.208-.672-.192-.256-.56-.256a.64.64 0 0 0-.544.256q-.176.24-.176.672V138h-1.6v-6.56q0-.432-.192-.672-.177-.256-.528-.256-.369 0-.576.256-.192.24-.192.672V138zm12.025.16q-1.344 0-2.128-.752-.768-.768-.768-2 0-.864.4-1.488a2.6 2.6 0 0 1 1.136-.96q.752-.352 1.76-.352h2.144v-.624q0-.64-.4-.976-.384-.352-1.152-.352-.704 0-1.136.272a.95.95 0 0 0-.448.768h-1.92q.065-1.2.992-1.92.945-.736 2.528-.736 1.68 0 2.608.784t.928 2.208V138h-1.952v-1.68h-.32l.352-.288q0 .656-.32 1.136-.32.464-.912.736-.591.256-1.392.256m.64-1.632q.88 0 1.392-.432.513-.432.512-1.152v-1.04h-2.048q-.656 0-1.04.368-.384.352-.384.944 0 .593.4.96.417.352 1.168.352m6.042 1.472v-8.8h1.952v1.776h.544l-.592.48q0-1.12.656-1.76.672-.656 1.824-.656 1.344 0 2.096.864t.752 2.416v.832h-2v-.736q0-.816-.416-1.232t-1.184-.416q-.784 0-1.216.48-.416.48-.416 1.36V138zm8.714 0v-11.68h2v6.336h1.408l2.096-3.456h2.224l-2.608 4.256 2.704 4.544h-2.272l-2.144-3.648h-1.408V138zm11.642.16q-1.28 0-2.08-.912-.784-.912-.784-2.448v-2.384q0-1.552.784-2.464.8-.912 2.08-.912 1.183 0 1.872.752.687.737.688 2.016l-.592-.832h.464l-.064-2.192v-2.464h2V138h-1.952v-1.776h-.448l.576-.832q0 1.28-.688 2.032-.672.736-1.856.736m.752-1.728q.767 0 1.184-.464.432-.464.432-1.312v-2.112q0-.848-.432-1.312-.417-.464-1.184-.464-.768 0-1.2.416-.416.416-.416 1.28v2.272q0 .848.416 1.28.432.416 1.2.416m9.001 1.712q-1.12 0-1.952-.432a3.07 3.07 0 0 1-1.28-1.216q-.447-.8-.448-1.872v-2.048q0-1.087.448-1.872a3.07 3.07 0 0 1 1.28-1.216q.833-.432 1.952-.432 1.136 0 1.952.432.833.432 1.28 1.216t.448 1.872v2.048q0 1.073-.448 1.872a3.06 3.06 0 0 1-1.28 1.216q-.816.432-1.952.432m0-1.744q.8 0 1.232-.432.448-.448.448-1.28v-2.176q0-.848-.448-1.28-.432-.432-1.232-.432-.783 0-1.232.432-.447.432-.448 1.28v2.176q0 .832.448 1.28.449.432 1.232.432m5.786 1.6-1.376-8.8h1.584l.784 5.392q.064.496.112 1.072l.08.96q.032-.384.064-.96.048-.576.144-1.072l.96-5.392h1.664l.928 5.392q.096.496.144 1.088.065.576.096.96.032-.384.064-.96a14 14 0 0 1 .128-1.088l.8-5.392h1.536l-1.408 8.8h-2.064l-.832-5.424-.144-1.04a52 52 0 0 1-.096-.944q0 .24-.048.592l-.096.72q-.048.368-.096.672l-.864 5.424zm8.554 0v-8.8h1.952v1.68h.544l-.592.464q.017-1.056.672-1.68.656-.624 1.744-.624 1.296 0 2.064.864.784.864.784 2.32V138h-2v-5.536q0-.816-.416-1.248-.415-.448-1.152-.448-.752 0-1.184.448-.416.448-.416 1.28V138z"/></svg>