<svg width="320" height="232" viewBox="0 0 320 232" fill="none" xmlns="http://www.w3.org/2000/svg">
<g filter="url(#filter0_dd_10186_37278)">
<rect x="112" y="96" width="96" height="40" rx="12" fill="#0E0F10"/>
<path d="M178 123L179.875 118.625M190 123L188.125 118.625M179.875 118.625L183.081 111.145C183.427 110.337 184.573 110.337 184.919 111.145L188.125 118.625M179.875 118.625H188.125" stroke="#4329AC" stroke-width="1.5" stroke-linecap="round"/>
<path d="M130 123L131.875 118.625M142 123L140.125 118.625M131.875 118.625L135.081 111.145C135.427 110.337 136.573 110.337 136.919 111.145L140.125 118.625M131.875 118.625H140.125" stroke="#4329AC" stroke-width="1.5" stroke-linecap="round"/>
<path d="M154 123L155.875 118.625M166 123L164.125 118.625M155.875 118.625L159.081 111.145C159.427 110.337 160.573 110.337 160.919 111.145L164.125 118.625M155.875 118.625H164.125" stroke="#5F43D0" stroke-width="3" stroke-linecap="round"/>
</g>
<defs>
<filter id="filter0_dd_10186_37278" x="92" y="88" width="136" height="80" filterUnits="userSpaceOnUse" color-interpolation-filters="sRGB">
<feFlood flood-opacity="0" result="BackgroundImageFix"/>
<feColorMatrix in="SourceAlpha" type="matrix" values="0 0 0 0 0 0 0 0 0 0 0 0 0 0 0 0 0 0 127 0" result="hardAlpha"/>
<feOffset dy="12"/>
<feGaussianBlur stdDeviation="10"/>
<feComposite in2="hardAlpha" operator="out"/>
<feColorMatrix type="matrix" values="0 0 0 0 0 0 0 0 0 0 0 0 0 0 0 0 0 0 0.03 0"/>
<feBlend mode="normal" in2="BackgroundImageFix" result="effect1_dropShadow_10186_37278"/>
<feColorMatrix in="SourceAlpha" type="matrix" values="0 0 0 0 0 0 0 0 0 0 0 0 0 0 0 0 0 0 127 0" result="hardAlpha"/>
<feOffset dy="2"/>
<feGaussianBlur stdDeviation="3"/>
<feComposite in2="hardAlpha" operator="out"/>
<feColorMatrix type="matrix" values="0 0 0 0 0 0 0 0 0 0 0 0 0 0 0 0 0 0 0.05 0"/>
<feBlend mode="normal" in2="effect1_dropShadow_10186_37278" result="effect2_dropShadow_10186_37278"/>
<feBlend mode="normal" in="SourceGraphic" in2="effect2_dropShadow_10186_37278" result="shape"/>
</filter>
</defs>
</svg>
