<svg xmlns="http://www.w3.org/2000/svg" width="320" height="232" fill="none" viewBox="0 0 320 232"><g filter="url(#a)"><rect width="96" height="40" x="112" y="96" fill="#0E0F10" rx="12"/><path stroke="#4329AC" stroke-linecap="round" stroke-width="1.5" d="m178 123 1.875-4.375M190 123l-1.875-4.375m-8.25 0 3.206-7.48c.346-.808 1.492-.808 1.838 0l3.206 7.48m-8.25 0h8.25M130 123l1.875-4.375M142 123l-1.875-4.375m-8.25 0 3.206-7.48c.346-.808 1.492-.808 1.838 0l3.206 7.48m-8.25 0h8.25"/><path stroke="#5F43D0" stroke-linecap="round" stroke-width="3" d="m154 123 1.875-4.375M166 123l-1.875-4.375m-8.25 0 3.206-7.48c.346-.808 1.492-.808 1.838 0l3.206 7.48m-8.25 0h8.25"/></g><defs><filter id="a" width="136" height="80" x="92" y="88" color-interpolation-filters="sRGB" filterUnits="userSpaceOnUse"><feFlood flood-opacity="0" result="BackgroundImageFix"/><feColorMatrix in="SourceAlpha" result="hardAlpha" values="0 0 0 0 0 0 0 0 0 0 0 0 0 0 0 0 0 0 127 0"/><feOffset dy="12"/><feGaussianBlur stdDeviation="10"/><feComposite in2="hardAlpha" operator="out"/><feColorMatrix values="0 0 0 0 0 0 0 0 0 0 0 0 0 0 0 0 0 0 0.03 0"/><feBlend in2="BackgroundImageFix" result="effect1_dropShadow_10186_37278"/><feColorMatrix in="SourceAlpha" result="hardAlpha" values="0 0 0 0 0 0 0 0 0 0 0 0 0 0 0 0 0 0 127 0"/><feOffset dy="2"/><feGaussianBlur stdDeviation="3"/><feComposite in2="hardAlpha" operator="out"/><feColorMatrix values="0 0 0 0 0 0 0 0 0 0 0 0 0 0 0 0 0 0 0.05 0"/><feBlend in2="effect1_dropShadow_10186_37278" result="effect2_dropShadow_10186_37278"/><feBlend in="SourceGraphic" in2="effect2_dropShadow_10186_37278" result="shape"/></filter></defs></svg>