<svg width="1028" height="478" viewBox="0 0 1028 478" fill="none" xmlns="http://www.w3.org/2000/svg">
<g clip-path="url(#clip0_13685_23900)">
<mask id="mask0_13685_23900" style="mask-type:alpha" maskUnits="userSpaceOnUse" x="0" y="0" width="1028" height="478">
<g clip-path="url(#clip1_13685_23900)">
<line x1="514.5" y1="-2.18557e-08" x2="514.5" y2="478" stroke="#222326"/>
<line x1="546.5" y1="-2.18557e-08" x2="546.5" y2="478" stroke="#222326"/>
<line x1="578.5" y1="-2.18557e-08" x2="578.5" y2="478" stroke="#222326"/>
<line x1="610.5" y1="-2.18557e-08" x2="610.5" y2="478" stroke="#222326"/>
<line x1="642.5" y1="-2.18557e-08" x2="642.5" y2="478" stroke="#222326"/>
<line x1="674.5" y1="-2.18557e-08" x2="674.5" y2="478" stroke="#222326"/>
<line x1="706.5" y1="-2.18557e-08" x2="706.5" y2="478" stroke="#222326"/>
<line x1="738.5" y1="-2.18557e-08" x2="738.5" y2="478" stroke="#222326"/>
<line x1="770.5" y1="-2.18557e-08" x2="770.5" y2="478" stroke="#222326"/>
<line x1="802.5" y1="-2.18557e-08" x2="802.5" y2="478" stroke="#222326"/>
<line x1="834.5" y1="-2.18557e-08" x2="834.5" y2="478" stroke="#222326"/>
<line x1="866.5" y1="-2.18557e-08" x2="866.5" y2="478" stroke="#222326"/>
<line x1="898.5" y1="-2.18557e-08" x2="898.5" y2="478" stroke="#222326"/>
<line x1="930.5" y1="-2.18557e-08" x2="930.5" y2="478" stroke="#222326"/>
<line x1="962.5" y1="-2.18557e-08" x2="962.5" y2="478" stroke="#222326"/>
<line x1="994.5" y1="-2.18557e-08" x2="994.5" y2="478" stroke="#222326"/>
<line x1="482.5" y1="-2.18557e-08" x2="482.5" y2="478" stroke="#222326"/>
<line x1="450.5" y1="-2.18557e-08" x2="450.5" y2="478" stroke="#222326"/>
<line x1="418.5" y1="-2.18557e-08" x2="418.5" y2="478" stroke="#222326"/>
<line x1="386.5" y1="-2.18557e-08" x2="386.5" y2="478" stroke="#222326"/>
<line x1="354.5" y1="-2.18557e-08" x2="354.5" y2="478" stroke="#222326"/>
<line x1="322.5" y1="-2.18557e-08" x2="322.5" y2="478" stroke="#222326"/>
<line x1="290.5" y1="-2.18557e-08" x2="290.5" y2="478" stroke="#222326"/>
<line x1="258.5" y1="-2.18557e-08" x2="258.5" y2="478" stroke="#222326"/>
<line x1="226.5" y1="-2.18557e-08" x2="226.5" y2="478" stroke="#222326"/>
<line x1="194.5" y1="-2.18557e-08" x2="194.5" y2="478" stroke="#222326"/>
<line x1="162.5" y1="-2.18557e-08" x2="162.5" y2="478" stroke="#222326"/>
<line x1="130.5" y1="-2.18557e-08" x2="130.5" y2="478" stroke="#222326"/>
<line x1="98.5" y1="-2.18557e-08" x2="98.5" y2="478" stroke="#222326"/>
<line x1="66.5" y1="-2.18557e-08" x2="66.5" y2="478" stroke="#222326"/>
<line x1="34.5" y1="-2.18557e-08" x2="34.5" y2="478" stroke="#222326"/>
<line y1="31.5" x2="1028" y2="31.5" stroke="#222326"/>
<line y1="63.5" x2="1028" y2="63.5" stroke="#222326"/>
<line y1="95.5" x2="1028" y2="95.5" stroke="#222326"/>
<line y1="127.5" x2="1028" y2="127.5" stroke="#222326"/>
<line y1="159.5" x2="1028" y2="159.5" stroke="#222326"/>
<line y1="191.5" x2="1028" y2="191.5" stroke="#222326"/>
<line y1="223.5" x2="1028" y2="223.5" stroke="#222326"/>
<line y1="255.5" x2="1028" y2="255.5" stroke="#222326"/>
<line y1="287.5" x2="1028" y2="287.5" stroke="#222326"/>
<line y1="319.5" x2="1028" y2="319.5" stroke="#222326"/>
<line y1="351.5" x2="1028" y2="351.5" stroke="#222326"/>
<line y1="383.5" x2="1028" y2="383.5" stroke="#222326"/>
<line y1="415.5" x2="1028" y2="415.5" stroke="#222326"/>
<line y1="447.5" x2="1028" y2="447.5" stroke="#222326"/>
</g>
</mask>
<g mask="url(#mask0_13685_23900)">
<g filter="url(#filter0_f_13685_23900)">
<circle cx="248.5" cy="116.5" r="76.5" fill="#352088"/>
</g>
<g filter="url(#filter1_f_13685_23900)">
<circle cx="306.5" cy="481.5" r="57.5" fill="#352088"/>
</g>
<g filter="url(#filter2_f_13685_23900)">
<circle cx="634.5" cy="-4.5" r="60.5" fill="#352088"/>
</g>
<g filter="url(#filter3_f_13685_23900)">
<circle cx="586.5" cy="357.5" r="60.5" fill="#352088"/>
</g>
<g filter="url(#filter4_f_13685_23900)">
<circle cx="908.5" cy="203.5" r="49.5" fill="#352088"/>
</g>
<g filter="url(#filter5_f_13685_23900)">
<path d="M578.5 95.5H514.5M450.5 95.5H514.5M98.5 95.5V159.5H130.5V223.5H162.5V95.5H226.5M97 383V351.5M97 351.5V289H130.5M97 351.5H162.5H64.5V383V417M610.5 415.5H418.5M514.5 95.5V63.5V127.5M930.5 95.5V159.5H962.5V223.5H866.5V287.5M898.5 383.5V351.5H930.5M930.5 351.5H962.5V415.5M930.5 351.5V287.5M514.5 383.5V447.5M578.5 383.5V447.5M450.5 383.5V447.5" stroke="#6E56CF" stroke-width="3"/>
</g>
</g>
<path d="M498 82C498 80.3431 499.343 79 501 79H528C529.657 79 531 80.3431 531 82V109C531 110.657 529.657 112 528 112H501C499.343 112 498 110.657 498 109V82Z" fill="#151618"/>
<g filter="url(#filter6_b_13685_23900)">
<mask id="path-53-inside-1_13685_23900" fill="white">
<path d="M498 82C498 80.3431 499.343 79 501 79H528C529.657 79 531 80.3431 531 82V109C531 110.657 529.657 112 528 112H501C499.343 112 498 110.657 498 109V82Z"/>
</mask>
<path d="M498 82C498 80.3431 499.343 79 501 79H528C529.657 79 531 80.3431 531 82V109C531 110.657 529.657 112 528 112H501C499.343 112 498 110.657 498 109V82Z" fill="#6B53CC" fill-opacity="0.16"/>
<path d="M498 82C498 79.7909 499.791 78 502 78H527C529.209 78 531 79.7909 531 82C531 80.8954 529.657 80 528 80H501C499.343 80 498 80.8954 498 82ZM531 112H498H531ZM498 112V79V112ZM531 79V112V79Z" fill="#6E56CF" fill-opacity="0.4" mask="url(#path-53-inside-1_13685_23900)"/>
</g>
<path d="M514.535 99L516.195 95.926L514.634 93H515.784L516.541 94.5041C516.595 94.6137 516.645 94.7205 516.689 94.8247C516.732 94.9233 516.765 95 516.787 95.0548C516.804 95 516.834 94.9233 516.878 94.8247C516.921 94.7205 516.971 94.6137 517.026 94.5041L517.79 93H518.908L517.346 95.9014L519.006 99H517.856L517.009 97.3397C516.954 97.2301 516.902 97.1233 516.853 97.0192C516.809 96.9151 516.776 96.8329 516.754 96.7726C516.732 96.8329 516.7 96.9151 516.656 97.0192C516.612 97.1233 516.563 97.2301 516.508 97.3397L515.653 99H514.535Z" fill="#6B53CC" fill-opacity="0.62"/>
<path d="M510 99V93H511.899C512.299 93 512.644 93.074 512.934 93.2219C513.23 93.3699 513.46 93.5781 513.625 93.8466C513.789 94.1096 513.871 94.4219 513.871 94.7836C513.871 95.1781 513.77 95.526 513.567 95.8274C513.37 96.1288 513.101 96.3425 512.762 96.4685L513.953 99H512.803L511.759 96.6164H511.027V99H510ZM511.027 95.7123H511.899C512.189 95.7123 512.416 95.6329 512.581 95.474C512.745 95.3151 512.827 95.0959 512.827 94.8164C512.827 94.5315 512.745 94.3096 512.581 94.1507C512.416 93.9863 512.189 93.9041 511.899 93.9041H511.027V95.7123Z" fill="#6B53CC" fill-opacity="0.62"/>
<line x1="503.5" y1="76" x2="503.5" y2="79" stroke="#6B53CC" stroke-opacity="0.62"/>
<line x1="506.5" y1="76" x2="506.5" y2="79" stroke="#6B53CC" stroke-opacity="0.62"/>
<line x1="509.5" y1="76" x2="509.5" y2="79" stroke="#6B53CC" stroke-opacity="0.62"/>
<line x1="512.5" y1="76" x2="512.5" y2="79" stroke="#6B53CC" stroke-opacity="0.62"/>
<line x1="516.5" y1="76" x2="516.5" y2="79" stroke="#6B53CC" stroke-opacity="0.62"/>
<line x1="519.5" y1="76" x2="519.5" y2="79" stroke="#6B53CC" stroke-opacity="0.62"/>
<line x1="522.5" y1="76" x2="522.5" y2="79" stroke="#6B53CC" stroke-opacity="0.62"/>
<line x1="525.5" y1="76" x2="525.5" y2="79" stroke="#6B53CC" stroke-opacity="0.62"/>
<line x1="495" y1="106.496" x2="498" y2="106.496" stroke="#6B53CC" stroke-opacity="0.62"/>
<line x1="495" y1="103.496" x2="498" y2="103.496" stroke="#6B53CC" stroke-opacity="0.62"/>
<line x1="495" y1="100.496" x2="498" y2="100.496" stroke="#6B53CC" stroke-opacity="0.62"/>
<line x1="495" y1="97.4961" x2="498" y2="97.4961" stroke="#6B53CC" stroke-opacity="0.62"/>
<line x1="495" y1="93.4961" x2="498" y2="93.4961" stroke="#6B53CC" stroke-opacity="0.62"/>
<line x1="495" y1="90.4961" x2="498" y2="90.4961" stroke="#6B53CC" stroke-opacity="0.62"/>
<line x1="495" y1="87.4961" x2="498" y2="87.4961" stroke="#6B53CC" stroke-opacity="0.62"/>
<line x1="495" y1="84.4961" x2="498" y2="84.4961" stroke="#6B53CC" stroke-opacity="0.62"/>
<line x1="503.5" y1="112" x2="503.5" y2="115" stroke="#6B53CC" stroke-opacity="0.62"/>
<line x1="506.5" y1="112" x2="506.5" y2="115" stroke="#6B53CC" stroke-opacity="0.62"/>
<line x1="509.5" y1="112" x2="509.5" y2="115" stroke="#6B53CC" stroke-opacity="0.62"/>
<line x1="512.5" y1="112" x2="512.5" y2="115" stroke="#6B53CC" stroke-opacity="0.62"/>
<line x1="516.5" y1="112" x2="516.5" y2="115" stroke="#6B53CC" stroke-opacity="0.62"/>
<line x1="519.5" y1="112" x2="519.5" y2="115" stroke="#6B53CC" stroke-opacity="0.62"/>
<line x1="522.5" y1="112" x2="522.5" y2="115" stroke="#6B53CC" stroke-opacity="0.62"/>
<line x1="525.5" y1="112" x2="525.5" y2="115" stroke="#6B53CC" stroke-opacity="0.62"/>
<line x1="531" y1="106.5" x2="534" y2="106.5" stroke="#6B53CC" stroke-opacity="0.62"/>
<line x1="531" y1="103.5" x2="534" y2="103.5" stroke="#6B53CC" stroke-opacity="0.62"/>
<line x1="531" y1="100.5" x2="534" y2="100.5" stroke="#6B53CC" stroke-opacity="0.62"/>
<line x1="531" y1="97.5" x2="534" y2="97.5" stroke="#6B53CC" stroke-opacity="0.62"/>
<line x1="531" y1="93.5" x2="534" y2="93.5" stroke="#6B53CC" stroke-opacity="0.62"/>
<line x1="531" y1="90.5" x2="534" y2="90.5" stroke="#6B53CC" stroke-opacity="0.62"/>
<line x1="531" y1="87.5" x2="534" y2="87.5" stroke="#6B53CC" stroke-opacity="0.62"/>
<line x1="531" y1="84.5" x2="534" y2="84.5" stroke="#6B53CC" stroke-opacity="0.62"/>
<circle cx="98.5" cy="127.5" r="5.5" fill="#151618"/>
<g filter="url(#filter7_b_13685_23900)">
<circle cx="98.5" cy="127.5" r="5.5" fill="#6B53CC" fill-opacity="0.12"/>
</g>
<circle cx="98.5" cy="127.5" r="3.5" fill="#6B53CC" fill-opacity="0.62"/>
<path d="M88 348C88 346.895 88.8954 346 90 346H107C108.105 346 109 346.895 109 348V355C109 356.105 108.105 357 107 357H90C88.8954 357 88 356.105 88 355V348Z" fill="#151618"/>
<g filter="url(#filter8_b_13685_23900)">
<mask id="path-93-inside-2_13685_23900" fill="white">
<path d="M88 348C88 346.895 88.8954 346 90 346H107C108.105 346 109 346.895 109 348V355C109 356.105 108.105 357 107 357H90C88.8954 357 88 356.105 88 355V348Z"/>
</mask>
<path d="M88 348C88 346.895 88.8954 346 90 346H107C108.105 346 109 346.895 109 348V355C109 356.105 108.105 357 107 357H90C88.8954 357 88 356.105 88 355V348Z" fill="#6B53CC" fill-opacity="0.16"/>
<path d="M88 348C88 346.343 89.3431 345 91 345H106C107.657 345 109 346.343 109 348C109 347.448 108.105 347 107 347H90C88.8954 347 88 347.448 88 348ZM109 357H88H109ZM88 357V346V357ZM109 346V357V346Z" fill="#6E56CF" fill-opacity="0.4" mask="url(#path-93-inside-2_13685_23900)"/>
</g>
<rect x="92" y="350" width="4" height="4" rx="2" fill="#6B53CC" fill-opacity="0.62"/>
<line x1="92.5" y1="343" x2="92.5" y2="346" stroke="#6B53CC" stroke-opacity="0.62"/>
<line x1="95.5" y1="343" x2="95.5" y2="346" stroke="#6B53CC" stroke-opacity="0.62"/>
<line x1="101.5" y1="343" x2="101.5" y2="346" stroke="#6B53CC" stroke-opacity="0.62"/>
<line x1="104.5" y1="343" x2="104.5" y2="346" stroke="#6B53CC" stroke-opacity="0.62"/>
<line x1="92.5" y1="357" x2="92.5" y2="360" stroke="#6B53CC" stroke-opacity="0.62"/>
<line x1="95.5" y1="357" x2="95.5" y2="360" stroke="#6B53CC" stroke-opacity="0.62"/>
<line x1="101.5" y1="357" x2="101.5" y2="360" stroke="#6B53CC" stroke-opacity="0.62"/>
<line x1="104.5" y1="357" x2="104.5" y2="360" stroke="#6B53CC" stroke-opacity="0.62"/>
<path d="M155 221C155 219.895 155.895 219 157 219H168C169.105 219 170 219.895 170 221V226C170 227.105 169.105 228 168 228H157C155.895 228 155 227.105 155 226V221Z" fill="#151618"/>
<g filter="url(#filter9_b_13685_23900)">
<mask id="path-105-inside-3_13685_23900" fill="white">
<path d="M155 221C155 219.895 155.895 219 157 219H168C169.105 219 170 219.895 170 221V226C170 227.105 169.105 228 168 228H157C155.895 228 155 227.105 155 226V221Z"/>
</mask>
<path d="M155 221C155 219.895 155.895 219 157 219H168C169.105 219 170 219.895 170 221V226C170 227.105 169.105 228 168 228H157C155.895 228 155 227.105 155 226V221Z" fill="#6B53CC" fill-opacity="0.16"/>
<path d="M155 221C155 219.343 156.343 218 158 218H167C168.657 218 170 219.343 170 221C170 220.448 169.105 220 168 220H157C155.895 220 155 220.448 155 221ZM170 228H155H170ZM155 228V219V228ZM170 219V228V219Z" fill="#6E56CF" fill-opacity="0.4" mask="url(#path-105-inside-3_13685_23900)"/>
</g>
<line x1="157.5" y1="216" x2="157.5" y2="219" stroke="#6B53CC" stroke-opacity="0.62"/>
<line x1="160.5" y1="216" x2="160.5" y2="219" stroke="#6B53CC" stroke-opacity="0.62"/>
<line x1="164.5" y1="216" x2="164.5" y2="219" stroke="#6B53CC" stroke-opacity="0.62"/>
<line x1="167.5" y1="216" x2="167.5" y2="219" stroke="#6B53CC" stroke-opacity="0.62"/>
<line x1="157.5" y1="228" x2="157.5" y2="231" stroke="#6B53CC" stroke-opacity="0.62"/>
<line x1="160.5" y1="228" x2="160.5" y2="231" stroke="#6B53CC" stroke-opacity="0.62"/>
<line x1="164.5" y1="228" x2="164.5" y2="231" stroke="#6B53CC" stroke-opacity="0.62"/>
<line x1="167.5" y1="228" x2="167.5" y2="231" stroke="#6B53CC" stroke-opacity="0.62"/>
<line x1="152" y1="225.5" x2="155" y2="225.5" stroke="#6B53CC" stroke-opacity="0.62"/>
<line x1="152" y1="221.5" x2="155" y2="221.5" stroke="#6B53CC" stroke-opacity="0.62"/>
<line x1="170" y1="225.5" x2="173" y2="225.5" stroke="#6B53CC" stroke-opacity="0.62"/>
<line x1="170" y1="221.5" x2="173" y2="221.5" stroke="#6B53CC" stroke-opacity="0.62"/>
<rect x="158" y="225" width="2" height="9" rx="1" transform="rotate(-90 158 225)" fill="#6B53CC" fill-opacity="0.62"/>
<path d="M923 125C923 123.895 923.895 123 925 123H936C937.105 123 938 123.895 938 125V130C938 131.105 937.105 132 936 132H925C923.895 132 923 131.105 923 130V125Z" fill="#151618"/>
<g filter="url(#filter10_b_13685_23900)">
<mask id="path-121-inside-4_13685_23900" fill="white">
<path d="M923 125C923 123.895 923.895 123 925 123H936C937.105 123 938 123.895 938 125V130C938 131.105 937.105 132 936 132H925C923.895 132 923 131.105 923 130V125Z"/>
</mask>
<path d="M923 125C923 123.895 923.895 123 925 123H936C937.105 123 938 123.895 938 125V130C938 131.105 937.105 132 936 132H925C923.895 132 923 131.105 923 130V125Z" fill="#6B53CC" fill-opacity="0.16"/>
<path d="M923 125C923 123.343 924.343 122 926 122H935C936.657 122 938 123.343 938 125C938 124.448 937.105 124 936 124H925C923.895 124 923 124.448 923 125ZM938 132H923H938ZM923 132V123V132ZM938 123V132V123Z" fill="#6E56CF" fill-opacity="0.4" mask="url(#path-121-inside-4_13685_23900)"/>
</g>
<line x1="925.5" y1="120" x2="925.5" y2="123" stroke="#6B53CC" stroke-opacity="0.62"/>
<line x1="928.5" y1="120" x2="928.5" y2="123" stroke="#6B53CC" stroke-opacity="0.62"/>
<line x1="932.5" y1="120" x2="932.5" y2="123" stroke="#6B53CC" stroke-opacity="0.62"/>
<line x1="935.5" y1="120" x2="935.5" y2="123" stroke="#6B53CC" stroke-opacity="0.62"/>
<line x1="925.5" y1="132" x2="925.5" y2="135" stroke="#6B53CC" stroke-opacity="0.62"/>
<line x1="928.5" y1="132" x2="928.5" y2="135" stroke="#6B53CC" stroke-opacity="0.62"/>
<line x1="932.5" y1="132" x2="932.5" y2="135" stroke="#6B53CC" stroke-opacity="0.62"/>
<line x1="935.5" y1="132" x2="935.5" y2="135" stroke="#6B53CC" stroke-opacity="0.62"/>
<line x1="920" y1="129.5" x2="923" y2="129.5" stroke="#6B53CC" stroke-opacity="0.62"/>
<line x1="920" y1="125.5" x2="923" y2="125.5" stroke="#6B53CC" stroke-opacity="0.62"/>
<line x1="938" y1="129.5" x2="941" y2="129.5" stroke="#6B53CC" stroke-opacity="0.62"/>
<line x1="938" y1="125.5" x2="941" y2="125.5" stroke="#6B53CC" stroke-opacity="0.62"/>
<rect x="926" y="129" width="2" height="9" rx="1" transform="rotate(-90 926 129)" fill="#6B53CC" fill-opacity="0.62"/>
<path fill-rule="evenodd" clip-rule="evenodd" d="M926 344.5C926 342.015 928.015 340 930.5 340V340C932.985 340 935 342.015 935 344.5V358.5C935 360.985 932.985 363 930.5 363V363C928.015 363 926 360.985 926 358.5V344.5Z" fill="#151618"/>
<path fill-rule="evenodd" clip-rule="evenodd" d="M934 350V344.5C934 343.104 933.182 341.899 932 341.337V339.207C934.309 339.86 936 341.982 936 344.5V350H934ZM927 350V344.5C927 343.104 927.818 341.899 929 341.337V339.207C926.691 339.86 925 341.982 925 344.5V350H927ZM925 353H927V358.5C927 359.896 927.818 361.101 929 361.663V363.793C926.691 363.14 925 361.018 925 358.5V353ZM934 353H936V358.5C936 361.018 934.309 363.14 932 363.793V361.663C933.182 361.101 934 359.896 934 358.5V353ZM930.5 339L930.514 339H930.486L930.5 339Z" fill="#6B53CC" fill-opacity="0.62"/>
<g filter="url(#filter11_b_13685_23900)">
<path fill-rule="evenodd" clip-rule="evenodd" d="M926 344.5C926 342.015 928.015 340 930.5 340V340C932.985 340 935 342.015 935 344.5V358.5C935 360.985 932.985 363 930.5 363V363C928.015 363 926 360.985 926 358.5V344.5Z" fill="#6B53CC" fill-opacity="0.12"/>
</g>
<path d="M929 345.5C929 345.224 929.224 345 929.5 345H931.5C931.776 345 932 345.224 932 345.5V345.5C932 345.776 931.776 346 931.5 346H929.5C929.224 346 929 345.776 929 345.5V345.5Z" fill="#6B53CC" fill-opacity="0.62"/>
<path d="M929 348.5C929 348.224 929.224 348 929.5 348H931.5C931.776 348 932 348.224 932 348.5V348.5C932 348.776 931.776 349 931.5 349H929.5C929.224 349 929 348.776 929 348.5V348.5Z" fill="#6B53CC" fill-opacity="0.62"/>
<path d="M929 351.5C929 351.224 929.224 351 929.5 351H931.5C931.776 351 932 351.224 932 351.5V351.5C932 351.776 931.776 352 931.5 352H929.5C929.224 352 929 351.776 929 351.5V351.5Z" fill="#6B53CC" fill-opacity="0.62"/>
<path d="M929 354.5C929 354.224 929.224 354 929.5 354H931.5C931.776 354 932 354.224 932 354.5V354.5C932 354.776 931.776 355 931.5 355H929.5C929.224 355 929 354.776 929 354.5V354.5Z" fill="#6B53CC" fill-opacity="0.62"/>
<path d="M929 357.5C929 357.224 929.224 357 929.5 357H931.5C931.776 357 932 357.224 932 357.5V357.5C932 357.776 931.776 358 931.5 358H929.5C929.224 358 929 357.776 929 357.5V357.5Z" fill="#6B53CC" fill-opacity="0.62"/>
<path d="M859 255C859 253.895 859.895 253 861 253H872C873.105 253 874 253.895 874 255V256C874 257.105 873.105 258 872 258H861C859.895 258 859 257.105 859 256V255Z" fill="#151618"/>
<g filter="url(#filter12_b_13685_23900)">
<mask id="path-141-inside-5_13685_23900" fill="white">
<path d="M859 255C859 253.895 859.895 253 861 253H872C873.105 253 874 253.895 874 255V256C874 257.105 873.105 258 872 258H861C859.895 258 859 257.105 859 256V255Z"/>
</mask>
<path d="M859 255C859 253.895 859.895 253 861 253H872C873.105 253 874 253.895 874 255V256C874 257.105 873.105 258 872 258H861C859.895 258 859 257.105 859 256V255Z" fill="#6B53CC" fill-opacity="0.16"/>
<path d="M859 255C859 253.343 860.343 252 862 252H871C872.657 252 874 253.343 874 255C874 254.448 873.105 254 872 254H861C859.895 254 859 254.448 859 255ZM874 258H859H874ZM859 258V253V258ZM874 253V258V253Z" fill="#6E56CF" fill-opacity="0.4" mask="url(#path-141-inside-5_13685_23900)"/>
</g>
<rect x="865" y="257" width="1" height="2" rx="0.5" transform="rotate(180 865 257)" fill="#6B53CC" fill-opacity="0.62"/>
<rect x="862" y="257" width="1" height="2" rx="0.5" transform="rotate(180 862 257)" fill="#6B53CC" fill-opacity="0.62"/>
<rect x="869" y="257" width="1" height="2" rx="0.5" transform="rotate(180 869 257)" fill="#6B53CC" fill-opacity="0.62"/>
<rect x="872" y="257" width="1" height="2" rx="0.5" transform="rotate(180 872 257)" fill="#6B53CC" fill-opacity="0.62"/>
<rect x="498" y="413" width="3" height="5" fill="#151618"/>
<g filter="url(#filter13_b_13685_23900)">
<path d="M499 410H500L501 413H498L499 410Z" fill="#6B53CC" fill-opacity="0.16"/>
</g>
<g filter="url(#filter14_b_13685_23900)">
<rect x="498" y="413" width="3" height="5" fill="#6B53CC" fill-opacity="0.62"/>
</g>
<g filter="url(#filter15_b_13685_23900)">
<path d="M498 418H501L500 421H499L498 418Z" fill="#6B53CC" fill-opacity="0.16"/>
</g>
<rect x="503" y="413" width="3" height="5" fill="#151618"/>
<g filter="url(#filter16_b_13685_23900)">
<path d="M504 410H505L506 413H503L504 410Z" fill="#6B53CC" fill-opacity="0.16"/>
</g>
<g filter="url(#filter17_b_13685_23900)">
<rect x="503" y="413" width="3" height="5" fill="#6B53CC" fill-opacity="0.62"/>
</g>
<g filter="url(#filter18_b_13685_23900)">
<path d="M503 418H506L505 421H504L503 418Z" fill="#6B53CC" fill-opacity="0.16"/>
</g>
<rect x="508" y="413" width="3" height="5" fill="#151618"/>
<g filter="url(#filter19_b_13685_23900)">
<path d="M509 410H510L511 413H508L509 410Z" fill="#6B53CC" fill-opacity="0.16"/>
</g>
<g filter="url(#filter20_b_13685_23900)">
<rect x="508" y="413" width="3" height="5" fill="#6B53CC" fill-opacity="0.62"/>
</g>
<g filter="url(#filter21_b_13685_23900)">
<path d="M508 418H511L510 421H509L508 418Z" fill="#6B53CC" fill-opacity="0.16"/>
</g>
<rect x="513" y="413" width="3" height="5" fill="#151618"/>
<g filter="url(#filter22_b_13685_23900)">
<path d="M514 410H515L516 413H513L514 410Z" fill="#6B53CC" fill-opacity="0.16"/>
</g>
<g filter="url(#filter23_b_13685_23900)">
<rect x="513" y="413" width="3" height="5" fill="#6B53CC" fill-opacity="0.62"/>
</g>
<g filter="url(#filter24_b_13685_23900)">
<path d="M513 418H516L515 421H514L513 418Z" fill="#6B53CC" fill-opacity="0.16"/>
</g>
<rect x="518" y="413" width="3" height="5" fill="#151618"/>
<g filter="url(#filter25_b_13685_23900)">
<path d="M519 410H520L521 413H518L519 410Z" fill="#6B53CC" fill-opacity="0.16"/>
</g>
<g filter="url(#filter26_b_13685_23900)">
<rect x="518" y="413" width="3" height="5" fill="#6B53CC" fill-opacity="0.62"/>
</g>
<g filter="url(#filter27_b_13685_23900)">
<path d="M518 418H521L520 421H519L518 418Z" fill="#6B53CC" fill-opacity="0.16"/>
</g>
<rect x="523" y="413" width="3" height="5" fill="#151618"/>
<g filter="url(#filter28_b_13685_23900)">
<path d="M524 410H525L526 413H523L524 410Z" fill="#6B53CC" fill-opacity="0.16"/>
</g>
<g filter="url(#filter29_b_13685_23900)">
<rect x="523" y="413" width="3" height="5" fill="#6B53CC" fill-opacity="0.62"/>
</g>
<g filter="url(#filter30_b_13685_23900)">
<path d="M523 418H526L525 421H524L523 418Z" fill="#6B53CC" fill-opacity="0.16"/>
</g>
<rect x="528" y="413" width="3" height="5" fill="#151618"/>
<g filter="url(#filter31_b_13685_23900)">
<path d="M529 410H530L531 413H528L529 410Z" fill="#6B53CC" fill-opacity="0.16"/>
</g>
<g filter="url(#filter32_b_13685_23900)">
<rect x="528" y="413" width="3" height="5" fill="#6B53CC" fill-opacity="0.62"/>
</g>
<g filter="url(#filter33_b_13685_23900)">
<path d="M528 418H531L530 421H529L528 418Z" fill="#6B53CC" fill-opacity="0.16"/>
</g>
<path d="M574 413C574 411.895 574.895 411 576 411H581C582.105 411 583 411.895 583 413V418C583 419.105 582.105 420 581 420H576C574.895 420 574 419.105 574 418V413Z" fill="#151618"/>
<g filter="url(#filter34_b_13685_23900)">
<mask id="path-176-inside-6_13685_23900" fill="white">
<path d="M574 413C574 411.895 574.895 411 576 411H581C582.105 411 583 411.895 583 413V418C583 419.105 582.105 420 581 420H576C574.895 420 574 419.105 574 418V413Z"/>
</mask>
<path d="M574 413C574 411.895 574.895 411 576 411H581C582.105 411 583 411.895 583 413V418C583 419.105 582.105 420 581 420H576C574.895 420 574 419.105 574 418V413Z" fill="#6B53CC" fill-opacity="0.16"/>
<path d="M574 413C574 411.343 575.343 410 577 410H580C581.657 410 583 411.343 583 413C583 412.448 582.105 412 581 412H576C574.895 412 574 412.448 574 413ZM583 420H574H583ZM574 420V411V420ZM583 411V420V411Z" fill="#6E56CF" fill-opacity="0.4" mask="url(#path-176-inside-6_13685_23900)"/>
</g>
<line x1="576.5" y1="408" x2="576.5" y2="411" stroke="#6B53CC" stroke-opacity="0.62"/>
<line x1="580.5" y1="408" x2="580.5" y2="411" stroke="#6B53CC" stroke-opacity="0.62"/>
<line x1="576.5" y1="420" x2="576.5" y2="423" stroke="#6B53CC" stroke-opacity="0.62"/>
<line x1="580.5" y1="420" x2="580.5" y2="423" stroke="#6B53CC" stroke-opacity="0.62"/>
<line x1="571" y1="417.5" x2="574" y2="417.5" stroke="#6B53CC" stroke-opacity="0.62"/>
<line x1="571" y1="413.5" x2="574" y2="413.5" stroke="#6B53CC" stroke-opacity="0.62"/>
<line x1="583" y1="417.5" x2="586" y2="417.5" stroke="#6B53CC" stroke-opacity="0.62"/>
<line x1="583" y1="413.5" x2="586" y2="413.5" stroke="#6B53CC" stroke-opacity="0.62"/>
<rect x="577" y="414" width="3" height="4" rx="1.5" fill="#6B53CC" fill-opacity="0.62"/>
<path d="M446 413C446 411.895 446.895 411 448 411H453C454.105 411 455 411.895 455 413V418C455 419.105 454.105 420 453 420H448C446.895 420 446 419.105 446 418V413Z" fill="#151618"/>
<g filter="url(#filter35_b_13685_23900)">
<mask id="path-188-inside-7_13685_23900" fill="white">
<path d="M446 413C446 411.895 446.895 411 448 411H453C454.105 411 455 411.895 455 413V418C455 419.105 454.105 420 453 420H448C446.895 420 446 419.105 446 418V413Z"/>
</mask>
<path d="M446 413C446 411.895 446.895 411 448 411H453C454.105 411 455 411.895 455 413V418C455 419.105 454.105 420 453 420H448C446.895 420 446 419.105 446 418V413Z" fill="#6B53CC" fill-opacity="0.16"/>
<path d="M446 413C446 411.343 447.343 410 449 410H452C453.657 410 455 411.343 455 413C455 412.448 454.105 412 453 412H448C446.895 412 446 412.448 446 413ZM455 420H446H455ZM446 420V411V420ZM455 411V420V411Z" fill="#6E56CF" fill-opacity="0.4" mask="url(#path-188-inside-7_13685_23900)"/>
</g>
<line x1="448.5" y1="408" x2="448.5" y2="411" stroke="#6B53CC" stroke-opacity="0.62"/>
<line x1="452.5" y1="408" x2="452.5" y2="411" stroke="#6B53CC" stroke-opacity="0.62"/>
<line x1="448.5" y1="420" x2="448.5" y2="423" stroke="#6B53CC" stroke-opacity="0.62"/>
<line x1="452.5" y1="420" x2="452.5" y2="423" stroke="#6B53CC" stroke-opacity="0.62"/>
<line x1="443" y1="417.5" x2="446" y2="417.5" stroke="#6B53CC" stroke-opacity="0.62"/>
<line x1="443" y1="413.5" x2="446" y2="413.5" stroke="#6B53CC" stroke-opacity="0.62"/>
<line x1="455" y1="417.5" x2="458" y2="417.5" stroke="#6B53CC" stroke-opacity="0.62"/>
<line x1="455" y1="413.5" x2="458" y2="413.5" stroke="#6B53CC" stroke-opacity="0.62"/>
<rect x="449" y="414" width="3" height="4" rx="1.5" fill="#6B53CC" fill-opacity="0.62"/>
</g>
<defs>
<filter id="filter0_f_13685_23900" x="-8" y="-140" width="513" height="513" filterUnits="userSpaceOnUse" color-interpolation-filters="sRGB">
<feFlood flood-opacity="0" result="BackgroundImageFix"/>
<feBlend mode="normal" in="SourceGraphic" in2="BackgroundImageFix" result="shape"/>
<feGaussianBlur stdDeviation="90" result="effect1_foregroundBlur_13685_23900"/>
</filter>
<filter id="filter1_f_13685_23900" x="69" y="244" width="475" height="475" filterUnits="userSpaceOnUse" color-interpolation-filters="sRGB">
<feFlood flood-opacity="0" result="BackgroundImageFix"/>
<feBlend mode="normal" in="SourceGraphic" in2="BackgroundImageFix" result="shape"/>
<feGaussianBlur stdDeviation="90" result="effect1_foregroundBlur_13685_23900"/>
</filter>
<filter id="filter2_f_13685_23900" x="394" y="-245" width="481" height="481" filterUnits="userSpaceOnUse" color-interpolation-filters="sRGB">
<feFlood flood-opacity="0" result="BackgroundImageFix"/>
<feBlend mode="normal" in="SourceGraphic" in2="BackgroundImageFix" result="shape"/>
<feGaussianBlur stdDeviation="90" result="effect1_foregroundBlur_13685_23900"/>
</filter>
<filter id="filter3_f_13685_23900" x="346" y="117" width="481" height="481" filterUnits="userSpaceOnUse" color-interpolation-filters="sRGB">
<feFlood flood-opacity="0" result="BackgroundImageFix"/>
<feBlend mode="normal" in="SourceGraphic" in2="BackgroundImageFix" result="shape"/>
<feGaussianBlur stdDeviation="90" result="effect1_foregroundBlur_13685_23900"/>
</filter>
<filter id="filter4_f_13685_23900" x="679" y="-26" width="459" height="459" filterUnits="userSpaceOnUse" color-interpolation-filters="sRGB">
<feFlood flood-opacity="0" result="BackgroundImageFix"/>
<feBlend mode="normal" in="SourceGraphic" in2="BackgroundImageFix" result="shape"/>
<feGaussianBlur stdDeviation="90" result="effect1_foregroundBlur_13685_23900"/>
</filter>
<filter id="filter5_f_13685_23900" x="51" y="51.5" width="925" height="408" filterUnits="userSpaceOnUse" color-interpolation-filters="sRGB">
<feFlood flood-opacity="0" result="BackgroundImageFix"/>
<feBlend mode="normal" in="SourceGraphic" in2="BackgroundImageFix" result="shape"/>
<feGaussianBlur stdDeviation="6" result="effect1_foregroundBlur_13685_23900"/>
</filter>
<filter id="filter6_b_13685_23900" x="474" y="55" width="81" height="81" filterUnits="userSpaceOnUse" color-interpolation-filters="sRGB">
<feFlood flood-opacity="0" result="BackgroundImageFix"/>
<feGaussianBlur in="BackgroundImageFix" stdDeviation="12"/>
<feComposite in2="SourceAlpha" operator="in" result="effect1_backgroundBlur_13685_23900"/>
<feBlend mode="normal" in="SourceGraphic" in2="effect1_backgroundBlur_13685_23900" result="shape"/>
</filter>
<filter id="filter7_b_13685_23900" x="69" y="98" width="59" height="59" filterUnits="userSpaceOnUse" color-interpolation-filters="sRGB">
<feFlood flood-opacity="0" result="BackgroundImageFix"/>
<feGaussianBlur in="BackgroundImageFix" stdDeviation="12"/>
<feComposite in2="SourceAlpha" operator="in" result="effect1_backgroundBlur_13685_23900"/>
<feBlend mode="normal" in="SourceGraphic" in2="effect1_backgroundBlur_13685_23900" result="shape"/>
</filter>
<filter id="filter8_b_13685_23900" x="64" y="322" width="69" height="59" filterUnits="userSpaceOnUse" color-interpolation-filters="sRGB">
<feFlood flood-opacity="0" result="BackgroundImageFix"/>
<feGaussianBlur in="BackgroundImageFix" stdDeviation="12"/>
<feComposite in2="SourceAlpha" operator="in" result="effect1_backgroundBlur_13685_23900"/>
<feBlend mode="normal" in="SourceGraphic" in2="effect1_backgroundBlur_13685_23900" result="shape"/>
</filter>
<filter id="filter9_b_13685_23900" x="131" y="195" width="63" height="57" filterUnits="userSpaceOnUse" color-interpolation-filters="sRGB">
<feFlood flood-opacity="0" result="BackgroundImageFix"/>
<feGaussianBlur in="BackgroundImageFix" stdDeviation="12"/>
<feComposite in2="SourceAlpha" operator="in" result="effect1_backgroundBlur_13685_23900"/>
<feBlend mode="normal" in="SourceGraphic" in2="effect1_backgroundBlur_13685_23900" result="shape"/>
</filter>
<filter id="filter10_b_13685_23900" x="899" y="99" width="63" height="57" filterUnits="userSpaceOnUse" color-interpolation-filters="sRGB">
<feFlood flood-opacity="0" result="BackgroundImageFix"/>
<feGaussianBlur in="BackgroundImageFix" stdDeviation="12"/>
<feComposite in2="SourceAlpha" operator="in" result="effect1_backgroundBlur_13685_23900"/>
<feBlend mode="normal" in="SourceGraphic" in2="effect1_backgroundBlur_13685_23900" result="shape"/>
</filter>
<filter id="filter11_b_13685_23900" x="902" y="316" width="57" height="71" filterUnits="userSpaceOnUse" color-interpolation-filters="sRGB">
<feFlood flood-opacity="0" result="BackgroundImageFix"/>
<feGaussianBlur in="BackgroundImageFix" stdDeviation="12"/>
<feComposite in2="SourceAlpha" operator="in" result="effect1_backgroundBlur_13685_23900"/>
<feBlend mode="normal" in="SourceGraphic" in2="effect1_backgroundBlur_13685_23900" result="shape"/>
</filter>
<filter id="filter12_b_13685_23900" x="835" y="229" width="63" height="53" filterUnits="userSpaceOnUse" color-interpolation-filters="sRGB">
<feFlood flood-opacity="0" result="BackgroundImageFix"/>
<feGaussianBlur in="BackgroundImageFix" stdDeviation="12"/>
<feComposite in2="SourceAlpha" operator="in" result="effect1_backgroundBlur_13685_23900"/>
<feBlend mode="normal" in="SourceGraphic" in2="effect1_backgroundBlur_13685_23900" result="shape"/>
</filter>
<filter id="filter13_b_13685_23900" x="486" y="398" width="27" height="27" filterUnits="userSpaceOnUse" color-interpolation-filters="sRGB">
<feFlood flood-opacity="0" result="BackgroundImageFix"/>
<feGaussianBlur in="BackgroundImageFix" stdDeviation="6"/>
<feComposite in2="SourceAlpha" operator="in" result="effect1_backgroundBlur_13685_23900"/>
<feBlend mode="normal" in="SourceGraphic" in2="effect1_backgroundBlur_13685_23900" result="shape"/>
</filter>
<filter id="filter14_b_13685_23900" x="474" y="389" width="51" height="53" filterUnits="userSpaceOnUse" color-interpolation-filters="sRGB">
<feFlood flood-opacity="0" result="BackgroundImageFix"/>
<feGaussianBlur in="BackgroundImageFix" stdDeviation="12"/>
<feComposite in2="SourceAlpha" operator="in" result="effect1_backgroundBlur_13685_23900"/>
<feBlend mode="normal" in="SourceGraphic" in2="effect1_backgroundBlur_13685_23900" result="shape"/>
</filter>
<filter id="filter15_b_13685_23900" x="486" y="406" width="27" height="27" filterUnits="userSpaceOnUse" color-interpolation-filters="sRGB">
<feFlood flood-opacity="0" result="BackgroundImageFix"/>
<feGaussianBlur in="BackgroundImageFix" stdDeviation="6"/>
<feComposite in2="SourceAlpha" operator="in" result="effect1_backgroundBlur_13685_23900"/>
<feBlend mode="normal" in="SourceGraphic" in2="effect1_backgroundBlur_13685_23900" result="shape"/>
</filter>
<filter id="filter16_b_13685_23900" x="491" y="398" width="27" height="27" filterUnits="userSpaceOnUse" color-interpolation-filters="sRGB">
<feFlood flood-opacity="0" result="BackgroundImageFix"/>
<feGaussianBlur in="BackgroundImageFix" stdDeviation="6"/>
<feComposite in2="SourceAlpha" operator="in" result="effect1_backgroundBlur_13685_23900"/>
<feBlend mode="normal" in="SourceGraphic" in2="effect1_backgroundBlur_13685_23900" result="shape"/>
</filter>
<filter id="filter17_b_13685_23900" x="479" y="389" width="51" height="53" filterUnits="userSpaceOnUse" color-interpolation-filters="sRGB">
<feFlood flood-opacity="0" result="BackgroundImageFix"/>
<feGaussianBlur in="BackgroundImageFix" stdDeviation="12"/>
<feComposite in2="SourceAlpha" operator="in" result="effect1_backgroundBlur_13685_23900"/>
<feBlend mode="normal" in="SourceGraphic" in2="effect1_backgroundBlur_13685_23900" result="shape"/>
</filter>
<filter id="filter18_b_13685_23900" x="491" y="406" width="27" height="27" filterUnits="userSpaceOnUse" color-interpolation-filters="sRGB">
<feFlood flood-opacity="0" result="BackgroundImageFix"/>
<feGaussianBlur in="BackgroundImageFix" stdDeviation="6"/>
<feComposite in2="SourceAlpha" operator="in" result="effect1_backgroundBlur_13685_23900"/>
<feBlend mode="normal" in="SourceGraphic" in2="effect1_backgroundBlur_13685_23900" result="shape"/>
</filter>
<filter id="filter19_b_13685_23900" x="496" y="398" width="27" height="27" filterUnits="userSpaceOnUse" color-interpolation-filters="sRGB">
<feFlood flood-opacity="0" result="BackgroundImageFix"/>
<feGaussianBlur in="BackgroundImageFix" stdDeviation="6"/>
<feComposite in2="SourceAlpha" operator="in" result="effect1_backgroundBlur_13685_23900"/>
<feBlend mode="normal" in="SourceGraphic" in2="effect1_backgroundBlur_13685_23900" result="shape"/>
</filter>
<filter id="filter20_b_13685_23900" x="484" y="389" width="51" height="53" filterUnits="userSpaceOnUse" color-interpolation-filters="sRGB">
<feFlood flood-opacity="0" result="BackgroundImageFix"/>
<feGaussianBlur in="BackgroundImageFix" stdDeviation="12"/>
<feComposite in2="SourceAlpha" operator="in" result="effect1_backgroundBlur_13685_23900"/>
<feBlend mode="normal" in="SourceGraphic" in2="effect1_backgroundBlur_13685_23900" result="shape"/>
</filter>
<filter id="filter21_b_13685_23900" x="496" y="406" width="27" height="27" filterUnits="userSpaceOnUse" color-interpolation-filters="sRGB">
<feFlood flood-opacity="0" result="BackgroundImageFix"/>
<feGaussianBlur in="BackgroundImageFix" stdDeviation="6"/>
<feComposite in2="SourceAlpha" operator="in" result="effect1_backgroundBlur_13685_23900"/>
<feBlend mode="normal" in="SourceGraphic" in2="effect1_backgroundBlur_13685_23900" result="shape"/>
</filter>
<filter id="filter22_b_13685_23900" x="501" y="398" width="27" height="27" filterUnits="userSpaceOnUse" color-interpolation-filters="sRGB">
<feFlood flood-opacity="0" result="BackgroundImageFix"/>
<feGaussianBlur in="BackgroundImageFix" stdDeviation="6"/>
<feComposite in2="SourceAlpha" operator="in" result="effect1_backgroundBlur_13685_23900"/>
<feBlend mode="normal" in="SourceGraphic" in2="effect1_backgroundBlur_13685_23900" result="shape"/>
</filter>
<filter id="filter23_b_13685_23900" x="489" y="389" width="51" height="53" filterUnits="userSpaceOnUse" color-interpolation-filters="sRGB">
<feFlood flood-opacity="0" result="BackgroundImageFix"/>
<feGaussianBlur in="BackgroundImageFix" stdDeviation="12"/>
<feComposite in2="SourceAlpha" operator="in" result="effect1_backgroundBlur_13685_23900"/>
<feBlend mode="normal" in="SourceGraphic" in2="effect1_backgroundBlur_13685_23900" result="shape"/>
</filter>
<filter id="filter24_b_13685_23900" x="501" y="406" width="27" height="27" filterUnits="userSpaceOnUse" color-interpolation-filters="sRGB">
<feFlood flood-opacity="0" result="BackgroundImageFix"/>
<feGaussianBlur in="BackgroundImageFix" stdDeviation="6"/>
<feComposite in2="SourceAlpha" operator="in" result="effect1_backgroundBlur_13685_23900"/>
<feBlend mode="normal" in="SourceGraphic" in2="effect1_backgroundBlur_13685_23900" result="shape"/>
</filter>
<filter id="filter25_b_13685_23900" x="506" y="398" width="27" height="27" filterUnits="userSpaceOnUse" color-interpolation-filters="sRGB">
<feFlood flood-opacity="0" result="BackgroundImageFix"/>
<feGaussianBlur in="BackgroundImageFix" stdDeviation="6"/>
<feComposite in2="SourceAlpha" operator="in" result="effect1_backgroundBlur_13685_23900"/>
<feBlend mode="normal" in="SourceGraphic" in2="effect1_backgroundBlur_13685_23900" result="shape"/>
</filter>
<filter id="filter26_b_13685_23900" x="494" y="389" width="51" height="53" filterUnits="userSpaceOnUse" color-interpolation-filters="sRGB">
<feFlood flood-opacity="0" result="BackgroundImageFix"/>
<feGaussianBlur in="BackgroundImageFix" stdDeviation="12"/>
<feComposite in2="SourceAlpha" operator="in" result="effect1_backgroundBlur_13685_23900"/>
<feBlend mode="normal" in="SourceGraphic" in2="effect1_backgroundBlur_13685_23900" result="shape"/>
</filter>
<filter id="filter27_b_13685_23900" x="506" y="406" width="27" height="27" filterUnits="userSpaceOnUse" color-interpolation-filters="sRGB">
<feFlood flood-opacity="0" result="BackgroundImageFix"/>
<feGaussianBlur in="BackgroundImageFix" stdDeviation="6"/>
<feComposite in2="SourceAlpha" operator="in" result="effect1_backgroundBlur_13685_23900"/>
<feBlend mode="normal" in="SourceGraphic" in2="effect1_backgroundBlur_13685_23900" result="shape"/>
</filter>
<filter id="filter28_b_13685_23900" x="511" y="398" width="27" height="27" filterUnits="userSpaceOnUse" color-interpolation-filters="sRGB">
<feFlood flood-opacity="0" result="BackgroundImageFix"/>
<feGaussianBlur in="BackgroundImageFix" stdDeviation="6"/>
<feComposite in2="SourceAlpha" operator="in" result="effect1_backgroundBlur_13685_23900"/>
<feBlend mode="normal" in="SourceGraphic" in2="effect1_backgroundBlur_13685_23900" result="shape"/>
</filter>
<filter id="filter29_b_13685_23900" x="499" y="389" width="51" height="53" filterUnits="userSpaceOnUse" color-interpolation-filters="sRGB">
<feFlood flood-opacity="0" result="BackgroundImageFix"/>
<feGaussianBlur in="BackgroundImageFix" stdDeviation="12"/>
<feComposite in2="SourceAlpha" operator="in" result="effect1_backgroundBlur_13685_23900"/>
<feBlend mode="normal" in="SourceGraphic" in2="effect1_backgroundBlur_13685_23900" result="shape"/>
</filter>
<filter id="filter30_b_13685_23900" x="511" y="406" width="27" height="27" filterUnits="userSpaceOnUse" color-interpolation-filters="sRGB">
<feFlood flood-opacity="0" result="BackgroundImageFix"/>
<feGaussianBlur in="BackgroundImageFix" stdDeviation="6"/>
<feComposite in2="SourceAlpha" operator="in" result="effect1_backgroundBlur_13685_23900"/>
<feBlend mode="normal" in="SourceGraphic" in2="effect1_backgroundBlur_13685_23900" result="shape"/>
</filter>
<filter id="filter31_b_13685_23900" x="516" y="398" width="27" height="27" filterUnits="userSpaceOnUse" color-interpolation-filters="sRGB">
<feFlood flood-opacity="0" result="BackgroundImageFix"/>
<feGaussianBlur in="BackgroundImageFix" stdDeviation="6"/>
<feComposite in2="SourceAlpha" operator="in" result="effect1_backgroundBlur_13685_23900"/>
<feBlend mode="normal" in="SourceGraphic" in2="effect1_backgroundBlur_13685_23900" result="shape"/>
</filter>
<filter id="filter32_b_13685_23900" x="504" y="389" width="51" height="53" filterUnits="userSpaceOnUse" color-interpolation-filters="sRGB">
<feFlood flood-opacity="0" result="BackgroundImageFix"/>
<feGaussianBlur in="BackgroundImageFix" stdDeviation="12"/>
<feComposite in2="SourceAlpha" operator="in" result="effect1_backgroundBlur_13685_23900"/>
<feBlend mode="normal" in="SourceGraphic" in2="effect1_backgroundBlur_13685_23900" result="shape"/>
</filter>
<filter id="filter33_b_13685_23900" x="516" y="406" width="27" height="27" filterUnits="userSpaceOnUse" color-interpolation-filters="sRGB">
<feFlood flood-opacity="0" result="BackgroundImageFix"/>
<feGaussianBlur in="BackgroundImageFix" stdDeviation="6"/>
<feComposite in2="SourceAlpha" operator="in" result="effect1_backgroundBlur_13685_23900"/>
<feBlend mode="normal" in="SourceGraphic" in2="effect1_backgroundBlur_13685_23900" result="shape"/>
</filter>
<filter id="filter34_b_13685_23900" x="550" y="387" width="57" height="57" filterUnits="userSpaceOnUse" color-interpolation-filters="sRGB">
<feFlood flood-opacity="0" result="BackgroundImageFix"/>
<feGaussianBlur in="BackgroundImageFix" stdDeviation="12"/>
<feComposite in2="SourceAlpha" operator="in" result="effect1_backgroundBlur_13685_23900"/>
<feBlend mode="normal" in="SourceGraphic" in2="effect1_backgroundBlur_13685_23900" result="shape"/>
</filter>
<filter id="filter35_b_13685_23900" x="422" y="387" width="57" height="57" filterUnits="userSpaceOnUse" color-interpolation-filters="sRGB">
<feFlood flood-opacity="0" result="BackgroundImageFix"/>
<feGaussianBlur in="BackgroundImageFix" stdDeviation="12"/>
<feComposite in2="SourceAlpha" operator="in" result="effect1_backgroundBlur_13685_23900"/>
<feBlend mode="normal" in="SourceGraphic" in2="effect1_backgroundBlur_13685_23900" result="shape"/>
</filter>
<clipPath id="clip0_13685_23900">
<rect width="1028" height="478" fill="white"/>
</clipPath>
<clipPath id="clip1_13685_23900">
<rect width="1028" height="478" fill="white"/>
</clipPath>
</defs>
</svg>
