<svg width="340" height="166" viewBox="0 0 340 166" fill="none" xmlns="http://www.w3.org/2000/svg">
<mask id="mask0_20767_20552" style="mask-type:alpha" maskUnits="userSpaceOnUse" x="0" y="0" width="340" height="166">
<rect width="340" height="166" fill="url(#paint0_linear_20767_20552)"/>
</mask>
<g mask="url(#mask0_20767_20552)">
<rect width="308" height="134" transform="translate(16 16)" fill="#151618"/>
<rect x="24.5" y="24.5" width="141" height="77" rx="7.5" fill="#21252B"/>
<rect x="24.5" y="24.5" width="141" height="77" rx="7.5" stroke="#2A3037"/>
<path d="M111 40C111.552 40 112 40.4477 112 41C112 41.5523 111.552 42 111 42C109.737 42 108.83 42.5954 108.057 43.6523C107.251 44.754 106.66 46.2698 106.082 47.9287C105.528 49.5189 104.974 51.2847 104.246 52.6162C103.516 53.9511 102.42 55.1981 100.646 55.1982C99.0735 55.1982 97.8113 54.3793 96.8262 53.7715C95.76 53.1138 94.9383 52.6427 93.9521 52.6426C93.1965 52.6426 92.4593 52.8984 91.6719 53.3398C90.8663 53.7914 90.1036 54.3781 89.2324 55.0049C87.598 56.1808 85.536 57.5545 82.9883 56.7969C82.1285 56.5412 81.3853 56.057 80.7451 55.5684C80.4227 55.3222 80.1101 55.0618 79.8164 54.8164C79.5169 54.5662 79.2375 54.3318 78.958 54.1152C77.8305 53.2414 77.0005 52.8894 75.9658 53.3154C75.2045 53.6289 74.5036 54.4242 73.7656 55.6533C73.4077 56.2495 73.0668 56.9023 72.7148 57.585C72.368 58.2577 72.0079 58.9649 71.6309 59.625C70.8995 60.9053 69.9841 62.2373 68.6875 62.8857C67.2599 63.5997 65.6518 63.3706 63.8779 62.1836C61.8712 60.8408 59.0953 59.1491 56.3486 58.1641C53.5408 57.1571 51.113 57.0112 49.4902 58.2178C48.526 58.9348 47.6409 59.7509 46.751 60.5996C45.8744 61.4356 44.9747 62.322 44.04 63.1074C42.1461 64.6989 39.9667 66 37 66C36.4477 66 36 65.5523 36 65C36 64.4477 36.4477 64 37 64C39.3002 64 41.0345 63.021 42.7539 61.5762C43.6259 60.8434 44.4584 60.0219 45.3701 59.1523C46.2684 58.2956 47.2279 57.4071 48.2969 56.6123C50.7828 54.764 54.1015 55.233 57.0244 56.2812C60.0084 57.3514 62.9486 59.1553 64.9902 60.5215C66.3832 61.4536 67.2119 61.3873 67.793 61.0967C68.505 60.7405 69.1707 59.9008 69.8945 58.6338C70.2451 58.0202 70.5817 57.3592 70.9375 56.6689C71.2882 55.9887 71.6554 55.2825 72.0508 54.624C72.8194 53.3438 73.8027 52.044 75.2041 51.4668C77.2958 50.6054 78.9361 51.5682 80.1836 52.5352C80.4979 52.7788 80.8074 53.0379 81.0986 53.2812C81.3955 53.5293 81.6763 53.7627 81.959 53.9785C82.5295 54.414 83.044 54.7268 83.5586 54.8799C85.0668 55.3283 86.364 54.6043 88.0645 53.3809C88.8609 52.8079 89.7602 52.1193 90.6943 51.5957C91.6465 51.0619 92.7278 50.6426 93.9521 50.6426C95.5862 50.6427 96.8707 51.4492 97.876 52.0693C98.9625 52.7397 99.7381 53.1982 100.646 53.1982C101.293 53.1981 101.868 52.7958 102.491 51.6562C103.116 50.5133 103.598 48.9796 104.193 47.2705C104.765 45.6297 105.438 43.8448 106.442 42.4717C107.479 41.0539 108.929 40 111 40Z" fill="url(#paint1_linear_20767_20552)"/>
<rect x="120.5" y="36.5" width="33" height="33" rx="2.5" fill="url(#paint2_linear_20767_20552)" stroke="#2A3037"/>
<path d="M128 53C128 52.4477 128.448 52 129 52H130C130.552 52 131 52.4477 131 53V61C131 61.5523 130.552 62 130 62H129C128.448 62 128 61.5523 128 61L128 53Z" fill="url(#paint3_radial_20767_20552)"/>
<path d="M133 48C133 47.4477 133.448 47 134 47H135C135.552 47 136 47.4477 136 48V61C136 61.5523 135.552 62 135 62H134C133.448 62 133 61.5523 133 61V48Z" fill="url(#paint4_radial_20767_20552)"/>
<path d="M138 56C138 55.4477 138.448 55 139 55H140C140.552 55 141 55.4477 141 56V61C141 61.5523 140.552 62 140 62H139C138.448 62 138 61.5523 138 61V56Z" fill="url(#paint5_radial_20767_20552)"/>
<path d="M143 45C143 44.4477 143.448 44 144 44H145C145.552 44 146 44.4477 146 45V61C146 61.5523 145.552 62 145 62H144C143.448 62 143 61.5523 143 61V45Z" fill="url(#paint6_radial_20767_20552)"/>
<rect x="36.5" y="80.5" width="33" height="9" rx="2.5" fill="url(#paint7_linear_20767_20552)" stroke="#2A3037"/>
<rect x="78.5" y="80.5" width="33" height="9" rx="2.5" fill="url(#paint8_linear_20767_20552)" stroke="#2A3037"/>
<rect x="120.5" y="80.5" width="33" height="9" rx="2.5" fill="url(#paint9_linear_20767_20552)" stroke="#2A3037"/>
<rect x="174.5" y="24.5" width="141" height="77" rx="7.5" fill="#21252B"/>
<rect x="174.5" y="24.5" width="141" height="77" rx="7.5" stroke="#2A3037"/>
<path d="M193 38.5L190 41.5L187 38.5" stroke="#67707E" stroke-miterlimit="16" stroke-linecap="round" stroke-linejoin="round"/>
<path d="M206.761 43.61C206.123 43.61 205.621 43.4487 205.254 43.126C204.887 42.796 204.704 42.3523 204.704 41.795C204.704 41.2303 204.887 40.7867 205.254 40.464C205.628 40.1413 206.13 39.98 206.761 39.98H208.598V39.375C208.598 39.0083 208.488 38.726 208.268 38.528C208.048 38.33 207.736 38.231 207.333 38.231C206.981 38.231 206.684 38.3043 206.442 38.451C206.207 38.5977 206.072 38.7993 206.035 39.056H205.012C205.078 38.5353 205.324 38.121 205.749 37.813C206.182 37.4977 206.717 37.34 207.355 37.34C208.059 37.34 208.613 37.5197 209.016 37.879C209.419 38.2383 209.621 38.726 209.621 39.342V43.5H208.631V42.356H208.455L208.631 42.18C208.631 42.62 208.459 42.9683 208.114 43.225C207.777 43.4817 207.326 43.61 206.761 43.61ZM207.014 42.807C207.483 42.807 207.865 42.6933 208.158 42.466C208.451 42.2313 208.598 41.9343 208.598 41.575V40.717H206.783C206.46 40.717 206.204 40.8087 206.013 40.992C205.822 41.1753 205.727 41.421 205.727 41.729C205.727 42.0663 205.841 42.3303 206.068 42.521C206.295 42.7117 206.611 42.807 207.014 42.807ZM211.597 45.48V37.45H212.609V38.605H212.818L212.609 38.847C212.609 38.3777 212.759 38.011 213.06 37.747C213.368 37.4757 213.771 37.34 214.27 37.34C214.878 37.34 215.362 37.5417 215.722 37.945C216.088 38.341 216.272 38.8873 216.272 39.584V41.355C216.272 41.817 216.187 42.2167 216.019 42.554C215.857 42.8913 215.626 43.1517 215.326 43.335C215.032 43.5183 214.68 43.61 214.27 43.61C213.778 43.61 213.379 43.4743 213.071 43.203C212.763 42.9317 212.609 42.565 212.609 42.103L212.818 42.345H212.587L212.62 43.72V45.48H211.597ZM213.929 42.73C214.339 42.73 214.662 42.609 214.897 42.367C215.131 42.1177 215.249 41.762 215.249 41.3V39.65C215.249 39.188 215.131 38.836 214.897 38.594C214.662 38.3447 214.339 38.22 213.929 38.22C213.533 38.22 213.214 38.3483 212.972 38.605C212.737 38.8543 212.62 39.2027 212.62 39.65V41.3C212.62 41.7473 212.737 42.0993 212.972 42.356C213.214 42.6053 213.533 42.73 213.929 42.73ZM218.192 45.48V37.45H219.204V38.605H219.413L219.204 38.847C219.204 38.3777 219.355 38.011 219.655 37.747C219.963 37.4757 220.367 37.34 220.865 37.34C221.474 37.34 221.958 37.5417 222.317 37.945C222.684 38.341 222.867 38.8873 222.867 39.584V41.355C222.867 41.817 222.783 42.2167 222.614 42.554C222.453 42.8913 222.222 43.1517 221.921 43.335C221.628 43.5183 221.276 43.61 220.865 43.61C220.374 43.61 219.974 43.4743 219.666 43.203C219.358 42.9317 219.204 42.565 219.204 42.103L219.413 42.345H219.182L219.215 43.72V45.48H218.192ZM220.524 42.73C220.935 42.73 221.258 42.609 221.492 42.367C221.727 42.1177 221.844 41.762 221.844 41.3V39.65C221.844 39.188 221.727 38.836 221.492 38.594C221.258 38.3447 220.935 38.22 220.524 38.22C220.128 38.22 219.809 38.3483 219.567 38.605C219.333 38.8543 219.215 39.2027 219.215 39.65V41.3C219.215 41.7473 219.333 42.0993 219.567 42.356C219.809 42.6053 220.128 42.73 220.524 42.73Z" fill="#979FAA"/>
<path d="M205.5 58.25V59C205.5 59.7071 205.5 60.0607 205.72 60.2803C205.939 60.5 206.293 60.5 207 60.5H207.75M202 62.5H206M202 64H206M202 65.5H204.085M200 65V61C200 59.5858 200 58.8787 200.439 58.4393C200.879 58 201.586 58 203 58H205.086C205.29 58 205.392 58 205.484 58.0381C205.576 58.0761 205.648 58.1484 205.793 58.2929L207.707 60.2071C207.852 60.3516 207.924 60.4239 207.962 60.5158C208 60.6076 208 60.7098 208 60.9142V65C208 66.4142 208 67.1213 207.561 67.5606C207.121 68 206.414 68 205 68H203C201.586 68 200.879 68 200.439 67.5606C200 67.1213 200 66.4142 200 65Z" stroke="#67707E" stroke-linecap="round" stroke-linejoin="round"/>
<path d="M220.761 66.61C220.123 66.61 219.621 66.4487 219.254 66.126C218.887 65.796 218.704 65.3523 218.704 64.795C218.704 64.2303 218.887 63.7867 219.254 63.464C219.628 63.1413 220.13 62.98 220.761 62.98H222.598V62.375C222.598 62.0083 222.488 61.726 222.268 61.528C222.048 61.33 221.736 61.231 221.333 61.231C220.981 61.231 220.684 61.3043 220.442 61.451C220.207 61.5977 220.072 61.7993 220.035 62.056H219.012C219.078 61.5353 219.324 61.121 219.749 60.813C220.182 60.4977 220.717 60.34 221.355 60.34C222.059 60.34 222.613 60.5197 223.016 60.879C223.419 61.2383 223.621 61.726 223.621 62.342V66.5H222.631V65.356H222.455L222.631 65.18C222.631 65.62 222.459 65.9683 222.114 66.225C221.777 66.4817 221.326 66.61 220.761 66.61ZM221.014 65.807C221.483 65.807 221.865 65.6933 222.158 65.466C222.451 65.2313 222.598 64.9343 222.598 64.575V63.717H220.783C220.46 63.717 220.204 63.8087 220.013 63.992C219.822 64.1753 219.727 64.421 219.727 64.729C219.727 65.0663 219.841 65.3303 220.068 65.521C220.295 65.7117 220.611 65.807 221.014 65.807ZM225.597 68.48V60.45H226.609V61.605H226.818L226.609 61.847C226.609 61.3777 226.759 61.011 227.06 60.747C227.368 60.4757 227.771 60.34 228.27 60.34C228.878 60.34 229.362 60.5417 229.722 60.945C230.088 61.341 230.272 61.8873 230.272 62.584V64.355C230.272 64.817 230.187 65.2167 230.019 65.554C229.857 65.8913 229.626 66.1517 229.326 66.335C229.032 66.5183 228.68 66.61 228.27 66.61C227.778 66.61 227.379 66.4743 227.071 66.203C226.763 65.9317 226.609 65.565 226.609 65.103L226.818 65.345H226.587L226.62 66.72V68.48H225.597ZM227.929 65.73C228.339 65.73 228.662 65.609 228.897 65.367C229.131 65.1177 229.249 64.762 229.249 64.3V62.65C229.249 62.188 229.131 61.836 228.897 61.594C228.662 61.3447 228.339 61.22 227.929 61.22C227.533 61.22 227.214 61.3483 226.972 61.605C226.737 61.8543 226.62 62.2027 226.62 62.65V64.3C226.62 64.7473 226.737 65.0993 226.972 65.356C227.214 65.6053 227.533 65.73 227.929 65.73ZM232.192 68.48V60.45H233.204V61.605H233.413L233.204 61.847C233.204 61.3777 233.355 61.011 233.655 60.747C233.963 60.4757 234.367 60.34 234.865 60.34C235.474 60.34 235.958 60.5417 236.317 60.945C236.684 61.341 236.867 61.8873 236.867 62.584V64.355C236.867 64.817 236.783 65.2167 236.614 65.554C236.453 65.8913 236.222 66.1517 235.921 66.335C235.628 66.5183 235.276 66.61 234.865 66.61C234.374 66.61 233.974 66.4743 233.666 66.203C233.358 65.9317 233.204 65.565 233.204 65.103L233.413 65.345H233.182L233.215 66.72V68.48H232.192ZM234.524 65.73C234.935 65.73 235.258 65.609 235.492 65.367C235.727 65.1177 235.844 64.762 235.844 64.3V62.65C235.844 62.188 235.727 61.836 235.492 61.594C235.258 61.3447 234.935 61.22 234.524 61.22C234.128 61.22 233.809 61.3483 233.567 61.605C233.333 61.8543 233.215 62.2027 233.215 62.65V64.3C233.215 64.7473 233.333 65.0993 233.567 65.356C233.809 65.6053 234.128 65.73 234.524 65.73ZM241.087 66.61C240.808 66.61 240.585 66.5293 240.416 66.368C240.247 66.2067 240.163 65.9867 240.163 65.708C240.163 65.422 240.247 65.1947 240.416 65.026C240.585 64.85 240.808 64.762 241.087 64.762C241.366 64.762 241.589 64.85 241.758 65.026C241.927 65.1947 242.011 65.422 242.011 65.708C242.011 65.9867 241.927 66.2067 241.758 66.368C241.589 66.5293 241.366 66.61 241.087 66.61ZM245.384 68.48V60.45H246.396V61.605H246.605L246.396 61.847C246.396 61.3777 246.546 61.011 246.847 60.747C247.155 60.4757 247.558 60.34 248.057 60.34C248.665 60.34 249.149 60.5417 249.509 60.945C249.875 61.341 250.059 61.8873 250.059 62.584V64.355C250.059 64.817 249.974 65.2167 249.806 65.554C249.644 65.8913 249.413 66.1517 249.113 66.335C248.819 66.5183 248.467 66.61 248.057 66.61C247.565 66.61 247.166 66.4743 246.858 66.203C246.55 65.9317 246.396 65.565 246.396 65.103L246.605 65.345H246.374L246.407 66.72V68.48H245.384ZM247.716 65.73C248.126 65.73 248.449 65.609 248.684 65.367C248.918 65.1177 249.036 64.762 249.036 64.3V62.65C249.036 62.188 248.918 61.836 248.684 61.594C248.449 61.3447 248.126 61.22 247.716 61.22C247.32 61.22 247.001 61.3483 246.759 61.605C246.524 61.8543 246.407 62.2027 246.407 62.65V64.3C246.407 64.7473 246.524 65.0993 246.759 65.356C247.001 65.6053 247.32 65.73 247.716 65.73ZM252.926 68.48L253.817 66.126L251.573 60.45H252.706L254.092 64.146C254.143 64.2707 254.191 64.421 254.235 64.597C254.279 64.773 254.315 64.9233 254.345 65.048C254.374 64.9233 254.411 64.773 254.455 64.597C254.499 64.421 254.543 64.2707 254.587 64.146L255.896 60.45H256.985L254.015 68.48H252.926Z" fill="#979FAA"/>
<path d="M202.5 83L205.5 86L202.5 89" stroke="#67707E" stroke-miterlimit="16" stroke-linecap="round" stroke-linejoin="round"/>
<path d="M221.344 89.61C220.86 89.61 220.435 89.5183 220.068 89.335C219.701 89.1517 219.419 88.8877 219.221 88.543C219.023 88.191 218.924 87.7767 218.924 87.3V85.65C218.924 85.166 219.023 84.7517 219.221 84.407C219.419 84.0623 219.701 83.7983 220.068 83.615C220.435 83.4317 220.86 83.34 221.344 83.34C222.048 83.34 222.613 83.527 223.038 83.901C223.463 84.275 223.687 84.7883 223.709 85.441H222.697C222.675 85.0523 222.543 84.7553 222.301 84.55C222.066 84.3447 221.747 84.242 221.344 84.242C220.919 84.242 220.578 84.363 220.321 84.605C220.072 84.847 219.947 85.1917 219.947 85.639V87.3C219.947 87.7473 220.072 88.0957 220.321 88.345C220.578 88.587 220.919 88.708 221.344 88.708C221.747 88.708 222.066 88.6053 222.301 88.4C222.543 88.1873 222.675 87.8903 222.697 87.509H223.709C223.687 88.1617 223.463 88.675 223.038 89.049C222.613 89.423 222.048 89.61 221.344 89.61ZM227.896 89.588C227.412 89.588 226.99 89.4963 226.631 89.313C226.279 89.1297 226.004 88.8657 225.806 88.521C225.615 88.169 225.52 87.7547 225.52 87.278V85.672C225.52 85.188 225.615 84.7737 225.806 84.429C226.004 84.0843 226.279 83.8203 226.631 83.637C226.99 83.4537 227.412 83.362 227.896 83.362C228.38 83.362 228.798 83.4537 229.15 83.637C229.509 83.8203 229.784 84.0843 229.975 84.429C230.173 84.7737 230.272 85.1843 230.272 85.661V87.278C230.272 87.7547 230.173 88.169 229.975 88.521C229.784 88.8657 229.509 89.1297 229.15 89.313C228.798 89.4963 228.38 89.588 227.896 89.588ZM227.896 88.686C228.321 88.686 228.651 88.5687 228.886 88.334C229.128 88.092 229.249 87.74 229.249 87.278V85.672C229.249 85.21 229.128 84.8617 228.886 84.627C228.651 84.385 228.321 84.264 227.896 84.264C227.478 84.264 227.148 84.385 226.906 84.627C226.664 84.8617 226.543 85.21 226.543 85.672V87.278C226.543 87.74 226.664 88.092 226.906 88.334C227.148 88.5687 227.478 88.686 227.896 88.686ZM231.906 89.5V83.45H232.797V84.187H232.995L232.841 84.44C232.841 84.1027 232.929 83.835 233.105 83.637C233.289 83.439 233.534 83.34 233.842 83.34C234.18 83.34 234.44 83.4647 234.623 83.714C234.807 83.9633 234.898 84.3153 234.898 84.77L234.601 84.187H235.052L234.854 84.44C234.854 84.1027 234.946 83.835 235.129 83.637C235.32 83.439 235.569 83.34 235.877 83.34C236.259 83.34 236.552 83.483 236.757 83.769C236.97 84.055 237.076 84.4327 237.076 84.902V89.5H236.141V84.891C236.141 84.649 236.086 84.4583 235.976 84.319C235.874 84.1797 235.723 84.11 235.525 84.11C235.327 84.11 235.173 84.1797 235.063 84.319C234.953 84.451 234.898 84.638 234.898 84.88V89.5H234.084V84.891C234.084 84.6417 234.029 84.451 233.919 84.319C233.809 84.1797 233.652 84.11 233.446 84.11C233.248 84.11 233.098 84.1797 232.995 84.319C232.893 84.451 232.841 84.638 232.841 84.88V89.5H231.906ZM238.788 91.48V83.45H239.8V84.605H240.009L239.8 84.847C239.8 84.3777 239.95 84.011 240.251 83.747C240.559 83.4757 240.962 83.34 241.461 83.34C242.07 83.34 242.554 83.5417 242.913 83.945C243.28 84.341 243.463 84.8873 243.463 85.584V87.355C243.463 87.817 243.379 88.2167 243.21 88.554C243.049 88.8913 242.818 89.1517 242.517 89.335C242.224 89.5183 241.872 89.61 241.461 89.61C240.97 89.61 240.57 89.4743 240.262 89.203C239.954 88.9317 239.8 88.565 239.8 88.103L240.009 88.345H239.778L239.811 89.72V91.48H238.788ZM241.12 88.73C241.531 88.73 241.853 88.609 242.088 88.367C242.323 88.1177 242.44 87.762 242.44 87.3V85.65C242.44 85.188 242.323 84.836 242.088 84.594C241.853 84.3447 241.531 84.22 241.12 84.22C240.724 84.22 240.405 84.3483 240.163 84.605C239.928 84.8543 239.811 85.2027 239.811 85.65V87.3C239.811 87.7473 239.928 88.0993 240.163 88.356C240.405 88.6053 240.724 88.73 241.12 88.73ZM247.683 89.588C247.199 89.588 246.777 89.4963 246.418 89.313C246.066 89.1297 245.791 88.8657 245.593 88.521C245.402 88.169 245.307 87.7547 245.307 87.278V85.672C245.307 85.188 245.402 84.7737 245.593 84.429C245.791 84.0843 246.066 83.8203 246.418 83.637C246.777 83.4537 247.199 83.362 247.683 83.362C248.167 83.362 248.585 83.4537 248.937 83.637C249.296 83.8203 249.571 84.0843 249.762 84.429C249.96 84.7737 250.059 85.1843 250.059 85.661V87.278C250.059 87.7547 249.96 88.169 249.762 88.521C249.571 88.8657 249.296 89.1297 248.937 89.313C248.585 89.4963 248.167 89.588 247.683 89.588ZM247.683 88.686C248.108 88.686 248.438 88.5687 248.673 88.334C248.915 88.092 249.036 87.74 249.036 87.278V85.672C249.036 85.21 248.915 84.8617 248.673 84.627C248.438 84.385 248.108 84.264 247.683 84.264C247.265 84.264 246.935 84.385 246.693 84.627C246.451 84.8617 246.33 85.21 246.33 85.672V87.278C246.33 87.74 246.451 88.092 246.693 88.334C246.935 88.5687 247.265 88.686 247.683 88.686ZM251.98 89.5V83.45H252.992V84.605H253.212L252.992 84.847C252.992 84.363 253.135 83.9927 253.421 83.736C253.707 83.472 254.103 83.34 254.609 83.34C255.217 83.34 255.701 83.527 256.061 83.901C256.42 84.275 256.6 84.7883 256.6 85.441V89.5H255.577V85.551C255.577 85.1257 255.463 84.7993 255.236 84.572C255.008 84.3373 254.7 84.22 254.312 84.22C253.908 84.22 253.589 84.3447 253.355 84.594C253.12 84.836 253.003 85.188 253.003 85.65V89.5H251.98ZM260.874 89.61C260.398 89.61 259.98 89.5147 259.62 89.324C259.261 89.1333 258.982 88.8657 258.784 88.521C258.594 88.169 258.498 87.762 258.498 87.3V85.65C258.498 85.1807 258.594 84.7737 258.784 84.429C258.982 84.0843 259.261 83.8167 259.62 83.626C259.98 83.4353 260.398 83.34 260.874 83.34C261.351 83.34 261.769 83.4353 262.128 83.626C262.488 83.8167 262.763 84.0843 262.953 84.429C263.151 84.7737 263.25 85.1807 263.25 85.65V86.728H259.488V87.3C259.488 87.7693 259.609 88.1287 259.851 88.378C260.093 88.6273 260.434 88.752 260.874 88.752C261.248 88.752 261.549 88.686 261.776 88.554C262.011 88.422 262.154 88.224 262.205 87.96H263.228C263.162 88.466 262.913 88.8693 262.48 89.17C262.048 89.4633 261.512 89.61 260.874 89.61ZM262.26 86.057V85.65C262.26 85.1807 262.139 84.8213 261.897 84.572C261.663 84.3153 261.322 84.187 260.874 84.187C260.434 84.187 260.093 84.3153 259.851 84.572C259.609 84.8213 259.488 85.1807 259.488 85.65V85.969H262.337L262.26 86.057ZM265.171 89.5V83.45H266.183V84.605H266.403L266.183 84.847C266.183 84.363 266.326 83.9927 266.612 83.736C266.898 83.472 267.294 83.34 267.8 83.34C268.409 83.34 268.893 83.527 269.252 83.901C269.611 84.275 269.791 84.7883 269.791 85.441V89.5H268.768V85.551C268.768 85.1257 268.654 84.7993 268.427 84.572C268.2 84.3373 267.892 84.22 267.503 84.22C267.1 84.22 266.781 84.3447 266.546 84.594C266.311 84.836 266.194 85.188 266.194 85.65V89.5H265.171ZM274.726 89.5C274.198 89.5 273.787 89.3607 273.494 89.082C273.208 88.796 273.065 88.3963 273.065 87.883V84.374H271.36V83.45H273.065V81.745H274.077V83.45H276.497V84.374H274.077V87.883C274.077 88.345 274.297 88.576 274.737 88.576H276.387V89.5H274.726ZM280.474 89.588C280.056 89.588 279.693 89.5257 279.385 89.401C279.077 89.269 278.832 89.0857 278.648 88.851C278.472 88.609 278.366 88.3267 278.329 88.004H279.352C279.396 88.2167 279.514 88.3853 279.704 88.51C279.895 88.6273 280.152 88.686 280.474 88.686H280.936C281.318 88.686 281.604 88.609 281.794 88.455C281.985 88.301 282.08 88.092 282.08 87.828C282.08 87.5787 281.992 87.3807 281.816 87.234C281.648 87.08 281.398 86.981 281.068 86.937L280.254 86.805C279.653 86.7023 279.206 86.519 278.912 86.255C278.619 85.9837 278.472 85.5877 278.472 85.067C278.472 84.5243 278.645 84.1063 278.989 83.813C279.341 83.5123 279.866 83.362 280.562 83.362H280.98C281.567 83.362 282.036 83.5013 282.388 83.78C282.748 84.0513 282.96 84.418 283.026 84.88H282.014C281.97 84.6893 281.86 84.539 281.684 84.429C281.508 84.319 281.274 84.264 280.98 84.264H280.562C280.188 84.264 279.917 84.3337 279.748 84.473C279.58 84.605 279.495 84.8067 279.495 85.078C279.495 85.3273 279.565 85.5107 279.704 85.628C279.851 85.7453 280.082 85.826 280.397 85.87L281.211 86.002C281.864 86.1047 282.341 86.2953 282.641 86.574C282.942 86.8527 283.092 87.2597 283.092 87.795C283.092 88.3523 282.913 88.7923 282.553 89.115C282.194 89.4303 281.655 89.588 280.936 89.588H280.474Z" fill="#979FAA"/>
<rect x="24.5" y="110.5" width="291" height="31" rx="7.5" fill="#21252B"/>
<rect x="24.5" y="110.5" width="291" height="31" rx="7.5" stroke="#2A3037"/>
<path d="M37.9805 130V128.896H40.2365C40.9165 128.896 41.4965 128.76 41.9765 128.488C42.4645 128.208 42.8365 127.824 43.0925 127.336C43.3565 126.84 43.4885 126.272 43.4885 125.632C43.4885 125 43.3605 124.448 43.1045 123.976C42.8485 123.496 42.4765 123.124 41.9885 122.86C41.5085 122.596 40.9245 122.464 40.2365 122.464H37.9925V121.36H40.2365C41.1725 121.36 41.9845 121.536 42.6725 121.888C43.3685 122.24 43.9045 122.74 44.2805 123.388C44.6645 124.028 44.8565 124.784 44.8565 125.656C44.8565 126.528 44.6645 127.292 44.2805 127.948C43.8965 128.596 43.3605 129.1 42.6725 129.46C41.9845 129.82 41.1765 130 40.2485 130H37.9805ZM37.1645 130V121.36H38.5085V130H37.1645ZM49.9099 130C49.8699 129.848 49.8419 129.68 49.8259 129.496C49.8099 129.304 49.8019 129.076 49.8019 128.812H49.7539V125.896C49.7539 125.52 49.6579 125.24 49.4659 125.056C49.2739 124.872 48.9739 124.78 48.5659 124.78C48.1659 124.78 47.8459 124.856 47.6059 125.008C47.3739 125.16 47.2379 125.376 47.1979 125.656H45.9379C45.9939 125.088 46.2579 124.632 46.7299 124.288C47.2019 123.936 47.8299 123.76 48.6139 123.76C49.4219 123.76 50.0299 123.948 50.4379 124.324C50.8459 124.692 51.0499 125.24 51.0499 125.968V128.812C51.0499 128.996 51.0619 129.188 51.0859 129.388C51.1099 129.58 51.1459 129.784 51.1939 130H49.9099ZM47.7979 130.12C47.1739 130.12 46.6779 129.968 46.3099 129.664C45.9419 129.352 45.7579 128.932 45.7579 128.404C45.7579 127.86 45.9539 127.428 46.3459 127.108C46.7459 126.788 47.3099 126.572 48.0379 126.46L50.0299 126.148V127.048L48.2419 127.324C47.8499 127.38 47.5539 127.484 47.3539 127.636C47.1539 127.788 47.0539 128.004 47.0539 128.284C47.0539 128.548 47.1459 128.748 47.3299 128.884C47.5139 129.02 47.7779 129.088 48.1219 129.088C48.5939 129.088 48.9819 128.976 49.2859 128.752C49.5979 128.528 49.7539 128.244 49.7539 127.9L49.9099 128.8C49.7659 129.224 49.5099 129.552 49.1419 129.784C48.7739 130.008 48.3259 130.12 47.7979 130.12ZM54.8538 130.12C54.0458 130.12 53.4018 129.944 52.9218 129.592C52.4418 129.24 52.1698 128.744 52.1058 128.104H53.3178C53.3658 128.448 53.5218 128.712 53.7858 128.896C54.0578 129.072 54.4218 129.16 54.8778 129.16C55.2778 129.16 55.5818 129.092 55.7898 128.956C56.0058 128.812 56.1138 128.612 56.1138 128.356C56.1138 128.172 56.0538 128.02 55.9338 127.9C55.8138 127.772 55.5778 127.664 55.2258 127.576L54.2418 127.348C53.6098 127.196 53.1418 126.972 52.8378 126.676C52.5338 126.372 52.3818 125.996 52.3818 125.548C52.3818 124.996 52.5898 124.56 53.0058 124.24C53.4218 123.92 53.9978 123.76 54.7338 123.76C55.4618 123.76 56.0458 123.92 56.4858 124.24C56.9258 124.56 57.1738 125.008 57.2298 125.584H56.0178C55.9698 125.304 55.8338 125.092 55.6098 124.948C55.3858 124.796 55.0818 124.72 54.6978 124.72C54.3378 124.72 54.0618 124.784 53.8698 124.912C53.6778 125.032 53.5818 125.208 53.5818 125.44C53.5818 125.624 53.6538 125.776 53.7978 125.896C53.9418 126.016 54.1818 126.12 54.5178 126.208L55.5378 126.46C56.1298 126.604 56.5738 126.84 56.8698 127.168C57.1738 127.496 57.3258 127.884 57.3258 128.332C57.3258 128.9 57.1098 129.34 56.6778 129.652C56.2458 129.964 55.6378 130.12 54.8538 130.12ZM58.4578 130V121.36H59.7658V130H58.4578ZM62.7778 130V126.088C62.7778 125.672 62.6738 125.364 62.4658 125.164C62.2658 124.956 61.9618 124.852 61.5538 124.852C61.2098 124.852 60.9018 124.932 60.6298 125.092C60.3578 125.244 60.1458 125.46 59.9938 125.74C59.8418 126.012 59.7658 126.332 59.7658 126.7L59.6098 125.236C59.8098 124.78 60.1138 124.42 60.5218 124.156C60.9378 123.892 61.4258 123.76 61.9858 123.76C62.6418 123.76 63.1578 123.948 63.5338 124.324C63.9098 124.692 64.0978 125.18 64.0978 125.788V130H62.7778ZM69.0588 130.108C68.4828 130.108 68.0028 129.972 67.6188 129.7C67.2428 129.42 66.9988 129.032 66.8868 128.536L67.0068 128.524V130H65.7468V121.36H67.0548V125.272L66.9348 125.248C67.0548 124.784 67.3108 124.42 67.7028 124.156C68.1028 123.892 68.5868 123.76 69.1548 123.76C69.6988 123.76 70.1708 123.892 70.5708 124.156C70.9788 124.42 71.2948 124.788 71.5188 125.26C71.7428 125.732 71.8548 126.284 71.8548 126.916C71.8548 127.556 71.7388 128.116 71.5068 128.596C71.2748 129.076 70.9508 129.448 70.5348 129.712C70.1188 129.976 69.6268 130.108 69.0588 130.108ZM68.7708 129.028C69.2988 129.028 69.7188 128.844 70.0308 128.476C70.3428 128.1 70.4988 127.58 70.4988 126.916C70.4988 126.268 70.3428 125.764 70.0308 125.404C69.7188 125.036 69.2948 124.852 68.7588 124.852C68.2308 124.852 67.8068 125.036 67.4868 125.404C67.1748 125.772 67.0188 126.288 67.0188 126.952C67.0188 127.6 67.1748 128.108 67.4868 128.476C67.8068 128.844 68.2348 129.028 68.7708 129.028ZM75.8645 130.12C75.2325 130.12 74.6765 129.984 74.1965 129.712C73.7245 129.432 73.3565 129.052 73.0925 128.572C72.8285 128.084 72.6965 127.532 72.6965 126.916C72.6965 126.292 72.8285 125.744 73.0925 125.272C73.3645 124.8 73.7365 124.432 74.2085 124.168C74.6805 123.896 75.2325 123.76 75.8645 123.76C76.5045 123.76 77.0605 123.896 77.5325 124.168C78.0125 124.432 78.3845 124.8 78.6485 125.272C78.9125 125.744 79.0445 126.292 79.0445 126.916C79.0445 127.532 78.9085 128.084 78.6365 128.572C78.3725 129.052 78.0045 129.432 77.5325 129.712C77.0605 129.984 76.5045 130.12 75.8645 130.12ZM75.8645 129.052C76.2245 129.052 76.5405 128.964 76.8125 128.788C77.0845 128.604 77.2965 128.352 77.4485 128.032C77.6085 127.712 77.6885 127.336 77.6885 126.904C77.6885 126.264 77.5165 125.76 77.1725 125.392C76.8365 125.016 76.4005 124.828 75.8645 124.828C75.3365 124.828 74.9005 125.016 74.5565 125.392C74.2205 125.76 74.0525 126.264 74.0525 126.904C74.0525 127.336 74.1285 127.712 74.2805 128.032C74.4325 128.352 74.6445 128.604 74.9165 128.788C75.1965 128.964 75.5125 129.052 75.8645 129.052ZM84.0583 130C84.0183 129.848 83.9903 129.68 83.9743 129.496C83.9583 129.304 83.9503 129.076 83.9503 128.812H83.9023V125.896C83.9023 125.52 83.8063 125.24 83.6143 125.056C83.4223 124.872 83.1223 124.78 82.7143 124.78C82.3143 124.78 81.9943 124.856 81.7543 125.008C81.5223 125.16 81.3863 125.376 81.3463 125.656H80.0863C80.1423 125.088 80.4063 124.632 80.8783 124.288C81.3503 123.936 81.9783 123.76 82.7623 123.76C83.5703 123.76 84.1783 123.948 84.5863 124.324C84.9943 124.692 85.1983 125.24 85.1983 125.968V128.812C85.1983 128.996 85.2103 129.188 85.2343 129.388C85.2583 129.58 85.2943 129.784 85.3423 130H84.0583ZM81.9463 130.12C81.3223 130.12 80.8263 129.968 80.4583 129.664C80.0903 129.352 79.9063 128.932 79.9063 128.404C79.9063 127.86 80.1023 127.428 80.4943 127.108C80.8943 126.788 81.4583 126.572 82.1863 126.46L84.1783 126.148V127.048L82.3903 127.324C81.9983 127.38 81.7023 127.484 81.5023 127.636C81.3023 127.788 81.2023 128.004 81.2023 128.284C81.2023 128.548 81.2943 128.748 81.4783 128.884C81.6623 129.02 81.9263 129.088 82.2703 129.088C82.7423 129.088 83.1303 128.976 83.4343 128.752C83.7463 128.528 83.9023 128.244 83.9023 127.9L84.0583 128.8C83.9143 129.224 83.6583 129.552 83.2903 129.784C82.9223 130.008 82.4743 130.12 81.9463 130.12ZM86.8523 130V123.88H88.1123V125.392H88.1603V130H86.8523ZM88.1603 126.808L88.0043 125.356C88.1483 124.836 88.3963 124.44 88.7483 124.168C89.1003 123.896 89.5163 123.76 89.9963 123.76C90.1803 123.76 90.3083 123.776 90.3803 123.808V125.044C90.3403 125.028 90.2843 125.02 90.2123 125.02C90.1403 125.012 90.0523 125.008 89.9483 125.008C89.3483 125.008 88.9003 125.16 88.6043 125.464C88.3083 125.76 88.1603 126.208 88.1603 126.808ZM95.6974 130V128.608L95.8174 128.632C95.6974 129.088 95.4374 129.452 95.0374 129.724C94.6374 129.988 94.1574 130.12 93.5974 130.12C93.0454 130.12 92.5614 129.988 92.1454 129.724C91.7374 129.46 91.4174 129.092 91.1854 128.62C90.9614 128.148 90.8494 127.596 90.8494 126.964C90.8494 126.324 90.9654 125.764 91.1974 125.284C91.4294 124.804 91.7534 124.432 92.1694 124.168C92.5934 123.904 93.0854 123.772 93.6454 123.772C94.2214 123.772 94.6974 123.912 95.0734 124.192C95.4574 124.464 95.7054 124.848 95.8174 125.344L95.6494 125.356V121.36H96.9694V130H95.6974ZM93.9454 129.028C94.4814 129.028 94.9054 128.844 95.2174 128.476C95.5294 128.108 95.6854 127.592 95.6854 126.928C95.6854 126.28 95.5254 125.772 95.2054 125.404C94.8934 125.036 94.4694 124.852 93.9334 124.852C93.4054 124.852 92.9854 125.04 92.6734 125.416C92.3614 125.784 92.2054 126.3 92.2054 126.964C92.2054 127.612 92.3614 128.12 92.6734 128.488C92.9854 128.848 93.4094 129.028 93.9454 129.028ZM101.524 130V123.208C101.524 122.576 101.7 122.092 102.052 121.756C102.412 121.412 102.952 121.24 103.672 121.24C103.832 121.24 103.964 121.248 104.068 121.264C104.172 121.28 104.268 121.304 104.356 121.336V122.356C104.3 122.332 104.224 122.316 104.128 122.308C104.04 122.292 103.94 122.284 103.828 122.284C103.492 122.284 103.244 122.368 103.084 122.536C102.924 122.696 102.844 122.932 102.844 123.244V130H101.524ZM100.372 124.924V123.88H104.224V124.924H100.372ZM107.845 130.12C107.213 130.12 106.657 129.984 106.177 129.712C105.705 129.432 105.337 129.052 105.073 128.572C104.809 128.084 104.677 127.532 104.677 126.916C104.677 126.292 104.809 125.744 105.073 125.272C105.345 124.8 105.717 124.432 106.189 124.168C106.661 123.896 107.213 123.76 107.845 123.76C108.485 123.76 109.041 123.896 109.513 124.168C109.993 124.432 110.365 124.8 110.629 125.272C110.893 125.744 111.025 126.292 111.025 126.916C111.025 127.532 110.889 128.084 110.617 128.572C110.353 129.052 109.985 129.432 109.513 129.712C109.041 129.984 108.485 130.12 107.845 130.12ZM107.845 129.052C108.205 129.052 108.521 128.964 108.793 128.788C109.065 128.604 109.277 128.352 109.429 128.032C109.589 127.712 109.669 127.336 109.669 126.904C109.669 126.264 109.497 125.76 109.153 125.392C108.817 125.016 108.381 124.828 107.845 124.828C107.317 124.828 106.881 125.016 106.537 125.392C106.201 125.76 106.033 126.264 106.033 126.904C106.033 127.336 106.109 127.712 106.261 128.032C106.413 128.352 106.625 128.604 106.897 128.788C107.177 128.964 107.493 129.052 107.845 129.052ZM112.259 130V123.88H113.519V125.392H113.567V130H112.259ZM113.567 126.808L113.411 125.356C113.555 124.836 113.803 124.44 114.155 124.168C114.507 123.896 114.923 123.76 115.403 123.76C115.587 123.76 115.715 123.776 115.787 123.808V125.044C115.747 125.028 115.691 125.02 115.619 125.02C115.547 125.012 115.459 125.008 115.355 125.008C114.755 125.008 114.307 125.16 114.011 125.464C113.715 125.76 113.567 126.208 113.567 126.808ZM119.231 130V123.88H120.539V130H119.231ZM119.159 122.728V121.264H120.599V122.728H119.159ZM122.266 130V123.88H123.526V125.32H123.574V130H122.266ZM126.586 130V126.088C126.586 125.672 126.482 125.364 126.274 125.164C126.074 124.956 125.77 124.852 125.362 124.852C125.018 124.852 124.71 124.932 124.438 125.092C124.166 125.244 123.954 125.46 123.802 125.74C123.65 126.012 123.574 126.332 123.574 126.7L123.418 125.236C123.618 124.78 123.922 124.42 124.33 124.156C124.746 123.892 125.234 123.76 125.794 123.76C126.45 123.76 126.966 123.948 127.342 124.324C127.718 124.692 127.906 125.18 127.906 125.788V130H126.586ZM131.996 130.12C131.268 130.12 130.736 129.952 130.4 129.616C130.064 129.272 129.896 128.768 129.896 128.104V122.476L131.204 121.984V128.128C131.204 128.44 131.284 128.672 131.444 128.824C131.612 128.976 131.88 129.052 132.248 129.052C132.392 129.052 132.52 129.04 132.632 129.016C132.744 128.992 132.84 128.964 132.92 128.932V129.976C132.832 130.024 132.704 130.06 132.536 130.084C132.376 130.108 132.196 130.12 131.996 130.12ZM128.684 124.924V123.88H132.92V124.924H128.684ZM136.59 130.12C135.967 130.12 135.419 129.984 134.947 129.712C134.475 129.44 134.107 129.064 133.843 128.584C133.579 128.104 133.447 127.552 133.447 126.928C133.447 126.296 133.575 125.744 133.831 125.272C134.095 124.792 134.463 124.42 134.935 124.156C135.407 123.892 135.955 123.76 136.579 123.76C137.171 123.76 137.687 123.888 138.127 124.144C138.567 124.392 138.907 124.744 139.147 125.2C139.387 125.648 139.507 126.176 139.507 126.784C139.507 126.888 139.503 126.984 139.495 127.072C139.487 127.152 139.475 127.24 139.459 127.336H134.299V126.364H138.511L138.199 126.712C138.199 126.08 138.055 125.6 137.767 125.272C137.479 124.944 137.079 124.78 136.567 124.78C136.015 124.78 135.575 124.968 135.247 125.344C134.927 125.72 134.767 126.252 134.767 126.94C134.767 127.62 134.927 128.152 135.247 128.536C135.575 128.912 136.031 129.1 136.615 129.1C136.959 129.1 137.259 129.032 137.515 128.896C137.779 128.752 137.971 128.544 138.091 128.272H139.327C139.127 128.84 138.791 129.292 138.319 129.628C137.847 129.956 137.271 130.12 136.59 130.12ZM140.747 130V123.88H142.007V125.392H142.055V130H140.747ZM142.055 126.808L141.899 125.356C142.043 124.836 142.291 124.44 142.643 124.168C142.995 123.896 143.411 123.76 143.891 123.76C144.075 123.76 144.203 123.776 144.275 123.808V125.044C144.235 125.028 144.179 125.02 144.107 125.02C144.035 125.012 143.947 125.008 143.843 125.008C143.243 125.008 142.795 125.16 142.499 125.464C142.203 125.76 142.055 126.208 142.055 126.808ZM145.364 130V123.88H146.624V125.32H146.672V130H145.364ZM149.684 130V126.088C149.684 125.672 149.58 125.364 149.372 125.164C149.172 124.956 148.868 124.852 148.46 124.852C148.116 124.852 147.808 124.932 147.536 125.092C147.264 125.244 147.052 125.46 146.9 125.74C146.748 126.012 146.672 126.332 146.672 126.7L146.516 125.236C146.716 124.78 147.02 124.42 147.428 124.156C147.844 123.892 148.332 123.76 148.892 123.76C149.548 123.76 150.064 123.948 150.44 124.324C150.816 124.692 151.004 125.18 151.004 125.788V130H149.684ZM156.363 130C156.323 129.848 156.295 129.68 156.279 129.496C156.263 129.304 156.255 129.076 156.255 128.812H156.207V125.896C156.207 125.52 156.111 125.24 155.919 125.056C155.727 124.872 155.427 124.78 155.019 124.78C154.619 124.78 154.299 124.856 154.059 125.008C153.827 125.16 153.691 125.376 153.651 125.656H152.391C152.447 125.088 152.711 124.632 153.183 124.288C153.655 123.936 154.283 123.76 155.067 123.76C155.875 123.76 156.483 123.948 156.891 124.324C157.299 124.692 157.503 125.24 157.503 125.968V128.812C157.503 128.996 157.515 129.188 157.539 129.388C157.563 129.58 157.599 129.784 157.647 130H156.363ZM154.251 130.12C153.627 130.12 153.131 129.968 152.763 129.664C152.395 129.352 152.211 128.932 152.211 128.404C152.211 127.86 152.407 127.428 152.799 127.108C153.199 126.788 153.763 126.572 154.491 126.46L156.483 126.148V127.048L154.695 127.324C154.303 127.38 154.007 127.484 153.807 127.636C153.607 127.788 153.507 128.004 153.507 128.284C153.507 128.548 153.599 128.748 153.783 128.884C153.967 129.02 154.231 129.088 154.575 129.088C155.047 129.088 155.435 128.976 155.739 128.752C156.051 128.528 156.207 128.244 156.207 127.9L156.363 128.8C156.219 129.224 155.963 129.552 155.595 129.784C155.227 130.008 154.779 130.12 154.251 130.12ZM159.157 130V121.36H160.465V130H159.157ZM168.34 130C168.3 129.848 168.272 129.68 168.256 129.496C168.24 129.304 168.232 129.076 168.232 128.812H168.184V125.896C168.184 125.52 168.088 125.24 167.896 125.056C167.704 124.872 167.404 124.78 166.996 124.78C166.596 124.78 166.276 124.856 166.036 125.008C165.804 125.16 165.668 125.376 165.628 125.656H164.368C164.424 125.088 164.688 124.632 165.16 124.288C165.632 123.936 166.26 123.76 167.044 123.76C167.852 123.76 168.46 123.948 168.868 124.324C169.276 124.692 169.48 125.24 169.48 125.968V128.812C169.48 128.996 169.492 129.188 169.516 129.388C169.54 129.58 169.576 129.784 169.624 130H168.34ZM166.228 130.12C165.604 130.12 165.108 129.968 164.74 129.664C164.372 129.352 164.188 128.932 164.188 128.404C164.188 127.86 164.384 127.428 164.776 127.108C165.176 126.788 165.74 126.572 166.468 126.46L168.46 126.148V127.048L166.672 127.324C166.28 127.38 165.984 127.484 165.784 127.636C165.584 127.788 165.484 128.004 165.484 128.284C165.484 128.548 165.576 128.748 165.76 128.884C165.944 129.02 166.208 129.088 166.552 129.088C167.024 129.088 167.412 128.976 167.716 128.752C168.028 128.528 168.184 128.244 168.184 127.9L168.34 128.8C168.196 129.224 167.94 129.552 167.572 129.784C167.204 130.008 166.756 130.12 166.228 130.12ZM171.134 130V123.88H172.394V125.32H172.442V130H171.134ZM175.454 130V126.088C175.454 125.672 175.35 125.364 175.142 125.164C174.942 124.956 174.638 124.852 174.23 124.852C173.886 124.852 173.578 124.932 173.306 125.092C173.034 125.244 172.822 125.46 172.67 125.74C172.518 126.012 172.442 126.332 172.442 126.7L172.286 125.236C172.486 124.78 172.79 124.42 173.198 124.156C173.614 123.892 174.102 123.76 174.662 123.76C175.318 123.76 175.834 123.948 176.21 124.324C176.586 124.692 176.774 125.18 176.774 125.788V130H175.454ZM182.133 130C182.093 129.848 182.065 129.68 182.049 129.496C182.033 129.304 182.025 129.076 182.025 128.812H181.977V125.896C181.977 125.52 181.881 125.24 181.689 125.056C181.497 124.872 181.197 124.78 180.789 124.78C180.389 124.78 180.069 124.856 179.829 125.008C179.597 125.16 179.461 125.376 179.421 125.656H178.161C178.217 125.088 178.481 124.632 178.953 124.288C179.425 123.936 180.053 123.76 180.837 123.76C181.645 123.76 182.253 123.948 182.661 124.324C183.069 124.692 183.273 125.24 183.273 125.968V128.812C183.273 128.996 183.285 129.188 183.309 129.388C183.333 129.58 183.369 129.784 183.417 130H182.133ZM180.021 130.12C179.397 130.12 178.901 129.968 178.533 129.664C178.165 129.352 177.981 128.932 177.981 128.404C177.981 127.86 178.177 127.428 178.569 127.108C178.969 126.788 179.533 126.572 180.261 126.46L182.253 126.148V127.048L180.465 127.324C180.073 127.38 179.777 127.484 179.577 127.636C179.377 127.788 179.277 128.004 179.277 128.284C179.277 128.548 179.369 128.748 179.553 128.884C179.737 129.02 180.001 129.088 180.345 129.088C180.817 129.088 181.205 128.976 181.509 128.752C181.821 128.528 181.977 128.244 181.977 127.9L182.133 128.8C181.989 129.224 181.733 129.552 181.365 129.784C180.997 130.008 180.549 130.12 180.021 130.12ZM184.927 130V121.36H186.235V130H184.927ZM188.394 132.46L189.894 129.04L190.158 128.632L191.982 123.88H193.362L189.738 132.46H188.394ZM189.798 129.988L187.218 123.88H188.646L190.83 129.388L189.798 129.988ZM197.094 130.12C196.366 130.12 195.834 129.952 195.498 129.616C195.162 129.272 194.994 128.768 194.994 128.104V122.476L196.302 121.984V128.128C196.302 128.44 196.382 128.672 196.542 128.824C196.71 128.976 196.978 129.052 197.346 129.052C197.49 129.052 197.618 129.04 197.73 129.016C197.842 128.992 197.938 128.964 198.018 128.932V129.976C197.93 130.024 197.802 130.06 197.634 130.084C197.474 130.108 197.294 130.12 197.094 130.12ZM193.782 124.924V123.88H198.018V124.924H193.782ZM199.165 130V123.88H200.473V130H199.165ZM199.093 122.728V121.264H200.533V122.728H199.093ZM204.745 130.12C204.153 130.12 203.625 129.984 203.161 129.712C202.705 129.432 202.345 129.052 202.081 128.572C201.825 128.092 201.697 127.544 201.697 126.928C201.697 126.312 201.825 125.768 202.081 125.296C202.345 124.816 202.705 124.44 203.161 124.168C203.625 123.896 204.149 123.76 204.733 123.76C205.221 123.76 205.661 123.852 206.053 124.036C206.445 124.22 206.765 124.48 207.013 124.816C207.269 125.144 207.433 125.532 207.505 125.98H206.257C206.177 125.628 206.005 125.348 205.741 125.14C205.477 124.932 205.149 124.828 204.757 124.828C204.413 124.828 204.113 124.916 203.857 125.092C203.601 125.26 203.401 125.504 203.257 125.824C203.121 126.136 203.053 126.504 203.053 126.928C203.053 127.352 203.121 127.724 203.257 128.044C203.401 128.364 203.601 128.612 203.857 128.788C204.113 128.964 204.417 129.052 204.769 129.052C205.153 129.052 205.477 128.952 205.741 128.752C206.013 128.544 206.189 128.264 206.269 127.912H207.517C207.437 128.352 207.269 128.74 207.013 129.076C206.757 129.404 206.433 129.66 206.041 129.844C205.657 130.028 205.225 130.12 204.745 130.12ZM210.948 130.12C210.14 130.12 209.496 129.944 209.016 129.592C208.536 129.24 208.264 128.744 208.2 128.104H209.412C209.46 128.448 209.616 128.712 209.88 128.896C210.152 129.072 210.516 129.16 210.972 129.16C211.372 129.16 211.676 129.092 211.884 128.956C212.1 128.812 212.208 128.612 212.208 128.356C212.208 128.172 212.148 128.02 212.028 127.9C211.908 127.772 211.672 127.664 211.32 127.576L210.336 127.348C209.704 127.196 209.236 126.972 208.932 126.676C208.628 126.372 208.476 125.996 208.476 125.548C208.476 124.996 208.684 124.56 209.1 124.24C209.516 123.92 210.092 123.76 210.828 123.76C211.556 123.76 212.14 123.92 212.58 124.24C213.02 124.56 213.268 125.008 213.324 125.584H212.112C212.064 125.304 211.928 125.092 211.704 124.948C211.48 124.796 211.176 124.72 210.792 124.72C210.432 124.72 210.156 124.784 209.964 124.912C209.772 125.032 209.676 125.208 209.676 125.44C209.676 125.624 209.748 125.776 209.892 125.896C210.036 126.016 210.276 126.12 210.612 126.208L211.632 126.46C212.224 126.604 212.668 126.84 212.964 127.168C213.268 127.496 213.42 127.884 213.42 128.332C213.42 128.9 213.204 129.34 212.772 129.652C212.34 129.964 211.732 130.12 210.948 130.12Z" fill="#979FAA"/>
<line x1="214.5" y1="117" x2="214.5" y2="135" stroke="#979FAA"/>
<rect x="288.5" y="114.5" width="23" height="23" rx="3.5" fill="url(#paint10_linear_20767_20552)"/>
<rect x="288.5" y="114.5" width="23" height="23" rx="3.5" stroke="#2A3037"/>
<path d="M306.923 120.339C307.278 119.346 306.319 118.387 305.326 118.741L293.494 122.967C292.316 123.388 292.418 125.086 293.637 125.363L298.393 126.431L300.925 123.823C301.181 123.559 301.603 123.553 301.867 123.809C302.132 124.066 302.138 124.488 301.881 124.752L299.271 127.441L300.301 132.027C300.579 133.247 302.277 133.349 302.697 132.171L306.923 120.339Z" fill="url(#paint11_linear_20767_20552)"/>
<path d="M0 16.5L16.5 16.5M340 16.5L323.5 16.5M0 149.5H16.5M340 149.5H323.5M16.5 166L16.5 149.5M16.5 0L16.5 16.5M323.5 166V149.5M323.5 0V16.5M16.5 16.5L323.5 16.5M16.5 16.5L16.5 149.5M323.5 16.5L323.5 149.5M323.5 149.5L16.5 149.5" stroke="#67707E" stroke-dasharray="1 3"/>
</g>
<defs>
<linearGradient id="paint0_linear_20767_20552" x1="170" y1="0" x2="170" y2="166" gradientUnits="userSpaceOnUse">
<stop stop-opacity="0"/>
<stop offset="0.2"/>
<stop offset="0.8"/>
<stop offset="1" stop-opacity="0"/>
</linearGradient>
<linearGradient id="paint1_linear_20767_20552" x1="112" y1="53" x2="36" y2="53" gradientUnits="userSpaceOnUse">
<stop stop-color="#AA69E3"/>
<stop offset="0.2" stop-color="#D977F2"/>
<stop offset="0.4" stop-color="#D075F0"/>
<stop offset="0.6" stop-color="#C772ED"/>
<stop offset="0.8" stop-color="#E17BF6"/>
<stop offset="1" stop-color="#A467E1"/>
</linearGradient>
<linearGradient id="paint2_linear_20767_20552" x1="120" y1="53" x2="154" y2="53" gradientUnits="userSpaceOnUse">
<stop stop-color="#1D2025"/>
<stop offset="1" stop-color="#21252B"/>
</linearGradient>
<radialGradient id="paint3_radial_20767_20552" cx="0" cy="0" r="1" gradientUnits="userSpaceOnUse" gradientTransform="translate(137 53) rotate(90) scale(9)">
<stop stop-color="#E082F6"/>
<stop offset="1" stop-color="#AA58E2"/>
</radialGradient>
<radialGradient id="paint4_radial_20767_20552" cx="0" cy="0" r="1" gradientUnits="userSpaceOnUse" gradientTransform="translate(137 53) rotate(90) scale(9)">
<stop stop-color="#E082F6"/>
<stop offset="1" stop-color="#AA58E2"/>
</radialGradient>
<radialGradient id="paint5_radial_20767_20552" cx="0" cy="0" r="1" gradientUnits="userSpaceOnUse" gradientTransform="translate(137 53) rotate(90) scale(9)">
<stop stop-color="#E082F6"/>
<stop offset="1" stop-color="#AA58E2"/>
</radialGradient>
<radialGradient id="paint6_radial_20767_20552" cx="0" cy="0" r="1" gradientUnits="userSpaceOnUse" gradientTransform="translate(137 53) rotate(90) scale(9)">
<stop stop-color="#E082F6"/>
<stop offset="1" stop-color="#AA58E2"/>
</radialGradient>
<linearGradient id="paint7_linear_20767_20552" x1="36" y1="85" x2="70" y2="85" gradientUnits="userSpaceOnUse">
<stop stop-color="#1D2025"/>
<stop offset="1" stop-color="#21252B"/>
</linearGradient>
<linearGradient id="paint8_linear_20767_20552" x1="78" y1="85" x2="112" y2="85" gradientUnits="userSpaceOnUse">
<stop stop-color="#1D2025"/>
<stop offset="1" stop-color="#21252B"/>
</linearGradient>
<linearGradient id="paint9_linear_20767_20552" x1="120" y1="85" x2="154" y2="85" gradientUnits="userSpaceOnUse">
<stop stop-color="#1D2025"/>
<stop offset="1" stop-color="#21252B"/>
</linearGradient>
<linearGradient id="paint10_linear_20767_20552" x1="288" y1="126" x2="312" y2="126" gradientUnits="userSpaceOnUse">
<stop stop-color="#1D2025"/>
<stop offset="1" stop-color="#21252B"/>
</linearGradient>
<linearGradient id="paint11_linear_20767_20552" x1="307" y1="119" x2="293" y2="133" gradientUnits="userSpaceOnUse">
<stop stop-color="#875ED7"/>
<stop offset="1" stop-color="#CB74EE"/>
</linearGradient>
</defs>
</svg>
