<svg xmlns="http://www.w3.org/2000/svg" width="72" height="72" fill="none" viewBox="0 0 72 72"><g fill="#979faa" clip-path="url(#a)"><path d="M10 1h1v1h-1zm9 0h1v1h-1zm3 0h1v1h-1zm9 0h1v1h-1zm6 0h1v1h-1zm6 0h1v1h-1zm3 0h1v1h-1zm9 0h1v1h-1zm6 0h1v1h-1zm3 0h1v1h-1zM1 4h1v1H1zm6 0h1v1H7zm3 0h1v1h-1zm12 0h1v1h-1zm3 0h1v1h-1zm3 0h1v1h-1zm3 0h1v1h-1zm3 0h1v1h-1zm9 0h1v1h-1zm6 0h1v1h-1zm3 0h1v1h-1zm9 0h1v1h-1zM1 7h1v1H1zm9 0h1v1h-1zm3 0h1v1h-1zm3 0h1v1h-1zm3 0h1v1h-1zm3 0h1v1h-1zm3 0h1v1h-1zm3 0h1v1h-1zm3 0h1v1h-1zm3 0h1v1h-1zm3 0h1v1h-1zm3 0h1v1h-1zm3 0h1v1h-1zm3 0h1v1h-1zm3 0h1v1h-1zm3 0h1v1h-1zm3 0h1v1h-1zm3 0h1v1h-1zm3 0h1v1h-1zm6 0h1v1h-1zm3 0h1v1h-1zM7 10h1v1H7zm3 0h1v1h-1zm3 0h1v1h-1zm3 0h1v1h-1zm3 0h1v1h-1zm3 0h1v1h-1zm3 0h1v1h-1zm3 0h1v1h-1zm3 0h1v1h-1zm3 0h1v1h-1zm3 0h1v1h-1zm3 0h1v1h-1zm3 0h1v1h-1zm3 0h1v1h-1zm3 0h1v1h-1zm3 0h1v1h-1zm3 0h1v1h-1zm3 0h1v1h-1zm3 0h1v1h-1zm3 0h1v1h-1zm3 0h1v1h-1zm3 0h1v1h-1zM1 13h1v1H1zm3 0h1v1H4zm3 0h1v1H7zm3 0h1v1h-1zm3 0h1v1h-1zm3 0h1v1h-1zm39 0h1v1h-1zm3 0h1v1h-1zm3 0h1v1h-1zm3 0h1v1h-1zm3 0h1v1h-1zm3 0h1v1h-1zm-60 3h1v1h-1zm3 0h1v1h-1zm3 0h1v1h-1zm39 0h1v1h-1zm3 0h1v1h-1zm3 0h1v1h-1zm6 0h1v1h-1zm3 0h1v1h-1zM4 19h1v1H4zm3 0h1v1H7zm3 0h1v1h-1zm3 0h1v1h-1zm3 0h1v1h-1zm9 0h1v1h-1zm3 0h1v1h-1zm3 0h1v1h-1zm3 0h1v1h-1zm3 0h1v1h-1zm3 0h1v1h-1zm3 0h1v1h-1zm3 0h1v1h-1zm9 0h1v1h-1zm3 0h1v1h-1zm3 0h1v1h-1zm10 1h1v1h-1zM1 22h1v1H1zm6 0h1v1H7zm3 0h1v1h-1zm3 0h1v1h-1zm3 0h1v1h-1zm9 0h1v1h-1zm3 0h1v1h-1zm3 0h1v1h-1zm3 0h1v1h-1zm3 0h1v1h-1zm3 0h1v1h-1zm3 0h1v1h-1zm3 0h1v1h-1zm9 0h1v1h-1zm3 0h1v1h-1zm3 0h1v1h-1zm3 0h1v1h-1zm3 0h1v1h-1zm4 1h1v1h-1zm-61 2h1v1h-1zm3 0h1v1h-1zm3 0h1v1h-1zm9 0h1v1h-1zm3 0h1v1h-1zm3 0h1v1h-1zm3 0h1v1h-1zm6 0h1v1h-1zm3 0h1v1h-1zm3 0h1v1h-1zm9 0h1v1h-1zm3 0h1v1h-1zm3 0h1v1h-1zm10 1h1v1h-1zM4 28h1v1H4zm3 0h1v1H7zm3 0h1v1h-1zm3 0h1v1h-1zm3 0h1v1h-1zm9 0h1v1h-1zm3 0h1v1h-1zm3 0h1v1h-1zm3 0h1v1h-1zm3 0h1v1h-1zm3 0h1v1h-1zm3 0h1v1h-1zm3 0h1v1h-1zm9 0h1v1h-1zm3 0h1v1h-1zm3 0h1v1h-1zm10 1h1v1h-1zM7 31h1v1H7zm3 0h1v1h-1zm3 0h1v1h-1zm3 0h1v1h-1zm9 0h1v1h-1zm3 0h1v1h-1zm3 0h1v1h-1zm3 0h1v1h-1zm3 0h1v1h-1zm3 0h1v1h-1zm3 0h1v1h-1zm3 0h1v1h-1zm9 0h1v1h-1zm3 0h1v1h-1zm3 0h1v1h-1zM1 34h1v1H1zm9 0h1v1h-1zm3 0h1v1h-1zm3 0h1v1h-1zm33 0h1v1h-1zm3 0h1v1h-1zm3 0h1v1h-1zm3 0h1v1h-1zm3 0h1v1h-1zm3 0h1v1h-1zm3 0h1v1h-1zm3 0h1v1h-1zM1 37h1v1H1zm9 0h1v1h-1zm3 0h1v1h-1zm3 0h1v1h-1zm33 0h1v1h-1zm3 0h1v1h-1zm3 0h1v1h-1zm3 0h1v1h-1zm3 0h1v1h-1zm6 0h1v1h-1zm3 0h1v1h-1zM1 40h1v1H1zm9 0h1v1h-1zm3 0h1v1h-1zm3 0h1v1h-1zm9 0h1v1h-1zm3 0h1v1h-1zm3 0h1v1h-1zm3 0h1v1h-1zm3 0h1v1h-1zm3 0h1v1h-1zm3 0h1v1h-1zm3 0h1v1h-1zm9 0h1v1h-1zm3 0h1v1h-1zm3 0h1v1h-1zM1 43h1v1H1zm6 0h1v1H7zm3 0h1v1h-1zm3 0h1v1h-1zm3 0h1v1h-1zm9 0h1v1h-1zm3 0h1v1h-1zm3 0h1v1h-1zm3 0h1v1h-1zm3 0h1v1h-1zm3 0h1v1h-1zm3 0h1v1h-1zm3 0h1v1h-1zm9 0h1v1h-1zm3 0h1v1h-1zm3 0h1v1h-1zm3 0h1v1h-1zm3 0h1v1h-1zM1 46h1v1H1zm3 0h1v1H4zm6 0h1v1h-1zm3 0h1v1h-1zm3 0h1v1h-1zm9 0h1v1h-1zm3 0h1v1h-1zm3 0h1v1h-1zm3 0h1v1h-1zm3 0h1v1h-1zm3 0h1v1h-1zm3 0h1v1h-1zm3 0h1v1h-1zm9 0h1v1h-1zm3 0h1v1h-1zm3 0h1v1h-1zm3 0h1v1h-1zm7-1h1v1h-1zM7 49h1v1H7zm3 0h1v1h-1zm3 0h1v1h-1zm3 0h1v1h-1zm9 0h1v1h-1zm3 0h1v1h-1zm3 0h1v1h-1zm6 0h1v1h-1zm3 0h1v1h-1zm3 0h1v1h-1zm3 0h1v1h-1zm9 0h1v1h-1zm3 0h1v1h-1zm3 0h1v1h-1zm3 0h1v1h-1zm3 0h1v1h-1zm4-1h1v1h-1zM1 52h1v1H1zm6 0h1v1H7zm3 0h1v1h-1zm3 0h1v1h-1zm3 0h1v1h-1zm9 0h1v1h-1zm3 0h1v1h-1zm3 0h1v1h-1zm3 0h1v1h-1zm3 0h1v1h-1zm3 0h1v1h-1zm3 0h1v1h-1zm3 0h1v1h-1zm9 0h1v1h-1zm3 0h1v1h-1zm3 0h1v1h-1zm9 0h1v1h-1zM7 55h1v1H7zm3 0h1v1h-1zm3 0h1v1h-1zm3 0h1v1h-1zm9 0h1v1h-1zm3 0h1v1h-1zm3 0h1v1h-1zm3 0h1v1h-1zm6 0h1v1h-1zm3 0h1v1h-1zm3 0h1v1h-1zm9 0h1v1h-1zm3 0h1v1h-1zm3 0h1v1h-1zm3 0h1v1h-1zm3 0h1v1h-1zm3 0h1v1h-1zM7 58h1v1H7zm3 0h1v1h-1zm3 0h1v1h-1zm3 0h1v1h-1zm9 0h1v1h-1zm3 0h1v1h-1zm3 0h1v1h-1zm3 0h1v1h-1zm6 0h1v1h-1zm3 0h1v1h-1zm3 0h1v1h-1zm9 0h1v1h-1zm3 0h1v1h-1zm3 0h1v1h-1zm3 0h1v1h-1zM4 61h1v1H4zm3 0h1v1H7zm3 0h1v1h-1zm3 0h1v1h-1zm3 0h1v1h-1zm3 0h1v1h-1zm3 0h1v1h-1zm3 0h1v1h-1zm3 0h1v1h-1zm3 0h1v1h-1zm6 0h1v1h-1zm3 0h1v1h-1zm3 0h1v1h-1zm3 0h1v1h-1zm3 0h1v1h-1zm3 0h1v1h-1zm3 0h1v1h-1zm3 0h1v1h-1zm3 0h1v1h-1zm6 0h1v1h-1zm3 0h1v1h-1zM1 64h1v1H1zm3 0h1v1H4zm6 0h1v1h-1zm3 0h1v1h-1zm3 0h1v1h-1zm3 0h1v1h-1zm3 0h1v1h-1zm3 0h1v1h-1zm3 0h1v1h-1zm3 0h1v1h-1zm3 0h1v1h-1zm6 0h1v1h-1zm3 0h1v1h-1zm3 0h1v1h-1zm3 0h1v1h-1zm3 0h1v1h-1zm3 0h1v1h-1zm3 0h1v1h-1zm3 0h1v1h-1zM4 67h1v1H4zm3 0h1v1H7zm3 0h1v1h-1zm6 0h1v1h-1zm3 0h1v1h-1zm3 0h1v1h-1zm6 0h1v1h-1zm3 0h1v1h-1zm3 0h1v1h-1zm6 0h1v1h-1zm3 0h1v1h-1zm3 0h1v1h-1zm6 0h1v1h-1zm3 0h1v1h-1zm3 0h1v1h-1zm3 0h1v1h-1zm10 0h1v1h-1zM4 70h1v1H4zm6 0h1v1h-1zm12 0h1v1h-1zm3 0h1v1h-1zm18 0h1v1h-1zm3 0h1v1h-1zm6 0h1v1h-1zm9 0h1v1h-1zm3 0h1v1h-1zM9 0h1v1H9zm9 0h1v1h-1zm3 0h1v1h-1zm9 0h1v1h-1zm6 0h1v1h-1zm6 0h1v1h-1zm3 0h1v1h-1zm9 0h1v1h-1zm6 0h1v1h-1zm3 0h1v1h-1zM0 3h1v1H0zm6 0h1v1H6zm3 0h1v1H9zm12 0h1v1h-1zm3 0h1v1h-1zm3 0h1v1h-1zm3 0h1v1h-1zm3 0h1v1h-1zm9 0h1v1h-1zm6 0h1v1h-1zm3 0h1v1h-1zm9 0h1v1h-1zM0 6h1v1H0zm9 0h1v1H9zm3 0h1v1h-1zm3 0h1v1h-1zm3 0h1v1h-1zm3 0h1v1h-1zm3 0h1v1h-1zm3 0h1v1h-1zm3 0h1v1h-1zm3 0h1v1h-1zm3 0h1v1h-1zm3 0h1v1h-1zm3 0h1v1h-1zm3 0h1v1h-1zm3 0h1v1h-1zm3 0h1v1h-1zm3 0h1v1h-1zm3 0h1v1h-1zm3 0h1v1h-1zm6 0h1v1h-1zm3 0h1v1h-1zM6 9h1v1H6zm3 0h1v1H9zm3 0h1v1h-1zm3 0h1v1h-1zm3 0h1v1h-1zm3 0h1v1h-1zm3 0h1v1h-1zm3 0h1v1h-1zm3 0h1v1h-1zm3 0h1v1h-1zm3 0h1v1h-1zm3 0h1v1h-1zm3 0h1v1h-1zm3 0h1v1h-1zm3 0h1v1h-1zm3 0h1v1h-1zm3 0h1v1h-1zm3 0h1v1h-1zm3 0h1v1h-1zm3 0h1v1h-1zm3 0h1v1h-1zm3 0h1v1h-1zM0 12h1v1H0zm3 0h1v1H3zm3 0h1v1H6zm3 0h1v1H9zm3 0h1v1h-1zm3 0h1v1h-1zm39 0h1v1h-1zm3 0h1v1h-1zm3 0h1v1h-1zm3 0h1v1h-1zm3 0h1v1h-1zm3 0h1v1h-1zM9 15h1v1H9zm3 0h1v1h-1zm3 0h1v1h-1zm39 0h1v1h-1zm3 0h1v1h-1zm3 0h1v1h-1zm6 0h1v1h-1zm3 0h1v1h-1zM3 18h1v1H3zm3 0h1v1H6zm3 0h1v1H9zm3 0h1v1h-1zm3 0h1v1h-1zm9 0h1v1h-1zm3 0h1v1h-1zm3 0h1v1h-1zm3 0h1v1h-1zm3 0h1v1h-1zm3 0h1v1h-1zm3 0h1v1h-1zm3 0h1v1h-1zm9 0h1v1h-1zm3 0h1v1h-1zm3 0h1v1h-1zm10 1h1v1h-1zM0 21h1v1H0zm6 0h1v1H6zm3 0h1v1H9zm3 0h1v1h-1zm3 0h1v1h-1zm9 0h1v1h-1zm3 0h1v1h-1zm3 0h1v1h-1zm3 0h1v1h-1zm3 0h1v1h-1zm3 0h1v1h-1zm3 0h1v1h-1zm3 0h1v1h-1zm9 0h1v1h-1zm3 0h1v1h-1zm3 0h1v1h-1zm3 0h1v1h-1zm3 0h1v1h-1zm4 1h1v1h-1zM9 24h1v1H9zm3 0h1v1h-1zm3 0h1v1h-1zm9 0h1v1h-1zm3 0h1v1h-1zm3 0h1v1h-1zm3 0h1v1h-1zm6 0h1v1h-1zm3 0h1v1h-1zm3 0h1v1h-1zm9 0h1v1h-1zm3 0h1v1h-1zm3 0h1v1h-1zm10 1h1v1h-1zM3 27h1v1H3zm3 0h1v1H6zm3 0h1v1H9zm3 0h1v1h-1zm3 0h1v1h-1zm9 0h1v1h-1zm3 0h1v1h-1zm3 0h1v1h-1zm3 0h1v1h-1zm3 0h1v1h-1zm3 0h1v1h-1zm3 0h1v1h-1zm3 0h1v1h-1zm9 0h1v1h-1zm3 0h1v1h-1zm3 0h1v1h-1zm10 1h1v1h-1zM6 30h1v1H6zm3 0h1v1H9zm3 0h1v1h-1zm3 0h1v1h-1zm9 0h1v1h-1zm3 0h1v1h-1zm3 0h1v1h-1zm3 0h1v1h-1zm3 0h1v1h-1zm3 0h1v1h-1zm3 0h1v1h-1zm3 0h1v1h-1zm9 0h1v1h-1zm3 0h1v1h-1zm3 0h1v1h-1zM0 33h1v1H0zm9 0h1v1H9zm3 0h1v1h-1zm3 0h1v1h-1zm33 0h1v1h-1zm3 0h1v1h-1zm3 0h1v1h-1zm3 0h1v1h-1zm3 0h1v1h-1zm3 0h1v1h-1zm3 0h1v1h-1zm3 0h1v1h-1zM0 36h1v1H0zm9 0h1v1H9zm3 0h1v1h-1zm3 0h1v1h-1zm33 0h1v1h-1zm3 0h1v1h-1zm3 0h1v1h-1zm3 0h1v1h-1zm3 0h1v1h-1zm6 0h1v1h-1zm3 0h1v1h-1zM0 39h1v1H0zm9 0h1v1H9zm3 0h1v1h-1zm3 0h1v1h-1zm9 0h1v1h-1zm3 0h1v1h-1zm3 0h1v1h-1zm3 0h1v1h-1zm3 0h1v1h-1zm3 0h1v1h-1zm3 0h1v1h-1zm3 0h1v1h-1zm9 0h1v1h-1zm3 0h1v1h-1zm3 0h1v1h-1zM0 42h1v1H0zm6 0h1v1H6zm3 0h1v1H9zm3 0h1v1h-1zm3 0h1v1h-1zm9 0h1v1h-1zm3 0h1v1h-1zm3 0h1v1h-1zm3 0h1v1h-1zm3 0h1v1h-1zm3 0h1v1h-1zm3 0h1v1h-1zm3 0h1v1h-1zm9 0h1v1h-1zm3 0h1v1h-1zm3 0h1v1h-1zm3 0h1v1h-1zm3 0h1v1h-1zM0 45h1v1H0zm3 0h1v1H3zm6 0h1v1H9zm3 0h1v1h-1zm3 0h1v1h-1zm9 0h1v1h-1zm3 0h1v1h-1zm3 0h1v1h-1zm3 0h1v1h-1zm3 0h1v1h-1zm3 0h1v1h-1zm3 0h1v1h-1zm3 0h1v1h-1zm9 0h1v1h-1zm3 0h1v1h-1zm3 0h1v1h-1zm3 0h1v1h-1zm7-1h1v1h-1zM6 48h1v1H6zm3 0h1v1H9zm3 0h1v1h-1zm3 0h1v1h-1zm9 0h1v1h-1zm3 0h1v1h-1zm3 0h1v1h-1zm6 0h1v1h-1zm3 0h1v1h-1zm3 0h1v1h-1zm3 0h1v1h-1zm9 0h1v1h-1zm3 0h1v1h-1zm3 0h1v1h-1zm3 0h1v1h-1zm3 0h1v1h-1zm4-1h1v1h-1zM0 51h1v1H0zm6 0h1v1H6zm3 0h1v1H9zm3 0h1v1h-1zm3 0h1v1h-1zm9 0h1v1h-1zm3 0h1v1h-1zm3 0h1v1h-1zm3 0h1v1h-1zm3 0h1v1h-1zm3 0h1v1h-1zm3 0h1v1h-1zm3 0h1v1h-1zm9 0h1v1h-1zm3 0h1v1h-1zm3 0h1v1h-1zm9 0h1v1h-1zM6 54h1v1H6zm3 0h1v1H9zm3 0h1v1h-1zm3 0h1v1h-1zm9 0h1v1h-1zm3 0h1v1h-1zm3 0h1v1h-1zm3 0h1v1h-1zm6 0h1v1h-1zm3 0h1v1h-1zm3 0h1v1h-1zm9 0h1v1h-1zm3 0h1v1h-1zm3 0h1v1h-1zm3 0h1v1h-1zm3 0h1v1h-1zm3 0h1v1h-1zM6 57h1v1H6zm3 0h1v1H9zm3 0h1v1h-1zm3 0h1v1h-1zm9 0h1v1h-1zm3 0h1v1h-1zm3 0h1v1h-1zm3 0h1v1h-1zm6 0h1v1h-1zm3 0h1v1h-1zm3 0h1v1h-1zm9 0h1v1h-1zm3 0h1v1h-1zm3 0h1v1h-1zm3 0h1v1h-1zM3 60h1v1H3zm3 0h1v1H6zm3 0h1v1H9zm3 0h1v1h-1zm3 0h1v1h-1zm3 0h1v1h-1zm3 0h1v1h-1zm3 0h1v1h-1zm3 0h1v1h-1zm3 0h1v1h-1zm6 0h1v1h-1zm3 0h1v1h-1zm3 0h1v1h-1zm3 0h1v1h-1zm3 0h1v1h-1zm3 0h1v1h-1zm3 0h1v1h-1zm3 0h1v1h-1zm3 0h1v1h-1zm6 0h1v1h-1zm3 0h1v1h-1zM0 63h1v1H0zm3 0h1v1H3zm6 0h1v1H9zm3 0h1v1h-1zm3 0h1v1h-1zm3 0h1v1h-1zm3 0h1v1h-1zm3 0h1v1h-1zm3 0h1v1h-1zm3 0h1v1h-1zm3 0h1v1h-1zm6 0h1v1h-1zm3 0h1v1h-1zm3 0h1v1h-1zm3 0h1v1h-1zm3 0h1v1h-1zm3 0h1v1h-1zm3 0h1v1h-1zm3 0h1v1h-1zM3 66h1v1H3zm3 0h1v1H6zm3 0h1v1H9zm6 0h1v1h-1zm3 0h1v1h-1zm3 0h1v1h-1zm6 0h1v1h-1zm3 0h1v1h-1zm3 0h1v1h-1zm6 0h1v1h-1zm3 0h1v1h-1zm3 0h1v1h-1zm6 0h1v1h-1zm3 0h1v1h-1zm3 0h1v1h-1zm3 0h1v1h-1zm10 0h1v1h-1zM3 69h1v1H3zm6 0h1v1H9zm12 0h1v1h-1zm3 0h1v1h-1zm18 0h1v1h-1zm3 0h1v1h-1zm6 0h1v1h-1zm9 0h1v1h-1zm3 0h1v1h-1zM1 2h1v1H1zm6 0h1v1H7zm3 0h1v1h-1zm12 0h1v1h-1zm3 0h1v1h-1zm3 0h1v1h-1zm3 0h1v1h-1zm3 0h1v1h-1zm9 0h1v1h-1zm6 0h1v1h-1zm3 0h1v1h-1zm9 0h1v1h-1zM1 5h1v1H1zm9 0h1v1h-1zm3 0h1v1h-1zm3 0h1v1h-1zm3 0h1v1h-1zm3 0h1v1h-1zm3 0h1v1h-1zm3 0h1v1h-1zm3 0h1v1h-1zm3 0h1v1h-1zm3 0h1v1h-1zm3 0h1v1h-1zm3 0h1v1h-1zm3 0h1v1h-1zm3 0h1v1h-1zm3 0h1v1h-1zm3 0h1v1h-1zm3 0h1v1h-1zm3 0h1v1h-1zm6 0h1v1h-1zm3 0h1v1h-1zM7 8h1v1H7zm3 0h1v1h-1zm3 0h1v1h-1zm3 0h1v1h-1zm3 0h1v1h-1zm3 0h1v1h-1zm3 0h1v1h-1zm3 0h1v1h-1zm3 0h1v1h-1zm3 0h1v1h-1zm3 0h1v1h-1zm3 0h1v1h-1zm3 0h1v1h-1zm3 0h1v1h-1zm3 0h1v1h-1zm3 0h1v1h-1zm3 0h1v1h-1zm3 0h1v1h-1zm3 0h1v1h-1zm3 0h1v1h-1zm3 0h1v1h-1zm3 0h1v1h-1zM1 11h1v1H1zm3 0h1v1H4zm3 0h1v1H7zm3 0h1v1h-1zm3 0h1v1h-1zm3 0h1v1h-1zm39 0h1v1h-1zm3 0h1v1h-1zm3 0h1v1h-1zm3 0h1v1h-1zm3 0h1v1h-1zm3 0h1v1h-1zm-60 3h1v1h-1zm3 0h1v1h-1zm3 0h1v1h-1zm39 0h1v1h-1zm3 0h1v1h-1zm3 0h1v1h-1zm6 0h1v1h-1zm3 0h1v1h-1zM4 17h1v1H4zm3 0h1v1H7zm3 0h1v1h-1zm3 0h1v1h-1zm3 0h1v1h-1zm9 0h1v1h-1zm3 0h1v1h-1zm3 0h1v1h-1zm3 0h1v1h-1zm3 0h1v1h-1zm3 0h1v1h-1zm3 0h1v1h-1zm3 0h1v1h-1zm9 0h1v1h-1zm3 0h1v1h-1zm3 0h1v1h-1zm10 1h1v1h-1zM1 20h1v1H1zm6 0h1v1H7zm3 0h1v1h-1zm3 0h1v1h-1zm3 0h1v1h-1zm9 0h1v1h-1zm3 0h1v1h-1zm3 0h1v1h-1zm3 0h1v1h-1zm3 0h1v1h-1zm3 0h1v1h-1zm3 0h1v1h-1zm3 0h1v1h-1zm9 0h1v1h-1zm3 0h1v1h-1zm3 0h1v1h-1zm3 0h1v1h-1zm3 0h1v1h-1zm4 1h1v1h-1zm-61 2h1v1h-1zm3 0h1v1h-1zm3 0h1v1h-1zm9 0h1v1h-1zm3 0h1v1h-1zm3 0h1v1h-1zm3 0h1v1h-1zm6 0h1v1h-1zm3 0h1v1h-1zm3 0h1v1h-1zm9 0h1v1h-1zm3 0h1v1h-1zm3 0h1v1h-1zm10 1h1v1h-1zM4 26h1v1H4zm3 0h1v1H7zm3 0h1v1h-1zm3 0h1v1h-1zm3 0h1v1h-1zm9 0h1v1h-1zm3 0h1v1h-1zm3 0h1v1h-1zm3 0h1v1h-1zm3 0h1v1h-1zm3 0h1v1h-1zm3 0h1v1h-1zm3 0h1v1h-1zm9 0h1v1h-1zm3 0h1v1h-1zm3 0h1v1h-1zm10 1h1v1h-1zM7 29h1v1H7zm3 0h1v1h-1zm3 0h1v1h-1zm3 0h1v1h-1zm9 0h1v1h-1zm3 0h1v1h-1zm3 0h1v1h-1zm3 0h1v1h-1zm3 0h1v1h-1zm3 0h1v1h-1zm3 0h1v1h-1zm3 0h1v1h-1zm9 0h1v1h-1zm3 0h1v1h-1zm3 0h1v1h-1zM1 32h1v1H1zm9 0h1v1h-1zm3 0h1v1h-1zm3 0h1v1h-1zm33 0h1v1h-1zm3 0h1v1h-1zm3 0h1v1h-1zm3 0h1v1h-1zm3 0h1v1h-1zm3 0h1v1h-1zm3 0h1v1h-1zm3 0h1v1h-1zM1 35h1v1H1zm9 0h1v1h-1zm3 0h1v1h-1zm3 0h1v1h-1zm33 0h1v1h-1zm3 0h1v1h-1zm3 0h1v1h-1zm3 0h1v1h-1zm3 0h1v1h-1zm6 0h1v1h-1zm3 0h1v1h-1zM1 38h1v1H1zm9 0h1v1h-1zm3 0h1v1h-1zm3 0h1v1h-1zm9 0h1v1h-1zm3 0h1v1h-1zm3 0h1v1h-1zm3 0h1v1h-1zm3 0h1v1h-1zm3 0h1v1h-1zm3 0h1v1h-1zm3 0h1v1h-1zm9 0h1v1h-1zm3 0h1v1h-1zm3 0h1v1h-1zM1 41h1v1H1zm6 0h1v1H7zm3 0h1v1h-1zm3 0h1v1h-1zm3 0h1v1h-1zm9 0h1v1h-1zm3 0h1v1h-1zm3 0h1v1h-1zm3 0h1v1h-1zm3 0h1v1h-1zm3 0h1v1h-1zm3 0h1v1h-1zm3 0h1v1h-1zm9 0h1v1h-1zm3 0h1v1h-1zm3 0h1v1h-1zm3 0h1v1h-1zm3 0h1v1h-1zM1 44h1v1H1zm3 0h1v1H4zm6 0h1v1h-1zm3 0h1v1h-1zm3 0h1v1h-1zm9 0h1v1h-1zm3 0h1v1h-1zm3 0h1v1h-1zm3 0h1v1h-1zm3 0h1v1h-1zm3 0h1v1h-1zm3 0h1v1h-1zm3 0h1v1h-1zm9 0h1v1h-1zm3 0h1v1h-1zm3 0h1v1h-1zm3 0h1v1h-1zm7-1h1v1h-1zM7 47h1v1H7zm3 0h1v1h-1zm3 0h1v1h-1zm3 0h1v1h-1zm9 0h1v1h-1zm3 0h1v1h-1zm3 0h1v1h-1zm6 0h1v1h-1zm3 0h1v1h-1zm3 0h1v1h-1zm3 0h1v1h-1zm9 0h1v1h-1zm3 0h1v1h-1zm3 0h1v1h-1zm3 0h1v1h-1zm3 0h1v1h-1zm4-1h1v1h-1zM1 50h1v1H1zm6 0h1v1H7zm3 0h1v1h-1zm3 0h1v1h-1zm3 0h1v1h-1zm9 0h1v1h-1zm3 0h1v1h-1zm3 0h1v1h-1zm3 0h1v1h-1zm3 0h1v1h-1zm3 0h1v1h-1zm3 0h1v1h-1zm3 0h1v1h-1zm9 0h1v1h-1zm3 0h1v1h-1zm3 0h1v1h-1zm9 0h1v1h-1zM7 53h1v1H7zm3 0h1v1h-1zm3 0h1v1h-1zm3 0h1v1h-1zm9 0h1v1h-1zm3 0h1v1h-1zm3 0h1v1h-1zm3 0h1v1h-1zm6 0h1v1h-1zm3 0h1v1h-1zm3 0h1v1h-1zm9 0h1v1h-1zm3 0h1v1h-1zm3 0h1v1h-1zm3 0h1v1h-1zm3 0h1v1h-1zm3 0h1v1h-1zM7 56h1v1H7zm3 0h1v1h-1zm3 0h1v1h-1zm3 0h1v1h-1zm9 0h1v1h-1zm3 0h1v1h-1zm3 0h1v1h-1zm3 0h1v1h-1zm6 0h1v1h-1zm3 0h1v1h-1zm3 0h1v1h-1zm9 0h1v1h-1zm3 0h1v1h-1zm3 0h1v1h-1zm3 0h1v1h-1zM4 59h1v1H4zm3 0h1v1H7zm3 0h1v1h-1zm3 0h1v1h-1zm3 0h1v1h-1zm3 0h1v1h-1zm3 0h1v1h-1zm3 0h1v1h-1zm3 0h1v1h-1zm3 0h1v1h-1zm6 0h1v1h-1zm3 0h1v1h-1zm3 0h1v1h-1zm3 0h1v1h-1zm3 0h1v1h-1zm3 0h1v1h-1zm3 0h1v1h-1zm3 0h1v1h-1zm3 0h1v1h-1zm6 0h1v1h-1zm3 0h1v1h-1zM1 62h1v1H1zm3 0h1v1H4zm6 0h1v1h-1zm3 0h1v1h-1zm3 0h1v1h-1zm3 0h1v1h-1zm3 0h1v1h-1zm3 0h1v1h-1zm3 0h1v1h-1zm3 0h1v1h-1zm3 0h1v1h-1zm6 0h1v1h-1zm3 0h1v1h-1zm3 0h1v1h-1zm3 0h1v1h-1zm3 0h1v1h-1zm3 0h1v1h-1zm3 0h1v1h-1zm3 0h1v1h-1zM4 65h1v1H4zm3 0h1v1H7zm3 0h1v1h-1zm6 0h1v1h-1zm3 0h1v1h-1zm3 0h1v1h-1zm6 0h1v1h-1zm3 0h1v1h-1zm3 0h1v1h-1zm6 0h1v1h-1zm3 0h1v1h-1zm3 0h1v1h-1zm6 0h1v1h-1zm3 0h1v1h-1zm3 0h1v1h-1zm3 0h1v1h-1zm10 0h1v1h-1zM4 68h1v1H4zm6 0h1v1h-1zm12 0h1v1h-1zm3 0h1v1h-1zm18 0h1v1h-1zm3 0h1v1h-1zm6 0h1v1h-1zm9 0h1v1h-1zm3 0h1v1h-1z"/></g><defs><clipPath id="a"><path fill="#fff" d="M0 0h72v72H0z"/></clipPath></defs></svg>