<svg width="721" height="433" viewBox="0 0 721 433" fill="none" xmlns="http://www.w3.org/2000/svg"><mask id="b" style="mask-type:alpha" maskUnits="userSpaceOnUse" x="0" y="0" width="721" height="433"><path fill="url(#a)" d="M0 0h721v433H0z"/></mask><g mask="url(#b)"><mask id="d" style="mask-type:alpha" maskUnits="userSpaceOnUse" x="0" y="0" width="721" height="433"><path fill="url(#c)" d="M0 0h721v433H0z"/></mask><g mask="url(#d)" stroke="#D8F4F609"><path d="M.5.5h48v48H.5zm48 0h48v48h-48zm48 0h48v48h-48zm48 0h48v48h-48zm48 0h48v48h-48zm48 0h48v48h-48zm48 0h48v48h-48zm48 0h48v48h-48zm48 0h48v48h-48zm48 0h48v48h-48zm48 0h48v48h-48zm48 0h48v48h-48zm48 0h48v48h-48zm48 0h48v48h-48zm48 0h48v48h-48zm-672 48h48v48H.5zm48 0h48v48h-48zm48 0h48v48h-48zm48 0h48v48h-48zm48 0h48v48h-48zm48 0h48v48h-48zm48 0h48v48h-48zm48 0h48v48h-48zm48 0h48v48h-48zm48 0h48v48h-48zm48 0h48v48h-48zm48 0h48v48h-48zm48 0h48v48h-48zm48 0h48v48h-48zm48 0h48v48h-48zm-672 48h48v48H.5zm48 0h48v48h-48zm48 0h48v48h-48zm48 0h48v48h-48zm48 0h48v48h-48zm48 0h48v48h-48zm48 0h48v48h-48zm48 0h48v48h-48zm48 0h48v48h-48zm48 0h48v48h-48zm48 0h48v48h-48zm48 0h48v48h-48zm48 0h48v48h-48zm48 0h48v48h-48zm48 0h48v48h-48zm-672 48h48v48H.5zm48 0h48v48h-48zm48 0h48v48h-48zm48 0h48v48h-48zm48 0h48v48h-48zm48 0h48v48h-48zm48 0h48v48h-48zm48 0h48v48h-48zm48 0h48v48h-48zm48 0h48v48h-48zm48 0h48v48h-48zm48 0h48v48h-48zm48 0h48v48h-48zm48 0h48v48h-48zm48 0h48v48h-48zm-672 48h48v48H.5zm48 0h48v48h-48zm48 0h48v48h-48zm48 0h48v48h-48zm48 0h48v48h-48zm48 0h48v48h-48zm48 0h48v48h-48zm48 0h48v48h-48zm48 0h48v48h-48zm48 0h48v48h-48zm48 0h48v48h-48zm48 0h48v48h-48zm48 0h48v48h-48zm48 0h48v48h-48zm48 0h48v48h-48zm-672 48h48v48H.5zm48 0h48v48h-48zm48 0h48v48h-48zm48 0h48v48h-48zm48 0h48v48h-48zm48 0h48v48h-48zm48 0h48v48h-48zm48 0h48v48h-48zm48 0h48v48h-48zm48 0h48v48h-48zm48 0h48v48h-48zm48 0h48v48h-48zm48 0h48v48h-48zm48 0h48v48h-48zm48 0h48v48h-48zm-672 48h48v48H.5zm48 0h48v48h-48zm48 0h48v48h-48zm48 0h48v48h-48zm48 0h48v48h-48zm48 0h48v48h-48zm48 0h48v48h-48zm48 0h48v48h-48zm48 0h48v48h-48zm48 0h48v48h-48zm48 0h48v48h-48zm48 0h48v48h-48zm48 0h48v48h-48zm48 0h48v48h-48zm48 0h48v48h-48zm-672 48h48v48H.5zm48 0h48v48h-48zm48 0h48v48h-48zm48 0h48v48h-48zm48 0h48v48h-48zm48 0h48v48h-48zm48 0h48v48h-48zm48 0h48v48h-48zm48 0h48v48h-48zm48 0h48v48h-48zm48 0h48v48h-48zm48 0h48v48h-48zm48 0h48v48h-48zm48 0h48v48h-48zm48 0h48v48h-48zm-672 48h48v48H.5zm48 0h48v48h-48zm48 0h48v48h-48zm48 0h48v48h-48zm48 0h48v48h-48zm48 0h48v48h-48zm48 0h48v48h-48zm48 0h48v48h-48zm48 0h48v48h-48zm48 0h48v48h-48zm48 0h48v48h-48zm48 0h48v48h-48zm48 0h48v48h-48zm48 0h48v48h-48zm48 0h48v48h-48z"/></g></g><defs><linearGradient id="a" x1="721" y1="216.5" x2="0" y2="216.5" gradientUnits="userSpaceOnUse"><stop stop-opacity="0"/><stop offset=".102"/><stop offset=".902"/><stop offset="1" stop-opacity="0"/></linearGradient><linearGradient id="c" x1="360.5" y1="0" x2="360.5" y2="433" gradientUnits="userSpaceOnUse"><stop stop-opacity="0"/><stop offset=".204"/><stop offset=".8"/><stop offset="1" stop-opacity="0"/></linearGradient></defs></svg>