<svg xmlns="http://www.w3.org/2000/svg" width="492" height="20" fill="none" viewBox="0 0 492 20"><path fill="#3c434e" d="M0 0h4v4H0z" opacity=".24"/><path fill="#3c434e" d="M8 0h4v4H8z" opacity=".72"/><path fill="#3c434e" d="M64 0h4v4h-4z" opacity=".4"/><path fill="#3c434e" d="M72 0h4v4h-4z" opacity=".2"/><path fill="#3c434e" d="M80 0h4v4h-4z" opacity=".62"/><path fill="#3c434e" d="M8 8h4v4H8z" opacity=".9"/><path fill="#3c434e" d="M24 8h4v4h-4z" opacity=".66"/><path fill="#3c434e" d="M32 8h4v4h-4z" opacity=".4"/><path fill="#3c434e" d="M40 8h4v4h-4z" opacity=".96"/><path fill="#3c434e" d="M48 8h4v4h-4z" opacity=".24"/><path fill="#3c434e" d="M56 8h4v4h-4z" opacity=".85"/><path fill="#3c434e" d="M64 8h4v4h-4z" opacity=".25"/><path fill="#3c434e" d="M80 8h4v4h-4z" opacity=".77"/><path fill="#3c434e" d="M24 16h4v4h-4z" opacity=".89"/><path fill="#3c434e" d="M48 16h4v4h-4z" opacity=".68"/><path fill="#3c434e" d="M72 16h4v4h-4z" opacity=".28"/><path fill="#3c434e" d="M172 20h-4v-4h4zm8 0h-4v-4h4z" opacity=".24"/><path fill="#3c434e" d="M164 20h-4v-4h4z" opacity=".72"/><path fill="#3c434e" d="M108 20h-4v-4h4z" opacity=".4"/><path fill="#3c434e" d="M100 20h-4v-4h4z" opacity=".2"/><path fill="#3c434e" d="M164 12h-4V8h4z" opacity=".9"/><path fill="#3c434e" d="M148 12h-4V8h4z" opacity=".66"/><path fill="#3c434e" d="M140 20h-4v-4h4z" opacity=".4"/><path fill="#3c434e" d="M132 12h-4V8h4z" opacity=".96"/><path fill="#3c434e" d="M124 12h-4V8h4z" opacity=".24"/><path fill="#3c434e" d="M108 12h-4V8h4z" opacity=".25"/><path fill="#3c434e" d="M92 12h-4V8h4z" opacity=".77"/><path fill="#3c434e" d="M148 4h-4V0h4z" opacity=".89"/><path fill="#3c434e" d="M124 4h-4V0h4z" opacity=".68"/><path fill="#3c434e" d="M100 4h-4V0h4z" opacity=".28"/><path fill="#3c434e" d="M268 20h-4v-4h4zm8 0h-4v-4h4z" opacity=".24"/><path fill="#3c434e" d="M260 20h-4v-4h4z" opacity=".72"/><path fill="#3c434e" d="M204 20h-4v-4h4z" opacity=".4"/><path fill="#3c434e" d="M196 20h-4v-4h4z" opacity=".2"/><path fill="#3c434e" d="M188 20h-4v-4h4z" opacity=".62"/><path fill="#3c434e" d="M260 12h-4V8h4z" opacity=".9"/><path fill="#3c434e" d="M244 12h-4V8h4z" opacity=".66"/><path fill="#3c434e" d="M236 12h-4V8h4z" opacity=".4"/><path fill="#3c434e" d="M228 12h-4V8h4z" opacity=".96"/><path fill="#3c434e" d="M220 12h-4V8h4z" opacity=".24"/><path fill="#3c434e" d="M212 12h-4V8h4z" opacity=".85"/><path fill="#3c434e" d="M204 12h-4V8h4z" opacity=".25"/><path fill="#3c434e" d="M188 12h-4V8h4z" opacity=".77"/><path fill="#3c434e" d="M244 4h-4V0h4z" opacity=".89"/><path fill="#3c434e" d="M220 4h-4V0h4z" opacity=".68"/><path fill="#3c434e" d="M196 4h-4V0h4z" opacity=".28"/><path fill="#3c434e" d="M288 0h4v4h-4zm-8 0h4v4h-4z" opacity=".24"/><path fill="#3c434e" d="M296 0h4v4h-4z" opacity=".72"/><path fill="#3c434e" d="M352 0h4v4h-4z" opacity=".4"/><path fill="#3c434e" d="M360 0h4v4h-4z" opacity=".2"/><path fill="#3c434e" d="M368 0h4v4h-4z" opacity=".62"/><path fill="#3c434e" d="M296 8h4v4h-4z" opacity=".9"/><path fill="#3c434e" d="M312 8h4v4h-4z" opacity=".66"/><path fill="#3c434e" d="M320 8h4v4h-4z" opacity=".4"/><path fill="#3c434e" d="M328 8h4v4h-4z" opacity=".96"/><path fill="#3c434e" d="M336 8h4v4h-4z" opacity=".24"/><path fill="#3c434e" d="M344 8h4v4h-4z" opacity=".85"/><path fill="#3c434e" d="M352 8h4v4h-4z" opacity=".25"/><path fill="#3c434e" d="M368 8h4v4h-4z" opacity=".77"/><path fill="#3c434e" d="M312 16h4v4h-4z" opacity=".89"/><path fill="#3c434e" d="M336 16h4v4h-4z" opacity=".68"/><path fill="#3c434e" d="M360 16h4v4h-4z" opacity=".28"/><path fill="#3c434e" d="M384 0h4v4h-4zm-8 0h4v4h-4z" opacity=".24"/><path fill="#3c434e" d="M400 8h4v4h-4z" opacity=".66"/><path fill="#3c434e" d="M384 16h4v4h-4z" opacity=".89"/><path fill="#3c434e" d="M492 0h-4v4h4z" opacity=".24"/><path fill="#3c434e" d="M484 0h-4v4h4z" opacity=".72"/><path fill="#3c434e" d="M428 0h-4v4h4z" opacity=".4"/><path fill="#3c434e" d="M420 0h-4v4h4z" opacity=".2"/><path fill="#3c434e" d="M412 0h-4v4h4z" opacity=".62"/><path fill="#3c434e" d="M484 8h-4v4h4z" opacity=".9"/><path fill="#3c434e" d="M468 8h-4v4h4z" opacity=".66"/><path fill="#3c434e" d="M460 8h-4v4h4z" opacity=".4"/><path fill="#3c434e" d="M452 8h-4v4h4z" opacity=".96"/><path fill="#3c434e" d="M444 8h-4v4h4z" opacity=".24"/><path fill="#3c434e" d="M436 8h-4v4h4z" opacity=".85"/><path fill="#3c434e" d="M428 8h-4v4h4z" opacity=".25"/><path fill="#3c434e" d="M412 8h-4v4h4z" opacity=".77"/><path fill="#3c434e" d="M468 16h-4v4h4z" opacity=".89"/><path fill="#3c434e" d="M444 16h-4v4h4z" opacity=".68"/><path fill="#3c434e" d="M420 16h-4v4h4z" opacity=".28"/></svg>