<svg xmlns="http://www.w3.org/2000/svg" width="200" height="16" viewBox="0 0 200 16" fill="none"><g clip-path="url(#a)"><path fill="#cacdd4" d="M0 3h1v1H0z"/><path fill="#3c434e" d="M3 3h1v1H3z"/><path fill="#cacdd4" d="M6 3h1v1H6z"/><path fill="#3c434e" d="M9 3h1v1H9z"/><path fill="#cacdd4" d="M12 3h1v1h-1z"/><path fill="#67707e" d="M15 3h1v1h-1zm3 0h1v1h-1z"/><path fill="#3c434e" d="M21 3h1v1h-1z"/><path fill="#67707e" d="M24 3h1v1h-1z"/><path fill="#cacdd4" d="M30 3h1v1h-1z"/><path fill="#67707e" d="M36 3h1v1h-1zm3 0h1v1h-1zm3 0h1v1h-1zm3 0h1v1h-1z"/><path fill="#cacdd4" d="M48 3h1v1h-1z"/><path fill="#3c434e" d="M54 3h1v1h-1z"/><path fill="#67707e" d="M60 3h1v1h-1zm6 0h1v1h-1zm6 0h1v1h-1z"/><path fill="#cacdd4" d="M78 3h1v1h-1zm3 0h1v1h-1z"/><path fill="#67707e" d="M87 3h1v1h-1z"/><path fill="#3c434e" d="M90 3h1v1h-1z"/><path fill="#cacdd4" d="M93 3h1v1h-1z"/><path fill="#3c434e" d="M99 3h1v1h-1z"/><path fill="#67707e" d="M102 3h1v1h-1z"/><path fill="#cacdd4" d="M105 3h1v1h-1zm3 0h1v1h-1z"/><path fill="#67707e" d="M111 3h1v1h-1z"/><path fill="#cacdd4" d="M114 3h1v1h-1z"/><path fill="#67707e" d="M117 3h1v1h-1z"/><path fill="#cacdd4" d="M120 3h1v1h-1zm9 0h1v1h-1zm6 0h1v1h-1z"/><path fill="#3c434e" d="M138 3h1v1h-1zm6 0h1v1h-1z"/><path fill="#cacdd4" d="M150 3h1v1h-1zm9 0h1v1h-1z"/><path fill="#67707e" d="M162 3h1v1h-1zm3 0h1v1h-1zm3 0h1v1h-1z"/><path fill="#3c434e" d="M171 3h1v1h-1z"/><path fill="#cacdd4" d="M174 3h1v1h-1z"/><path fill="#67707e" d="M180 3h1v1h-1z"/><path fill="#3c434e" d="M183 3h1v1h-1zm6 0h1v1h-1zm9 0h1v1h-1zM0 6h1v1H0z"/><path fill="#cacdd4" d="M6 6h1v1H6z"/><path fill="#3c434e" d="M12 6h1v1h-1z"/><path fill="#cacdd4" d="M15 6h1v1h-1zm3 0h1v1h-1z"/><path fill="#67707e" d="M24 6h1v1h-1z"/><path fill="#cacdd4" d="M33 6h1v1h-1zm3 0h1v1h-1z"/><path fill="#3c434e" d="M39 6h1v1h-1z"/><path fill="#cacdd4" d="M42 6h1v1h-1z"/><path fill="#67707e" d="M48 6h1v1h-1zm6 0h1v1h-1z"/><path fill="#cacdd4" d="M63 6h1v1h-1z"/><path fill="#67707e" d="M66 6h1v1h-1zm3 0h1v1h-1z"/><path fill="#3c434e" d="M72 6h1v1h-1zm6 0h1v1h-1zm15 0h1v1h-1z"/><path fill="#cacdd4" d="M96 6h1v1h-1zm3 0h1v1h-1z"/><path fill="#3c434e" d="M102 6h1v1h-1z"/><path fill="#cacdd4" d="M111 6h1v1h-1zm6 0h1v1h-1zm9 0h1v1h-1zm3 0h1v1h-1z"/><path fill="#67707e" d="M132 6h1v1h-1zm3 0h1v1h-1z"/><path fill="#3c434e" d="M144 6h1v1h-1z"/><path fill="#cacdd4" d="M150 6h1v1h-1z"/><path fill="#67707e" d="M153 6h1v1h-1zm3 0h1v1h-1z"/><path fill="#cacdd4" d="M159 6h1v1h-1zm6 0h1v1h-1z"/><path fill="#3c434e" d="M171 6h1v1h-1z"/><path fill="#67707e" d="M177 6h1v1h-1zm3 0h1v1h-1zm3 0h1v1h-1z"/><path fill="#3c434e" d="M189 6h1v1h-1z"/><path fill="#67707e" d="M195 6h1v1h-1zM0 9h1v1H0z"/><path fill="#cacdd4" d="M3 9h1v1H3zm3 0h1v1H6z"/><path fill="#67707e" d="M12 9h1v1h-1zm3 0h1v1h-1z"/><path fill="#3c434e" d="M18 9h1v1h-1z"/><path fill="#cacdd4" d="M21 9h1v1h-1z"/><path fill="#67707e" d="M24 9h1v1h-1zm12 0h1v1h-1zm3 0h1v1h-1z"/><path fill="#3c434e" d="M42 9h1v1h-1zm6 0h1v1h-1z"/><path fill="#cacdd4" d="M51 9h1v1h-1z"/><path fill="#3c434e" d="M54 9h1v1h-1z"/><path fill="#cacdd4" d="M63 9h1v1h-1z"/><path fill="#3c434e" d="M66 9h1v1h-1z"/><path fill="#cacdd4" d="M78 9h1v1h-1zm6 0h1v1h-1z"/><path fill="#3c434e" d="M87 9h1v1h-1z"/><path fill="#cacdd4" d="M90 9h1v1h-1zm3 0h1v1h-1zm3 0h1v1h-1zm6 0h1v1h-1z"/><path fill="#3c434e" d="M105 9h1v1h-1zm9 0h1v1h-1z"/><path fill="#cacdd4" d="M117 9h1v1h-1zm6 0h1v1h-1zm6 0h1v1h-1z"/><path fill="#3c434e" d="M132 9h1v1h-1zm9 0h1v1h-1z"/><path fill="#cacdd4" d="M147 9h1v1h-1z"/><path fill="#3c434e" d="M150 9h1v1h-1zm3 0h1v1h-1z"/><path fill="#cacdd4" d="M156 9h1v1h-1zm3 0h1v1h-1z"/><path fill="#67707e" d="M165 9h1v1h-1z"/><path fill="#cacdd4" d="M168 9h1v1h-1z"/><path fill="#67707e" d="M174 9h1v1h-1z"/><path fill="#3c434e" d="M180 9h1v1h-1z"/><path fill="#67707e" d="M183 9h1v1h-1z"/><path fill="#3c434e" d="M186 9h1v1h-1z"/><path fill="#cacdd4" d="M189 9h1v1h-1z"/><path fill="#3c434e" d="M195 9h1v1h-1z"/><path fill="#67707e" d="M3 12h1v1H3z"/><path fill="#cacdd4" d="M6 12h1v1H6z"/><path fill="#3c434e" d="M9 12h1v1H9z"/><path fill="#cacdd4" d="M12 12h1v1h-1z"/><path fill="#67707e" d="M21 12h1v1h-1z"/><path fill="#cacdd4" d="M24 12h1v1h-1zm6 0h1v1h-1z"/><path fill="#67707e" d="M33 12h1v1h-1z"/><path fill="#3c434e" d="M42 12h1v1h-1z"/><path fill="#67707e" d="M45 12h1v1h-1z"/><path fill="#3c434e" d="M48 12h1v1h-1z"/><path fill="#cacdd4" d="M51 12h1v1h-1zm6 0h1v1h-1z"/><path fill="#3c434e" d="M69 12h1v1h-1z"/><path fill="#cacdd4" d="M72 12h1v1h-1zm3 0h1v1h-1z"/><path fill="#3c434e" d="M81 12h1v1h-1z"/><path fill="#67707e" d="M90 12h1v1h-1z"/><path fill="#3c434e" d="M93 12h1v1h-1z"/><path fill="#67707e" d="M102 12h1v1h-1zm3 0h1v1h-1z"/><path fill="#cacdd4" d="M111 12h1v1h-1zm3 0h1v1h-1z"/><path fill="#67707e" d="M123 12h1v1h-1z"/><path fill="#cacdd4" d="M126 12h1v1h-1z"/><path fill="#3c434e" d="M129 12h1v1h-1zm9 0h1v1h-1zm3 0h1v1h-1z"/><path fill="#cacdd4" d="M147 12h1v1h-1zm9 0h1v1h-1z"/><path fill="#67707e" d="M159 12h1v1h-1z"/><path fill="#cacdd4" d="M162 12h1v1h-1zm3 0h1v1h-1zm3 0h1v1h-1z"/><path fill="#3c434e" d="M171 12h1v1h-1z"/><path fill="#cacdd4" d="M174 12h1v1h-1zm3 0h1v1h-1z"/><path fill="#3c434e" d="M180 12h1v1h-1z"/><path fill="#cacdd4" d="M183 12h1v1h-1z"/><path fill="#67707e" d="M189 12h1v1h-1z"/><path fill="#cacdd4" d="M192 12h1v1h-1z"/><path fill="#67707e" d="M195 12h1v1h-1zm3 0h1v1h-1z"/></g><defs><clipPath id="a"><path fill="#fff" d="M0 0h200v16H0z"/></clipPath></defs></svg>