<svg width="20" height="404" viewBox="0 0 20 404" fill="none" xmlns="http://www.w3.org/2000/svg">
<g clip-path="url(#clip0_21064_10698)">
<rect opacity="0.24" width="4" height="4" transform="matrix(4.37114e-08 1 1 -4.37114e-08 0 8.74227e-07)" fill="#3c434e"/>
<rect opacity="0.72" width="4" height="4" transform="matrix(4.37114e-08 1 1 -4.37114e-08 0 8)" fill="#3c434e"/>
<rect opacity="0.4" width="4" height="4" transform="matrix(4.37114e-08 1 1 -4.37114e-08 0 64)" fill="#3c434e"/>
<rect opacity="0.2" width="4" height="4" transform="matrix(4.37114e-08 1 1 -4.37114e-08 0 72)" fill="#3c434e"/>
<rect opacity="0.62" width="4" height="4" transform="matrix(4.37114e-08 1 1 -4.37114e-08 0 80)" fill="#3c434e"/>
<rect opacity="0.9" width="4" height="4" transform="matrix(4.37114e-08 1 1 -4.37114e-08 8 8)" fill="#3c434e"/>
<rect opacity="0.66" width="4" height="4" transform="matrix(4.37114e-08 1 1 -4.37114e-08 8 24)" fill="#3c434e"/>
<rect opacity="0.4" width="4" height="4" transform="matrix(4.37114e-08 1 1 -4.37114e-08 8 32)" fill="#3c434e"/>
<rect opacity="0.96" width="4" height="4" transform="matrix(4.37114e-08 1 1 -4.37114e-08 8 40)" fill="#3c434e"/>
<rect opacity="0.24" width="4" height="4" transform="matrix(4.37114e-08 1 1 -4.37114e-08 8 48)" fill="#3c434e"/>
<rect opacity="0.85" width="4" height="4" transform="matrix(4.37114e-08 1 1 -4.37114e-08 8 56)" fill="#3c434e"/>
<rect opacity="0.25" width="4" height="4" transform="matrix(4.37114e-08 1 1 -4.37114e-08 8 64)" fill="#3c434e"/>
<rect opacity="0.77" width="4" height="4" transform="matrix(4.37114e-08 1 1 -4.37114e-08 8 80)" fill="#3c434e"/>
<rect opacity="0.89" width="4" height="4" transform="matrix(4.37114e-08 1 1 -4.37114e-08 16 24)" fill="#3c434e"/>
<rect opacity="0.68" width="4" height="4" transform="matrix(4.37114e-08 1 1 -4.37114e-08 16 48)" fill="#3c434e"/>
<rect opacity="0.28" width="4" height="4" transform="matrix(4.37114e-08 1 1 -4.37114e-08 16 72)" fill="#3c434e"/>
<rect opacity="0.24" width="4" height="4" transform="matrix(-4.37114e-08 -1 -1 4.37114e-08 20 172)" fill="#3c434e"/>
<rect opacity="0.24" width="4" height="4" transform="matrix(-4.37114e-08 -1 -1 4.37114e-08 20 180)" fill="#3c434e"/>
<rect opacity="0.72" width="4" height="4" transform="matrix(-4.37114e-08 -1 -1 4.37114e-08 20 164)" fill="#3c434e"/>
<rect opacity="0.4" width="4" height="4" transform="matrix(-4.37114e-08 -1 -1 4.37114e-08 20 108)" fill="#3c434e"/>
<rect opacity="0.2" width="4" height="4" transform="matrix(-4.37114e-08 -1 -1 4.37114e-08 20 100)" fill="#3c434e"/>
<rect opacity="0.9" width="4" height="4" transform="matrix(-4.37114e-08 -1 -1 4.37114e-08 12 164)" fill="#3c434e"/>
<rect opacity="0.66" width="4" height="4" transform="matrix(-4.37114e-08 -1 -1 4.37114e-08 12 148)" fill="#3c434e"/>
<rect opacity="0.4" width="4" height="4" transform="matrix(-4.37114e-08 -1 -1 4.37114e-08 20 140)" fill="#3c434e"/>
<rect opacity="0.96" width="4" height="4" transform="matrix(-4.37114e-08 -1 -1 4.37114e-08 12 132)" fill="#3c434e"/>
<rect opacity="0.24" width="4" height="4" transform="matrix(-4.37114e-08 -1 -1 4.37114e-08 12 124)" fill="#3c434e"/>
<rect opacity="0.25" width="4" height="4" transform="matrix(-4.37114e-08 -1 -1 4.37114e-08 12 108)" fill="#3c434e"/>
<rect opacity="0.77" width="4" height="4" transform="matrix(-4.37114e-08 -1 -1 4.37114e-08 12 92)" fill="#3c434e"/>
<rect opacity="0.89" width="4" height="4" transform="matrix(-4.37114e-08 -1 -1 4.37114e-08 4 148)" fill="#3c434e"/>
<rect opacity="0.68" width="4" height="4" transform="matrix(-4.37114e-08 -1 -1 4.37114e-08 4 124)" fill="#3c434e"/>
<rect opacity="0.28" width="4" height="4" transform="matrix(-4.37114e-08 -1 -1 4.37114e-08 4 100)" fill="#3c434e"/>
<rect opacity="0.24" width="4" height="4" transform="matrix(-4.37114e-08 -1 -1 4.37114e-08 20 268)" fill="#3c434e"/>
<rect opacity="0.24" width="4" height="4" transform="matrix(-4.37114e-08 -1 -1 4.37114e-08 20 276)" fill="#3c434e"/>
<rect opacity="0.72" width="4" height="4" transform="matrix(-4.37114e-08 -1 -1 4.37114e-08 20 260)" fill="#3c434e"/>
<rect opacity="0.4" width="4" height="4" transform="matrix(-4.37114e-08 -1 -1 4.37114e-08 20 204)" fill="#3c434e"/>
<rect opacity="0.2" width="4" height="4" transform="matrix(-4.37114e-08 -1 -1 4.37114e-08 20 196)" fill="#3c434e"/>
<rect opacity="0.62" width="4" height="4" transform="matrix(-4.37114e-08 -1 -1 4.37114e-08 20 188)" fill="#3c434e"/>
<rect opacity="0.9" width="4" height="4" transform="matrix(-4.37114e-08 -1 -1 4.37114e-08 12 260)" fill="#3c434e"/>
<rect opacity="0.66" width="4" height="4" transform="matrix(-4.37114e-08 -1 -1 4.37114e-08 12 244)" fill="#3c434e"/>
<rect opacity="0.4" width="4" height="4" transform="matrix(-4.37114e-08 -1 -1 4.37114e-08 12 236)" fill="#3c434e"/>
<rect opacity="0.96" width="4" height="4" transform="matrix(-4.37114e-08 -1 -1 4.37114e-08 12 228)" fill="#3c434e"/>
<rect opacity="0.24" width="4" height="4" transform="matrix(-4.37114e-08 -1 -1 4.37114e-08 12 220)" fill="#3c434e"/>
<rect opacity="0.85" width="4" height="4" transform="matrix(-4.37114e-08 -1 -1 4.37114e-08 12 212)" fill="#3c434e"/>
<rect opacity="0.25" width="4" height="4" transform="matrix(-4.37114e-08 -1 -1 4.37114e-08 12 204)" fill="#3c434e"/>
<rect opacity="0.77" width="4" height="4" transform="matrix(-4.37114e-08 -1 -1 4.37114e-08 12 188)" fill="#3c434e"/>
<rect opacity="0.89" width="4" height="4" transform="matrix(-4.37114e-08 -1 -1 4.37114e-08 4 244)" fill="#3c434e"/>
<rect opacity="0.68" width="4" height="4" transform="matrix(-4.37114e-08 -1 -1 4.37114e-08 4 220)" fill="#3c434e"/>
<rect opacity="0.28" width="4" height="4" transform="matrix(-4.37114e-08 -1 -1 4.37114e-08 4 196)" fill="#3c434e"/>
<rect opacity="0.24" width="4" height="4" transform="matrix(4.37114e-08 1 1 -4.37114e-08 0 288)" fill="#3c434e"/>
<rect opacity="0.24" width="4" height="4" transform="matrix(4.37114e-08 1 1 -4.37114e-08 0 280)" fill="#3c434e"/>
<rect opacity="0.72" width="4" height="4" transform="matrix(4.37114e-08 1 1 -4.37114e-08 0 296)" fill="#3c434e"/>
<rect opacity="0.4" width="4" height="4" transform="matrix(4.37114e-08 1 1 -4.37114e-08 0 352)" fill="#3c434e"/>
<rect opacity="0.2" width="4" height="4" transform="matrix(4.37114e-08 1 1 -4.37114e-08 0 360)" fill="#3c434e"/>
<rect opacity="0.62" width="4" height="4" transform="matrix(4.37114e-08 1 1 -4.37114e-08 0 368)" fill="#3c434e"/>
<rect opacity="0.9" width="4" height="4" transform="matrix(4.37114e-08 1 1 -4.37114e-08 8 296)" fill="#3c434e"/>
<rect opacity="0.66" width="4" height="4" transform="matrix(4.37114e-08 1 1 -4.37114e-08 8 312)" fill="#3c434e"/>
<rect opacity="0.4" width="4" height="4" transform="matrix(4.37114e-08 1 1 -4.37114e-08 8 320)" fill="#3c434e"/>
<rect opacity="0.96" width="4" height="4" transform="matrix(4.37114e-08 1 1 -4.37114e-08 8 328)" fill="#3c434e"/>
<rect opacity="0.24" width="4" height="4" transform="matrix(4.37114e-08 1 1 -4.37114e-08 8 336)" fill="#3c434e"/>
<rect opacity="0.85" width="4" height="4" transform="matrix(4.37114e-08 1 1 -4.37114e-08 8 344)" fill="#3c434e"/>
<rect opacity="0.25" width="4" height="4" transform="matrix(4.37114e-08 1 1 -4.37114e-08 8 352)" fill="#3c434e"/>
<rect opacity="0.77" width="4" height="4" transform="matrix(4.37114e-08 1 1 -4.37114e-08 8 368)" fill="#3c434e"/>
<rect opacity="0.89" width="4" height="4" transform="matrix(4.37114e-08 1 1 -4.37114e-08 16 312)" fill="#3c434e"/>
<rect opacity="0.68" width="4" height="4" transform="matrix(4.37114e-08 1 1 -4.37114e-08 16 336)" fill="#3c434e"/>
<rect opacity="0.28" width="4" height="4" transform="matrix(4.37114e-08 1 1 -4.37114e-08 16 360)" fill="#3c434e"/>
<rect opacity="0.24" width="4" height="4" transform="matrix(4.37114e-08 1 1 -4.37114e-08 0 384)" fill="#3c434e"/>
<rect opacity="0.24" width="4" height="4" transform="matrix(4.37114e-08 1 1 -4.37114e-08 0 376)" fill="#3c434e"/>
<rect opacity="0.66" width="4" height="4" transform="matrix(4.37114e-08 1 1 -4.37114e-08 8 400)" fill="#3c434e"/>
<rect opacity="0.89" width="4" height="4" transform="matrix(4.37114e-08 1 1 -4.37114e-08 16 384)" fill="#3c434e"/>
</g>
<defs>
<clipPath id="clip0_21064_10698">
<rect width="404" height="20" fill="white" transform="matrix(4.37114e-08 1 1 -4.37114e-08 0 8.74227e-07)"/>
</clipPath>
</defs>
</svg>
