<svg xmlns="http://www.w3.org/2000/svg" width="112" height="16" fill="none" viewBox="0 0 112 16"><path fill="#151618" d="M0 3h1v1H0z"/><path fill="#3c434e" d="M3 3h1v1H3z"/><path fill="#151618" d="M6 3h1v1H6z"/><path fill="#3c434e" d="M9 3h1v1H9z"/><path fill="#151618" d="M12 3h1v1h-1z"/><path fill="#979faa" d="M15 3h1v1h-1zm3 0h1v1h-1z"/><path fill="#3c434e" d="M21 3h1v1h-1z"/><path fill="#979faa" d="M24 3h1v1h-1z"/><path fill="#fff" d="M27 3h1v1h-1z"/><path fill="#151618" d="M30 3h1v1h-1z"/><path fill="#fff" d="M33 3h1v1h-1z"/><path fill="#979faa" d="M36 3h1v1h-1zm3 0h1v1h-1zm3 0h1v1h-1zm3 0h1v1h-1z"/><path fill="#151618" d="M48 3h1v1h-1z"/><path fill="#fff" d="M51 3h1v1h-1z"/><path fill="#3c434e" d="M54 3h1v1h-1z"/><path fill="#fff" d="M57 3h1v1h-1z"/><path fill="#979faa" d="M60 3h1v1h-1z"/><path fill="#fff" d="M63 3h1v1h-1z"/><path fill="#979faa" d="M66 3h1v1h-1z"/><path fill="#fff" d="M69 3h1v1h-1z"/><path fill="#979faa" d="M72 3h1v1h-1z"/><path fill="#fff" d="M75 3h1v1h-1z"/><path fill="#151618" d="M78 3h1v1h-1zm3 0h1v1h-1z"/><path fill="#fff" d="M84 3h1v1h-1z"/><path fill="#979faa" d="M87 3h1v1h-1z"/><path fill="#3c434e" d="M90 3h1v1h-1z"/><path fill="#151618" d="M93 3h1v1h-1z"/><path fill="#fff" d="M96 3h1v1h-1z"/><path fill="#3c434e" d="M99 3h1v1h-1z"/><path fill="#979faa" d="M102 3h1v1h-1z"/><path fill="#151618" d="M105 3h1v1h-1zm3 0h1v1h-1z"/><path fill="#979faa" d="M111 3h1v1h-1z"/><path fill="#3c434e" d="M0 6h1v1H0z"/><path fill="#fff" d="M3 6h1v1H3z"/><path fill="#151618" d="M6 6h1v1H6z"/><path fill="#fff" d="M9 6h1v1H9z"/><path fill="#3c434e" d="M12 6h1v1h-1z"/><path fill="#151618" d="M15 6h1v1h-1zm3 0h1v1h-1z"/><path fill="#fff" d="M21 6h1v1h-1z"/><path fill="#979faa" d="M24 6h1v1h-1z"/><path fill="#fff" d="M27 6h1v1h-1zm3 0h1v1h-1z"/><path fill="#151618" d="M33 6h1v1h-1zm3 0h1v1h-1z"/><path fill="#3c434e" d="M39 6h1v1h-1z"/><path fill="#151618" d="M42 6h1v1h-1z"/><path fill="#fff" d="M45 6h1v1h-1z"/><path fill="#979faa" d="M48 6h1v1h-1z"/><path fill="#fff" d="M51 6h1v1h-1z"/><path fill="#979faa" d="M54 6h1v1h-1z"/><path fill="#fff" d="M57 6h1v1h-1zm3 0h1v1h-1z"/><path fill="#151618" d="M63 6h1v1h-1z"/><path fill="#979faa" d="M66 6h1v1h-1zm3 0h1v1h-1z"/><path fill="#3c434e" d="M72 6h1v1h-1z"/><path fill="#fff" d="M75 6h1v1h-1z"/><path fill="#3c434e" d="M78 6h1v1h-1z"/><path fill="#fff" d="M81 6h1v1h-1zm3 0h1v1h-1zm3 0h1v1h-1zm3 0h1v1h-1z"/><path fill="#3c434e" d="M93 6h1v1h-1z"/><path fill="#151618" d="M96 6h1v1h-1zm3 0h1v1h-1z"/><path fill="#3c434e" d="M102 6h1v1h-1z"/><path fill="#fff" d="M105 6h1v1h-1zm3 0h1v1h-1z"/><path fill="#151618" d="M111 6h1v1h-1z"/><path fill="#979faa" d="M0 9h1v1H0z"/><path fill="#151618" d="M3 9h1v1H3zm3 0h1v1H6z"/><path fill="#fff" d="M9 9h1v1H9z"/><path fill="#979faa" d="M12 9h1v1h-1zm3 0h1v1h-1z"/><path fill="#3c434e" d="M18 9h1v1h-1z"/><path fill="#151618" d="M21 9h1v1h-1z"/><path fill="#979faa" d="M24 9h1v1h-1z"/><path fill="#fff" d="M27 9h1v1h-1zm3 0h1v1h-1zm3 0h1v1h-1z"/><path fill="#979faa" d="M36 9h1v1h-1zm3 0h1v1h-1z"/><path fill="#3c434e" d="M42 9h1v1h-1z"/><path fill="#fff" d="M45 9h1v1h-1z"/><path fill="#3c434e" d="M48 9h1v1h-1z"/><path fill="#151618" d="M51 9h1v1h-1z"/><path fill="#3c434e" d="M54 9h1v1h-1z"/><path fill="#fff" d="M57 9h1v1h-1zm3 0h1v1h-1z"/><path fill="#151618" d="M63 9h1v1h-1z"/><path fill="#3c434e" d="M66 9h1v1h-1z"/><path fill="#fff" d="M69 9h1v1h-1zm3 0h1v1h-1zm3 0h1v1h-1z"/><path fill="#151618" d="M78 9h1v1h-1z"/><path fill="#fff" d="M81 9h1v1h-1z"/><path fill="#151618" d="M84 9h1v1h-1z"/><path fill="#3c434e" d="M87 9h1v1h-1z"/><path fill="#151618" d="M90 9h1v1h-1zm3 0h1v1h-1zm3 0h1v1h-1z"/><path fill="#fff" d="M99 9h1v1h-1z"/><path fill="#151618" d="M102 9h1v1h-1z"/><path fill="#3c434e" d="M105 9h1v1h-1z"/><path fill="#fff" d="M108 9h1v1h-1zm3 0h1v1h-1zM0 12h1v1H0z"/><path fill="#979faa" d="M3 12h1v1H3z"/><path fill="#151618" d="M6 12h1v1H6z"/><path fill="#3c434e" d="M9 12h1v1H9z"/><path fill="#151618" d="M12 12h1v1h-1z"/><path fill="#fff" d="M15 12h1v1h-1zm3 0h1v1h-1z"/><path fill="#979faa" d="M21 12h1v1h-1z"/><path fill="#151618" d="M24 12h1v1h-1z"/><path fill="#fff" d="M27 12h1v1h-1z"/><path fill="#151618" d="M30 12h1v1h-1z"/><path fill="#979faa" d="M33 12h1v1h-1z"/><path fill="#fff" d="M36 12h1v1h-1zm3 0h1v1h-1z"/><path fill="#3c434e" d="M42 12h1v1h-1z"/><path fill="#979faa" d="M45 12h1v1h-1z"/><path fill="#3c434e" d="M48 12h1v1h-1z"/><path fill="#151618" d="M51 12h1v1h-1z"/><path fill="#fff" d="M54 12h1v1h-1z"/><path fill="#151618" d="M57 12h1v1h-1z"/><path fill="#fff" d="M60 12h1v1h-1zm3 0h1v1h-1zm3 0h1v1h-1z"/><path fill="#3c434e" d="M69 12h1v1h-1z"/><path fill="#151618" d="M72 12h1v1h-1zm3 0h1v1h-1z"/><path fill="#fff" d="M78 12h1v1h-1z"/><path fill="#3c434e" d="M81 12h1v1h-1z"/><path fill="#fff" d="M84 12h1v1h-1zm3 0h1v1h-1z"/><path fill="#979faa" d="M90 12h1v1h-1z"/><path fill="#3c434e" d="M93 12h1v1h-1z"/><path fill="#fff" d="M96 12h1v1h-1zm3 0h1v1h-1z"/><path fill="#979faa" d="M102 12h1v1h-1zm3 0h1v1h-1z"/><path fill="#fff" d="M108 12h1v1h-1z"/><path fill="#151618" d="M111 12h1v1h-1z"/></svg>