<svg xmlns="http://www.w3.org/2000/svg" width="164" height="32" fill="none" viewBox="0 0 164 32"><path fill="url(#a)" fill-rule="evenodd" d="M0 6.183A6.183 6.183 0 0 1 6.183 0h19.634A6.183 6.183 0 0 1 32 6.183v19.634A6.183 6.183 0 0 1 25.817 32H6.183A6.183 6.183 0 0 1 0 25.817zM7.98 5.07c.094.97-.058 1.186-.836 1.19-1.44.01-1 1.832.525 2.166.222.05.346.076.393.151.059.094 0 .26-.133.636-.377 1.068-.245 5.379.186 6.062.086.137.203.81.26 1.495.123 1.465.643 2.366 1.84 3.19.717.493.746.548.747 1.413 0 .495.075 1.541.165 2.324.18 1.557-.096 3.033-.6 3.227-.553.212-.3.802.344.802.662 0 1.023-.496 1.484-2.04.257-.859.503-.679.507.37a1.7 1.7 0 0 1-.43 1.182c-.599.712-.549.834.34.834.978 0 1.153-.286 1.322-2.163.366-4.062.435-4.22 1.785-4.12 1.12.083 2.676-.092 3.433-.387.249-.096.303-.021.303.419 0 .346.215.817.606 1.33.873 1.144.755 2.8-.266 3.752-.561.523-.433.823.352.823.63 0 .693-.04.693-.451 0-.248.192-.68.428-.96.235-.28.517-.836.625-1.236.109-.4.23-.838.27-.973.052-.176.242-.08.673.337.748.725.892 2.446.254 3.023-.519.47-.426.606.414.606.913 0 .948-.062 1.18-2.077l.002-.022c.1-.857.15-1.304.151-1.752 0-.49-.06-.98-.187-2.005l-.003-.029c-.445-3.604-.44-3.754.159-4.313 1.595-1.49.157-4.1-2.144-3.892-1.067.096-1.337.06-1.98-.268-1.239-.632-2.815-.867-5.837-.87-1.683-.002-2.351-.003-2.643-.335-.193-.219-.222-.581-.271-1.183-.312-3.862-.932-5.703-2.238-6.65-.769-.558-.97-.603-.97-.22 0 .244-.036.244-.384 0-.57-.4-.61-.351-.518.614" clip-rule="evenodd"/><path fill="url(#b)" d="M53.058 8.274v14.981h3.15V8.274z"/><path fill="url(#c)" fill-rule="evenodd" d="M127.791 22.73q1.23.687 2.766.687 1.433 0 2.442-.606.542-.319.95-.81v1.254h3.008V8.274h-3.15v5.251a3.7 3.7 0 0 0-.848-.688q-1.03-.606-2.402-.606-1.536 0-2.766.687a5.1 5.1 0 0 0-1.959 1.938q-.706 1.252-.706 2.968 0 1.695.706 2.948a5.26 5.26 0 0 0 1.959 1.958m4.704-2.261a2.73 2.73 0 0 1-1.394.363q-.787 0-1.413-.363a2.75 2.75 0 0 1-1.01-1.03q-.362-.686-.362-1.615 0-.95.362-1.615a2.75 2.75 0 0 1 1.01-1.03 2.76 2.76 0 0 1 1.413-.363q.767 0 1.394.363.626.364.989 1.03.384.666.384 1.615 0 .93-.384 1.615a2.6 2.6 0 0 1-.989 1.03" clip-rule="evenodd"/><path fill="url(#d)" fill-rule="evenodd" d="M145.264 23.416q-1.858 0-3.271-.727-1.394-.726-2.16-1.978-.768-1.272-.768-2.887 0-1.635.747-2.888a5.35 5.35 0 0 1 2.08-1.978q1.312-.727 2.968-.727 1.595 0 2.867.686a4.96 4.96 0 0 1 2.039 1.939q.748 1.251.747 3.008 0 .182-.02.424-.02.223-.04.424h-8.219q.095.434.304.808a2.73 2.73 0 0 0 1.11 1.03q.727.343 1.696.343.869 0 1.515-.263a3.7 3.7 0 0 0 1.211-.787l1.676 1.817a5 5 0 0 1-1.878 1.312q-1.13.444-2.604.444m-2.766-7.45q-.222.404-.3.909h5.349a2.8 2.8 0 0 0-.305-.929 2.43 2.43 0 0 0-.948-.97q-.606-.362-1.414-.363-.807 0-1.434.364-.605.343-.948.99" clip-rule="evenodd"/><path fill="url(#e)" d="m150.941 23.255 4.179-5.479-4.037-5.383h3.533l2.304 3.172 2.36-3.172h3.352l-4.041 5.312 4.202 5.55h-3.574l-2.378-3.327-2.467 3.327z"/><path fill="url(#f)" d="M118.457 12.231q1.291 0 2.302.525 1.029.504 1.615 1.575.585 1.05.585 2.705v6.219h-3.15V17.52q0-1.312-.585-1.938-.566-.626-1.615-.626-.748 0-1.353.323-.586.303-.929.949-.323.645-.323 1.655v5.37h-3.15v-10.86h3.009v1.29a4 4 0 0 1 1.11-.866q1.09-.585 2.484-.585"/><path fill="url(#g)" d="M105.452 9.122v14.133h3.271V9.122z"/><path fill="url(#h)" fill-rule="evenodd" d="M99.43 23.255v-1.35a2.76 2.76 0 0 1-.968.966q-.91.546-2.342.545-1.272.001-2.18-.424-.91-.444-1.394-1.19a3 3 0 0 1-.484-1.677q0-.969.464-1.696.485-.726 1.514-1.13 1.03-.424 2.685-.424h2.504q0-1.01-.626-1.575-.605-.565-1.878-.565-.868 0-1.715.282a4.4 4.4 0 0 0-1.414.727l-1.13-2.2q.888-.627 2.14-.97a9.6 9.6 0 0 1 2.544-.343q2.483 0 3.856 1.171 1.373 1.17 1.373 3.655v6.198zm-2.361-4.543h2.16v1.11a2.2 2.2 0 0 1-.908 1.111 2.76 2.76 0 0 1-1.413.363q-.829 0-1.313-.343a1.17 1.17 0 0 1-.464-.969q0-.544.403-.909.424-.363 1.535-.363" clip-rule="evenodd"/><path fill="url(#i)" d="M87.784 12.756q-.989-.525-2.281-.525-1.556 0-2.766.747a4.5 4.5 0 0 0-1.148 1.021 3.2 3.2 0 0 0-.972-1q-1.11-.768-2.605-.768-1.332 0-2.382.585a3.7 3.7 0 0 0-1.03.83v-1.254h-3.008v10.863h3.15v-5.451q0-.97.302-1.595.303-.626.848-.93a2.37 2.37 0 0 1 1.232-.322q.99 0 1.514.626.546.625.545 1.938v5.734h3.15v-5.451q0-.97.303-1.595.303-.626.848-.93a2.37 2.37 0 0 1 1.231-.322q.99 0 1.535.626.545.625.545 1.938v5.734h3.15v-6.219q0-1.655-.586-2.705-.564-1.071-1.575-1.575"/><path fill="url(#j)" fill-rule="evenodd" d="M65.793 23.255v-1.35q-.355.598-.97.966-.908.546-2.341.545-1.272.001-2.18-.424-.91-.444-1.394-1.19a3 3 0 0 1-.485-1.677q0-.969.465-1.696.485-.726 1.514-1.13 1.03-.424 2.685-.424h2.504q0-1.01-.626-1.575-.606-.565-1.878-.565-.867 0-1.716.282a4.4 4.4 0 0 0-1.413.727l-1.13-2.2q.887-.627 2.14-.97a9.6 9.6 0 0 1 2.543-.343q2.483 0 3.857 1.171 1.373 1.17 1.373 3.655v6.198zm-2.362-4.543h2.16v1.11a2.2 2.2 0 0 1-.909 1.111 2.76 2.76 0 0 1-1.413.363q-.829 0-1.312-.343a1.17 1.17 0 0 1-.465-.969q0-.544.404-.909.424-.363 1.535-.363" clip-rule="evenodd"/><path fill="url(#k)" d="M41.074 23.255V9.122h3.271V20.59h7.087v2.665z"/><defs><linearGradient id="a" x1="92.362" x2="165.466" y1="0" y2="8.589" gradientUnits="userSpaceOnUse"><stop stop-color="#FCFCFD"/><stop offset="1" stop-color="#E0E1E6"/></linearGradient><linearGradient id="b" x1="92.362" x2="165.466" y1="0" y2="8.589" gradientUnits="userSpaceOnUse"><stop stop-color="#FCFCFD"/><stop offset="1" stop-color="#E0E1E6"/></linearGradient><linearGradient id="c" x1="92.362" x2="165.466" y1="0" y2="8.589" gradientUnits="userSpaceOnUse"><stop stop-color="#FCFCFD"/><stop offset="1" stop-color="#E0E1E6"/></linearGradient><linearGradient id="d" x1="92.362" x2="165.466" y1="0" y2="8.589" gradientUnits="userSpaceOnUse"><stop stop-color="#FCFCFD"/><stop offset="1" stop-color="#E0E1E6"/></linearGradient><linearGradient id="e" x1="92.362" x2="165.466" y1="0" y2="8.589" gradientUnits="userSpaceOnUse"><stop stop-color="#FCFCFD"/><stop offset="1" stop-color="#E0E1E6"/></linearGradient><linearGradient id="f" x1="92.362" x2="165.466" y1="0" y2="8.589" gradientUnits="userSpaceOnUse"><stop stop-color="#FCFCFD"/><stop offset="1" stop-color="#E0E1E6"/></linearGradient><linearGradient id="g" x1="92.362" x2="165.466" y1="0" y2="8.589" gradientUnits="userSpaceOnUse"><stop stop-color="#FCFCFD"/><stop offset="1" stop-color="#E0E1E6"/></linearGradient><linearGradient id="h" x1="92.362" x2="165.466" y1="0" y2="8.589" gradientUnits="userSpaceOnUse"><stop stop-color="#FCFCFD"/><stop offset="1" stop-color="#E0E1E6"/></linearGradient><linearGradient id="i" x1="92.362" x2="165.466" y1="0" y2="8.589" gradientUnits="userSpaceOnUse"><stop stop-color="#FCFCFD"/><stop offset="1" stop-color="#E0E1E6"/></linearGradient><linearGradient id="j" x1="92.362" x2="165.466" y1="0" y2="8.589" gradientUnits="userSpaceOnUse"><stop stop-color="#FCFCFD"/><stop offset="1" stop-color="#E0E1E6"/></linearGradient><linearGradient id="k" x1="92.362" x2="165.466" y1="0" y2="8.589" gradientUnits="userSpaceOnUse"><stop stop-color="#FCFCFD"/><stop offset="1" stop-color="#E0E1E6"/></linearGradient></defs></svg>