<svg xmlns="http://www.w3.org/2000/svg" width="72" height="72" viewBox="0 0 72 72" fill="none">
  <g filter="url(#filter0_b_10977_5596)">
    <path fill-rule="evenodd" clip-rule="evenodd" d="M0 13.911C0 6.22817 6.22815 0 13.911 0H58.0889C65.7717 0 72 6.22817 72 13.911V58.089C72 65.7719 65.7717 72 58.089 72H13.911C6.22816 72 0 65.7719 0 58.089V13.911Z" fill="#1A1B1D" fill-opacity="0.48"/>
  </g>
  <path fill-rule="evenodd" clip-rule="evenodd" d="M14.915 0H13.911C13.5433 0 13.1789 0.0142646 12.8184 0.0422706L12.8959 1.03927C13.2306 1.01326 13.5692 1 13.911 1H14.915V0ZM6.64165 2.04813L7.16494 2.90028C6.58718 3.25508 6.03935 3.65417 5.52621 4.09284L4.8764 3.33274C5.42904 2.8603 6.01915 2.4304 6.64165 2.04813ZM3.33272 4.87643L4.09283 5.52623C3.65415 6.03937 3.25507 6.58721 2.90027 7.16497L2.04812 6.64168C2.43039 6.01918 2.86028 5.42907 3.33272 4.87643ZM1.05557 8.58604L1.97929 8.96909C1.72257 9.58819 1.51266 10.2315 1.35397 10.8948L0.381422 10.6621C0.552505 9.94707 0.778807 9.25345 1.05557 8.58604ZM0 57.085H1V58.089C1 58.4308 1.01326 58.7693 1.03927 59.1041L0.04227 59.1815C0.0142644 58.821 0 58.4567 0 58.089V57.085ZM0.381421 61.3379L1.35397 61.1052C1.51266 61.7685 1.72257 62.4118 1.97929 63.0309L1.05556 63.414C0.778805 62.7466 0.552504 62.0529 0.381421 61.3379ZM2.04812 65.3583L2.90027 64.835C3.25507 65.4128 3.65415 65.9606 4.09282 66.4738L3.33272 67.1236C2.86028 66.5709 2.43038 65.9808 2.04812 65.3583ZM4.8764 68.6673L5.52621 67.9072C6.03935 68.3458 6.58718 68.7449 7.16494 69.0997L6.64165 69.9519C6.01915 69.5696 5.42905 69.1397 4.8764 68.6673ZM8.58601 70.9444L8.96906 70.0207C9.58816 70.2774 10.2315 70.4873 10.8948 70.646L10.6621 71.6186C9.94703 71.4475 9.25342 71.2212 8.58601 70.9444ZM57.085 72V71H58.089C58.4308 71 58.7694 70.9867 59.1041 70.9607L59.1816 71.9577C58.8211 71.9857 58.4567 72 58.089 72H57.085ZM61.3379 71.6186L61.1052 70.646C61.7685 70.4873 62.4118 70.2774 63.0309 70.0207L63.414 70.9444C62.7466 71.2212 62.053 71.4475 61.3379 71.6186ZM65.3583 69.9519L64.835 69.0997C65.4128 68.7449 65.9606 68.3458 66.4738 67.9071L67.1236 68.6672C66.5709 69.1397 65.9808 69.5696 65.3583 69.9519ZM68.6673 67.1236L67.9072 66.4738C68.3458 65.9606 68.7449 65.4128 69.0997 64.835L69.9519 65.3583C69.5696 65.9808 69.1397 66.5709 68.6673 67.1236ZM70.9444 63.414L70.0207 63.0309C70.2774 62.4118 70.4873 61.7685 70.646 61.1052L71.6186 61.3379C71.4475 62.0529 71.2212 62.7466 70.9444 63.414ZM72 14.915H71V13.911C71 13.5692 70.9867 13.2307 70.9607 12.8959L71.9577 12.8184C71.9857 13.1789 72 13.5433 72 13.911V14.915ZM71.6186 10.6621L70.646 10.8948C70.4873 10.2315 70.2774 9.58816 70.0207 8.96907L70.9444 8.586C71.2212 9.25341 71.4475 9.94703 71.6186 10.6621ZM69.9518 6.64164L69.0997 7.16494C68.7449 6.58718 68.3458 6.03935 67.9071 5.52621L68.6672 4.8764C69.1396 5.42904 69.5695 6.01915 69.9518 6.64164ZM67.1235 3.33272L66.4737 4.09283C65.9605 3.65415 65.4127 3.25507 64.8349 2.90027L65.3582 2.04812C65.9807 2.43039 66.5708 2.86028 67.1235 3.33272ZM63.4138 1.05557L63.0308 1.9793C62.4117 1.72257 61.7683 1.51267 61.1051 1.35398L61.3377 0.381424C62.0528 0.552507 62.7464 0.778809 63.4138 1.05557ZM16.9231 0V1H18.9312V0H16.9231ZM20.9393 0V1H22.9473V0H20.9393ZM24.9554 0V1H26.9635V0H24.9554ZM28.9716 0V1H30.9797V0H28.9716ZM32.9878 0V1H34.9959V0H32.9878ZM37.004 0V1H39.012V0H37.004ZM41.0201 0V1H43.0282V0H41.0201ZM45.0363 0V1H47.0444V0H45.0363ZM49.0525 0V1H51.0606V0H49.0525ZM53.0686 0V1H55.0767V0H53.0686ZM57.0848 0V1H58.0889C58.4307 1 58.7692 1.01326 59.1039 1.03927L59.1814 0.0422707C58.8209 0.0142646 58.4566 0 58.0889 0H57.0848ZM72 16.9231H71V18.9312H72V16.9231ZM72 20.9393H71V22.9474H72V20.9393ZM72 24.9555H71V26.9636H72V24.9555ZM72 28.9717H71V30.9798H72V28.9717ZM72 32.9879H71V34.9959H72V32.9879ZM72 37.004H71V39.0121H72V37.004ZM72 41.0202H71V43.0283H72V41.0202ZM72 45.0364H71V47.0445H72V45.0364ZM72 49.0526H71V51.0607H72V49.0526ZM72 53.0688H71V55.0769H72V53.0688ZM72 57.085H71V58.089C71 58.4308 70.9867 58.7693 70.9607 59.1041L71.9577 59.1815C71.9857 58.821 72 58.4567 72 58.089V57.085ZM55.0769 72V71H53.0688V72H55.0769ZM51.0607 72V71H49.0526V72H51.0607ZM47.0445 72V71H45.0364V72H47.0445ZM43.0283 72V71H41.0202V72H43.0283ZM39.0121 72V71H37.004V72H39.0121ZM34.996 72V71H32.9879V72H34.996ZM30.9798 72V71H28.9717V72H30.9798ZM26.9636 72V71H24.9555V72H26.9636ZM22.9474 72V71H20.9393V72H22.9474ZM18.9312 72V71H16.9231V72H18.9312ZM14.915 72V71H13.911C13.5692 71 13.2306 70.9867 12.8959 70.9607L12.8184 71.9577C13.1789 71.9857 13.5433 72 13.911 72H14.915ZM0 55.0769H1V53.0688H0V55.0769ZM0 51.0607H1V49.0526H0V51.0607ZM0 47.0445H1V45.0364H0V47.0445ZM0 43.0283H1V41.0202H0V43.0283ZM0 39.0121H1V37.0041H0V39.0121ZM0 34.996H1V32.9879H0V34.996ZM0 30.9798H1V28.9717H0V30.9798ZM0 26.9636H1V24.9555H0V26.9636ZM0 22.9474H1V20.9393H0V22.9474ZM0 18.9312H1V16.9231H0V18.9312ZM0 14.915H1V13.911C1 13.5692 1.01326 13.2307 1.03927 12.8959L0.0422699 12.8185C0.0142644 13.179 0 13.5433 0 13.911V14.915ZM8.58601 1.05558L8.96906 1.9793C9.58816 1.72257 10.2315 1.51267 10.8948 1.35398L10.6621 0.381425C9.94703 0.55251 9.25341 0.778813 8.58601 1.05558Z" fill="#6E56CF"/>
  <path fill-rule="evenodd" clip-rule="evenodd" d="M19.8534 8.60957C19.9844 8.53042 20.1242 8.50147 20.2525 8.50006L20.2635 9.5C20.2769 9.49985 20.3201 9.496 20.3708 9.46534C20.4223 9.43424 20.4488 9.39528 20.4588 9.37618C20.4615 9.37088 20.4627 9.36789 20.4627 9.36789C20.4627 9.36789 20.4592 9.37764 20.4554 9.40127C20.4497 9.43671 20.4453 9.48968 20.4453 9.56516C20.4453 9.69794 20.4446 9.9017 20.3822 10.0693L19.445 9.72043C19.4389 9.73703 19.4374 9.74638 19.4378 9.74399C19.4378 9.74399 19.4395 9.73416 19.4409 9.71821C19.4432 9.69119 19.4447 9.65431 19.4452 9.60333L19.0705 10.17C18.9849 10.1134 18.8899 10.0481 18.7854 9.97521C18.5073 9.78104 18.3112 9.65274 18.1695 9.57981L18.627 8.69062C18.8363 8.79831 19.0833 8.96357 19.3577 9.15512M19.4697 9.23279C19.4881 9.12388 19.5195 9.01459 19.5721 8.91388C19.6314 8.79998 19.7218 8.68916 19.8534 8.60957M19.4697 9.23279C19.4345 9.20856 19.3971 9.18264 19.3577 9.15512L19.4697 9.23279ZM21.831 9.22958C22.0158 9.35497 22.2181 9.49755 22.4392 9.6572C22.7321 9.86882 23.0111 10.0993 23.2766 10.3505L22.5891 11.0768C22.3562 10.8563 22.1114 10.654 21.8537 10.4679M21.831 9.22958L21.2696 10.0571L21.831 9.22958ZM21.2696 10.0571C21.444 10.1754 21.638 10.3121 21.8537 10.4679L21.2696 10.0571ZM17.3975 11.003C17.3679 10.6964 17.3438 10.4257 17.3282 10.1911L18.3259 10.1245C18.3406 10.3441 18.3635 10.603 18.3928 10.907M17.3975 11.003C17.4341 11.3831 17.4524 11.6993 17.4503 11.9635L17.3975 11.003ZM17.4503 11.9635L18.4502 11.9718L17.4503 11.9635ZM18.4502 11.9718C18.4528 11.6589 18.4312 11.3045 18.3928 10.907L18.4502 11.9718ZM24.6453 12.0203C25.0054 12.5835 25.3283 13.2118 25.6186 13.913L24.6947 14.2955C24.4238 13.6412 24.1272 13.0663 23.8028 12.559L24.6453 12.0203ZM15.9921 13.1491C16.3851 13.1467 16.6693 13.1191 16.8773 13.0655L17.1269 14.0339C16.8009 14.1179 16.4209 14.1465 15.9981 14.149C15.6703 14.151 15.4109 14.2001 15.2098 14.275L14.8607 13.3379C15.1907 13.215 15.5694 13.1516 15.9921 13.1491ZM14.33 17.3966C13.8102 16.7619 13.5035 16.0155 13.5 15.3054L14.5 15.3006C14.5021 15.7339 14.696 16.2653 15.1036 16.763L14.33 17.3966ZM26.3014 15.9001C26.4797 16.526 26.6423 17.1982 26.7907 17.9202L25.8111 18.1216C25.6671 17.4205 25.5103 16.7728 25.3397 16.1741L26.3014 15.9001ZM17.0792 19.0371C16.7139 18.9572 16.372 18.8429 16.0558 18.701L16.4652 17.7886C16.7187 17.9024 16.9949 17.995 17.2928 18.0602L17.2944 18.0606C17.3791 18.0791 17.4603 18.0968 17.5357 18.114L17.3131 19.089C17.2427 19.0729 17.1656 19.056 17.0792 19.0371ZM17.6971 19.2026C17.6971 19.2026 17.6918 19.1992 17.6801 19.1938L17.6821 19.1896C17.6867 19.1943 17.6907 19.1977 17.6937 19.2001C17.696 19.2019 17.6971 19.2026 17.6971 19.2026ZM17.6724 19.179C17.6758 19.183 17.6791 19.1866 17.6821 19.1896L17.6859 19.1813L18.608 19.3408C18.6435 19.1352 18.6563 18.8674 18.502 18.6232C18.3936 18.4516 18.2393 18.351 18.1021 18.2872L17.6859 19.1813L17.6724 19.179ZM17.6724 19.179C17.6673 19.1729 17.6619 19.1657 17.6565 19.1573C17.6467 19.1417 17.6399 19.1264 17.6357 19.1131C17.6316 19.1003 17.6307 19.0913 17.6307 19.0913C17.6307 19.0913 17.6311 19.0969 17.6303 19.1099C17.6294 19.1237 17.6273 19.1434 17.6226 19.1704L17.6724 19.179ZM17.3063 20.163C17.352 20.034 17.3931 19.9177 17.4301 19.8113L18.3747 20.1394C18.3367 20.2489 18.2946 20.3679 18.2493 20.4958L18.2489 20.4968C18.1644 20.7355 18.0859 21.0819 18.0187 21.5263L17.0299 21.3767C17.1011 20.9063 17.191 20.4885 17.3063 20.163ZM27.1528 19.9583C27.2518 20.6045 27.343 21.2848 27.4269 22.0012L26.4337 22.1176C26.351 21.4115 26.2614 20.743 26.1643 20.1098L27.1528 19.9583ZM16.7751 26.0631C16.7715 25.2575 16.786 24.4664 16.82 23.7301L17.819 23.7762C17.7859 24.4934 17.7716 25.2674 17.7751 26.0587L16.7751 26.0631ZM27.6386 24.0441C27.6692 24.3789 27.6987 24.7207 27.727 25.0696C27.7472 25.3196 27.7657 25.5478 27.7852 25.7588L26.7895 25.8509C26.7694 25.6337 26.7505 25.4002 26.7304 25.1523L26.7302 25.1505C26.7022 24.8047 26.6731 24.4664 26.6428 24.1351L27.6386 24.0441ZM27.9905 27.0244C28.054 27.2213 28.1292 27.3555 28.2176 27.4556C28.3117 27.562 28.4445 27.6568 28.6579 27.7379L28.3029 28.6727C27.969 28.5459 27.6898 28.3684 27.4684 28.1178C27.2661 27.889 27.1326 27.6224 27.0387 27.331L27.9905 27.0244ZM30.0295 27.9751C30.4506 28.0057 30.9484 28.0224 31.5407 28.0316L31.5253 29.0315C30.9254 29.0222 30.4058 29.0051 29.957 28.9725L30.0295 27.9751ZM33.8441 28.0434L33.8474 28.0434C34.235 28.0439 34.6125 28.0459 34.98 28.0498L34.9696 29.0497C34.6054 29.0459 34.2311 29.0439 33.8463 29.0434C33.5778 29.0432 33.3204 29.0429 33.0737 29.0424L33.0758 28.0424C33.3208 28.0429 33.5767 28.0431 33.8441 28.0434ZM37.2454 28.1002C38.0531 28.1291 38.8071 28.1696 39.514 28.2228L39.439 29.22C38.7471 29.1679 38.0063 29.1281 37.2096 29.0995L37.2454 28.1002ZM16.9988 30.7214C16.9272 29.9951 16.872 29.2051 16.8343 28.3934L17.8332 28.347C17.8702 29.1442 17.9243 29.9167 17.9939 30.6233L16.9988 30.7214ZM41.7859 28.4598C42.6053 28.5732 43.3544 28.7123 44.0488 28.8802L43.8138 29.8522C43.1563 29.6932 42.4404 29.5599 41.6488 29.4503L41.7859 28.4598ZM46.2642 29.583C46.6322 29.7319 46.9855 29.8931 47.3279 30.0672C47.717 30.265 48.0276 30.4061 48.3205 30.5066L47.9963 31.4525C47.6387 31.3299 47.2803 31.1648 46.8747 30.9586C46.5578 30.7975 46.2306 30.6481 45.8891 30.51L46.2642 29.583ZM51.5518 30.6212C51.9589 30.5844 52.3562 30.5836 52.7414 30.6154L52.6592 31.612C52.3317 31.585 51.992 31.5855 51.6416 31.6171C51.2003 31.6569 50.8141 31.6873 50.4695 31.7055L50.4168 30.7068C50.7436 30.6896 51.1159 30.6605 51.5518 30.6212ZM55.0363 31.2408C55.774 31.5997 56.4185 32.0899 56.9448 32.6667L56.2061 33.3407C55.7633 32.8554 55.2205 32.4424 54.5988 32.14L55.0363 31.2408ZM17.7764 34.3119C17.5896 34.0166 17.4521 33.5658 17.3422 33.0674L18.3188 32.8521C18.4264 33.3404 18.5354 33.6411 18.6215 33.7773C18.6992 33.9001 18.755 34.0625 18.7974 34.2063C18.8439 34.3642 18.8895 34.5549 18.9331 34.7667L17.9537 34.9686C17.9133 34.7724 17.8741 34.6108 17.8382 34.4889C17.8046 34.3749 17.782 34.3247 17.7772 34.3139C17.7763 34.3119 17.7764 34.3119 17.7764 34.3119ZM58.1816 34.7125C58.4543 35.479 58.5613 36.2976 58.4656 37.1113L57.4725 36.9946C57.5489 36.3448 57.4646 35.6806 57.2395 35.0476L58.1816 34.7125ZM18.2931 37.4705C18.2693 37.1865 18.2408 36.9033 18.209 36.6287L19.2023 36.5136C19.2353 36.7984 19.2649 37.0921 19.2896 37.3869C19.3201 37.7506 19.3616 38.0966 19.4149 38.4268L18.4276 38.586C18.3699 38.2282 18.3255 37.8568 18.2931 37.4705ZM57.6011 39.3786C57.3788 39.6989 57.1142 40.0045 56.8061 40.2913C56.5748 40.5066 56.4105 40.6701 56.284 40.8379L55.4855 40.2359C55.6695 39.9918 55.8912 39.7767 56.1247 39.5593C56.3823 39.3197 56.5995 39.0679 56.7796 38.8084L57.6011 39.3786ZM20.173 42.778C19.6933 42.1655 19.3135 41.5075 19.0217 40.7838L19.9492 40.4099C20.206 41.0468 20.5387 41.623 20.9603 42.1613L20.173 42.778ZM55.8999 42.149C55.879 42.5563 55.8934 43.0776 55.9453 43.7721L54.948 43.8465C54.8949 43.1346 54.8772 42.5658 54.9012 42.0979L55.8999 42.149ZM22.6875 45.0588C22.3676 44.8394 22.0668 44.6167 21.7844 44.3888L22.4125 43.6106C22.6725 43.8205 22.9523 44.0278 23.253 44.234C23.5742 44.4542 23.8475 44.6444 24.0728 44.8204L23.4573 45.6085C23.2599 45.4543 23.011 45.2805 22.6875 45.0588ZM56.1021 45.4364C56.1559 45.9356 56.2196 46.4899 56.2932 47.1073L55.3002 47.2256C55.2264 46.6061 55.1622 46.0478 55.1079 45.5435L56.1021 45.4364ZM24.1651 47.844C24.1645 47.4513 24.1612 47.1484 24.1449 46.8992L25.1428 46.8338C25.1615 47.1193 25.1645 47.4525 25.1651 47.8424C25.1656 48.1709 25.181 48.6176 25.2085 49.1338L24.21 49.187C24.182 48.6635 24.1656 48.1974 24.1651 47.844ZM43.9487 48.329C43.9186 48.3359 43.8733 48.3498 43.8073 48.3753C43.5125 48.4894 43.1757 48.5936 42.8108 48.6876L42.5613 47.7192C42.8994 47.6321 43.1972 47.5392 43.4463 47.4427C43.6112 47.3789 43.8281 47.3082 44.0477 47.3283L43.9569 48.3241C43.9692 48.3253 43.975 48.3244 43.972 48.3247C43.9697 48.325 43.9622 48.326 43.9487 48.329ZM40.82 49.0713C40.176 49.1625 39.4978 49.2319 38.8198 49.2759L38.7551 48.278C39.4089 48.2356 40.0618 48.1687 40.6799 48.0812L40.82 49.0713ZM35.7939 49.283C35.4328 49.2565 35.1287 49.2394 34.8641 49.2425L34.8525 48.2425C35.1625 48.2389 35.5026 48.2589 35.8672 48.2857C36.1718 48.308 36.4926 48.3218 36.8244 48.3276L36.8072 49.3274C36.459 49.3214 36.1194 49.3069 35.7939 49.283ZM43.8146 48.856C43.8146 48.7146 43.812 48.596 43.8063 48.4965L44.8047 48.4398C44.8118 48.5649 44.8146 48.7039 44.8146 48.856C44.8146 49.0405 44.8514 49.2651 44.9352 49.5285L43.9822 49.8317C43.8757 49.497 43.8146 49.1682 43.8146 48.856ZM55.5044 48.9054L56.4969 48.7831C56.5303 49.0535 56.5649 49.3333 56.6008 49.6232L56.6028 49.6393L55.6104 49.7623L55.6084 49.7462C55.5725 49.4562 55.5378 49.1761 55.5044 48.9054ZM33.5965 49.7863C33.3938 50.0999 33.2131 50.6074 33.0472 51.4415L32.0664 51.2465C32.2388 50.3797 32.4485 49.7202 32.7567 49.2434L33.5965 49.7863ZM56.6068 49.6716L56.6088 49.6878C56.6601 50.1012 56.7067 50.4769 56.7486 50.821L55.7559 50.9419C55.7142 50.5991 55.6677 50.2246 55.6164 49.8108L55.6144 49.7947L56.6068 49.6716ZM45.2934 52.1693C45.1079 51.9271 44.9382 51.6876 44.7853 51.4522L45.6239 50.9075C45.7616 51.1195 45.9161 51.3379 46.0872 51.5612C46.3455 51.8983 46.5684 52.2538 46.7562 52.6222L45.8653 53.0764C45.7047 52.7614 45.5142 52.4575 45.2934 52.1693ZM24.543 53.1589C24.4949 52.742 24.4488 52.2934 24.4065 51.8365L25.4022 51.7442C25.444 52.195 25.4893 52.636 25.5364 53.0443C25.5746 53.3753 25.6039 53.7046 25.6248 54.0302L24.6268 54.0941C24.607 53.7852 24.5792 53.4728 24.543 53.1589ZM56.991 53.1117C57.0219 53.5306 57.0372 53.9083 57.0368 54.2877C57.0364 54.6217 57.0239 54.9542 56.9999 55.3145L56.0021 55.2479C56.0249 54.906 56.0364 54.5956 56.0368 54.2866C56.0372 53.9359 56.0231 53.5834 55.9938 53.1852L56.991 53.1117ZM32.7584 53.3291C32.6886 53.8945 32.6196 54.5308 32.548 55.2469L31.5529 55.1474C31.625 54.4269 31.6949 53.7824 31.7659 53.2066L32.7584 53.3291ZM50.6575 54.3355L51.0439 53.4173C50.892 53.3534 50.6579 53.2888 50.4145 53.3853C50.1512 53.4896 50.0346 53.7163 49.9849 53.8837C49.9517 53.9957 49.8954 54.1935 49.8263 54.4398L50.7891 54.7099C50.8583 54.4634 50.9128 54.2722 50.9437 54.1681C50.9387 54.1806 50.901 54.2682 50.7828 54.315C50.7273 54.3369 50.6828 54.3379 50.6575 54.3355ZM51.6444 55.1477C51.5194 55.027 51.4049 54.9198 51.3002 54.8255L51.9693 54.0824C52.0844 54.186 52.2076 54.3014 52.339 54.4283C52.5876 54.6684 52.8059 54.9456 52.9949 55.2458L52.1486 55.7785C51.9962 55.5364 51.8272 55.3242 51.6444 55.1477ZM46.3405 57.2601C46.5133 56.5685 46.5608 55.8429 46.4795 55.1252L47.4731 55.0126C47.5678 55.8479 47.5127 56.6937 47.3107 57.5025L46.3405 57.2601ZM50.4847 55.8082C50.4346 55.9908 50.3839 56.1761 50.3344 56.3581C50.265 56.6126 50.1695 56.8859 50.0582 57.1603L49.1315 56.7844C49.2316 56.5375 49.313 56.3028 49.3695 56.0954C49.4192 55.9127 49.4701 55.7266 49.5204 55.5434L50.4847 55.8082ZM24.449 57.8141C24.5515 57.2649 24.6203 56.641 24.649 55.9686L25.6481 56.0113C25.6177 56.7238 25.5444 57.3954 25.4321 57.9975L24.449 57.8141ZM28.5993 56.975C28.5141 57.1379 28.4146 57.3896 28.3081 57.7447C28.23 58.005 28.153 58.2531 28.0767 58.4891L27.1252 58.1814C27.199 57.953 27.2739 57.7119 27.3502 57.4574C27.466 57.0715 27.5869 56.7531 27.7131 56.5116L28.5993 56.975ZM31.3681 57.0872L32.3639 57.1789C32.3352 57.4909 32.3057 57.8144 32.2754 58.1497C32.2488 58.4434 32.2221 58.7207 32.1947 58.9824L31.2001 58.8783C31.2269 58.6223 31.2532 58.3498 31.2794 58.0596C31.3098 57.7239 31.3393 57.3999 31.3681 57.0872ZM52.983 59.0553C52.9974 58.4998 52.9326 57.9103 52.7926 57.345L53.7633 57.1045C53.9242 57.7543 53.9994 58.4333 53.9826 59.0812L52.983 59.0553ZM56.8052 57.3178C56.771 57.6201 56.7331 57.9483 56.6916 58.3076L56.6902 58.3201L55.6968 58.2054L55.6982 58.1929C55.7397 57.8333 55.7775 57.5064 55.8115 57.2054L56.8052 57.3178ZM28.4796 58.4419C28.4783 58.1036 28.4654 57.8114 28.4435 57.5656L29.4395 57.4766C29.4645 57.7565 29.4782 58.0777 29.4796 58.4379C29.4807 58.7156 29.4621 58.9832 29.4215 59.2428L28.4335 59.0883C28.4651 58.8866 28.4805 58.6723 28.4796 58.4419ZM49.3118 58.6423C49.1508 58.9045 48.9812 59.1482 48.8129 59.3474C48.7058 59.4742 48.6004 59.6207 48.5014 59.7788L47.6538 59.2482C47.7741 59.0559 47.9071 58.8702 48.049 58.7021C48.1749 58.5531 48.3156 58.3537 48.4597 58.119L49.3118 58.6423ZM56.6873 58.3453L56.6858 58.3578C56.6539 58.6345 56.6235 58.8953 56.5943 59.1411L55.6013 59.0229C55.6303 58.7789 55.6605 58.5194 55.6924 58.2431L55.6939 58.2306L56.6873 58.3453ZM44.746 59.9897C45.0097 59.7449 45.2445 59.4774 45.4501 59.192L46.2615 59.7765C46.018 60.1146 45.7394 60.4319 45.4263 60.7226C45.2 60.9328 45.0414 61.1124 44.9391 61.2604L44.1165 60.6918C44.2734 60.4648 44.4868 60.2303 44.746 59.9897ZM23.4977 59.9345C23.5911 59.8988 23.7412 59.7813 23.9102 59.4844L24.7792 59.9792C24.559 60.366 24.2599 60.7137 23.8547 60.8686C23.6312 60.954 23.5428 61.054 23.5111 61.1104L22.6393 60.6205C22.8142 60.3094 23.1177 60.0797 23.4977 59.9345ZM27.5419 59.9682C27.3021 60.5485 27.0546 61.0314 26.784 61.4218L25.9621 60.8522C26.178 60.5407 26.3939 60.1278 26.6177 59.5863L27.5419 59.9682ZM27.6209 60.7905C27.7702 60.6137 27.8966 60.4393 28.0027 60.2647L28.8575 60.7837C28.7216 61.0075 28.5639 61.2238 28.3849 61.4358C28.1602 61.7018 27.9837 61.9224 27.8521 62.1062L27.0389 61.5242C27.1935 61.3082 27.3899 61.0641 27.6209 60.7905ZM48.0439 60.7527C47.9834 60.9474 47.959 61.0981 47.959 61.1962C47.959 61.4349 47.9517 61.6816 47.8928 61.8954L46.9286 61.6303C46.9475 61.5615 46.959 61.4392 46.959 61.1962C46.959 60.96 47.0122 60.7028 47.0889 60.456L48.0439 60.7527ZM31.9672 60.6613C31.8356 61.3805 31.6644 61.9571 31.3971 62.3972L30.5424 61.8781C30.7143 61.5951 30.859 61.1619 30.9835 60.4814L31.9672 60.6613ZM56.386 60.7184C56.2782 61.4136 56.1599 61.9562 55.9844 62.3642L55.0658 61.9691C55.1876 61.6857 55.2914 61.2511 55.3978 60.5652L56.386 60.7184ZM52.2339 61.258C52.3932 61.1142 52.5349 60.9167 52.6518 60.6659L53.5582 61.0885C53.3967 61.4348 53.1818 61.7497 52.9036 62.0006C52.6783 62.2037 52.5239 62.3623 52.4278 62.4841L51.6427 61.8648C51.7904 61.6775 51.9932 61.4749 52.2339 61.258ZM24.4576 62.7168C24.108 62.7168 23.7879 62.6535 23.5101 62.5388L23.8917 61.6144C24.039 61.6753 24.2283 61.7168 24.4576 61.7168C24.6844 61.7168 24.8773 61.6863 25.0483 61.6269L25.3764 62.5715C25.0819 62.6738 24.7752 62.7168 24.4576 62.7168ZM44.958 62.6397L45.1517 61.6586C45.3367 61.6951 45.5798 61.7168 45.8868 61.7168C46.1036 61.7168 46.2839 61.7146 46.4357 61.7082L46.4782 62.7073C46.3048 62.7146 46.1077 62.7168 45.8868 62.7168C45.538 62.7168 45.2261 62.6926 44.958 62.6397ZM29.6698 63.4497C29.3952 63.4871 29.0964 63.5 28.7752 63.5C28.4125 63.5 28.0959 63.4913 27.8315 63.4658L27.9277 62.4704C28.1441 62.4913 28.423 62.5 28.7752 62.5C29.0731 62.5 29.3225 62.4878 29.535 62.4589L29.6698 63.4497ZM53.5093 63.5C53.208 63.5 52.9406 63.4925 52.709 63.4749L52.7848 62.4778C52.9823 62.4928 53.2224 62.5 53.5093 62.5C53.8121 62.5 54.0523 62.4968 54.2535 62.4797L54.3384 63.4761C54.0897 63.4973 53.8104 63.5 53.5093 63.5Z" fill="#6E56CF"/>
  <defs>
    <filter id="filter0_b_10977_5596" x="-12" y="-12" width="96" height="96" filterUnits="userSpaceOnUse" color-interpolation-filters="sRGB">
      <feFlood flood-opacity="0" result="BackgroundImageFix"/>
      <feGaussianBlur in="BackgroundImageFix" stdDeviation="6"/>
      <feComposite in2="SourceAlpha" operator="in" result="effect1_backgroundBlur_10977_5596"/>
      <feBlend mode="normal" in="SourceGraphic" in2="effect1_backgroundBlur_10977_5596" result="shape"/>
    </filter>
  </defs>
</svg>