<svg xmlns="http://www.w3.org/2000/svg" width="72" height="72" fill="none" viewBox="0 0 72 72"><g filter="url(#a)"><path fill="#1A1B1D" fill-opacity=".48" fill-rule="evenodd" d="M0 13.911C0 6.228 6.228 0 13.911 0h44.178C65.772 0 72 6.228 72 13.911v44.178C72 65.772 65.772 72 58.089 72H13.911C6.228 72 0 65.772 0 58.089z" clip-rule="evenodd"/></g><path fill="#6E56CF" fill-rule="evenodd" d="M14.915 0h-1.004q-.552 0-1.093.042l.078.997Q13.398 1 13.91 1h1.004zM6.642 2.048l.523.852q-.868.534-1.639 1.193l-.65-.76a14 14 0 0 1 1.766-1.285m-3.31 2.828.76.65A13 13 0 0 0 2.9 7.165l-.852-.523q.574-.936 1.285-1.766m-2.276 3.71.923.383q-.385.93-.625 1.926l-.973-.233q.259-1.074.675-2.076M0 57.085h1v1.004q0 .513.04 1.015l-.998.078Q0 58.64 0 58.088zm.381 4.253.973-.233q.24.997.625 1.926l-.923.383a14 14 0 0 1-.675-2.076m1.667 4.02.852-.523q.534.868 1.193 1.639l-.76.65a14 14 0 0 1-1.285-1.766m2.828 3.31.65-.76q.77.658 1.639 1.192l-.523.852a14 14 0 0 1-1.766-1.285m3.71 2.276.383-.923q.93.385 1.926.625l-.233.973a14 14 0 0 1-2.076-.675M57.085 72v-1h1.004q.513 0 1.015-.04l.078.998q-.54.042-1.093.042zm4.253-.381-.233-.973a13 13 0 0 0 1.926-.625l.383.923a14 14 0 0 1-2.076.675m4.02-1.667-.523-.852a13 13 0 0 0 1.639-1.193l.65.76q-.83.71-1.766 1.285m3.31-2.828-.76-.65q.658-.77 1.192-1.639l.852.523a14 14 0 0 1-1.285 1.766m2.276-3.71-.923-.383q.385-.93.625-1.926l.973.233a14 14 0 0 1-.675 2.076M72 14.915h-1v-1.004q0-.513-.04-1.015l.998-.078q.042.54.042 1.093zm-.381-4.253-.973.233a13 13 0 0 0-.625-1.926l.923-.383q.417 1.002.675 2.076m-1.667-4.02-.852.523a13 13 0 0 0-1.193-1.639l.76-.65q.71.83 1.285 1.766m-2.828-3.31-.65.76a13 13 0 0 0-1.64-1.192l.524-.852q.936.574 1.766 1.285m-3.71-2.276-.383.923a13 13 0 0 0-1.926-.625l.233-.973q1.073.259 2.076.675M16.924 0v1h2.007V0zm4.015 0v1h2.008V0zm4.016 0v1h2.009V0zm4.017 0v1h2.008V0zm4.016 0v1h2.008V0zm4.016 0v1h2.008V0zm4.016 0v1h2.008V0zm4.016 0v1h2.008V0zm4.017 0v1h2.008V0zm4.016 0v1h2.008V0zm4.016 0v1h1.004q.513 0 1.015.04l.077-.998Q58.641 0 58.09 0zM72 16.923h-1v2.008h1zm0 4.016h-1v2.008h1zm0 4.017h-1v2.008h1zm0 4.016h-1v2.008h1zm0 4.016h-1v2.008h1zm0 4.016h-1v2.008h1zm0 4.016h-1v2.008h1zm0 4.016h-1v2.008h1zm0 4.017h-1v2.008h1zm0 4.016h-1v2.008h1zm0 4.016h-1v1.004q0 .513-.04 1.015l.998.078Q72 58.64 72 58.088zM55.077 72v-1h-2.008v1zm-4.016 0v-1h-2.008v1zm-4.017 0v-1h-2.008v1zm-4.016 0v-1H41.02v1zm-4.016 0v-1h-2.008v1zm-4.016 0v-1h-2.008v1zm-4.016 0v-1h-2.008v1zm-4.016 0v-1h-2.008v1zm-4.017 0v-1H20.94v1zm-4.016 0v-1h-2.008v1zm-4.016 0v-1h-1.004q-.513 0-1.015-.04l-.078.998q.54.042 1.093.042zM0 55.077h1v-2.008H0zm0-4.016h1v-2.008H0zm0-4.017h1v-2.008H0zm0-4.016h1V41.02H0zm0-4.016h1v-2.008H0zm0-4.016h1v-2.008H0zm0-4.016h1v-2.008H0zm0-4.016h1v-2.008H0zm0-4.017h1V20.94H0zm0-4.016h1v-2.008H0zm0-4.016h1v-1.004q0-.513.04-1.015l-.998-.078Q0 13.36 0 13.912zm8.586-13.86.383.924q.93-.385 1.926-.625l-.233-.973q-1.074.259-2.076.675M19.853 8.61a.8.8 0 0 1 .4-.11l.01 1a.2.2 0 0 0 .108-.035.24.24 0 0 0 .088-.089l.004-.008-.008.033q-.009.053-.01.164c0 .133 0 .337-.063.504l-.937-.349-.007.024.003-.026q.003-.04.004-.115l-.375.567-.285-.195a6 6 0 0 0-.616-.395l.458-.89c.21.108.456.274.73.465m.113.078q.025-.166.102-.32a.76.76 0 0 1 .281-.303m-.383.623-.112-.078zm2.361-.003q.277.188.608.427.44.317.838.694l-.688.726a7 7 0 0 0-.735-.61M21.83 9.23l-.561.827zm-.561.827q.26.177.584.41zm-3.872.946q-.046-.46-.07-.812l.998-.067q.022.329.067.783m-.995.096c.036.38.054.696.052.96zm.052.96 1 .009zm1 .009c.003-.313-.019-.667-.057-1.065zm6.195.048c.36.564.683 1.192.974 1.893l-.924.383a11 11 0 0 0-.892-1.737zm-8.653 1.13c.393-.003.677-.03.885-.085l.25.969c-.326.084-.706.112-1.129.115a2.3 2.3 0 0 0-.788.126l-.35-.937a3.3 3.3 0 0 1 1.132-.189m-1.662 4.247c-.52-.635-.826-1.381-.83-2.092l1-.004c.002.433.196.964.604 1.462zM26.301 15.9q.267.938.49 2.02l-.98.202q-.215-1.051-.471-1.948zm-9.222 3.137a5.2 5.2 0 0 1-1.023-.336l.41-.912q.38.171.827.271h.001q.128.03.242.054l-.223.975zm.618.166-.017-.01.002-.003zm-.025-.024.01.01.004-.008.922.16c.035-.206.048-.474-.106-.718a.9.9 0 0 0-.4-.336l-.416.894zm0 0a.2.2 0 0 1-.036-.066l-.005-.022v.019l-.008.06zm-.366.984.124-.352.945.328-.126.357a6 6 0 0 0-.23 1.03l-.99-.15c.072-.47.162-.888.277-1.213m9.847-.205q.148.97.274 2.043l-.993.117a57 57 0 0 0-.27-2.008zm-10.378 6.105a47 47 0 0 1 .045-2.333l.999.046a46 46 0 0 0-.044 2.283zm10.864-2.019q.046.503.088 1.026.03.374.058.689l-.995.092q-.03-.325-.06-.699v-.002a98 98 0 0 0-.087-1.015zm.352 2.98c.063.197.138.331.227.432.094.106.227.2.44.282l-.355.935a2.06 2.06 0 0 1-.835-.555 2.2 2.2 0 0 1-.43-.787zm2.038.951c.422.03.92.047 1.512.057l-.016 1c-.6-.01-1.12-.027-1.568-.06zm3.815.068h.003q.581 0 1.133.007l-.01 1q-.547-.006-1.124-.007h-.772l.002-1zm3.401.057q1.21.044 2.269.123l-.075.997a57 57 0 0 0-2.23-.12zM17 30.721a46 46 0 0 1-.165-2.328l1-.046c.036.797.09 1.57.16 2.276zm24.787-2.261c.82.113 1.568.252 2.263.42l-.235.972a22 22 0 0 0-2.165-.402zm4.478 1.123q.55.223 1.064.484c.389.198.7.34.992.44l-.324.945a9 9 0 0 1-1.121-.493q-.474-.242-.986-.449zm5.288 1.038a7 7 0 0 1 1.19-.006l-.083.997a6 6 0 0 0-1.017.005c-.442.04-.828.07-1.173.088l-.052-.998c.327-.017.699-.047 1.135-.086m3.484.62a6.3 6.3 0 0 1 1.909 1.426l-.739.674A5.3 5.3 0 0 0 54.6 32.14zm-37.26 3.07c-.186-.294-.324-.745-.434-1.244l.977-.215c.107.488.216.79.303.925.077.123.133.285.175.43.047.157.093.348.136.56l-.98.202a6 6 0 0 0-.115-.48c-.033-.114-.056-.164-.06-.175zm40.406.401c.272.767.38 1.586.284 2.4l-.994-.117a4.3 4.3 0 0 0-.233-1.947zm-39.89 2.758a27 27 0 0 0-.084-.841l.993-.115c.033.284.063.578.088.873q.045.545.125 1.04l-.987.159q-.086-.537-.135-1.115m39.308 1.909q-.333.481-.795.912a4.4 4.4 0 0 0-.522.547l-.798-.602c.184-.244.405-.46.639-.677a4.6 4.6 0 0 0 .655-.75zm-37.428 3.399a8.1 8.1 0 0 1-1.151-1.994l.927-.374a7.2 7.2 0 0 0 1.011 1.751zM55.9 42.15c-.021.407-.007.929.045 1.623l-.997.075a15 15 0 0 1-.047-1.75zm-33.212 2.91q-.48-.329-.904-.67l.629-.778q.39.314.84.623c.321.22.595.41.82.586l-.616.788a16 16 0 0 0-.77-.55m33.414.377c.054.5.118 1.054.191 1.671l-.993.119q-.111-.928-.192-1.682zm-31.937 2.408c0-.393-.004-.696-.02-.945l.998-.065c.018.285.021.618.022 1.008 0 .329.016.776.044 1.292l-.999.053c-.028-.523-.044-.99-.045-1.343m19.784.485a1 1 0 0 0-.142.046 9 9 0 0 1-.996.313l-.25-.969a8 8 0 0 0 .885-.276c.165-.064.382-.135.602-.115l-.091.996h.015zm-3.129.742c-.644.092-1.322.16-2 .205l-.065-.998c.654-.042 1.307-.11 1.925-.197zm-5.026.212a11 11 0 0 0-.93-.04l-.011-1c.31-.004.65.016 1.014.043q.459.033.957.042l-.017 1q-.524-.01-1.013-.045m8.02-.427q0-.21-.008-.36l.999-.056q.01.188.01.416c0 .184.036.41.12.672l-.953.304a3.3 3.3 0 0 1-.167-.976m11.69.05.993-.123.104.84.002.016-.993.123-.002-.016zm-21.907.88c-.203.314-.384.821-.55 1.655l-.98-.195c.172-.866.382-1.526.69-2.003zm23.01-.114.002.016.14 1.133-.993.12-.14-1.13-.002-.016zm-11.314 2.497a11 11 0 0 1-.508-.717l.839-.544q.207.318.463.653.387.507.67 1.061l-.892.454a6 6 0 0 0-.572-.907m-20.75.99a60 60 0 0 1-.136-1.322l.995-.093c.042.451.087.892.134 1.3q.058.497.089.986l-.998.064q-.03-.464-.084-.935m32.448-.047c.03.419.046.796.046 1.176 0 .334-.013.666-.037 1.027l-.998-.067c.023-.342.034-.652.035-.961 0-.351-.014-.704-.043-1.102zm-24.233.217c-.07.566-.138 1.202-.21 1.918l-.995-.1q.107-1.079.213-1.94zm17.9 1.007.386-.919c-.152-.064-.386-.128-.63-.032a.74.74 0 0 0-.43.499l-.158.556.963.27c.07-.247.124-.438.155-.542a.28.28 0 0 1-.161.147.3.3 0 0 1-.126.02m.986.812q-.188-.181-.344-.323l.67-.743q.172.157.369.346c.249.24.467.518.656.818l-.846.532a3.4 3.4 0 0 0-.505-.63m-5.303 2.112a6 6 0 0 0 .139-2.135l.993-.112a7 7 0 0 1-.162 2.49zm4.144-1.452-.15.55a7 7 0 0 1-.277.802l-.926-.376c.1-.246.181-.481.238-.689l.15-.552zm-26.036 2.006c.102-.55.171-1.173.2-1.845l1 .042a14 14 0 0 1-.217 1.986zm4.15-.839a4.6 4.6 0 0 0-.29.77q-.118.39-.232.744l-.952-.308q.111-.343.225-.724c.116-.386.237-.704.363-.945zm2.77.112.995.092-.089.97q-.04.441-.08.833l-.995-.104q.04-.383.08-.818zm21.614 1.968a6.5 6.5 0 0 0-.19-1.71l.97-.24c.161.65.236 1.328.22 1.976zm3.822-1.737-.113.99-.002.012-.993-.115.001-.012.114-.988zM28.48 58.442q-.003-.507-.037-.876l.996-.09q.04.421.04.962.003.416-.057.805l-.989-.155q.048-.301.047-.646m20.832.2a6 6 0 0 1-.5.705 4 4 0 0 0-.31.432l-.848-.53c.12-.193.253-.379.395-.547a5 5 0 0 0 .41-.583zm7.375-.297-.001.013q-.047.415-.092.783l-.993-.118q.045-.366.091-.78l.002-.012zM44.746 59.99q.396-.369.704-.798l.811.584a6.4 6.4 0 0 1-.835.947c-.226.21-.385.39-.487.537l-.822-.568c.156-.227.37-.462.629-.702m-21.248-.056c.093-.035.243-.153.412-.45l.87.495c-.221.387-.52.735-.925.89-.224.085-.312.185-.344.241l-.872-.49c.175-.31.479-.54.859-.685m4.044.034c-.24.58-.487 1.063-.758 1.454l-.822-.57c.216-.311.432-.724.656-1.266zm.079.822q.224-.263.382-.525l.855.519q-.204.335-.473.652a11 11 0 0 0-.533.67l-.813-.582q.232-.324.582-.733m20.423-.037c-.06.194-.085.345-.085.443 0 .239-.007.486-.066.7l-.964-.266c.018-.069.03-.19.03-.434 0-.236.053-.493.13-.74zm-16.077-.092c-.131.72-.303 1.296-.57 1.736l-.855-.519c.172-.283.317-.716.441-1.397zm24.419.057c-.108.696-.226 1.238-.402 1.646l-.918-.395c.122-.283.225-.718.332-1.404zm-4.152.54q.24-.216.418-.592l.906.423a2.8 2.8 0 0 1-.654.912 4 4 0 0 0-.476.483l-.785-.62c.147-.186.35-.39.59-.606m-27.776 1.459c-.35 0-.67-.063-.948-.178l.382-.925c.147.061.336.103.566.103q.337 0 .59-.09l.328.944a2.8 2.8 0 0 1-.918.146m20.5-.077.194-.981c.185.036.428.058.735.058.217 0 .397-.002.549-.009l.042 1q-.26.01-.591.009-.524.001-.929-.077m-15.288.81c-.275.037-.574.05-.895.05-.362 0-.68-.009-.944-.034l.097-.996c.216.021.495.03.847.03.298 0 .548-.012.76-.041zm23.84.05q-.454 0-.801-.025l.076-.997q.295.022.724.022c.303 0 .543-.003.745-.02l.084.996a10 10 0 0 1-.829.024" clip-rule="evenodd"/><defs><filter id="a" width="96" height="96" x="-12" y="-12" color-interpolation-filters="sRGB" filterUnits="userSpaceOnUse"><feFlood flood-opacity="0" result="BackgroundImageFix"/><feGaussianBlur in="BackgroundImageFix" stdDeviation="6"/><feComposite in2="SourceAlpha" operator="in" result="effect1_backgroundBlur_10977_5596"/><feBlend in="SourceGraphic" in2="effect1_backgroundBlur_10977_5596" result="shape"/></filter></defs></svg>