<svg width="320" height="232" viewBox="0 0 320 232" fill="none" xmlns="http://www.w3.org/2000/svg">
<path fill-rule="evenodd" clip-rule="evenodd" d="M165.118 103.222C164.757 103.641 164.804 104.272 165.222 104.633L167.062 106.218C167.428 106.534 167.649 106.726 167.79 106.875C167.649 107.024 167.428 107.216 167.062 107.532L165.222 109.118C164.804 109.478 164.757 110.11 165.118 110.528C165.478 110.946 166.11 110.993 166.528 110.633L168.368 109.047C168.382 109.034 168.397 109.022 168.411 109.009C168.76 108.709 169.095 108.42 169.334 108.15C169.596 107.854 169.875 107.437 169.875 106.875C169.875 106.313 169.596 105.896 169.334 105.6C169.095 105.33 168.76 105.042 168.411 104.741C168.397 104.728 168.382 104.716 168.368 104.703L166.528 103.118C166.11 102.757 165.478 102.804 165.118 103.222Z" fill="#AA99EC"/>
<path fill-rule="evenodd" clip-rule="evenodd" d="M162.632 103.222C162.993 103.641 162.946 104.272 162.528 104.633L160.688 106.218C160.322 106.534 160.101 106.726 159.96 106.875C160.101 107.024 160.322 107.216 160.688 107.532L162.528 109.118C162.946 109.478 162.993 110.11 162.632 110.528C162.272 110.946 161.641 110.993 161.222 110.633L159.382 109.047C159.368 109.034 159.353 109.022 159.339 109.009C158.99 108.709 158.655 108.42 158.416 108.15C158.154 107.854 157.875 107.437 157.875 106.875C157.875 106.313 158.154 105.896 158.416 105.6C158.655 105.33 158.99 105.042 159.339 104.741C159.353 104.728 159.368 104.716 159.382 104.703L161.222 103.118C161.641 102.757 162.272 102.804 162.632 103.222Z" fill="#AA99EC"/>
<path opacity="0.4" d="M154.812 110.522C155.794 110.625 155.357 110.625 156.898 110.625C157.437 110.625 157.875 110.187 157.875 109.648C157.875 109.108 157.437 108.67 156.898 108.67C155.289 108.67 155.883 108.669 155.013 108.578C154.159 108.489 153.676 108.322 153.318 108.069C153.076 107.898 152.864 107.697 152.686 107.473C152.431 107.15 152.261 106.717 152.169 105.931C152.074 105.121 152.072 104.064 152.072 102.54L152.072 99.64C152.072 99.373 152.072 98.7344 152.353 98.2623C152.526 97.9713 152.747 97.7282 152.975 97.6044C153.341 97.4048 153.762 97.2915 154.208 97.2915L155.249 97.328C155.629 97.3359 156.072 97.3239 156.5 97.2091C157.334 96.9857 157.986 96.3343 158.209 95.5003C158.324 95.0721 158.336 94.6286 158.328 94.2485L158.292 93.2081C158.292 92.7405 158.416 92.3333 158.633 91.9549C158.76 91.7343 158.981 91.5324 159.286 91.3551C159.748 91.0862 160.301 91.0837 160.639 91.0822C160.977 91.0807 161.334 91.0795 161.632 91.0795C163.466 91.0795 164.133 91.0935 164.637 91.2708C165.509 91.5783 166.175 92.2199 166.485 93.0053C166.563 93.2019 166.618 93.4603 166.647 93.9083C166.677 94.365 166.678 94.9479 166.678 95.7882V100.901C166.678 101.439 167.114 101.875 167.651 101.875C168.189 101.875 168.625 101.439 168.625 100.901V95.755C168.625 94.9558 168.625 94.3083 168.59 93.7797C168.554 93.2351 168.479 92.7494 168.296 92.2852C167.767 90.9459 166.658 89.9116 165.282 89.4266C164.423 89.1241 162.951 89.1244 161.396 89.125C158.556 89.1246 156.87 89.1244 155.487 89.6115C153.267 90.3937 151.493 92.0564 150.65 94.1925C150.369 94.9044 150.244 95.6691 150.184 96.586C150.125 97.4867 150.125 98.5993 150.125 100.018V102.601C150.125 104.049 150.125 105.222 150.235 106.159C150.349 107.133 150.592 107.97 151.162 108.689C151.457 109.062 151.806 109.391 152.196 109.667C152.941 110.193 153.802 110.417 154.812 110.522Z" fill="#AA99EC"/>
<path d="M129.846 138V129.2H131.734V130.88H132.23L131.638 131.904C131.638 130.955 131.851 130.24 132.278 129.76C132.705 129.28 133.334 129.04 134.166 129.04C135.115 129.04 135.862 129.333 136.406 129.92C136.95 130.507 137.222 131.317 137.222 132.352V132.992H135.126V132.496C135.126 131.931 134.977 131.493 134.678 131.184C134.39 130.875 133.99 130.72 133.478 130.72C132.955 130.72 132.55 130.875 132.262 131.184C131.985 131.493 131.846 131.931 131.846 132.496V138H129.846ZM137.872 138L140.944 133.456L138.08 129.2H140.336L141.696 131.36C141.781 131.488 141.856 131.632 141.92 131.792C141.994 131.952 142.053 132.08 142.096 132.176C142.138 132.08 142.197 131.952 142.272 131.792C142.346 131.632 142.421 131.488 142.496 131.36L143.872 129.2H146.128L143.264 133.456L146.32 138H144.048L142.528 135.584C142.442 135.445 142.362 135.296 142.288 135.136C142.213 134.976 142.149 134.848 142.096 134.752C142.053 134.848 141.994 134.976 141.92 135.136C141.845 135.296 141.765 135.445 141.68 135.584L140.128 138H137.872ZM151.049 138.16C150.591 138.16 150.223 138.027 149.945 137.76C149.679 137.493 149.545 137.131 149.545 136.672C149.545 136.213 149.679 135.851 149.945 135.584C150.223 135.307 150.591 135.168 151.049 135.168C151.508 135.168 151.871 135.307 152.137 135.584C152.415 135.851 152.553 136.213 152.553 136.672C152.553 137.131 152.415 137.493 152.137 137.76C151.871 138.027 151.508 138.16 151.049 138.16ZM156.035 138V129.2H157.667V130.384H158.003L157.731 130.672C157.731 130.181 157.87 129.787 158.147 129.488C158.424 129.189 158.782 129.04 159.219 129.04C159.688 129.04 160.051 129.232 160.307 129.616C160.574 130 160.707 130.517 160.707 131.168L160.355 130.384H160.899L160.691 130.672C160.691 130.181 160.83 129.787 161.107 129.488C161.384 129.189 161.752 129.04 162.211 129.04C162.755 129.04 163.187 129.243 163.507 129.648C163.827 130.053 163.987 130.603 163.987 131.296V138H162.227V131.376C162.227 131.088 162.163 130.864 162.035 130.704C161.907 130.533 161.72 130.448 161.475 130.448C161.24 130.448 161.054 130.528 160.915 130.688C160.787 130.848 160.723 131.077 160.723 131.376V138H159.283V131.376C159.283 131.077 159.219 130.848 159.091 130.688C158.963 130.528 158.776 130.448 158.531 130.448C158.286 130.448 158.099 130.528 157.971 130.688C157.854 130.848 157.795 131.077 157.795 131.376V138H156.035ZM168.973 138.16C168.226 138.16 167.576 138.016 167.021 137.728C166.466 137.44 166.034 137.04 165.725 136.528C165.426 136.005 165.277 135.397 165.277 134.704V132.496C165.277 131.803 165.426 131.2 165.725 130.688C166.034 130.165 166.466 129.76 167.021 129.472C167.576 129.184 168.226 129.04 168.973 129.04C169.709 129.04 170.349 129.184 170.893 129.472C171.448 129.76 171.874 130.165 172.173 130.688C172.482 131.2 172.637 131.803 172.637 132.496V134.08H167.213V134.704C167.213 135.323 167.362 135.792 167.661 136.112C167.96 136.421 168.402 136.576 168.989 136.576C169.437 136.576 169.8 136.501 170.077 136.352C170.354 136.192 170.53 135.963 170.605 135.664H172.573C172.424 136.421 172.018 137.029 171.357 137.488C170.706 137.936 169.912 138.16 168.973 138.16ZM170.701 132.96V132.48C170.701 131.872 170.557 131.408 170.269 131.088C169.981 130.757 169.549 130.592 168.973 130.592C168.397 130.592 167.96 130.757 167.661 131.088C167.362 131.419 167.213 131.888 167.213 132.496V132.832L170.845 132.8L170.701 132.96ZM173.943 138V129.2H175.575V130.384H175.911L175.639 130.672C175.639 130.181 175.777 129.787 176.055 129.488C176.332 129.189 176.689 129.04 177.127 129.04C177.596 129.04 177.959 129.232 178.215 129.616C178.481 130 178.615 130.517 178.615 131.168L178.263 130.384H178.807L178.599 130.672C178.599 130.181 178.737 129.787 179.015 129.488C179.292 129.189 179.66 129.04 180.119 129.04C180.663 129.04 181.095 129.243 181.415 129.648C181.735 130.053 181.895 130.603 181.895 131.296V138H180.135V131.376C180.135 131.088 180.071 130.864 179.943 130.704C179.815 130.533 179.628 130.448 179.383 130.448C179.148 130.448 178.961 130.528 178.823 130.688C178.695 130.848 178.631 131.077 178.631 131.376V138H177.191V131.376C177.191 131.077 177.127 130.848 176.999 130.688C176.871 130.528 176.684 130.448 176.439 130.448C176.193 130.448 176.007 130.528 175.879 130.688C175.761 130.848 175.703 131.077 175.703 131.376V138H173.943ZM186.864 138.144C186.118 138.144 185.467 138.005 184.912 137.728C184.368 137.44 183.942 137.04 183.632 136.528C183.334 136.005 183.184 135.392 183.184 134.688V132.512C183.184 131.808 183.334 131.2 183.632 130.688C183.942 130.165 184.368 129.765 184.912 129.488C185.467 129.2 186.118 129.056 186.864 129.056C187.622 129.056 188.272 129.2 188.816 129.488C189.36 129.765 189.782 130.165 190.08 130.688C190.39 131.2 190.544 131.803 190.544 132.496V134.688C190.544 135.392 190.39 136.005 190.08 136.528C189.782 137.04 189.36 137.44 188.816 137.728C188.272 138.005 187.622 138.144 186.864 138.144ZM186.864 136.4C187.398 136.4 187.808 136.256 188.096 135.968C188.395 135.669 188.544 135.243 188.544 134.688V132.512C188.544 131.947 188.395 131.52 188.096 131.232C187.808 130.944 187.398 130.8 186.864 130.8C186.342 130.8 185.931 130.944 185.632 131.232C185.334 131.52 185.184 131.947 185.184 132.512V134.688C185.184 135.243 185.334 135.669 185.632 135.968C185.931 136.256 186.342 136.4 186.864 136.4Z" fill="#AA99EC"/>
</svg>
