<svg xmlns="http://www.w3.org/2000/svg" width="320" height="232" fill="none" viewBox="0 0 320 232"><path fill="#AA99EC" fill-rule="evenodd" d="M165.118 103.222a1 1 0 0 0 .104 1.411l1.84 1.585c.366.316.587.508.728.657-.141.149-.362.341-.728.657l-1.84 1.586a1 1 0 0 0 1.306 1.515l1.84-1.586.043-.038c.349-.3.684-.589.923-.859.262-.296.541-.713.541-1.275s-.279-.979-.541-1.275c-.239-.27-.574-.558-.923-.859l-.043-.038-1.84-1.585a1 1 0 0 0-1.41.104m-2.486 0a1 1 0 0 1-.104 1.411l-1.84 1.585c-.366.316-.587.508-.728.657.141.149.362.341.728.657l1.84 1.586a1 1 0 0 1-1.306 1.515l-1.84-1.586-.043-.038c-.349-.3-.684-.589-.923-.859-.262-.296-.541-.713-.541-1.275s.279-.979.541-1.275c.239-.27.574-.558.923-.859l.043-.038 1.84-1.585a1 1 0 0 1 1.41.104" clip-rule="evenodd"/><path fill="#AA99EC" d="M154.812 110.522c.982.103.545.103 2.086.103a.978.978 0 0 0 0-1.955c-1.609 0-1.015-.001-1.885-.092-.854-.089-1.337-.256-1.695-.509a3 3 0 0 1-.632-.596c-.255-.323-.425-.756-.517-1.542-.095-.81-.097-1.867-.097-3.391v-2.9c0-.267 0-.906.281-1.378.173-.29.394-.534.622-.658a2.6 2.6 0 0 1 1.233-.312l1.041.036c.38.008.823-.004 1.251-.119a2.42 2.42 0 0 0 1.709-1.709c.115-.428.127-.871.119-1.251l-.036-1.04c0-.469.124-.876.341-1.254.127-.22.348-.423.653-.6.462-.269 1.015-.271 1.353-.273l.993-.002c1.834 0 2.501.014 3.005.19.872.308 1.538.95 1.848 1.735.078.197.133.455.162.903.03.457.031 1.04.031 1.88v5.113a.974.974 0 1 0 1.947 0v-5.146c0-.8 0-1.447-.035-1.975-.036-.545-.111-1.03-.294-1.495-.529-1.34-1.638-2.373-3.014-2.858-.859-.303-2.331-.303-3.886-.302-2.84 0-4.526 0-5.909.487-2.22.782-3.994 2.444-4.837 4.58-.281.712-.406 1.477-.466 2.394-.059.9-.059 2.013-.059 3.432v2.583c0 1.448 0 2.621.11 3.558.114.974.357 1.811.927 2.53a5 5 0 0 0 1.034.978c.745.526 1.606.75 2.616.855" opacity=".4"/><path fill="#AA99EC" d="M120.94 138v-8.8h1.952v1.776h.544l-.592.48q0-1.12.656-1.76.672-.656 1.824-.656 1.344 0 2.096.864t.752 2.416v.832h-2v-.736q0-.816-.416-1.232t-1.184-.416q-.784 0-1.216.48-.416.48-.416 1.36V138zm7.978 0 3.072-4.544-2.864-4.256h2.256l1.36 2.16q.128.192.224.432.112.24.176.384.064-.144.176-.384t.224-.432l1.36-2.16h2.272l-2.864 4.256 3.056 4.544h-2.272l-1.52-2.416a5 5 0 0 1-.24-.448 7 7 0 0 0-.192-.384l-.176.384q-.113.24-.24.448L131.19 138zm13.178.16q-.672 0-1.088-.4-.4-.416-.4-1.072 0-.672.4-1.072.416-.416 1.088-.416t1.072.416q.416.4.416 1.072 0 .656-.416 1.072-.4.4-1.072.4m8.585-.016q-1.04 0-1.808-.32-.751-.32-1.168-.912t-.416-1.408h1.968q0 .512.368.784.384.272 1.056.272h.704q.72 0 1.104-.272a.91.91 0 0 0 .4-.784q0-.48-.272-.72-.271-.24-.832-.304l-2.192-.288q-1.056-.127-1.632-.816-.56-.688-.56-1.744 0-1.248.832-1.904.832-.672 2.4-.672h.736q1.473 0 2.368.672.897.672.928 1.792h-1.984a.79.79 0 0 0-.368-.656q-.351-.256-.944-.256h-.736q-.64 0-.976.272a.84.84 0 0 0-.336.704q0 .4.24.592.256.175.736.24l2.064.288q1.216.16 1.824.88.624.704.624 1.888 0 1.28-.88 1.984-.864.688-2.544.688zm9.466.016q-1.136 0-1.984-.416a3.2 3.2 0 0 1-1.296-1.2q-.464-.784-.464-1.84v-2.208q0-1.072.464-1.84a3.1 3.1 0 0 1 1.296-1.184q.848-.432 1.984-.432 1.649 0 2.64.864.992.848 1.056 2.32h-1.968q-.048-.689-.512-1.056-.464-.384-1.216-.384-.816 0-1.28.448-.464.432-.464 1.248v2.224q0 .816.464 1.264t1.28.448q.752 0 1.216-.368.464-.384.512-1.072h1.968q-.064 1.472-1.056 2.336-.992.848-2.64.848m5.562-.16v-8.8h1.952v1.776h.544l-.592.48q0-1.12.656-1.76.672-.656 1.824-.656 1.344 0 2.096.864t.752 2.416v.832h-2v-.736q0-.816-.416-1.232t-1.184-.416q-.784 0-1.216.48-.416.48-.416 1.36V138zm8.618 0v-1.808h3.008v-5.184h-2.688V129.2h4.688v6.992h2.704V138zm3.872-10.272q-.609 0-.96-.304-.352-.32-.352-.848t.352-.832q.351-.32.96-.32.608 0 .96.32.352.304.352.832t-.352.848q-.353.304-.96.304m5.097 13.152V129.2h1.952v1.776h.448l-.576.832q0-1.28.688-2.016.689-.752 1.856-.752.849 0 1.488.432.657.416 1.008 1.168.369.752.368 1.76v2.384q0 1.008-.368 1.776a2.85 2.85 0 0 1-.992 1.184q-.64.416-1.504.416-1.167 0-1.856-.752-.687-.751-.688-2.016l.576.848h-.464l.064 2.176v2.464zm3.616-4.448q.768 0 1.184-.416.432-.432.432-1.28v-2.272q0-.864-.432-1.28-.416-.416-1.184-.416t-1.2.464q-.416.464-.416 1.312v2.112q0 .848.416 1.312.432.464 1.2.464m9.786 1.568q-1.231 0-1.968-.704-.72-.72-.72-1.936v-4.352h-2.432V129.2h2.432v-2.48h2.016v2.48h3.504v1.808h-3.504v4.304a.98.98 0 0 0 .208.64q.224.24.608.24h2.608V138z"/></svg>