<svg xmlns="http://www.w3.org/2000/svg" width="76" height="20" fill="none" viewBox="0 0 76 20"><path fill="#6E7287" d="m44.232 5.581 4.373-1.628-4.373-1.674V0l7.489 3.023v1.86l-7.489 3.024z"/><path fill="#9A9CAC" d="M2.884 20C1.302 20 0 19.208 0 17.44v-.093c0-2.14 1.86-2.883 4.14-2.883h1.07v-.42c0-.883-.373-1.395-1.303-1.395-.837 0-1.256.466-1.302 1.117H.279C.465 11.813 2 10.883 4.047 10.883c2.093 0 3.627.884 3.627 3.07v5.86H5.302V18.79C4.837 19.441 4.047 20 2.884 20m2.325-3.07v-.838h-.976c-1.21 0-1.814.326-1.814 1.117v.093c0 .604.372 1.023 1.209 1.023.837-.047 1.581-.512 1.581-1.395m8 3.07c-2.418 0-4.186-1.489-4.186-4.466v-.14c0-2.976 1.86-4.557 4.186-4.557 2 0 3.628 1.023 3.814 3.302h-2.325c-.14-.837-.605-1.396-1.442-1.396-1.023 0-1.768.838-1.768 2.559v.279c0 1.767.652 2.558 1.768 2.558.837 0 1.442-.605 1.581-1.581h2.233c-.14 2.046-1.489 3.441-3.86 3.441m9.117 0c-2.419 0-4.186-1.489-4.186-4.466v-.14c0-2.976 1.86-4.557 4.186-4.557 2 0 3.627 1.023 3.814 3.302h-2.326c-.14-.837-.605-1.396-1.442-1.396-1.023 0-1.767.838-1.767 2.559v.279c0 1.767.65 2.558 1.767 2.558.837 0 1.442-.605 1.581-1.581h2.233c-.14 2.046-1.488 3.441-3.86 3.441m9.162 0c-2.511 0-4.232-1.489-4.232-4.42v-.185c0-2.93 1.814-4.558 4.186-4.558 2.186 0 4 1.209 4 4.14v1.069H29.72c.093 1.581.79 2.186 1.814 2.186.93 0 1.442-.512 1.628-1.116h2.279c-.28 1.628-1.675 2.883-3.954 2.883m-1.72-5.582h3.255c-.046-1.302-.65-1.86-1.628-1.86-.744.046-1.442.465-1.628 1.86m7.162-3.349h2.465v1.302c.419-.837 1.303-1.488 2.651-1.488 1.582 0 2.652.977 2.652 3.07v5.86h-2.465v-5.488c0-1.023-.419-1.488-1.303-1.488-.837 0-1.535.511-1.535 1.627v5.35H36.93zm12.28-2.651v2.651h1.674v1.814h-1.675v4.14c0 .65.28.976.884.976.372 0 .605-.046.837-.14v1.908c-.279.093-.79.186-1.395.186-1.907 0-2.79-.884-2.79-2.651V12.88H45.72v-1.81h1.023V9.441zM60.091 19.81h-2.419v-1.302c-.418.837-1.255 1.488-2.558 1.488-1.581 0-2.744-.976-2.744-3.023V11.07h2.465v5.582c0 1.023.419 1.488 1.256 1.488s1.535-.558 1.535-1.628V11.07h2.465zm1.814-8.744h2.465v1.628c.512-1.163 1.349-1.72 2.651-1.72v2.418c-1.674 0-2.65.511-2.65 1.953v4.512h-2.466zM72 20c-2.512 0-4.233-1.488-4.233-4.418v-.186c0-2.93 1.814-4.558 4.187-4.558 2.186 0 4 1.209 4 4.14v1.069h-5.675c.093 1.581.79 2.186 1.814 2.186.93 0 1.442-.512 1.628-1.116H76C75.628 18.745 74.28 20 72 20m-1.767-5.581h3.302c-.047-1.302-.651-1.86-1.628-1.86-.744.046-1.442.465-1.674 1.86"/></svg>