<svg xmlns="http://www.w3.org/2000/svg" width="33" height="21" fill="none" viewBox="0 0 33 21"><path fill="#979FAA" d="m31.813 2.735-5.419 2.886c-.34.137-.767.161-1.096-.013-.602-.539-.74-1.301-1.014-1.988.227-.15.604-.149.881-.261l1.361-.634L31.73 0h.114zM21.454 9.692s-1.23-3.185-1.844-4.709h-.062c-1.011 1.91-1.809 3.905-2.82 5.815-1.248 1.158-2.96 1.33-4.56 1.677l-.403.048.014-.187 5.674-10.554.152-.237 4.279-.016c.239.375.414.813.589 1.237l2.369 5.126z"/><path fill="#979FAA" d="M22.616 12.683c-4.612 2.213-9.3 4.527-14.875 4.14-2.228-.204-4.467-1.258-5.494-3.395-1.142-1.838-1.023-4.599.251-6.32 2.033-2.88 5.07-4.697 8.219-5.566 1.083-.234 2.782-.706 3.51.508.29.737.526 1.487.676 2.275-2.656-.08-4.962.976-7.079 2.345C6.16 7.853 4.47 9.4 3.812 11.271c-.19.562-.09 1.248.312 1.687 1.659 1.314 4.164.97 6.229.774 3.966-.617 7.598-2.224 11.1-4.04l3.387-1.801 6.918-3.782h.076l-.006 3.322-5.672 3.323z"/><path fill="#979FAA" d="M26.156 10.754s1.804 4.063 2.656 6l-3.801-.008c-.44-.002-.856-.326-1.005-.715-.464-1.125-.965-2.224-1.39-3.35zm3.638 7.706c-.003.638-.004 2.493-.004 2.493H1.445c.004-.752-.002-2.494-.002-2.494z"/></svg>