<svg xmlns="http://www.w3.org/2000/svg" width="44" height="41" fill="none" viewBox="0 0 44 41"><path fill="#9A9CAC" d="M25.97 10.534c-1.062.084-2.29.168-3.517.333-1.88.242-3.759.572-5.311 1.306-3.024 1.232-5.068 3.849-5.068 7.697 0 4.833 3.107 7.284 7.028 7.284 1.31 0 2.372-.16 3.351-.407 1.556-.491 2.864-1.392 4.416-3.026.901 1.227 1.144 1.801 2.699 3.11.408.165.816.165 1.143-.082.98-.817 2.695-2.29 3.596-3.109.407-.33.326-.818.082-1.23-.901-1.145-1.797-2.13-1.797-4.336v-7.368c0-3.115.241-5.978-2.042-8.104C28.668.877 25.726.227 23.44.227h-.982c-4.168.244-8.58 2.041-9.563 7.204-.162.65.33.9.657.983l4.576.575c.49-.087.735-.493.815-.905.413-1.796 1.882-2.698 3.516-2.863h.329c.98 0 2.04.412 2.614 1.224.649.986.572 2.297.572 3.44zm-.899 9.742c-.571 1.146-1.553 1.883-2.616 2.13-.162 0-.405.084-.652.084-1.797 0-2.863-1.392-2.863-3.44 0-2.616 1.554-3.849 3.515-4.42 1.063-.244 2.29-.329 3.516-.329v.983c0 1.885.076 3.356-.9 4.992M43.91 31.643v.266c-.043 1.6-.887 4.672-2.886 6.361-.4.31-.8.133-.624-.315.582-1.42 1.91-4.714 1.29-5.47-.44-.576-2.264-.532-3.817-.398-.71.089-1.333.13-1.822.226-.442.041-.534-.356-.088-.665a7.1 7.1 0 0 1 1.91-.938c2.529-.753 5.463-.31 5.864.181.086.127.173.393.173.752m-4.218 3.111a17 17 0 0 1-1.82 1.207c-4.662 2.803-10.7 4.266-15.937 4.266-8.44 0-15.987-3.115-21.713-8.318-.491-.401-.09-.978.487-.668 6.172 3.603 13.808 5.785 21.712 5.785 4.975 0 10.341-.935 15.45-2.94.354-.129.754-.312 1.11-.441.8-.36 1.511.535.712 1.11"/></svg>