<svg xmlns="http://www.w3.org/2000/svg" width="92" height="59" fill="none" viewBox="0 0 92 59"><g fill="#8b8d98" clip-path="url(#a)"><path d="m73.105 4.88-9.592 5.149c-.601.244-1.358.287-1.939-.025-1.067-.96-1.31-2.32-1.796-3.546.403-.267 1.07-.265 1.56-.466l2.41-1.13L72.957 0h.2zM54.769 17.291s-2.177-5.682-3.263-8.401h-.11c-1.79 3.406-3.202 6.967-4.992 10.374-2.21 2.066-5.24 2.374-8.07 2.992l-.715.086.025-.335L47.687 3.18l.269-.423 7.574-.029c.423.67.733 1.451 1.043 2.208l4.192 9.145z"/><path d="M56.825 22.627c-8.164 3.948-16.46 8.077-26.33 7.388-3.944-.366-7.906-2.245-9.725-6.058-2.02-3.28-1.81-8.205.446-11.275 3.597-5.138 8.974-8.38 14.548-9.93 1.916-.419 4.925-1.26 6.213.905.511 1.315.93 2.653 1.197 4.06-4.702-.145-8.783 1.741-12.53 4.183-2.947 2.11-5.937 4.868-7.103 8.21-.337 1-.16 2.226.552 3.008 2.936 2.345 7.371 1.73 11.026 1.38 7.02-1.1 13.45-3.966 19.65-7.207l5.994-3.213L73.008 7.33h.133l-.01 5.927-10.039 5.929z"/><path d="M63.093 19.186s3.193 7.248 4.701 10.704l-6.73-.015c-.779-.002-1.514-.58-1.778-1.274-.821-2.007-1.708-3.969-2.46-5.976zm6.439 13.747c-.006 1.139-.008 4.45-.008 4.45H19.35c.008-1.343-.002-4.45-.002-4.45zM3.352 58.755c-1.872 0-3.343-.89-3.343-2.319 0-1.444 1.529-2.333 3.294-2.333.835 0 1.434.146 2.169.306v.95a5.6 5.6 0 0 0-1.915-.347c-1.184 0-2.013.55-2.013 1.422 0 .885.767 1.451 2.101 1.451.698 0 1.078-.14 1.777-.234v.8a6.6 6.6 0 0 1-2.07.304m5.186-1.767c.073-.166.256-.43.392-.597.125-.152.242-.199.535-.199.207 0 .48.01.786-.037.505-.078.66-.3.66-.617 0-.676-1.122-.618-1.82-.618h-.828v3.72H6.84v-4.484h3.374c1.41 0 2.138.546 2.138 1.382 0 .582-.435.983-1.147 1.159l1.46 1.943H11.1l-1.256-1.652zm7.866-4.075h1.303l-.879.796h-.98zm-2.664 1.22h4.945l.343.811h-3.903v2.92h4.04l-.418.774H13.74zm1.804 2.17c.287-.37.336-.312 1.309-.318h1.48l-.456.53c-.156.182-.33.203-.58.203h-2.078zm5.11-2.17h2.169c1.82 0 3.654.744 3.654 2.402 0 1.299-1.251 2.103-2.712 2.103h-3.111zm2.499 3.795c1.266 0 1.933-.628 1.933-1.449 0-.919-.86-1.393-2.333-1.393h-.71v2.842zm4.843-3.794h1.414v4.504h-1.414zm4.587.802H30.5l.48-.8h5.288s-.119.328-.349.593c-.18.21-.586.21-.954.21h-.954v3.703h-1.428zm14.012 3.704-1.915-3.642-1.055 1.865h1.878c-.355.737-.642.778-1.16.778h-1.149l-.535.997h-1.435l2.588-4.504h1.822l2.481 4.504h-1.52m7.285-.835v-.977h-1.69l.23-.464c.137-.28.318-.312.923-.312l1.753-.004v2.377c-.716.213-1.903.332-2.695.332-1.871 0-3.34-.89-3.34-2.319 0-1.444 1.528-2.333 3.285-2.333.837 0 1.722.099 2.458.259v.925c-.642-.238-1.645-.347-2.302-.347-1.184 0-1.915.624-1.915 1.496 0 .885.698 1.492 2.038 1.492.456 0 .969-.03 1.254-.125m4.018-.815q.166-.32.394-.597c.125-.152.242-.199.536-.199.205 0 .48.01.786-.037.505-.078.66-.3.66-.617 0-.676-1.122-.618-1.822-.618h-.829v3.72H56.2v-4.484h3.374c1.41 0 2.138.546 2.138 1.382 0 .582-.435.983-1.147 1.159l1.459 1.943h-1.566l-1.254-1.652zm5.161-2.854h1.414v4.504H63.06zm6.307 4.621c-1.872 0-3.344-.89-3.344-2.319 0-1.444 1.53-2.333 3.294-2.333.835 0 1.435.146 2.17.306v.95a5.6 5.6 0 0 0-1.915-.347c-1.184 0-2.013.55-2.013 1.422 0 .885.767 1.451 2.1 1.451.7 0 1.08-.14 1.778-.234v.8a6.6 6.6 0 0 1-2.07.304m3.252-2.312c0-1.41 1.258-2.35 3.362-2.35 1.807 0 3.254.888 3.254 2.374 0 1.205-1.07 2.3-3.254 2.3-2.22.003-3.362-1.14-3.362-2.325m1.523-.037c-.013.843.611 1.606 1.839 1.606 1.116 0 1.77-.78 1.746-1.631-.027-.82-.692-1.513-1.746-1.513-1.141-.002-1.827.696-1.84 1.538m6.388 2.234v-4.506h1.416v3.737h3.044l-.438.77zm6.036-4.506h4.945l.343.81H87.95v2.92h4.04l-.418.774h-5.007zm1.801 2.169c.288-.37.337-.312 1.31-.318l1.477-.004-.455.535c-.156.183-.33.203-.581.203H88.04z"/></g><defs><clipPath id="a"><path fill="#fff" d="M0 0h92v58.77H0z"/></clipPath></defs></svg>