<svg xmlns="http://www.w3.org/2000/svg" width="26" height="26" fill="none" viewBox="0 0 26 26"><path fill="#979FAA" d="m12.097 9.786-3.214 2.492C8.558 11.05 7.475 10.11 6.14 10.11H3.828v5.706h2.31c1.337 0 2.493-.903 2.745-2.167l3.214 2.492 3.214-2.492v2.167h3.647V14.66h-2.383v-4.55h-1.336v2.167l-3.07 2.491-.65-.577L13 13l1.589-1.228-.903-.758-3.07 2.383-.65-.578 3.07-2.31zm-7.041 1.48h1.01c.217 0 .398.037.578.145.181.072.362.217.506.361.144.145.253.325.361.542s.145.433.145.686q0 .325-.109.65a1.36 1.36 0 0 1-.325.542 2.7 2.7 0 0 1-.505.397 1.2 1.2 0 0 1-.614.144H5.056zm18.055 3.395v1.156h-3.647V10.11H20.8v4.55zM13 0C5.886 0 0 5.886 0 13s5.814 13 13 13 13-5.814 13-13S20.114 0 13 0m0 1.336c.794 0 1.589.072 2.347.253.759.144 1.48.397 2.203.686.686.289 1.372.65 1.986 1.083q.921.65 1.733 1.409c.542.505 1.012 1.12 1.409 1.733.433.614.794 1.3 1.083 1.986s.542 1.445.686 2.203.253 1.553.253 2.347c0 .795-.072 1.589-.253 2.347-.144.759-.397 1.48-.686 2.203-.289.686-.65 1.372-1.083 1.986a16 16 0 0 1-1.409 1.734c-.505.541-1.119 1.01-1.733 1.408-.614.433-1.3.794-1.986 1.083-.686.29-1.444.542-2.203.686s-1.553.253-2.347.253-1.589-.072-2.347-.253c-.759-.144-1.48-.397-2.203-.686a10.6 10.6 0 0 1-1.986-1.083 16 16 0 0 1-1.733-1.408c-.542-.506-1.012-1.12-1.409-1.734-.433-.614-.794-1.3-1.083-1.986a11 11 0 0 1-.686-2.203c-.145-.758-.253-1.552-.253-2.347s.072-1.589.253-2.347c.144-.758.397-1.48.686-2.203.289-.686.65-1.372 1.083-1.986q.65-.921 1.409-1.733c.505-.542 1.119-1.011 1.733-1.409.614-.433 1.3-.794 1.986-1.083a11 11 0 0 1 2.203-.686c.758-.18 1.553-.253 2.347-.253"/></svg>