<svg xmlns="http://www.w3.org/2000/svg" width="20" height="20" fill="none" viewBox="0 0 20 20"><path fill="#6C6C81" d="M16.93 3.463A16.5 16.5 0 0 0 12.86 2.2a.06.06 0 0 0-.066.031c-.175.313-.37.72-.506 1.041a15.2 15.2 0 0 0-4.573 0 11 11 0 0 0-.515-1.04.06.06 0 0 0-.065-.032 16.5 16.5 0 0 0-4.07 1.263.06.06 0 0 0-.028.023C.444 7.36-.266 11.138.083 14.87a.07.07 0 0 0 .026.046 16.6 16.6 0 0 0 4.994 2.525.06.06 0 0 0 .07-.023q.58-.789 1.022-1.662a.063.063 0 0 0-.035-.088 11 11 0 0 1-1.56-.744.064.064 0 0 1-.007-.106q.159-.119.31-.243a.06.06 0 0 1 .065-.009c3.273 1.495 6.817 1.495 10.051 0a.06.06 0 0 1 .066.008q.15.125.31.244a.064.064 0 0 1-.005.106q-.747.437-1.561.743a.064.064 0 0 0-.034.089 13 13 0 0 0 1.02 1.661.06.06 0 0 0 .07.024 16.5 16.5 0 0 0 5.003-2.525.07.07 0 0 0 .026-.046c.417-4.314-.699-8.061-2.957-11.383a.05.05 0 0 0-.026-.024M6.684 12.597c-.985 0-1.797-.904-1.797-2.015s.796-2.016 1.797-2.016c1.01 0 1.814.912 1.798 2.016 0 1.11-.796 2.015-1.798 2.015m6.646 0c-.985 0-1.797-.904-1.797-2.015s.796-2.016 1.797-2.016c1.009 0 1.813.912 1.797 2.016 0 1.11-.788 2.015-1.797 2.015" opacity=".5"/></svg>