<svg xmlns="http://www.w3.org/2000/svg" width="54" height="20" fill="none" viewBox="0 0 54 20"><path fill="#9A9CAC" d="M52.396 18.887c.084 0 .133-.038.133-.118v-.08c0-.078-.049-.116-.133-.116h-.2v.312zm-.2.583h-.27v-1.108h.5c.25 0 .377.147.377.35 0 .175-.08.287-.2.333l.247.423h-.296l-.205-.378h-.156zm.965-.494v-.138a.79.79 0 0 0-.808-.794.79.79 0 0 0-.807.794v.138a.79.79 0 0 0 .807.797.79.79 0 0 0 .808-.797m-1.865-.066c0-.624.472-1.095 1.057-1.095.588 0 1.057.474 1.057 1.092A1.063 1.063 0 0 1 52.354 20a1.06 1.06 0 0 1-1.057-1.09M36.074 1.389 35.594 0H27.67v1.389zm.92 2.648-.481-1.387H27.67v1.39zm5.897 15.905h6.914v-1.389H42.89zm0-2.653h6.914v-1.386H42.89zm0-2.648h4.148v-1.389h-4.15zm0-2.65h4.148v-1.389h-4.15zm0-2.65h4.148V7.95h-7.911l-.39 1.122-.39-1.122h-7.91v1.39h4.15V8.062l.445 1.277h7.41l.446-1.277zm4.148-4.04h-6.992l-.483 1.389h7.475zm-16.602 6.69h4.15v-1.389h-4.15zm0 2.648h4.15v-1.386h-4.15zm-2.766 2.65h6.917v-1.386H27.67zm0 2.653h6.917v-1.389H27.67zM41.883 0l-.481 1.389h8.403V0zm-1.4 4.04h9.325V2.65h-8.844zM30.437 6.686h7.476L37.432 5.3h-6.995zm5.524 5.304h5.555L42 10.602h-6.525zm.928 2.648h3.698l.486-1.386h-4.67zm.926 2.65h1.847l.485-1.386H37.33zm.921 2.653.483-1.389h-.962zm-27.669-.013 10.188.013a5.24 5.24 0 0 0 3.565-1.389H11.067zm10.816-6.676v1.388h4.655c0-.48-.066-.946-.184-1.389zm-8.047 1.388h4.15v-1.389h-4.15zm8.049-7.951h4.469c.118-.443.184-.908.184-1.389h-4.653zm-8.05 0h4.151V5.3h-4.15zM21.254.002H11.067v1.389H24.82A5.26 5.26 0 0 0 21.253.002m4.575 2.65h-14.76v1.39h15.319a5.3 5.3 0 0 0-.556-1.39zM13.833 7.955v1.388h10.838c.46-.391.85-.86 1.155-1.388zm10.838 2.65H13.833v1.389h11.993a5.3 5.3 0 0 0-1.155-1.389m-13.606 6.69h14.763c.245-.43.437-.895.557-1.389H11.067zM0 1.389h9.685V0H0zm0 2.65h9.685V2.65H0zm2.766 2.65h4.15V5.302h-4.15zm0 2.651h4.15V7.951h-4.15zm0 2.648h4.15v-1.386h-4.15zm0 2.653h4.15v-1.389h-4.15zM0 17.291h9.685v-1.386H0zm0 2.653h9.685v-1.388H0z"/></svg>