<svg xmlns="http://www.w3.org/2000/svg" width="61" height="34" fill="none" viewBox="0 0 61 34"><path fill="#8b8d98" d="M44.503 24.348H39.77v9.246h4.775v-4.171l5.636 4.171h4.772v-9.246h-4.776v4.209zM30.36 0C13.592 0 0 13.593 0 30.36q.001 1.64.17 3.235h3.18a28 28 0 0 1-.19-3.235c0-15.022 12.178-27.2 27.2-27.2 15.023 0 27.202 12.178 27.202 27.2q-.001 1.643-.19 3.235h3.18q.17-1.613.17-3.235C60.72 13.593 47.127 0 30.36 0m2.548 24.348h-5.077l-6.017 9.246h4.929l.668-1.034h5.918l.67 1.034h4.927zm-1.153 5.754h-2.77l1.385-2.14zm-21.593-5.754h-4.48v9.246h4.777v-3.656l2.852 2.852 2.853-2.852v3.656h4.775v-9.246H16.46l-3.149 3.15z"/></svg>