<svg xmlns="http://www.w3.org/2000/svg" width="48" height="20" fill="none" viewBox="0 0 48 20"><path fill="#9A9CAC" fill-rule="evenodd" d="M37.239 7.737c-.067.361-.172.778-.313 1.237a14 14 0 0 1-.536 1.434 18 18 0 0 1-.716 1.375 9 9 0 0 1-.707 1.056q-.338.422-.617.617c-.14.097-.217.107-.244.107a.1.1 0 0 1-.033-.006c-.023-.01-.1-.063-.135-.31-.032-.225-.014-.522.05-.881.066-.37.17-.791.312-1.247.14-.457.321-.941.538-1.439.216-.493.45-.954.7-1.369.249-.414.49-.766.72-1.045q.335-.41.618-.607c.14-.097.217-.108.244-.108q.019 0 .032.007c.024.01.101.063.136.31q.046.339-.05.87m-9.326 0c-.067.361-.172.778-.312 1.237-.143.461-.324.945-.537 1.434-.233.496-.474.96-.716 1.375a9 9 0 0 1-.707 1.056q-.337.422-.617.617c-.14.097-.217.107-.244.107a.1.1 0 0 1-.033-.006c-.023-.01-.1-.062-.135-.309q-.047-.339.05-.882c.066-.37.171-.789.313-1.247.139-.457.32-.94.538-1.438.215-.495.451-.956.7-1.37a9 9 0 0 1 .72-1.045q.336-.41.617-.607c.14-.097.217-.107.244-.107a.1.1 0 0 1 .032.006c.024.01.102.063.136.31q.047.339-.05.87m-10.105-.093c-.04.367-.12.786-.237 1.245s-.276.941-.475 1.435c-.198.492-.408.954-.627 1.374-.214.41-.43.76-.643 1.041q-.312.41-.58.604c-.13.095-.203.106-.228.106a.1.1 0 0 1-.032-.007c-.024-.01-.106-.065-.148-.315a3.5 3.5 0 0 1-.012-.88c.034-.36.109-.774.224-1.23.116-.456.276-.939.475-1.434.2-.499.412-.96.628-1.375.213-.41.43-.764.644-1.053q.31-.42.578-.613c.13-.095.204-.106.229-.106q.017 0 .03.007c.026.01.111.067.164.32q.07.34.01.881M38.24 4.598q.735.001 1.249.445c.328.285.562.692.696 1.21.13.501.156 1.108.08 1.803-.077.687-.277 1.471-.598 2.33a11.3 11.3 0 0 1-1.03 2.122q-.276.435-.565.811c-.024.032.012.074.047.054a5 5 0 0 0 .333-.197q.376-.244.717-.52a4 4 0 0 0 1.322-1.994q.201-.707.445-1.398c.266-.758.55-1.466.844-2.103.292-.636.535-1.112.723-1.415q.32-.52.887-.64a2.1 2.1 0 0 1 .998.014q.477.13.77.468c.21.245.256.524.13.807q-.055.147-.29.664a49 49 0 0 0-1.133 2.736 13 13 0 0 0-.456 1.442c-.103.425-.144.779-.12 1.05.022.26.121.26.175.26.076 0 .21-.036.419-.206q.301-.25.63-.597.332-.35.623-.742.267-.357.453-.625a.56.56 0 0 1 .47-.243c.201 0 .396.101.498.257a.44.44 0 0 1-.009.498c-.131.206-.361.55-.702 1.054a15 15 0 0 1-1.203 1.527 9.7 9.7 0 0 1-1.52 1.38c-.57.414-1.145.623-1.709.623-.51 0-.89-.176-1.132-.526-.219-.319-.33-.746-.33-1.271v-.084a.074.074 0 0 0-.12-.059q-.162.129-.33.255a9.8 9.8 0 0 1-2.276 1.245 6.7 6.7 0 0 1-2.478.448l-.18-.002-.182-.006c-.605-.001-1.053-.19-1.334-.564a2 2 0 0 1-.136-.204.074.074 0 0 0-.136.016q-.136.457-.257.877c-.173.603-.32 1.124-.45 1.594-.13.472-.243.902-.336 1.28q-.136.548-.184.877l-.002.009a.73.73 0 0 1-.582.609q-.149.033-.305.033-.282 0-.588-.108a2 2 0 0 1-.824-.559 1.46 1.46 0 0 1-.373-1.013c0-.081.02-.259.18-.912.118-.481.278-1.08.477-1.781q.202-.714.456-1.545c.02-.066-.056-.121-.113-.082-.59.402-1.253.75-1.976 1.033a6.8 6.8 0 0 1-2.477.448 8 8 0 0 1-.363-.008c-.604-.001-1.052-.19-1.334-.564a2 2 0 0 1-.136-.204.075.075 0 0 0-.135.016 142 142 0 0 0-.707 2.471c-.13.472-.244.902-.337 1.28-.09.365-.151.66-.184.877l-.001.009a.73.73 0 0 1-.583.609q-.148.033-.304.033a1.8 1.8 0 0 1-.589-.108 2 2 0 0 1-.823-.559 1.46 1.46 0 0 1-.374-1.013c0-.082.02-.26.18-.912a66 66 0 0 1 .869-3.113c.02-.071-.067-.126-.123-.075a10 10 0 0 1-.764.63c-.562.413-1.133.623-1.698.623-.51 0-.891-.177-1.132-.526a1.7 1.7 0 0 1-.228-.486.224.224 0 0 0-.375-.09 3.8 3.8 0 0 1-1.393.92 2.9 2.9 0 0 1-1.02.182 1.94 1.94 0 0 1-1.27-.441c-.345-.283-.601-.684-.761-1.194-.156-.493-.213-1.1-.17-1.803.042-.695.2-1.475.47-2.32.575-1.75 1.324-3.05 2.228-3.866.921-.83 1.855-1.251 2.776-1.251.39 0 .72.078.98.232q.385.231.587.6.134.249.194.532c.007.033.052.04.07.01q.069-.125.132-.227c.212-.344.506-.56.874-.64.343-.074.68-.07.997.014q.491.131.784.469c.21.245.257.524.131.807-.036.096-.13.314-.29.664a51 51 0 0 0-1.133 2.736 12 12 0 0 0-.456 1.442c-.103.426-.144.78-.12 1.05.022.26.121.26.174.26.077 0 .21-.036.419-.206q.172-.143.357-.32a3.8 3.8 0 0 0 1.003-1.574c.281-.822.578-1.634.882-2.417.325-.832.642-1.58.942-2.221a1.2 1.2 0 0 1 .736-.664 1.89 1.89 0 0 1 1.754.307q.152.124.242.265.023.038.056.007.404-.372.884-.677c.468-.299.997-.45 1.574-.45.488 0 .908.15 1.248.446.328.285.563.692.697 1.21.129.5.156 1.108.08 1.803-.077.686-.279 1.471-.599 2.33-.303.812-.65 1.527-1.03 2.122q-.276.435-.565.81c-.024.033.013.075.048.055q.167-.09.332-.198.268-.173.52-.365a4 4 0 0 0 1.364-1.899l.1-.294c.299-.883.615-1.754.94-2.587s.642-1.58.942-2.221c.156-.332.404-.556.736-.664a1.89 1.89 0 0 1 1.754.306q.15.125.241.266.024.038.056.007.404-.372.885-.677a2.9 2.9 0 0 1 1.573-.45M7.686.46c.7 0 1.401.08 2.086.24a6.6 6.6 0 0 1 1.856.726c.55.326 1 .734 1.34 1.215.348.489.523 1.062.523 1.704 0 .69-.154 1.339-.458 1.926A5.6 5.6 0 0 1 11.8 7.85a8 8 0 0 1-1.803 1.212 12 12 0 0 1-1.788.715c-.04.013-.054.033-.052.073q.02.46.067.9c.035.333.081.659.139.968.055.303.123.599.2.878a9 9 0 0 0 .338.997q.148.356.32.671.17.31.361.58.187.264.397.49.204.22.426.4a3.6 3.6 0 0 0 .92.542 3.3 3.3 0 0 0 .998.22c.172.01.352.009.53-.007q.274-.024.553-.088.286-.066.574-.173a5.5 5.5 0 0 0 .817-.385.554.554 0 0 1 .72.153.534.534 0 0 1-.083.721q-.158.136-.313.261-.38.307-.751.56-.353.242-.707.44a8 8 0 0 1-1.093.511q-.361.133-.716.218a5 5 0 0 1-.701.12 5 5 0 0 1-.686.02 4.4 4.4 0 0 1-1.29-.25 4 4 0 0 1-.588-.263 4.6 4.6 0 0 1-.953-.686 5 5 0 0 1-.457-.482 6 6 0 0 1-.408-.549 7 7 0 0 1-.36-.611 8 8 0 0 1-.313-.671 9 9 0 0 1-.264-.728 11 11 0 0 1-.215-.783 13 13 0 0 1-.267-1.608c-.008-.079-.123-.09-.146-.012q-.15.517-.27.997-.15.6-.276 1.09-.123.482-.173.766c-.067.334-.288.545-.643.613-.304.06-.632.034-.97-.073a2.3 2.3 0 0 1-.901-.552 1.37 1.37 0 0 1-.418-1.018c0-.328.083-.847.255-1.585.167-.72.408-1.575.718-2.54.307-.958.68-2.013 1.107-3.136C4 5.8 4.413 4.829 4.86 3.871c.146-.313.448-.53.797-.57q1.183-.135 2.052.067c.35.081.537.455.391.778a46 46 0 0 0-1.027 2.441c-.25.646-.488 1.286-.714 1.909-.022.061.042.118.102.091q.45-.205.888-.48c.475-.301.909-.66 1.288-1.068a5.3 5.3 0 0 0 .92-1.365 3.75 3.75 0 0 0 .347-1.597c0-.727-.205-1.265-.608-1.596-.409-.336-.984-.506-1.71-.506-.775 0-1.482.18-2.103.537a6.3 6.3 0 0 0-1.64 1.335 6.5 6.5 0 0 0-1.06 1.667c-.249.576-.375 1.08-.375 1.501 0 .301-.161.519-.454.612-.257.083-.541.07-.832-.036Q.7 7.435.352 6.99C.117 6.692 0 6.289 0 5.79c0-.434.167-.946.512-1.564.334-.602.83-1.189 1.471-1.744.64-.553 1.448-1.033 2.404-1.427C5.347.661 6.457.46 7.686.46M45.796 0c1.071 0 1.94.857 1.94 1.913s-.869 1.913-1.94 1.913c-1.072 0-1.94-.856-1.94-1.913S44.724 0 45.796 0" clip-rule="evenodd"/></svg>