<svg width="20" height="20" opacity="0.5" viewBox="0 0 24 24" fill="none" xmlns="http://www.w3.org/2000/svg"><path d="M15.029 14.708c-.762 0-1.401-.616-1.401-1.377 0-.762.639-1.4 1.401-1.4s1.378.638 1.378 1.4c0 .761-.616 1.377-1.378 1.377m.194 2.546c-.674.673-1.727 1-3.224 1-1.496 0-2.551-.327-3.223-1a.374.374 0 1 1 .529-.528c.524.525 1.406.781 2.694.781s2.17-.256 2.696-.781a.373.373 0 0 1 .528.528m-7.631-3.923c0-.762.639-1.4 1.4-1.4.76 0 1.377.638 1.377 1.4 0 .76-.616 1.377-1.377 1.377-.762 0-1.4-.617-1.4-1.377M22 11.816a2.278 2.278 0 0 0-2.265-2.265 2.246 2.246 0 0 0-1.535.6c-1.495-.974-3.497-1.602-5.714-1.688l1.223-3.734 3.213.757a1.874 1.874 0 0 0 1.864 1.862 1.876 1.876 0 0 0 1.865-1.864 1.877 1.877 0 0 0-1.865-1.865 1.87 1.87 0 0 0-1.716 1.134l-3.52-.828-.008-.002-.33-.078-1.51 4.61c-2.301.043-4.386.669-5.937 1.664a2.261 2.261 0 0 0-1.501-.568A2.278 2.278 0 0 0 2 11.815c0 .786.408 1.517 1.076 1.929a3.961 3.961 0 0 0-.057.673c0 3.288 4.01 5.964 8.939 5.964s8.94-2.676 8.94-5.964c0-.212-.016-.422-.049-.629A2.248 2.248 0 0 0 22 11.816" fill="#6C6C81"></path></svg>