<svg xmlns="http://www.w3.org/2000/svg" width="70" height="22" fill="none" viewBox="0 0 70 22"><path fill="#9A9CAC" d="M69.957 5.238C69.005.064 52.583-1.55 33.277 1.63c-8.108 1.337-15.43 3.31-21.131 5.528.876.018 1.525.208 1.92.58.308.293.464.694.464 1.194v.514h-1.893v-.453c0-.378-.239-.612-.662-.612-.357 0-.576.152-.647.452a.8.8 0 0 0 .008.358c.203.783 3.014 1.27 3.32 2.717.04.186.094.584.008 1.154-.175 1.167-1.258 1.617-2.636 1.617-1.925 0-2.706-.863-2.706-2.052l.001-.563h2.03v.701c0 .394.303.612.715.612.39 0 .619-.15.697-.453.037-.14.053-.347-.013-.504-.376-.892-3-1.309-3.324-2.75a2.3 2.3 0 0 1-.018-.95q.046-.26.168-.498c-6.324 2.8-10.024 5.88-9.535 8.54.953 5.174 17.374 6.787 36.68 3.605 8.487-1.398 16.117-3.492 21.924-5.837-.084.003-.166.012-.253.012-1.322 0-2.501-.469-2.624-1.747a5 5 0 0 1-.026-.463v-2.94c0-.126.017-.348.032-.463.156-1.236 1.188-1.745 2.619-1.745 1.107 0 2.464.3 2.613 1.746.02.181.018.375.017.439v.277h-1.911v-.414c0-.009-.003-.164-.024-.26-.032-.148-.164-.49-.709-.49-.538 0-.677.343-.712.49-.02.08-.03.197-.03.326v3.194q-.001.166.017.262c.009.05.105.49.732.49.621 0 .718-.44.726-.49.017-.087.019-.19.018-.262v-.99h-.752v-1.066h2.66v1.897c0 .129-.003.224-.026.462a1.7 1.7 0 0 1-.318.862c6.158-2.768 9.743-5.8 9.26-8.42m-50.062 9.17-.968-6.23h-.035l-.993 6.23h-2.042l1.373-7.036h3.33l1.366 7.035zm9.819 0-.045-6.11h-.033l-1.2 6.11h-1.917l-1.195-6.11h-.034l-.044 6.11h-1.898l.165-7.036h3.053l.89 5.226h.043l.891-5.226h3.052l.164 7.035zm8.94-1.364c-.205 1.362-1.615 1.6-2.612 1.6-1.655 0-2.678-.669-2.678-2.032v-.555h2.006l.001.692c0 .376.28.606.712.606.386 0 .612-.147.69-.448.037-.14.052-.344-.013-.499-.37-.875-2.974-1.304-3.29-2.723a2.25 2.25 0 0 1-.018-.94c.22-1.287 1.525-1.554 2.575-1.554.94 0 1.623.194 2.033.582.306.29.46.687.46 1.182v.507h-1.875v-.447c0-.384-.251-.606-.655-.606q-.538.001-.647.448a.8.8 0 0 0 .01.354c.2.78 2.987 1.257 3.292 2.69.04.183.093.575.009 1.143m6.944-.64c.003.132-.01.396-.019.464-.114 1.159-.99 1.748-2.596 1.748-1.612 0-2.489-.59-2.603-1.748a5 5 0 0 1-.018-.462V7.37h1.918v5.195q-.003.173.017.261c.023.116.145.49.686.49.54 0 .661-.375.687-.489.01-.06.017-.151.017-.263V7.37h1.91zm8.265 1.931h-2.67l-1.791-5.572h-.03l.099 5.572h-1.86V7.372h2.78l1.657 5.353h.039l-.098-5.353h1.874z"/></svg>