<svg xmlns="http://www.w3.org/2000/svg" width="27" height="25" fill="none" viewBox="0 0 27 25"><path fill="#979FAA" d="M14.193 24.847c.168-.084.361-.23.564-.428l.308-.3 3.08-.027 3.099-.09a3 3 0 0 0 .04-.33l.077-.789.325-3.194.047-.482 5.019-3.734c.094-.072.209-.817.241-1.515.026-.731-.02-1.253-.16-1.834-.112-.459-.358-1.11-.419-1.11-.024 0-1.492 1.488-3.264 3.305l-4.108 4.213-.905.838c-.024-.095.056-.209.877-1.258l3.1-3.957 4.01-5.166c.02-.078-.151-.695-.282-1.013-.146-.356-.45-.876-.756-1.29-.273-.373-.981-1.151-1.013-1.115-.008.011-.279.487-.598 1.059l-5.892 10.52-.73 1.264c-.03.031-.082.04-.13.026-.16-.051-.1-.228.55-1.636l4.46-9.703 1.287-2.868c0-.114-.276-.503-.574-.81a7.5 7.5 0 0 0-1.383-1.069c-.429-.255-1.268-.685-1.291-.66-.016.016-.08.273-.643 2.26l-3.647 13.081c-.166.604-.188.654-.277.654-.116 0-.124-.096-.043-.513l.249-1.315.148-.788L18.177.954l-.088-.067c-.592-.444-1.315-.682-2.363-.781-.439-.04-1.41-.038-1.448.004-.008.01-.036.615-.06 1.345l-.422 12.446-.091 2.529c-.05 1.427-.063 1.53-.195 1.53-.071 0-.083-.116-.13-1.288l-.208-4.963-.077-1.828-.132-3.059-.058-1.386-.057-1.27L12.686.32l-.008-.27-.304-.03a6.2 6.2 0 0 0-2.333.267c-.334.118-.859.387-1.103.568l-.172.128 2.295 11.621.991 5.136c0 .147-.095.188-.194.086-.068-.069-.678-2.182-2.081-7.207L9.395 9.27 8.292 5.36 7.27 1.772c-.056-.091-1.103.382-1.64.74-.6.4-1.17.962-1.574 1.549l-.156.228 6.325 13.385c.149.315.275.626.28.691.012.162-.097.18-.226.037-.053-.06-.514-.836-1.027-1.725L2.903 5.68c-.059-.066-.795.81-1.164 1.383-.404.628-.692 1.37-.752 1.939l-.026.25 2.724 3.386 4.066 5.053 1.33 1.732s-.053.067-.105.073c-.107.013-.416-.298-4.252-4.262l-4.19-4.266c-.08.08-.35 1.048-.461 1.65-.105.559-.094 1.801.017 2.348.06.29.107.428.168.489.077.076.728.582 3.997 3.103l1.105.852.044.385.103.905.11.962.153 1.366.117 1.01.016.087h6.234l.222.244c.411.457.812.651 1.293.628a1.1 1.1 0 0 0 .547-.142z"/></svg>