<svg xmlns="http://www.w3.org/2000/svg" width="20" height="20" fill="none" viewBox="0 0 20 20"><g clip-path="url(#a)" opacity=".5"><path fill="#6C6C81" d="M6.292 18.125c7.545 0 11.673-6.253 11.673-11.673q0-.266-.012-.532A8.3 8.3 0 0 0 20 3.796a8.1 8.1 0 0 1-2.355.645 4.13 4.13 0 0 0 1.804-2.27 8.3 8.3 0 0 1-2.605.996A4.108 4.108 0 0 0 9.85 6.91a11.65 11.65 0 0 1-8.456-4.284A4.11 4.11 0 0 0 2.664 8.1a4.1 4.1 0 0 1-1.86-.512v.051a4.1 4.1 0 0 0 3.293 4.024 4.1 4.1 0 0 1-1.851.07 4.11 4.11 0 0 0 3.831 2.851A8.23 8.23 0 0 1 0 16.282a11.64 11.64 0 0 0 6.292 1.843"/></g><defs><clipPath id="a"><path fill="#6C6C81" d="M0 0h20v20H0z"/></clipPath></defs></svg>