<svg xmlns="http://www.w3.org/2000/svg" xmlns:xlink="http://www.w3.org/1999/xlink" viewBox="0,0,256,256" width="480px" height="480px" fill-rule="nonzero"><g fill="#494369" fill-rule="nonzero" stroke="none" stroke-width="1" stroke-linecap="butt" stroke-linejoin="miter" stroke-miterlimit="10" stroke-dasharray="" stroke-dashoffset="0" font-family="none" font-weight="none" font-size="none" text-anchor="none" style="mix-blend-mode: normal"><g transform="scale(8.53333,8.53333)"><path d="M28,6.937c-0.957,0.425 -1.985,0.711 -3.064,0.84c1.102,-0.66 1.947,-1.705 2.345,-2.951c-1.03,0.611 -2.172,1.055 -3.388,1.295c-0.973,-1.037 -2.359,-1.685 -3.893,-1.685c-2.946,0 -5.334,2.389 -5.334,5.334c0,0.418 0.048,0.826 0.138,1.215c-4.433,-0.222 -8.363,-2.346 -10.995,-5.574c-0.458,0.788 -0.721,1.704 -0.721,2.683c0,1.85 0.941,3.483 2.372,4.439c-0.874,-0.028 -1.697,-0.268 -2.416,-0.667c0,0.023 0,0.044 0,0.067c0,2.585 1.838,4.741 4.279,5.23c-0.447,0.122 -0.919,0.187 -1.406,0.187c-0.343,0 -0.678,-0.034 -1.003,-0.095c0.679,2.119 2.649,3.662 4.983,3.705c-1.825,1.431 -4.125,2.284 -6.625,2.284c-0.43,0 -0.855,-0.025 -1.273,-0.075c2.361,1.513 5.164,2.396 8.177,2.396c9.812,0 15.176,-8.128 15.176,-15.177c0,-0.231 -0.005,-0.461 -0.015,-0.69c1.043,-0.753 1.948,-1.692 2.663,-2.761z"></path></g></g></svg>