<svg xmlns="http://www.w3.org/2000/svg" width="20" height="20" fill="none" viewBox="0 0 20 20"><g opacity=".5"><path fill="#6C6C81" d="M16 0H4a4 4 0 0 0-4 4v12a4 4 0 0 0 4 4h12a4 4 0 0 0 4-4V4a4 4 0 0 0-4-4"/><path fill="#131217" d="M9.325 12.154a3.4 3.4 0 0 0-.398-1.592L6.431 5.886a.686.686 0 1 1 1.22-.628l1.83 3.69q.046.108.109.224.039.075.072.15c.025.06.059.116.083.177l.03.07q.08.155.14.302c.043.101.188.106.235.008l.146-.303q.149-.303.303-.629l1.873-3.717a.64.64 0 1 1 1.137.588l-2.574 4.837a3.3 3.3 0 0 0-.39 1.56v2.658a.66.66 0 0 1-1.32 0z"/></g></svg>