<svg xmlns="http://www.w3.org/2000/svg" width="320" height="232" fill="none" viewBox="0 0 320 232"><g filter="url(#a)"><rect width="144" height="104" x="88" y="64" fill="#0E0F10" rx="12"/><rect width="96" height="10" x="112" y="76" fill="#2F1C78" rx="5"/><path fill="#261958" fill-rule="evenodd" d="M232 99H88v-1h144z" clip-rule="evenodd"/><rect width="96" height="10" x="112" y="111" fill="#2F1C78" rx="5"/><path fill="#261958" fill-rule="evenodd" d="M232 134H88v-1h144z" clip-rule="evenodd"/><rect width="96" height="10" x="112" y="146" fill="#2F1C78" rx="5"/></g><g fill="#5F43D0" filter="url(#b)"><path d="M74.18 50.18a.62.62 0 0 1 .63-.148l14.77 4.923a.615.615 0 0 1 0 1.167l-7.093 2.364-2.365 7.093a.615.615 0 0 1-1.167 0L74.032 50.81a.62.62 0 0 1 .148-.63"/><rect width="2" height="6" x="74" y="40" rx="1"/><rect width="2" height="6" x="66" y="43.414" rx="1" transform="rotate(-45 66 43.414)"/><rect width="2" height="6" x="64" y="52" rx="1" transform="rotate(-90 64 52)"/></g><defs><filter id="a" width="184" height="144" x="68" y="56" color-interpolation-filters="sRGB" filterUnits="userSpaceOnUse"><feFlood flood-opacity="0" result="BackgroundImageFix"/><feColorMatrix in="SourceAlpha" result="hardAlpha" values="0 0 0 0 0 0 0 0 0 0 0 0 0 0 0 0 0 0 127 0"/><feOffset dy="12"/><feGaussianBlur stdDeviation="10"/><feComposite in2="hardAlpha" operator="out"/><feColorMatrix values="0 0 0 0 0 0 0 0 0 0 0 0 0 0 0 0 0 0 0.03 0"/><feBlend in2="BackgroundImageFix" result="effect1_dropShadow_10186_24768"/><feColorMatrix in="SourceAlpha" result="hardAlpha" values="0 0 0 0 0 0 0 0 0 0 0 0 0 0 0 0 0 0 127 0"/><feOffset dy="2"/><feGaussianBlur stdDeviation="3"/><feComposite in2="hardAlpha" operator="out"/><feColorMatrix values="0 0 0 0 0 0 0 0 0 0 0 0 0 0 0 0 0 0 0.05 0"/><feBlend in2="effect1_dropShadow_10186_24768" result="effect2_dropShadow_10186_24768"/><feBlend in="SourceGraphic" in2="effect2_dropShadow_10186_24768" result="shape"/></filter><filter id="b" width="66" height="66" x="44" y="32" color-interpolation-filters="sRGB" filterUnits="userSpaceOnUse"><feFlood flood-opacity="0" result="BackgroundImageFix"/><feColorMatrix in="SourceAlpha" result="hardAlpha" values="0 0 0 0 0 0 0 0 0 0 0 0 0 0 0 0 0 0 127 0"/><feOffset dy="12"/><feGaussianBlur stdDeviation="10"/><feComposite in2="hardAlpha" operator="out"/><feColorMatrix values="0 0 0 0 0 0 0 0 0 0 0 0 0 0 0 0 0 0 0.03 0"/><feBlend in2="BackgroundImageFix" result="effect1_dropShadow_10186_24768"/><feColorMatrix in="SourceAlpha" result="hardAlpha" values="0 0 0 0 0 0 0 0 0 0 0 0 0 0 0 0 0 0 127 0"/><feOffset dy="2"/><feGaussianBlur stdDeviation="3"/><feComposite in2="hardAlpha" operator="out"/><feColorMatrix values="0 0 0 0 0 0 0 0 0 0 0 0 0 0 0 0 0 0 0.05 0"/><feBlend in2="effect1_dropShadow_10186_24768" result="effect2_dropShadow_10186_24768"/><feBlend in="SourceGraphic" in2="effect2_dropShadow_10186_24768" result="shape"/></filter></defs></svg>