<svg xmlns="http://www.w3.org/2000/svg" width="320" height="232" fill="none" viewBox="0 0 320 232"><g filter="url(#a)"><g clip-path="url(#b)"><rect width="160" height="104" x="80" y="64" fill="#0E0F10" rx="12"/><rect width="72" height="10" x="104" y="80" fill="#2F1C78" rx="5"/><rect width="112" height="10" x="104" y="100" fill="#2F1C78" rx="5"/><g filter="url(#c)"><rect width="140" height="32" x="90" y="126" fill="#5F43D0" rx="8"/><path fill="#0E0F10" d="M135.654 147.14c-2.926 0-5.054-2.184-5.054-5.222 0-3.024 2.1-5.138 5.054-5.138 2.492 0 4.368 1.554 4.662 3.892h-2.1c-.238-1.442-1.26-2.184-2.548-2.184-1.708 0-2.884 1.26-2.884 3.416 0 2.198 1.204 3.528 2.912 3.528 1.218 0 2.24-.728 2.52-2.17h2.128c-.364 2.352-2.226 3.878-4.69 3.878m9.052 0c-2.352 0-3.948-1.512-3.948-3.738 0-2.212 1.582-3.682 3.948-3.682 2.38 0 3.948 1.47 3.948 3.682 0 2.226-1.596 3.738-3.948 3.738m0-1.652c.98 0 1.764-.784 1.764-2.1 0-1.288-.77-2.016-1.764-2.016s-1.764.742-1.764 2.016c0 1.316.784 2.1 1.764 2.1m4.886 1.512v-7.14h2.058v1.302c.49-.882 1.358-1.442 2.562-1.442 1.582 0 2.45.952 2.45 2.45V147h-2.1v-4.424c0-.784-.406-1.176-1.176-1.176-.994 0-1.694.714-1.694 1.764V147zm11.566.154c-1.834 0-2.702-.868-2.702-2.688v-3.01h-1.33v-1.596h1.33v-1.596l2.1-.784v2.38h1.848v1.596h-1.848v3.08c0 .644.35.952 1.092.952.28 0 .518-.056.756-.14v1.596c-.252.14-.7.21-1.246.21m2.191-8.246v-2.268h2.24v2.268zm.07 8.092v-7.14h2.1V147zm3.599 0v-7.14h2.058v1.302c.49-.882 1.358-1.442 2.562-1.442 1.582 0 2.45.952 2.45 2.45V147h-2.1v-4.424c0-.784-.406-1.176-1.176-1.176-.994 0-1.694.714-1.694 1.764V147zm10.57.14c-1.526 0-2.394-1.092-2.394-2.45v-4.83h2.1v4.424c0 .784.406 1.176 1.12 1.176.938 0 1.638-.714 1.638-1.764v-3.836h2.1V147h-2.058v-1.302c-.49.882-1.344 1.442-2.506 1.442m9.393 0c-2.38 0-3.92-1.512-3.92-3.71 0-2.212 1.554-3.71 3.85-3.71 2.212 0 3.626 1.428 3.626 3.57 0 .308-.028.546-.056.77h-5.292c.14 1.064.742 1.568 1.778 1.568.672 0 1.162-.21 1.414-.714h1.974c-.476 1.386-1.596 2.226-3.374 2.226m-.098-5.908c-.882 0-1.47.476-1.666 1.442h3.192c-.084-.98-.644-1.442-1.526-1.442"/></g></g></g><defs><filter id="a" width="200" height="144" x="60" y="56" color-interpolation-filters="sRGB" filterUnits="userSpaceOnUse"><feFlood flood-opacity="0" result="BackgroundImageFix"/><feColorMatrix in="SourceAlpha" result="hardAlpha" values="0 0 0 0 0 0 0 0 0 0 0 0 0 0 0 0 0 0 127 0"/><feOffset dy="12"/><feGaussianBlur stdDeviation="10"/><feComposite in2="hardAlpha" operator="out"/><feColorMatrix values="0 0 0 0 0 0 0 0 0 0 0 0 0 0 0 0 0 0 0.03 0"/><feBlend in2="BackgroundImageFix" result="effect1_dropShadow_10186_24816"/><feColorMatrix in="SourceAlpha" result="hardAlpha" values="0 0 0 0 0 0 0 0 0 0 0 0 0 0 0 0 0 0 127 0"/><feOffset dy="2"/><feGaussianBlur stdDeviation="3"/><feComposite in2="hardAlpha" operator="out"/><feColorMatrix values="0 0 0 0 0 0 0 0 0 0 0 0 0 0 0 0 0 0 0.05 0"/><feBlend in2="effect1_dropShadow_10186_24816" result="effect2_dropShadow_10186_24816"/><feBlend in="SourceGraphic" in2="effect2_dropShadow_10186_24816" result="shape"/></filter><filter id="c" width="180" height="72" x="70" y="118" color-interpolation-filters="sRGB" filterUnits="userSpaceOnUse"><feFlood flood-opacity="0" result="BackgroundImageFix"/><feColorMatrix in="SourceAlpha" result="hardAlpha" values="0 0 0 0 0 0 0 0 0 0 0 0 0 0 0 0 0 0 127 0"/><feOffset dy="12"/><feGaussianBlur stdDeviation="10"/><feComposite in2="hardAlpha" operator="out"/><feColorMatrix values="0 0 0 0 0 0 0 0 0 0 0 0 0 0 0 0 0 0 0.03 0"/><feBlend in2="BackgroundImageFix" result="effect1_dropShadow_10186_24816"/><feColorMatrix in="SourceAlpha" result="hardAlpha" values="0 0 0 0 0 0 0 0 0 0 0 0 0 0 0 0 0 0 127 0"/><feOffset dy="2"/><feGaussianBlur stdDeviation="3"/><feComposite in2="hardAlpha" operator="out"/><feColorMatrix values="0 0 0 0 0 0 0 0 0 0 0 0 0 0 0 0 0 0 0.05 0"/><feBlend in2="effect1_dropShadow_10186_24816" result="effect2_dropShadow_10186_24816"/><feBlend in="SourceGraphic" in2="effect2_dropShadow_10186_24816" result="shape"/></filter><clipPath id="b"><rect width="160" height="104" x="80" y="64" fill="#fff" rx="12"/></clipPath></defs></svg>