<svg xmlns="http://www.w3.org/2000/svg" width="320" height="232" fill="none" viewBox="0 0 320 232"><g filter="url(#a)"><rect width="160" height="62" x="80" y="85" fill="#0E0F10" rx="12"/><rect width="72" height="10" x="104" y="101" fill="#2F1C78" rx="5"/><rect width="112" height="10" x="104" y="121" fill="#2F1C78" rx="5"/></g><g filter="url(#b)"><path fill="#5F43D0" d="M165.017 151.841c0-.527 0-.791.143-.875a.3.3 0 0 1 .058-.026c.158-.049.341.134.708.498.549.628.995 1.139 1.319 1.59.336.469.58.926.685 1.461q.09.462.064.932c-.031.545-.211 1.033-.481 1.545-.26.493-.632 1.061-1.09 1.76l-.599.915c-.554.845-.893 1.364-1.316 1.781a5.46 5.46 0 0 1-2.665 1.452c-.573.126-1.434.126-2.433.126-1.775 0-2.852 0-3.742-.32a5.55 5.55 0 0 1-3.352-3.414c-.316-.912-.316-2.014-.316-3.815v-1.963c0-.259.019-.894.028-1.18 0-.978.785-1.932 1.852-2.187.232-.055.348-.083.454.005s.107.23.107.515v1.811c0 .227.182.411.406.411a.41.41 0 0 0 .407-.411v-2.377c0-.106 0-.159.021-.212a.5.5 0 0 1 .113-.152c.393-.421.96-.726 1.743-.824.249-.031.374-.046.469.041s.095.229.095.511v1.917c0 .227.182.411.407.411a.41.41 0 0 0 .406-.411v-2.532c0-.133 0-.199.031-.261.03-.062.075-.097.165-.165.429-.327.958-.52 1.531-.52.078.001.218.01.368.039.143.027.215.04.281.122.065.081.065.174.065.359v2.958c0 .227.182.411.407.411a.41.41 0 0 0 .407-.411v-7.091c0-.699.546-1.265 1.22-1.265s1.22.566 1.22 1.265v10.927c0 .227.182.411.407.411a.41.41 0 0 0 .407-.411z"/></g><defs><filter id="a" width="200" height="102" x="60" y="77" color-interpolation-filters="sRGB" filterUnits="userSpaceOnUse"><feFlood flood-opacity="0" result="BackgroundImageFix"/><feColorMatrix in="SourceAlpha" result="hardAlpha" values="0 0 0 0 0 0 0 0 0 0 0 0 0 0 0 0 0 0 127 0"/><feOffset dy="12"/><feGaussianBlur stdDeviation="10"/><feComposite in2="hardAlpha" operator="out"/><feColorMatrix values="0 0 0 0 0 0 0 0 0 0 0 0 0 0 0 0 0 0 0.03 0"/><feBlend in2="BackgroundImageFix" result="effect1_dropShadow_10186_24951"/><feColorMatrix in="SourceAlpha" result="hardAlpha" values="0 0 0 0 0 0 0 0 0 0 0 0 0 0 0 0 0 0 127 0"/><feOffset dy="2"/><feGaussianBlur stdDeviation="3"/><feComposite in2="hardAlpha" operator="out"/><feColorMatrix values="0 0 0 0 0 0 0 0 0 0 0 0 0 0 0 0 0 0 0.05 0"/><feBlend in2="effect1_dropShadow_10186_24951" result="effect2_dropShadow_10186_24951"/><feBlend in="SourceGraphic" in2="effect2_dropShadow_10186_24951" result="shape"/></filter><filter id="b" width="64" height="64" x="128" y="133" color-interpolation-filters="sRGB" filterUnits="userSpaceOnUse"><feFlood flood-opacity="0" result="BackgroundImageFix"/><feColorMatrix in="SourceAlpha" result="hardAlpha" values="0 0 0 0 0 0 0 0 0 0 0 0 0 0 0 0 0 0 127 0"/><feOffset dy="12"/><feGaussianBlur stdDeviation="10"/><feComposite in2="hardAlpha" operator="out"/><feColorMatrix values="0 0 0 0 0 0 0 0 0 0 0 0 0 0 0 0 0 0 0.03 0"/><feBlend in2="BackgroundImageFix" result="effect1_dropShadow_10186_24951"/><feColorMatrix in="SourceAlpha" result="hardAlpha" values="0 0 0 0 0 0 0 0 0 0 0 0 0 0 0 0 0 0 127 0"/><feOffset dy="2"/><feGaussianBlur stdDeviation="3"/><feComposite in2="hardAlpha" operator="out"/><feColorMatrix values="0 0 0 0 0 0 0 0 0 0 0 0 0 0 0 0 0 0 0.05 0"/><feBlend in2="effect1_dropShadow_10186_24951" result="effect2_dropShadow_10186_24951"/><feBlend in="SourceGraphic" in2="effect2_dropShadow_10186_24951" result="shape"/></filter></defs></svg>