<svg xmlns="http://www.w3.org/2000/svg" width="104" height="72" fill="none" viewBox="0 0 104 72"><g filter="url(#a)"><path fill="#1A1B1D" fill-opacity=".48" d="m.559 72 63.683-40.1h33.036a1.9 1.9 0 0 1 1.365.574 1.95 1.95 0 0 1 .563 1.384 1.71 1.71 0 0 1-.901 1.641L67.026 54.482c-2.032 1.231-2.743 3.703-2.743 5.555L64.25 72H104V2.474a2.5 2.5 0 0 0-.749-1.786 2.43 2.43 0 0 0-1.792-.686H63.53L0 39.928V72z"/></g><g filter="url(#b)"><path fill="#6E56CF" fill-rule="evenodd" d="m.559 72 .838-.528-.533-.846-.59.372H0V72zM0 68.993h1V66.99H0zm0-4.009h1V62.98H0zm0-4.009h1v-2.004H0zm0-4.009h1v-2.004H0zm0-4.009h1v-2.004H0zm0-4.009h1v-2.004H0zm0-4.009h1v-2.004H0zm0-4.009h1v-.45l.368-.23-.532-.847-.836.525zm2.508-2.578.532.847 1.672-1.051-.532-.847zm3.343-2.101.533.846 1.671-1.05-.532-.847zm3.344-2.102.532.847 1.672-1.05-.532-.847zm3.344-2.101.532.847 1.672-1.051-.532-.847zm3.344-2.101.532.846 1.671-1.05-.532-.847zm3.343-2.102.532.847 1.672-1.05-.532-.848zm3.344-2.101.532.846 1.672-1.05-.532-.847zm3.344-2.102.532.847 1.671-1.05-.532-.847zm3.343-2.1.532.846 1.672-1.05-.532-.848zm3.344-2.102.532.846 1.672-1.05-.532-.847zm3.344-2.102.532.847 1.672-1.05-.533-.847zm3.343-2.1.532.846 1.672-1.05-.532-.848zm3.344-2.102.532.846 1.672-1.05-.532-.847zm3.344-2.102.532.847 1.672-1.05-.532-.847zm3.343-2.101.532.847 1.672-1.051-.532-.847zm3.344-2.101.532.846 1.672-1.05-.532-.847zm3.344-2.102.532.847 1.672-1.05-.532-.847zm3.343-2.1.532.847 1.672-1.051-.532-.847zM62.694.528l.532.846.592-.372h.766v-1H63.53zm3.997-.526v1h2.107v-1zm4.214 0v1h2.107v-1zm4.214 0v1h2.108v-1zm4.215 0v1h2.107v-1zm4.214 0v1h2.107v-1zm4.214 0v1h2.107v-1zm4.215 0v1h2.107v-1zm4.214 0v1h2.107v-1zm4.214 0v1h1.097a1 1 0 0 1 .144 0l.059-.998a2 2 0 0 0-.246-.002zm1.785.081-.26.966a1.4 1.4 0 0 1 .27.103l.45-.893a2.4 2.4 0 0 0-.46-.176m.876.442-.622.784a1.5 1.5 0 0 1 .21.204l.766-.643a2.3 2.3 0 0 0-.354-.345m.633.755-.879.477a1.3 1.3 0 0 1 .115.273l.956-.292a2.6 2.6 0 0 0-.192-.458m.289.946-.995.096q.007.075.007.15v1.025h1V2.474q0-.125-.012-.248M104 5.542h-1v2.044h1zm0 4.09h-1v2.044h1zm0 4.089h-1v2.045h1zm0 4.09h-1v2.045h1zm0 4.09h-1v2.044h1zm0 4.09h-1v2.044h1zm0 4.089h-1v2.045h1zm0 4.09h-1v2.045h1zm0 4.09h-1v2.044h1zm0 4.09h-1v2.044h1zm0 4.089h-1v2.045h1zm0 4.09h-1v2.045h1zm0 4.09h-1v2.044h1zm0 4.09h-1v2.044h1zm0 4.09h-1v2.044h1zm0 4.089h-1v2.045h1zm0 4.09h-1V72h1zM101.019 72v-1h-1.988v1zm-3.975 0v-1h-1.988v1zm-3.975 0v-1h-1.987v1zm-3.975 0v-1h-1.987v1zm-3.975 0v-1h-1.987v1zm-3.975 0v-1h-1.987v1zm-3.975 0v-1h-1.987v1zm-3.974 0v-1h-1.988v1zm-3.975 0v-1h-1.988v1zm-3.97 0 .004-.994h-.01V71h-.99l-.003 1h1m-.991-2.99 1 .002.005-1.994-1-.003zm.01-3.989 1 .003.006-1.994-1-.002zm.01-3.987 1 .002.004-.997v-.002q-.001-.336.037-.701l-.994-.106q-.044.418-.043.807zm.38-3.383.951.307c.141-.438.33-.86.57-1.245l-.85-.529a6.6 6.6 0 0 0-.672 1.467m1.714-2.695.652.758q.24-.207.52-.377l.87-.528-.52-.855-.869.528a5 5 0 0 0-.653.474m3.26-2.056.519.855 1.737-1.055-.518-.855zm3.475-2.11.52.856 1.737-1.055-.519-.855zm3.476-2.108.519.854 1.737-1.054-.519-.855zm3.475-2.11.519.855 1.738-1.054-.52-.855zm3.475-2.109.52.855 1.737-1.054-.519-.855zm3.476-2.109.519.855 1.737-1.055-.519-.854zm3.475-2.109.519.855 1.738-1.055-.52-.855zm3.476-2.11.518.856 1.738-1.055-.519-.855zm3.475-2.108.519.855.845-.513q.159-.086.304-.192l-.59-.808a2 2 0 0 1-.21.13zm1.43-1.003.798.603a2.7 2.7 0 0 0 .377-.688l-.937-.349a1.7 1.7 0 0 1-.238.434m.341-.918.998.066q.012-.175.001-.352a3 3 0 0 0-.013-.249l-.996.095q.01.095.009.192.01.125.001.248m-.083-.816.958-.285a3 3 0 0 0-.217-.535l-.885.466a2 2 0 0 1 .144.354m-.354-.673.778-.629a3 3 0 0 0-.405-.411l-.64.768a2 2 0 0 1 .267.272m-.582-.485.477-.879a3 3 0 0 0-.533-.224l-.294.956a2 2 0 0 1 .35.147m-.721-.222.1-.995a3 3 0 0 0-.29-.014h-1.032v1h1.032q.096 0 .19.01m-3.287-.01v-1h-2.064v1zm-4.129 0v-1h-2.065v1zm-4.13 0v-1h-2.064v1zm-4.129 0v-1h-2.065v1zm-4.13 0v-1h-2.064v1zm-4.129 0v-1H71.47v1zm-4.13 0v-1H67.34v1zM3.074 70.418l-.533-.846 1.676-1.055.532.846zm3.351-2.11-.533-.847 1.676-1.055.533.846zm3.352-2.11-.533-.847 1.676-1.055.533.846zm3.352-2.111-.533-.846 1.676-1.056.533.847zm3.352-2.11-.533-.847 1.675-1.055.533.846zm3.351-2.111-.533-.846 1.676-1.056.533.846zm3.352-2.11-.533-.847 1.676-1.055.533.846zm3.352-2.111-.533-.846 1.676-1.056.533.847zM63.405 32.43l.838-.528h1.032v-1h-1.32l-1.083.681zm-1.676 1.055-1.676 1.055-.533-.846 1.676-1.055zm-3.352 2.11-.532-.846-1.676 1.055.532.847zm-3.351 2.11-.533-.846-1.676 1.056.533.846zm-3.352 2.111-.533-.846-1.676 1.055.533.846zm-3.352 2.11-.533-.845-1.676 1.055.533.846zm-3.352 2.111-.532-.846-1.676 1.055.532.846zm-3.351 2.11-.533-.846-1.676 1.056.533.846zm-3.352 2.111-.533-.846-1.676 1.055.533.846zm-3.352 2.11-.533-.846-1.676 1.056.533.846zm-3.352 2.111-.533-.846-1.675 1.055.533.846z" clip-rule="evenodd"/></g><defs><filter id="a" width="128" height="96" x="-12" y="-12" color-interpolation-filters="sRGB" filterUnits="userSpaceOnUse"><feFlood flood-opacity="0" result="BackgroundImageFix"/><feGaussianBlur in="BackgroundImageFix" stdDeviation="6"/><feComposite in2="SourceAlpha" operator="in" result="effect1_backgroundBlur_10988_5598"/><feBlend in="SourceGraphic" in2="effect1_backgroundBlur_10988_5598" result="shape"/></filter><filter id="b" width="128" height="96" x="-12" y="-12" color-interpolation-filters="sRGB" filterUnits="userSpaceOnUse"><feFlood flood-opacity="0" result="BackgroundImageFix"/><feGaussianBlur in="BackgroundImageFix" stdDeviation="6"/><feComposite in2="SourceAlpha" operator="in" result="effect1_backgroundBlur_10988_5598"/><feBlend in="SourceGraphic" in2="effect1_backgroundBlur_10988_5598" result="shape"/></filter></defs></svg>