<svg xmlns="http://www.w3.org/2000/svg" width="20" height="20" fill="none" viewBox="0 0 20 20"><path fill="url(#a)" d="m.107 17 12.247-7.797h6.353a.36.36 0 0 1 .263.111.38.38 0 0 1 .108.27.34.34 0 0 1-.173.319l-6.015 3.69c-.391.24-.528.72-.528 1.08L12.356 17H20V3.481a.5.5 0 0 0-.144-.347.47.47 0 0 0-.345-.134h-7.294L0 10.764V17z"/><defs><linearGradient id="a" x1="11.347" x2="20.442" y1="3" y2="3.3" gradientUnits="userSpaceOnUse"><stop stop-color="#FCFCFD"/><stop offset="1" stop-color="#E0E1E6"/></linearGradient></defs></svg>