<svg xmlns="http://www.w3.org/2000/svg" width="215" height="22" fill="none" viewBox="0 0 215 22"><path fill="url(#a)" d="M214.5.575h-6.35l-7.607 8.491V.575h-5.332l.027 20.903h5.305v-7.943l7.214 7.943h6.743l-9.722-10.32zM186.614 9.17l-4.861-.548c-2.85-.314-3.554-1.02-3.554-1.987 0-1.071 1.463-2.038 4.312-2.038 2.744 0 4.182 1.02 4.442 2.561h5.228C191.916 2.743 188.207 0 182.798 0c-6.429 0-9.67 2.56-9.67 7.08 0 3.684 2.143 5.41 6.586 5.88l4.94.522c1.882.21 2.745.941 2.745 1.882 0 1.071-1.255 2.038-4.287 2.038-3.503 0-4.913-.889-5.149-2.666h-5.123c.236 4.809 3.372 7.264 10.089 7.264 6.141 0 9.566-2.691 9.566-6.74 0-3.529-2.039-5.645-5.881-6.089m-32.957 12.307h16.831v-4.52h-11.5V13.17h9.252V8.623h-9.252V5.095h11.5V.575h-16.831zM141.112.575h-9.775v20.903h9.775c7.502 0 9.565-2.796 9.565-10.61 0-7.341-1.985-10.293-9.565-10.293m-.215 16.385h-4.239V5.094h4.239c3.346 0 4.339.915 4.339 5.774.005 4.442-1.118 6.09-4.339 6.09M116.859 0c-7.607 0-11.553 4.676-11.553 10.974 0 6.323 3.946 11.026 11.553 11.026 7.631 0 11.577-4.703 11.577-11.026C128.436 4.676 124.49 0 116.859 0m0 17.297c-3.947 0-6.116-2.403-6.116-6.324 0-3.84 2.169-6.27 6.116-6.27 3.974 0 6.116 2.43 6.116 6.27 0 3.92-2.144 6.324-6.116 6.324M85.652 5.095h6.742v16.383h5.332V5.095h6.718V.575H85.652zm-7.761 8.387c0 2.717-1.673 3.815-4.523 3.815-2.77 0-4.572-1.15-4.572-3.815V.575h-5.332v13.508c0 6.036 5.383 7.917 9.904 7.917 4.496 0 9.853-1.88 9.853-7.917V.575h-5.33zM47.86.575l-8.024 20.903h5.514l1.4-3.92h8.958l1.378 3.92h5.696L54.66.575zm.478 12.541 2.928-8.193 2.88 8.196zM.164 21.48 18.887 9.836H28.6a.567.567 0 0 1 .567.568.49.49 0 0 1-.265.477l-9.196 5.512c-.598.357-.807 1.075-.807 1.613l-.01 3.474h11.687V1.29a.716.716 0 0 0-.747-.718H18.678L0 12.167v9.313z"/><defs><linearGradient id="a" x1="121.698" x2="214.638" y1="0" y2="20.927" gradientUnits="userSpaceOnUse"><stop stop-color="#FCFCFD"/><stop offset="1" stop-color="#E0E1E6"/></linearGradient></defs></svg>