<svg xmlns="http://www.w3.org/2000/svg" width="118" height="36" viewBox="0 0 118 36" fill="none">
  <g clip-path="url(#clip0_13808_18108)">
    <path d="M73.1887 28.1243C66.3397 33.2271 56.4125 35.9496 47.8654 35.9496C35.881 35.9496 25.0919 31.4691 16.9295 24.0172C16.2882 23.4312 16.8628 22.6326 17.6324 23.0889C26.4411 28.2695 37.3328 31.3861 48.5837 31.3861C56.1714 31.3861 64.5184 29.7993 72.1934 26.5064C73.3529 26.0085 74.3225 27.2738 73.1887 28.1243Z" fill="#6E56CF"/>
    <path d="M76.036 24.8314C75.1639 23.7009 70.249 24.2973 68.043 24.5618C67.3709 24.6447 67.2683 24.0536 67.8737 23.6283C71.7881 20.8436 78.2113 21.6474 78.9603 22.5808C79.7093 23.5194 78.7654 30.0275 75.0869 33.1338C74.5226 33.6109 73.9839 33.3568 74.2353 32.7241C75.0613 30.6395 76.9133 25.9671 76.036 24.8314Z" fill="#6E56CF"/>
    <path d="M68.1967 3.96912V1.26215C68.1967 0.852481 68.5046 0.577637 68.8739 0.577637H80.8635C81.2483 0.577637 81.5561 0.857667 81.5561 1.26215V3.58019C81.551 3.96912 81.2278 4.47732 80.6532 5.28111L74.4403 14.2473C76.749 14.1902 79.1859 14.5377 81.2791 15.7304C81.7511 16.0001 81.8793 16.3942 81.9152 16.7831V19.6716C81.9152 20.0657 81.4843 20.5272 81.0328 20.2887C77.3441 18.3336 72.4446 18.121 68.366 20.3094C67.9505 20.5376 67.5144 20.0812 67.5144 19.6871V16.9439C67.5144 16.5031 67.5195 15.7511 67.9556 15.0822L75.1535 4.64845H68.8893C68.5046 4.64845 68.1967 4.37361 68.1967 3.96912Z" fill="#6E56CF"/>
    <path d="M24.4608 20.8591H20.8132C20.4643 20.8332 20.1873 20.5687 20.1616 20.2317V1.30886C20.1616 0.930304 20.4746 0.629528 20.8645 0.629528H24.2659C24.6199 0.645075 24.902 0.919929 24.9277 1.26219V3.73579H24.9944C25.8819 1.34516 27.5493 0.230225 29.7964 0.230225C32.0794 0.230225 33.5056 1.34516 34.5317 3.73579C35.4141 1.34516 37.42 0.230225 39.5697 0.230225C41.0985 0.230225 42.771 0.868071 43.7919 2.29934C44.9462 3.89136 44.7102 6.20421 44.7102 8.23184L44.7051 20.1746C44.7051 20.5532 44.3922 20.8591 44.0023 20.8591H40.3597C39.9955 20.8332 39.703 20.5376 39.703 20.1746V10.1454C39.703 9.34677 39.7749 7.35545 39.6004 6.59832C39.3285 5.32782 38.5128 4.97 37.456 4.97C36.5735 4.97 35.6501 5.56636 35.2756 6.52054C34.9011 7.47472 34.937 9.07193 34.937 10.1454V20.1746C34.937 20.5532 34.624 20.8591 34.2341 20.8591H30.5916C30.2222 20.8332 29.9349 20.5376 29.9349 20.1746L29.9298 10.1454C29.9298 8.03478 30.2735 4.92851 27.6827 4.92851C25.0611 4.92851 25.1637 7.95699 25.1637 10.1454V20.1746C25.1637 20.5532 24.8507 20.8591 24.4608 20.8591Z" fill="#6E56CF"/>
    <path d="M91.8785 0.230225C97.2909 0.230225 100.22 4.92851 100.22 10.9025C100.22 16.6742 96.9831 21.2533 91.8785 21.2533C86.5634 21.2533 83.6699 16.555 83.6699 10.7003C83.6699 4.80924 86.5993 0.230225 91.8785 0.230225ZM91.9092 4.09361C89.2209 4.09361 89.0516 7.79623 89.0516 10.1039C89.0516 12.4167 89.0157 17.3536 91.8785 17.3536C94.7053 17.3536 94.8387 13.3709 94.8387 10.944C94.8387 9.34677 94.772 7.43842 94.2948 5.92418C93.8844 4.607 93.0687 4.09361 91.9092 4.09361Z" fill="#6E56CF"/>
    <path d="M107.239 20.8591H103.606C103.242 20.8332 102.95 20.5376 102.95 20.1746L102.945 1.24663C102.975 0.899186 103.278 0.629528 103.647 0.629528H107.028C107.346 0.645075 107.608 0.862887 107.68 1.15847V4.05212H107.747C108.768 1.46443 110.199 0.230225 112.718 0.230225C114.354 0.230225 115.95 0.826586 116.976 2.4601C117.93 3.97434 117.93 6.52054 117.93 8.35111V20.2628C117.889 20.5947 117.587 20.8591 117.227 20.8591H113.569C113.236 20.8332 112.959 20.5843 112.923 20.2628V9.98462C112.923 7.91551 113.159 4.88703 110.64 4.88703C109.753 4.88703 108.937 5.48858 108.532 6.40127C108.018 7.55769 107.952 8.70893 107.952 9.98462V20.1746C107.947 20.5532 107.629 20.8591 107.239 20.8591Z" fill="#6E56CF"/>
    <path d="M58.6392 11.8204V11.0218C56.0022 11.0218 53.2164 11.5922 53.2164 14.7347C53.2164 16.3268 54.0321 17.4054 55.4327 17.4054C56.4588 17.4054 57.3771 16.7676 57.9568 15.7304C58.6751 14.4547 58.6392 13.2568 58.6392 11.8204ZM62.3176 20.8073C62.0765 21.0251 61.7276 21.0406 61.4557 20.8954C60.2449 19.879 60.0295 19.4071 59.3625 18.4374C57.3617 20.5013 55.9457 21.1184 53.3498 21.1184C50.2818 21.1184 47.8911 19.2049 47.8911 15.3726C47.8911 12.3804 49.4969 10.3424 51.7799 9.34676C53.7602 8.46517 56.5255 8.30961 58.6392 8.06588V7.58879C58.6392 6.71239 58.7058 5.67524 58.1979 4.91813C57.7516 4.23879 56.9 3.95876 56.1509 3.95876C54.7606 3.95876 53.5191 4.67958 53.2164 6.17308C53.1548 6.50497 52.9137 6.83167 52.5854 6.84722L49.0454 6.46348C48.7479 6.39607 48.4195 6.15233 48.5016 5.6908C49.3173 1.35552 53.1907 0.0487061 56.6588 0.0487061C58.4339 0.0487061 60.7528 0.525795 62.1534 1.88446C63.9285 3.55946 63.7592 5.79452 63.7592 8.22663V13.9724C63.7592 15.6993 64.4672 16.4564 65.1341 17.3899C65.3701 17.7217 65.4214 18.121 65.1239 18.37C64.38 18.9974 63.0564 20.1642 62.3279 20.8176L62.3176 20.8073Z" fill="#6E56CF"/>
    <path d="M10.8193 11.8204V11.0218C8.18233 11.0218 5.39657 11.5922 5.39657 14.7347C5.39657 16.3268 6.21229 17.4054 7.61287 17.4054C8.63894 17.4054 9.55726 16.7676 10.137 15.7304C10.8552 14.4547 10.8193 13.2568 10.8193 11.8204ZM14.4978 20.8073C14.2566 21.0251 13.9078 21.0406 13.6359 20.8954C12.4251 19.879 12.2096 19.4071 11.5427 18.4374C9.54187 20.5013 8.12591 21.1184 5.52996 21.1184C2.46202 21.1184 0.0712891 19.2049 0.0712891 15.3726C0.0712891 12.3804 1.67708 10.3424 3.96008 9.34676C5.94038 8.46517 8.70563 8.30961 10.8193 8.06588V7.58879C10.8193 6.71239 10.886 5.67524 10.3781 4.91813C9.93178 4.23879 9.08014 3.95876 8.33111 3.95876C6.9408 3.95876 5.69926 4.67958 5.39657 6.17308C5.335 6.50497 5.09388 6.83167 4.76554 6.84722L1.22561 6.46348C0.928053 6.39607 0.599712 6.15233 0.681797 5.6908C1.49752 1.35552 5.37092 0.0487061 8.83902 0.0487061C10.6141 0.0487061 12.933 0.525795 14.3336 1.88446C16.1087 3.55946 15.9394 5.79452 15.9394 8.22663V13.9724C15.9394 15.6993 16.6474 16.4564 17.3143 17.3899C17.5503 17.7217 17.6016 18.121 17.3041 18.37C16.5602 18.9974 15.2365 20.1642 14.508 20.8176L14.4978 20.8073Z" fill="#6E56CF"/>
  </g>
  <defs>
    <clipPath id="clip0_13808_18108">
      <rect width="118" height="36" fill="white"/>
    </clipPath>
  </defs>
</svg>