<svg xmlns="http://www.w3.org/2000/svg" width="141" height="48" viewBox="0 0 141 48" fill="none">
  <g clip-path="url(#clip0_13808_18074)">
    <path d="M32.5827 25.5055C32.5249 19.4316 37.5363 16.5134 37.7617 16.3745C34.941 12.2461 30.5597 11.6787 28.999 11.615C25.2709 11.2329 21.7218 13.8152 19.826 13.8152C17.9301 13.8152 15.0111 11.6671 11.9187 11.7308C7.84952 11.7887 4.09821 14.099 2.00002 17.7467C-2.21948 25.077 0.924913 35.9624 5.04615 41.9204C7.06342 44.8329 9.4564 48.1158 12.6124 47.9943C15.6527 47.8727 16.7972 46.0256 20.4618 46.0256C24.1264 46.0256 25.161 47.9943 28.369 47.9364C31.6348 47.8727 33.7041 44.9602 35.704 42.0362C38.0045 38.649 38.9582 35.3776 39.016 35.2039C38.9409 35.1749 32.6521 32.7605 32.5827 25.5055Z" fill="#6E56CF"/>
    <path d="M26.554 7.6661C28.2302 5.63377 29.3573 2.81399 29.051 0C26.6407 0.0984318 23.7217 1.60965 21.9934 3.64198C20.4444 5.43691 19.086 8.30881 19.456 11.0649C22.1322 11.2733 24.8835 9.69264 26.554 7.6661ZM53.7206 31.475L50.9461 39.8996H47.3798L56.4604 13.1262H60.6221L69.7374 39.8996H66.0496L63.1943 31.475H53.7206ZM62.4833 28.771L59.8707 21.0644C59.2753 19.3158 58.8823 17.7293 58.4834 16.1776H58.4083C58.0095 17.7641 57.576 19.3911 57.0615 21.0239L54.4489 28.7653L62.4833 28.771ZM72.4425 26.9472C72.4425 24.4864 72.3673 22.4946 72.2806 20.6707H75.4135L75.5753 23.971H75.6505C77.0781 21.6261 79.3382 20.2364 82.471 20.2364C87.1125 20.2364 90.5979 24.1679 90.5979 30.0101C90.5979 36.9235 86.3957 40.3339 81.8757 40.3339C79.3382 40.3339 77.1186 39.2222 75.9684 37.3172H75.8932V47.7626H72.4425V26.9472ZM75.8874 32.0714C75.8874 32.5925 75.9626 33.0615 76.0493 33.5016C76.6851 35.9218 78.7833 37.5952 81.2861 37.5952C84.9738 37.5952 87.1182 34.5785 87.1182 30.1665C87.1182 26.3103 85.0952 23.0215 81.4075 23.0215C79.0318 23.0215 76.8123 24.7296 76.1302 27.3525C76.0088 27.7867 75.8932 28.3078 75.8932 28.7826L75.8874 32.0714ZM94.2047 26.9472C94.2047 24.4864 94.1296 22.4946 94.0429 20.6707H97.1757L97.3375 23.971H97.4127C98.8404 21.6261 101.1 20.2364 104.233 20.2364C108.875 20.2364 112.36 24.1679 112.36 30.0101C112.36 36.9235 108.158 40.3339 103.638 40.3339C101.1 40.3339 98.8808 39.2222 97.7306 37.3172H97.6554V47.7626H94.2047V26.9472ZM97.6554 32.0714C97.6554 32.5925 97.7306 33.0615 97.8173 33.5016C98.4531 35.9218 100.551 37.5952 103.054 37.5952C106.742 37.5952 108.886 34.5785 108.886 30.1665C108.886 26.3103 106.863 23.0215 103.175 23.0215C100.8 23.0215 98.5803 24.7296 97.8982 27.3525C97.7768 27.7867 97.6612 28.3078 97.6612 28.7826L97.6554 32.0714ZM115.973 11.696H119.464V39.8938H115.973V11.696ZM126.481 30.9192C126.556 35.6439 129.573 37.5952 133.059 37.5952C135.556 37.5952 137.064 37.1609 138.371 36.6051L138.966 39.1064C137.741 39.6622 135.637 40.2992 132.585 40.2992C126.678 40.2992 123.146 36.4082 123.146 30.6065C123.146 24.8048 126.556 20.2364 132.146 20.2364C138.411 20.2364 140.076 25.7544 140.076 29.2922C140.076 30.0101 140.001 30.5602 139.954 30.9192H126.481ZM136.712 28.4179C136.752 26.1944 135.799 22.7378 131.874 22.7378C128.342 22.7378 126.799 25.9976 126.521 28.4179H136.712Z" fill="#6E56CF"/>
  </g>
  <defs>
    <clipPath id="clip0_13808_18074">
      <rect width="140.082" height="48" fill="white"/>
    </clipPath>
  </defs>
</svg>