<svg xmlns="http://www.w3.org/2000/svg" width="160" height="36" viewBox="0 0 160 36" fill="none">
  <g clip-path="url(#clip0_13853_14793)">
    <path fill-rule="evenodd" clip-rule="evenodd" d="M68.4341 17.3988C69.401 17.0231 70.2304 16.3597 70.8116 15.4974C71.3927 14.6352 71.6977 13.6152 71.6859 12.5741C71.6859 8.2318 68.6189 6.07922 64.4064 6.07922H53.3579V29.6908H65.3671C69.0623 29.6908 72.6835 27.0928 72.6835 23.1217C72.6835 18.4009 68.4341 17.4433 68.4341 17.3988ZM59.1223 10.9782H63.4087C63.6832 10.9611 63.9583 10.9986 64.2184 11.0884C64.4784 11.1782 64.7183 11.3187 64.9242 11.5017C65.1301 11.6848 65.2981 11.9068 65.4185 12.1551C65.5389 12.4035 65.6093 12.6732 65.6258 12.9489C65.6258 13.033 65.6258 13.1184 65.6258 13.205C65.6142 13.7855 65.3746 14.3378 64.9593 14.7417C64.5441 15.1455 63.9867 15.3683 63.4087 15.3613H59.0854L59.1223 10.9782ZM63.4457 24.7473H59.1593V20.1081H63.3348C65.4411 20.1081 66.4387 21.0359 66.4387 22.4091C66.4387 24.1238 65.1824 24.7473 63.4457 24.7473Z" fill="#6E56CF"/>
    <path fill-rule="evenodd" clip-rule="evenodd" d="M85.3948 5.48535C78.5957 5.48535 74.605 10.941 74.605 17.8441C74.605 24.7472 78.5957 30.2029 85.3948 30.2029C92.1939 30.2029 96.1847 24.7843 96.1847 17.8441C96.1847 10.9039 92.2309 5.48535 85.3948 5.48535ZM85.3948 24.5616C82.0692 24.5616 80.4064 21.5555 80.4064 17.8441C80.4064 14.1328 82.0692 11.1637 85.3948 11.1637C88.7205 11.1637 90.4202 14.1699 90.4202 17.8441C90.4202 21.5926 88.7205 24.5616 85.3948 24.5616Z" fill="#6E56CF"/>
    <path fill-rule="evenodd" clip-rule="evenodd" d="M108.711 15.3575L107.898 15.172C105.903 14.7637 104.314 14.2441 104.314 12.7967C104.314 11.2379 105.829 10.607 107.159 10.607C108.067 10.6206 108.962 10.822 109.788 11.1988C110.615 11.5756 111.355 12.1195 111.963 12.7967L115.621 9.15958C113.958 7.2668 111.261 5.44824 107.048 5.44824C102.097 5.44824 98.3278 8.23175 98.3278 12.8709C98.3278 17.1019 101.358 19.1802 105.053 19.9596L105.866 20.1451C108.933 20.7761 110.078 21.2586 110.078 22.7431C110.078 24.1534 108.822 25.0812 106.901 25.0812C104.61 25.0812 102.54 24.0792 100.951 22.0379L97.2192 25.7493C99.2885 28.2359 101.912 30.1658 106.974 30.1658C111.372 30.1658 116.065 27.6421 116.065 22.4833C116.138 17.1019 112.074 16.0627 108.711 15.3575Z" fill="#6E56CF"/>
    <path fill-rule="evenodd" clip-rule="evenodd" d="M129.219 24.5616C126.633 24.5616 123.935 22.4091 123.935 17.6957C123.935 13.5018 126.448 11.1637 129.072 11.1637C131.141 11.1637 132.36 12.1286 133.321 13.7987L138.051 10.6441C135.686 7.04411 132.878 5.52246 128.998 5.52246C121.903 5.52246 118.06 11.0524 118.06 17.7328C118.06 24.7472 122.309 30.24 128.924 30.24C133.58 30.24 135.797 28.607 138.199 25.1183L133.432 21.8969C132.471 23.4482 131.437 24.5616 129.219 24.5616Z" fill="#6E56CF"/>
    <path fill-rule="evenodd" clip-rule="evenodd" d="M153.829 6.07922V14.7638H146.698V6.07922H140.527V29.6833H146.698V20.3679H153.829V29.6833H160V6.07922H153.829Z" fill="#6E56CF"/>
    <path d="M17.8106 0.0667725C14.288 0.0667725 10.8445 1.11592 7.91558 3.08155C4.98664 5.04719 2.7038 7.84101 1.35576 11.1097C0.00771705 14.3785 -0.344993 17.9753 0.342234 21.4453C1.02946 24.9154 2.72576 28.1028 5.21662 30.6046C7.70748 33.1064 10.881 34.8101 14.336 35.5004C17.7909 36.1906 21.372 35.8363 24.6265 34.4824C27.8809 33.1284 30.6626 30.8356 32.6196 27.8938C34.5767 24.9521 35.6213 21.4935 35.6213 17.9554C35.6213 13.2111 33.7448 8.66101 30.4046 5.30624C27.0645 1.95147 22.5343 0.0667725 17.8106 0.0667725ZM17.8106 34.174C14.6169 34.174 11.4949 33.2228 8.83939 31.4407C6.1839 29.6586 4.11419 27.1256 2.892 24.162C1.66981 21.1985 1.35003 17.9374 1.9731 14.7913C2.59617 11.6453 4.1341 8.75539 6.39241 6.48718C8.65072 4.21897 11.528 2.67431 14.6604 2.04851C17.7927 1.42271 21.0395 1.7439 23.9901 2.97144C26.9408 4.19898 29.4627 6.27776 31.237 8.94489C33.0114 11.612 33.9584 14.7477 33.9584 17.9554C33.9575 22.2566 32.2559 26.3812 29.2278 29.4226C26.1997 32.464 22.093 34.173 17.8106 34.174Z" fill="#6E56CF"/>
    <path d="M25.164 6.7843H23.9446V12.908H11.7137V6.7843H10.4573C8.61719 8.00359 7.10699 9.66239 6.06209 11.612C5.01718 13.5617 4.47021 15.7413 4.47021 17.9554C4.47021 20.1696 5.01718 22.3492 6.06209 24.2988C7.10699 26.2485 8.61719 27.9073 10.4573 29.1266H11.7137V23.0103H23.9446V29.134H25.164C27.005 27.9153 28.516 26.2567 29.5614 24.307C30.6069 22.3572 31.1542 20.1774 31.1542 17.9629C31.1542 15.7484 30.6069 13.5685 29.5614 11.6187C28.516 9.66902 27.005 8.01042 25.164 6.79172V6.7843ZM10.0139 26.7216C8.86792 25.6989 7.93372 24.4595 7.26466 23.0741C6.5956 21.6887 6.20479 20.1846 6.11455 18.6475C6.02431 17.1104 6.2364 15.5706 6.73871 14.1158C7.24102 12.6611 8.02372 11.32 9.0421 10.169C9.34734 9.82659 9.67181 9.50194 10.0139 9.19667V26.7216ZM23.9446 21.3031H11.7137V14.5781H23.9446V21.3031ZM25.6075 26.6845V22.9732V12.908V9.19667C26.7507 10.2277 27.6804 11.4749 28.3435 12.8669C29.0066 14.259 29.3901 15.7686 29.4722 17.3096C29.5542 18.8506 29.3331 20.3927 28.8215 21.8478C28.3099 23.3029 27.5178 24.6425 26.4906 25.7901C26.2112 26.1004 25.9164 26.3964 25.6075 26.6771V26.6845Z" fill="#6E56CF"/>
  </g>
  <defs>
    <clipPath id="clip0_13853_14793">
      <rect width="160" height="36" fill="white"/>
    </clipPath>
  </defs>
</svg>