<svg width="1024" height="411" viewBox="0 0 1024 411" fill="none" xmlns="http://www.w3.org/2000/svg">
<path d="M573.113 11.728V245.705C573.113 291.643 584.449 312.609 633.86 312.609C645.562 312.609 661.642 309.598 673.782 306.997L665.973 260.108C657.757 261.841 650.574 261.632 645.375 261.76C623.767 262.291 625.633 255.19 625.633 234.816V146.742H666.763V107.713H625.633V11.728H573.113ZM745.203 11.728L692.683 11.7356L692.69 51.5007V312.61H771.121V272.715H745.203L745.203 11.728ZM101.705 11.7293C47.5322 11.7293 38.2865 30.1642 38.2865 72.6436V107.714L11.625 112.098V146.742H38.2865V272.715H11.6263V312.616L117.193 312.604V272.716H90.8082V146.742H130.436V107.713H90.8082V77.3636C90.8082 58.716 95.6337 56.8119 114.719 56.8119C119.917 56.8119 123.997 57.0436 132.22 58.3463L139.416 15.6444C127.274 13.457 113.405 11.7293 101.705 11.7293ZM211.914 67.0142V80.3531H218.32V98.4901H218.685C168.453 107.738 130.385 151.724 130.385 204.63C130.385 264.255 178.72 312.59 238.345 312.59C258.694 312.59 277.724 306.953 293.971 297.165L303.432 312.611H358.908V260.108H346.355L346.32 96.6714H293.801V111.999C282.983 105.509 270.934 100.869 258.092 98.4901H258.388V80.3531H264.796V67.0142H211.914ZM464.071 96.3306C414.765 96.3306 385.157 113.697 385.157 157.964C385.157 204.732 421.696 220.45 467.737 228.317C492.175 233.273 499.652 238.24 499.652 248.582C499.652 256.034 495.434 270.051 469.363 270.051C459.995 270.051 442.05 270.382 424.935 267.076L424.958 260.108H385.186V299.329C409.613 305.528 441.626 312.611 474.619 312.611C523.925 312.611 547.349 289.096 547.349 243.582C547.349 195.589 508.478 186.523 469.774 177.834C443.294 172.045 439.902 166.67 439.902 156.73C439.902 149.705 442.883 136.743 467.325 136.743C475.884 136.743 491.663 136.784 507.552 139.683V146.67H547.313V107.713C522.873 101.511 497.475 96.3306 464.071 96.3306ZM904.049 107.713V146.706H929.884L891.747 240.527L853.612 146.706H879.501V107.714H771.121V146.706H797.014L864.329 312.345C856.537 336.173 831.622 349.859 809.534 349.859C804.767 349.859 795.68 349.005 788.743 347.707L783.992 395.376C794.803 397.973 810.393 399.272 822.104 399.272C869.733 399.272 901.006 356.059 920.046 310.147L986.481 146.704H1012.37V107.713L904.049 107.713ZM241.49 149.032C269.137 150.51 291.408 172.196 293.815 199.587V201.392H287.51V207.684H293.816V209.407C291.422 236.811 269.146 258.51 241.49 259.988V253.814H235.198V259.972C207.01 258.329 184.463 235.681 182.992 207.447H189.246V201.155H183.025C184.696 173.117 207.151 150.686 235.198 149.051V155.239H241.49V149.032ZM261.914 177.148L241.615 194.835C240.59 194.468 239.495 194.258 238.35 194.258C232.873 194.258 228.438 198.823 228.438 204.448C228.438 210.079 232.873 214.643 238.35 214.643C243.825 214.643 248.269 210.079 248.269 204.448C248.269 203.38 248.107 202.351 247.81 201.383L265.909 181.146L261.914 177.148Z" fill="#6E56CF"/>
</svg>
