<svg xmlns="http://www.w3.org/2000/svg" width="112" height="42" viewBox="0 0 112 42" fill="none">
  <path d="M108.673 39.6633C108.848 39.6633 108.949 39.584 108.949 39.4155V39.2473C108.949 39.0837 108.848 39.0043 108.673 39.0043H108.257V39.6587L108.673 39.6633ZM108.257 40.8876H107.699V38.5604H108.737C109.254 38.5604 109.517 38.8689 109.517 39.2941C109.517 39.6633 109.351 39.8971 109.102 39.9951L109.614 40.883H109L108.576 40.0886H108.253L108.257 40.8876ZM110.26 39.8502V39.5604C110.26 38.6257 109.536 37.892 108.585 37.892C108.366 37.8871 108.148 37.9266 107.944 38.0083C107.741 38.09 107.555 38.2122 107.399 38.3678C107.243 38.5234 107.119 38.7091 107.035 38.9138C106.951 39.1188 106.908 39.3387 106.909 39.5604V39.8502C106.909 40.7849 107.629 41.5233 108.585 41.5233C108.804 41.5283 109.022 41.4886 109.227 41.4065C109.43 41.3246 109.616 41.202 109.772 41.046C109.929 40.8899 110.052 40.7037 110.136 40.4983C110.22 40.2929 110.262 40.0724 110.26 39.8502ZM106.392 39.7099C106.392 38.4014 107.371 37.4107 108.585 37.4107C109.803 37.4107 110.777 38.4061 110.777 39.7053C110.786 40.0027 110.736 40.299 110.629 40.5764C110.523 40.8538 110.363 41.1069 110.159 41.3209C109.955 41.5346 109.71 41.7049 109.44 41.8215C109.169 41.9383 108.879 41.9989 108.585 42C108.291 41.9989 108.001 41.9383 107.731 41.8219C107.461 41.7056 107.217 41.5357 107.012 41.3223C106.808 41.109 106.648 40.8565 106.542 40.5796C106.435 40.3028 106.384 40.0071 106.392 39.7099ZM74.8208 2.91621L73.8238 0H57.3919V2.91621H74.8208ZM76.7271 8.47757L75.73 5.56603H57.3919V8.48226L76.7271 8.47757ZM88.9587 41.8784H103.3V38.9623H88.9541L88.9587 41.8784ZM88.9587 36.3077H103.3V33.3963H88.9541L88.9587 36.3077ZM88.9587 30.7463H97.5626V27.8302H88.9541L88.9587 30.7463ZM88.9587 25.1805H97.5626V22.2642H88.9541L88.9587 25.1805ZM88.9587 19.6143H97.5626V16.6981H81.1535L80.3459 19.0535L79.538 16.6981H63.1292V19.6143H71.7374V16.9318L72.6606 19.6143H88.031L88.9541 16.9318L88.9587 19.6143ZM97.5626 11.1321H83.0598L82.0583 14.0483H97.5626V11.1321ZM63.1292 25.1805H71.7374V22.2642H63.1292V25.1805ZM63.1292 30.7417H71.7374V27.8302H63.1292V30.7417ZM57.3919 36.3077H71.7374V33.3963H57.3919V36.3077ZM57.3919 41.8784H71.7374V38.9623H57.3919V41.8784ZM86.8678 0L85.8708 2.91621H103.3V0H86.8678ZM83.9645 8.48226H103.304V5.56603H84.9615L83.9645 8.48226ZM63.1292 14.0436H78.6333L77.6363 11.1321H63.1292V14.0436ZM74.5854 25.1805H86.1062L87.1126 22.2642H73.5792L74.5854 25.1805ZM76.5101 30.7417H84.1815L85.1878 27.8302H75.504L76.5101 30.7417ZM78.4303 36.3077H82.2613L83.2676 33.3963H77.4241L78.4303 36.3077ZM80.3413 41.8784L81.3429 38.9623H79.3489L80.3413 41.8784ZM22.954 41.8505L44.0847 41.8784C46.9558 41.8784 49.5314 40.7709 51.4791 38.9623H22.954V41.8505ZM45.3863 27.8302V30.7463H55.0424C55.0424 29.737 54.9041 28.7601 54.6593 27.8302H45.3863ZM28.6959 30.7463H37.3043V27.8302H28.6959V30.7463ZM45.3909 14.0483H54.6593C54.9041 13.1183 55.0424 12.1415 55.0424 11.1321H45.3909V14.0483ZM28.6959 14.0483H37.3043V11.1321H28.6959V14.0483ZM44.0801 0.00467309H22.954V2.92089H51.4791C49.4642 1.04204 46.8193 0.00082068 44.0801 0.00467309ZM53.57 5.57071H22.954V8.48692H54.7286C54.482 7.46451 54.0935 6.48266 53.5746 5.57071H53.57ZM28.6913 16.7028V19.619H51.1699C52.1254 18.7965 52.9331 17.8104 53.5655 16.7028H28.6913ZM51.1699 22.2688H28.6913V25.1851H53.5655C52.937 24.0817 52.1269 23.0956 51.1699 22.2688ZM22.9494 36.3172H53.57C54.0777 35.4152 54.4747 34.4383 54.724 33.4009H22.954L22.9494 36.3172ZM0 2.91621H20.0876V0H0V2.91621ZM0 8.48226H20.0876V5.56603H0V8.48226ZM5.73735 14.0483H14.3457V11.1321H5.73735V14.0483ZM5.73735 19.6143H14.3457V16.6981H5.73735V19.6143ZM5.73735 25.1756H14.3457V22.2642H5.73735V25.1756ZM5.73735 30.7463H14.3457V27.8302H5.73735V30.7463ZM0 36.3124H20.0876V33.4009H0V36.3124ZM0 41.8832H20.0876V38.967H0V41.8832Z" fill="#6E56CF"/>
</svg>