<svg xmlns="http://www.w3.org/2000/svg" width="207" height="38" viewBox="0 0 207 38" fill="none">
  <g opacity="0.9" clip-path="url(#clip0_13808_18082)">
    <path d="M87.9603 6.97131C85.2979 6.97131 82.5321 7.70295 79.109 9.55123L81.0107 14.2923C83.9835 12.6189 86.4389 11.8873 88.2372 11.8873C90.2773 11.8873 91.1764 12.6542 91.1764 13.665V13.734C91.1764 14.4319 90.6227 14.8154 89.2747 14.9549L86.9242 15.1988C81.0457 15.8262 78.6252 18.4061 78.6252 21.9615V22.2054C78.6252 25.5875 81.3911 28.2364 85.2979 28.2364C87.8705 28.2364 90.1054 27.1413 91.464 25.2086L91.9021 27.8883H97.2269V15.7219C97.2269 9.96997 93.9423 6.97131 87.9603 6.97131ZM87.4415 23.5981C85.4713 23.5981 84.5372 22.8312 84.5372 21.6455V21.5765C84.5372 20.5304 85.1245 19.7635 87.2681 19.4506L88.2022 19.311C89.5668 19.1193 90.4051 18.8662 91.1764 18.3953V19.9384C91.1764 22.2744 89.7235 23.5981 87.4415 23.5981Z" fill="#6E56CF"/>
    <path d="M20.8075 24.3267L37.8924 7.11089L31.0767 0.243896L24.261 7.11089L27.6537 10.5283L10.5764 27.7471L17.3845 34.6187L24.2002 27.7471L20.8075 24.3267Z" fill="#6E56CF"/>
    <path d="M17.4577 0.241892L0.374756 17.465L7.18642 24.3325L24.2694 7.10943L17.4577 0.241892Z" fill="#6E56CF"/>
    <path d="M41.2795 10.5355L24.1965 27.7585L31.0082 34.6261L48.0911 17.403L41.2795 10.5355Z" fill="#6E56CF"/>
    <path d="M106.729 0H100.679V27.8852H106.729V0Z" fill="#6E56CF"/>
    <path d="M68.4563 6.97135C65.7057 6.97135 63.4967 8.19842 62.2811 10.1203L61.8186 7.31953H56.4939V34.8519H62.5443V25.3068C63.696 27.0968 65.8746 28.2288 68.4563 28.2288C73.2973 28.2288 77.2391 23.9064 77.2391 17.9444V17.2465C77.2391 11.2891 73.2973 6.96521 68.4563 6.96521M71.0153 17.7726C71.0153 20.9093 69.3904 23.1763 66.6931 23.1763C63.9957 23.1763 62.3709 20.9109 62.3709 17.7726V17.4244C62.3709 14.2862 63.9957 12.0207 66.6931 12.0207C69.3904 12.0207 71.0153 14.2862 71.0153 17.4244V17.7726Z" fill="#6E56CF"/>
    <path d="M188.415 6.97131C182.227 6.97131 177.869 11.2937 177.869 17.2557V17.9536C177.869 23.9141 182.227 28.238 188.415 28.238C194.604 28.238 198.961 23.9156 198.961 17.9536V17.2557C198.961 11.2952 194.604 6.97131 188.415 6.97131ZM192.738 17.7787C192.738 20.9154 191.113 23.1824 188.415 23.1824C185.718 23.1824 184.093 20.917 184.093 17.7787V17.4306C184.093 14.2923 185.718 12.0268 188.415 12.0268C191.113 12.0268 192.738 14.2923 192.738 17.4306V17.7787Z" fill="#6E56CF"/>
    <path d="M204.542 8.22753V8.12323C204.542 7.53116 204.093 7.11243 203.297 7.11243H201.915V10.3197H202.572V9.23833H203.302L203.851 10.3197H204.577L203.901 9.0512C204.312 8.92389 204.542 8.61405 204.542 8.22753ZM202.57 7.70449H203.296C203.711 7.70449 203.883 7.84407 203.883 8.1585V8.19378C203.883 8.47294 203.71 8.64626 203.296 8.64626H202.57V7.70449Z" fill="#6E56CF"/>
    <path d="M203.173 5.40369C201.306 5.40369 199.888 6.83322 199.888 8.71524C199.888 10.5973 201.306 12.0268 203.173 12.0268C205.039 12.0268 206.457 10.5973 206.457 8.71524C206.457 6.83322 205.039 5.40369 203.173 5.40369ZM203.173 11.5728C201.548 11.5728 200.372 10.3871 200.372 8.71371C200.372 7.04029 201.548 5.85463 203.173 5.85463C204.797 5.85463 205.973 7.04029 205.973 8.71371C205.973 10.3871 204.797 11.5728 203.173 11.5728Z" fill="#6E56CF"/>
    <path d="M160.083 0H154.033V27.8852H160.083V0Z" fill="#6E56CF"/>
    <path d="M171.985 23.1763C170.222 23.1763 169.564 22.3051 169.564 20.4231V12.0207H176.687V7.31489H169.564V2.60754L163.514 3.51404V21.0151C163.514 25.7915 165.934 28.2318 170.775 28.2318C172.919 28.2318 175.443 27.5692 177.518 26.3836L175.79 22.0612C174.577 22.7238 172.884 23.1778 171.985 23.1778" fill="#6E56CF"/>
    <path d="M141.238 6.97131C138.576 6.97131 135.81 7.70295 132.387 9.55123L134.289 14.2923C137.261 12.6189 139.717 11.8873 141.515 11.8873C143.555 11.8873 144.454 12.6542 144.454 13.665V13.734C144.454 14.4319 143.9 14.8154 142.553 14.9549L140.202 15.1988C134.324 15.8262 131.903 18.4061 131.903 21.9615V22.2054C131.903 25.5875 134.669 28.2364 138.576 28.2364C141.147 28.2364 143.383 27.1413 144.742 25.2086L145.18 27.8883H150.505V15.7219C150.505 9.96997 147.22 6.97131 141.238 6.97131ZM140.719 23.5981C138.748 23.5981 137.815 22.8312 137.815 21.6455V21.5765C137.815 20.5304 138.402 19.7635 140.546 19.4506L141.48 19.311C142.845 19.1193 143.683 18.8662 144.453 18.3953V19.9384C144.453 22.2744 143.001 23.5981 140.719 23.5981Z" fill="#6E56CF"/>
    <path d="M119.97 6.97131C113.781 6.97131 109.424 11.2937 109.424 17.2557V17.9536C109.424 23.9141 113.781 28.238 119.97 28.238C126.159 28.238 130.516 23.9156 130.516 17.9536V17.2557C130.514 11.2952 126.159 6.97131 119.97 6.97131ZM124.29 17.7787C124.29 20.9154 122.665 23.1824 119.968 23.1824C117.271 23.1824 115.646 20.917 115.646 17.7787V17.4306C115.646 14.2923 117.271 12.0268 119.968 12.0268C122.665 12.0268 124.29 14.2923 124.29 17.4306V17.7787Z" fill="#6E56CF"/>
    <path d="M148.373 37.8551L146.183 34.9408H146.167V37.8551H144.737V32.8395H146.289L148.434 35.6771H148.449V32.8395H149.879V37.8551H148.373Z" fill="#6E56CF"/>
    <path d="M153.272 35.8458V36.6281H156.315L156.163 37.8551H151.766V32.8395H156.163V34.0512H153.272V34.7414H155.554V35.8458H153.272Z" fill="#6E56CF"/>
    <path d="M159.358 37.8551V34.1279H157.532V32.8395H162.4L162.552 34.1279H160.727V37.8551H159.358Z" fill="#6E56CF"/>
    <path d="M169.855 36.3213L170.616 32.8395H172.137L170.768 37.8551H168.942L168.029 34.8181H167.877L166.964 37.8551H164.987L163.77 32.8395H165.291L166.204 36.3213L167.269 32.8395H168.79L169.703 36.3213H169.855Z" fill="#6E56CF"/>
    <path d="M173.202 35.3396C173.202 33.7045 174.303 32.6799 176.045 32.6799C177.787 32.6799 178.89 33.7045 178.89 35.3396C178.89 36.9747 177.789 37.9993 176.045 37.9993C174.303 37.9993 173.202 36.9731 173.202 35.3396ZM177.404 35.3396C177.404 34.473 176.906 33.9561 176.045 33.9561C175.184 33.9561 174.687 34.473 174.687 35.3396C174.687 36.2078 175.184 36.7231 176.038 36.7231C176.899 36.7231 177.404 36.2062 177.404 35.3396Z" fill="#6E56CF"/>
    <path d="M180.504 32.8395H183.406C184.728 32.8395 185.376 33.4699 185.376 34.6387C185.376 35.4409 185.049 35.9869 184.408 36.2446L185.589 37.8582H183.897L182.98 36.5391H181.998V37.8582H180.504V32.8395ZM183.212 35.3626C183.71 35.3626 183.888 35.0835 183.888 34.7031C183.888 34.3227 183.71 34.0512 183.212 34.0512H181.997V35.3626H183.212Z" fill="#6E56CF"/>
    <path d="M190.698 35.2476L192.675 37.8398V37.8551H191.002L189.48 35.9225H188.872V37.8551H187.351V32.8395H188.872V34.6801H189.48L190.85 32.8395H192.675L190.698 35.2476Z" fill="#6E56CF"/>
    <path d="M193.892 37.5177V36.1419H193.9C194.732 36.5652 195.543 36.7723 196.246 36.7723C196.78 36.7723 197.049 36.6434 197.049 36.3919C197.049 36.1403 196.871 36.0759 195.805 35.9041C194.639 35.7185 193.864 35.3657 193.864 34.3549C193.864 33.4162 194.682 32.6923 196.281 32.6923C196.921 32.6923 197.589 32.8288 198.209 33.0941V34.4562L198.201 34.4638C197.611 34.1203 196.815 33.904 196.174 33.904C195.605 33.904 195.379 34.0405 195.379 34.269C195.379 34.5635 195.727 34.5912 196.602 34.743C197.767 34.9439 198.543 35.2737 198.543 36.3351C198.543 37.1588 197.932 37.984 196.176 37.984C195.309 37.984 194.618 37.8045 193.892 37.5177Z" fill="#6E56CF"/>
  </g>
  <defs>
    <clipPath id="clip0_13808_18082">
      <rect width="207" height="38" fill="white"/>
    </clipPath>
  </defs>
</svg>