<svg xmlns="http://www.w3.org/2000/svg" width="132" height="40" viewBox="0 0 132 40" fill="none">
  <g opacity="0.9" clip-path="url(#clip0_13808_18105)">
    <path d="M19.008 15.0667C19.008 17.3333 17.16 19.2 14.916 19.2C12.672 19.2 10.824 17.3333 10.824 15.0667C10.824 12.8 12.672 10.9333 14.916 10.9333C17.16 10.9333 19.008 12.8 19.008 15.0667ZM14.916 20.8C12.672 20.8 10.824 22.6667 10.824 24.9333C10.824 27.2 12.672 29.0667 14.916 29.0667C17.16 29.0667 19.008 27.2 19.008 24.9333C19.008 22.6667 17.16 20.8 14.916 20.8ZM39.6 20C39.6 31.0667 30.756 40 19.8 40C8.844 40 0 31.0667 0 20C0 8.93333 8.844 0 19.8 0C30.756 0 39.6 8.93333 39.6 20ZM34.32 20C34.32 11.8667 27.852 5.33333 19.8 5.33333C11.748 5.33333 5.28 11.8667 5.28 20C5.28 28.1333 11.748 34.6667 19.8 34.6667C27.852 34.6667 34.32 28.1333 34.32 20ZM24.684 20.8C22.44 20.8 20.592 22.6667 20.592 24.9333C20.592 27.2 22.44 29.0667 24.684 29.0667C26.928 29.0667 28.776 27.2 28.776 24.9333C28.776 22.6667 26.928 20.8 24.684 20.8ZM24.684 10.9333C22.44 10.9333 20.592 12.8 20.592 15.0667C20.592 17.3333 22.44 19.2 24.684 19.2C26.928 19.2 28.776 17.3333 28.776 15.0667C28.776 12.8 26.928 10.9333 24.684 10.9333ZM92.796 7.86667C92.928 7.86667 93.06 8 93.192 8.13333V12.4C93.192 12.6667 92.928 12.8 92.796 12.8H85.8C85.536 12.8 85.404 12.5333 85.404 12.4V8.26667C85.404 8 85.668 7.86667 85.8 7.86667H92.796ZM92.664 13.8667H79.2C79.068 13.8667 78.804 14 78.804 14.2667L77.088 20.9333L76.956 21.3333L74.844 14.2667C74.844 14.1333 74.58 13.8667 74.448 13.8667H69.168C69.036 13.8667 68.772 14 68.772 14.2667L66.792 20.9333L66.66 21.3333L66.528 20.9333L65.736 17.6L64.944 14.2667C64.944 14.1333 64.68 13.8667 64.548 13.8667H53.988V8.13333C53.988 8 53.724 7.73333 53.46 7.86667L46.86 10C46.596 10 46.464 10.1333 46.464 10.4V14H44.748C44.616 14 44.352 14.1333 44.352 14.4V19.4667C44.352 19.6 44.484 19.8667 44.748 19.8667H46.464V26.1333C46.464 30.5333 48.84 32.5333 53.196 32.5333C55.044 32.5333 56.76 32.1333 57.948 31.4667V26.1333C57.948 25.8667 57.684 25.7333 57.552 25.8667C56.892 26.1333 56.232 26.2667 55.704 26.2667C54.516 26.2667 53.856 25.7333 53.856 24.4V19.8667H57.684C57.816 19.8667 58.08 19.7333 58.08 19.4667V15.2L63.096 32C63.096 32.1333 63.36 32.4 63.492 32.4H69.036C69.168 32.4 69.432 32.2667 69.432 32L71.808 24.5333L72.996 28.4L74.052 32C74.052 32.1333 74.316 32.4 74.448 32.4H79.992C80.124 32.4 80.388 32.2667 80.388 32L85.404 15.2V32C85.404 32.1333 85.536 32.4 85.8 32.4H92.532C92.664 32.4 92.928 32.2667 92.928 32V14.2667C92.928 14.1333 92.796 13.8667 92.664 13.8667ZM101.508 7.86667H94.776C94.644 7.86667 94.38 8 94.38 8.26667V31.8667C94.38 32 94.512 32.2667 94.776 32.2667H101.508C101.64 32.2667 101.904 32.1333 101.904 31.8667V8.13333C101.904 8 101.772 7.86667 101.508 7.86667ZM110.484 7.86667H103.488C103.356 7.86667 103.092 8 103.092 8.26667V12.4C103.092 12.5333 103.224 12.8 103.488 12.8H110.484C110.616 12.8 110.88 12.6667 110.88 12.4V8.13333C110.88 8 110.748 7.86667 110.484 7.86667ZM110.352 13.8667H103.62C103.488 13.8667 103.224 14 103.224 14.2667V31.7333C103.224 31.8667 103.356 32.1333 103.62 32.1333H110.352C110.484 32.1333 110.748 32 110.748 31.7333V14.2667C110.748 14.1333 110.616 13.8667 110.352 13.8667ZM131.604 22.9333C131.604 28 127.38 32.4 121.44 32.4C115.632 32.4 111.408 28 111.408 22.9333C111.408 17.8667 115.632 13.4667 121.572 13.4667C127.38 13.4667 131.604 17.8667 131.604 22.9333ZM124.476 23.0667C124.476 21.2 123.156 19.7333 121.572 19.8667C119.856 19.8667 118.668 21.3333 118.668 23.0667C118.668 24.8 119.988 26.2667 121.572 26.2667C123.288 26.2667 124.476 24.8 124.476 23.0667Z" fill="#6E56CF"/>
  </g>
  <defs>
    <clipPath id="clip0_13808_18105">
      <rect width="132" height="40" fill="white"/>
    </clipPath>
  </defs>
</svg>