<svg width="131" height="32" viewBox="0 0 131 32" fill="none" xmlns="http://www.w3.org/2000/svg">
<g clip-path="url(#clip0_18007_6895)">
<path d="M112.701 0C105.901 0 100.301 5.5 100.301 12.4C100.301 19.2 105.801 24.8 112.701 24.8C119.501 24.8 125.101 19.3 125.101 12.4C125.101 5.5 119.501 0 112.701 0ZM122.301 5.5C121.701 5.9 121.001 6.3 120.301 6.7C119.901 5.9 119.401 5.1 118.801 4.4C119.301 4.1 119.801 3.7 120.201 3.4C121.101 3.9 121.801 4.7 122.301 5.5ZM117.101 1.4C118.101 1.8 119.001 2.3 119.901 3C119.501 3.4 119.001 3.7 118.501 4C117.901 3.3 117.201 2.7 116.501 2.1C116.701 1.8 116.901 1.6 117.101 1.4ZM118.101 4.2C117.401 4.6 116.701 4.8 116.001 5.1C115.701 4.4 115.401 3.7 115.001 3.1C115.401 2.9 115.801 2.7 116.101 2.4C116.801 2.9 117.501 3.5 118.101 4.2ZM116.601 1.2C116.401 1.4 116.201 1.6 116.101 1.8C115.401 1.4 114.801 1 114.001 0.7C114.901 0.7 115.801 0.9 116.601 1.2ZM115.701 2.1C115.401 2.3 115.101 2.5 114.801 2.6C114.401 2 114.001 1.5 113.601 0.9C114.301 1.2 115.001 1.6 115.701 2.1ZM112.901 1C113.401 1.5 113.801 2.1 114.201 2.8C113.801 2.9 113.401 3 112.901 3V1ZM112.901 3.5C113.401 3.5 114.001 3.4 114.501 3.2C114.901 3.8 115.201 4.5 115.501 5.2C114.701 5.4 113.801 5.5 112.901 5.6V3.5ZM112.401 1V3C112.001 3 111.601 2.9 111.101 2.8C111.601 2.2 112.001 1.6 112.401 1ZM110.701 2.6C110.401 2.5 110.001 2.3 109.801 2.1C110.501 1.7 111.201 1.3 111.901 1C111.401 1.5 111.001 2 110.701 2.6ZM111.401 0.6C110.701 0.9 110.001 1.3 109.301 1.7C109.101 1.5 108.901 1.3 108.801 1.1C109.601 0.9 110.501 0.7 111.401 0.6ZM119.901 21.8C118.301 20.9 118.201 19.6 118.301 19.2C118.401 18.7 118.701 18.9 118.901 18.9C120.001 18.9 121.101 18.6 122.501 17.1C124.101 15.5 124.601 11.9 122.101 9.6C119.501 7.1 116.701 7.5 114.901 9.8C114.501 10.3 113.601 10.6 112.901 10.6C111.701 10.6 112.501 11.5 112.501 11.7C112.501 11.9 112.301 12 112.201 12C111.801 11.9 112.001 12.5 112.001 12.6C112.001 12.7 111.801 12.9 111.801 12.9C111.301 12.9 111.401 13.3 111.501 13.5C111.501 13.6 111.501 13.8 111.301 13.9C111.101 14 111.001 14.4 111.001 14.7C111.001 15.2 111.501 15.6 112.301 16.2C113.101 16.8 113.201 17.4 113.201 17.8C113.201 18.2 113.301 18.9 113.401 19.3C113.601 19.8 113.601 20.8 112.501 20.8C111.101 20.9 108.701 21.9 108.501 22C107.701 22.3 106.701 22.4 105.901 22.2C105.501 21.9 105.101 21.6 104.701 21.2C104.501 20.7 104.801 20.1 105.101 19.7C105.601 20.2 106.201 20.1 106.601 20.1C107.001 20.1 108.801 19.8 109.101 19.7C109.401 19.6 109.501 19.6 109.601 19.7C110.301 20 111.301 20 111.701 18.7C112.101 17.3 111.201 17.7 111.001 17.8C110.901 17.9 110.701 17.8 110.801 17.7C111.001 17.4 110.701 17.4 110.601 17.4C110.201 17.4 109.701 17.8 109.601 17.9C109.401 18 109.301 18 109.201 18C108.701 17.7 107.201 18.1 106.701 17.3C106.701 17.1 106.301 13.8 106.101 13.2C106.101 13.1 106.001 12.9 106.201 12.7C106.601 12.1 107.601 12.7 108.201 12.7C108.901 12.7 109.001 12.4 109.201 12.2C109.401 12 109.501 12.1 109.601 12C109.701 11.9 109.601 11.8 109.601 11.7C109.601 11.6 109.701 11.7 109.801 11.6C109.901 11.5 109.801 11.3 109.801 11.2C110.001 10.9 110.401 11.1 110.201 10.5C110.101 10.1 110.301 9.7 110.501 9.5C110.801 9.1 112.101 7.3 109.901 5.4C107.801 3.6 105.601 3.8 104.201 5.3C102.801 6.8 103.501 9 103.601 9.6C103.701 10.2 103.301 10.7 102.801 10.9C102.401 11.1 101.501 11.7 100.901 12.2C101.001 7.4 103.901 3.2 108.301 1.5C108.501 1.7 108.701 2 108.901 2.2C108.401 2.6 107.301 3.5 107.301 3.5C107.301 3.5 107.401 3.5 107.601 3.6C107.701 3.6 107.901 3.7 107.901 3.7C107.901 3.7 108.801 2.9 109.301 2.6C109.601 2.9 110.001 3.1 110.401 3.3C110.201 3.7 109.601 4.7 109.601 4.7C109.601 4.7 109.701 4.8 109.801 4.8C109.901 4.9 110.001 4.9 110.001 4.9C110.001 4.9 110.601 3.8 110.801 3.4C111.301 3.6 111.801 3.7 112.301 3.7V5.7C112.001 5.7 111.301 5.7 111.001 5.6H110.801L110.901 5.8C111.001 5.9 111.001 6 111.101 6.1C111.301 6.1 112.001 6.1 112.301 6.1V9.8H112.801V8.9C113.601 8.9 114.201 8.8 114.901 8.7L115.601 8.1H115.201C114.401 8.2 113.701 8.3 113.101 8.3C113.101 8.3 112.901 8.3 112.801 8.3V6C113.701 6 114.701 5.9 115.601 5.6C115.801 6.2 116.301 7.7 116.301 7.7L116.801 7.5C116.801 7.5 116.301 6 116.101 5.4C116.901 5.2 117.601 4.8 118.301 4.5C118.901 5.2 119.401 6 119.801 6.8C119.401 7 118.801 7.2 118.801 7.2C119.301 7.3 119.701 7.4 119.701 7.4C119.701 7.4 119.901 7.3 120.001 7.3C120.001 7.4 120.101 7.6 120.101 7.6L120.801 7.9L120.701 7.7C120.701 7.7 120.501 7.2 120.401 7.1C121.101 6.8 121.801 6.4 122.501 5.9C123.801 7.8 124.401 10.1 124.401 12.4C124.601 16.2 122.701 19.6 119.901 21.8Z" fill="#6E56CF"/>
<path d="M99.1984 3.29995L98.9984 3.49995C98.2984 4.09995 96.5984 5.79995 96.8984 7.69995V7.79995L96.9984 8.19995L97.1984 7.99995C98.1984 7.09995 98.9984 5.49995 99.2984 3.69995L99.3984 3.19995L99.1984 3.29995Z" fill="#6E56CF"/>
<path d="M95.7995 6.50002L95.6995 6.70002C95.5995 7.00002 95.3995 7.70002 95.2995 8.50002C95.0995 9.70002 95.1995 11.5 96.1995 12.8L96.2995 13L96.3995 13.2L96.5995 12.4C96.7995 11 96.4995 8.10002 95.9995 6.80002L95.7995 6.40002V6.50002Z" fill="#6E56CF"/>
<path d="M94.5984 11.5V11.7C94.4984 12.9 94.5984 16 97.0984 17.7L97.3984 17.9V17.5C97.3984 16.3 95.9984 12.8 94.9984 11.6L94.6984 11.2L94.5984 11.5Z" fill="#6E56CF"/>
<path d="M95 17V17.2001C95.4 19.0001 97 21.8001 99.6 22.7001L100 22.8L99.9 22.4C99.4 21.1 96.9 18 95.3 17L95 16.8V17Z" fill="#6E56CF"/>
<path d="M100.299 6.00002L99.9992 6.10002C98.0992 7.30002 97.1992 8.70002 97.1992 10.5V10.9L97.4992 10.7C98.4992 9.80002 99.8992 7.60002 100.199 6.40002L100.299 5.90002V6.00002Z" fill="#6E56CF"/>
<path d="M99.1006 9.79995L99.0006 9.99995C98.5006 10.5 96.9006 12.2 97.0006 14.3C97.0006 14.6 97.1006 15 97.2006 15.3L97.3006 15.6L97.5006 15.3C98.3006 14.2 99.3006 11.4 99.2006 10.1V9.69995L99.1006 9.79995Z" fill="#6E56CF"/>
<path d="M99.1984 13.5L99.0984 13.7C98.2984 14.9 97.8984 16.1 97.8984 17.3C97.8984 18.1 98.1984 18.9 98.6984 19.7L98.8984 20L98.9984 19.7C99.2984 19 99.5984 16.9 99.5984 15.2C99.5984 14.6 99.4984 14.1 99.3984 13.8L99.2984 13.4L99.1984 13.5Z" fill="#6E56CF"/>
<path d="M100.098 17.4L99.9985 17.6C99.7985 18.4 99.5985 19.1 99.6985 19.9C99.6985 21.5 100.498 22.8 101.898 23.7L102.098 23.7999L102.198 23.5V23.2C102.198 21.9 101.198 18.5 100.398 17.5L100.198 17.2L100.098 17.4Z" fill="#6E56CF"/>
<path d="M97.4008 22.6L97.5008 22.8C98.5008 24.5 100.301 26.8 103.601 26.2H103.901L103.701 26C103.101 25.1 99.1008 22.8 97.7008 22.6L97.3008 22.5L97.4008 22.6Z" fill="#6E56CF"/>
<path d="M102.301 27L101.801 27.1L102.301 27.3C104.401 28.2 107.001 28.4 108.601 27.9C109.201 27.7 109.501 27.4 109.901 27C112.601 27.3 115.101 29.5 116.601 31.3L116.701 31.4H116.801C117.001 31.3 117.201 31.1 117.301 31L117.401 30.9L117.301 30.8C115.801 28.8 113.401 27.6 113.301 27.5C111.101 26.5 107.301 25.7 102.301 27Z" fill="#6E56CF"/>
<path d="M102.401 21.4V21.6C102.701 23.6 103.501 26.2 106.901 25.9H107.101L107.001 25.7001C106.801 24.8001 103.701 22.2 102.601 21.5L102.301 21.3L102.401 21.4Z" fill="#6E56CF"/>
<path d="M126 3.09998L126.1 3.59998C126.4 5.39998 127.2 6.99998 128.2 7.89998L128.4 8.09998L128.5 7.69998V7.59998C128.8 5.69998 127.1 3.99998 126.4 3.39998L126.2 3.19998L126 3.09998Z" fill="#6E56CF"/>
<path d="M129.501 6.30005L129.301 6.70005C128.801 8.00005 128.601 10.9 128.701 12.3L128.901 13.1L129.001 13L129.101 12.8C130.201 11.5 130.201 9.80005 130.001 8.50005C129.901 7.60005 129.701 7.00005 129.601 6.70005L129.501 6.50005V6.30005Z" fill="#6E56CF"/>
<path d="M130.802 11.3L130.502 11.7C129.502 13 128.102 16.4 128.102 17.6V18L128.402 17.8C130.902 16.2 131.002 13.1 130.902 11.8V11.6L130.802 11.3Z" fill="#6E56CF"/>
<path d="M130.401 16.8L130.001 17C128.401 18 125.901 21.1 125.401 22.4L125.301 22.8L125.701 22.7001C128.301 21.9001 130.001 19.0001 130.301 17.2001V17L130.401 16.8Z" fill="#6E56CF"/>
<path d="M125.102 5.80005L125.202 6.30005C125.602 7.60005 126.802 9.80005 127.902 10.7L128.202 10.9V10.5C128.302 8.70005 127.402 7.30005 125.502 6.10005L125.302 6.00005L125.102 5.80005Z" fill="#6E56CF"/>
<path d="M126.202 9.69995V10.1C126.102 11.4 127.202 14.3 127.902 15.3L128.102 15.6L128.202 15.3C128.302 14.9 128.402 14.6 128.402 14.3C128.502 12.2 126.902 10.5 126.402 9.99995L126.302 9.89995L126.202 9.69995Z" fill="#6E56CF"/>
<path d="M126.101 13.3L126.001 13.7C125.901 14 125.801 14.5 125.801 15.1C125.801 16.8 126.001 18.9 126.401 19.6L126.501 19.9L126.701 19.6C127.201 18.9 127.501 18.1 127.501 17.2C127.501 16.1 127.101 14.8 126.301 13.6L126.201 13.4L126.101 13.3Z" fill="#6E56CF"/>
<path d="M125.199 17.2L124.999 17.5C124.199 18.5 123.199 21.9 123.199 23.2C123.199 23.2 123.199 23.4 123.199 23.5L123.299 23.7999L123.499 23.7C124.899 22.8 125.599 21.5 125.699 19.9C125.699 19.2 125.599 18.4 125.399 17.6L125.299 17.4L125.199 17.2Z" fill="#6E56CF"/>
<path d="M128.1 22.4L127.7 22.5C126.3 22.7 122.3 25 121.7 25.9L121.5 26.1H121.8C125.1 26.7 126.9 24.4 127.9 22.7L128 22.5L128.1 22.4Z" fill="#6E56CF"/>
<path d="M112.202 27.5C112.102 27.5 109.702 28.8 108.202 30.8L108.102 30.9L108.202 31C108.302 31.1 108.602 31.3 108.702 31.4H108.802L108.902 31.3C110.402 29.5 112.902 27.2 115.602 27C116.002 27.4 116.402 27.7 116.902 27.9C118.402 28.4 121.102 28.2 123.202 27.3L123.702 27.1L123.202 27C118.102 25.7 114.302 26.5 112.202 27.5Z" fill="#6E56CF"/>
<path d="M122.999 21.2L122.699 21.4C121.599 22.1 118.599 24.7 118.299 25.6L118.199 25.7999H118.399C121.699 26.0999 122.499 23.5 122.899 21.5V21.2999L122.999 21.2Z" fill="#6E56CF"/>
<path d="M38.6016 1.19995H42.8016V4.99995H38.6016V1.19995ZM39.0016 9.39995H42.5016V28H39.0016V9.39995Z" fill="#6E56CF"/>
<path d="M12.5 9.40002H16V28H12.6V25.3H12.5C11.1 27.6 8.7 28.6 6.1 28.6C2.2 28.6 0 25.6 0 21.9V9.40002H3.5V20.4C3.5 23.6 4.2 26 7.6 26C9 26 11 25.3 11.7 23.3C12.4 21.6 12.4 19.4 12.4 18.9V9.40002H12.5Z" fill="#6E56CF"/>
<path d="M23 12.1C24.3 9.80005 26.8 8.80005 28.7 8.80005C30 8.80005 35.7 9.10005 35.7 15.1V27.9H32.2V16.2C32.2 13.1 30.9 11.5 27.9 11.5C27.9 11.5 26 11.4 24.5 12.9C24 13.4 23 14.2 23 17.9V28H19.5V9.40005H23V12.1Z" fill="#6E56CF"/>
<path d="M57.2 15.3C57 13 55.9 11.4 53.4 11.4C50.1 11.4 48.8 14.3 48.8 18.6C48.8 22.9 50.1 25.8 53.4 25.8C55.7 25.8 57.1 24.3 57.3 21.6H60.8C60.5 25.8 57.4 28.3 53.3 28.3C47.4 28.3 45 24.1 45 18.7C45 13.3 47.7 8.80005 53.6 8.80005C57.5 8.80005 60.4 11.3 60.6 15.3H57.2Z" fill="#6E56CF"/>
<path d="M66.0008 19.3C65.7008 22.5 67.1008 25.9 70.6008 25.9C73.3008 25.9 74.7008 24.8 75.1008 22.1H78.8008C78.2008 26.3 75.0008 28.4 70.6008 28.4C64.7008 28.4 62.3008 24.2 62.3008 18.8C62.3008 13.4 65.0008 8.90002 70.9008 8.90002C76.4008 9.00002 79.0008 12.5 79.0008 17.6V19.3H66.0008ZM75.4008 16.9C75.5008 13.8 74.1008 11.4 70.7008 11.4C67.8008 11.4 66.1008 13.9 66.1008 16.9H75.4008Z" fill="#6E56CF"/>
<path d="M83.0008 27.8V11.8H79.8008V9.40005H83.0008V5.40005C83.1008 1.40005 86.2008 0.300049 88.8008 0.300049C89.6008 0.300049 90.5008 0.500049 91.3008 0.700049V3.60005C90.7008 3.60005 90.1008 3.50005 89.5008 3.50005C87.5008 3.50005 86.4008 4.00005 86.5008 6.00005V9.40005H90.8008V11.8H86.5008V27.8H83.0008Z" fill="#6E56CF"/>
</g>
<defs>
<clipPath id="clip0_18007_6895">
<rect width="130.9" height="31.5" fill="white"/>
</clipPath>
</defs>
</svg>
