<svg xmlns="http://www.w3.org/2000/svg" width="320" height="232" fill="none" viewBox="0 0 320 232"><g filter="url(#a)"><rect width="160" height="108" x="80" y="62" fill="#fff" rx="12"/><path fill="#AA99EC" d="M114.092 93.12c-2.172 0-3.732-1.848-3.732-4.476 0-2.616 1.56-4.404 3.732-4.404s3.732 1.788 3.732 4.404c0 2.64-1.572 4.476-3.732 4.476m0-1.536c1.212 0 1.788-1.356 1.788-2.952 0-1.572-.564-2.856-1.788-2.856-1.236 0-1.788 1.296-1.788 2.856 0 1.608.576 2.952 1.788 2.952m7.443 1.536c-1.824 0-3.192-1.02-3.336-2.868h1.836c.132.996.612 1.452 1.428 1.452.696 0 1.236-.42 1.236-1.224 0-.768-.42-1.284-1.5-1.284h-.768v-1.392h.732c.936 0 1.332-.456 1.332-1.104 0-.6-.288-1.044-1.056-1.044-.66 0-1.188.396-1.296 1.212h-1.848c.204-1.62 1.38-2.628 3.204-2.628 1.812 0 2.94.888 2.94 2.316 0 .9-.54 1.572-1.152 1.86.864.288 1.368 1.14 1.368 2.16 0 1.572-1.344 2.544-3.12 2.544m-7.443 28c-2.172 0-3.732-1.848-3.732-4.476 0-2.616 1.56-4.404 3.732-4.404s3.732 1.788 3.732 4.404c0 2.64-1.572 4.476-3.732 4.476m0-1.536c1.212 0 1.788-1.356 1.788-2.952 0-1.572-.564-2.856-1.788-2.856-1.236 0-1.788 1.296-1.788 2.856 0 1.608.576 2.952 1.788 2.952m4.156 1.416v-1.44c3.168-2.58 4.14-3.6 4.14-4.788 0-.696-.396-1.116-1.068-1.116-.708 0-1.2.456-1.308 1.212h-1.848c.18-1.632 1.404-2.628 3.228-2.628 1.848 0 2.952 1.008 2.952 2.7 0 1.488-.792 2.592-3.36 4.644h3.528V121zm-4.156 28.12c-2.172 0-3.732-1.848-3.732-4.476 0-2.616 1.56-4.404 3.732-4.404s3.732 1.788 3.732 4.404c0 2.64-1.572 4.476-3.732 4.476m0-1.536c1.212 0 1.788-1.356 1.788-2.952 0-1.572-.564-2.856-1.788-2.856-1.236 0-1.788 1.296-1.788 2.856 0 1.608.576 2.952 1.788 2.952M120.25 149v-6.54c-.432.588-1.164 1.056-2.1 1.224v-1.8c.888-.108 2.004-.852 2.352-1.524h1.548V149zm23.038 0 3.096-8.64h2.064l3.096 8.64h-1.92l-.624-1.908h-3.252l-.624 1.908zm2.94-3.348h2.304l-1.152-3.504zM172.6 149v-8.64h4.02c1.536 0 2.568.84 2.568 2.184 0 .96-.564 1.62-1.368 1.896.936.288 1.608 1.092 1.608 2.208 0 1.428-1.044 2.352-2.652 2.352zm3.624-7.32h-1.776v2.136h1.74c.756 0 1.152-.36 1.152-1.068s-.384-1.068-1.116-1.068m.06 3.456h-1.836v2.544h1.896c.792 0 1.212-.468 1.212-1.248 0-.804-.456-1.296-1.272-1.296m28.408 3.984c-2.508 0-4.332-1.872-4.332-4.476 0-2.592 1.8-4.404 4.332-4.404 2.136 0 3.744 1.332 3.996 3.336h-1.8c-.204-1.236-1.08-1.872-2.184-1.872-1.464 0-2.472 1.08-2.472 2.928 0 1.884 1.032 3.024 2.496 3.024 1.044 0 1.92-.624 2.16-1.86h1.824c-.312 2.016-1.908 3.324-4.02 3.324"/><path stroke="#EBE4FF" stroke-linecap="round" stroke-width="2" d="M138 84v41a4 4 0 0 0 4 4h67"/></g><defs><filter id="a" width="200" height="148" x="60" y="54" color-interpolation-filters="sRGB" filterUnits="userSpaceOnUse"><feFlood flood-opacity="0" result="BackgroundImageFix"/><feColorMatrix in="SourceAlpha" result="hardAlpha" values="0 0 0 0 0 0 0 0 0 0 0 0 0 0 0 0 0 0 127 0"/><feOffset dy="12"/><feGaussianBlur stdDeviation="10"/><feComposite in2="hardAlpha" operator="out"/><feColorMatrix values="0 0 0 0 0 0 0 0 0 0 0 0 0 0 0 0 0 0 0.03 0"/><feBlend in2="BackgroundImageFix" result="effect1_dropShadow_10196_62697"/><feColorMatrix in="SourceAlpha" result="hardAlpha" values="0 0 0 0 0 0 0 0 0 0 0 0 0 0 0 0 0 0 127 0"/><feOffset dy="2"/><feGaussianBlur stdDeviation="3"/><feComposite in2="hardAlpha" operator="out"/><feColorMatrix values="0 0 0 0 0 0 0 0 0 0 0 0 0 0 0 0 0 0 0.05 0"/><feBlend in2="effect1_dropShadow_10196_62697" result="effect2_dropShadow_10196_62697"/><feBlend in="SourceGraphic" in2="effect2_dropShadow_10196_62697" result="shape"/></filter></defs></svg>