<svg width="320" height="232" viewBox="0 0 320 232" fill="none" xmlns="https://www.w3.org/2000/svg">
<path fill-rule="evenodd" clip-rule="evenodd" d="M165.118 103.222C164.757 103.641 164.804 104.272 165.222 104.633L167.062 106.218C167.428 106.534 167.649 106.726 167.79 106.875C167.649 107.024 167.428 107.216 167.062 107.532L165.222 109.118C164.804 109.478 164.757 110.11 165.118 110.528C165.478 110.946 166.11 110.993 166.528 110.633L168.368 109.047C168.382 109.034 168.397 109.022 168.411 109.009C168.76 108.709 169.095 108.42 169.334 108.15C169.596 107.854 169.875 107.437 169.875 106.875C169.875 106.313 169.596 105.896 169.334 105.6C169.095 105.33 168.76 105.042 168.411 104.741C168.397 104.728 168.382 104.716 168.368 104.703L166.528 103.118C166.11 102.757 165.478 102.804 165.118 103.222Z" fill="#AA99EC"/>
<path fill-rule="evenodd" clip-rule="evenodd" d="M162.632 103.222C162.993 103.641 162.946 104.272 162.528 104.633L160.688 106.218C160.322 106.534 160.101 106.726 159.96 106.875C160.101 107.024 160.322 107.216 160.688 107.532L162.528 109.118C162.946 109.478 162.993 110.11 162.632 110.528C162.272 110.946 161.641 110.993 161.222 110.633L159.382 109.047C159.368 109.034 159.353 109.022 159.339 109.009C158.99 108.709 158.655 108.42 158.416 108.15C158.154 107.854 157.875 107.437 157.875 106.875C157.875 106.313 158.154 105.896 158.416 105.6C158.655 105.33 158.99 105.042 159.339 104.741C159.353 104.728 159.368 104.716 159.382 104.703L161.222 103.118C161.641 102.757 162.272 102.804 162.632 103.222Z" fill="#AA99EC"/>
<path opacity="0.4" d="M154.812 110.522C155.794 110.625 155.357 110.625 156.898 110.625C157.437 110.625 157.875 110.187 157.875 109.648C157.875 109.108 157.437 108.67 156.898 108.67C155.289 108.67 155.883 108.669 155.013 108.578C154.159 108.489 153.676 108.322 153.318 108.069C153.076 107.898 152.864 107.697 152.686 107.473C152.431 107.15 152.261 106.717 152.169 105.931C152.074 105.121 152.072 104.064 152.072 102.54L152.072 99.64C152.072 99.373 152.072 98.7344 152.353 98.2623C152.526 97.9713 152.747 97.7282 152.975 97.6044C153.341 97.4048 153.762 97.2915 154.208 97.2915L155.249 97.328C155.629 97.3359 156.072 97.3239 156.5 97.2091C157.334 96.9857 157.986 96.3343 158.209 95.5003C158.324 95.0721 158.336 94.6286 158.328 94.2485L158.292 93.2081C158.292 92.7405 158.416 92.3333 158.633 91.9549C158.76 91.7343 158.981 91.5324 159.286 91.3551C159.748 91.0862 160.301 91.0837 160.639 91.0822C160.977 91.0807 161.334 91.0795 161.632 91.0795C163.466 91.0795 164.133 91.0935 164.637 91.2708C165.509 91.5783 166.175 92.2199 166.485 93.0053C166.563 93.2019 166.618 93.4603 166.647 93.9083C166.677 94.365 166.678 94.9479 166.678 95.7882V100.901C166.678 101.439 167.114 101.875 167.651 101.875C168.189 101.875 168.625 101.439 168.625 100.901V95.755C168.625 94.9558 168.625 94.3083 168.59 93.7797C168.554 93.2351 168.479 92.7494 168.296 92.2852C167.767 90.9459 166.658 89.9116 165.282 89.4266C164.423 89.1241 162.951 89.1244 161.396 89.125C158.556 89.1246 156.87 89.1244 155.487 89.6115C153.267 90.3937 151.493 92.0564 150.65 94.1925C150.369 94.9044 150.244 95.6691 150.184 96.586C150.125 97.4867 150.125 98.5993 150.125 100.018V102.601C150.125 104.049 150.125 105.222 150.235 106.159C150.349 107.133 150.592 107.97 151.162 108.689C151.457 109.062 151.806 109.391 152.196 109.667C152.941 110.193 153.802 110.417 154.812 110.522Z" fill="#AA99EC"/>
<path d="M67.2176 138V129.2H69.1696V130.976H69.7136L69.1216 131.456C69.1216 130.709 69.3403 130.123 69.7776 129.696C70.2256 129.259 70.8336 129.04 71.6016 129.04C72.4976 129.04 73.1963 129.328 73.6976 129.904C74.199 130.48 74.4496 131.285 74.4496 132.32V133.152H72.4496V132.416C72.4496 131.872 72.311 131.461 72.0336 131.184C71.7563 130.907 71.3616 130.768 70.8496 130.768C70.327 130.768 69.9216 130.928 69.6336 131.248C69.3563 131.568 69.2176 132.021 69.2176 132.608V138H67.2176ZM75.1954 138L78.2674 133.456L75.4034 129.2H77.6594L79.0194 131.36C79.1047 131.488 79.1794 131.632 79.2434 131.792C79.318 131.952 79.3767 132.08 79.4194 132.176C79.462 132.08 79.5207 131.952 79.5954 131.792C79.67 131.632 79.7447 131.488 79.8194 131.36L81.1794 129.2H83.4514L80.5874 133.456L83.6434 138H81.3714L79.8514 135.584C79.766 135.445 79.686 135.296 79.6114 135.136C79.5367 134.976 79.4727 134.848 79.4194 134.752C79.3767 134.848 79.318 134.976 79.2434 135.136C79.1687 135.296 79.0887 135.445 79.0034 135.584L77.4674 138H75.1954ZM88.3731 138.16C87.9251 138.16 87.5625 138.027 87.2851 137.76C87.0185 137.483 86.8851 137.125 86.8851 136.688C86.8851 136.24 87.0185 135.883 87.2851 135.616C87.5625 135.339 87.9251 135.2 88.3731 135.2C88.8211 135.2 89.1785 135.339 89.4451 135.616C89.7225 135.883 89.8611 136.24 89.8611 136.688C89.8611 137.125 89.7225 137.483 89.4451 137.76C89.1785 138.027 88.8211 138.16 88.3731 138.16ZM94.0789 138V129.2H96.0309V130.976H96.5749L95.9829 131.456C95.9829 130.709 96.2015 130.123 96.6389 129.696C97.0869 129.259 97.6949 129.04 98.4629 129.04C99.3589 129.04 100.058 129.328 100.559 129.904C101.06 130.48 101.311 131.285 101.311 132.32V133.152H99.3109V132.416C99.3109 131.872 99.1722 131.461 98.8949 131.184C98.6175 130.907 98.2229 130.768 97.7109 130.768C97.1882 130.768 96.7829 130.928 96.4949 131.248C96.2175 131.568 96.0789 132.021 96.0789 132.608V138H94.0789ZM106.297 138.16C105.55 138.16 104.899 138.016 104.345 137.728C103.79 137.44 103.358 137.035 103.049 136.512C102.75 135.979 102.601 135.355 102.601 134.64V132.56C102.601 131.845 102.75 131.227 103.049 130.704C103.358 130.171 103.79 129.76 104.345 129.472C104.899 129.184 105.55 129.04 106.297 129.04C107.033 129.04 107.673 129.184 108.217 129.472C108.771 129.76 109.198 130.165 109.497 130.688C109.806 131.2 109.961 131.803 109.961 132.496V134.096H104.521V134.704C104.521 135.301 104.675 135.755 104.985 136.064C105.294 136.363 105.731 136.512 106.297 136.512C106.713 136.512 107.065 136.443 107.353 136.304C107.651 136.155 107.827 135.941 107.881 135.664H109.865C109.726 136.421 109.331 137.029 108.681 137.488C108.03 137.936 107.235 138.16 106.297 138.16ZM108.041 132.96V132.48C108.041 131.872 107.891 131.403 107.593 131.072C107.305 130.741 106.873 130.576 106.297 130.576C105.721 130.576 105.278 130.747 104.969 131.088C104.67 131.419 104.521 131.888 104.521 132.496V132.8L108.185 132.784L108.041 132.96ZM115.378 138.16C114.621 138.16 113.96 138.021 113.394 137.744C112.84 137.456 112.408 137.056 112.098 136.544C111.789 136.021 111.634 135.408 111.634 134.704V132.496C111.634 131.781 111.789 131.168 112.098 130.656C112.408 130.144 112.84 129.749 113.394 129.472C113.96 129.184 114.621 129.04 115.378 129.04C116.477 129.04 117.357 129.328 118.018 129.904C118.68 130.469 119.032 131.243 119.074 132.224H117.106C117.074 131.765 116.904 131.413 116.594 131.168C116.285 130.912 115.88 130.784 115.378 130.784C114.834 130.784 114.408 130.933 114.098 131.232C113.789 131.52 113.634 131.936 113.634 132.48V134.704C113.634 135.248 113.789 135.669 114.098 135.968C114.408 136.267 114.834 136.416 115.378 136.416C115.88 136.416 116.285 136.293 116.594 136.048C116.904 135.792 117.074 135.435 117.106 134.976H119.074C119.032 135.957 118.68 136.736 118.018 137.312C117.357 137.877 116.477 138.16 115.378 138.16ZM120.62 138V126.32H122.62V129.2L122.572 130.88H123.116L122.524 131.344C122.535 130.64 122.759 130.08 123.196 129.664C123.633 129.248 124.215 129.04 124.94 129.04C125.804 129.04 126.492 129.328 127.004 129.904C127.527 130.48 127.788 131.253 127.788 132.224V138H125.788V132.464C125.788 131.92 125.649 131.504 125.372 131.216C125.095 130.917 124.711 130.768 124.22 130.768C123.719 130.768 123.324 130.917 123.036 131.216C122.759 131.515 122.62 131.941 122.62 132.496V138H120.62ZM132.166 138.16C131.27 138.16 130.561 137.909 130.038 137.408C129.526 136.896 129.27 136.229 129.27 135.408C129.27 134.832 129.403 134.336 129.67 133.92C129.937 133.504 130.315 133.184 130.806 132.96C131.307 132.725 131.894 132.608 132.566 132.608H134.71V131.984C134.71 131.557 134.577 131.232 134.31 131.008C134.054 130.773 133.67 130.656 133.158 130.656C132.689 130.656 132.31 130.747 132.022 130.928C131.745 131.109 131.595 131.365 131.574 131.696H129.654C129.697 130.896 130.027 130.256 130.646 129.776C131.275 129.285 132.118 129.04 133.174 129.04C134.294 129.04 135.163 129.301 135.782 129.824C136.401 130.347 136.71 131.083 136.71 132.032V138H134.758V136.32H134.438L134.79 136.032C134.79 136.469 134.683 136.848 134.47 137.168C134.257 137.477 133.953 137.723 133.558 137.904C133.163 138.075 132.699 138.16 132.166 138.16ZM132.806 136.528C133.393 136.528 133.857 136.384 134.198 136.096C134.539 135.808 134.71 135.424 134.71 134.944V133.904H132.662C132.225 133.904 131.878 134.027 131.622 134.272C131.366 134.507 131.238 134.821 131.238 135.216C131.238 135.611 131.371 135.931 131.638 136.176C131.915 136.411 132.305 136.528 132.806 136.528ZM138.848 138V129.2H140.8V130.976H141.344L140.752 131.456C140.752 130.709 140.97 130.123 141.408 129.696C141.856 129.259 142.464 129.04 143.232 129.04C144.128 129.04 144.826 129.328 145.328 129.904C145.829 130.48 146.08 131.285 146.08 132.32V133.152H144.08V132.416C144.08 131.872 143.941 131.461 143.664 131.184C143.386 130.907 142.992 130.768 142.48 130.768C141.957 130.768 141.552 130.928 141.264 131.248C140.986 131.568 140.848 132.021 140.848 132.608V138H138.848ZM151.929 138C151.108 138 150.452 137.765 149.961 137.296C149.481 136.816 149.241 136.171 149.241 135.36V131.008H146.809V129.2H149.241V126.72H151.257V129.2H154.761V131.008H151.257V135.312C151.257 135.568 151.327 135.781 151.465 135.952C151.615 136.112 151.817 136.192 152.073 136.192H154.681V138H151.929ZM159.635 138.144C158.942 138.144 158.339 138.037 157.827 137.824C157.326 137.611 156.936 137.307 156.659 136.912C156.382 136.517 156.243 136.048 156.243 135.504H158.211C158.211 135.845 158.334 136.107 158.579 136.288C158.835 136.469 159.187 136.56 159.635 136.56H160.339C160.819 136.56 161.187 136.469 161.443 136.288C161.71 136.096 161.843 135.835 161.843 135.504C161.843 135.184 161.752 134.944 161.571 134.784C161.39 134.624 161.112 134.523 160.739 134.48L158.547 134.192C157.843 134.107 157.299 133.835 156.915 133.376C156.542 132.917 156.355 132.336 156.355 131.632C156.355 130.8 156.632 130.165 157.187 129.728C157.742 129.28 158.542 129.056 159.587 129.056H160.323C161.304 129.056 162.094 129.28 162.691 129.728C163.288 130.176 163.598 130.773 163.619 131.52H161.635C161.624 131.243 161.502 131.024 161.267 130.864C161.032 130.693 160.718 130.608 160.323 130.608H159.587C159.16 130.608 158.835 130.699 158.611 130.88C158.387 131.051 158.275 131.285 158.275 131.584C158.275 131.851 158.355 132.048 158.515 132.176C158.686 132.293 158.931 132.373 159.251 132.416L161.315 132.704C162.126 132.811 162.734 133.104 163.139 133.584C163.555 134.053 163.763 134.683 163.763 135.472C163.763 136.325 163.47 136.987 162.883 137.456C162.307 137.915 161.459 138.144 160.339 138.144H159.635ZM168.957 138.16C168.509 138.16 168.146 138.027 167.869 137.76C167.602 137.483 167.469 137.125 167.469 136.688C167.469 136.24 167.602 135.883 167.869 135.616C168.146 135.339 168.509 135.2 168.957 135.2C169.405 135.2 169.762 135.339 170.029 135.616C170.306 135.883 170.445 136.24 170.445 136.688C170.445 137.125 170.306 137.483 170.029 137.76C169.762 138.027 169.405 138.16 168.957 138.16ZM174.663 138V129.2H176.615V130.976H177.159L176.567 131.456C176.567 130.709 176.785 130.123 177.223 129.696C177.671 129.259 178.279 129.04 179.047 129.04C179.943 129.04 180.641 129.328 181.143 129.904C181.644 130.48 181.895 131.285 181.895 132.32V133.152H179.895V132.416C179.895 131.872 179.756 131.461 179.479 131.184C179.201 130.907 178.807 130.768 178.295 130.768C177.772 130.768 177.367 130.928 177.079 131.248C176.801 131.568 176.663 132.021 176.663 132.608V138H174.663ZM186.88 138.16C186.134 138.16 185.483 138.016 184.928 137.728C184.374 137.44 183.942 137.035 183.632 136.512C183.334 135.979 183.184 135.355 183.184 134.64V132.56C183.184 131.845 183.334 131.227 183.632 130.704C183.942 130.171 184.374 129.76 184.928 129.472C185.483 129.184 186.134 129.04 186.88 129.04C187.616 129.04 188.256 129.184 188.8 129.472C189.355 129.76 189.782 130.165 190.08 130.688C190.39 131.2 190.544 131.803 190.544 132.496V134.096H185.104V134.704C185.104 135.301 185.259 135.755 185.568 136.064C185.878 136.363 186.315 136.512 186.88 136.512C187.296 136.512 187.648 136.443 187.936 136.304C188.235 136.155 188.411 135.941 188.464 135.664H190.448C190.31 136.421 189.915 137.029 189.264 137.488C188.614 137.936 187.819 138.16 186.88 138.16ZM188.624 132.96V132.48C188.624 131.872 188.475 131.403 188.176 131.072C187.888 130.741 187.456 130.576 186.88 130.576C186.304 130.576 185.862 130.747 185.552 131.088C185.254 131.419 185.104 131.888 185.104 132.496V132.8L188.768 132.784L188.624 132.96ZM194.218 138V132.208H191.802V130.4H194.218V128.848C194.218 128.08 194.474 127.467 194.986 127.008C195.498 126.549 196.175 126.32 197.018 126.32H199.594V128.08H197.066C196.81 128.08 196.602 128.155 196.442 128.304C196.293 128.443 196.218 128.635 196.218 128.88V130.4H199.594V132.208H196.218V138H194.218ZM204.788 138.16C204.041 138.16 203.391 138.016 202.836 137.728C202.281 137.44 201.849 137.035 201.54 136.512C201.241 135.979 201.092 135.355 201.092 134.64V132.56C201.092 131.845 201.241 131.227 201.54 130.704C201.849 130.171 202.281 129.76 202.836 129.472C203.391 129.184 204.041 129.04 204.788 129.04C205.524 129.04 206.164 129.184 206.708 129.472C207.263 129.76 207.689 130.165 207.988 130.688C208.297 131.2 208.452 131.803 208.452 132.496V134.096H203.012V134.704C203.012 135.301 203.167 135.755 203.476 136.064C203.785 136.363 204.223 136.512 204.788 136.512C205.204 136.512 205.556 136.443 205.844 136.304C206.143 136.155 206.319 135.941 206.372 135.664H208.356C208.217 136.421 207.823 137.029 207.172 137.488C206.521 137.936 205.727 138.16 204.788 138.16ZM206.532 132.96V132.48C206.532 131.872 206.383 131.403 206.084 131.072C205.796 130.741 205.364 130.576 204.788 130.576C204.212 130.576 203.769 130.747 203.46 131.088C203.161 131.419 203.012 131.888 203.012 132.496V132.8L206.676 132.784L206.532 132.96ZM210.478 138V129.2H212.43V130.976H212.974L212.382 131.456C212.382 130.709 212.6 130.123 213.038 129.696C213.486 129.259 214.094 129.04 214.862 129.04C215.758 129.04 216.456 129.328 216.958 129.904C217.459 130.48 217.71 131.285 217.71 132.32V133.152H215.71V132.416C215.71 131.872 215.571 131.461 215.294 131.184C215.016 130.907 214.622 130.768 214.11 130.768C213.587 130.768 213.182 130.928 212.894 131.248C212.616 131.568 212.478 132.021 212.478 132.608V138H210.478ZM222.695 138.16C221.949 138.16 221.298 138.016 220.743 137.728C220.189 137.44 219.757 137.035 219.447 136.512C219.149 135.979 218.999 135.355 218.999 134.64V132.56C218.999 131.845 219.149 131.227 219.447 130.704C219.757 130.171 220.189 129.76 220.743 129.472C221.298 129.184 221.949 129.04 222.695 129.04C223.431 129.04 224.071 129.184 224.615 129.472C225.17 129.76 225.597 130.165 225.895 130.688C226.205 131.2 226.359 131.803 226.359 132.496V134.096H220.919V134.704C220.919 135.301 221.074 135.755 221.383 136.064C221.693 136.363 222.13 136.512 222.695 136.512C223.111 136.512 223.463 136.443 223.751 136.304C224.05 136.155 224.226 135.941 224.279 135.664H226.263C226.125 136.421 225.73 137.029 225.079 137.488C224.429 137.936 223.634 138.16 222.695 138.16ZM224.439 132.96V132.48C224.439 131.872 224.29 131.403 223.991 131.072C223.703 130.741 223.271 130.576 222.695 130.576C222.119 130.576 221.677 130.747 221.367 131.088C221.069 131.419 220.919 131.888 220.919 132.496V132.8L224.583 132.784L224.439 132.96ZM228.065 138V129.2H230.017V130.88H230.561L229.969 131.344C229.98 130.64 230.204 130.08 230.641 129.664C231.078 129.248 231.66 129.04 232.385 129.04C233.249 129.04 233.937 129.328 234.449 129.904C234.972 130.48 235.233 131.253 235.233 132.224V138H233.233V132.464C233.233 131.92 233.094 131.504 232.817 131.216C232.54 130.917 232.156 130.768 231.665 130.768C231.164 130.768 230.769 130.917 230.481 131.216C230.204 131.515 230.065 131.941 230.065 132.496V138H228.065ZM240.731 138.16C239.974 138.16 239.312 138.021 238.747 137.744C238.192 137.456 237.76 137.056 237.451 136.544C237.142 136.021 236.987 135.408 236.987 134.704V132.496C236.987 131.781 237.142 131.168 237.451 130.656C237.76 130.144 238.192 129.749 238.747 129.472C239.312 129.184 239.974 129.04 240.731 129.04C241.83 129.04 242.71 129.328 243.371 129.904C244.032 130.469 244.384 131.243 244.427 132.224H242.459C242.427 131.765 242.256 131.413 241.947 131.168C241.638 130.912 241.232 130.784 240.731 130.784C240.187 130.784 239.76 130.933 239.451 131.232C239.142 131.52 238.987 131.936 238.987 132.48V134.704C238.987 135.248 239.142 135.669 239.451 135.968C239.76 136.267 240.187 136.416 240.731 136.416C241.232 136.416 241.638 136.293 241.947 136.048C242.256 135.792 242.427 135.435 242.459 134.976H244.427C244.384 135.957 244.032 136.736 243.371 137.312C242.71 137.877 241.83 138.16 240.731 138.16ZM249.557 138.16C248.81 138.16 248.159 138.016 247.605 137.728C247.05 137.44 246.618 137.035 246.309 136.512C246.01 135.979 245.861 135.355 245.861 134.64V132.56C245.861 131.845 246.01 131.227 246.309 130.704C246.618 130.171 247.05 129.76 247.605 129.472C248.159 129.184 248.81 129.04 249.557 129.04C250.293 129.04 250.933 129.184 251.477 129.472C252.031 129.76 252.458 130.165 252.757 130.688C253.066 131.2 253.221 131.803 253.221 132.496V134.096H247.781V134.704C247.781 135.301 247.935 135.755 248.245 136.064C248.554 136.363 248.991 136.512 249.557 136.512C249.973 136.512 250.325 136.443 250.613 136.304C250.911 136.155 251.087 135.941 251.141 135.664H253.125C252.986 136.421 252.591 137.029 251.941 137.488C251.29 137.936 250.495 138.16 249.557 138.16ZM251.301 132.96V132.48C251.301 131.872 251.151 131.403 250.853 131.072C250.565 130.741 250.133 130.576 249.557 130.576C248.981 130.576 248.538 130.747 248.229 131.088C247.93 131.419 247.781 131.888 247.781 132.496V132.8L251.445 132.784L251.301 132.96Z" fill="#AA99EC"/>
</svg>
