<svg xmlns="http://www.w3.org/2000/svg" width="76" height="88" fill="none" viewBox="0 0 76 88"><g filter="url(#a)"><path fill="#1A1B1D" fill-opacity=".48" fill-rule="evenodd" d="M32.408 5.1C35.425 2.07 36.934.556 38.73.153a6.3 6.3 0 0 1 2.763 0c1.795.403 3.304 1.918 6.32 4.947l4.965 4.984-4.964 4.985c-3.017 3.029-4.526 4.544-6.321 4.946a6.3 6.3 0 0 1-2.763 0c-1.796-.402-3.305-1.917-6.322-4.946l-4.963-4.985zM15.92 13.178c-2.514 2.524-3.771 3.787-5.268 4.122-.758.17-1.544.17-2.302 0-1.497-.335-2.754-1.598-5.268-4.122L0 10.084l3.081-3.093c2.514-2.525 3.771-3.787 5.268-4.123a5.3 5.3 0 0 1 2.302 0c1.497.336 2.754 1.598 5.268 4.123L19 10.084zM4.779 41.322c2.262-2.272 3.394-3.408 4.74-3.71a4.7 4.7 0 0 1 2.073 0c1.346.302 2.478 1.438 4.74 3.71L19 44l-2.667 2.678c-2.263 2.272-3.394 3.409-4.741 3.71a4.7 4.7 0 0 1-2.073 0c-1.346-.301-2.478-1.438-4.74-3.71L2.11 44zm5.872 43.81c1.497-.336 2.754-1.598 5.268-4.123L19 77.915l-3.081-3.093c-2.514-2.524-3.771-3.786-5.268-4.122a5.3 5.3 0 0 0-2.302 0c-1.497.336-2.754 1.598-5.268 4.122L0 77.915l3.081 3.094c2.514 2.525 3.771 3.787 5.268 4.123.758.17 1.544.17 2.302 0m4.869-53.106c3.017 3.03 4.525 4.544 6.32 4.947.91.205 1.854.205 2.764 0 1.796-.403 3.304-1.917 6.321-4.947l4.964-4.984-4.964-4.984c-3.017-3.03-4.525-4.544-6.321-4.947a6.3 6.3 0 0 0-2.763 0c-1.796.403-3.305 1.918-6.321 4.947l-4.964 4.984zm6.32 38.863c-1.795-.403-3.303-1.918-6.32-4.947l-4.964-4.984 4.964-4.984c3.017-3.03 4.525-4.544 6.32-4.947a6.3 6.3 0 0 1 2.764 0c1.796.403 3.304 1.917 6.321 4.947l4.964 4.984-4.964 4.984c-3.017 3.03-4.525 4.544-6.321 4.947a6.3 6.3 0 0 1-2.763 0m10.568-31.873L27.445 44l4.963 4.984c3.017 3.03 4.526 4.544 6.322 4.947.91.205 1.853.205 2.763 0 1.795-.403 3.304-1.917 6.32-4.947L52.779 44l-4.964-4.984c-3.017-3.03-4.526-4.544-6.321-4.947a6.3 6.3 0 0 0-2.763 0c-1.796.403-3.305 1.917-6.321 4.947m0 33.916c3.017-3.03 4.526-4.544 6.322-4.947a6.3 6.3 0 0 1 2.763 0c1.795.403 3.304 1.917 6.32 4.947l4.965 4.983-4.964 4.985c-3.017 3.03-4.526 4.544-6.321 4.947a6.3 6.3 0 0 1-2.763 0c-1.796-.403-3.305-1.918-6.322-4.947l-4.963-4.985zm18.77-18.85-6.847 6.875 6.847 6.875c3.52 3.534 5.28 5.301 7.375 5.771a7.35 7.35 0 0 0 3.224 0c2.094-.47 3.855-2.237 7.374-5.771L76 60.958l-6.847-6.875c-3.52-3.534-5.28-5.301-7.375-5.771a7.4 7.4 0 0 0-3.223 0c-2.095.47-3.855 2.237-7.375 5.771m0-33.916c3.52-3.534 5.28-5.3 7.375-5.771a7.4 7.4 0 0 1 3.224 0c2.094.47 3.855 2.237 7.374 5.771L76 27.042l-6.847 6.875c-3.52 3.534-5.28 5.301-7.375 5.771a7.4 7.4 0 0 1-3.223 0c-2.095-.47-3.855-2.237-7.375-5.771l-6.847-6.875z" clip-rule="evenodd"/></g><g fill="#6E56CF" filter="url(#b)"><path fill-rule="evenodd" d="m52.157 10.707-.002-.002-.086.085-.62-.623.083-.083-.083-.082.62-.623.086.085.002-.003.62.623zm-1.24-2.492-.71.706-1.24-1.246.708-.706zm-2.483-2.492-.708.706-.62-.623m-.364-1.072-.353.353.716.719m-.362-1.072.353-.354.718.72.62.623M45.65 2.956l-.692.721a25 25 0 0 0-1.45-1.305l.633-.774c.462.377.957.828 1.509 1.358m-9.57-1.358.633.774c-.432.353-.906.784-1.45 1.305l-.692-.721c.553-.53 1.047-.981 1.509-1.358M33.126 4.38l.708.707-.717.719-.62.623-.71-.706.621-.623zm-2.58 2.59.71.705-1.241 1.246-.71-.706zm-2.48 2.49.002.003.086-.085.62.623-.082.082.082.083-.62.623-.085-.085-.003.002-.62-.623zm1.24 2.492.71-.705 1.24 1.246-.708.706zm2.483 2.492.708-.705.62.623.718.719-.708.707-.717-.72zm2.784 2.768.693-.721a26 26 0 0 0 1.449 1.305l-.633.774a26 26 0 0 1-1.509-1.358m3.2 2.472.424-.906c.255.12.503.205.753.26q.286.066.577.097l-.11.994a6 6 0 0 1-.686-.114 4.6 4.6 0 0 1-.958-.331m3.034.445-.11-.994q.291-.031.578-.096a3.7 3.7 0 0 0 .753-.26l.423.905a4.6 4.6 0 0 1-.957.33q-.341.078-.687.115m3.335-1.559-.633-.774c.433-.354.906-.784 1.45-1.305l.692.721c-.552.53-1.047.981-1.509 1.358m2.955-2.783-.707-.706.716-.72m.975-.27-.354-.352-.62.623m.974-.27.354.352-.62.624-.718.72m2.58-2.59-.71-.705 1.242-1.246.708.705zM37.771.485l.424.906c.255-.12.503-.205.753-.261a5 5 0 0 1 .577-.097l-.11-.994q-.346.039-.686.115a4.7 4.7 0 0 0-.958.33m3.034-.446-.11.994q.291.033.578.097c.25.056.497.14.753.26l.423-.905a4.7 4.7 0 0 0-.957-.33 6 6 0 0 0-.687-.116M18.333 44.67l-.002-.003-.04.039-.666-.67.036-.036-.036-.036.666-.67.04.04.002-.004L19 44zM17 41.99l-.71.706-.666-.67m-.183-.892-.354.354.537.538m-.183-.892.353-.353.538.54.668.67m-2.29-2.279-.693.722a19 19 0 0 0-1.072-.966l.633-.774c.346.283.717.62 1.132 1.018m-7.177-1.018.633.774c-.317.26-.667.577-1.072.966l-.692-.722a20 20 0 0 1 1.13-1.018m-2.216 2.087.707.707-.534.536-.003.002m-1.021.317.354.353.667-.67m-1.021.317-.354-.353.667-.67.538-.54m-2.539 2.55.003.002.039-.039.667.67L3.45 44l.036.036-.666.67-.04-.04-.002.004-.667-.67zm1.334 2.678.708-.706.672.674.532.534-.707.707q-.258-.256-.536-.538zm2.29 2.278.692-.722c.405.39.755.707 1.072.966l-.633.774a20 20 0 0 1-1.131-1.018m5.908 1.854-.424-.906c-.176.082-.344.14-.513.178a4 4 0 0 1-.406.068l.11.994q.258-.03.515-.087a3.5 3.5 0 0 0 .718-.247m1.268-.836-.633-.774a18 18 0 0 0 1.072-.966l.693.722a20 20 0 0 1-1.132 1.018m2.216-2.087-.707-.707.537-.538.667-.67.709.706-.67.671zm-5.76 3.257.11-.994a4 4 0 0 1-.405-.068 2.5 2.5 0 0 1-.514-.178l-.424.906q.355.165.718.248.256.056.515.086M8.801 37.859l.424.906q.263-.122.513-.178.202-.045.407-.068l-.11-.993q-.26.028-.516.085-.363.082-.718.248m2.276-.334-.11.994q.204.023.406.068.25.056.513.178l.424-.906a3.5 3.5 0 0 0-.718-.248 5 5 0 0 0-.515-.085M18.23 78.69l-.709-.706.068-.067-.068-.068.709-.706.77.773zm-1.54-3.094-.71.706-.77-.773-.002-.003-.594-.596.707-.707.596.598zm-2.575-2.56-.692.722a21 21 0 0 0-1.197-1.08l.632-.774c.385.315.797.69 1.258 1.132m-2.666-2.06a4 4 0 0 0-.798-.275 5 5 0 0 0-.572-.096l-.11.994q.233.026.463.077c.196.044.39.111.594.206zm-2.528-.371.11.994q-.233.026-.463.077a3 3 0 0 0-.594.206l-.211-.453m1.158-.824a5 5 0 0 0-.572.096c-.271.06-.534.152-.798.275m27.718-43.31-.003-.002-.086.085-.62-.623.083-.083-.083-.083.62-.622.086.085.003-.003.62.623zm-1.241-2.492-1.242-1.246-.708.706 1.241 1.246zm-5.267-5.26-.692.722a25 25 0 0 0-1.45-1.306l.634-.774c.46.378.956.829 1.508 1.358m-3.2-2.471-.423.905a3.7 3.7 0 0 0-.753-.26l-.59-.151.122-.94q.346.039.687.115c.325.073.64.182.957.33m-3.034-.446a6 6 0 0 0-.686.115 4.7 4.7 0 0 0-.958.33m9.324 3.897-.707.707.716.719.621.623.709-.706-.621-.623zm-5.603 15.635a4.7 4.7 0 0 0 .957-.33l-.423-.906c-.256.12-.503.205-.753.26m2.867-.468-.633-.774c.433-.354.906-.784 1.45-1.306l.692.722c-.552.53-1.047.98-1.508 1.358m2.955-2.783-.707-.707.716-.718.621-.623.709.705-.621.623zm2.58-2.589-.709-.705 1.241-1.246.709.705zM20.882 70.56c.317.148.633.257.958.33q.34.077.686.115l.11-.994a5 5 0 0 1-.578-.097 3.7 3.7 0 0 1-.752-.26zm6.37-1.114-.634-.774a25 25 0 0 0 1.45-1.306l.692.722c-.552.53-1.047.98-1.509 1.358m2.954-2.783-.707-.707.71-.711.006-.007m.975-.27-.354-.353-.62.623m-.01 1.425.716-.718.002-.002.62-.623-.354-.353m1.595-.893-.708-.705 1.241-1.247.709.706zm2.483-2.492-.003-.002-.086.085-.62-.623.083-.083-.083-.082.62-.623.086.085.003-.003.62.623zm-1.241-2.492-.71.706-1.24-1.247.708-.705zm-2.482-2.492-.71.705-.62-.623q-.373-.376-.716-.718l.707-.707q.344.343.716.718zm-2.785-2.768-.692.721a25 25 0 0 0-1.45-1.305l.634-.774c.46.377.956.828 1.508 1.358m-6.234-2.917q-.346.039-.686.115a4.7 4.7 0 0 0-.958.33l.424.906c.255-.12.503-.204.753-.26a5 5 0 0 1 .578-.097zm-3.335 1.559.633.774a25 25 0 0 0-1.45 1.306l-.692-.722c.553-.53 1.048-.98 1.509-1.358m-2.955 2.783.708.707-.715.716-.002.002-.62.623-.709-.705.622-.625zm-2.579 2.589.709.705-1.241 1.247-.709-.706zm-2.482 2.492.003.003.085-.086.62.624-.082.082.083.083-.62.623-.086-.085-.003.002-.62-.623zm1.241 2.492.709-.706 1.24 1.246-.708.706zm2.482 2.492.709-.706.626.63.71.712-.707.707-.716-.718-.002-.002zm2.785 2.768.692-.722c.543.522 1.017.952 1.45 1.306l-.634.774a26 26 0 0 1-1.508-1.358m6.233-17.175-.11.994q.291.033.578.097c.25.056.497.14.753.26l.423-.906a4.7 4.7 0 0 0-.957-.33 6 6 0 0 0-.687-.115m1.644 19.647-.423-.906c-.256.12-.503.204-.753.26a5 5 0 0 1-.578.097l.11.994q.346-.039.687-.115a4.7 4.7 0 0 0 .957-.33m2.504-27.182-.62.623.62.623.002-.002.086.085.62-.623-.082-.083.082-.083-.62-.623-.085.086zm1.24 2.492.71-.706 1.24 1.247-.708.705zm22.852-1.246-.002-.002-.086.085-.62-.623.083-.083-.083-.083.62-.623.086.086.002-.003.62.623zm-1.24-2.492-1.242-1.246-.708.706 1.24 1.246zm-2.483-2.492-.708.705-.62-.623-.717-.718.707-.707.718.72zm-2.782-2.77c-.552-.53-1.047-.98-1.509-1.358l-.633.774c.433.354.906.785 1.45 1.306zm-3.2-2.472-.423.906a3.7 3.7 0 0 0-.753-.26l.11-.488a6 6 0 0 0-.633-.106l.055-.497q.346.039.687.115c.325.073.64.182.957.33m-3.034-.445.11.994a5 5 0 0 0-.577.097c-.25.056-.498.14-.753.26l-.212-.453m1.432-.898a6 6 0 0 0-.686.115 4.7 4.7 0 0 0-.958.33m14.385 44.14-.002-.003-.086.085-.62-.623.083-.082-.083-.083.62-.623.086.085.002-.002.62.622zm-1.24-2.492-.71.705-1.24-1.246.708-.705zm-2.483-2.492-.708.705-.62-.623m-.364-1.072-.353.354.707.71.01.008m-.364-1.072.354-.353.716.717.002.002.62.624M38.196 69.22c.255-.12.503-.204.752-.26a5 5 0 0 1 .578-.097l-.11-.994q-.346.039-.686.115a4.7 4.7 0 0 0-.958.33zm-2.115.208c-.462.377-.956.828-1.509 1.358l.693.721a25 25 0 0 1 1.449-1.305zm4.725-1.559-.11.994q.291.032.578.097c.25.056.497.14.753.26l.423-.906a4.6 4.6 0 0 0-.957-.33 6 6 0 0 0-.687-.115m-12.741 9.423-.62.622.62.624.002-.003.086.085.62-.623-.082-.082.082-.083-.62-.623-.085.085zm1.24 2.492.71-.706 1.24 1.246-.708.706zm2.483 2.492.708-.706.62.624.718.718-.708.707-.715-.718zm2.784 2.768.693-.722a25 25 0 0 0 1.449 1.306l-.633.774a26 26 0 0 1-1.509-1.358m9.57 1.358a26 26 0 0 0 1.508-1.358l-.692-.722a25 25 0 0 1-1.45 1.306zm2.954-2.783-.707-.707.716-.718.62-.623.71.705-.623.625zm2.58-2.589-.71-.706 1.242-1.246.708.706zm-7.226 6.485-.423-.906c-.256.12-.503.205-.753.261a5 5 0 0 1-.578.097l.11.994q.346-.039.687-.115a4.7 4.7 0 0 0 .957-.33m-3.034.446.11-.994a5 5 0 0 1-.577-.097 3.7 3.7 0 0 1-.753-.26l-.424.905c.317.149.633.258.958.33q.34.078.686.116m5.773-27.863-.856.86.856.858.709-.705-.153-.154.153-.154zm1.712 3.437.708-.706 1.712 1.719-.708.706zm3.423 3.437.856.86.838.84.707-.707-.836-.839-.856-.86zm3.38 3.362a30 30 0 0 0 1.76 1.584l.634-.774a29 29 0 0 1-1.7-1.532zm11.165 1.584c.538-.44 1.115-.966 1.76-1.584l-.693-.722a29 29 0 0 1-1.7 1.532zm3.447-3.246-.707-.707.836-.84.856-.858.708.705-.856.86zm3.405-3.418-.709-.706 1.712-1.719.709.706zm3.423-3.437-.708-.706-.163-.154.163-.154.708-.705.855.859zm-5.135-6.875-.708.705-.856-.86m-.483-1.191-.353.353.836.839m-.483-1.192.354-.354.837.84.856.86m-3.38-3.362a30 30 0 0 0-1.76-1.584l-.633.774c.51.416 1.065.922 1.7 1.532zm-3.733-2.884-.424.906a4.4 4.4 0 0 0-.913-.316 6 6 0 0 0-.692-.115l.11-.994q.405.044.802.134c.379.085.747.212 1.117.385m-3.54-.52q-.404.045-.801.135c-.38.085-.748.212-1.117.385l.423.906a4.4 4.4 0 0 1 .913-.316q.344-.077.692-.115zm-3.891 1.82c-.539.44-1.116.966-1.76 1.584l.692.721a29 29 0 0 1 1.7-1.531zM46.9 58.38l.708.706 1.712-1.72-.708-.705zm3.423-3.437.709.705.856-.86.836-.838-.707-.707-.838.84zm21.397 1.718-.709.706 1.712 1.719.709-.706zM62.896 73.22l-.424-.906a4.4 4.4 0 0 1-.912.315q-.344.078-.693.116l.11.994q.405-.044.802-.134a5.5 5.5 0 0 0 1.117-.385m-3.54.52.11-.995a6 6 0 0 1-.692-.115 4.4 4.4 0 0 1-.913-.316l-.423.906c.37.172.738.3 1.117.385q.398.09.8.134m15.788-45.837-.708-.706.153-.154-.153-.154.708-.705.856.859zm-5.135-6.875-.708.706-.856-.86m-.483-1.192-.353.353.834.837.002.002m-.483-1.192.354-.354.837.84.856.86m-3.38-3.362-.693.722a29 29 0 0 0-1.7-1.532l.633-.774c.538.44 1.115.966 1.76 1.584m-3.733-2.883-.424.906a4.4 4.4 0 0 0-.913-.316 6 6 0 0 0-.692-.116l.11-.994q.405.044.802.134c.379.085.747.213 1.117.386m-3.54-.52q-.404.044-.801.134c-.38.085-.748.213-1.117.386l.423.905a4.4 4.4 0 0 1 .913-.315q.344-.077.692-.116zm-3.891 1.819.633.774c-.51.417-1.065.922-1.7 1.532l-.693-.722a30 30 0 0 1 1.76-1.584M45.189 26.183l.709.706-.153.153.153.154-.709.705-.856-.859zm1.712 3.437.708-.705 1.712 1.718-.708.706zm6.804 6.8.692-.722c.636.61 1.192 1.115 1.7 1.531l-.632.774a30 30 0 0 1-1.76-1.584m3.733 2.883c.37.173.738.3 1.117.385q.398.09.8.134l.111-.994a6 6 0 0 1-.692-.115 4.4 4.4 0 0 1-.913-.316zm7.43-1.3-.632-.774c.51-.416 1.065-.922 1.7-1.532l.693.722a30 30 0 0 1-1.76 1.584m-1.972 1.3-.424-.906a4.4 4.4 0 0 1-.913.316q-.343.077-.692.115l.11.994q.405-.044.802-.134a5.4 5.4 0 0 0 1.117-.385m-10.878-4.546.707-.707-.836-.839-.856-.859-.709.706.856.859zM46.9 24.464l.708.706 1.712-1.719-.708-.706zm3.423-3.437.709.706.856-.86.836-.839-.707-.706-.838.84zm21.397 1.718-.709.706 1.712 1.719.709-.706zm-55.032-10.34-.77.773-.598.6-.707-.707.596-.598.77-.774zm1.54-1.547.771-.774-.77-.773-.709.706.068.067-.068.068zm-1.54-3.094-.77-.773-.598-.6-.707.707.596.598.77.774zm-2.573-2.56c-.46-.442-.873-.818-1.258-1.132l-.632.774c.355.29.746.646 1.197 1.08zm0 9.761c-.46.442-.873.818-1.258 1.132l-.632-.774a21 21 0 0 0 1.197-1.08zm-2.667 2.06a4 4 0 0 1-.798.275q-.284.064-.572.096l-.11-.994q.233-.026.463-.077c.196-.044.39-.11.594-.206zm-2.528.371a5 5 0 0 1-.572-.096 4 4 0 0 1-.798-.275l.423-.906c.203.095.398.162.594.206q.23.051.463.077zm-2.78-1.3a22 22 0 0 1-1.257-1.13l.693-.722c.45.433.842.788 1.197 1.079zm-2.46-2.317-.598-.6-.77-.773.708-.706.771.774.597.598zM.77 10.858 0 10.084l.77-.773.709.706-.068.067.068.068zm1.54-3.094.71.706.77-.774.597-.598-.708-.707-.598.6zm2.574-2.56c.46-.442.873-.818 1.257-1.132l.633.774c-.355.29-.746.646-1.197 1.08zm2.667-2.06c.264-.124.527-.215.798-.276q.284-.063.572-.095l.11.994q-.233.026-.463.077m-1.017-.7.423.906c.203-.095.398-.162.594-.206m1.456-.574.055-.497q.288.031.572.095c.271.061.534.152.798.276l-.423.906a3 3 0 0 0-.594-.206m-.353 81.384-.11-.994q.233-.025.463-.078c.196-.044.39-.11.594-.205l.423.906a4 4 0 0 1-.798.275q-.284.063-.572.096m-1.158 0a5 5 0 0 1-.572-.096 4 4 0 0 1-.798-.276l.423-.905c.203.095.398.161.594.205q.23.052.463.078zm-2.78-1.3.634-.774a20 20 0 0 1-1.198-1.079l-.693.721c.46.442.873.818 1.258 1.132M3.68 81.61l.708-.707-.595-.596-.002-.002-.77-.774-.71.706.771.773zM.77 78.69 0 77.916l.77-.774.709.706-.068.068.068.067zm1.54-3.094.71.706.77-.773.596-.599-.707-.707-.596.598-.002.002zm10.549 8.333-.633-.774c.355-.29.746-.646 1.197-1.079l.693.721c-.46.442-.873.818-1.258 1.132m3.83-3.692-.708-.706-.77.773-.002.002-.595.597.707.707.598-.6zM4.884 73.035c.46-.442.873-.817 1.258-1.132l.632.774c-.355.291-.746.647-1.197 1.08zM14.9 31.403l.709-.705.62.623.717.718-.708.707-.717-.72zm2.784 2.768.693-.721a26 26 0 0 0 1.449 1.305l-.633.774a26 26 0 0 1-1.509-1.358m-4.025-4.014-1.241-1.246.709-.705 1.24 1.246zm-1.856-3.115.083-.083-.62-.622-.086.085-.003-.003-.62.623.62.623.003-.002.085.085.62-.623zm.615-1.869 1.241-1.246.709.706-1.241 1.246zm2.482-2.492.709.706.62-.623.717-.719-.708-.707-.717.72zm2.784-2.768c.553-.53 1.048-.98 1.509-1.358l.633.774a26 26 0 0 0-1.45 1.306zm6.18 16.678-.056-.497q.291-.031.578-.096m-.523.593.055.497q.346-.038.687-.115m-2.077.115.11-.994a5 5 0 0 1-.577-.096m-.965.192-.212.453c.317.148.633.257.958.33q.34.077.686.115m-.467-1.09a3.7 3.7 0 0 1-.753-.261l-.212.453m12.031 2.106.708.707-.717.718-.62.624-.709-.706.62-.623zm-2.579 2.589.709.706-1.241 1.246-.709-.706zm1.24 7.476.621.623.718.72.708-.707-.717-.718-.62-.623zm2.785 2.768.693-.722a25 25 0 0 0 1.449 1.306l-.633.774a26 26 0 0 1-1.509-1.358m3.2 2.472c.317.148.633.257.958.33q.34.077.686.115l.11-.994a5 5 0 0 1-.577-.096 3.7 3.7 0 0 1-.753-.261zm3.034.445q.346-.038.687-.115a4.7 4.7 0 0 0 .957-.33l-.423-.906c-.256.12-.503.205-.753.26a5 5 0 0 1-.578.097zm3.335-1.559-.633-.774a25 25 0 0 0 1.45-1.306l.692.722c-.552.53-1.047.98-1.509 1.358m2.955-2.783.718-.72.62-.623-.708-.705-.62.623-.717.718zm2.58-2.589-.71-.706 1.242-1.246.708.706zM36.08 35.513c-.462.377-.956.828-1.509 1.358l.693.722a25 25 0 0 1 1.449-1.306zm-2.955 36.699-.715.717-.003.002-.62.624.708.705.62-.623.01-.009.708-.71zm-.01 1.425-.353-.353zm-3.81 2.41 1.24-1.246.71.705-1.241 1.246zm16.344-5.26-.692.721a25 25 0 0 0-1.45-1.305l.633-.774c.462.377.957.828 1.509 1.358m24.36-37.73-1.694 1.7zm1.71-1.718-.708-.706 1.712-1.718.709.705zM10.433 3.844a4 4 0 0 0-.463-.077l.055-.497" clip-rule="evenodd"/><path d="m67.609 34.05.707.707 1.693-1.7-.708-.705q-.845.85-1.692 1.698m.836-13.177 1.564.154-2.047-1.346zm-21.34-6.51-.009 1.426.984-1.696zm0-8.557 1.33-.083-1.693-.99zM22.06 18.087q.286-.064.577-.097l-.11-.994a6 6 0 0 0-.686.115 4.7 4.7 0 0 0-.958.33l.424.906c.256-.12.503-.204.753-.26m.467 19.001-.467-1.09-.965.192zm2.077-.115-.22-.975-.522.593zm-8.98 5.054L17 41.991l-1.56-.856zm22.36-7.175 1.432-.898-1.644.445zm3.29.193.11-.488a6 6 0 0 0-.633-.106l-.056.497zm27.171 19.744 1.564.154-2.047-1.346zm-21.34 18.848 1.33-.082-1.693-.99zm-16.888-8.4-.01 1.425.984-1.696z"/></g><defs><filter id="a" width="100" height="112" x="-12" y="-12" color-interpolation-filters="sRGB" filterUnits="userSpaceOnUse"><feFlood flood-opacity="0" result="BackgroundImageFix"/><feGaussianBlur in="BackgroundImageFix" stdDeviation="6"/><feComposite in2="SourceAlpha" operator="in" result="effect1_backgroundBlur_10988_5593"/><feBlend in="SourceGraphic" in2="effect1_backgroundBlur_10988_5593" result="shape"/></filter><filter id="b" width="100" height="111.923" x="-12" y="-11.961" color-interpolation-filters="sRGB" filterUnits="userSpaceOnUse"><feFlood flood-opacity="0" result="BackgroundImageFix"/><feGaussianBlur in="BackgroundImageFix" stdDeviation="6"/><feComposite in2="SourceAlpha" operator="in" result="effect1_backgroundBlur_10988_5593"/><feBlend in="SourceGraphic" in2="effect1_backgroundBlur_10988_5593" result="shape"/></filter></defs></svg>