<svg xmlns="http://www.w3.org/2000/svg" width="56" height="56" fill="none" viewBox="0 0 56 56"><path fill="url(#a)" fill-rule="evenodd" d="M20.708 3.246C22.635 1.318 23.599.354 24.747.097a4.05 4.05 0 0 1 1.765 0c1.148.257 2.111 1.22 4.04 3.149l3.171 3.171-3.172 3.172c-1.928 1.928-2.891 2.892-4.039 3.148-.581.13-1.184.13-1.765 0-1.148-.256-2.112-1.22-4.04-3.148l-3.171-3.172zm-10.536 5.14c-1.607 1.606-2.41 2.41-3.366 2.623a3.4 3.4 0 0 1-1.471 0c-.957-.213-1.76-1.017-3.366-2.623L0 6.417 1.969 4.45c1.606-1.607 2.41-2.41 3.365-2.624a3.4 3.4 0 0 1 1.472 0c.956.214 1.76 1.017 3.366 2.624l1.968 1.968zm-7.119 17.91c1.446-1.446 2.169-2.17 3.03-2.361a3 3 0 0 1 1.324 0c.86.192 1.583.915 3.029 2.36L12.14 28l-1.704 1.704c-1.446 1.446-2.169 2.17-3.03 2.361a3 3 0 0 1-1.323 0c-.861-.192-1.584-.915-3.03-2.36L1.35 28zm3.753 27.879c.956-.214 1.76-1.017 3.366-2.624l1.968-1.968-1.968-1.97c-1.607-1.605-2.41-2.408-3.366-2.622a3.4 3.4 0 0 0-1.472 0c-.956.214-1.759 1.017-3.365 2.623L0 49.583l1.969 1.968c1.606 1.607 2.41 2.41 3.366 2.624.484.108.986.108 1.47 0m3.11-33.795c1.928 1.928 2.892 2.892 4.04 3.149.58.13 1.184.13 1.765 0 1.147-.257 2.111-1.22 4.039-3.149l3.172-3.171-3.172-3.172c-1.928-1.928-2.892-2.892-4.04-3.148a4.05 4.05 0 0 0-1.765 0c-1.147.256-2.11 1.22-4.039 3.148l-3.171 3.172zm4.04 24.731c-1.148-.256-2.112-1.22-4.04-3.148l-3.171-3.172 3.171-3.171c1.928-1.928 2.892-2.892 4.04-3.148a4.05 4.05 0 0 1 1.765 0c1.147.256 2.111 1.22 4.039 3.148l3.172 3.172-3.172 3.171c-1.928 1.928-2.892 2.892-4.04 3.148-.58.13-1.183.13-1.765 0m6.752-20.283L17.536 28l3.172 3.172c1.927 1.928 2.891 2.891 4.039 3.148.581.13 1.184.13 1.765 0 1.148-.257 2.111-1.22 4.04-3.148L33.722 28l-3.172-3.172c-1.928-1.927-2.891-2.891-4.039-3.148a4.05 4.05 0 0 0-1.765 0c-1.148.257-2.112 1.22-4.04 3.148m0 21.583c1.927-1.928 2.891-2.892 4.039-3.148a4.05 4.05 0 0 1 1.765 0c1.148.256 2.111 1.22 4.04 3.148l3.171 3.172-3.172 3.172c-1.928 1.927-2.891 2.891-4.039 3.148-.581.13-1.184.13-1.765 0-1.148-.257-2.112-1.22-4.04-3.148l-3.171-3.172zM32.7 34.416l-4.375 4.376 4.375 4.374c2.249 2.25 3.374 3.374 4.712 3.673a4.7 4.7 0 0 0 2.06 0c1.339-.3 2.463-1.424 4.712-3.673l4.375-4.374-4.375-4.376c-2.249-2.249-3.373-3.373-4.712-3.672a4.7 4.7 0 0 0-2.06 0c-1.338.299-2.463 1.423-4.712 3.672m0-21.582c2.249-2.25 3.374-3.374 4.712-3.673a4.7 4.7 0 0 1 2.06 0c1.339.3 2.463 1.424 4.712 3.673l4.375 4.375-4.375 4.375c-2.249 2.249-3.373 3.373-4.712 3.672a4.7 4.7 0 0 1-2.06 0c-1.338-.299-2.463-1.424-4.712-3.672l-4.375-4.375z" clip-rule="evenodd"/><defs><linearGradient id="a" x1="27.551" x2="49.65" y1="0" y2=".443" gradientUnits="userSpaceOnUse"><stop stop-color="#FCFCFD"/><stop offset="1" stop-color="#E0E1E6"/></linearGradient></defs></svg>