<svg xmlns="http://www.w3.org/2000/svg" width="185" height="32" fill="none" viewBox="0 0 185 32"><path fill="url(#a)" fill-rule="evenodd" d="M11.833 1.855C12.934.753 13.485.202 14.141.055a2.3 2.3 0 0 1 1.009 0c.656.147 1.206.698 2.308 1.8l1.812 1.812-1.812 1.812c-1.102 1.102-1.652 1.653-2.308 1.8a2.3 2.3 0 0 1-1.009 0c-.656-.147-1.207-.698-2.308-1.8l-1.812-1.812zm-6.02 2.937c-.919.918-1.378 1.377-1.924 1.5a1.9 1.9 0 0 1-.84 0c-.547-.123-1.006-.582-1.924-1.5L0 3.667l1.125-1.125c.918-.918 1.377-1.377 1.923-1.499.277-.062.564-.062.841 0 .546.122 1.005.581 1.923 1.5l1.125 1.124zM1.744 15.026c.826-.826 1.239-1.24 1.73-1.35.25-.055.508-.055.757 0 .492.11.905.524 1.731 1.35l.974.974-.974.974c-.826.826-1.239 1.24-1.73 1.35-.25.055-.508.055-.757 0-.492-.11-.905-.524-1.731-1.35L.77 16zm2.144 15.931c.546-.122 1.005-.581 1.923-1.5l1.125-1.124-1.125-1.125c-.918-.918-1.377-1.377-1.923-1.499a1.9 1.9 0 0 0-.84 0c-.547.122-1.006.581-1.924 1.499L0 28.333l1.125 1.125c.918.918 1.377 1.377 1.923 1.5.277.061.564.061.841 0m1.777-19.311c1.102 1.101 1.653 1.652 2.308 1.799.333.074.677.074 1.01 0 .655-.147 1.206-.697 2.307-1.8l1.813-1.811L11.29 8.02c-1.1-1.1-1.65-1.65-2.307-1.798a2.3 2.3 0 0 0-1.009 0c-.655.147-1.206.698-2.308 1.8L3.854 9.833zm2.308 14.132c-.655-.147-1.206-.697-2.308-1.799l-1.812-1.812 1.812-1.813c1.102-1.101 1.653-1.652 2.308-1.799a2.3 2.3 0 0 1 1.01 0c.655.147 1.206.698 2.307 1.799l1.813 1.813-1.813 1.812c-1.101 1.102-1.652 1.652-2.308 1.799a2.3 2.3 0 0 1-1.009 0m3.859-11.59L10.021 16l1.812 1.812c1.101 1.102 1.652 1.653 2.308 1.8a2.3 2.3 0 0 0 1.009 0c.656-.147 1.206-.698 2.308-1.8L19.27 16l-1.812-1.812c-1.102-1.102-1.652-1.653-2.308-1.8a2.3 2.3 0 0 0-1.009 0c-.656.147-1.207.698-2.308 1.8m0 12.332c1.101-1.101 1.652-1.652 2.308-1.798a2.3 2.3 0 0 1 1.009 0c.656.146 1.206.697 2.308 1.798l1.812 1.813-1.812 1.813c-1.102 1.101-1.652 1.652-2.308 1.798a2.3 2.3 0 0 1-1.009 0c-.656-.146-1.207-.697-2.308-1.799l-1.812-1.812zm6.854-6.853-2.5 2.5 2.5 2.5c1.285 1.285 1.928 1.927 2.693 2.098.387.087.79.087 1.177 0 .765-.17 1.407-.813 2.692-2.099l2.5-2.5-2.5-2.5c-1.285-1.285-1.927-1.927-2.692-2.098a2.7 2.7 0 0 0-1.177 0c-.765.17-1.408.813-2.693 2.099m0-12.333c1.285-1.286 1.928-1.928 2.693-2.1.387-.086.79-.086 1.177 0 .765.172 1.407.814 2.692 2.1l2.5 2.5-2.5 2.5c-1.285 1.285-1.927 1.927-2.692 2.098-.388.087-.79.087-1.177 0-.765-.17-1.408-.813-2.693-2.099l-2.5-2.5zm89.064 12.62c.146 4.13 2.49 6.59 7.176 6.59 4.101 0 7.059-2.05 7.059-6.004 0-2.812-1.611-4.686-4.394-5.712l-3.368-1.23c-1.962-.732-2.49-1.347-2.49-2.724 0-1.552 1.172-2.49 3.105-2.49 1.904 0 3.281 1.084 3.486 3.222h3.368c-.146-3.222-2.636-6.15-6.737-6.15-3.925 0-6.59 1.991-6.59 5.77 0 2.636 1.494 4.364 4.071 5.301l3.691 1.348c1.757.644 2.49 1.406 2.49 2.811 0 1.758-1.319 2.93-3.545 2.93-2.519 0-3.807-1.29-3.954-3.662zm-54.195.293c0 3.954-2.343 6.005-6.444 6.005h-7.03V5.748h6.737c3.515 0 5.859 1.611 5.859 5.565 0 2.197-1.26 3.457-2.9 4.101 2.226.557 3.778 1.933 3.778 4.833M46.234 8.824H43.45v5.565h2.783c1.757 0 3.075-.586 3.075-2.783s-1.318-2.782-3.075-2.782m.878 8.201H43.45v6.151h3.661c2.344 0 3.076-1.318 3.076-3.075s-.732-3.076-3.076-3.076m25.142 9.227H68.74l-1.26-4.833h-6.678l-1.259 4.833h-3.398l5.858-20.504h4.394zm-5.565-7.909-2.548-9.93-2.549 9.93zm12.234 7.909h3.368v-7.909l6.444-12.595H85.22l-4.599 9.637-4.627-9.637h-3.515l6.444 12.595zm25.443 0H92.649V5.748h11.424v3.076h-8.055v4.98h7.762v3.075h-7.762v6.297h8.348zm33.409 0h-11.13V5.748h3.368v17.428h7.762zm4.666 0h3.369V5.748h-3.369zm24.292 0h-4.686L155.31 9.82v16.432h-3.222V5.748h4.686l6.737 16.432V5.748h3.222zm6.271 0h11.717v-3.076h-8.348V16.88h7.762v-3.076h-7.762v-4.98h8.055V5.749h-11.424z" clip-rule="evenodd"/><defs><linearGradient id="a" x1="104.803" x2="187.429" y1="0" y2="11.015" gradientUnits="userSpaceOnUse"><stop stop-color="#FCFCFD"/><stop offset="1" stop-color="#E0E1E6"/></linearGradient></defs></svg>