<svg xmlns="http://www.w3.org/2000/svg" width="72" height="72" fill="none" viewBox="0 0 72 72"><path fill="#60646c" d="M0 1h1v1H0zm6 0h1v1H6zm6 0h1v1h-1zm6 0h1v1h-1zm9 0h1v1h-1zm6 0h1v1h-1zm3 0h1v1h-1zm3 0h1v1h-1zm6 0h1v1h-1zm3 0h1v1h-1zm9 0h1v1h-1zm3 0h1v1h-1zm9 0h1v1h-1zM6 4h1v1H6zm6 0h1v1h-1zm3 0h1v1h-1zm3 0h1v1h-1zm6 0h1v1h-1zm3 0h1v1h-1zm3 0h1v1h-1zm6 0h1v1h-1zm3 0h1v1h-1zm9 0h1v1h-1zm6 0h1v1h-1zm3 0h1v1h-1zm9 0h1v1h-1zM0 7h1v1H0zm6 0h1v1H6zm6 0h1v1h-1zm3 0h1v1h-1zm3 0h1v1h-1zm3 0h1v1h-1zm6 0h1v1h-1zm3 0h1v1h-1zm3 0h1v1h-1zm6 0h1v1h-1zm3 0h1v1h-1zm3 0h1v1h-1zm3 0h1v1h-1zm3 0h1v1h-1zm6 0h1v1h-1zm3 0h1v1h-1zm-45 3h1v1h-1zm6 0h1v1h-1zm3 0h1v1h-1zm3 0h1v1h-1zm0 3h1v1h-1zm3-3h1v1h-1zm0 3h1v1h-1zm3-3h1v1h-1zm0 3h1v1h-1zm3-3h1v1h-1zm0 3h1v1h-1zm3-3h1v1h-1zm0 3h1v1h-1zm3-3h1v1h-1zm0 3h1v1h-1zm3-3h1v1h-1zm6 0h1v1h-1zm3 0h1v1h-1zm6 0h1v1h-1zM0 13h1v1H0zm3 0h1v1H3zm3 0h1v1H6zm3 0h1v1H9zm3 0h1v1h-1zm6 0h1v1h-1zm3 0h1v1h-1zm3 0h1v1h-1zm0 3h1v1h-1zm21-3h1v1h-1zm0 3h1v1h-1zm3-3h1v1h-1zm3 0h1v1h-1zm3 0h1v1h-1zm3 0h1v1h-1zm3 0h1v1h-1zm3 0h1v1h-1zM3 16h1v1H3zm3 0h1v1H6zm9 0h1v1h-1zm3 0h1v1h-1zm3 0h1v1h-1zm27 0h1v1h-1zm3 0h1v1h-1zm3 0h1v1h-1zm3 0h1v1h-1zm6 0h1v1h-1zm3 0h1v1h-1zm3 0h1v1h-1zM0 19h1v1H0zm6 0h1v1H6zm3 0h1v1H9zm3 0h1v1h-1zm3 0h1v1h-1zm3 0h1v1h-1zm3 0h1v1h-1zm27 0h1v1h-1zm3 0h1v1h-1zm3 0h1v1h-1zm6 0h1v1h-1zm6 0h1v1h-1zM9 22h1v1H9zm3 0h1v1h-1zm3 0h1v1h-1zm3 0h1v1h-1zm12 0h1v1h-1zm3 0h1v1h-1zm3 0h1v1h-1zm15 0h1v1h-1zm3 0h1v1h-1zm3 0h1v1h-1zm3 0h1v1h-1zm6 0h1v1h-1zM0 25h1v1H0zm3 0h1v1H3zm3 0h1v1H6zm3 0h1v1H9zm3 0h1v1h-1zm3 0h1v1h-1zm3 0h1v1h-1zm9 0h1v1h-1zm3 0h1v1h-1zm3 0h1v1h-1zm3 0h1v1h-1zm3 0h1v1h-1zm3 0h1v1h-1zm9 0h1v1h-1zm3 0h1v1h-1zm3 0h1v1h-1zm3 0h1v1h-1zm3 0h1v1h-1zm6 0h1v1h-1zM3 28h1v1H3zm3 0h1v1H6zm3 0h1v1H9zm3 0h1v1h-1zm15 0h1v1h-1zm3 0h1v1h-1zm3 0h1v1h-1zm3 0h1v1h-1zm3 0h1v1h-1zm3 0h1v1h-1zm12 0h1v1h-1zm3 0h1v1h-1zm3 0h1v1h-1zm3 0h1v1h-1zm3 0h1v1h-1zm3 0h1v1h-1zM0 31h1v1H0zm3 0h1v1H3zm3 0h1v1H6zm3 0h1v1H9zm12 0h1v1h-1zm3 0h1v1h-1zm3 0h1v1h-1zm3 0h1v1h-1zm3 0h1v1h-1zm3 0h1v1h-1zm3 0h1v1h-1zm3 0h1v1h-1zm18 0h1v1h-1zm3 0h1v1h-1zm3 0h1v1h-1zM3 34h1v1H3zm3 0h1v1H6zm12 0h1v1h-1zm3 0h1v1h-1zm3 0h1v1h-1zm3 0h1v1h-1zm3 0h1v1h-1zm3 0h1v1h-1zm3 0h1v1h-1zm3 0h1v1h-1zm3 0h1v1h-1zm3 0h1v1h-1zm3 0h1v1h-1zm12 0h1v1h-1zm3 0h1v1h-1zm3 0h1v1h-1zm4 0h1v1h-1zM0 37h1v1H0zm3 0h1v1H3zm3 0h1v1H6zm12 0h1v1h-1zm3 0h1v1h-1zm3 0h1v1h-1zm3 0h1v1h-1zm6 0h1v1h-1zm3 0h1v1h-1zm3 0h1v1h-1zm3 0h1v1h-1zm3 0h1v1h-1zm3 0h1v1h-1zm3 0h1v1h-1zm12 0h1v1h-1zm3 0h1v1h-1zM0 40h1v1H0zm3 0h1v1H3zm3 0h1v1H6zm12 0h1v1h-1zm3 0h1v1h-1zm3 0h1v1h-1zm3 0h1v1h-1zm3 0h1v1h-1zm3 0h1v1h-1zm3 0h1v1h-1zm3 0h1v1h-1zm3 0h1v1h-1zm3 0h1v1h-1zm3 0h1v1h-1zm3 0h1v1h-1zm12 0h1v1h-1zm3 0h1v1h-1zm4 0h1v1h-1zM3 43h1v1H3zm3 0h1v1H6zm12 0h1v1h-1zm3 0h1v1h-1zm3 0h1v1h-1zm3 0h1v1h-1zm3 0h1v1h-1zm3 0h1v1h-1zm3 0h1v1h-1zm3 0h1v1h-1zm3 0h1v1h-1zm3 0h1v1h-1zm3 0h1v1h-1zm3 0h1v1h-1zm12 0h1v1h-1zm3 0h1v1h-1zM3 46h1v1H3zm3 0h1v1H6zm3 0h1v1H9zm51 0h1v1h-1zm3 0h1v1h-1zm3 0h1v1h-1zm4 0h1v1h-1zM6 49h1v1H6zm3 0h1v1H9zm3 0h1v1h-1zm48 0h1v1h-1zm-3 0h1v1h-1zm6 0h1v1h-1zm3 0h1v1h-1zM0 52h1v1H0zm3 0h1v1H3zm3 0h1v1H6zm3 0h1v1H9zm3 0h1v1h-1zm3 0h1v1h-1zm39 0h1v1h-1zm3 0h1v1h-1zm3 0h1v1h-1zm3 0h1v1h-1zm3 0h1v1h-1zM0 55h1v1H0zm6 0h1v1H6zm3 0h1v1H9zm3 0h1v1h-1zm3 0h1v1h-1zm3 0h1v1h-1zm0-3h1v1h-1zm3 3h1v1h-1zm0-3h1v1h-1zm3 3h1v1h-1zm0-3h1v1h-1zm3 3h1v1h-1zm0-3h1v1h-1zm3 3h1v1h-1zm0-3h1v1h-1zm3 3h1v1h-1zm0-3h1v1h-1zm3 3h1v1h-1zm0-3h1v1h-1zm3 3h1v1h-1zm0-3h1v1h-1zm3 3h1v1h-1zm0-3h1v1h-1zm3 3h1v1h-1zm0-3h1v1h-1zm3 3h1v1h-1zm0-3h1v1h-1zm3 3h1v1h-1zm0-3h1v1h-1zm3 3h1v1h-1zm3 0h1v1h-1zm3 0h1v1h-1zm6 0h1v1h-1zm3 0h1v1h-1zM0 58h1v1H0zm3 0h1v1H3zm3 0h1v1H6zm3 0h1v1H9zm3 0h1v1h-1zm3 0h1v1h-1zm3 0h1v1h-1zm3 0h1v1h-1zm3 0h1v1h-1zm6 0h1v1h-1zm3 0h1v1h-1zm3 0h1v1h-1zm6 0h1v1h-1zm3 0h1v1h-1zm3 0h1v1h-1zm6 0h1v1h-1zm3 0h1v1h-1zm3 0h1v1h-1zm3 0h1v1h-1zM6 61h1v1H6zm3 0h1v1H9zm9 0h1v1h-1zm3 0h1v1h-1zm12 0h1v1h-1zm6 0h1v1h-1zm3 0h1v1h-1zm3 0h1v1h-1zm3 0h1v1h-1zm6 0h1v1h-1zm3 0h1v1h-1zm9 0h1v1h-1zM3 64h1v1H3zm3 0h1v1H6zm3 0h1v1H9zm3 0h1v1h-1zm6 0h1v1h-1zm3 0h1v1h-1zm3 0h1v1h-1zm3 0h1v1h-1zm6 0h1v1h-1zm3 0h1v1h-1zm3 0h1v1h-1zm9 0h1v1h-1zm6 0h1v1h-1zm3 0h1v1h-1zm3 0h1v1h-1zM9 67h1v1H9zm12 0h1v1h-1zm6 0h1v1h-1zm9 0h1v1h-1zm3 0h1v1h-1zm3 0h1v1h-1zm3 0h1v1h-1zm12 0h1v1h-1zm6 0h1v1h-1zM1 0h1v1H1zm6 0h1v1H7zm6 0h1v1h-1zm6 0h1v1h-1zm9 0h1v1h-1zm6 0h1v1h-1zm3 0h1v1h-1zm3 0h1v1h-1zm6 0h1v1h-1zm3 0h1v1h-1zm9 0h1v1h-1zm3 0h1v1h-1zm9 0h1v1h-1zM7 3h1v1H7zm6 0h1v1h-1zm3 0h1v1h-1zm3 0h1v1h-1zm6 0h1v1h-1zm3 0h1v1h-1zm3 0h1v1h-1zm6 0h1v1h-1zm3 0h1v1h-1zm9 0h1v1h-1zm6 0h1v1h-1zm3 0h1v1h-1zm9 0h1v1h-1zM1 6h1v1H1zm6 0h1v1H7zm6 0h1v1h-1zm3 0h1v1h-1zm3 0h1v1h-1zm3 0h1v1h-1zm6 0h1v1h-1zm3 0h1v1h-1zm3 0h1v1h-1zm6 0h1v1h-1zm3 0h1v1h-1zm3 0h1v1h-1zm3 0h1v1h-1zm3 0h1v1h-1zm6 0h1v1h-1zm3 0h1v1h-1zM16 9h1v1h-1zm6 0h1v1h-1zm3 0h1v1h-1zm3 0h1v1h-1zm0 3h1v1h-1zm3-3h1v1h-1zm0 3h1v1h-1zm3-3h1v1h-1zm0 3h1v1h-1zm3-3h1v1h-1zm0 3h1v1h-1zm3-3h1v1h-1zm0 3h1v1h-1zm3-3h1v1h-1zm0 3h1v1h-1zm3-3h1v1h-1zm6 0h1v1h-1zm3 0h1v1h-1zm6 0h1v1h-1zM1 12h1v1H1zm3 0h1v1H4zm3 0h1v1H7zm3 0h1v1h-1zm3 0h1v1h-1zm6 0h1v1h-1zm3 0h1v1h-1zm3 0h1v1h-1zm0 3h1v1h-1zm21-3h1v1h-1zm0 3h1v1h-1zm3-3h1v1h-1zm3 0h1v1h-1zm3 0h1v1h-1zm3 0h1v1h-1zm3 0h1v1h-1zm3 0h1v1h-1zM4 15h1v1H4zm3 0h1v1H7zm9 0h1v1h-1zm3 0h1v1h-1zm3 0h1v1h-1zm27 0h1v1h-1zm3 0h1v1h-1zm3 0h1v1h-1zm3 0h1v1h-1zm6 0h1v1h-1zm3 0h1v1h-1zm3 0h1v1h-1zM1 18h1v1H1zm6 0h1v1H7zm3 0h1v1h-1zm3 0h1v1h-1zm3 0h1v1h-1zm3 0h1v1h-1zm3 0h1v1h-1zm27 0h1v1h-1zm3 0h1v1h-1zm3 0h1v1h-1zm6 0h1v1h-1zm6 0h1v1h-1zm-57 3h1v1h-1zm3 0h1v1h-1zm3 0h1v1h-1zm3 0h1v1h-1zm12 0h1v1h-1zm3 0h1v1h-1zm3 0h1v1h-1zm15 0h1v1h-1zm3 0h1v1h-1zm3 0h1v1h-1zm3 0h1v1h-1zm6 0h1v1h-1zM1 24h1v1H1zm3 0h1v1H4zm3 0h1v1H7zm3 0h1v1h-1zm3 0h1v1h-1zm3 0h1v1h-1zm3 0h1v1h-1zm9 0h1v1h-1zm3 0h1v1h-1zm3 0h1v1h-1zm3 0h1v1h-1zm3 0h1v1h-1zm3 0h1v1h-1zm9 0h1v1h-1zm3 0h1v1h-1zm3 0h1v1h-1zm3 0h1v1h-1zm3 0h1v1h-1zm6 0h1v1h-1zM4 27h1v1H4zm3 0h1v1H7zm3 0h1v1h-1zm3 0h1v1h-1zm15 0h1v1h-1zm3 0h1v1h-1zm3 0h1v1h-1zm3 0h1v1h-1zm3 0h1v1h-1zm3 0h1v1h-1zm12 0h1v1h-1zm3 0h1v1h-1zm3 0h1v1h-1zm3 0h1v1h-1zm3 0h1v1h-1zm3 0h1v1h-1zM1 30h1v1H1zm3 0h1v1H4zm3 0h1v1H7zm3 0h1v1h-1zm12 0h1v1h-1zm3 0h1v1h-1zm3 0h1v1h-1zm3 0h1v1h-1zm3 0h1v1h-1zm3 0h1v1h-1zm3 0h1v1h-1zm3 0h1v1h-1zm18 0h1v1h-1zm3 0h1v1h-1zm3 0h1v1h-1zM4 33h1v1H4zm3 0h1v1H7zm12 0h1v1h-1zm3 0h1v1h-1zm3 0h1v1h-1zm3 0h1v1h-1zm3 0h1v1h-1zm3 0h1v1h-1zm3 0h1v1h-1zm3 0h1v1h-1zm3 0h1v1h-1zm3 0h1v1h-1zm3 0h1v1h-1zm12 0h1v1h-1zm3 0h1v1h-1zm3 0h1v1h-1zm4 0h1v1h-1zM1 36h1v1H1zm3 0h1v1H4zm3 0h1v1H7zm12 0h1v1h-1zm3 0h1v1h-1zm3 0h1v1h-1zm3 0h1v1h-1zm6 0h1v1h-1zm3 0h1v1h-1zm3 0h1v1h-1zm3 0h1v1h-1zm3 0h1v1h-1zm3 0h1v1h-1zm3 0h1v1h-1zm12 0h1v1h-1zm3 0h1v1h-1zM1 39h1v1H1zm3 0h1v1H4zm3 0h1v1H7zm12 0h1v1h-1zm3 0h1v1h-1zm3 0h1v1h-1zm3 0h1v1h-1zm3 0h1v1h-1zm3 0h1v1h-1zm3 0h1v1h-1zm3 0h1v1h-1zm3 0h1v1h-1zm3 0h1v1h-1zm3 0h1v1h-1zm3 0h1v1h-1zm12 0h1v1h-1zm3 0h1v1h-1zm4 0h1v1h-1zM4 42h1v1H4zm3 0h1v1H7zm12 0h1v1h-1zm3 0h1v1h-1zm3 0h1v1h-1zm3 0h1v1h-1zm3 0h1v1h-1zm3 0h1v1h-1zm3 0h1v1h-1zm3 0h1v1h-1zm3 0h1v1h-1zm3 0h1v1h-1zm3 0h1v1h-1zm3 0h1v1h-1zm12 0h1v1h-1zm3 0h1v1h-1zM4 45h1v1H4zm3 0h1v1H7zm3 0h1v1h-1zm51 0h1v1h-1zm3 0h1v1h-1zm3 0h1v1h-1zm4 0h1v1h-1zM7 48h1v1H7zm3 0h1v1h-1zm3 0h1v1h-1zm48 0h1v1h-1zm-3 0h1v1h-1zm6 0h1v1h-1zm3 0h1v1h-1zM1 51h1v1H1zm3 0h1v1H4zm3 0h1v1H7zm3 0h1v1h-1zm3 0h1v1h-1zm3 0h1v1h-1zm39 0h1v1h-1zm3 0h1v1h-1zm3 0h1v1h-1zm3 0h1v1h-1zm3 0h1v1h-1zM1 54h1v1H1zm6 0h1v1H7zm3 0h1v1h-1zm3 0h1v1h-1zm3 0h1v1h-1zm3 0h1v1h-1zm0-3h1v1h-1zm3 3h1v1h-1zm0-3h1v1h-1zm3 3h1v1h-1zm0-3h1v1h-1zm3 3h1v1h-1zm0-3h1v1h-1zm3 3h1v1h-1zm0-3h1v1h-1zm3 3h1v1h-1zm0-3h1v1h-1zm3 3h1v1h-1zm0-3h1v1h-1zm3 3h1v1h-1zm0-3h1v1h-1zm3 3h1v1h-1zm0-3h1v1h-1zm3 3h1v1h-1zm0-3h1v1h-1zm3 3h1v1h-1zm0-3h1v1h-1zm3 3h1v1h-1zm0-3h1v1h-1zm3 3h1v1h-1zm3 0h1v1h-1zm3 0h1v1h-1zm6 0h1v1h-1zm3 0h1v1h-1zM1 57h1v1H1zm3 0h1v1H4zm3 0h1v1H7zm3 0h1v1h-1zm3 0h1v1h-1zm3 0h1v1h-1zm3 0h1v1h-1zm3 0h1v1h-1zm3 0h1v1h-1zm6 0h1v1h-1zm3 0h1v1h-1zm3 0h1v1h-1zm6 0h1v1h-1zm3 0h1v1h-1zm3 0h1v1h-1zm6 0h1v1h-1zm3 0h1v1h-1zm3 0h1v1h-1zm3 0h1v1h-1zM7 60h1v1H7zm3 0h1v1h-1zm9 0h1v1h-1zm3 0h1v1h-1zm12 0h1v1h-1zm6 0h1v1h-1zm3 0h1v1h-1zm3 0h1v1h-1zm3 0h1v1h-1zm6 0h1v1h-1zm3 0h1v1h-1zm9 0h1v1h-1zM4 63h1v1H4zm3 0h1v1H7zm3 0h1v1h-1zm3 0h1v1h-1zm6 0h1v1h-1zm3 0h1v1h-1zm3 0h1v1h-1zm3 0h1v1h-1zm6 0h1v1h-1zm3 0h1v1h-1zm3 0h1v1h-1zm9 0h1v1h-1zm6 0h1v1h-1zm3 0h1v1h-1zm3 0h1v1h-1zm-51 3h1v1h-1zm12 0h1v1h-1zm6 0h1v1h-1zm9 0h1v1h-1zm3 0h1v1h-1zm3 0h1v1h-1zm3 0h1v1h-1zm12 0h1v1h-1zm6 0h1v1h-1zM3 70h1v1H3zm3 0h1v1H6zm12 0h1v1h-1zm6 0h1v1h-1zm3 0h1v1h-1zm6 0h1v1h-1zm3 0h1v1h-1zm15 0h1v1h-1zm6 0h1v1h-1zm3 0h1v1h-1zm6 0h1v1h-1zM4 69h1v1H4zm3 0h1v1H7zm12 0h1v1h-1zm6 0h1v1h-1zm3 0h1v1h-1zm6 0h1v1h-1zm3 0h1v1h-1zm15 0h1v1h-1zm6 0h1v1h-1zm3 0h1v1h-1zm6 0h1v1h-1zM4 71h1v1H4zm3 0h1v1H7zm12 0h1v1h-1zm6 0h1v1h-1zm3 0h1v1h-1zm6 0h1v1h-1zm3 0h1v1h-1zm15 0h1v1h-1zm6 0h1v1h-1zm3 0h1v1h-1zm6 0h1v1h-1zM1 2h1v1H1zm6 0h1v1H7zm6 0h1v1h-1zm6 0h1v1h-1zm9 0h1v1h-1zm6 0h1v1h-1zm3 0h1v1h-1zm3 0h1v1h-1zm6 0h1v1h-1zm3 0h1v1h-1zm9 0h1v1h-1zm3 0h1v1h-1zm9 0h1v1h-1zM7 5h1v1H7zm6 0h1v1h-1zm3 0h1v1h-1zm3 0h1v1h-1zm6 0h1v1h-1zm3 0h1v1h-1zm3 0h1v1h-1zm6 0h1v1h-1zm3 0h1v1h-1zm9 0h1v1h-1zm6 0h1v1h-1zm3 0h1v1h-1zm9 0h1v1h-1zM1 8h1v1H1zm6 0h1v1H7zm6 0h1v1h-1zm3 0h1v1h-1zm3 0h1v1h-1zm3 0h1v1h-1zm6 0h1v1h-1zm3 0h1v1h-1zm3 0h1v1h-1zm6 0h1v1h-1zm3 0h1v1h-1zm3 0h1v1h-1zm3 0h1v1h-1zm3 0h1v1h-1zm6 0h1v1h-1zm3 0h1v1h-1zm-45 3h1v1h-1zm6 0h1v1h-1zm3 0h1v1h-1zm3 0h1v1h-1zm0 3h1v1h-1zm3-3h1v1h-1zm0 3h1v1h-1zm3-3h1v1h-1zm0 3h1v1h-1zm3-3h1v1h-1zm0 3h1v1h-1zm3-3h1v1h-1zm0 3h1v1h-1zm3-3h1v1h-1zm0 3h1v1h-1zm3-3h1v1h-1zm6 0h1v1h-1zm3 0h1v1h-1zm6 0h1v1h-1zM1 14h1v1H1zm3 0h1v1H4zm3 0h1v1H7zm3 0h1v1h-1zm3 0h1v1h-1zm6 0h1v1h-1zm3 0h1v1h-1zm3 0h1v1h-1zm0 3h1v1h-1zm21-3h1v1h-1zm0 3h1v1h-1zm3-3h1v1h-1zm3 0h1v1h-1zm3 0h1v1h-1zm3 0h1v1h-1zm3 0h1v1h-1zm3 0h1v1h-1zM4 17h1v1H4zm3 0h1v1H7zm9 0h1v1h-1zm3 0h1v1h-1zm3 0h1v1h-1zm27 0h1v1h-1zm3 0h1v1h-1zm3 0h1v1h-1zm3 0h1v1h-1zm6 0h1v1h-1zm3 0h1v1h-1zm3 0h1v1h-1zm0-7h1v1h-1zm0 50h1v1h-1zm1-51h1v1h-1zm0 50h1v1h-1zm0-48h1v1h-1zm0 50h1v1h-1zM1 20h1v1H1zm6 0h1v1H7zm3 0h1v1h-1zm3 0h1v1h-1zm3 0h1v1h-1zm3 0h1v1h-1zm3 0h1v1h-1zm27 0h1v1h-1zm3 0h1v1h-1zm3 0h1v1h-1zm6 0h1v1h-1zm6 0h1v1h-1zm-57 3h1v1h-1zm3 0h1v1h-1zm3 0h1v1h-1zm3 0h1v1h-1zm12 0h1v1h-1zm3 0h1v1h-1zm3 0h1v1h-1zm15 0h1v1h-1zm3 0h1v1h-1zm3 0h1v1h-1zm3 0h1v1h-1zm6 0h1v1h-1zM1 26h1v1H1zm3 0h1v1H4zm3 0h1v1H7zm3 0h1v1h-1zm3 0h1v1h-1zm3 0h1v1h-1zm3 0h1v1h-1zm9 0h1v1h-1zm3 0h1v1h-1zm3 0h1v1h-1zm3 0h1v1h-1zm3 0h1v1h-1zm3 0h1v1h-1zm9 0h1v1h-1zm3 0h1v1h-1zm3 0h1v1h-1zm3 0h1v1h-1zm3 0h1v1h-1zm6 0h1v1h-1zM4 29h1v1H4zm3 0h1v1H7zm3 0h1v1h-1zm3 0h1v1h-1zm15 0h1v1h-1zm3 0h1v1h-1zm3 0h1v1h-1zm3 0h1v1h-1zm3 0h1v1h-1zm3 0h1v1h-1zm12 0h1v1h-1zm3 0h1v1h-1zm3 0h1v1h-1zm3 0h1v1h-1zm3 0h1v1h-1zm3 0h1v1h-1zM1 32h1v1H1zm3 0h1v1H4zm3 0h1v1H7zm3 0h1v1h-1zm12 0h1v1h-1zm3 0h1v1h-1zm3 0h1v1h-1zm3 0h1v1h-1zm3 0h1v1h-1zm3 0h1v1h-1zm3 0h1v1h-1zm3 0h1v1h-1zm18 0h1v1h-1zm3 0h1v1h-1zm3 0h1v1h-1zM4 35h1v1H4zm3 0h1v1H7zm12 0h1v1h-1zm3 0h1v1h-1zm3 0h1v1h-1zm3 0h1v1h-1zm3 0h1v1h-1zm3 0h1v1h-1zm3 0h1v1h-1zm3 0h1v1h-1zm3 0h1v1h-1zm3 0h1v1h-1zm3 0h1v1h-1zm12 0h1v1h-1zm3 0h1v1h-1zm3 0h1v1h-1zm4 0h1v1h-1zM1 38h1v1H1zm3 0h1v1H4zm3 0h1v1H7zm12 0h1v1h-1zm3 0h1v1h-1zm3 0h1v1h-1zm3 0h1v1h-1zm6 0h1v1h-1zm3 0h1v1h-1zm3 0h1v1h-1zm3 0h1v1h-1zm3 0h1v1h-1zm3 0h1v1h-1zm3 0h1v1h-1zm12 0h1v1h-1zm3 0h1v1h-1zm4 0h1v1h-1zM1 41h1v1H1zm3 0h1v1H4zm3 0h1v1H7zm12 0h1v1h-1zm3 0h1v1h-1zm3 0h1v1h-1zm3 0h1v1h-1zm3 0h1v1h-1zm3 0h1v1h-1zm3 0h1v1h-1zm3 0h1v1h-1zm3 0h1v1h-1zm3 0h1v1h-1zm3 0h1v1h-1zm3 0h1v1h-1zm12 0h1v1h-1zm3 0h1v1h-1zm4 0h1v1h-1zM4 44h1v1H4zm3 0h1v1H7zm12 0h1v1h-1zm3 0h1v1h-1zm3 0h1v1h-1zm3 0h1v1h-1zm3 0h1v1h-1zm3 0h1v1h-1zm3 0h1v1h-1zm3 0h1v1h-1zm3 0h1v1h-1zm3 0h1v1h-1zm3 0h1v1h-1zm3 0h1v1h-1zm12 0h1v1h-1zm3 0h1v1h-1zM4 47h1v1H4zm3 0h1v1H7zm3 0h1v1h-1zm51 0h1v1h-1zm3 0h1v1h-1zm3 0h1v1h-1zm4 0h1v1h-1zM7 50h1v1H7zm3 0h1v1h-1zm3 0h1v1h-1zm48 0h1v1h-1zm-3 0h1v1h-1zm6 0h1v1h-1zm3 0h1v1h-1zM1 53h1v1H1zm3 0h1v1H4zm3 0h1v1H7zm3 0h1v1h-1zm3 0h1v1h-1zm3 0h1v1h-1zm39 0h1v1h-1zm3 0h1v1h-1zm3 0h1v1h-1zm3 0h1v1h-1zm3 0h1v1h-1zM1 56h1v1H1zm6 0h1v1H7zm3 0h1v1h-1zm3 0h1v1h-1zm3 0h1v1h-1zm3 0h1v1h-1zm0-3h1v1h-1zm3 3h1v1h-1zm0-3h1v1h-1zm3 3h1v1h-1zm0-3h1v1h-1zm3 3h1v1h-1zm0-3h1v1h-1zm3 3h1v1h-1zm0-3h1v1h-1zm3 3h1v1h-1zm0-3h1v1h-1zm3 3h1v1h-1zm0-3h1v1h-1zm3 3h1v1h-1zm0-3h1v1h-1zm3 3h1v1h-1zm0-3h1v1h-1zm3 3h1v1h-1zm0-3h1v1h-1zm3 3h1v1h-1zm0-3h1v1h-1zm3 3h1v1h-1zm0-3h1v1h-1zm3 3h1v1h-1zm3 0h1v1h-1zm3 0h1v1h-1zm6 0h1v1h-1zm3 0h1v1h-1zM1 59h1v1H1zm3 0h1v1H4zm3 0h1v1H7zm3 0h1v1h-1zm3 0h1v1h-1zm3 0h1v1h-1zm3 0h1v1h-1zm3 0h1v1h-1zm3 0h1v1h-1zm6 0h1v1h-1zm3 0h1v1h-1zm3 0h1v1h-1zm6 0h1v1h-1zm3 0h1v1h-1zm3 0h1v1h-1zm6 0h1v1h-1zm3 0h1v1h-1zm3 0h1v1h-1zm3 0h1v1h-1zM7 62h1v1H7zm3 0h1v1h-1zm9 0h1v1h-1zm3 0h1v1h-1zm12 0h1v1h-1zm6 0h1v1h-1zm3 0h1v1h-1zm3 0h1v1h-1zm3 0h1v1h-1zm6 0h1v1h-1zm3 0h1v1h-1zm9 0h1v1h-1zM4 65h1v1H4zm3 0h1v1H7zm3 0h1v1h-1zm3 0h1v1h-1zm6 0h1v1h-1zm3 0h1v1h-1zm3 0h1v1h-1zm3 0h1v1h-1zm6 0h1v1h-1zm3 0h1v1h-1zm3 0h1v1h-1zm9 0h1v1h-1zm6 0h1v1h-1zm3 0h1v1h-1zm3 0h1v1h-1zm-51 3h1v1h-1zm12 0h1v1h-1zm6 0h1v1h-1zm9 0h1v1h-1zm3 0h1v1h-1zm3 0h1v1h-1zm3 0h1v1h-1zm12 0h1v1h-1zm6 0h1v1h-1z"/></svg>