<svg width="552" height="380" viewBox="0 0 552 380" fill="none" xmlns="http://www.w3.org/2000/svg">
<mask id="mask0_21344_3122" style="mask-type:alpha" maskUnits="userSpaceOnUse" x="0" y="0" width="552" height="380">
<rect width="552" height="380" fill="url(#paint0_linear_21344_3122)"/>
</mask>
<g mask="url(#mask0_21344_3122)">
<mask id="mask1_21344_3122" style="mask-type:alpha" maskUnits="userSpaceOnUse" x="0" y="0" width="264" height="380">
<rect width="264" height="380" fill="url(#paint1_linear_21344_3122)"/>
</mask>
<g mask="url(#mask1_21344_3122)">
<rect x="48" width="216" height="380" fill="url(#paint2_linear_21344_3122)"/>
<line x1="48.5" y1="-2.18557e-08" x2="48.5" y2="380" stroke="#CACDD4" stroke-dasharray="1 3"/>
<g filter="url(#filter0_dddddd_21344_3122)">
<g clip-path="url(#clip0_21344_3122)">
<rect x="24" y="112" width="302" height="32" rx="10" fill="white"/>
<path d="M74.844 132L72.588 123.24H73.74L75.216 129.168C75.312 129.576 75.396 129.956 75.468 130.308C75.54 130.66 75.592 130.932 75.624 131.124C75.656 130.932 75.704 130.66 75.768 130.308C75.84 129.956 75.928 129.576 76.032 129.168L77.484 123.24H78.612L76.356 132H74.844ZM80.3833 132V123.24H85.4353V124.248H81.4873V126.924H85.0153V127.92H81.4873V130.992H85.4353V132H80.3833ZM87.4826 132V123.24H90.1946C90.7226 123.24 91.1826 123.348 91.5746 123.564C91.9666 123.772 92.2706 124.064 92.4866 124.44C92.7106 124.816 92.8226 125.26 92.8226 125.772C92.8226 126.356 92.6666 126.864 92.3546 127.296C92.0506 127.72 91.6386 128.012 91.1186 128.172L92.9426 132H91.6346L89.9666 128.304H88.5866V132H87.4826ZM88.5866 127.296H90.1946C90.6426 127.296 90.9986 127.156 91.2626 126.876C91.5346 126.596 91.6706 126.228 91.6706 125.772C91.6706 125.3 91.5346 124.928 91.2626 124.656C90.9986 124.376 90.6426 124.236 90.1946 124.236H88.5866V127.296ZM101.861 132V130.992H104.225V124.176L101.849 125.94V124.716L103.841 123.24H105.341V130.992H107.273V132H101.861ZM111.577 132.12C111.273 132.12 111.029 132.032 110.845 131.856C110.661 131.68 110.569 131.44 110.569 131.136C110.569 130.824 110.661 130.576 110.845 130.392C111.029 130.2 111.273 130.104 111.577 130.104C111.881 130.104 112.125 130.2 112.309 130.392C112.493 130.576 112.585 130.824 112.585 131.136C112.585 131.44 112.493 131.68 112.309 131.856C112.125 132.032 111.881 132.12 111.577 132.12ZM118.772 132.12C118.236 132.12 117.768 132.016 117.368 131.808C116.968 131.592 116.66 131.292 116.444 130.908C116.228 130.516 116.12 130.06 116.12 129.54V125.7C116.12 125.172 116.228 124.716 116.444 124.332C116.66 123.948 116.968 123.652 117.368 123.444C117.768 123.228 118.236 123.12 118.772 123.12C119.316 123.12 119.784 123.228 120.176 123.444C120.576 123.652 120.884 123.948 121.1 124.332C121.316 124.716 121.424 125.172 121.424 125.7V129.54C121.424 130.06 121.316 130.516 121.1 130.908C120.884 131.292 120.576 131.592 120.176 131.808C119.776 132.016 119.308 132.12 118.772 132.12ZM118.772 131.172C119.244 131.172 119.624 131.02 119.912 130.716C120.208 130.412 120.356 130.02 120.356 129.54V125.7C120.356 125.22 120.208 124.828 119.912 124.524C119.624 124.22 119.244 124.068 118.772 124.068C118.3 124.068 117.916 124.22 117.62 124.524C117.332 124.828 117.188 125.22 117.188 125.7V129.54C117.188 130.02 117.332 130.412 117.62 130.716C117.916 131.02 118.3 131.172 118.772 131.172ZM118.772 128.328C118.556 128.328 118.38 128.26 118.244 128.124C118.116 127.988 118.052 127.808 118.052 127.584C118.052 127.368 118.116 127.196 118.244 127.068C118.38 126.932 118.556 126.864 118.772 126.864C118.988 126.864 119.16 126.932 119.288 127.068C119.424 127.196 119.492 127.368 119.492 127.584C119.492 127.808 119.424 127.988 119.288 128.124C119.16 128.26 118.988 128.328 118.772 128.328Z" fill="#151618"/>
<path d="M134.6 128.88C134.296 128.88 134.052 128.792 133.868 128.616C133.684 128.44 133.592 128.2 133.592 127.896C133.592 127.584 133.684 127.336 133.868 127.152C134.052 126.96 134.296 126.864 134.6 126.864C134.904 126.864 135.148 126.96 135.332 127.152C135.516 127.336 135.608 127.584 135.608 127.896C135.608 128.2 135.516 128.44 135.332 128.616C135.148 128.792 134.904 128.88 134.6 128.88Z" fill="#979FAA"/>
<path d="M148.092 132V130.872L150.768 128.028C151.224 127.548 151.552 127.124 151.752 126.756C151.96 126.38 152.064 126.016 152.064 125.664C152.064 125.176 151.932 124.796 151.668 124.524C151.404 124.244 151.044 124.104 150.588 124.104C150.084 124.104 149.688 124.248 149.4 124.536C149.112 124.824 148.968 125.216 148.968 125.712H147.852C147.868 125.184 147.988 124.724 148.212 124.332C148.444 123.94 148.764 123.64 149.172 123.432C149.58 123.224 150.052 123.12 150.588 123.12C151.116 123.12 151.576 123.224 151.968 123.432C152.36 123.632 152.66 123.92 152.868 124.296C153.076 124.672 153.18 125.12 153.18 125.64C153.18 126.136 153.048 126.632 152.784 127.128C152.52 127.616 152.088 128.168 151.488 128.784L149.352 130.992H153.324V132H148.092ZM157.843 132.12C157.315 132.12 156.855 132.02 156.463 131.82C156.071 131.62 155.767 131.332 155.551 130.956C155.343 130.572 155.239 130.12 155.239 129.6V125.64C155.239 125.112 155.343 124.66 155.551 124.284C155.767 123.908 156.071 123.62 156.463 123.42C156.855 123.22 157.315 123.12 157.843 123.12C158.371 123.12 158.827 123.224 159.211 123.432C159.603 123.632 159.903 123.92 160.111 124.296C160.319 124.672 160.423 125.12 160.423 125.64H159.319C159.319 125.152 159.187 124.776 158.923 124.512C158.667 124.248 158.307 124.116 157.843 124.116C157.379 124.116 157.011 124.248 156.739 124.512C156.475 124.768 156.343 125.14 156.343 125.628V129.6C156.343 130.088 156.475 130.464 156.739 130.728C157.011 130.992 157.379 131.124 157.843 131.124C158.307 131.124 158.667 130.992 158.923 130.728C159.187 130.464 159.319 130.088 159.319 129.6H160.423C160.423 130.112 160.319 130.56 160.111 130.944C159.903 131.32 159.603 131.612 159.211 131.82C158.827 132.02 158.371 132.12 157.843 132.12ZM164.991 132.12C164.455 132.12 163.987 132.028 163.587 131.844C163.187 131.652 162.879 131.38 162.663 131.028C162.447 130.676 162.339 130.264 162.339 129.792C162.339 129.272 162.479 128.824 162.759 128.448C163.047 128.072 163.499 127.736 164.115 127.44L165.291 126.876C165.635 126.708 165.903 126.492 166.095 126.228C166.287 125.956 166.383 125.656 166.383 125.328C166.383 124.952 166.255 124.652 165.999 124.428C165.751 124.204 165.415 124.092 164.991 124.092C164.567 124.092 164.227 124.208 163.971 124.44C163.723 124.664 163.599 124.964 163.599 125.34C163.599 125.66 163.691 125.956 163.875 126.228C164.067 126.492 164.323 126.704 164.643 126.864L165.819 127.416C166.459 127.712 166.923 128.052 167.211 128.436C167.499 128.812 167.643 129.264 167.643 129.792C167.643 130.504 167.403 131.072 166.923 131.496C166.451 131.912 165.807 132.12 164.991 132.12ZM164.991 131.136C165.471 131.136 165.851 131.012 166.131 130.764C166.419 130.516 166.563 130.18 166.563 129.756C166.563 129.42 166.471 129.112 166.287 128.832C166.103 128.552 165.839 128.332 165.495 128.172L164.331 127.596C163.691 127.292 163.227 126.96 162.939 126.6C162.659 126.24 162.519 125.808 162.519 125.304C162.519 124.856 162.619 124.468 162.819 124.14C163.019 123.804 163.303 123.548 163.671 123.372C164.047 123.196 164.487 123.108 164.991 123.108C165.495 123.108 165.931 123.196 166.299 123.372C166.675 123.548 166.963 123.804 167.163 124.14C167.363 124.468 167.463 124.856 167.463 125.304C167.463 125.808 167.319 126.24 167.031 126.6C166.751 126.952 166.283 127.288 165.627 127.608L164.451 128.184C164.123 128.336 163.867 128.552 163.683 128.832C163.507 129.104 163.419 129.404 163.419 129.732C163.419 130.164 163.559 130.508 163.839 130.764C164.127 131.012 164.511 131.136 164.991 131.136ZM170.782 132L173.914 124.26H170.638V125.544H169.522V123.24H175.018V124.32L171.982 132H170.782ZM179.249 132.12C178.721 132.12 178.257 132.016 177.857 131.808C177.457 131.592 177.149 131.296 176.933 130.92C176.717 130.544 176.609 130.104 176.609 129.6H177.725C177.725 130.08 177.861 130.456 178.133 130.728C178.405 131 178.781 131.136 179.261 131.136C179.757 131.136 180.137 130.996 180.401 130.716C180.673 130.428 180.809 130.056 180.809 129.6V128.976C180.809 128.488 180.673 128.112 180.401 127.848C180.137 127.576 179.757 127.44 179.261 127.44H178.361V126.336L180.509 124.248H176.969V123.24H181.637V124.344L179.285 126.612V126.456C180.093 126.456 180.733 126.684 181.205 127.14C181.677 127.596 181.913 128.208 181.913 128.976V129.6C181.913 130.104 181.801 130.544 181.577 130.92C181.361 131.296 181.053 131.592 180.653 131.808C180.253 132.016 179.785 132.12 179.249 132.12ZM184.069 132V123.24H185.173V126.984H186.457L188.377 123.24H189.589L187.429 127.452L189.709 132H188.437L186.421 127.956H185.173V132H184.069ZM191.264 132V130.872L193.94 128.028C194.396 127.548 194.724 127.124 194.924 126.756C195.132 126.38 195.236 126.016 195.236 125.664C195.236 125.176 195.104 124.796 194.84 124.524C194.576 124.244 194.216 124.104 193.76 124.104C193.256 124.104 192.86 124.248 192.572 124.536C192.284 124.824 192.14 125.216 192.14 125.712H191.024C191.04 125.184 191.16 124.724 191.384 124.332C191.616 123.94 191.936 123.64 192.344 123.432C192.752 123.224 193.224 123.12 193.76 123.12C194.288 123.12 194.748 123.224 195.14 123.432C195.532 123.632 195.832 123.92 196.04 124.296C196.248 124.672 196.352 125.12 196.352 125.64C196.352 126.136 196.22 126.632 195.956 127.128C195.692 127.616 195.26 128.168 194.66 128.784L192.524 130.992H196.496V132H191.264Z" fill="#151618"/>
<rect x="48" y="112" width="1" height="32" fill="url(#paint3_linear_21344_3122)"/>
<g filter="url(#filter1_f_21344_3122)">
<circle cx="48.5" cy="127.5" r="6.5" fill="#DCA9FF"/>
</g>
<g filter="url(#filter2_f_21344_3122)" style="mix-blend-mode:plus-lighter">
<circle cx="48.5" cy="127.5" r="3.5" fill="#D7B4F5"/>
</g>
<circle cx="48.5" cy="127.5" r="3" fill="url(#paint4_linear_21344_3122)" stroke="white"/>
</g>
</g>
<path d="M74.844 88L72.588 79.24H73.74L75.216 85.168C75.312 85.576 75.396 85.956 75.468 86.308C75.54 86.66 75.592 86.932 75.624 87.124C75.656 86.932 75.704 86.66 75.768 86.308C75.84 85.956 75.928 85.576 76.032 85.168L77.484 79.24H78.612L76.356 88H74.844ZM80.3833 88V79.24H85.4353V80.248H81.4873V82.924H85.0153V83.92H81.4873V86.992H85.4353V88H80.3833ZM87.4826 88V79.24H90.1946C90.7226 79.24 91.1826 79.348 91.5746 79.564C91.9666 79.772 92.2706 80.064 92.4866 80.44C92.7106 80.816 92.8226 81.26 92.8226 81.772C92.8226 82.356 92.6666 82.864 92.3546 83.296C92.0506 83.72 91.6386 84.012 91.1186 84.172L92.9426 88H91.6346L89.9666 84.304H88.5866V88H87.4826ZM88.5866 83.296H90.1946C90.6426 83.296 90.9986 83.156 91.2626 82.876C91.5346 82.596 91.6706 82.228 91.6706 81.772C91.6706 81.3 91.5346 80.928 91.2626 80.656C90.9986 80.376 90.6426 80.236 90.1946 80.236H88.5866V83.296ZM104.381 88.12C103.845 88.12 103.377 88.016 102.977 87.808C102.577 87.592 102.269 87.292 102.053 86.908C101.837 86.516 101.729 86.06 101.729 85.54V81.7C101.729 81.172 101.837 80.716 102.053 80.332C102.269 79.948 102.577 79.652 102.977 79.444C103.377 79.228 103.845 79.12 104.381 79.12C104.925 79.12 105.393 79.228 105.785 79.444C106.185 79.652 106.493 79.948 106.709 80.332C106.925 80.716 107.033 81.172 107.033 81.7V85.54C107.033 86.06 106.925 86.516 106.709 86.908C106.493 87.292 106.185 87.592 105.785 87.808C105.385 88.016 104.917 88.12 104.381 88.12ZM104.381 87.172C104.853 87.172 105.233 87.02 105.521 86.716C105.817 86.412 105.965 86.02 105.965 85.54V81.7C105.965 81.22 105.817 80.828 105.521 80.524C105.233 80.22 104.853 80.068 104.381 80.068C103.909 80.068 103.525 80.22 103.229 80.524C102.941 80.828 102.797 81.22 102.797 81.7V85.54C102.797 86.02 102.941 86.412 103.229 86.716C103.525 87.02 103.909 87.172 104.381 87.172ZM104.381 84.328C104.165 84.328 103.989 84.26 103.853 84.124C103.725 83.988 103.661 83.808 103.661 83.584C103.661 83.368 103.725 83.196 103.853 83.068C103.989 82.932 104.165 82.864 104.381 82.864C104.597 82.864 104.769 82.932 104.897 83.068C105.033 83.196 105.101 83.368 105.101 83.584C105.101 83.808 105.033 83.988 104.897 84.124C104.769 84.26 104.597 84.328 104.381 84.328ZM111.577 88.12C111.273 88.12 111.029 88.032 110.845 87.856C110.661 87.68 110.569 87.44 110.569 87.136C110.569 86.824 110.661 86.576 110.845 86.392C111.029 86.2 111.273 86.104 111.577 86.104C111.881 86.104 112.125 86.2 112.309 86.392C112.493 86.576 112.585 86.824 112.585 87.136C112.585 87.44 112.493 87.68 112.309 87.856C112.125 88.032 111.881 88.12 111.577 88.12ZM118.772 88.12C118.236 88.12 117.768 88.016 117.368 87.808C116.968 87.592 116.66 87.292 116.444 86.908C116.228 86.516 116.12 86.06 116.12 85.54V81.7C116.12 81.172 116.228 80.716 116.444 80.332C116.66 79.948 116.968 79.652 117.368 79.444C117.768 79.228 118.236 79.12 118.772 79.12C119.316 79.12 119.784 79.228 120.176 79.444C120.576 79.652 120.884 79.948 121.1 80.332C121.316 80.716 121.424 81.172 121.424 81.7V85.54C121.424 86.06 121.316 86.516 121.1 86.908C120.884 87.292 120.576 87.592 120.176 87.808C119.776 88.016 119.308 88.12 118.772 88.12ZM118.772 87.172C119.244 87.172 119.624 87.02 119.912 86.716C120.208 86.412 120.356 86.02 120.356 85.54V81.7C120.356 81.22 120.208 80.828 119.912 80.524C119.624 80.22 119.244 80.068 118.772 80.068C118.3 80.068 117.916 80.22 117.62 80.524C117.332 80.828 117.188 81.22 117.188 81.7V85.54C117.188 86.02 117.332 86.412 117.62 86.716C117.916 87.02 118.3 87.172 118.772 87.172ZM118.772 84.328C118.556 84.328 118.38 84.26 118.244 84.124C118.116 83.988 118.052 83.808 118.052 83.584C118.052 83.368 118.116 83.196 118.244 83.068C118.38 82.932 118.556 82.864 118.772 82.864C118.988 82.864 119.16 82.932 119.288 83.068C119.424 83.196 119.492 83.368 119.492 83.584C119.492 83.808 119.424 83.988 119.288 84.124C119.16 84.26 118.988 84.328 118.772 84.328Z" fill="#979FAA"/>
<path d="M134.6 84.88C134.296 84.88 134.052 84.792 133.868 84.616C133.684 84.44 133.592 84.2 133.592 83.896C133.592 83.584 133.684 83.336 133.868 83.152C134.052 82.96 134.296 82.864 134.6 82.864C134.904 82.864 135.148 82.96 135.332 83.152C135.516 83.336 135.608 83.584 135.608 83.896C135.608 84.2 135.516 84.44 135.332 84.616C135.148 84.792 134.904 84.88 134.6 84.88Z" fill="#979FAA"/>
<path d="M151.896 88V86.092H147.948V84.364L151.404 79.24H152.616L149.052 84.604V85.084H151.896V82.96H153.012V88H151.896ZM154.783 88L157.051 79.24H158.539L160.807 88H159.679L159.115 85.684H156.487L155.923 88H154.783ZM156.703 84.748H158.887L158.227 82.084C158.099 81.58 157.999 81.156 157.927 80.812C157.855 80.468 157.811 80.244 157.795 80.14C157.779 80.244 157.735 80.468 157.663 80.812C157.591 81.156 157.491 81.576 157.363 82.072L156.703 84.748ZM164.967 88.12C164.247 88.12 163.659 87.936 163.203 87.568C162.747 87.192 162.479 86.692 162.399 86.068H163.515C163.547 86.404 163.691 86.668 163.947 86.86C164.203 87.044 164.547 87.136 164.979 87.136C165.475 87.136 165.847 87.004 166.095 86.74C166.343 86.468 166.467 86.088 166.467 85.6V84.748C166.467 84.26 166.343 83.884 166.095 83.62C165.847 83.348 165.479 83.212 164.991 83.212C164.679 83.212 164.407 83.292 164.175 83.452C163.951 83.612 163.787 83.824 163.683 84.088H162.579L162.639 79.24H167.271V80.248H163.707L163.671 83.14H164.019L163.671 83.452C163.671 83.076 163.819 82.78 164.115 82.564C164.419 82.348 164.823 82.24 165.327 82.24C166.039 82.232 166.591 82.452 166.983 82.9C167.383 83.34 167.583 83.956 167.583 84.748V85.6C167.583 86.376 167.351 86.992 166.887 87.448C166.431 87.896 165.791 88.12 164.967 88.12ZM170.782 88L173.914 80.26H170.638V81.544H169.522V79.24H175.018V80.32L171.982 88H170.782ZM179.429 88.12C178.901 88.12 178.441 88.02 178.049 87.82C177.657 87.62 177.353 87.332 177.137 86.956C176.929 86.572 176.825 86.12 176.825 85.6V81.64C176.825 81.112 176.929 80.66 177.137 80.284C177.353 79.908 177.657 79.62 178.049 79.42C178.441 79.22 178.901 79.12 179.429 79.12C179.957 79.12 180.413 79.224 180.797 79.432C181.189 79.632 181.489 79.92 181.697 80.296C181.905 80.672 182.009 81.12 182.009 81.64H180.905C180.905 81.152 180.773 80.776 180.509 80.512C180.253 80.248 179.893 80.116 179.429 80.116C178.965 80.116 178.597 80.248 178.325 80.512C178.061 80.768 177.929 81.14 177.929 81.628V85.6C177.929 86.088 178.061 86.464 178.325 86.728C178.597 86.992 178.965 87.124 179.429 87.124C179.893 87.124 180.253 86.992 180.509 86.728C180.773 86.464 180.905 86.088 180.905 85.6H182.009C182.009 86.112 181.905 86.56 181.697 86.944C181.489 87.32 181.189 87.612 180.797 87.82C180.413 88.02 179.957 88.12 179.429 88.12ZM184.081 88V79.24H186.577C187.385 79.24 188.013 79.44 188.461 79.84C188.917 80.24 189.145 80.796 189.145 81.508C189.145 81.908 189.061 82.256 188.893 82.552C188.725 82.848 188.485 83.076 188.173 83.236C187.869 83.396 187.505 83.472 187.081 83.464V83.296C187.537 83.288 187.933 83.376 188.269 83.56C188.613 83.736 188.877 83.996 189.061 84.34C189.253 84.684 189.349 85.092 189.349 85.564C189.349 86.06 189.245 86.492 189.037 86.86C188.829 87.228 188.529 87.512 188.137 87.712C187.753 87.904 187.293 88 186.757 88H184.081ZM185.161 87.004H186.637C187.133 87.004 187.525 86.872 187.813 86.608C188.109 86.344 188.257 85.98 188.257 85.516C188.257 85.044 188.109 84.66 187.813 84.364C187.525 84.068 187.133 83.92 186.637 83.92H185.161V87.004ZM185.161 82.96H186.565C187.021 82.96 187.381 82.84 187.645 82.6C187.917 82.352 188.053 82.016 188.053 81.592C188.053 81.176 187.921 80.848 187.657 80.608C187.393 80.36 187.033 80.236 186.577 80.236H185.161V82.96ZM193.784 88.12C193.224 88.12 192.732 88.004 192.308 87.772C191.884 87.532 191.556 87.2 191.324 86.776C191.092 86.344 190.976 85.848 190.976 85.288C190.976 84.848 191.036 84.416 191.156 83.992C191.284 83.568 191.472 83.16 191.72 82.768L193.904 79.24H195.14L192.656 83.236L192.704 83.272C192.856 83.04 193.064 82.864 193.328 82.744C193.592 82.624 193.888 82.564 194.216 82.564C194.696 82.564 195.112 82.676 195.464 82.9C195.816 83.124 196.088 83.44 196.28 83.848C196.472 84.256 196.568 84.74 196.568 85.3C196.568 85.86 196.452 86.352 196.22 86.776C195.988 87.2 195.664 87.532 195.248 87.772C194.832 88.004 194.344 88.12 193.784 88.12ZM193.772 87.136C194.276 87.136 194.684 86.968 194.996 86.632C195.308 86.296 195.464 85.852 195.464 85.3C195.464 84.748 195.308 84.304 194.996 83.968C194.684 83.632 194.276 83.464 193.772 83.464C193.268 83.464 192.86 83.632 192.548 83.968C192.236 84.304 192.08 84.748 192.08 85.3C192.08 85.852 192.236 86.296 192.548 86.632C192.86 86.968 193.268 87.136 193.772 87.136Z" fill="#979FAA"/>
<rect x="48" y="78" width="1" height="11" fill="#979FAA"/>
<circle cx="48.5" cy="83.5" r="1.5" fill="#979FAA"/>
<path d="M74.844 176L72.588 167.24H73.74L75.216 173.168C75.312 173.576 75.396 173.956 75.468 174.308C75.54 174.66 75.592 174.932 75.624 175.124C75.656 174.932 75.704 174.66 75.768 174.308C75.84 173.956 75.928 173.576 76.032 173.168L77.484 167.24H78.612L76.356 176H74.844ZM80.3833 176V167.24H85.4353V168.248H81.4873V170.924H85.0153V171.92H81.4873V174.992H85.4353V176H80.3833ZM87.4826 176V167.24H90.1946C90.7226 167.24 91.1826 167.348 91.5746 167.564C91.9666 167.772 92.2706 168.064 92.4866 168.44C92.7106 168.816 92.8226 169.26 92.8226 169.772C92.8226 170.356 92.6666 170.864 92.3546 171.296C92.0506 171.72 91.6386 172.012 91.1186 172.172L92.9426 176H91.6346L89.9666 172.304H88.5866V176H87.4826ZM88.5866 171.296H90.1946C90.6426 171.296 90.9986 171.156 91.2626 170.876C91.5346 170.596 91.6706 170.228 91.6706 169.772C91.6706 169.3 91.5346 168.928 91.2626 168.656C90.9986 168.376 90.6426 168.236 90.1946 168.236H88.5866V171.296ZM101.873 176V174.872L104.549 172.028C105.005 171.548 105.333 171.124 105.533 170.756C105.741 170.38 105.845 170.016 105.845 169.664C105.845 169.176 105.713 168.796 105.449 168.524C105.185 168.244 104.825 168.104 104.369 168.104C103.865 168.104 103.469 168.248 103.181 168.536C102.893 168.824 102.749 169.216 102.749 169.712H101.633C101.649 169.184 101.769 168.724 101.993 168.332C102.225 167.94 102.545 167.64 102.953 167.432C103.361 167.224 103.833 167.12 104.369 167.12C104.897 167.12 105.357 167.224 105.749 167.432C106.141 167.632 106.441 167.92 106.649 168.296C106.857 168.672 106.961 169.12 106.961 169.64C106.961 170.136 106.829 170.632 106.565 171.128C106.301 171.616 105.869 172.168 105.269 172.784L103.133 174.992H107.105V176H101.873ZM111.577 176.12C111.273 176.12 111.029 176.032 110.845 175.856C110.661 175.68 110.569 175.44 110.569 175.136C110.569 174.824 110.661 174.576 110.845 174.392C111.029 174.2 111.273 174.104 111.577 174.104C111.881 174.104 112.125 174.2 112.309 174.392C112.493 174.576 112.585 174.824 112.585 175.136C112.585 175.44 112.493 175.68 112.309 175.856C112.125 176.032 111.881 176.12 111.577 176.12ZM118.772 176.12C118.236 176.12 117.768 176.016 117.368 175.808C116.968 175.592 116.66 175.292 116.444 174.908C116.228 174.516 116.12 174.06 116.12 173.54V169.7C116.12 169.172 116.228 168.716 116.444 168.332C116.66 167.948 116.968 167.652 117.368 167.444C117.768 167.228 118.236 167.12 118.772 167.12C119.316 167.12 119.784 167.228 120.176 167.444C120.576 167.652 120.884 167.948 121.1 168.332C121.316 168.716 121.424 169.172 121.424 169.7V173.54C121.424 174.06 121.316 174.516 121.1 174.908C120.884 175.292 120.576 175.592 120.176 175.808C119.776 176.016 119.308 176.12 118.772 176.12ZM118.772 175.172C119.244 175.172 119.624 175.02 119.912 174.716C120.208 174.412 120.356 174.02 120.356 173.54V169.7C120.356 169.22 120.208 168.828 119.912 168.524C119.624 168.22 119.244 168.068 118.772 168.068C118.3 168.068 117.916 168.22 117.62 168.524C117.332 168.828 117.188 169.22 117.188 169.7V173.54C117.188 174.02 117.332 174.412 117.62 174.716C117.916 175.02 118.3 175.172 118.772 175.172ZM118.772 172.328C118.556 172.328 118.38 172.26 118.244 172.124C118.116 171.988 118.052 171.808 118.052 171.584C118.052 171.368 118.116 171.196 118.244 171.068C118.38 170.932 118.556 170.864 118.772 170.864C118.988 170.864 119.16 170.932 119.288 171.068C119.424 171.196 119.492 171.368 119.492 171.584C119.492 171.808 119.424 171.988 119.288 172.124C119.16 172.26 118.988 172.328 118.772 172.328Z" fill="#979FAA"/>
<path d="M134.6 172.88C134.296 172.88 134.052 172.792 133.868 172.616C133.684 172.44 133.592 172.2 133.592 171.896C133.592 171.584 133.684 171.336 133.868 171.152C134.052 170.96 134.296 170.864 134.6 170.864C134.904 170.864 135.148 170.96 135.332 171.152C135.516 171.336 135.608 171.584 135.608 171.896C135.608 172.2 135.516 172.44 135.332 172.616C135.148 172.792 134.904 172.88 134.6 172.88Z" fill="#979FAA"/>
<path d="M147.468 176L149.976 171.56L147.6 167.24H148.884L150.216 169.796C150.288 169.94 150.36 170.092 150.432 170.252C150.512 170.404 150.576 170.52 150.624 170.6C150.664 170.52 150.72 170.404 150.792 170.252C150.872 170.092 150.948 169.94 151.02 169.796L152.376 167.24H153.6L151.224 171.488L153.732 176H152.46L150.984 173.24C150.912 173.104 150.836 172.96 150.756 172.808C150.684 172.648 150.628 172.52 150.588 172.424C150.548 172.52 150.488 172.644 150.408 172.796C150.336 172.948 150.264 173.092 150.192 173.228L148.704 176H147.468ZM157.795 176.12C157.259 176.12 156.791 176.028 156.391 175.844C155.991 175.652 155.683 175.38 155.467 175.028C155.251 174.676 155.143 174.264 155.143 173.792C155.143 173.272 155.283 172.824 155.563 172.448C155.851 172.072 156.303 171.736 156.919 171.44L158.095 170.876C158.439 170.708 158.707 170.492 158.899 170.228C159.091 169.956 159.187 169.656 159.187 169.328C159.187 168.952 159.059 168.652 158.803 168.428C158.555 168.204 158.219 168.092 157.795 168.092C157.371 168.092 157.031 168.208 156.775 168.44C156.527 168.664 156.403 168.964 156.403 169.34C156.403 169.66 156.495 169.956 156.679 170.228C156.871 170.492 157.127 170.704 157.447 170.864L158.623 171.416C159.263 171.712 159.727 172.052 160.015 172.436C160.303 172.812 160.447 173.264 160.447 173.792C160.447 174.504 160.207 175.072 159.727 175.496C159.255 175.912 158.611 176.12 157.795 176.12ZM157.795 175.136C158.275 175.136 158.655 175.012 158.935 174.764C159.223 174.516 159.367 174.18 159.367 173.756C159.367 173.42 159.275 173.112 159.091 172.832C158.907 172.552 158.643 172.332 158.299 172.172L157.135 171.596C156.495 171.292 156.031 170.96 155.743 170.6C155.463 170.24 155.323 169.808 155.323 169.304C155.323 168.856 155.423 168.468 155.623 168.14C155.823 167.804 156.107 167.548 156.475 167.372C156.851 167.196 157.291 167.108 157.795 167.108C158.299 167.108 158.735 167.196 159.103 167.372C159.479 167.548 159.767 167.804 159.967 168.14C160.167 168.468 160.267 168.856 160.267 169.304C160.267 169.808 160.123 170.24 159.835 170.6C159.555 170.952 159.087 171.288 158.431 171.608L157.255 172.184C156.927 172.336 156.671 172.552 156.487 172.832C156.311 173.104 156.223 173.404 156.223 173.732C156.223 174.164 156.363 174.508 156.643 174.764C156.931 175.012 157.315 175.136 157.795 175.136ZM162.483 176V174.872L165.159 172.028C165.615 171.548 165.943 171.124 166.143 170.756C166.351 170.38 166.455 170.016 166.455 169.664C166.455 169.176 166.323 168.796 166.059 168.524C165.795 168.244 165.435 168.104 164.979 168.104C164.475 168.104 164.079 168.248 163.791 168.536C163.503 168.824 163.359 169.216 163.359 169.712H162.243C162.259 169.184 162.379 168.724 162.603 168.332C162.835 167.94 163.155 167.64 163.563 167.432C163.971 167.224 164.443 167.12 164.979 167.12C165.507 167.12 165.967 167.224 166.359 167.432C166.751 167.632 167.051 167.92 167.259 168.296C167.467 168.672 167.571 169.12 167.571 169.64C167.571 170.136 167.439 170.632 167.175 171.128C166.911 171.616 166.479 172.168 165.879 172.784L163.743 174.992H167.715V176H162.483ZM169.174 176L171.442 167.24H172.93L175.198 176H174.07L173.506 173.684H170.878L170.314 176H169.174ZM171.094 172.748H173.278L172.618 170.084C172.49 169.58 172.39 169.156 172.318 168.812C172.246 168.468 172.202 168.244 172.186 168.14C172.17 168.244 172.126 168.468 172.054 168.812C171.982 169.156 171.882 169.576 171.754 170.072L171.094 172.748ZM176.873 176V167.24H177.977V170.984H179.261L181.181 167.24H182.393L180.233 171.452L182.513 176H181.241L179.225 171.956H177.977V176H176.873ZM186.625 176.12C186.049 176.12 185.553 176.024 185.137 175.832C184.721 175.64 184.401 175.364 184.177 175.004C183.953 174.644 183.837 174.216 183.829 173.72H184.945C184.945 174.152 185.093 174.496 185.389 174.752C185.685 175 186.097 175.124 186.625 175.124C187.121 175.124 187.509 175.004 187.789 174.764C188.069 174.516 188.209 174.176 188.209 173.744C188.209 173.392 188.117 173.088 187.933 172.832C187.749 172.568 187.481 172.384 187.129 172.28L185.953 171.92C185.345 171.736 184.877 171.428 184.549 170.996C184.221 170.556 184.057 170.044 184.057 169.46C184.057 168.988 184.165 168.576 184.381 168.224C184.597 167.872 184.897 167.6 185.281 167.408C185.665 167.208 186.121 167.108 186.649 167.108C187.417 167.108 188.033 167.324 188.497 167.756C188.969 168.18 189.209 168.748 189.217 169.46H188.101C188.101 169.036 187.973 168.704 187.717 168.464C187.461 168.224 187.101 168.104 186.637 168.104C186.173 168.104 185.813 168.216 185.557 168.44C185.301 168.656 185.173 168.964 185.173 169.364C185.173 169.716 185.269 170.024 185.461 170.288C185.653 170.544 185.925 170.728 186.277 170.84L187.465 171.212C188.057 171.396 188.513 171.712 188.833 172.16C189.161 172.6 189.325 173.116 189.325 173.708C189.325 174.188 189.213 174.612 188.989 174.98C188.765 175.34 188.449 175.62 188.041 175.82C187.633 176.02 187.161 176.12 186.625 176.12ZM191.264 176V174.872L193.94 172.028C194.396 171.548 194.724 171.124 194.924 170.756C195.132 170.38 195.236 170.016 195.236 169.664C195.236 169.176 195.104 168.796 194.84 168.524C194.576 168.244 194.216 168.104 193.76 168.104C193.256 168.104 192.86 168.248 192.572 168.536C192.284 168.824 192.14 169.216 192.14 169.712H191.024C191.04 169.184 191.16 168.724 191.384 168.332C191.616 167.94 191.936 167.64 192.344 167.432C192.752 167.224 193.224 167.12 193.76 167.12C194.288 167.12 194.748 167.224 195.14 167.432C195.532 167.632 195.832 167.92 196.04 168.296C196.248 168.672 196.352 169.12 196.352 169.64C196.352 170.136 196.22 170.632 195.956 171.128C195.692 171.616 195.26 172.168 194.66 172.784L192.524 174.992H196.496V176H191.264Z" fill="#979FAA"/>
<rect x="48" y="166" width="1" height="11" fill="#979FAA"/>
<circle cx="48.5" cy="171.5" r="1.5" fill="#979FAA"/>
<g filter="url(#filter3_dddddd_21344_3122)">
<rect x="24" y="220" width="302" height="96" rx="10" fill="white"/>
<path d="M45.474 249.14C44.774 249.14 44.1253 249.014 43.528 248.762C42.94 248.501 42.4267 248.141 41.988 247.684C41.5587 247.217 41.2227 246.667 40.98 246.032C40.7467 245.397 40.63 244.702 40.63 243.946C40.63 243.19 40.7467 242.499 40.98 241.874C41.2227 241.239 41.5587 240.693 41.988 240.236C42.4173 239.769 42.926 239.41 43.514 239.158C44.1113 238.906 44.76 238.78 45.46 238.78C46.2347 238.78 46.93 238.939 47.546 239.256C48.1713 239.564 48.68 240.003 49.072 240.572C49.4733 241.132 49.7207 241.79 49.814 242.546H48.428C48.316 241.743 47.994 241.118 47.462 240.67C46.9393 240.213 46.2767 239.984 45.474 239.984C44.7927 239.984 44.1953 240.152 43.682 240.488C43.1687 240.815 42.7673 241.277 42.478 241.874C42.198 242.462 42.058 243.153 42.058 243.946C42.058 244.739 42.198 245.435 42.478 246.032C42.7673 246.629 43.1687 247.096 43.682 247.432C44.2047 247.768 44.802 247.936 45.474 247.936C46.2767 247.936 46.944 247.707 47.476 247.25C48.008 246.793 48.33 246.167 48.442 245.374H49.842C49.7393 246.13 49.4873 246.793 49.086 247.362C48.694 247.922 48.19 248.361 47.574 248.678C46.958 248.986 46.258 249.14 45.474 249.14ZM54.4933 249.14C53.7653 249.14 53.1259 248.981 52.5753 248.664C52.0339 248.337 51.6093 247.894 51.3013 247.334C51.0026 246.765 50.8533 246.121 50.8533 245.402C50.8533 244.674 51.0073 244.035 51.3153 243.484C51.6233 242.933 52.0479 242.504 52.5893 242.196C53.1306 241.879 53.7653 241.72 54.4933 241.72C55.2213 241.72 55.8559 241.879 56.3973 242.196C56.9386 242.504 57.3586 242.933 57.6573 243.484C57.9653 244.035 58.1193 244.674 58.1193 245.402C58.1193 246.121 57.9653 246.765 57.6573 247.334C57.3586 247.894 56.9386 248.337 56.3973 248.664C55.8559 248.981 55.2213 249.14 54.4933 249.14ZM54.4933 248.006C54.9319 248.006 55.3193 247.899 55.6553 247.684C55.9913 247.46 56.2526 247.152 56.4393 246.76C56.6259 246.368 56.7193 245.911 56.7193 245.388C56.7193 244.613 56.5139 243.997 56.1033 243.54C55.6926 243.073 55.1559 242.84 54.4933 242.84C53.8306 242.84 53.2939 243.073 52.8833 243.54C52.4726 243.997 52.2673 244.613 52.2673 245.388C52.2673 245.911 52.3606 246.368 52.5473 246.76C52.7339 247.152 52.9953 247.46 53.3313 247.684C53.6673 247.899 54.0546 248.006 54.4933 248.006ZM59.6574 249V241.86H60.9594V243.54H61.0294V249H59.6574ZM64.7394 249V244.38C64.7394 243.876 64.6088 243.498 64.3474 243.246C64.0954 242.994 63.7221 242.868 63.2274 242.868C62.7981 242.868 62.4154 242.966 62.0794 243.162C61.7528 243.349 61.4961 243.615 61.3094 243.96C61.1228 244.296 61.0294 244.688 61.0294 245.136L60.8474 243.442C61.0808 242.91 61.4401 242.49 61.9254 242.182C62.4201 241.874 62.9894 241.72 63.6334 241.72C64.3894 241.72 64.9868 241.935 65.4254 242.364C65.8734 242.793 66.0974 243.358 66.0974 244.058V249H64.7394ZM68.1066 249V241.86H69.4086V243.54H69.4786V249H68.1066ZM73.1886 249V244.38C73.1886 243.876 73.058 243.498 72.7966 243.246C72.5446 242.994 72.1713 242.868 71.6766 242.868C71.2473 242.868 70.8646 242.966 70.5286 243.162C70.202 243.349 69.9453 243.615 69.7586 243.96C69.572 244.296 69.4786 244.688 69.4786 245.136L69.2966 243.442C69.53 242.91 69.8893 242.49 70.3746 242.182C70.8693 241.874 71.4386 241.72 72.0826 241.72C72.8386 241.72 73.436 241.935 73.8746 242.364C74.3226 242.793 74.5466 243.358 74.5466 244.058V249H73.1886ZM79.5939 249.14C78.8845 249.14 78.2592 248.981 77.7179 248.664C77.1765 248.337 76.7519 247.894 76.4439 247.334C76.1452 246.774 75.9959 246.13 75.9959 245.402C75.9959 244.674 76.1452 244.035 76.4439 243.484C76.7519 242.924 77.1765 242.49 77.7179 242.182C78.2592 241.874 78.8845 241.72 79.5939 241.72C80.2752 241.72 80.8679 241.865 81.3719 242.154C81.8759 242.443 82.2632 242.854 82.5339 243.386C82.8139 243.909 82.9539 244.525 82.9539 245.234C82.9539 245.346 82.9492 245.449 82.9399 245.542C82.9305 245.635 82.9165 245.733 82.8979 245.836H76.9339V244.786H81.9599L81.5959 245.234C81.5959 244.45 81.4185 243.853 81.0639 243.442C80.7185 243.022 80.2285 242.812 79.5939 242.812C78.9219 242.812 78.3852 243.045 77.9839 243.512C77.5825 243.969 77.3819 244.599 77.3819 245.402C77.3819 246.223 77.5825 246.872 77.9839 247.348C78.3852 247.815 78.9359 248.048 79.6359 248.048C80.0559 248.048 80.4245 247.959 80.7419 247.782C81.0685 247.605 81.3065 247.343 81.4559 246.998H82.7439C82.5105 247.661 82.1185 248.183 81.5679 248.566C81.0172 248.949 80.3592 249.14 79.5939 249.14ZM87.4662 249.14C86.7942 249.14 86.1969 248.981 85.6742 248.664C85.1516 248.337 84.7362 247.894 84.4282 247.334C84.1296 246.765 83.9802 246.121 83.9802 245.402C83.9802 244.683 84.1296 244.049 84.4282 243.498C84.7362 242.947 85.1516 242.513 85.6742 242.196C86.1969 241.879 86.7942 241.72 87.4662 241.72C88.0169 241.72 88.5116 241.827 88.9502 242.042C89.3982 242.247 89.7669 242.541 90.0562 242.924C90.3456 243.307 90.5276 243.755 90.6022 244.268H89.3142C89.2209 243.839 89.0156 243.493 88.6982 243.232C88.3809 242.971 87.9796 242.84 87.4942 242.84C87.0649 242.84 86.6916 242.947 86.3742 243.162C86.0662 243.367 85.8236 243.666 85.6462 244.058C85.4782 244.441 85.3942 244.889 85.3942 245.402C85.3942 245.925 85.4782 246.382 85.6462 246.774C85.8236 247.166 86.0709 247.469 86.3882 247.684C86.7056 247.899 87.0742 248.006 87.4942 248.006C87.9702 248.006 88.3716 247.88 88.6982 247.628C89.0249 247.367 89.2349 247.021 89.3282 246.592H90.6162C90.5322 247.096 90.3409 247.544 90.0422 247.936C89.7529 248.319 89.3842 248.617 88.9362 248.832C88.4976 249.037 88.0076 249.14 87.4662 249.14ZM95.0558 249.126C94.2251 249.126 93.6184 248.939 93.2358 248.566C92.8624 248.183 92.6758 247.623 92.6758 246.886V240.208L94.0338 239.704V246.886C94.0338 247.269 94.1318 247.553 94.3278 247.74C94.5331 247.917 94.8551 248.006 95.2938 248.006C95.4711 248.006 95.6251 247.992 95.7558 247.964C95.8864 247.936 95.9984 247.903 96.0918 247.866V248.986C95.9984 249.033 95.8584 249.065 95.6718 249.084C95.4851 249.112 95.2798 249.126 95.0558 249.126ZM91.2338 242.966V241.86H96.0918V242.966H91.2338ZM100.263 249V241.86H101.565V243.54H101.635V249H100.263ZM105.079 249V244.31C105.079 243.815 104.962 243.451 104.729 243.218C104.505 242.985 104.178 242.868 103.749 242.868C103.348 242.868 102.984 242.966 102.657 243.162C102.34 243.349 102.088 243.61 101.901 243.946C101.724 244.273 101.635 244.66 101.635 245.108L101.453 243.442C101.686 242.91 102.041 242.49 102.517 242.182C102.993 241.874 103.525 241.72 104.113 241.72C104.813 241.72 105.373 241.925 105.793 242.336C106.222 242.747 106.437 243.288 106.437 243.96V249H105.079ZM109.895 249V244.31C109.895 243.815 109.778 243.451 109.545 243.218C109.312 242.985 108.98 242.868 108.551 242.868C108.159 242.868 107.8 242.966 107.473 243.162C107.156 243.349 106.904 243.61 106.717 243.946C106.53 244.273 106.437 244.66 106.437 245.108L106.157 243.442C106.39 242.91 106.754 242.49 107.249 242.182C107.744 241.874 108.29 241.72 108.887 241.72C109.596 241.72 110.166 241.925 110.595 242.336C111.034 242.747 111.253 243.302 111.253 244.002V249H109.895ZM113.524 251.87L115.204 247.992L115.484 247.544L117.71 241.86H119.124L114.938 251.87H113.524ZM115.19 249.014L112.096 241.86H113.594L116.226 248.3L115.19 249.014ZM128.302 249V247.348L128.442 247.39C128.283 247.922 127.966 248.347 127.49 248.664C127.023 248.981 126.468 249.14 125.824 249.14C125.171 249.14 124.601 248.986 124.116 248.678C123.64 248.37 123.271 247.941 123.01 247.39C122.749 246.839 122.618 246.195 122.618 245.458C122.618 244.711 122.753 244.058 123.024 243.498C123.295 242.938 123.673 242.504 124.158 242.196C124.643 241.888 125.213 241.734 125.866 241.734C126.538 241.734 127.098 241.897 127.546 242.224C127.994 242.541 128.293 242.994 128.442 243.582L128.232 243.61V238.92H129.604V249H128.302ZM126.146 247.978C126.809 247.978 127.331 247.754 127.714 247.306C128.097 246.849 128.288 246.219 128.288 245.416C128.288 244.632 128.092 244.016 127.7 243.568C127.317 243.111 126.795 242.882 126.132 242.882C125.479 242.882 124.961 243.111 124.578 243.568C124.205 244.016 124.018 244.646 124.018 245.458C124.018 246.251 124.205 246.872 124.578 247.32C124.961 247.759 125.483 247.978 126.146 247.978ZM136.118 249C136.081 248.832 136.053 248.641 136.034 248.426C136.016 248.211 136.006 247.945 136.006 247.628H135.936V244.226C135.936 243.75 135.82 243.395 135.586 243.162C135.353 242.929 134.984 242.812 134.48 242.812C133.986 242.812 133.589 242.91 133.29 243.106C133.001 243.302 132.833 243.577 132.786 243.932H131.484C131.54 243.251 131.839 242.714 132.38 242.322C132.922 241.921 133.64 241.72 134.536 241.72C135.451 241.72 136.137 241.935 136.594 242.364C137.052 242.793 137.28 243.428 137.28 244.268V247.628C137.28 247.843 137.294 248.062 137.322 248.286C137.36 248.51 137.402 248.748 137.448 249H136.118ZM133.654 249.14C132.926 249.14 132.348 248.963 131.918 248.608C131.489 248.244 131.274 247.754 131.274 247.138C131.274 246.503 131.498 246.004 131.946 245.64C132.394 245.276 133.038 245.029 133.878 244.898L136.258 244.506V245.5L134.088 245.85C133.603 245.925 133.234 246.055 132.982 246.242C132.74 246.419 132.618 246.681 132.618 247.026C132.618 247.362 132.73 247.614 132.954 247.782C133.188 247.95 133.519 248.034 133.948 248.034C134.527 248.034 135.003 247.899 135.376 247.628C135.75 247.357 135.936 247.012 135.936 246.592L136.132 247.614C135.964 248.099 135.666 248.477 135.236 248.748C134.807 249.009 134.28 249.14 133.654 249.14ZM141.775 249.14C140.861 249.14 140.128 248.935 139.577 248.524C139.036 248.113 138.728 247.535 138.653 246.788H139.941C139.997 247.217 140.184 247.544 140.501 247.768C140.828 247.983 141.262 248.09 141.803 248.09C142.279 248.09 142.648 248.006 142.909 247.838C143.171 247.67 143.301 247.427 143.301 247.11C143.301 246.877 143.227 246.681 143.077 246.522C142.928 246.363 142.639 246.228 142.209 246.116L141.061 245.836C140.361 245.668 139.839 245.411 139.493 245.066C139.148 244.711 138.975 244.277 138.975 243.764C138.975 243.129 139.213 242.63 139.689 242.266C140.165 241.902 140.814 241.72 141.635 241.72C142.457 241.72 143.119 241.907 143.623 242.28C144.127 242.653 144.407 243.171 144.463 243.834H143.189C143.133 243.489 142.965 243.223 142.685 243.036C142.415 242.849 142.051 242.756 141.593 242.756C141.155 242.756 140.819 242.835 140.585 242.994C140.352 243.153 140.235 243.377 140.235 243.666C140.235 243.89 140.319 244.081 140.487 244.24C140.665 244.389 140.959 244.52 141.369 244.632L142.531 244.926C143.213 245.103 143.721 245.379 144.057 245.752C144.403 246.125 144.575 246.573 144.575 247.096C144.575 247.74 144.328 248.244 143.833 248.608C143.348 248.963 142.662 249.14 141.775 249.14ZM145.982 249V238.92H147.354V249H145.982ZM151.064 249V244.38C151.064 243.876 150.933 243.498 150.672 243.246C150.42 242.994 150.046 242.868 149.552 242.868C149.122 242.868 148.74 242.966 148.404 243.162C148.077 243.349 147.82 243.615 147.634 243.96C147.447 244.296 147.354 244.688 147.354 245.136L147.172 243.442C147.405 242.91 147.764 242.49 148.25 242.182C148.744 241.874 149.314 241.72 149.958 241.72C150.714 241.72 151.311 241.935 151.75 242.364C152.198 242.793 152.422 243.358 152.422 244.058V249H151.064ZM158.169 249.126C157.497 249.126 156.932 248.967 156.475 248.65C156.027 248.323 155.733 247.866 155.593 247.278L155.733 247.25V249H154.431V238.92H155.803V243.498L155.649 243.47C155.808 242.919 156.12 242.49 156.587 242.182C157.054 241.874 157.614 241.72 158.267 241.72C158.902 241.72 159.452 241.874 159.919 242.182C160.395 242.49 160.764 242.919 161.025 243.47C161.286 244.021 161.417 244.665 161.417 245.402C161.417 246.149 161.282 246.802 161.011 247.362C160.74 247.922 160.362 248.356 159.877 248.664C159.392 248.972 158.822 249.126 158.169 249.126ZM157.889 247.978C158.552 247.978 159.07 247.749 159.443 247.292C159.826 246.835 160.017 246.205 160.017 245.402C160.017 244.609 159.826 243.988 159.443 243.54C159.06 243.092 158.542 242.868 157.889 242.868C157.236 242.868 156.713 243.097 156.321 243.554C155.938 244.011 155.747 244.641 155.747 245.444C155.747 246.228 155.938 246.849 156.321 247.306C156.713 247.754 157.236 247.978 157.889 247.978ZM166.124 249.14C165.396 249.14 164.757 248.981 164.206 248.664C163.665 248.337 163.24 247.894 162.932 247.334C162.633 246.765 162.484 246.121 162.484 245.402C162.484 244.674 162.638 244.035 162.946 243.484C163.254 242.933 163.679 242.504 164.22 242.196C164.761 241.879 165.396 241.72 166.124 241.72C166.852 241.72 167.487 241.879 168.028 242.196C168.569 242.504 168.989 242.933 169.288 243.484C169.596 244.035 169.75 244.674 169.75 245.402C169.75 246.121 169.596 246.765 169.288 247.334C168.989 247.894 168.569 248.337 168.028 248.664C167.487 248.981 166.852 249.14 166.124 249.14ZM166.124 248.006C166.563 248.006 166.95 247.899 167.286 247.684C167.622 247.46 167.883 247.152 168.07 246.76C168.257 246.368 168.35 245.911 168.35 245.388C168.35 244.613 168.145 243.997 167.734 243.54C167.323 243.073 166.787 242.84 166.124 242.84C165.461 242.84 164.925 243.073 164.514 243.54C164.103 243.997 163.898 244.613 163.898 245.388C163.898 245.911 163.991 246.368 164.178 246.76C164.365 247.152 164.626 247.46 164.962 247.684C165.298 247.899 165.685 248.006 166.124 248.006ZM175.685 249C175.647 248.832 175.619 248.641 175.601 248.426C175.582 248.211 175.573 247.945 175.573 247.628H175.503V244.226C175.503 243.75 175.386 243.395 175.153 243.162C174.919 242.929 174.551 242.812 174.047 242.812C173.552 242.812 173.155 242.91 172.857 243.106C172.567 243.302 172.399 243.577 172.353 243.932H171.051C171.107 243.251 171.405 242.714 171.947 242.322C172.488 241.921 173.207 241.72 174.103 241.72C175.017 241.72 175.703 241.935 176.161 242.364C176.618 242.793 176.847 243.428 176.847 244.268V247.628C176.847 247.843 176.861 248.062 176.889 248.286C176.926 248.51 176.968 248.748 177.015 249H175.685ZM173.221 249.14C172.493 249.14 171.914 248.963 171.485 248.608C171.055 248.244 170.841 247.754 170.841 247.138C170.841 246.503 171.065 246.004 171.513 245.64C171.961 245.276 172.605 245.029 173.445 244.898L175.825 244.506V245.5L173.655 245.85C173.169 245.925 172.801 246.055 172.549 246.242C172.306 246.419 172.185 246.681 172.185 247.026C172.185 247.362 172.297 247.614 172.521 247.782C172.754 247.95 173.085 248.034 173.515 248.034C174.093 248.034 174.569 247.899 174.943 247.628C175.316 247.357 175.503 247.012 175.503 246.592L175.699 247.614C175.531 248.099 175.232 248.477 174.803 248.748C174.373 249.009 173.846 249.14 173.221 249.14ZM178.876 249V241.86H180.178V243.638H180.248V249H178.876ZM180.248 245.276L180.066 243.582C180.234 242.975 180.524 242.513 180.934 242.196C181.354 241.879 181.844 241.72 182.404 241.72C182.628 241.72 182.782 241.739 182.866 241.776V243.078C182.82 243.059 182.754 243.05 182.67 243.05C182.586 243.041 182.484 243.036 182.362 243.036C181.662 243.036 181.135 243.227 180.78 243.61C180.426 243.983 180.248 244.539 180.248 245.276ZM189.169 249V247.348L189.309 247.39C189.15 247.922 188.833 248.347 188.357 248.664C187.89 248.981 187.335 249.14 186.691 249.14C186.038 249.14 185.468 248.986 184.983 248.678C184.507 248.37 184.138 247.941 183.877 247.39C183.616 246.839 183.485 246.195 183.485 245.458C183.485 244.711 183.62 244.058 183.891 243.498C184.162 242.938 184.54 242.504 185.025 242.196C185.51 241.888 186.08 241.734 186.733 241.734C187.405 241.734 187.965 241.897 188.413 242.224C188.861 242.541 189.16 242.994 189.309 243.582L189.099 243.61V238.92H190.471V249H189.169ZM187.013 247.978C187.676 247.978 188.198 247.754 188.581 247.306C188.964 246.849 189.155 246.219 189.155 245.416C189.155 244.632 188.959 244.016 188.567 243.568C188.184 243.111 187.662 242.882 186.999 242.882C186.346 242.882 185.828 243.111 185.445 243.568C185.072 244.016 184.885 244.646 184.885 245.458C184.885 246.251 185.072 246.872 185.445 247.32C185.828 247.759 186.35 247.978 187.013 247.978ZM196.821 249L194.637 241.86H196.037L197.563 247.698H197.339L199.201 241.86H200.377L202.239 247.698H202.015L203.541 241.86H204.885L202.701 249H201.511L199.649 243.274H199.887L197.997 249H196.821ZM206.206 249V241.86H207.578V249H206.206ZM206.122 240.404V238.85H207.648V240.404H206.122ZM212.62 249.126C211.79 249.126 211.183 248.939 210.8 248.566C210.427 248.183 210.24 247.623 210.24 246.886V240.208L211.598 239.704V246.886C211.598 247.269 211.696 247.553 211.892 247.74C212.098 247.917 212.42 248.006 212.858 248.006C213.036 248.006 213.19 247.992 213.32 247.964C213.451 247.936 213.563 247.903 213.656 247.866V248.986C213.563 249.033 213.423 249.065 213.236 249.084C213.05 249.112 212.844 249.126 212.62 249.126ZM208.798 242.966V241.86H213.656V242.966H208.798ZM215.052 249V238.92H216.424V249H215.052ZM220.134 249V244.38C220.134 243.876 220.003 243.498 219.742 243.246C219.49 242.994 219.117 242.868 218.622 242.868C218.193 242.868 217.81 242.966 217.474 243.162C217.147 243.349 216.891 243.615 216.704 243.96C216.517 244.296 216.424 244.688 216.424 245.136L216.242 243.442C216.475 242.91 216.835 242.49 217.32 242.182C217.815 241.874 218.384 241.72 219.028 241.72C219.784 241.72 220.381 241.935 220.82 242.364C221.268 242.793 221.492 243.358 221.492 244.058V249H220.134ZM231.443 249V247.348L231.583 247.39C231.424 247.922 231.107 248.347 230.631 248.664C230.164 248.981 229.609 249.14 228.965 249.14C228.311 249.14 227.742 248.986 227.257 248.678C226.781 248.37 226.412 247.941 226.151 247.39C225.889 246.839 225.759 246.195 225.759 245.458C225.759 244.711 225.894 244.058 226.165 243.498C226.435 242.938 226.813 242.504 227.299 242.196C227.784 241.888 228.353 241.734 229.007 241.734C229.679 241.734 230.239 241.897 230.687 242.224C231.135 242.541 231.433 242.994 231.583 243.582L231.373 243.61V238.92H232.745V249H231.443ZM229.287 247.978C229.949 247.978 230.472 247.754 230.855 247.306C231.237 246.849 231.429 246.219 231.429 245.416C231.429 244.632 231.233 244.016 230.841 243.568C230.458 243.111 229.935 242.882 229.273 242.882C228.619 242.882 228.101 243.111 227.719 243.568C227.345 244.016 227.159 244.646 227.159 245.458C227.159 246.251 227.345 246.872 227.719 247.32C228.101 247.759 228.624 247.978 229.287 247.978ZM239.259 249C239.221 248.832 239.193 248.641 239.175 248.426C239.156 248.211 239.147 247.945 239.147 247.628H239.077V244.226C239.077 243.75 238.96 243.395 238.727 243.162C238.493 242.929 238.125 242.812 237.621 242.812C237.126 242.812 236.729 242.91 236.431 243.106C236.141 243.302 235.973 243.577 235.927 243.932H234.625C234.681 243.251 234.979 242.714 235.521 242.322C236.062 241.921 236.781 241.72 237.677 241.72C238.591 241.72 239.277 241.935 239.735 242.364C240.192 242.793 240.421 243.428 240.421 244.268V247.628C240.421 247.843 240.435 248.062 240.463 248.286C240.5 248.51 240.542 248.748 240.589 249H239.259ZM236.795 249.14C236.067 249.14 235.488 248.963 235.059 248.608C234.629 248.244 234.415 247.754 234.415 247.138C234.415 246.503 234.639 246.004 235.087 245.64C235.535 245.276 236.179 245.029 237.019 244.898L239.399 244.506V245.5L237.229 245.85C236.743 245.925 236.375 246.055 236.123 246.242C235.88 246.419 235.759 246.681 235.759 247.026C235.759 247.362 235.871 247.614 236.095 247.782C236.328 247.95 236.659 248.034 237.089 248.034C237.667 248.034 238.143 247.899 238.517 247.628C238.89 247.357 239.077 247.012 239.077 246.592L239.273 247.614C239.105 248.099 238.806 248.477 238.377 248.748C237.947 249.009 237.42 249.14 236.795 249.14ZM245.187 249.126C244.356 249.126 243.749 248.939 243.367 248.566C242.993 248.183 242.807 247.623 242.807 246.886V240.208L244.165 239.704V246.886C244.165 247.269 244.263 247.553 244.459 247.74C244.664 247.917 244.986 248.006 245.425 248.006C245.602 248.006 245.756 247.992 245.887 247.964C246.017 247.936 246.129 247.903 246.223 247.866V248.986C246.129 249.033 245.989 249.065 245.803 249.084C245.616 249.112 245.411 249.126 245.187 249.126ZM241.365 242.966V241.86H246.223V242.966H241.365ZM251.987 249C251.95 248.832 251.922 248.641 251.903 248.426C251.885 248.211 251.875 247.945 251.875 247.628H251.805V244.226C251.805 243.75 251.689 243.395 251.455 243.162C251.222 242.929 250.853 242.812 250.349 242.812C249.855 242.812 249.458 242.91 249.159 243.106C248.87 243.302 248.702 243.577 248.655 243.932H247.353C247.409 243.251 247.708 242.714 248.249 242.322C248.791 241.921 249.509 241.72 250.405 241.72C251.32 241.72 252.006 241.935 252.463 242.364C252.921 242.793 253.149 243.428 253.149 244.268V247.628C253.149 247.843 253.163 248.062 253.191 248.286C253.229 248.51 253.271 248.748 253.317 249H251.987ZM249.523 249.14C248.795 249.14 248.217 248.963 247.787 248.608C247.358 248.244 247.143 247.754 247.143 247.138C247.143 246.503 247.367 246.004 247.815 245.64C248.263 245.276 248.907 245.029 249.747 244.898L252.127 244.506V245.5L249.957 245.85C249.472 245.925 249.103 246.055 248.851 246.242C248.609 246.419 248.487 246.681 248.487 247.026C248.487 247.362 248.599 247.614 248.823 247.782C249.057 247.95 249.388 248.034 249.817 248.034C250.396 248.034 250.872 247.899 251.245 247.628C251.619 247.357 251.805 247.012 251.805 246.592L252.001 247.614C251.833 248.099 251.535 248.477 251.105 248.748C250.676 249.009 250.149 249.14 249.523 249.14ZM258.917 249.126C258.245 249.126 257.68 248.967 257.223 248.65C256.775 248.323 256.481 247.866 256.341 247.278L256.481 247.25V249H255.179V238.92H256.551V243.498L256.397 243.47C256.556 242.919 256.868 242.49 257.335 242.182C257.802 241.874 258.362 241.72 259.015 241.72C259.65 241.72 260.2 241.874 260.667 242.182C261.143 242.49 261.512 242.919 261.773 243.47C262.034 244.021 262.165 244.665 262.165 245.402C262.165 246.149 262.03 246.802 261.759 247.362C261.488 247.922 261.11 248.356 260.625 248.664C260.14 248.972 259.57 249.126 258.917 249.126ZM258.637 247.978C259.3 247.978 259.818 247.749 260.191 247.292C260.574 246.835 260.765 246.205 260.765 245.402C260.765 244.609 260.574 243.988 260.191 243.54C259.808 243.092 259.29 242.868 258.637 242.868C257.984 242.868 257.461 243.097 257.069 243.554C256.686 244.011 256.495 244.641 256.495 245.444C256.495 246.228 256.686 246.849 257.069 247.306C257.461 247.754 257.984 247.978 258.637 247.978ZM268.175 249C268.138 248.832 268.11 248.641 268.091 248.426C268.072 248.211 268.063 247.945 268.063 247.628H267.993V244.226C267.993 243.75 267.876 243.395 267.643 243.162C267.41 242.929 267.041 242.812 266.537 242.812C266.042 242.812 265.646 242.91 265.347 243.106C265.058 243.302 264.89 243.577 264.843 243.932H263.541C263.597 243.251 263.896 242.714 264.437 242.322C264.978 241.921 265.697 241.72 266.593 241.72C267.508 241.72 268.194 241.935 268.651 242.364C269.108 242.793 269.337 243.428 269.337 244.268V247.628C269.337 247.843 269.351 248.062 269.379 248.286C269.416 248.51 269.458 248.748 269.505 249H268.175ZM265.711 249.14C264.983 249.14 264.404 248.963 263.975 248.608C263.546 248.244 263.331 247.754 263.331 247.138C263.331 246.503 263.555 246.004 264.003 245.64C264.451 245.276 265.095 245.029 265.935 244.898L268.315 244.506V245.5L266.145 245.85C265.66 245.925 265.291 246.055 265.039 246.242C264.796 246.419 264.675 246.681 264.675 247.026C264.675 247.362 264.787 247.614 265.011 247.782C265.244 247.95 265.576 248.034 266.005 248.034C266.584 248.034 267.06 247.899 267.433 247.628C267.806 247.357 267.993 247.012 267.993 246.592L268.189 247.614C268.021 248.099 267.722 248.477 267.293 248.748C266.864 249.009 266.336 249.14 265.711 249.14ZM273.832 249.14C272.917 249.14 272.185 248.935 271.634 248.524C271.093 248.113 270.785 247.535 270.71 246.788H271.998C272.054 247.217 272.241 247.544 272.558 247.768C272.885 247.983 273.319 248.09 273.86 248.09C274.336 248.09 274.705 248.006 274.966 247.838C275.227 247.67 275.358 247.427 275.358 247.11C275.358 246.877 275.283 246.681 275.134 246.522C274.985 246.363 274.695 246.228 274.266 246.116L273.118 245.836C272.418 245.668 271.895 245.411 271.55 245.066C271.205 244.711 271.032 244.277 271.032 243.764C271.032 243.129 271.27 242.63 271.746 242.266C272.222 241.902 272.871 241.72 273.692 241.72C274.513 241.72 275.176 241.907 275.68 242.28C276.184 242.653 276.464 243.171 276.52 243.834H275.246C275.19 243.489 275.022 243.223 274.742 243.036C274.471 242.849 274.107 242.756 273.65 242.756C273.211 242.756 272.875 242.835 272.642 242.994C272.409 243.153 272.292 243.377 272.292 243.666C272.292 243.89 272.376 244.081 272.544 244.24C272.721 244.389 273.015 244.52 273.426 244.632L274.588 244.926C275.269 245.103 275.778 245.379 276.114 245.752C276.459 246.125 276.632 246.573 276.632 247.096C276.632 247.74 276.385 248.244 275.89 248.608C275.405 248.963 274.719 249.14 273.832 249.14ZM281.322 249.14C280.613 249.14 279.988 248.981 279.446 248.664C278.905 248.337 278.48 247.894 278.172 247.334C277.874 246.774 277.724 246.13 277.724 245.402C277.724 244.674 277.874 244.035 278.172 243.484C278.48 242.924 278.905 242.49 279.446 242.182C279.988 241.874 280.613 241.72 281.322 241.72C282.004 241.72 282.596 241.865 283.1 242.154C283.604 242.443 283.992 242.854 284.262 243.386C284.542 243.909 284.682 244.525 284.682 245.234C284.682 245.346 284.678 245.449 284.668 245.542C284.659 245.635 284.645 245.733 284.626 245.836H278.662V244.786H283.688L283.324 245.234C283.324 244.45 283.147 243.853 282.792 243.442C282.447 243.022 281.957 242.812 281.322 242.812C280.65 242.812 280.114 243.045 279.712 243.512C279.311 243.969 279.11 244.599 279.11 245.402C279.11 246.223 279.311 246.872 279.712 247.348C280.114 247.815 280.664 248.048 281.364 248.048C281.784 248.048 282.153 247.959 282.47 247.782C282.797 247.605 283.035 247.343 283.184 246.998H284.472C284.239 247.661 283.847 248.183 283.296 248.566C282.746 248.949 282.088 249.14 281.322 249.14Z" fill="#979FAA"/>
<rect x="40" y="276" width="116" height="24" rx="12" stroke="#CACDD4" stroke-dasharray="2 2"/>
<path d="M54.499 285.563C54.6591 285.522 54.827 285.5 55 285.5C56.1046 285.5 57 286.395 57 287.5C57 288.605 56.1046 289.5 55 289.5C54.8225 289.5 54.6505 289.477 54.4867 289.433M54.499 285.563C54.4996 285.542 54.5 285.521 54.5 285.5C54.5 284.395 53.6046 283.5 52.5 283.5C51.5412 283.5 50.74 284.175 50.5452 285.075M54.499 285.563C54.4884 285.904 54.3927 286.223 54.2324 286.5M54.4867 289.433C54.4955 289.374 54.5 289.312 54.5 289.25C54.5 288.645 54.0706 288.141 53.5 288.025M54.4867 289.433C54.3979 290.037 53.878 290.5 53.25 290.5H53C51.8954 290.5 51 291.395 51 292.5M50.5452 285.075C50.3719 285.026 50.189 285 50 285C48.8954 285 48 285.895 48 287C48 287.194 48.0277 287.382 48.0794 287.56M50.5452 285.075C51.0508 285.218 51.4749 285.555 51.7325 286M48.0794 287.56C47.4557 287.742 47 288.318 47 289C47 289.828 47.6716 290.5 48.5 290.5C49.1531 290.5 49.7087 290.083 49.9146 289.5M48.0794 287.56C48.1246 287.715 48.1882 287.863 48.2676 288" stroke="#979FAA" stroke-linecap="round" stroke-linejoin="round"/>
<path d="M51.919 287.872C51.6638 288.118 51.2275 288.16 50.8545 287.95C50.4816 287.741 50.2911 287.346 50.3686 287" stroke="#979FAA" stroke-linecap="round"/>
<path d="M67.644 292V290.992H69.936C70.632 290.992 71.228 290.852 71.724 290.572C72.22 290.284 72.6 289.888 72.864 289.384C73.136 288.88 73.272 288.296 73.272 287.632C73.272 286.976 73.14 286.404 72.876 285.916C72.612 285.42 72.232 285.04 71.736 284.776C71.24 284.504 70.64 284.368 69.936 284.368H67.656V283.36H69.936C70.856 283.36 71.656 283.536 72.336 283.888C73.024 284.24 73.556 284.74 73.932 285.388C74.308 286.028 74.496 286.784 74.496 287.656C74.496 288.52 74.304 289.28 73.92 289.936C73.544 290.584 73.016 291.092 72.336 291.46C71.656 291.82 70.86 292 69.948 292H67.644ZM66.924 292V283.36H68.124V292H66.924ZM78.504 292.12C77.896 292.12 77.36 291.984 76.896 291.712C76.432 291.432 76.068 291.052 75.804 290.572C75.548 290.092 75.42 289.54 75.42 288.916C75.42 288.292 75.548 287.744 75.804 287.272C76.068 286.792 76.432 286.42 76.896 286.156C77.36 285.892 77.896 285.76 78.504 285.76C79.088 285.76 79.596 285.884 80.028 286.132C80.46 286.38 80.792 286.732 81.024 287.188C81.264 287.636 81.384 288.164 81.384 288.772C81.384 288.868 81.38 288.956 81.372 289.036C81.364 289.116 81.352 289.2 81.336 289.288H76.224V288.388H80.532L80.22 288.772C80.22 288.1 80.068 287.588 79.764 287.236C79.468 286.876 79.048 286.696 78.504 286.696C77.928 286.696 77.468 286.896 77.124 287.296C76.78 287.688 76.608 288.228 76.608 288.916C76.608 289.62 76.78 290.176 77.124 290.584C77.468 290.984 77.94 291.184 78.54 291.184C78.9 291.184 79.216 291.108 79.488 290.956C79.768 290.804 79.972 290.58 80.1 290.284H81.204C81.004 290.852 80.668 291.3 80.196 291.628C79.724 291.956 79.16 292.12 78.504 292.12ZM85.3478 292.12C84.7398 292.12 84.2038 291.984 83.7398 291.712C83.2758 291.432 82.9118 291.052 82.6478 290.572C82.3918 290.092 82.2638 289.54 82.2638 288.916C82.2638 288.292 82.3918 287.744 82.6478 287.272C82.9118 286.792 83.2758 286.42 83.7398 286.156C84.2038 285.892 84.7398 285.76 85.3478 285.76C85.9318 285.76 86.4398 285.884 86.8718 286.132C87.3038 286.38 87.6358 286.732 87.8678 287.188C88.1078 287.636 88.2278 288.164 88.2278 288.772C88.2278 288.868 88.2238 288.956 88.2158 289.036C88.2078 289.116 88.1958 289.2 88.1797 289.288H83.0678V288.388H87.3758L87.0638 288.772C87.0638 288.1 86.9118 287.588 86.6078 287.236C86.3118 286.876 85.8918 286.696 85.3478 286.696C84.7718 286.696 84.3118 286.896 83.9678 287.296C83.6238 287.688 83.4518 288.228 83.4518 288.916C83.4518 289.62 83.6238 290.176 83.9678 290.584C84.3118 290.984 84.7838 291.184 85.3838 291.184C85.7438 291.184 86.0598 291.108 86.3318 290.956C86.6118 290.804 86.8158 290.58 86.9438 290.284H88.0478C87.8478 290.852 87.5118 291.3 87.0398 291.628C86.5678 291.956 86.0038 292.12 85.3478 292.12ZM92.7563 292.108C92.1803 292.108 91.7003 291.972 91.3163 291.7C90.9323 291.42 90.6803 291.028 90.5603 290.524L90.7283 290.5V294.46H89.5523V285.88H90.6683V287.284L90.5483 287.26C90.6843 286.788 90.9603 286.42 91.3763 286.156C91.7923 285.892 92.2803 285.76 92.8403 285.76C93.3843 285.76 93.8563 285.892 94.2563 286.156C94.6643 286.42 94.9803 286.788 95.2043 287.26C95.4283 287.732 95.5403 288.284 95.5403 288.916C95.5403 289.556 95.4243 290.116 95.1923 290.596C94.9603 291.076 94.6363 291.448 94.2203 291.712C93.8043 291.976 93.3163 292.108 92.7563 292.108ZM92.5163 291.124C93.0843 291.124 93.5283 290.928 93.8483 290.536C94.1763 290.144 94.3403 289.604 94.3403 288.916C94.3403 288.236 94.1763 287.704 93.8483 287.32C93.5203 286.936 93.0763 286.744 92.5163 286.744C91.9563 286.744 91.5083 286.94 91.1723 287.332C90.8443 287.724 90.6803 288.264 90.6803 288.952C90.6803 289.624 90.8443 290.156 91.1723 290.548C91.5083 290.932 91.9563 291.124 92.5163 291.124ZM101.703 292V284.356H98.7749V283.36H105.831V284.356H102.903V292H101.703ZM107.13 292V283.36H108.306V292H107.13ZM111.486 292V288.04C111.486 287.608 111.374 287.284 111.15 287.068C110.934 286.852 110.614 286.744 110.19 286.744C109.822 286.744 109.494 286.828 109.206 286.996C108.926 287.156 108.706 287.384 108.546 287.68C108.386 287.968 108.306 288.304 108.306 288.688L108.15 287.236C108.35 286.78 108.658 286.42 109.074 286.156C109.498 285.892 109.986 285.76 110.538 285.76C111.186 285.76 111.698 285.944 112.074 286.312C112.458 286.68 112.65 287.164 112.65 287.764V292H111.486ZM114.349 292V285.88H115.525V292H114.349ZM114.277 284.632V283.3H115.585V284.632H114.277ZM117.326 292V285.88H118.442V287.32H118.502V292H117.326ZM121.682 292V288.04C121.682 287.608 121.57 287.284 121.346 287.068C121.13 286.852 120.81 286.744 120.386 286.744C120.018 286.744 119.69 286.828 119.402 286.996C119.122 287.156 118.902 287.384 118.742 287.68C118.582 287.968 118.502 288.304 118.502 288.688L118.346 287.236C118.546 286.78 118.854 286.42 119.27 286.156C119.694 285.892 120.182 285.76 120.734 285.76C121.382 285.76 121.894 285.944 122.27 286.312C122.654 286.68 122.846 287.164 122.846 287.764V292H121.682ZM124.568 292V283.18H125.744V292H124.568ZM128.552 292L125.468 288.82L128.444 285.88H129.956L126.584 289.096L126.656 288.532L130.076 292H128.552ZM131.025 292V285.88H132.201V292H131.025ZM130.953 284.632V283.3H132.261V284.632H130.953ZM134.002 292V285.88H135.118V287.32H135.178V292H134.002ZM138.358 292V288.04C138.358 287.608 138.246 287.284 138.022 287.068C137.806 286.852 137.486 286.744 137.062 286.744C136.694 286.744 136.366 286.828 136.078 286.996C135.798 287.156 135.578 287.384 135.418 287.68C135.258 287.968 135.178 288.304 135.178 288.688L135.022 287.236C135.222 286.78 135.53 286.42 135.946 286.156C136.37 285.892 136.858 285.76 137.41 285.76C138.058 285.76 138.57 285.944 138.946 286.312C139.33 286.68 139.522 287.164 139.522 287.764V292H138.358ZM143.764 294.58C143.004 294.58 142.376 294.408 141.88 294.064C141.384 293.72 141.088 293.26 140.992 292.684H142.096C142.176 292.964 142.356 293.184 142.636 293.344C142.924 293.504 143.308 293.584 143.788 293.584C144.396 293.584 144.848 293.428 145.144 293.116C145.448 292.812 145.6 292.36 145.6 291.76V290.44L145.72 290.464C145.592 290.928 145.328 291.296 144.928 291.568C144.528 291.84 144.048 291.976 143.488 291.976C142.944 291.976 142.468 291.848 142.06 291.592C141.66 291.328 141.348 290.968 141.124 290.512C140.9 290.048 140.788 289.508 140.788 288.892C140.788 288.268 140.904 287.72 141.136 287.248C141.368 286.776 141.692 286.412 142.108 286.156C142.532 285.9 143.024 285.772 143.584 285.772C144.16 285.772 144.636 285.912 145.012 286.192C145.396 286.464 145.644 286.856 145.756 287.368L145.66 287.38V285.88H146.776V291.748C146.776 292.628 146.508 293.32 145.972 293.824C145.436 294.328 144.7 294.58 143.764 294.58ZM143.824 291.004C144.376 291.004 144.816 290.812 145.144 290.428C145.48 290.044 145.648 289.516 145.648 288.844C145.648 288.188 145.48 287.672 145.144 287.296C144.816 286.92 144.372 286.732 143.812 286.732C143.252 286.732 142.808 286.924 142.48 287.308C142.152 287.684 141.988 288.208 141.988 288.88C141.988 289.536 142.152 290.056 142.48 290.44C142.816 290.816 143.264 291.004 143.824 291.004Z" fill="#979FAA"/>
</g>
</g>
<g clip-path="url(#clip1_21344_3122)" filter="url(#filter4_dddddd_21344_3122)">
<rect width="288" height="380" transform="translate(264)" fill="white"/>
<mask id="mask2_21344_3122" style="mask-type:alpha" maskUnits="userSpaceOnUse" x="264" y="0" width="288" height="380">
<rect x="264" width="288" height="380" fill="url(#paint5_linear_21344_3122)"/>
</mask>
<g mask="url(#mask2_21344_3122)">
<mask id="mask3_21344_3122" style="mask-type:alpha" maskUnits="userSpaceOnUse" x="264" y="100" width="288" height="280">
<rect x="264" y="100" width="288" height="280" fill="url(#paint6_linear_21344_3122)"/>
</mask>
<g mask="url(#mask3_21344_3122)">
<rect x="288.5" y="212.5" width="239" height="63" rx="7.5" fill="white"/>
<rect x="288.5" y="212.5" width="239" height="63" rx="7.5" stroke="#C2B5F5" stroke-dasharray="1 3"/>
<g clip-path="url(#clip2_21344_3122)">
<rect x="304.5" y="228.5" width="31" height="31" rx="15.5" fill="white"/>
<rect x="304.5" y="228.5" width="31" height="31" rx="15.5" stroke="#EBE4FF"/>
<path d="M316.385 246.321C315.442 246.883 312.969 248.03 314.475 249.465C315.211 250.165 316.03 250.667 317.061 250.667H322.939C323.97 250.667 324.789 250.165 325.525 249.465C327.031 248.03 324.558 246.883 323.615 246.321C321.403 245.004 318.597 245.004 316.385 246.321Z" fill="url(#paint7_radial_21344_3122)"/>
<path d="M323 240.333C323 241.99 321.657 243.333 320 243.333C318.343 243.333 317 241.99 317 240.333C317 238.677 318.343 237.333 320 237.333C321.657 237.333 323 238.677 323 240.333Z" fill="url(#paint8_radial_21344_3122)"/>
<rect x="344" y="234" width="32" height="6" rx="3" fill="#EBE4FF"/>
<rect x="344" y="248" width="72" height="6" rx="3" fill="#EBE4FF"/>
</g>
<rect x="480.5" y="228.5" width="31" height="15" rx="7.5" fill="white"/>
<rect x="480.5" y="228.5" width="31" height="15" rx="7.5" stroke="#EBE4FF"/>
<rect x="499" y="231" width="10" height="10" rx="5" fill="url(#paint9_radial_21344_3122)"/>
<path fill-rule="evenodd" clip-rule="evenodd" d="M451.256 230.057C451.998 229.314 453.202 229.314 453.944 230.057C454.686 230.799 454.686 232.002 453.944 232.744L453.637 233.05L450.95 230.363L451.256 230.057ZM450.243 231.07L452.93 233.757L448.844 237.843C448.442 238.246 447.937 238.531 447.385 238.669L445.455 239.152C445.284 239.194 445.104 239.144 444.98 239.02C444.856 238.896 444.806 238.716 444.848 238.545L445.331 236.615C445.469 236.063 445.754 235.558 446.157 235.156L450.243 231.07ZM447.009 230.833H446.968C445.938 230.833 445.107 230.833 444.446 230.911C443.763 230.992 443.178 231.164 442.685 231.569C442.521 231.704 442.37 231.854 442.236 232.018C441.831 232.511 441.659 233.096 441.578 233.78C441.5 234.44 441.5 235.271 441.5 236.301V236.714C441.5 237.896 441.5 238.849 441.601 239.598C441.705 240.376 441.929 241.031 442.449 241.551C442.969 242.071 443.624 242.295 444.402 242.399C445.151 242.5 446.104 242.5 447.286 242.5H447.699C448.729 242.5 449.56 242.5 450.22 242.422C450.904 242.341 451.489 242.169 451.982 241.764C452.146 241.63 452.296 241.479 452.431 241.315C452.836 240.822 453.008 240.237 453.089 239.554C453.167 238.893 453.167 238.062 453.167 237.032V236.991C453.167 236.633 452.877 236.343 452.519 236.343C452.161 236.343 451.87 236.633 451.87 236.991C451.87 238.072 451.869 238.826 451.801 239.401C451.735 239.963 451.613 240.269 451.429 240.493C451.348 240.591 451.258 240.682 451.159 240.762C450.936 240.946 450.629 241.068 450.068 241.135C449.493 241.203 448.739 241.204 447.657 241.204H447.333C446.093 241.204 445.228 241.202 444.575 241.115C443.941 241.029 443.605 240.873 443.366 240.634C443.127 240.395 442.971 240.059 442.885 239.425C442.798 238.772 442.796 237.907 442.796 236.667V236.343C442.796 235.261 442.797 234.507 442.865 233.932C442.932 233.371 443.054 233.064 443.238 232.841C443.318 232.742 443.409 232.652 443.507 232.571C443.731 232.387 444.037 232.265 444.599 232.199C445.174 232.131 445.928 232.13 447.009 232.13C447.367 232.13 447.657 231.839 447.657 231.481C447.657 231.124 447.367 230.833 447.009 230.833Z" fill="url(#paint10_radial_21344_3122)"/>
<rect x="288.5" y="300.5" width="239" height="63" rx="7.5" fill="white"/>
<rect x="288.5" y="300.5" width="239" height="63" rx="7.5" stroke="#C2B5F5" stroke-dasharray="1 3"/>
<g clip-path="url(#clip3_21344_3122)">
<rect x="304.5" y="316.5" width="31" height="31" rx="15.5" fill="white"/>
<rect x="304.5" y="316.5" width="31" height="31" rx="15.5" stroke="#EBE4FF"/>
<path d="M316.385 334.321C315.442 334.883 312.969 336.03 314.475 337.465C315.211 338.165 316.03 338.667 317.061 338.667H322.939C323.97 338.667 324.789 338.165 325.525 337.465C327.031 336.03 324.558 334.883 323.615 334.321C321.403 333.004 318.597 333.004 316.385 334.321Z" fill="url(#paint11_radial_21344_3122)"/>
<path d="M323 328.333C323 329.99 321.657 331.333 320 331.333C318.343 331.333 317 329.99 317 328.333C317 326.677 318.343 325.333 320 325.333C321.657 325.333 323 326.677 323 328.333Z" fill="url(#paint12_radial_21344_3122)"/>
<rect x="344" y="322" width="64" height="6" rx="3" fill="#EBE4FF"/>
<rect x="344" y="336" width="32" height="6" rx="3" fill="#EBE4FF"/>
</g>
<rect x="480.5" y="316.5" width="31" height="15" rx="7.5" fill="white"/>
<rect x="480.5" y="316.5" width="31" height="15" rx="7.5" stroke="#EBE4FF"/>
<rect x="483" y="319" width="10" height="10" rx="5" fill="#EBE4FF"/>
<path fill-rule="evenodd" clip-rule="evenodd" d="M451.256 318.057C451.998 317.314 453.202 317.314 453.944 318.057C454.686 318.799 454.686 320.002 453.944 320.744L453.637 321.05L450.95 318.363L451.256 318.057ZM450.243 319.07L452.93 321.757L448.844 325.843C448.442 326.246 447.937 326.531 447.385 326.669L445.455 327.152C445.284 327.194 445.104 327.144 444.98 327.02C444.856 326.896 444.806 326.716 444.848 326.545L445.331 324.615C445.469 324.063 445.754 323.558 446.157 323.156L450.243 319.07ZM447.009 318.833H446.968C445.938 318.833 445.107 318.833 444.446 318.911C443.763 318.992 443.178 319.164 442.685 319.569C442.521 319.704 442.37 319.854 442.236 320.018C441.831 320.511 441.659 321.096 441.578 321.78C441.5 322.44 441.5 323.271 441.5 324.301V324.714C441.5 325.896 441.5 326.849 441.601 327.598C441.705 328.376 441.929 329.031 442.449 329.551C442.969 330.071 443.624 330.295 444.402 330.399C445.151 330.5 446.104 330.5 447.286 330.5H447.699C448.729 330.5 449.56 330.5 450.22 330.422C450.904 330.341 451.489 330.169 451.982 329.764C452.146 329.63 452.296 329.479 452.431 329.315C452.836 328.822 453.008 328.237 453.089 327.554C453.167 326.893 453.167 326.062 453.167 325.032V324.991C453.167 324.633 452.877 324.343 452.519 324.343C452.161 324.343 451.87 324.633 451.87 324.991C451.87 326.072 451.869 326.826 451.801 327.401C451.735 327.963 451.613 328.269 451.429 328.493C451.348 328.591 451.258 328.682 451.159 328.762C450.936 328.946 450.629 329.068 450.068 329.135C449.493 329.203 448.739 329.204 447.657 329.204H447.333C446.093 329.204 445.228 329.202 444.575 329.115C443.941 329.029 443.605 328.873 443.366 328.634C443.127 328.395 442.971 328.059 442.885 327.425C442.798 326.772 442.796 325.907 442.796 324.667V324.343C442.796 323.261 442.797 322.507 442.865 321.932C442.932 321.371 443.054 321.064 443.238 320.841C443.318 320.742 443.409 320.652 443.507 320.571C443.731 320.387 444.037 320.265 444.599 320.199C445.174 320.131 445.928 320.13 447.009 320.13C447.367 320.13 447.657 319.839 447.657 319.481C447.657 319.124 447.367 318.833 447.009 318.833Z" fill="url(#paint13_radial_21344_3122)"/>
<rect x="376.5" y="124.5" width="151" height="63" rx="7.5" fill="white"/>
<rect x="376.5" y="124.5" width="151" height="63" rx="7.5" stroke="#C2B5F5" stroke-dasharray="1 3"/>
<mask id="mask4_21344_3122" style="mask-type:alpha" maskUnits="userSpaceOnUse" x="384" y="138" width="136" height="36">
<rect x="384" y="138" width="136" height="36" fill="url(#paint14_linear_21344_3122)"/>
</mask>
<g mask="url(#mask4_21344_3122)">
<path d="M520 139.5H384" stroke="#C2B5F5" stroke-dasharray="1 3"/>
<path d="M520 155.5H384" stroke="#C2B5F5" stroke-dasharray="1 3"/>
<path d="M520 171.5H384" stroke="#C2B5F5" stroke-dasharray="1 3"/>
</g>
<path d="M518.211 132.736C519.199 132.736 520 133.537 520 134.525C520 135.514 519.199 136.315 518.211 136.315C515.95 136.315 514.327 137.38 512.943 139.272C511.502 141.243 510.444 143.956 509.41 146.924C508.418 149.77 507.428 152.929 506.125 155.312C504.818 157.701 502.858 159.932 499.683 159.933C496.868 159.933 494.61 158.467 492.847 157.38C490.939 156.203 489.469 155.36 487.704 155.359C486.352 155.359 485.032 155.817 483.623 156.607C482.182 157.415 480.817 158.465 479.258 159.587C476.333 161.691 472.643 164.149 468.084 162.793C466.546 162.336 465.216 161.469 464.07 160.595C463.493 160.155 462.934 159.689 462.408 159.249C461.872 158.802 461.372 158.382 460.872 157.995C458.855 156.431 457.369 155.801 455.518 156.563C454.155 157.124 452.901 158.548 451.581 160.747C450.94 161.814 450.33 162.982 449.7 164.204C449.08 165.407 448.435 166.673 447.76 167.854C446.452 170.145 444.814 172.529 442.493 173.689C439.939 174.967 437.061 174.557 433.887 172.433C430.296 170.03 425.328 167.003 420.413 165.24C415.389 163.438 411.044 163.177 408.14 165.336C406.415 166.619 404.831 168.079 403.239 169.598C401.67 171.094 400.06 172.68 398.387 174.086C394.998 176.934 391.098 179.262 385.789 179.262C384.801 179.262 384 178.461 384 177.473C384 176.484 384.801 175.683 385.789 175.683C389.906 175.683 393.009 173.931 396.086 171.346C397.646 170.035 399.136 168.565 400.768 167.008C402.375 165.475 404.092 163.885 406.005 162.463C410.453 159.156 416.392 159.995 421.623 161.871C426.962 163.786 432.224 167.014 435.877 169.458C438.37 171.127 439.853 171.008 440.893 170.488C442.167 169.85 443.358 168.348 444.653 166.081C445.281 164.982 445.883 163.8 446.52 162.564C447.147 161.347 447.804 160.083 448.512 158.905C449.887 156.614 451.647 154.288 454.155 153.255C457.898 151.714 460.833 153.437 463.065 155.167C463.628 155.603 464.182 156.067 464.703 156.502C465.234 156.946 465.737 157.364 466.242 157.75C467.263 158.529 468.184 159.089 469.105 159.363C471.804 160.165 474.125 158.87 477.168 156.681C478.593 155.655 480.203 154.423 481.874 153.486C483.578 152.531 485.513 151.78 487.704 151.78C490.628 151.781 492.927 153.224 494.725 154.334C496.67 155.533 498.058 156.354 499.683 156.354C500.84 156.354 501.869 155.634 502.984 153.594C504.103 151.549 504.965 148.805 506.03 145.746C507.053 142.81 508.258 139.616 510.055 137.159C511.91 134.622 514.505 132.736 518.211 132.736Z" fill="url(#paint15_linear_21344_3122)"/>
<rect x="288.5" y="124.5" width="63" height="63" rx="7.5" fill="white"/>
<rect x="288.5" y="124.5" width="63" height="63" rx="7.5" stroke="#C2B5F5" stroke-dasharray="1 3"/>
<path d="M302 156C302 154.895 302.895 154 304 154H306C307.105 154 308 154.895 308 156V172C308 173.105 307.105 174 306 174H304C302.895 174 302 173.105 302 172L302 156Z" fill="url(#paint16_radial_21344_3122)"/>
<path d="M312 146C312 144.895 312.895 144 314 144H316C317.105 144 318 144.895 318 146V172C318 173.105 317.105 174 316 174H314C312.895 174 312 173.105 312 172V146Z" fill="url(#paint17_radial_21344_3122)"/>
<path d="M322 162C322 160.895 322.895 160 324 160H326C327.105 160 328 160.895 328 162V172C328 173.105 327.105 174 326 174H324C322.895 174 322 173.105 322 172V162Z" fill="url(#paint18_radial_21344_3122)"/>
<path d="M332 140C332 138.895 332.895 138 334 138H336C337.105 138 338 138.895 338 140V172C338 173.105 337.105 174 336 174H334C332.895 174 332 173.105 332 172V140Z" fill="url(#paint19_radial_21344_3122)"/>
</g>
<g filter="url(#filter5_ddd_21344_3122)">
<rect width="288" height="100" transform="translate(264)" fill="white"/>
<rect width="288" height="32" transform="translate(264 68)" fill="white"/>
<path d="M295.583 78.5L295.882 79.0589C296.084 79.4367 296.185 79.6257 296.119 79.7066C296.052 79.7875 295.832 79.7221 295.392 79.5914C294.951 79.4608 294.484 79.3905 294 79.3905C291.377 79.3905 289.25 81.4542 289.25 84C289.25 84.8396 289.481 85.6268 289.885 86.3048M292.417 89.5L292.118 88.9411C291.916 88.5633 291.814 88.3743 291.881 88.2934C291.948 88.2125 292.168 88.2779 292.608 88.4086C293.049 88.5392 293.516 88.6095 294 88.6095C296.623 88.6095 298.75 86.5458 298.75 84C298.75 83.1604 298.519 82.3732 298.115 81.6952" stroke="#979FAA" stroke-linecap="round" stroke-linejoin="round"/>
<path d="M376.612 88.78L379.684 78.94H380.704L377.632 88.78H376.612ZM385.769 88V86.584L385.889 86.62C385.753 87.076 385.481 87.44 385.073 87.712C384.673 87.984 384.197 88.12 383.645 88.12C383.085 88.12 382.597 87.988 382.181 87.724C381.773 87.46 381.457 87.092 381.233 86.62C381.009 86.148 380.897 85.596 380.897 84.964C380.897 84.324 381.013 83.764 381.245 83.284C381.477 82.804 381.801 82.432 382.217 82.168C382.633 81.904 383.121 81.772 383.681 81.772C384.257 81.772 384.737 81.912 385.121 82.192C385.505 82.464 385.761 82.852 385.889 83.356L385.709 83.38V79.36H386.885V88H385.769ZM383.921 87.124C384.489 87.124 384.937 86.932 385.265 86.548C385.593 86.156 385.757 85.616 385.757 84.928C385.757 84.256 385.589 83.728 385.253 83.344C384.925 82.952 384.477 82.756 383.909 82.756C383.349 82.756 382.905 82.952 382.577 83.344C382.257 83.728 382.097 84.268 382.097 84.964C382.097 85.644 382.257 86.176 382.577 86.56C382.905 86.936 383.353 87.124 383.921 87.124ZM392.469 88C392.437 87.856 392.413 87.692 392.397 87.508C392.381 87.324 392.373 87.096 392.373 86.824H392.313V83.908C392.313 83.5 392.213 83.196 392.013 82.996C391.813 82.796 391.497 82.696 391.065 82.696C390.641 82.696 390.301 82.78 390.045 82.948C389.797 83.116 389.653 83.352 389.613 83.656H388.497C388.545 83.072 388.801 82.612 389.265 82.276C389.729 81.932 390.345 81.76 391.113 81.76C391.897 81.76 392.485 81.944 392.877 82.312C393.269 82.68 393.465 83.224 393.465 83.944V86.824C393.465 87.008 393.477 87.196 393.501 87.388C393.533 87.58 393.569 87.784 393.609 88H392.469ZM390.357 88.12C389.733 88.12 389.237 87.968 388.869 87.664C388.501 87.352 388.317 86.932 388.317 86.404C388.317 85.86 388.509 85.432 388.893 85.12C389.277 84.808 389.829 84.596 390.549 84.484L392.589 84.148V85L390.729 85.3C390.313 85.364 389.997 85.476 389.781 85.636C389.573 85.788 389.469 86.012 389.469 86.308C389.469 86.596 389.565 86.812 389.757 86.956C389.957 87.1 390.241 87.172 390.609 87.172C391.105 87.172 391.513 87.056 391.833 86.824C392.153 86.592 392.313 86.296 392.313 85.936L392.481 86.812C392.337 87.228 392.081 87.552 391.713 87.784C391.345 88.008 390.893 88.12 390.357 88.12ZM397.318 88.12C396.534 88.12 395.906 87.944 395.434 87.592C394.97 87.24 394.706 86.744 394.642 86.104H395.746C395.794 86.472 395.954 86.752 396.226 86.944C396.506 87.128 396.878 87.22 397.342 87.22C397.75 87.22 398.066 87.148 398.29 87.004C398.514 86.86 398.626 86.652 398.626 86.38C398.626 86.18 398.562 86.012 398.434 85.876C398.306 85.74 398.058 85.624 397.69 85.528L396.706 85.288C396.106 85.144 395.658 84.924 395.362 84.628C395.066 84.324 394.918 83.952 394.918 83.512C394.918 82.968 395.122 82.54 395.53 82.228C395.938 81.916 396.494 81.76 397.198 81.76C397.902 81.76 398.47 81.92 398.902 82.24C399.334 82.56 399.574 83.004 399.622 83.572H398.53C398.482 83.276 398.338 83.048 398.098 82.888C397.866 82.728 397.554 82.648 397.162 82.648C396.786 82.648 396.498 82.716 396.298 82.852C396.098 82.988 395.998 83.18 395.998 83.428C395.998 83.62 396.07 83.784 396.214 83.92C396.366 84.048 396.618 84.16 396.97 84.256L397.966 84.508C398.55 84.66 398.986 84.896 399.274 85.216C399.57 85.536 399.718 85.92 399.718 86.368C399.718 86.92 399.506 87.352 399.082 87.664C398.666 87.968 398.078 88.12 397.318 88.12ZM400.923 88V79.36H402.099V88H400.923ZM405.279 88V84.04C405.279 83.608 405.167 83.284 404.943 83.068C404.727 82.852 404.407 82.744 403.983 82.744C403.615 82.744 403.287 82.828 402.999 82.996C402.719 83.156 402.499 83.384 402.339 83.68C402.179 83.968 402.099 84.304 402.099 84.688L401.943 83.236C402.143 82.78 402.451 82.42 402.867 82.156C403.291 81.892 403.779 81.76 404.331 81.76C404.979 81.76 405.491 81.944 405.867 82.312C406.251 82.68 406.443 83.164 406.443 83.764V88H405.279ZM411.37 88.108C410.794 88.108 410.31 87.972 409.918 87.7C409.534 87.42 409.282 87.028 409.162 86.524L409.282 86.5V88H408.166V79.36H409.342V83.284L409.21 83.26C409.346 82.788 409.614 82.42 410.014 82.156C410.414 81.892 410.894 81.76 411.454 81.76C411.998 81.76 412.47 81.892 412.87 82.156C413.278 82.42 413.594 82.788 413.818 83.26C414.042 83.732 414.154 84.284 414.154 84.916C414.154 85.556 414.038 86.116 413.806 86.596C413.574 87.076 413.25 87.448 412.834 87.712C412.418 87.976 411.93 88.108 411.37 88.108ZM411.13 87.124C411.698 87.124 412.142 86.928 412.462 86.536C412.79 86.144 412.954 85.604 412.954 84.916C412.954 84.236 412.79 83.704 412.462 83.32C412.134 82.936 411.69 82.744 411.13 82.744C410.57 82.744 410.122 82.94 409.786 83.332C409.458 83.724 409.294 84.264 409.294 84.952C409.294 85.624 409.458 86.156 409.786 86.548C410.122 86.932 410.57 87.124 411.13 87.124ZM418.188 88.12C417.564 88.12 417.016 87.984 416.544 87.712C416.08 87.432 415.716 87.052 415.452 86.572C415.196 86.084 415.068 85.532 415.068 84.916C415.068 84.292 415.2 83.744 415.464 83.272C415.728 82.8 416.092 82.432 416.556 82.168C417.02 81.896 417.564 81.76 418.188 81.76C418.812 81.76 419.356 81.896 419.82 82.168C420.284 82.432 420.644 82.8 420.9 83.272C421.164 83.744 421.296 84.292 421.296 84.916C421.296 85.532 421.164 86.084 420.9 86.572C420.644 87.052 420.284 87.432 419.82 87.712C419.356 87.984 418.812 88.12 418.188 88.12ZM418.188 87.148C418.564 87.148 418.896 87.056 419.184 86.872C419.472 86.68 419.696 86.416 419.856 86.08C420.016 85.744 420.096 85.352 420.096 84.904C420.096 84.24 419.92 83.712 419.568 83.32C419.216 82.92 418.756 82.72 418.188 82.72C417.62 82.72 417.16 82.92 416.808 83.32C416.456 83.712 416.28 84.24 416.28 84.904C416.28 85.352 416.36 85.744 416.52 86.08C416.68 86.416 416.904 86.68 417.192 86.872C417.48 87.056 417.812 87.148 418.188 87.148ZM426.383 88C426.351 87.856 426.327 87.692 426.311 87.508C426.295 87.324 426.287 87.096 426.287 86.824H426.227V83.908C426.227 83.5 426.127 83.196 425.927 82.996C425.727 82.796 425.411 82.696 424.979 82.696C424.555 82.696 424.215 82.78 423.959 82.948C423.711 83.116 423.567 83.352 423.527 83.656H422.411C422.459 83.072 422.715 82.612 423.179 82.276C423.643 81.932 424.259 81.76 425.027 81.76C425.811 81.76 426.399 81.944 426.791 82.312C427.183 82.68 427.379 83.224 427.379 83.944V86.824C427.379 87.008 427.391 87.196 427.415 87.388C427.447 87.58 427.483 87.784 427.523 88H426.383ZM424.271 88.12C423.647 88.12 423.151 87.968 422.783 87.664C422.415 87.352 422.231 86.932 422.231 86.404C422.231 85.86 422.423 85.432 422.807 85.12C423.191 84.808 423.743 84.596 424.463 84.484L426.503 84.148V85L424.643 85.3C424.227 85.364 423.911 85.476 423.695 85.636C423.487 85.788 423.383 86.012 423.383 86.308C423.383 86.596 423.479 86.812 423.671 86.956C423.871 87.1 424.155 87.172 424.523 87.172C425.019 87.172 425.427 87.056 425.747 86.824C426.067 86.592 426.227 86.296 426.227 85.936L426.395 86.812C426.251 87.228 425.995 87.552 425.627 87.784C425.259 88.008 424.807 88.12 424.271 88.12ZM429.119 88V81.88H430.235V83.404H430.295V88H429.119ZM430.295 84.808L430.139 83.356C430.283 82.836 430.531 82.44 430.883 82.168C431.243 81.896 431.663 81.76 432.143 81.76C432.335 81.76 432.467 81.776 432.539 81.808V82.924C432.499 82.908 432.443 82.9 432.371 82.9C432.299 82.892 432.211 82.888 432.107 82.888C431.507 82.888 431.055 83.052 430.751 83.38C430.447 83.7 430.295 84.176 430.295 84.808ZM437.941 88V86.584L438.061 86.62C437.925 87.076 437.653 87.44 437.245 87.712C436.845 87.984 436.369 88.12 435.817 88.12C435.257 88.12 434.769 87.988 434.353 87.724C433.945 87.46 433.629 87.092 433.405 86.62C433.181 86.148 433.069 85.596 433.069 84.964C433.069 84.324 433.185 83.764 433.417 83.284C433.649 82.804 433.973 82.432 434.389 82.168C434.805 81.904 435.293 81.772 435.853 81.772C436.429 81.772 436.909 81.912 437.293 82.192C437.677 82.464 437.933 82.852 438.061 83.356L437.881 83.38V79.36H439.057V88H437.941ZM436.093 87.124C436.661 87.124 437.109 86.932 437.437 86.548C437.765 86.156 437.929 85.616 437.929 84.928C437.929 84.256 437.761 83.728 437.425 83.344C437.097 82.952 436.649 82.756 436.081 82.756C435.521 82.756 435.077 82.952 434.749 83.344C434.429 83.728 434.269 84.268 434.269 84.964C434.269 85.644 434.429 86.176 434.749 86.56C435.077 86.936 435.525 87.124 436.093 87.124Z" fill="#979FAA"/>
<path d="M521.549 79.5C519.725 79.5033 518.769 79.5481 518.159 80.1588C517.5 80.8178 517.5 81.8785 517.5 83.9998C517.5 86.1211 517.5 87.1818 518.159 87.8408C518.818 88.4999 519.878 88.4999 521.999 88.4999C524.12 88.4999 525.181 88.4999 525.84 87.8408C526.45 87.2302 526.495 86.2746 526.498 84.4498M526.278 79.748L521.524 84.5292M526.278 79.748C526.031 79.5007 524.367 79.5237 524.015 79.5288M526.278 79.748C526.525 79.9953 526.502 81.6613 526.497 82.0135" stroke="#979FAA" stroke-linecap="round" stroke-linejoin="round"/>
</g>
</g>
</g>
</g>
<defs>
<filter id="filter0_dddddd_21344_3122" x="16" y="111" width="318" height="65" filterUnits="userSpaceOnUse" color-interpolation-filters="sRGB">
<feFlood flood-opacity="0" result="BackgroundImageFix"/>
<feColorMatrix in="SourceAlpha" type="matrix" values="0 0 0 0 0 0 0 0 0 0 0 0 0 0 0 0 0 0 127 0" result="hardAlpha"/>
<feOffset dy="1"/>
<feGaussianBlur stdDeviation="1"/>
<feColorMatrix type="matrix" values="0 0 0 0 0 0 0 0 0 0 0 0 0 0 0 0 0 0 0.04 0"/>
<feBlend mode="normal" in2="BackgroundImageFix" result="effect1_dropShadow_21344_3122"/>
<feColorMatrix in="SourceAlpha" type="matrix" values="0 0 0 0 0 0 0 0 0 0 0 0 0 0 0 0 0 0 127 0" result="hardAlpha"/>
<feOffset dy="4"/>
<feGaussianBlur stdDeviation="2"/>
<feColorMatrix type="matrix" values="0 0 0 0 0 0 0 0 0 0 0 0 0 0 0 0 0 0 0.03 0"/>
<feBlend mode="normal" in2="effect1_dropShadow_21344_3122" result="effect2_dropShadow_21344_3122"/>
<feColorMatrix in="SourceAlpha" type="matrix" values="0 0 0 0 0 0 0 0 0 0 0 0 0 0 0 0 0 0 127 0" result="hardAlpha"/>
<feOffset dy="8"/>
<feGaussianBlur stdDeviation="3"/>
<feColorMatrix type="matrix" values="0 0 0 0 0 0 0 0 0 0 0 0 0 0 0 0 0 0 0.02 0"/>
<feBlend mode="normal" in2="effect2_dropShadow_21344_3122" result="effect3_dropShadow_21344_3122"/>
<feColorMatrix in="SourceAlpha" type="matrix" values="0 0 0 0 0 0 0 0 0 0 0 0 0 0 0 0 0 0 127 0" result="hardAlpha"/>
<feOffset dy="16"/>
<feGaussianBlur stdDeviation="3"/>
<feColorMatrix type="matrix" values="0 0 0 0 0 0 0 0 0 0 0 0 0 0 0 0 0 0 0.01 0"/>
<feBlend mode="normal" in2="effect3_dropShadow_21344_3122" result="effect4_dropShadow_21344_3122"/>
<feColorMatrix in="SourceAlpha" type="matrix" values="0 0 0 0 0 0 0 0 0 0 0 0 0 0 0 0 0 0 127 0" result="hardAlpha"/>
<feOffset dy="24"/>
<feGaussianBlur stdDeviation="4"/>
<feColorMatrix type="matrix" values="0 0 0 0 0 0 0 0 0 0 0 0 0 0 0 0 0 0 0.01 0"/>
<feBlend mode="normal" in2="effect4_dropShadow_21344_3122" result="effect5_dropShadow_21344_3122"/>
<feColorMatrix in="SourceAlpha" type="matrix" values="0 0 0 0 0 0 0 0 0 0 0 0 0 0 0 0 0 0 127 0" result="hardAlpha"/>
<feMorphology radius="1" operator="dilate" in="SourceAlpha" result="effect6_dropShadow_21344_3122"/>
<feOffset/>
<feComposite in2="hardAlpha" operator="out"/>
<feColorMatrix type="matrix" values="0 0 0 0 0 0 0 0 0 0 0 0 0 0 0 0 0 0 0.06 0"/>
<feBlend mode="normal" in2="effect5_dropShadow_21344_3122" result="effect6_dropShadow_21344_3122"/>
<feBlend mode="normal" in="SourceGraphic" in2="effect6_dropShadow_21344_3122" result="shape"/>
</filter>
<filter id="filter1_f_21344_3122" x="26" y="105" width="45" height="45" filterUnits="userSpaceOnUse" color-interpolation-filters="sRGB">
<feFlood flood-opacity="0" result="BackgroundImageFix"/>
<feBlend mode="normal" in="SourceGraphic" in2="BackgroundImageFix" result="shape"/>
<feGaussianBlur stdDeviation="8" result="effect1_foregroundBlur_21344_3122"/>
</filter>
<filter id="filter2_f_21344_3122" x="37" y="116" width="23" height="23" filterUnits="userSpaceOnUse" color-interpolation-filters="sRGB">
<feFlood flood-opacity="0" result="BackgroundImageFix"/>
<feBlend mode="normal" in="SourceGraphic" in2="BackgroundImageFix" result="shape"/>
<feGaussianBlur stdDeviation="4" result="effect1_foregroundBlur_21344_3122"/>
</filter>
<filter id="filter3_dddddd_21344_3122" x="16" y="219" width="318" height="129" filterUnits="userSpaceOnUse" color-interpolation-filters="sRGB">
<feFlood flood-opacity="0" result="BackgroundImageFix"/>
<feColorMatrix in="SourceAlpha" type="matrix" values="0 0 0 0 0 0 0 0 0 0 0 0 0 0 0 0 0 0 127 0" result="hardAlpha"/>
<feOffset dy="1"/>
<feGaussianBlur stdDeviation="1"/>
<feColorMatrix type="matrix" values="0 0 0 0 0 0 0 0 0 0 0 0 0 0 0 0 0 0 0.04 0"/>
<feBlend mode="normal" in2="BackgroundImageFix" result="effect1_dropShadow_21344_3122"/>
<feColorMatrix in="SourceAlpha" type="matrix" values="0 0 0 0 0 0 0 0 0 0 0 0 0 0 0 0 0 0 127 0" result="hardAlpha"/>
<feOffset dy="4"/>
<feGaussianBlur stdDeviation="2"/>
<feColorMatrix type="matrix" values="0 0 0 0 0 0 0 0 0 0 0 0 0 0 0 0 0 0 0.03 0"/>
<feBlend mode="normal" in2="effect1_dropShadow_21344_3122" result="effect2_dropShadow_21344_3122"/>
<feColorMatrix in="SourceAlpha" type="matrix" values="0 0 0 0 0 0 0 0 0 0 0 0 0 0 0 0 0 0 127 0" result="hardAlpha"/>
<feOffset dy="8"/>
<feGaussianBlur stdDeviation="3"/>
<feColorMatrix type="matrix" values="0 0 0 0 0 0 0 0 0 0 0 0 0 0 0 0 0 0 0.02 0"/>
<feBlend mode="normal" in2="effect2_dropShadow_21344_3122" result="effect3_dropShadow_21344_3122"/>
<feColorMatrix in="SourceAlpha" type="matrix" values="0 0 0 0 0 0 0 0 0 0 0 0 0 0 0 0 0 0 127 0" result="hardAlpha"/>
<feOffset dy="16"/>
<feGaussianBlur stdDeviation="3"/>
<feColorMatrix type="matrix" values="0 0 0 0 0 0 0 0 0 0 0 0 0 0 0 0 0 0 0.01 0"/>
<feBlend mode="normal" in2="effect3_dropShadow_21344_3122" result="effect4_dropShadow_21344_3122"/>
<feColorMatrix in="SourceAlpha" type="matrix" values="0 0 0 0 0 0 0 0 0 0 0 0 0 0 0 0 0 0 127 0" result="hardAlpha"/>
<feOffset dy="24"/>
<feGaussianBlur stdDeviation="4"/>
<feColorMatrix type="matrix" values="0 0 0 0 0 0 0 0 0 0 0 0 0 0 0 0 0 0 0.01 0"/>
<feBlend mode="normal" in2="effect4_dropShadow_21344_3122" result="effect5_dropShadow_21344_3122"/>
<feColorMatrix in="SourceAlpha" type="matrix" values="0 0 0 0 0 0 0 0 0 0 0 0 0 0 0 0 0 0 127 0" result="hardAlpha"/>
<feMorphology radius="1" operator="dilate" in="SourceAlpha" result="effect6_dropShadow_21344_3122"/>
<feOffset/>
<feComposite in2="hardAlpha" operator="out"/>
<feColorMatrix type="matrix" values="0 0 0 0 0 0 0 0 0 0 0 0 0 0 0 0 0 0 0.06 0"/>
<feBlend mode="normal" in2="effect5_dropShadow_21344_3122" result="effect6_dropShadow_21344_3122"/>
<feBlend mode="normal" in="SourceGraphic" in2="effect6_dropShadow_21344_3122" result="shape"/>
</filter>
<filter id="filter4_dddddd_21344_3122" x="256" y="-1" width="304" height="413" filterUnits="userSpaceOnUse" color-interpolation-filters="sRGB">
<feFlood flood-opacity="0" result="BackgroundImageFix"/>
<feColorMatrix in="SourceAlpha" type="matrix" values="0 0 0 0 0 0 0 0 0 0 0 0 0 0 0 0 0 0 127 0" result="hardAlpha"/>
<feOffset dy="1"/>
<feGaussianBlur stdDeviation="1"/>
<feColorMatrix type="matrix" values="0 0 0 0 0 0 0 0 0 0 0 0 0 0 0 0 0 0 0.04 0"/>
<feBlend mode="normal" in2="BackgroundImageFix" result="effect1_dropShadow_21344_3122"/>
<feColorMatrix in="SourceAlpha" type="matrix" values="0 0 0 0 0 0 0 0 0 0 0 0 0 0 0 0 0 0 127 0" result="hardAlpha"/>
<feOffset dy="4"/>
<feGaussianBlur stdDeviation="2"/>
<feColorMatrix type="matrix" values="0 0 0 0 0 0 0 0 0 0 0 0 0 0 0 0 0 0 0.03 0"/>
<feBlend mode="normal" in2="effect1_dropShadow_21344_3122" result="effect2_dropShadow_21344_3122"/>
<feColorMatrix in="SourceAlpha" type="matrix" values="0 0 0 0 0 0 0 0 0 0 0 0 0 0 0 0 0 0 127 0" result="hardAlpha"/>
<feOffset dy="8"/>
<feGaussianBlur stdDeviation="3"/>
<feColorMatrix type="matrix" values="0 0 0 0 0 0 0 0 0 0 0 0 0 0 0 0 0 0 0.02 0"/>
<feBlend mode="normal" in2="effect2_dropShadow_21344_3122" result="effect3_dropShadow_21344_3122"/>
<feColorMatrix in="SourceAlpha" type="matrix" values="0 0 0 0 0 0 0 0 0 0 0 0 0 0 0 0 0 0 127 0" result="hardAlpha"/>
<feOffset dy="16"/>
<feGaussianBlur stdDeviation="3"/>
<feColorMatrix type="matrix" values="0 0 0 0 0 0 0 0 0 0 0 0 0 0 0 0 0 0 0.01 0"/>
<feBlend mode="normal" in2="effect3_dropShadow_21344_3122" result="effect4_dropShadow_21344_3122"/>
<feColorMatrix in="SourceAlpha" type="matrix" values="0 0 0 0 0 0 0 0 0 0 0 0 0 0 0 0 0 0 127 0" result="hardAlpha"/>
<feOffset dy="24"/>
<feGaussianBlur stdDeviation="4"/>
<feColorMatrix type="matrix" values="0 0 0 0 0 0 0 0 0 0 0 0 0 0 0 0 0 0 0.01 0"/>
<feBlend mode="normal" in2="effect4_dropShadow_21344_3122" result="effect5_dropShadow_21344_3122"/>
<feColorMatrix in="SourceAlpha" type="matrix" values="0 0 0 0 0 0 0 0 0 0 0 0 0 0 0 0 0 0 127 0" result="hardAlpha"/>
<feMorphology radius="1" operator="dilate" in="SourceAlpha" result="effect6_dropShadow_21344_3122"/>
<feOffset/>
<feComposite in2="hardAlpha" operator="out"/>
<feColorMatrix type="matrix" values="0 0 0 0 0 0 0 0 0 0 0 0 0 0 0 0 0 0 0.04 0"/>
<feBlend mode="normal" in2="effect5_dropShadow_21344_3122" result="effect6_dropShadow_21344_3122"/>
<feBlend mode="normal" in="SourceGraphic" in2="effect6_dropShadow_21344_3122" result="shape"/>
</filter>
<filter id="filter5_ddd_21344_3122" x="260" y="-1" width="296" height="109" filterUnits="userSpaceOnUse" color-interpolation-filters="sRGB">
<feFlood flood-opacity="0" result="BackgroundImageFix"/>
<feColorMatrix in="SourceAlpha" type="matrix" values="0 0 0 0 0 0 0 0 0 0 0 0 0 0 0 0 0 0 127 0" result="hardAlpha"/>
<feOffset dy="1"/>
<feGaussianBlur stdDeviation="1"/>
<feColorMatrix type="matrix" values="0 0 0 0 0 0 0 0 0 0 0 0 0 0 0 0 0 0 0.04 0"/>
<feBlend mode="normal" in2="BackgroundImageFix" result="effect1_dropShadow_21344_3122"/>
<feColorMatrix in="SourceAlpha" type="matrix" values="0 0 0 0 0 0 0 0 0 0 0 0 0 0 0 0 0 0 127 0" result="hardAlpha"/>
<feOffset dy="4"/>
<feGaussianBlur stdDeviation="2"/>
<feColorMatrix type="matrix" values="0 0 0 0 0 0 0 0 0 0 0 0 0 0 0 0 0 0 0.03 0"/>
<feBlend mode="normal" in2="effect1_dropShadow_21344_3122" result="effect2_dropShadow_21344_3122"/>
<feColorMatrix in="SourceAlpha" type="matrix" values="0 0 0 0 0 0 0 0 0 0 0 0 0 0 0 0 0 0 127 0" result="hardAlpha"/>
<feMorphology radius="1" operator="dilate" in="SourceAlpha" result="effect3_dropShadow_21344_3122"/>
<feOffset/>
<feComposite in2="hardAlpha" operator="out"/>
<feColorMatrix type="matrix" values="0 0 0 0 0 0 0 0 0 0 0 0 0 0 0 0 0 0 0.03 0"/>
<feBlend mode="normal" in2="effect2_dropShadow_21344_3122" result="effect3_dropShadow_21344_3122"/>
<feBlend mode="normal" in="SourceGraphic" in2="effect3_dropShadow_21344_3122" result="shape"/>
</filter>
<linearGradient id="paint0_linear_21344_3122" x1="276" y1="0" x2="276" y2="380" gradientUnits="userSpaceOnUse">
<stop stop-opacity="0"/>
<stop offset="0.2"/>
<stop offset="0.801584"/>
<stop offset="1" stop-opacity="0"/>
</linearGradient>
<linearGradient id="paint1_linear_21344_3122" x1="0" y1="190" x2="264" y2="190" gradientUnits="userSpaceOnUse">
<stop stop-opacity="0"/>
<stop offset="0.2"/>
<stop offset="0.8"/>
<stop offset="1" stop-opacity="0"/>
</linearGradient>
<linearGradient id="paint2_linear_21344_3122" x1="48" y1="190" x2="264" y2="190" gradientUnits="userSpaceOnUse">
<stop stop-color="white"/>
<stop offset="1" stop-color="#FFF8FF"/>
</linearGradient>
<linearGradient id="paint3_linear_21344_3122" x1="48.5" y1="112" x2="48.5" y2="144" gradientUnits="userSpaceOnUse">
<stop stop-color="#C87EF9" stop-opacity="0"/>
<stop offset="0.32" stop-color="#C87EF9"/>
<stop offset="0.68" stop-color="#C87EF9"/>
<stop offset="1" stop-color="#C87EF9" stop-opacity="0"/>
</linearGradient>
<linearGradient id="paint4_linear_21344_3122" x1="48.5" y1="125" x2="48.5" y2="130" gradientUnits="userSpaceOnUse">
<stop stop-color="#C87EF9"/>
<stop offset="1" stop-color="#A126F2"/>
</linearGradient>
<linearGradient id="paint5_linear_21344_3122" x1="264" y1="190" x2="552" y2="190" gradientUnits="userSpaceOnUse">
<stop stop-opacity="0"/>
<stop offset="0.12"/>
<stop offset="0.88"/>
<stop offset="1" stop-opacity="0"/>
</linearGradient>
<linearGradient id="paint6_linear_21344_3122" x1="408" y1="100" x2="408" y2="380" gradientUnits="userSpaceOnUse">
<stop stop-opacity="0"/>
<stop offset="0.23746"/>
<stop offset="0.479595"/>
<stop offset="1" stop-opacity="0"/>
</linearGradient>
<radialGradient id="paint7_radial_21344_3122" cx="0" cy="0" r="1" gradientUnits="userSpaceOnUse" gradientTransform="translate(320 244) rotate(90) scale(6.66667 5.99999)">
<stop stop-color="#EEA3FF"/>
<stop offset="1" stop-color="#C58AFF"/>
</radialGradient>
<radialGradient id="paint8_radial_21344_3122" cx="0" cy="0" r="1" gradientUnits="userSpaceOnUse" gradientTransform="translate(320 244) rotate(90) scale(6.66667 5.99999)">
<stop stop-color="#EEA3FF"/>
<stop offset="1" stop-color="#C58AFF"/>
</radialGradient>
<radialGradient id="paint9_radial_21344_3122" cx="0" cy="0" r="1" gradientUnits="userSpaceOnUse" gradientTransform="translate(504 236) rotate(90) scale(5)">
<stop stop-color="#EEA3FF"/>
<stop offset="1" stop-color="#C58AFF"/>
</radialGradient>
<radialGradient id="paint10_radial_21344_3122" cx="0" cy="0" r="1" gradientUnits="userSpaceOnUse" gradientTransform="translate(448 236) rotate(90) scale(6.5 6.50003)">
<stop stop-color="#EEA3FF"/>
<stop offset="1" stop-color="#C58AFF"/>
</radialGradient>
<radialGradient id="paint11_radial_21344_3122" cx="0" cy="0" r="1" gradientUnits="userSpaceOnUse" gradientTransform="translate(320 332) rotate(90) scale(6.66667 5.99999)">
<stop stop-color="#EEA3FF"/>
<stop offset="1" stop-color="#C58AFF"/>
</radialGradient>
<radialGradient id="paint12_radial_21344_3122" cx="0" cy="0" r="1" gradientUnits="userSpaceOnUse" gradientTransform="translate(320 332) rotate(90) scale(6.66667 5.99999)">
<stop stop-color="#EEA3FF"/>
<stop offset="1" stop-color="#C58AFF"/>
</radialGradient>
<radialGradient id="paint13_radial_21344_3122" cx="0" cy="0" r="1" gradientUnits="userSpaceOnUse" gradientTransform="translate(448 324) rotate(90) scale(6.5 6.50003)">
<stop stop-color="#EEA3FF"/>
<stop offset="1" stop-color="#C58AFF"/>
</radialGradient>
<linearGradient id="paint14_linear_21344_3122" x1="384" y1="156" x2="520" y2="156" gradientUnits="userSpaceOnUse">
<stop stop-opacity="0"/>
<stop offset="0.2"/>
<stop offset="0.8"/>
<stop offset="1" stop-opacity="0"/>
</linearGradient>
<linearGradient id="paint15_linear_21344_3122" x1="520" y1="155.999" x2="384" y2="155.999" gradientUnits="userSpaceOnUse">
<stop stop-color="#AA7BF4"/>
<stop offset="0.2" stop-color="#CB8EFF"/>
<stop offset="0.4" stop-color="#D695FF"/>
<stop offset="0.6" stop-color="#C289FF"/>
<stop offset="0.8" stop-color="#E49DFF"/>
<stop offset="1" stop-color="#A77CEC"/>
</linearGradient>
<radialGradient id="paint16_radial_21344_3122" cx="0" cy="0" r="1" gradientUnits="userSpaceOnUse" gradientTransform="translate(320 156) rotate(90) scale(18)">
<stop stop-color="#EEA3FF"/>
<stop offset="1" stop-color="#C58AFF"/>
</radialGradient>
<radialGradient id="paint17_radial_21344_3122" cx="0" cy="0" r="1" gradientUnits="userSpaceOnUse" gradientTransform="translate(320 156) rotate(90) scale(18)">
<stop stop-color="#EEA3FF"/>
<stop offset="1" stop-color="#C58AFF"/>
</radialGradient>
<radialGradient id="paint18_radial_21344_3122" cx="0" cy="0" r="1" gradientUnits="userSpaceOnUse" gradientTransform="translate(320 156) rotate(90) scale(18)">
<stop stop-color="#EEA3FF"/>
<stop offset="1" stop-color="#C58AFF"/>
</radialGradient>
<radialGradient id="paint19_radial_21344_3122" cx="0" cy="0" r="1" gradientUnits="userSpaceOnUse" gradientTransform="translate(320 156) rotate(90) scale(18)">
<stop stop-color="#EEA3FF"/>
<stop offset="1" stop-color="#C58AFF"/>
</radialGradient>
<clipPath id="clip0_21344_3122">
<rect x="24" y="112" width="302" height="32" rx="10" fill="white"/>
</clipPath>
<clipPath id="clip1_21344_3122">
<rect width="288" height="380" fill="white" transform="translate(264)"/>
</clipPath>
<clipPath id="clip2_21344_3122">
<rect width="112" height="32" fill="white" transform="translate(304 228)"/>
</clipPath>
<clipPath id="clip3_21344_3122">
<rect width="112" height="32" fill="white" transform="translate(304 316)"/>
</clipPath>
</defs>
</svg>
