<svg xmlns="http://www.w3.org/2000/svg" width="232" height="40" viewBox="0 0 232 40" fill="none">
  <mask id="mask0_20906_8441" style="mask-type:alpha" maskUnits="userSpaceOnUse" x="0" y="0" width="232" height="40">
    <rect width="232" height="40" transform="matrix(1 0 0 -1 0 40)" fill="url(#paint0_linear_20906_8441)"/>
  </mask>
  <g mask="url(#mask0_20906_8441)">
    <mask id="mask1_20906_8441" style="mask-type:alpha" maskUnits="userSpaceOnUse" x="0" y="0" width="232" height="40">
      <rect width="232" height="40" transform="matrix(1 0 0 -1 0 40)" fill="url(#paint1_linear_20906_8441)"/>
    </mask>
    <g mask="url(#mask1_20906_8441)">
      <rect x="228" y="21" width="1" height="1" fill="#979FAA"/>
      <rect x="228" y="24" width="1" height="1" fill="#979FAA"/>
      <rect x="228" y="27" width="1" height="1" fill="#979FAA"/>
      <rect x="231" y="21" width="1" height="1" fill="#979FAA"/>
      <rect y="24" width="1" height="1" fill="#979FAA"/>
      <rect y="27" width="1" height="1" fill="#979FAA"/>
      <rect y="30" width="1" height="1" fill="#979FAA"/>
      <rect y="9" width="1" height="1" fill="#979FAA"/>
      <rect y="33" width="1" height="1" fill="#979FAA"/>
      <rect y="36" width="1" height="1" fill="#979FAA"/>
      <rect y="15" width="1" height="1" fill="#979FAA"/>
      <rect y="39" width="1" height="1" fill="#979FAA"/>
      <rect x="3" y="24" width="1" height="1" fill="#979FAA"/>
      <rect x="3" y="27" width="1" height="1" fill="#979FAA"/>
      <rect x="3" y="33" width="1" height="1" fill="#979FAA"/>
      <rect x="3" y="39" width="1" height="1" fill="#979FAA"/>
      <rect x="6" y="21" width="1" height="1" fill="#979FAA"/>
      <rect x="6" y="3" width="1" height="1" fill="#979FAA"/>
      <rect x="6" y="36" width="1" height="1" fill="#979FAA"/>
      <rect x="9" y="24" width="1" height="1" fill="#979FAA"/>
      <rect x="12" y="21" width="1" height="1" fill="#979FAA"/>
      <rect x="12" y="30" width="1" height="1" fill="#979FAA"/>
      <rect x="12" y="33" width="1" height="1" fill="#979FAA"/>
      <rect x="15" y="30" width="1" height="1" fill="#979FAA"/>
      <rect x="15" y="33" width="1" height="1" fill="#979FAA"/>
      <rect x="18" y="27" width="1" height="1" fill="#979FAA"/>
      <rect x="18" y="6" width="1" height="1" fill="#979FAA"/>
      <rect x="18" y="33" width="1" height="1" fill="#979FAA"/>
      <rect x="21" y="18" width="1" height="1" fill="#979FAA"/>
      <rect x="21" y="21" width="1" height="1" fill="#979FAA"/>
      <rect x="21" y="36" width="1" height="1" fill="#979FAA"/>
      <rect x="24" y="6" width="1" height="1" fill="#979FAA"/>
      <rect x="24" y="30" width="1" height="1" fill="#979FAA"/>
      <rect x="24" y="9" width="1" height="1" fill="#979FAA"/>
      <rect x="27" y="21" width="1" height="1" fill="#979FAA"/>
      <rect x="27" width="1" height="1" fill="#979FAA"/>
      <rect x="27" y="30" width="1" height="1" fill="#979FAA"/>
      <rect x="27" y="9" width="1" height="1" fill="#979FAA"/>
      <rect x="27" y="36" width="1" height="1" fill="#979FAA"/>
      <rect x="27" y="15" width="1" height="1" fill="#979FAA"/>
      <rect x="30" y="18" width="1" height="1" fill="#979FAA"/>
      <rect x="30" y="33" width="1" height="1" fill="#979FAA"/>
      <rect x="33" y="18" width="1" height="1" fill="#979FAA"/>
      <rect x="33" y="30" width="1" height="1" fill="#979FAA"/>
      <rect x="33" y="9" width="1" height="1" fill="#979FAA"/>
      <rect x="33" y="33" width="1" height="1" fill="#979FAA"/>
      <rect x="69" y="21" width="1" height="1" fill="#979FAA"/>
      <rect x="69" y="6" width="1" height="1" fill="#979FAA"/>
      <rect x="69" y="30" width="1" height="1" fill="#979FAA"/>
      <rect x="69" y="9" width="1" height="1" fill="#979FAA"/>
      <rect x="69" y="39" width="1" height="1" fill="#979FAA"/>
      <rect x="105" y="21" width="1" height="1" fill="#979FAA"/>
      <rect x="105" y="24" width="1" height="1" fill="#979FAA"/>
      <rect x="141" y="9" width="1" height="1" fill="#979FAA"/>
      <rect x="141" y="33" width="1" height="1" fill="#979FAA"/>
      <rect x="177" y="24" width="1" height="1" fill="#979FAA"/>
      <rect x="177" y="3" width="1" height="1" fill="#979FAA"/>
      <rect x="177" y="27" width="1" height="1" fill="#979FAA"/>
      <rect x="213" y="3" width="1" height="1" fill="#979FAA"/>
      <rect x="213" y="6" width="1" height="1" fill="#979FAA"/>
      <rect x="213" y="30" width="1" height="1" fill="#979FAA"/>
      <rect x="213" y="36" width="1" height="1" fill="#979FAA"/>
      <rect x="213" y="15" width="1" height="1" fill="#979FAA"/>
      <rect x="36" y="24" width="1" height="1" fill="#979FAA"/>
      <rect x="36" y="27" width="1" height="1" fill="#979FAA"/>
      <rect x="36" y="33" width="1" height="1" fill="#979FAA"/>
      <rect x="36" y="12" width="1" height="1" fill="#979FAA"/>
      <rect x="72" y="21" width="1" height="1" fill="#979FAA"/>
      <rect x="72" y="24" width="1" height="1" fill="#979FAA"/>
      <rect x="72" y="27" width="1" height="1" fill="#979FAA"/>
      <rect x="72" y="6" width="1" height="1" fill="#979FAA"/>
      <rect x="72" y="9" width="1" height="1" fill="#979FAA"/>
      <rect x="72" y="33" width="1" height="1" fill="#979FAA"/>
      <rect x="72" y="39" width="1" height="1" fill="#979FAA"/>
      <rect x="108" y="21" width="1" height="1" fill="#979FAA"/>
      <rect x="108" width="1" height="1" fill="#979FAA"/>
      <rect x="108" y="30" width="1" height="1" fill="#979FAA"/>
      <rect x="108" y="9" width="1" height="1" fill="#979FAA"/>
      <rect x="108" y="36" width="1" height="1" fill="#979FAA"/>
      <rect x="108" y="15" width="1" height="1" fill="#979FAA"/>
      <rect x="144" y="3" width="1" height="1" fill="#979FAA"/>
      <rect x="144" y="39" width="1" height="1" fill="#979FAA"/>
      <rect x="180" y="24" width="1" height="1" fill="#979FAA"/>
      <rect x="180" y="30" width="1" height="1" fill="#979FAA"/>
      <rect x="180" y="9" width="1" height="1" fill="#979FAA"/>
      <rect x="180" y="36" width="1" height="1" fill="#979FAA"/>
      <rect x="180" y="15" width="1" height="1" fill="#979FAA"/>
      <rect x="216" y="18" width="1" height="1" fill="#979FAA"/>
      <rect x="216" y="30" width="1" height="1" fill="#979FAA"/>
      <rect x="216" y="39" width="1" height="1" fill="#979FAA"/>
      <rect x="39" y="21" width="1" height="1" fill="#979FAA"/>
      <rect x="39" y="24" width="1" height="1" fill="#979FAA"/>
      <rect x="39" y="3" width="1" height="1" fill="#979FAA"/>
      <rect x="75" y="21" width="1" height="1" fill="#979FAA"/>
      <rect x="75" y="30" width="1" height="1" fill="#979FAA"/>
      <rect x="75" y="33" width="1" height="1" fill="#979FAA"/>
      <rect x="75" y="39" width="1" height="1" fill="#979FAA"/>
      <rect x="111" y="18" width="1" height="1" fill="#979FAA"/>
      <rect x="111" y="24" width="1" height="1" fill="#979FAA"/>
      <rect x="111" y="27" width="1" height="1" fill="#979FAA"/>
      <rect x="111" y="30" width="1" height="1" fill="#979FAA"/>
      <rect x="111" y="33" width="1" height="1" fill="#979FAA"/>
      <rect x="111" y="12" width="1" height="1" fill="#979FAA"/>
      <rect x="111" y="39" width="1" height="1" fill="#979FAA"/>
      <rect x="147" y="21" width="1" height="1" fill="#979FAA"/>
      <rect x="147" width="1" height="1" fill="#979FAA"/>
      <rect x="147" y="30" width="1" height="1" fill="#979FAA"/>
      <rect x="147" y="36" width="1" height="1" fill="#979FAA"/>
      <rect x="183" y="18" width="1" height="1" fill="#979FAA"/>
      <rect x="183" y="21" width="1" height="1" fill="#979FAA"/>
      <rect x="183" width="1" height="1" fill="#979FAA"/>
      <rect x="183" y="24" width="1" height="1" fill="#979FAA"/>
      <rect x="183" y="30" width="1" height="1" fill="#979FAA"/>
      <rect x="183" y="39" width="1" height="1" fill="#979FAA"/>
      <rect x="219" y="24" width="1" height="1" fill="#979FAA"/>
      <rect x="219" y="3" width="1" height="1" fill="#979FAA"/>
      <rect x="219" y="39" width="1" height="1" fill="#979FAA"/>
      <rect x="42" y="21" width="1" height="1" fill="#979FAA"/>
      <rect x="42" y="24" width="1" height="1" fill="#979FAA"/>
      <rect x="42" y="3" width="1" height="1" fill="#979FAA"/>
      <rect x="42" y="27" width="1" height="1" fill="#979FAA"/>
      <rect x="78" y="21" width="1" height="1" fill="#979FAA"/>
      <rect x="78" y="30" width="1" height="1" fill="#979FAA"/>
      <rect x="78" y="9" width="1" height="1" fill="#979FAA"/>
      <rect x="114" y="24" width="1" height="1" fill="#979FAA"/>
      <rect x="114" y="3" width="1" height="1" fill="#979FAA"/>
      <rect x="114" y="27" width="1" height="1" fill="#979FAA"/>
      <rect x="114" y="6" width="1" height="1" fill="#979FAA"/>
      <rect x="114" y="30" width="1" height="1" fill="#979FAA"/>
      <rect x="114" y="9" width="1" height="1" fill="#979FAA"/>
      <rect x="114" y="36" width="1" height="1" fill="#979FAA"/>
      <rect x="114" y="15" width="1" height="1" fill="#979FAA"/>
      <rect x="114" y="39" width="1" height="1" fill="#979FAA"/>
      <rect x="150" y="18" width="1" height="1" fill="#979FAA"/>
      <rect x="150" y="24" width="1" height="1" fill="#979FAA"/>
      <rect x="150" y="27" width="1" height="1" fill="#979FAA"/>
      <rect x="150" y="6" width="1" height="1" fill="#979FAA"/>
      <rect x="150" y="30" width="1" height="1" fill="#979FAA"/>
      <rect x="150" y="9" width="1" height="1" fill="#979FAA"/>
      <rect x="186" y="33" width="1" height="1" fill="#979FAA"/>
      <rect x="186" y="39" width="1" height="1" fill="#979FAA"/>
      <rect x="222" y="18" width="1" height="1" fill="#979FAA"/>
      <rect x="222" y="27" width="1" height="1" fill="#979FAA"/>
      <rect x="222" y="30" width="1" height="1" fill="#979FAA"/>
      <rect x="222" y="9" width="1" height="1" fill="#979FAA"/>
      <rect x="222" y="36" width="1" height="1" fill="#979FAA"/>
      <rect x="222" y="39" width="1" height="1" fill="#979FAA"/>
      <rect x="45" y="21" width="1" height="1" fill="#979FAA"/>
      <rect x="45" y="24" width="1" height="1" fill="#979FAA"/>
      <rect x="45" y="30" width="1" height="1" fill="#979FAA"/>
      <rect x="45" y="36" width="1" height="1" fill="#979FAA"/>
      <rect x="45" y="15" width="1" height="1" fill="#979FAA"/>
      <rect x="81" y="18" width="1" height="1" fill="#979FAA"/>
      <rect x="81" y="36" width="1" height="1" fill="#979FAA"/>
      <rect x="117" y="24" width="1" height="1" fill="#979FAA"/>
      <rect x="117" y="33" width="1" height="1" fill="#979FAA"/>
      <rect x="117" y="15" width="1" height="1" fill="#979FAA"/>
      <rect x="117" y="39" width="1" height="1" fill="#979FAA"/>
      <rect x="153" y="24" width="1" height="1" fill="#979FAA"/>
      <rect x="153" y="27" width="1" height="1" fill="#979FAA"/>
      <rect x="153" y="33" width="1" height="1" fill="#979FAA"/>
      <rect x="153" y="39" width="1" height="1" fill="#979FAA"/>
      <rect x="189" y="24" width="1" height="1" fill="#979FAA"/>
      <rect x="189" y="3" width="1" height="1" fill="#979FAA"/>
      <rect x="189" y="27" width="1" height="1" fill="#979FAA"/>
      <rect x="189" y="6" width="1" height="1" fill="#979FAA"/>
      <rect x="189" y="39" width="1" height="1" fill="#979FAA"/>
      <rect x="225" y="18" width="1" height="1" fill="#979FAA"/>
      <rect x="225" y="30" width="1" height="1" fill="#979FAA"/>
      <rect x="225" y="33" width="1" height="1" fill="#979FAA"/>
      <rect x="48" y="24" width="1" height="1" fill="#979FAA"/>
      <rect x="48" y="27" width="1" height="1" fill="#979FAA"/>
      <rect x="48" y="6" width="1" height="1" fill="#979FAA"/>
      <rect x="48" y="30" width="1" height="1" fill="#979FAA"/>
      <rect x="48" y="9" width="1" height="1" fill="#979FAA"/>
      <rect x="48" y="36" width="1" height="1" fill="#979FAA"/>
      <rect x="84" y="24" width="1" height="1" fill="#979FAA"/>
      <rect x="84" y="6" width="1" height="1" fill="#979FAA"/>
      <rect x="84" y="36" width="1" height="1" fill="#979FAA"/>
      <rect x="120" y="18" width="1" height="1" fill="#979FAA"/>
      <rect x="120" y="24" width="1" height="1" fill="#979FAA"/>
      <rect x="120" y="3" width="1" height="1" fill="#979FAA"/>
      <rect x="120" y="27" width="1" height="1" fill="#979FAA"/>
      <rect x="120" y="12" width="1" height="1" fill="#979FAA"/>
      <rect x="120" y="36" width="1" height="1" fill="#979FAA"/>
      <rect x="120" y="15" width="1" height="1" fill="#979FAA"/>
      <rect x="156" y="3" width="1" height="1" fill="#979FAA"/>
      <rect x="156" y="9" width="1" height="1" fill="#979FAA"/>
      <rect x="156" y="33" width="1" height="1" fill="#979FAA"/>
      <rect x="156" y="12" width="1" height="1" fill="#979FAA"/>
      <rect x="156" y="36" width="1" height="1" fill="#979FAA"/>
      <rect x="192" y="33" width="1" height="1" fill="#979FAA"/>
      <rect x="192" y="12" width="1" height="1" fill="#979FAA"/>
      <rect x="192" y="36" width="1" height="1" fill="#979FAA"/>
      <rect x="192" y="15" width="1" height="1" fill="#979FAA"/>
      <rect x="51" y="24" width="1" height="1" fill="#979FAA"/>
      <rect x="51" y="27" width="1" height="1" fill="#979FAA"/>
      <rect x="51" y="30" width="1" height="1" fill="#979FAA"/>
      <rect x="51" y="33" width="1" height="1" fill="#979FAA"/>
      <rect x="51" y="36" width="1" height="1" fill="#979FAA"/>
      <rect x="51" y="15" width="1" height="1" fill="#979FAA"/>
      <rect x="87" y="30" width="1" height="1" fill="#979FAA"/>
      <rect x="87" y="9" width="1" height="1" fill="#979FAA"/>
      <rect x="87" y="36" width="1" height="1" fill="#979FAA"/>
      <rect x="123" y="21" width="1" height="1" fill="#979FAA"/>
      <rect x="123" y="27" width="1" height="1" fill="#979FAA"/>
      <rect x="123" y="30" width="1" height="1" fill="#979FAA"/>
      <rect x="123" y="39" width="1" height="1" fill="#979FAA"/>
      <rect x="159" y="3" width="1" height="1" fill="#979FAA"/>
      <rect x="159" y="27" width="1" height="1" fill="#979FAA"/>
      <rect x="159" y="6" width="1" height="1" fill="#979FAA"/>
      <rect x="159" y="30" width="1" height="1" fill="#979FAA"/>
      <rect x="159" y="9" width="1" height="1" fill="#979FAA"/>
      <rect x="159" y="39" width="1" height="1" fill="#979FAA"/>
      <rect x="195" y="9" width="1" height="1" fill="#979FAA"/>
      <rect x="195" y="33" width="1" height="1" fill="#979FAA"/>
      <rect x="195" y="39" width="1" height="1" fill="#979FAA"/>
      <rect x="54" y="21" width="1" height="1" fill="#979FAA"/>
      <rect x="54" width="1" height="1" fill="#979FAA"/>
      <rect x="54" y="24" width="1" height="1" fill="#979FAA"/>
      <rect x="54" y="33" width="1" height="1" fill="#979FAA"/>
      <rect x="54" y="12" width="1" height="1" fill="#979FAA"/>
      <rect x="90" y="27" width="1" height="1" fill="#979FAA"/>
      <rect x="90" y="39" width="1" height="1" fill="#979FAA"/>
      <rect x="126" y="21" width="1" height="1" fill="#979FAA"/>
      <rect x="126" y="36" width="1" height="1" fill="#979FAA"/>
      <rect x="126" y="15" width="1" height="1" fill="#979FAA"/>
      <rect x="162" y="21" width="1" height="1" fill="#979FAA"/>
      <rect x="162" y="24" width="1" height="1" fill="#979FAA"/>
      <rect x="162" y="6" width="1" height="1" fill="#979FAA"/>
      <rect x="162" y="36" width="1" height="1" fill="#979FAA"/>
      <rect x="162" y="15" width="1" height="1" fill="#979FAA"/>
      <rect x="198" y="18" width="1" height="1" fill="#979FAA"/>
      <rect x="198" y="21" width="1" height="1" fill="#979FAA"/>
      <rect x="198" y="24" width="1" height="1" fill="#979FAA"/>
      <rect x="198" y="27" width="1" height="1" fill="#979FAA"/>
      <rect x="198" y="36" width="1" height="1" fill="#979FAA"/>
      <rect x="198" y="15" width="1" height="1" fill="#979FAA"/>
      <rect x="198" y="39" width="1" height="1" fill="#979FAA"/>
      <rect x="57" y="21" width="1" height="1" fill="#979FAA"/>
      <rect x="57" y="27" width="1" height="1" fill="#979FAA"/>
      <rect x="57" y="33" width="1" height="1" fill="#979FAA"/>
      <rect x="57" y="12" width="1" height="1" fill="#979FAA"/>
      <rect x="93" y="18" width="1" height="1" fill="#979FAA"/>
      <rect x="93" y="21" width="1" height="1" fill="#979FAA"/>
      <rect x="93" width="1" height="1" fill="#979FAA"/>
      <rect x="93" y="27" width="1" height="1" fill="#979FAA"/>
      <rect x="93" y="9" width="1" height="1" fill="#979FAA"/>
      <rect x="93" y="33" width="1" height="1" fill="#979FAA"/>
      <rect x="93" y="36" width="1" height="1" fill="#979FAA"/>
      <rect x="129" y="21" width="1" height="1" fill="#979FAA"/>
      <rect x="129" width="1" height="1" fill="#979FAA"/>
      <rect x="129" y="30" width="1" height="1" fill="#979FAA"/>
      <rect x="129" y="9" width="1" height="1" fill="#979FAA"/>
      <rect x="129" y="33" width="1" height="1" fill="#979FAA"/>
      <rect x="129" y="12" width="1" height="1" fill="#979FAA"/>
      <rect x="129" y="36" width="1" height="1" fill="#979FAA"/>
      <rect x="129" y="15" width="1" height="1" fill="#979FAA"/>
      <rect x="165" y="27" width="1" height="1" fill="#979FAA"/>
      <rect x="165" y="6" width="1" height="1" fill="#979FAA"/>
      <rect x="165" y="12" width="1" height="1" fill="#979FAA"/>
      <rect x="165" y="39" width="1" height="1" fill="#979FAA"/>
      <rect x="201" y="24" width="1" height="1" fill="#979FAA"/>
      <rect x="60" y="21" width="1" height="1" fill="#979FAA"/>
      <rect x="60" y="27" width="1" height="1" fill="#979FAA"/>
      <rect x="60" y="6" width="1" height="1" fill="#979FAA"/>
      <rect x="96" y="21" width="1" height="1" fill="#979FAA"/>
      <rect x="96" y="24" width="1" height="1" fill="#979FAA"/>
      <rect x="96" y="27" width="1" height="1" fill="#979FAA"/>
      <rect x="96" y="6" width="1" height="1" fill="#979FAA"/>
      <rect x="132" y="21" width="1" height="1" fill="#979FAA"/>
      <rect x="132" width="1" height="1" fill="#979FAA"/>
      <rect x="132" y="30" width="1" height="1" fill="#979FAA"/>
      <rect x="132" y="9" width="1" height="1" fill="#979FAA"/>
      <rect x="132" y="36" width="1" height="1" fill="#979FAA"/>
      <rect x="168" y="21" width="1" height="1" fill="#979FAA"/>
      <rect x="168" width="1" height="1" fill="#979FAA"/>
      <rect x="168" y="24" width="1" height="1" fill="#979FAA"/>
      <rect x="168" y="30" width="1" height="1" fill="#979FAA"/>
      <rect x="168" y="9" width="1" height="1" fill="#979FAA"/>
      <rect x="168" y="12" width="1" height="1" fill="#979FAA"/>
      <rect x="168" y="36" width="1" height="1" fill="#979FAA"/>
      <rect x="168" y="15" width="1" height="1" fill="#979FAA"/>
      <rect x="204" y="21" width="1" height="1" fill="#979FAA"/>
      <rect x="204" width="1" height="1" fill="#979FAA"/>
      <rect x="204" y="27" width="1" height="1" fill="#979FAA"/>
      <rect x="204" y="6" width="1" height="1" fill="#979FAA"/>
      <rect x="204" y="33" width="1" height="1" fill="#979FAA"/>
      <rect x="204" y="12" width="1" height="1" fill="#979FAA"/>
      <rect x="63" y="24" width="1" height="1" fill="#979FAA"/>
      <rect x="63" y="30" width="1" height="1" fill="#979FAA"/>
      <rect x="63" y="36" width="1" height="1" fill="#979FAA"/>
      <rect x="99" y="33" width="1" height="1" fill="#979FAA"/>
      <rect x="99" y="39" width="1" height="1" fill="#979FAA"/>
      <rect x="135" y="18" width="1" height="1" fill="#979FAA"/>
      <rect x="135" y="39" width="1" height="1" fill="#979FAA"/>
      <rect x="171" y="21" width="1" height="1" fill="#979FAA"/>
      <rect x="171" y="24" width="1" height="1" fill="#979FAA"/>
      <rect x="171" y="33" width="1" height="1" fill="#979FAA"/>
      <rect x="171" y="36" width="1" height="1" fill="#979FAA"/>
      <rect x="171" y="15" width="1" height="1" fill="#979FAA"/>
      <rect x="171" y="39" width="1" height="1" fill="#979FAA"/>
      <rect x="207" y="18" width="1" height="1" fill="#979FAA"/>
      <rect x="207" y="21" width="1" height="1" fill="#979FAA"/>
      <rect x="207" width="1" height="1" fill="#979FAA"/>
      <rect x="207" y="30" width="1" height="1" fill="#979FAA"/>
      <rect x="207" y="9" width="1" height="1" fill="#979FAA"/>
      <rect x="207" y="33" width="1" height="1" fill="#979FAA"/>
      <rect x="207" y="12" width="1" height="1" fill="#979FAA"/>
      <rect x="66" y="30" width="1" height="1" fill="#979FAA"/>
      <rect x="102" y="21" width="1" height="1" fill="#979FAA"/>
      <rect x="102" y="33" width="1" height="1" fill="#979FAA"/>
      <rect x="138" y="21" width="1" height="1" fill="#979FAA"/>
      <rect x="138" width="1" height="1" fill="#979FAA"/>
      <rect x="138" y="24" width="1" height="1" fill="#979FAA"/>
      <rect x="138" y="27" width="1" height="1" fill="#979FAA"/>
      <rect x="138" y="6" width="1" height="1" fill="#979FAA"/>
      <rect x="138" y="30" width="1" height="1" fill="#979FAA"/>
      <rect x="138" y="36" width="1" height="1" fill="#979FAA"/>
      <rect x="174" y="21" width="1" height="1" fill="#979FAA"/>
      <rect x="174" y="33" width="1" height="1" fill="#979FAA"/>
      <rect x="174" y="12" width="1" height="1" fill="#979FAA"/>
      <rect x="174" y="39" width="1" height="1" fill="#979FAA"/>
      <rect x="210" y="27" width="1" height="1" fill="#979FAA"/>
      <rect x="210" y="6" width="1" height="1" fill="#979FAA"/>
      <rect x="210" y="30" width="1" height="1" fill="#979FAA"/>
      <rect x="210" y="36" width="1" height="1" fill="#979FAA"/>
    </g>
  </g>
  <defs>
    <linearGradient id="paint0_linear_20906_8441" x1="116" y1="40" x2="116" y2="0" gradientUnits="userSpaceOnUse">
      <stop stop-opacity="0"/>
      <stop offset="0.72"/>
      <stop offset="1" stop-opacity="0"/>
    </linearGradient>
    <linearGradient id="paint1_linear_20906_8441" x1="0" y1="20" x2="232" y2="20" gradientUnits="userSpaceOnUse">
      <stop stop-opacity="0"/>
      <stop offset="0.10119"/>
      <stop offset="0.89881"/>
      <stop offset="1" stop-opacity="0"/>
    </linearGradient>
  </defs>
</svg>