<svg xmlns="http://www.w3.org/2000/svg" width="721" height="432" viewBox="0 0 721 432" fill="none">
  <path d="M96.5 -47.5V47.5H192.5M336.5 47.5H432.5V287.5M336.5 47.5V-47.5M336.5 47.5V95.5H192.5M432.5 287.5H336.5V432.5M432.5 287.5V432.5M432.5 287.5H480.5H576.5M0.5 -47.5V95.5H48.5V191.5H192.5V432.5M192.5 95.5H144.5V287.5H0.5V432.5M192.5 95.5V47.5M192.5 -47.5V47.5M240.5 95.5V143.5V335.5H480.5V432.5M576.5 95.5V-47.5M576.5 95.5H720.5V-47.5M576.5 95.5V239.5M576.5 432.5V287.5M576.5 239.5H720.5V432.5M576.5 239.5V287.5" stroke="black"/>
</svg>