<svg xmlns="http://www.w3.org/2000/svg" width="20" height="492" fill="none" viewBox="0 0 20 492"><path fill="#cacdd4" d="M0 492v-4h4v4z" opacity=".24"/><path fill="#cacdd4" d="M0 484v-4h4v4z" opacity=".72"/><path fill="#cacdd4" d="M0 428v-4h4v4z" opacity=".4"/><path fill="#cacdd4" d="M0 420v-4h4v4z" opacity=".2"/><path fill="#cacdd4" d="M0 412v-4h4v4z" opacity=".62"/><path fill="#cacdd4" d="M8 484v-4h4v4z" opacity=".9"/><path fill="#cacdd4" d="M8 468v-4h4v4z" opacity=".66"/><path fill="#cacdd4" d="M8 460v-4h4v4z" opacity=".4"/><path fill="#cacdd4" d="M8 452v-4h4v4z" opacity=".96"/><path fill="#cacdd4" d="M8 444v-4h4v4z" opacity=".24"/><path fill="#cacdd4" d="M8 436v-4h4v4z" opacity=".85"/><path fill="#cacdd4" d="M8 428v-4h4v4z" opacity=".25"/><path fill="#cacdd4" d="M8 412v-4h4v4z" opacity=".77"/><path fill="#cacdd4" d="M16 468v-4h4v4z" opacity=".89"/><path fill="#cacdd4" d="M16 444v-4h4v4z" opacity=".68"/><path fill="#cacdd4" d="M16 420v-4h4v4z" opacity=".28"/><path fill="#cacdd4" d="M20 320v4h-4v-4zm0-8v4h-4v-4z" opacity=".24"/><path fill="#cacdd4" d="M20 328v4h-4v-4z" opacity=".72"/><path fill="#cacdd4" d="M20 384v4h-4v-4z" opacity=".4"/><path fill="#cacdd4" d="M20 392v4h-4v-4z" opacity=".2"/><path fill="#cacdd4" d="M12 328v4H8v-4z" opacity=".9"/><path fill="#cacdd4" d="M12 344v4H8v-4z" opacity=".66"/><path fill="#cacdd4" d="M20 352v4h-4v-4z" opacity=".4"/><path fill="#cacdd4" d="M12 360v4H8v-4z" opacity=".96"/><path fill="#cacdd4" d="M12 368v4H8v-4z" opacity=".24"/><path fill="#cacdd4" d="M12 384v4H8v-4z" opacity=".25"/><path fill="#cacdd4" d="M12 400v4H8v-4z" opacity=".77"/><path fill="#cacdd4" d="M4 344v4H0v-4z" opacity=".89"/><path fill="#cacdd4" d="M4 368v4H0v-4z" opacity=".68"/><path fill="#cacdd4" d="M4 392v4H0v-4z" opacity=".28"/><path fill="#cacdd4" d="M20 224v4h-4v-4zm0-8v4h-4v-4z" opacity=".24"/><path fill="#cacdd4" d="M20 232v4h-4v-4z" opacity=".72"/><path fill="#cacdd4" d="M20 288v4h-4v-4z" opacity=".4"/><path fill="#cacdd4" d="M20 296v4h-4v-4z" opacity=".2"/><path fill="#cacdd4" d="M20 304v4h-4v-4z" opacity=".62"/><path fill="#cacdd4" d="M12 232v4H8v-4z" opacity=".9"/><path fill="#cacdd4" d="M12 248v4H8v-4z" opacity=".66"/><path fill="#cacdd4" d="M12 256v4H8v-4z" opacity=".4"/><path fill="#cacdd4" d="M12 264v4H8v-4z" opacity=".96"/><path fill="#cacdd4" d="M12 272v4H8v-4z" opacity=".24"/><path fill="#cacdd4" d="M12 280v4H8v-4z" opacity=".85"/><path fill="#cacdd4" d="M12 288v4H8v-4z" opacity=".25"/><path fill="#cacdd4" d="M12 304v4H8v-4z" opacity=".77"/><path fill="#cacdd4" d="M4 248v4H0v-4z" opacity=".89"/><path fill="#cacdd4" d="M4 272v4H0v-4z" opacity=".68"/><path fill="#cacdd4" d="M4 296v4H0v-4z" opacity=".28"/><path fill="#cacdd4" d="M0 204v-4h4v4zm0 8v-4h4v4z" opacity=".24"/><path fill="#cacdd4" d="M0 196v-4h4v4z" opacity=".72"/><path fill="#cacdd4" d="M0 140v-4h4v4z" opacity=".4"/><path fill="#cacdd4" d="M0 132v-4h4v4z" opacity=".2"/><path fill="#cacdd4" d="M0 124v-4h4v4z" opacity=".62"/><path fill="#cacdd4" d="M8 196v-4h4v4z" opacity=".9"/><path fill="#cacdd4" d="M8 180v-4h4v4z" opacity=".66"/><path fill="#cacdd4" d="M8 172v-4h4v4z" opacity=".4"/><path fill="#cacdd4" d="M8 164v-4h4v4z" opacity=".96"/><path fill="#cacdd4" d="M8 156v-4h4v4z" opacity=".24"/><path fill="#cacdd4" d="M8 148v-4h4v4z" opacity=".85"/><path fill="#cacdd4" d="M8 140v-4h4v4z" opacity=".25"/><path fill="#cacdd4" d="M8 124v-4h4v4z" opacity=".77"/><path fill="#cacdd4" d="M16 180v-4h4v4z" opacity=".89"/><path fill="#cacdd4" d="M16 156v-4h4v4z" opacity=".68"/><path fill="#cacdd4" d="M16 132v-4h4v4z" opacity=".28"/><path fill="#cacdd4" d="M0 108v-4h4v4zm0 8v-4h4v4z" opacity=".24"/><path fill="#cacdd4" d="M8 92v-4h4v4z" opacity=".66"/><path fill="#cacdd4" d="M16 108v-4h4v4z" opacity=".89"/><path fill="#cacdd4" d="M0 0v4h4V0z" opacity=".24"/><path fill="#cacdd4" d="M0 8v4h4V8z" opacity=".72"/><path fill="#cacdd4" d="M0 64v4h4v-4z" opacity=".4"/><path fill="#cacdd4" d="M0 72v4h4v-4z" opacity=".2"/><path fill="#cacdd4" d="M0 80v4h4v-4z" opacity=".62"/><path fill="#cacdd4" d="M8 8v4h4V8z" opacity=".9"/><path fill="#cacdd4" d="M8 24v4h4v-4z" opacity=".66"/><path fill="#cacdd4" d="M8 32v4h4v-4z" opacity=".4"/><path fill="#cacdd4" d="M8 40v4h4v-4z" opacity=".96"/><path fill="#cacdd4" d="M8 48v4h4v-4z" opacity=".24"/><path fill="#cacdd4" d="M8 56v4h4v-4z" opacity=".85"/><path fill="#cacdd4" d="M8 64v4h4v-4z" opacity=".25"/><path fill="#cacdd4" d="M8 80v4h4v-4z" opacity=".77"/><path fill="#cacdd4" d="M16 24v4h4v-4z" opacity=".89"/><path fill="#cacdd4" d="M16 48v4h4v-4z" opacity=".68"/><path fill="#cacdd4" d="M16 72v4h4v-4z" opacity=".28"/></svg>