<svg xmlns="http://www.w3.org/2000/svg" width="200" height="16" fill="none" viewBox="0 0 200 16"><g clip-path="url(#a)"><path fill="#151618" d="M0 3h1v1H0z"/><path fill="#b9bbc6" d="M3 3h1v1H3z"/><path fill="#151618" d="M6 3h1v1H6z"/><path fill="#b9bbc6" d="M9 3h1v1H9z"/><path fill="#151618" d="M12 3h1v1h-1z"/><path fill="#d9d9e0" d="M15 3h1v1h-1zm3 0h1v1h-1z"/><path fill="#b9bbc6" d="M21 3h1v1h-1z"/><path fill="#d9d9e0" d="M24 3h1v1h-1z"/><path fill="#fff" d="M27 3h1v1h-1z"/><path fill="#151618" d="M30 3h1v1h-1z"/><path fill="#fff" d="M33 3h1v1h-1z"/><path fill="#d9d9e0" d="M36 3h1v1h-1zm3 0h1v1h-1zm3 0h1v1h-1zm3 0h1v1h-1z"/><path fill="#151618" d="M48 3h1v1h-1z"/><path fill="#fff" d="M51 3h1v1h-1z"/><path fill="#b9bbc6" d="M54 3h1v1h-1z"/><path fill="#fff" d="M57 3h1v1h-1z"/><path fill="#d9d9e0" d="M60 3h1v1h-1z"/><path fill="#fff" d="M63 3h1v1h-1z"/><path fill="#d9d9e0" d="M66 3h1v1h-1z"/><path fill="#fff" d="M69 3h1v1h-1z"/><path fill="#d9d9e0" d="M72 3h1v1h-1z"/><path fill="#fff" d="M75 3h1v1h-1z"/><path fill="#151618" d="M78 3h1v1h-1zm3 0h1v1h-1z"/><path fill="#fff" d="M84 3h1v1h-1z"/><path fill="#d9d9e0" d="M87 3h1v1h-1z"/><path fill="#b9bbc6" d="M90 3h1v1h-1z"/><path fill="#151618" d="M93 3h1v1h-1z"/><path fill="#fff" d="M96 3h1v1h-1z"/><path fill="#b9bbc6" d="M99 3h1v1h-1z"/><path fill="#d9d9e0" d="M102 3h1v1h-1z"/><path fill="#151618" d="M105 3h1v1h-1zm3 0h1v1h-1z"/><path fill="#d9d9e0" d="M111 3h1v1h-1z"/><path fill="#151618" d="M114 3h1v1h-1z"/><path fill="#d9d9e0" d="M117 3h1v1h-1z"/><path fill="#151618" d="M120 3h1v1h-1z"/><path fill="#fff" d="M123 3h1v1h-1zm3 0h1v1h-1z"/><path fill="#151618" d="M129 3h1v1h-1z"/><path fill="#fff" d="M132 3h1v1h-1z"/><path fill="#151618" d="M135 3h1v1h-1z"/><path fill="#b9bbc6" d="M138 3h1v1h-1z"/><path fill="#fff" d="M141 3h1v1h-1z"/><path fill="#b9bbc6" d="M144 3h1v1h-1z"/><path fill="#fff" d="M147 3h1v1h-1z"/><path fill="#151618" d="M150 3h1v1h-1z"/><path fill="#fff" d="M153 3h1v1h-1zm3 0h1v1h-1z"/><path fill="#151618" d="M159 3h1v1h-1z"/><path fill="#d9d9e0" d="M162 3h1v1h-1zm3 0h1v1h-1zm3 0h1v1h-1z"/><path fill="#b9bbc6" d="M171 3h1v1h-1z"/><path fill="#151618" d="M174 3h1v1h-1z"/><path fill="#fff" d="M177 3h1v1h-1z"/><path fill="#d9d9e0" d="M180 3h1v1h-1z"/><path fill="#b9bbc6" d="M183 3h1v1h-1z"/><path fill="#fff" d="M186 3h1v1h-1z"/><path fill="#b9bbc6" d="M189 3h1v1h-1z"/><path fill="#fff" d="M192 3h1v1h-1zm3 0h1v1h-1z"/><path fill="#b9bbc6" d="M198 3h1v1h-1zM0 6h1v1H0z"/><path fill="#fff" d="M3 6h1v1H3z"/><path fill="#151618" d="M6 6h1v1H6z"/><path fill="#fff" d="M9 6h1v1H9z"/><path fill="#b9bbc6" d="M12 6h1v1h-1z"/><path fill="#151618" d="M15 6h1v1h-1zm3 0h1v1h-1z"/><path fill="#fff" d="M21 6h1v1h-1z"/><path fill="#d9d9e0" d="M24 6h1v1h-1z"/><path fill="#fff" d="M27 6h1v1h-1zm3 0h1v1h-1z"/><path fill="#151618" d="M33 6h1v1h-1zm3 0h1v1h-1z"/><path fill="#b9bbc6" d="M39 6h1v1h-1z"/><path fill="#151618" d="M42 6h1v1h-1z"/><path fill="#fff" d="M45 6h1v1h-1z"/><path fill="#d9d9e0" d="M48 6h1v1h-1z"/><path fill="#fff" d="M51 6h1v1h-1z"/><path fill="#d9d9e0" d="M54 6h1v1h-1z"/><path fill="#fff" d="M57 6h1v1h-1zm3 0h1v1h-1z"/><path fill="#151618" d="M63 6h1v1h-1z"/><path fill="#d9d9e0" d="M66 6h1v1h-1zm3 0h1v1h-1z"/><path fill="#b9bbc6" d="M72 6h1v1h-1z"/><path fill="#fff" d="M75 6h1v1h-1z"/><path fill="#b9bbc6" d="M78 6h1v1h-1z"/><path fill="#fff" d="M81 6h1v1h-1zm3 0h1v1h-1zm3 0h1v1h-1zm3 0h1v1h-1z"/><path fill="#b9bbc6" d="M93 6h1v1h-1z"/><path fill="#151618" d="M96 6h1v1h-1zm3 0h1v1h-1z"/><path fill="#b9bbc6" d="M102 6h1v1h-1z"/><path fill="#fff" d="M105 6h1v1h-1zm3 0h1v1h-1z"/><path fill="#151618" d="M111 6h1v1h-1z"/><path fill="#fff" d="M114 6h1v1h-1z"/><path fill="#151618" d="M117 6h1v1h-1z"/><path fill="#fff" d="M120 6h1v1h-1zm3 0h1v1h-1z"/><path fill="#151618" d="M126 6h1v1h-1zm3 0h1v1h-1z"/><path fill="#d9d9e0" d="M132 6h1v1h-1zm3 0h1v1h-1z"/><path fill="#fff" d="M138 6h1v1h-1zm3 0h1v1h-1z"/><path fill="#b9bbc6" d="M144 6h1v1h-1z"/><path fill="#fff" d="M147 6h1v1h-1z"/><path fill="#151618" d="M150 6h1v1h-1z"/><path fill="#d9d9e0" d="M153 6h1v1h-1zm3 0h1v1h-1z"/><path fill="#151618" d="M159 6h1v1h-1z"/><path fill="#fff" d="M162 6h1v1h-1z"/><path fill="#151618" d="M165 6h1v1h-1z"/><path fill="#fff" d="M168 6h1v1h-1z"/><path fill="#b9bbc6" d="M171 6h1v1h-1z"/><path fill="#fff" d="M174 6h1v1h-1z"/><path fill="#d9d9e0" d="M177 6h1v1h-1zm3 0h1v1h-1zm3 0h1v1h-1z"/><path fill="#fff" d="M186 6h1v1h-1z"/><path fill="#b9bbc6" d="M189 6h1v1h-1z"/><path fill="#fff" d="M192 6h1v1h-1z"/><path fill="#d9d9e0" d="M195 6h1v1h-1z"/><path fill="#fff" d="M198 6h1v1h-1z"/><path fill="#d9d9e0" d="M0 9h1v1H0z"/><path fill="#151618" d="M3 9h1v1H3zm3 0h1v1H6z"/><path fill="#fff" d="M9 9h1v1H9z"/><path fill="#d9d9e0" d="M12 9h1v1h-1zm3 0h1v1h-1z"/><path fill="#b9bbc6" d="M18 9h1v1h-1z"/><path fill="#151618" d="M21 9h1v1h-1z"/><path fill="#d9d9e0" d="M24 9h1v1h-1z"/><path fill="#fff" d="M27 9h1v1h-1zm3 0h1v1h-1zm3 0h1v1h-1z"/><path fill="#d9d9e0" d="M36 9h1v1h-1zm3 0h1v1h-1z"/><path fill="#b9bbc6" d="M42 9h1v1h-1z"/><path fill="#fff" d="M45 9h1v1h-1z"/><path fill="#b9bbc6" d="M48 9h1v1h-1z"/><path fill="#151618" d="M51 9h1v1h-1z"/><path fill="#b9bbc6" d="M54 9h1v1h-1z"/><path fill="#fff" d="M57 9h1v1h-1zm3 0h1v1h-1z"/><path fill="#151618" d="M63 9h1v1h-1z"/><path fill="#b9bbc6" d="M66 9h1v1h-1z"/><path fill="#fff" d="M69 9h1v1h-1zm3 0h1v1h-1zm3 0h1v1h-1z"/><path fill="#151618" d="M78 9h1v1h-1z"/><path fill="#fff" d="M81 9h1v1h-1z"/><path fill="#151618" d="M84 9h1v1h-1z"/><path fill="#b9bbc6" d="M87 9h1v1h-1z"/><path fill="#151618" d="M90 9h1v1h-1zm3 0h1v1h-1zm3 0h1v1h-1z"/><path fill="#fff" d="M99 9h1v1h-1z"/><path fill="#151618" d="M102 9h1v1h-1z"/><path fill="#b9bbc6" d="M105 9h1v1h-1z"/><path fill="#fff" d="M108 9h1v1h-1zm3 0h1v1h-1z"/><path fill="#b9bbc6" d="M114 9h1v1h-1z"/><path fill="#151618" d="M117 9h1v1h-1z"/><path fill="#fff" d="M120 9h1v1h-1z"/><path fill="#151618" d="M123 9h1v1h-1z"/><path fill="#fff" d="M126 9h1v1h-1z"/><path fill="#151618" d="M129 9h1v1h-1z"/><path fill="#b9bbc6" d="M132 9h1v1h-1z"/><path fill="#fff" d="M135 9h1v1h-1zm3 0h1v1h-1z"/><path fill="#b9bbc6" d="M141 9h1v1h-1z"/><path fill="#fff" d="M144 9h1v1h-1z"/><path fill="#151618" d="M147 9h1v1h-1z"/><path fill="#b9bbc6" d="M150 9h1v1h-1zm3 0h1v1h-1z"/><path fill="#151618" d="M156 9h1v1h-1zm3 0h1v1h-1z"/><path fill="#fff" d="M162 9h1v1h-1z"/><path fill="#d9d9e0" d="M165 9h1v1h-1z"/><path fill="#151618" d="M168 9h1v1h-1z"/><path fill="#fff" d="M171 9h1v1h-1z"/><path fill="#d9d9e0" d="M174 9h1v1h-1z"/><path fill="#fff" d="M177 9h1v1h-1z"/><path fill="#b9bbc6" d="M180 9h1v1h-1z"/><path fill="#d9d9e0" d="M183 9h1v1h-1z"/><path fill="#b9bbc6" d="M186 9h1v1h-1z"/><path fill="#151618" d="M189 9h1v1h-1z"/><path fill="#fff" d="M192 9h1v1h-1z"/><path fill="#b9bbc6" d="M195 9h1v1h-1z"/><path fill="#fff" d="M198 9h1v1h-1zM0 12h1v1H0z"/><path fill="#d9d9e0" d="M3 12h1v1H3z"/><path fill="#151618" d="M6 12h1v1H6z"/><path fill="#b9bbc6" d="M9 12h1v1H9z"/><path fill="#151618" d="M12 12h1v1h-1z"/><path fill="#fff" d="M15 12h1v1h-1zm3 0h1v1h-1z"/><path fill="#d9d9e0" d="M21 12h1v1h-1z"/><path fill="#151618" d="M24 12h1v1h-1z"/><path fill="#fff" d="M27 12h1v1h-1z"/><path fill="#151618" d="M30 12h1v1h-1z"/><path fill="#d9d9e0" d="M33 12h1v1h-1z"/><path fill="#fff" d="M36 12h1v1h-1zm3 0h1v1h-1z"/><path fill="#b9bbc6" d="M42 12h1v1h-1z"/><path fill="#d9d9e0" d="M45 12h1v1h-1z"/><path fill="#b9bbc6" d="M48 12h1v1h-1z"/><path fill="#151618" d="M51 12h1v1h-1z"/><path fill="#fff" d="M54 12h1v1h-1z"/><path fill="#151618" d="M57 12h1v1h-1z"/><path fill="#fff" d="M60 12h1v1h-1zm3 0h1v1h-1zm3 0h1v1h-1z"/><path fill="#b9bbc6" d="M69 12h1v1h-1z"/><path fill="#151618" d="M72 12h1v1h-1zm3 0h1v1h-1z"/><path fill="#fff" d="M78 12h1v1h-1z"/><path fill="#b9bbc6" d="M81 12h1v1h-1z"/><path fill="#fff" d="M84 12h1v1h-1zm3 0h1v1h-1z"/><path fill="#d9d9e0" d="M90 12h1v1h-1z"/><path fill="#b9bbc6" d="M93 12h1v1h-1z"/><path fill="#fff" d="M96 12h1v1h-1zm3 0h1v1h-1z"/><path fill="#d9d9e0" d="M102 12h1v1h-1zm3 0h1v1h-1z"/><path fill="#fff" d="M108 12h1v1h-1z"/><path fill="#151618" d="M111 12h1v1h-1zm3 0h1v1h-1z"/><path fill="#fff" d="M117 12h1v1h-1zm3 0h1v1h-1z"/><path fill="#d9d9e0" d="M123 12h1v1h-1z"/><path fill="#151618" d="M126 12h1v1h-1z"/><path fill="#b9bbc6" d="M129 12h1v1h-1z"/><path fill="#fff" d="M132 12h1v1h-1zm3 0h1v1h-1z"/><path fill="#b9bbc6" d="M138 12h1v1h-1zm3 0h1v1h-1z"/><path fill="#fff" d="M144 12h1v1h-1z"/><path fill="#151618" d="M147 12h1v1h-1z"/><path fill="#fff" d="M150 12h1v1h-1zm3 0h1v1h-1z"/><path fill="#151618" d="M156 12h1v1h-1z"/><path fill="#d9d9e0" d="M159 12h1v1h-1z"/><path fill="#151618" d="M162 12h1v1h-1zm3 0h1v1h-1zm3 0h1v1h-1z"/><path fill="#b9bbc6" d="M171 12h1v1h-1z"/><path fill="#151618" d="M174 12h1v1h-1zm3 0h1v1h-1z"/><path fill="#b9bbc6" d="M180 12h1v1h-1z"/><path fill="#151618" d="M183 12h1v1h-1z"/><path fill="#fff" d="M186 12h1v1h-1z"/><path fill="#d9d9e0" d="M189 12h1v1h-1z"/><path fill="#151618" d="M192 12h1v1h-1z"/><path fill="#d9d9e0" d="M195 12h1v1h-1zm3 0h1v1h-1z"/></g><defs><clipPath id="a"><path fill="#fff" d="M0 0h200v16H0z"/></clipPath></defs></svg>