<svg xmlns="http://www.w3.org/2000/svg" width="148" height="32" fill="none" viewBox="0 0 148 32"><path fill="#67707e" d="M97 12h-1v1h1zm0-3h-1v1h1zm2 10h1v-1h-1zm0-3h1v-1h-1zm-5-7h-1v1h1zm8 13h1v-1h-1zm-8-7h-1v1h1zm8 1h1v-1h-1zm-8 2h-1v1h1zm0 3h-1v1h1zm8-11h1V9h-1zm-8 14h-1v1h1zm8-17h1V6h-1zm-3 0h1V6h-1zm-8-1h-1v1h1zm14 19h1v-1h-1zM91 9h-1v1h1zm-9 0h-1v1h1zm3 0h-1v1h1zm20 13h1v-1h-1zM91 12h-1v1h1zm-3 0h-1v1h1zm-6 0h-1v1h1zm-3 0h-1v1h1zm26 7h1v-1h-1zm-14 8h-1v1h1zm3 0h-1v1h1zm3 0h-1v1h1zm6 0h-1v1h1zm3 0h-1v1h1zm-1-23h1V3h-1zM93 4h1V3h-1zm-3 0h1V3h-1zm-2-1h-1v1h1zm20 25h1v-1h-1zM88 15h-1v1h1zm-3 0h-1v1h1zm-6 0h-1v1h1zm-3 0h-1v1h1zm32 1h1v-1h-1zm-20 2h-1v1h1zm20-5h1v-1h-1zM88 24h-1v1h1zm20-17h1V6h-1zm40 17h-1v1h1zm-37 4h1v-1h-1zm0-3h1v-1h-1zM85 12h-1v1h1zm26 7h1v-1h-1zm34-7h-1v1h1zm3 0h-1v1h1zm-63 9h-1v1h1zm26-11h1V9h-1zm34 11h-1v1h1zm3 0h-1v1h1zm-63 6h-1v1h1zm26-23h1V3h-1zm31-1h-1v1h1zm-28 19h1v-1h-1zm28-13h-1v1h1zm-28 10h1v-1h-1zm28-7h-1v1h1zm-57 6h-1v1h1zm26-5h1v-1h-1zm-29 8h-1v1h1zm60 0h-1v1h1zm-60 6h-1v1h1zm32-23h1V3h-1zm28 23h-1v1h1zm0-3h-1v1h1zm-25 4h1v-1h-1zm22-25h-1v1h1zm-22 22h1v-1h-1zm22-19h-1v1h1zm-22 16h1v-1h-1zm22-13h-1v1h1zm-22 7h1v-1h-1zm22-1h-1v1h1zm-60 3h-1v1h1zm38-5h1v-1h-1zm22 5h-1v1h1zm-60 3h-1v1h1zm38-11h1V9h-1zm-3 0h1V9h-1zm-9 0h1V9h-1zm0 3h1v-1h-1zm34 8h-1v1h1zm-19 4h1v-1h-1zm16-19h-1v1h1zm-16 16h1v-1h-1zm16-13h-1v1h1zm-16 10h1v-1h-1zm16-7h-1v1h1zm-6 0h-1v1h1zm-54 9h-1v1h1zm44-11h1V9h-1zM76 24h-1v1h1zm44-17h1V6h-1zm9 0h1V6h-1zm3 0h1V6h-1zm0-3h1V3h-1zm4 20h-1v1h1zm0-3h-1v1h1zm-13 1h1v-1h-1zm10-13h-1v1h1zm-10 7h1v-1h-1zm10-1h-1v1h1zm-10-2h1v-1h-1zm10 5h-1v1h1zm-10-8h1V9h-1zm10 11h-1v1h1zm-60 6h-1v1h1zm50-23h1V3h-1zm10 23h-1v1h1zm-75 0h-1v1h1zm-15 0h-1v1h1zm-33 0H9v1h1zm116-14h1v-1h-1zm4 5h-1v1h1zm-4-8h1V9h-1zm4 11h-1v1h1zm-75 6h-1v1h1zm-33 0h-1v1h1zm45-3h-1v1h1zm-15 0h-1v1h1zm-15 0h-1v1h1zm0 3h-1v1h1zM4 27H3v1h1zm45-3h-1v1h1zm-15 0h-1v1h1zm30 3h-1v1h1zm-33 0h-1v1h1zm18 0h-1v1h1zm-33 0h-1v1h1zm45-3h-1v1h1zm0 3h-1v1h1zm-33 0h-1v1h1z"/></svg>