<svg width="132" height="40" viewBox="0 0 132 40" fill="none" xmlns="http://www.w3.org/2000/svg">
<g clip-path="url(#clip0_17578_6860)">
<path d="M113.556 39.2281C108.99 40.9946 107.133 39.3211 107.133 38.2649C108.751 38.1286 112.615 37.907 113.556 39.2281ZM119.351 37.7838C118.217 38.6164 116.824 39.0194 115.42 38.921C114.017 38.8226 112.694 38.2291 111.687 37.2465C113.245 36.814 117.499 36.3016 119.351 37.7838ZM111.627 34.3503C111.8 36.5481 109.547 37.7838 107.115 37.9622C107.558 35.7513 109.829 34.7643 111.627 34.3503ZM115.989 32.3243C116.247 33.2638 115.893 35.814 112.394 36.8259C112.544 35.1038 113.461 32.8616 115.989 32.3243ZM122.928 34.8811C122.03 35.7754 120.848 36.3271 119.585 36.4398C118.323 36.5526 117.061 36.2195 116.019 35.4984C117.422 34.7762 120.789 33.8011 122.928 34.8811ZM119.231 29.7935C119.71 30.7189 119.812 33.3557 116.714 34.9427C116.534 33.2454 117.217 30.3427 119.231 29.7935ZM126.894 30.8184C126.603 31.3917 126.197 31.8998 125.703 32.3118C125.209 32.7238 124.636 33.0311 124.019 33.2151C123.408 33.3943 122.767 33.4446 122.135 33.3627C121.504 33.2808 120.896 33.0686 120.352 32.7395C122.305 30.9049 125.421 30.2011 126.894 30.8184ZM122.263 25.9027C123.653 28.3243 122.184 31.0897 120.657 32.2259C119.977 29.9751 120.601 27.5222 122.263 25.9027ZM129.471 25.7978C129.639 29.5589 125.708 29.3546 123.863 29.3795C124.444 28.5892 127.673 25.7243 129.471 25.7978ZM124.624 22.2843C125.355 23.0876 126.451 26.1751 124.024 28.694C123.263 26.8724 123.097 24.0757 124.624 22.2843ZM131.533 20.6173C131.658 23.6551 129.099 25.1924 126.631 25.1686C127.374 23.7049 129.358 20.8832 131.533 20.6173ZM126.355 18.5243C127.991 19.4865 127.805 22.5935 126.84 24.2108C125.756 22.7049 124.947 20.8335 126.355 18.5243ZM131.64 15.6778C132.449 18.4443 130.071 20.3157 128.644 20.4757C129.009 19.1546 129.488 16.814 131.64 15.6778ZM126.655 14.7578C128.459 15.6605 129.313 17.8195 128.638 19.7654C127.38 18.7524 125.864 16.6097 126.655 14.7578ZM131.724 11.4108C132.839 14.7762 130.28 15.8757 129.328 16.1459C129.441 14.7146 130.352 11.8616 131.724 11.4108ZM126.727 10.5276C127.458 10.7384 129.543 12.4486 129.165 15.5113C127.793 14.7395 126.127 13.2692 126.727 10.5276ZM130.969 6.31135C132.215 10.4476 130.136 12.1459 129.453 12.4843C129.345 11.1762 129.213 8.12 130.969 6.31135ZM126.355 6.41513C127.661 6.77946 129.309 9.17513 129.231 11.4789C127.937 10.8865 126.002 8.4227 126.355 6.41513ZM126.745 0C129.777 3.13081 130.202 5.6 129.316 8.64432C127.943 7.40973 126.847 3.70486 126.745 0ZM18.4443 39.2281C23.0102 40.9946 24.8669 39.3211 24.8669 38.2649C23.2493 38.1286 19.3845 37.907 18.4443 39.2281ZM12.6482 37.7838C13.7821 38.6164 15.1751 39.0194 16.5787 38.921C17.9824 38.8226 19.3054 38.2291 20.3118 37.2465C18.7538 36.814 14.4995 36.3016 12.6482 37.7838ZM20.3724 34.3503C20.1993 36.5481 22.4519 37.7838 24.8842 37.9622C24.4406 35.7513 22.1695 34.7643 20.3724 34.3503ZM16.011 32.3243C15.7535 33.2638 16.1073 35.814 19.6063 36.8259C19.4559 35.1038 18.5395 32.8616 16.011 32.3243ZM9.07231 34.8811C9.96952 35.7754 11.1523 36.3271 12.4146 36.4398C13.6769 36.5526 14.9389 36.2195 15.9807 35.4984C14.5784 34.7762 11.2114 33.8011 9.07231 34.8811ZM12.7694 29.7935C12.2901 30.7189 12.1884 33.3557 15.286 34.9427C15.4657 33.2454 14.7829 30.3427 12.7694 29.7935ZM5.10581 30.8184C5.39743 31.3917 5.80264 31.8998 6.29683 32.3118C6.79102 32.7238 7.36388 33.0311 7.9806 33.2151C8.59156 33.3943 9.23315 33.4446 9.8646 33.3627C10.496 33.2808 11.1035 33.0686 11.6485 32.7395C9.69552 30.9049 6.57945 30.2011 5.10581 30.8184ZM9.73663 25.9027C8.34739 28.3243 9.81562 31.0897 11.3434 32.2259C12.0228 29.9751 11.3996 27.5222 9.73772 25.9027H9.73663ZM2.52857 25.7978C2.36086 29.5589 6.29165 29.3546 8.13749 29.3795C7.55647 28.5892 4.3268 25.7243 2.52857 25.7978ZM7.37578 22.2843C6.64545 23.0876 5.54942 26.1751 7.97627 28.694C8.7369 26.8724 8.90352 24.0757 7.37578 22.2843ZM0.468504 20.6173C0.342995 23.6551 2.90185 25.1924 5.36981 25.1686C4.62759 23.7049 2.64326 20.8832 0.468504 20.6173ZM5.64572 18.5243C4.00978 19.4865 4.19588 22.5935 5.161 24.2108C6.24513 22.7049 7.05444 20.8335 5.64572 18.5243ZM0.360307 15.6778C-0.449005 18.4443 1.92916 20.3157 3.35627 20.4757C2.99057 19.1546 2.51126 16.814 0.359225 15.6778H0.360307ZM5.34493 14.7578C3.54129 15.6605 2.68654 17.8195 3.36168 19.7654C4.62001 18.7524 6.13585 16.6097 5.34493 14.7578ZM0.275913 11.4108C-0.838513 14.7762 1.72034 15.8757 2.67247 16.1459C2.55886 14.7146 1.64785 11.8616 0.275913 11.4108ZM5.27352 10.5276C4.54211 10.7384 2.45716 12.4486 2.83477 15.5113C4.2067 14.7395 5.87293 13.2692 5.27352 10.5276ZM1.03113 6.31135C-0.2153 10.4476 1.86424 12.1459 2.54696 12.4843C2.65516 11.1762 2.78716 8.12 1.03113 6.31135ZM5.64463 6.41513C4.3387 6.77946 2.69086 9.17513 2.76877 11.4789C4.0628 10.8865 5.99844 8.4227 5.64463 6.41513ZM5.25513 0C2.22345 3.13081 1.79824 5.6 2.68437 8.64432C4.05739 7.40973 5.15342 3.70486 5.25513 0ZM60.4106 37.8378C60.5858 37.8378 60.7222 37.7211 60.7222 37.5459V24.5081C60.7222 24.333 60.5858 24.2162 60.4106 24.2162H55.4443C55.2691 24.2162 55.1522 24.333 55.1522 24.5081V26.4346C55.1522 26.6097 55.2691 26.7459 55.4443 26.7459H57.7424V37.5459C57.7424 37.7211 57.8593 37.8378 58.0346 37.8378H60.4106ZM66.2921 38.0713C68.2202 38.0713 69.9146 37.0595 69.934 35.094C69.973 33.654 69.0187 32.8173 67.8307 32.3503L66.3895 31.7859C65.9611 31.6108 65.63 31.3578 65.63 31.0076C65.63 30.7157 65.8053 30.3849 66.3895 30.3849C66.9154 30.3849 67.4412 30.6573 68.0644 31.1438C68.2397 31.2605 68.376 31.28 68.5123 31.1438L69.5056 29.9762C69.5835 29.8595 69.6419 29.7038 69.5251 29.5676C69.1183 29.0939 68.6132 28.7144 68.0448 28.4557C67.4764 28.1969 66.8583 28.065 66.2337 28.0692C64.403 28.0692 62.806 29.1395 62.806 31.0076C62.806 32.3308 63.624 33.1481 64.8704 33.6346L66.1169 34.1405C66.7596 34.3935 66.9738 34.6076 66.9738 34.9773C66.9738 35.4054 66.6232 35.6 66.0974 35.6C65.4157 35.6 64.7731 35.3081 63.9356 34.7049C63.7798 34.6076 63.6045 34.5492 63.4487 34.8022L62.6697 35.8919C62.5334 36.0865 62.5139 36.32 62.6113 36.4562C63.4098 37.4097 64.6757 38.0713 66.2921 38.0713ZM75.3092 38.0713C75.9714 38.0713 77.0231 37.9546 77.0231 37.4681V35.853C77.0231 35.6584 76.8673 35.5611 76.6725 35.5805C76.4193 35.6 76.2441 35.6 76.0688 35.6C75.5819 35.6 75.2508 35.3276 75.2508 34.8022V30.5989H76.7115C76.8868 30.5989 77.0036 30.4822 77.0036 30.307V28.5946C77.0036 28.4195 76.8868 28.3027 76.7115 28.3027H75.2508V26.0649C75.2508 25.8897 75.1145 25.773 74.9392 25.773H72.5437C72.3685 25.773 72.2321 25.8897 72.2321 26.0649V28.3027H71.0441C70.8689 28.3027 70.752 28.4195 70.752 28.5946V30.307C70.752 30.4822 70.8689 30.5989 71.0441 30.5989H72.2321V35.133C72.2321 37.3513 73.7317 38.0713 75.3092 38.0713ZM22.4184 16.2162C22.5157 16.2162 22.5807 16.1513 22.5807 16.0541V13.6108H23.3597C25.1882 13.6108 26.0538 12.6054 26.0538 11.1351C26.0538 9.66486 25.1882 8.64865 23.3597 8.64865H21.0335C20.9361 8.64865 20.8712 8.71351 20.8712 8.81081V16.0541C20.8712 16.1513 20.9361 16.2162 21.0335 16.2162H22.4184ZM22.5807 10.1622H23.3164C23.8898 10.1622 24.42 10.3459 24.42 11.1351C24.42 11.9135 23.8898 12.0973 23.3164 12.0973H22.5807V10.1622ZM28.5315 16.2162C28.6289 16.2162 28.7046 16.1513 28.7046 16.0541V13.5027C28.7046 12.7135 29.1158 12.2811 29.7974 12.2811C29.9597 12.2811 30.0787 12.3027 30.1869 12.3351C30.3384 12.3676 30.4141 12.3351 30.4141 12.1946V11.1459C30.4141 11.0486 30.3925 10.9838 30.3167 10.9297C30.2302 10.8649 30.0895 10.7892 29.8298 10.7892C29.2131 10.7892 28.8777 11.2216 28.7046 11.7946L28.6505 11.0919C28.6505 10.9622 28.5856 10.9189 28.4882 10.9189H27.2115C27.1141 10.9189 27.0492 10.9838 27.0492 11.0811V16.0541C27.0492 16.1513 27.1141 16.2162 27.2115 16.2162H28.5315ZM33.6925 16.3459C35.2938 16.3459 36.4839 15.1351 36.4839 13.5676C36.4839 12 35.2938 10.7892 33.6925 10.7892C32.0912 10.7892 30.9118 12 30.9118 13.5676C30.9118 15.1351 32.0912 16.3459 33.6925 16.3459ZM33.6925 14.8324C33.0217 14.8324 32.5023 14.3459 32.5023 13.5676C32.5023 12.7892 33.0217 12.3027 33.6925 12.3027C34.3633 12.3027 34.8826 12.7892 34.8826 13.5676C34.8826 14.3459 34.3633 14.8324 33.6925 14.8324ZM39.6325 16.3459C40.3899 16.3459 40.9308 16.0432 41.2879 15.5351L41.3095 16.0541C41.3095 16.1513 41.3853 16.2162 41.4826 16.2162H42.6728C42.7702 16.2162 42.8567 16.1513 42.8567 16.0541V8.64865C42.8567 8.55135 42.781 8.48648 42.6836 8.48648H41.3528C41.2554 8.48648 41.1905 8.55135 41.1905 8.64865V11.4486C40.8335 11.027 40.3249 10.7892 39.6325 10.7892C38.161 10.7892 37.144 12 37.144 13.5676C37.144 15.1459 38.161 16.3459 39.6325 16.3459ZM39.9895 14.8432C39.2862 14.8432 38.7561 14.3459 38.7561 13.5676C38.7561 12.8 39.2862 12.2919 39.9895 12.2919C40.7144 12.2919 41.2121 12.8 41.2121 13.5568C41.2121 14.3351 40.7144 14.8432 39.9895 14.8432ZM45.962 16.3459C46.7302 16.3459 47.2171 15.9676 47.52 15.427L47.5633 16.0432C47.5633 16.173 47.639 16.2162 47.7364 16.2162H49.0023C49.0997 16.2162 49.1754 16.1513 49.1754 16.0541V11.0811C49.1754 10.9838 49.0997 10.9189 49.0023 10.9189H47.6931C47.5958 10.9189 47.52 10.9838 47.52 11.0811V13.7622C47.52 14.4649 47.163 14.8324 46.6003 14.8324C46.0161 14.8324 45.7131 14.4649 45.7131 13.7622V11.0811C45.7131 10.9838 45.6374 10.9189 45.54 10.9189H44.22C44.1226 10.9189 44.0577 10.9838 44.0577 11.0811V14.1513C44.0577 15.5351 44.8584 16.3459 45.962 16.3459ZM52.9298 16.3459C53.7846 16.3459 54.4987 15.9676 54.9531 15.373C55.018 15.2973 55.0072 15.2108 54.9423 15.1459L54.1958 14.4324C54.1092 14.3459 53.9902 14.3459 53.9144 14.4216C53.6223 14.6919 53.341 14.8324 52.9839 14.8324C52.1833 14.8324 51.7072 14.227 51.7072 13.5351C51.7072 12.8541 52.1833 12.3027 52.9623 12.3027C53.3302 12.3027 53.6115 12.4324 53.8928 12.7135C53.9794 12.7892 54.0984 12.7892 54.1849 12.7027L54.9315 11.9892C54.9964 11.9243 55.0072 11.827 54.9423 11.7622C54.4879 11.1676 53.7738 10.7892 52.8866 10.7892C51.2853 10.7892 50.1167 11.9784 50.1167 13.5351C50.1167 15.1243 51.3069 16.3459 52.9298 16.3459ZM58.0908 16.3459C58.4587 16.3459 59.043 16.2811 59.043 16.0108V15.1135C59.043 15.0054 58.9564 14.9513 58.8482 14.9622C58.7076 14.973 58.6102 14.973 58.5128 14.973C58.2423 14.973 58.0584 14.8216 58.0584 14.5297V12.1946H58.8699C58.9672 12.1946 59.0321 12.1297 59.0321 12.0324V11.0811C59.0321 10.9838 58.9672 10.9189 58.8699 10.9189H58.0584V9.67567C58.0584 9.57838 57.9826 9.51351 57.8853 9.51351H56.5544C56.4571 9.51351 56.3813 9.57838 56.3813 9.67567V10.9189H55.7213C55.6239 10.9189 55.559 10.9838 55.559 11.0811V12.0324C55.559 12.1297 55.6239 12.1946 55.7213 12.1946H56.3813V14.7135C56.3813 15.9459 57.2144 16.3459 58.0908 16.3459ZM64.5285 16.3459C66.1299 16.3459 67.32 15.1351 67.32 13.5676C67.32 12 66.1299 10.7892 64.5285 10.7892C62.9272 10.7892 61.7479 12 61.7479 13.5676C61.7479 15.1351 62.9272 16.3459 64.5285 16.3459ZM64.5285 14.8324C63.8577 14.8324 63.3384 14.3459 63.3384 13.5676C63.3384 12.7892 63.8577 12.3027 64.5285 12.3027C65.1994 12.3027 65.7187 12.7892 65.7187 13.5676C65.7187 14.3459 65.1994 14.8324 64.5285 14.8324ZM70.1007 16.2162C70.198 16.2162 70.2738 16.1513 70.2738 16.0541V12.1946H71.3341C71.4315 12.1946 71.4964 12.1297 71.4964 12.0324V11.0811C71.4964 10.9838 71.4315 10.9189 71.3341 10.9189H70.2738V10.3892C70.2738 10.0324 70.3928 9.77297 70.9013 9.77297C71.0203 9.77297 71.1718 9.8054 71.3557 9.83784C71.4315 9.84865 71.4964 9.83784 71.4964 9.76216V8.67027C71.4964 8.6054 71.4639 8.52973 71.399 8.4973C71.0744 8.33513 70.8364 8.31351 70.5118 8.31351C69.3325 8.31351 68.6076 8.87567 68.6076 10.173V10.9189H67.98C67.8826 10.9189 67.8177 10.9838 67.8177 11.0811V12.0324C67.8177 12.1297 67.8826 12.1946 67.98 12.1946H68.6076V16.0541C68.6076 16.1513 68.6725 16.2162 68.7699 16.2162H70.1007ZM76.679 16.3459C77.0469 16.3459 77.6312 16.2811 77.6312 16.0108V15.1135C77.6312 15.0054 77.5446 14.9513 77.4364 14.9622C77.2957 14.973 77.1984 14.973 77.101 14.973C76.8305 14.973 76.6466 14.8216 76.6466 14.5297V12.1946H77.458C77.5554 12.1946 77.6203 12.1297 77.6203 12.0324V11.0811C77.6203 10.9838 77.5554 10.9189 77.458 10.9189H76.6466V9.67567C76.6466 9.57838 76.5708 9.51351 76.4734 9.51351H75.1426C75.0452 9.51351 74.9695 9.57838 74.9695 9.67567V10.9189H74.3095C74.2121 10.9189 74.1472 10.9838 74.1472 11.0811V12.0324C74.1472 12.1297 74.2121 12.1946 74.3095 12.1946H74.9695V14.7135C74.9695 15.9459 75.8026 16.3459 76.679 16.3459ZM81.7102 10.7892C80.9528 10.7892 80.4659 11.1676 80.163 11.7081V8.64865C80.163 8.55135 80.0872 8.48648 79.9898 8.48648H78.6698C78.5725 8.48648 78.5075 8.55135 78.5075 8.64865V16.0541C78.5075 16.1513 78.5725 16.2162 78.6698 16.2162H79.9898C80.0872 16.2162 80.163 16.1513 80.163 16.0541V13.373C80.163 12.6703 80.5092 12.3027 81.0826 12.3027C81.6669 12.3027 81.9698 12.6703 81.9698 13.373V16.0541C81.9698 16.1513 82.0456 16.2162 82.143 16.2162H83.4521C83.5495 16.2162 83.6253 16.1513 83.6253 16.0541V12.9838C83.6253 11.6 82.8138 10.7892 81.7102 10.7892ZM87.4879 16.3459C88.2344 16.3459 88.9161 16.1297 89.3705 15.6757C89.4679 15.5892 89.4679 15.5027 89.4246 15.4378L88.981 14.8108C88.9161 14.7351 88.8728 14.7135 88.7862 14.7568C88.3426 15.0054 87.9748 15.0486 87.6177 15.0486C86.8603 15.0486 86.3626 14.7676 86.1787 14.1946H89.2299C89.7167 14.1946 89.8574 13.8703 89.8574 13.3297C89.8574 11.9676 88.9161 10.7892 87.2931 10.7892C85.6594 10.7892 84.5666 11.9892 84.5666 13.5459C84.5666 15.1568 85.7459 16.3459 87.4879 16.3459ZM86.1571 13.0486C86.2869 12.4216 86.7521 12.1513 87.3039 12.1513C87.8558 12.1513 88.2777 12.4108 88.3859 13.0486H86.1571ZM95.1049 16.3459C95.8623 16.3459 96.4033 16.0432 96.7603 15.5351L96.782 16.0541C96.782 16.1513 96.8577 16.2162 96.9551 16.2162H98.1453C98.2426 16.2162 98.3292 16.1513 98.3292 16.0541V8.64865C98.3292 8.55135 98.2535 8.48648 98.1561 8.48648H96.8253C96.7279 8.48648 96.663 8.55135 96.663 8.64865V11.4486C96.3059 11.027 95.7974 10.7892 95.1049 10.7892C93.6335 10.7892 92.6164 12 92.6164 13.5676C92.6164 15.1459 93.6335 16.3459 95.1049 16.3459ZM95.462 14.8432C94.7587 14.8432 94.2285 14.3459 94.2285 13.5676C94.2285 12.8 94.7587 12.2919 95.462 12.2919C96.1869 12.2919 96.6846 12.8 96.6846 13.5568C96.6846 14.3351 96.1869 14.8432 95.462 14.8432ZM101.748 16.3459C102.506 16.3459 103.047 16.0432 103.404 15.5351L103.425 16.0541C103.425 16.1513 103.501 16.2162 103.598 16.2162H104.789C104.886 16.2162 104.972 16.1513 104.972 16.0541V11.0811C104.972 10.9838 104.897 10.9189 104.799 10.9189H103.598C103.501 10.9189 103.425 10.9838 103.425 11.0811L103.404 11.5892C103.057 11.0919 102.527 10.7892 101.748 10.7892C100.277 10.7892 99.2597 12 99.2597 13.5676C99.2597 15.1459 100.277 16.3459 101.748 16.3459ZM102.105 14.8432C101.402 14.8432 100.872 14.3459 100.872 13.5676C100.872 12.8 101.402 12.2919 102.105 12.2919C102.83 12.2919 103.328 12.8 103.328 13.5568C103.328 14.3351 102.83 14.8432 102.105 14.8432ZM108.554 18.2703C108.64 18.2703 108.716 18.227 108.749 18.1405L111.562 11.1027C111.605 10.9838 111.54 10.9189 111.421 10.9189H110.079C109.993 10.9189 109.906 10.9622 109.874 11.0486L108.705 14.2919L107.537 11.0486C107.504 10.9622 107.418 10.9189 107.331 10.9189H105.99C105.87 10.9189 105.806 10.9838 105.849 11.1027L107.905 16.227L107.126 18.0757C107.071 18.2054 107.136 18.2703 107.266 18.2703H108.554Z" fill="#8B8D98"/>
</g>
<defs>
<clipPath id="clip0_17578_6860">
<rect width="132" height="40" fill="white"/>
</clipPath>
</defs>
</svg>
