<svg xmlns="http://www.w3.org/2000/svg" width="326" height="409" viewBox="0 0 326 409" fill="none">
  <mask id="path-1-inside-1_13292_10107" fill="white">
    <path d="M365.461 -6.87781C369.297 14.878 354.771 35.6243 333.015 39.4604C311.259 43.2965 290.513 28.7698 286.677 7.01404C282.841 -14.7417 297.367 -35.4881 319.123 -39.3242C340.879 -43.1603 361.625 -28.6336 365.461 -6.87781Z"/>
    <path d="M378.691 -19.085C389.269 9.97778 374.284 42.1129 345.221 52.6909C316.158 63.2689 284.023 48.284 273.445 19.2213C262.867 -9.84152 277.852 -41.9767 306.915 -52.5547C335.978 -63.1326 368.113 -48.1478 378.691 -19.085Z"/>
    <path d="M388.423 -35.9319C408.305 -1.49478 396.506 42.5397 362.069 62.422C327.632 82.3042 283.597 70.5052 263.715 36.0681C243.833 1.63107 255.632 -42.4034 290.069 -62.2857C324.506 -82.1679 368.54 -70.3689 388.423 -35.9319Z"/>
    <path d="M393.48 -56.4972C424.72 -19.2666 419.864 36.2399 382.634 67.48C345.403 98.7202 289.897 93.864 258.656 56.6334C227.416 19.4029 232.272 -36.1036 269.503 -67.3438C306.734 -98.584 362.24 -93.7278 393.48 -56.4972Z"/>
    <path d="M392.918 -79.6005C436.918 -42.6803 442.657 22.9183 405.737 66.9181C368.817 110.918 303.218 116.657 259.219 79.7368C215.219 42.8166 209.48 -22.782 246.4 -66.7818C283.32 -110.782 348.919 -116.521 392.918 -79.6005Z"/>
    <path d="M386.069 -103.855C443.464 -70.7178 463.129 2.673 429.992 60.0681C396.855 117.463 323.464 137.128 266.069 103.991C208.674 70.8541 189.009 -2.53677 222.146 -59.9319C255.283 -117.327 328.674 -136.992 386.069 -103.855Z"/>
    <path d="M372.584 -127.73C443.165 -102.041 479.557 -23.9981 453.867 46.5829C428.178 117.164 350.135 153.556 279.554 127.866C208.973 102.177 172.581 24.1344 198.271 -46.4466C223.96 -117.028 302.003 -153.419 372.584 -127.73Z"/>
    <path d="M352.463 -149.623C435.135 -135.045 490.337 -56.2093 475.76 26.4627C461.182 109.135 382.346 164.336 299.674 149.759C217.002 135.182 161.801 56.3456 176.378 -26.3264C190.955 -108.998 269.792 -164.2 352.463 -149.623Z"/>
    <path d="M326.069 -167.932C418.852 -167.932 494.069 -92.7157 494.069 0.0681458C494.069 92.852 418.852 168.068 326.069 168.068C233.285 168.068 158.069 92.852 158.069 0.0681458C158.069 -92.7157 233.285 -167.932 326.069 -167.932Z"/>
    <path d="M294.118 -181.137C394.194 -198.783 489.628 -131.96 507.274 -31.8831C524.92 68.1934 458.097 163.627 358.02 181.273C257.944 198.919 162.511 132.096 144.864 32.0194C127.218 -68.0572 194.041 -163.49 294.118 -181.137Z"/>
    <path d="M257.665 -187.87C361.46 -225.649 476.229 -172.131 514.007 -68.3359C551.786 35.4597 498.268 150.228 394.473 188.007C290.677 225.785 175.909 172.268 138.13 68.4721C100.352 -35.3234 153.869 -150.092 257.665 -187.87Z"/>
    <path d="M218.069 -186.993C321.38 -246.64 453.483 -211.243 513.13 -107.932C572.777 -4.62067 537.38 127.483 434.069 187.13C330.757 246.776 198.654 211.379 139.007 108.068C79.3603 4.7569 114.757 -127.347 218.069 -186.993Z"/>
    <path d="M176.942 -177.654C275.095 -260.015 421.43 -247.212 503.791 -149.059C586.151 -50.9052 573.349 95.4301 475.195 177.79C377.042 260.151 230.707 247.348 148.346 149.195C65.9857 51.0416 78.7884 -95.2937 176.942 -177.654Z"/>
    <path d="M136.089 -159.343C224.13 -264.266 380.557 -277.951 485.48 -189.911C590.402 -101.87 604.088 54.5569 516.047 159.479C428.007 264.402 271.579 278.088 166.657 190.047C61.7344 102.007 48.0488 -54.4207 136.089 -159.343Z"/>
    <path d="M97.438 -131.932C170.34 -258.201 331.799 -301.464 458.069 -228.563C584.338 -155.661 627.601 5.79886 554.699 132.068C481.798 258.337 320.338 301.6 194.069 228.699C67.7995 155.797 24.5365 -5.66263 97.438 -131.932Z"/>
    <path d="M62.955 -95.6975C115.845 -241.011 276.521 -315.936 421.835 -263.046C567.148 -210.156 642.073 -49.48 589.183 95.8338C536.293 241.148 375.617 316.072 230.303 263.182C84.9895 210.292 10.0651 49.6163 62.955 -95.6975Z"/>
    <path d="M34.5658 -51.3317C62.9531 -212.324 216.476 -319.822 377.469 -291.435C538.461 -263.048 645.959 -109.525 617.572 51.468C589.185 212.461 435.662 319.959 274.669 291.571C113.676 263.184 6.1784 109.661 34.5658 -51.3317Z"/>
    <path d="M14.0686 0.0681458C14.0686 -172.245 153.756 -311.932 326.069 -311.932C498.381 -311.932 638.069 -172.245 638.069 0.0681458C638.069 172.381 498.381 312.068 326.069 312.068C153.756 312.068 14.0686 172.381 14.0686 0.0681458Z"/>
    <path d="M3.0517 57.0247C-28.4046 -121.373 90.7147 -291.493 269.112 -322.949C447.509 -354.405 617.629 -235.286 649.086 -56.8885C680.542 121.509 561.423 291.629 383.025 323.085C204.628 354.541 34.508 235.422 3.0517 57.0247Z"/>
    <path d="M2.81432 117.723C-62.1647 -60.8054 29.8852 -258.207 208.414 -323.186C386.942 -388.165 584.344 -296.115 649.323 -117.587C714.302 60.9416 622.252 258.343 443.724 323.322C265.195 388.301 67.7933 296.251 2.81432 117.723Z"/>
    <path d="M14.2998 180.068C-85.1114 7.88281 -26.1164 -212.29 146.069 -311.701C318.254 -411.112 538.427 -352.117 637.838 -179.932C737.249 -7.74649 678.254 212.426 506.069 311.837C333.884 411.249 113.711 352.254 14.2998 180.068Z"/>
    <path d="M38.0357 241.756C-95.445 82.6802 -74.6958 -154.484 84.3803 -287.965C243.456 -421.445 480.62 -400.696 614.101 -241.62C747.582 -82.5439 726.833 154.62 567.757 288.101C408.681 421.582 171.516 400.832 38.0357 241.756Z"/>
    <path d="M74.0954 300.358C-91.7499 161.197 -113.382 -86.0593 25.7787 -251.905C164.939 -417.75 412.196 -439.382 578.041 -300.221C743.886 -161.061 765.518 86.1956 626.358 252.041C487.197 417.886 239.941 439.518 74.0954 300.358Z"/>
    <path d="M122.068 353.406C-73.0753 240.74 -139.936 -8.78851 -27.2702 -203.932C85.3959 -399.075 334.925 -465.936 530.068 -353.27C725.211 -240.604 792.073 8.92474 679.406 204.068C566.74 399.211 317.211 466.073 122.068 353.406Z"/>
    <path d="M350 0.0681458C350 13.323 339.255 24.0681 326 24.0681C312.745 24.0681 302 13.323 302 0.0681458C302 -13.1867 312.745 -23.9319 326 -23.9319C339.255 -23.9319 350 -13.1867 350 0.0681458Z"/>
  </mask>
  <path d="M365.461 -6.87781C369.297 14.878 354.771 35.6243 333.015 39.4604C311.259 43.2965 290.513 28.7698 286.677 7.01404C282.841 -14.7417 297.367 -35.4881 319.123 -39.3242C340.879 -43.1603 361.625 -28.6336 365.461 -6.87781Z" stroke="url(#paint0_radial_13292_10107)" mask="url(#path-1-inside-1_13292_10107)"/>
  <path d="M378.691 -19.085C389.269 9.97778 374.284 42.1129 345.221 52.6909C316.158 63.2689 284.023 48.284 273.445 19.2213C262.867 -9.84152 277.852 -41.9767 306.915 -52.5547C335.978 -63.1326 368.113 -48.1478 378.691 -19.085Z" stroke="url(#paint1_radial_13292_10107)" mask="url(#path-1-inside-1_13292_10107)"/>
  <path d="M388.423 -35.9319C408.305 -1.49478 396.506 42.5397 362.069 62.422C327.632 82.3042 283.597 70.5052 263.715 36.0681C243.833 1.63107 255.632 -42.4034 290.069 -62.2857C324.506 -82.1679 368.54 -70.3689 388.423 -35.9319Z" stroke="url(#paint2_radial_13292_10107)" mask="url(#path-1-inside-1_13292_10107)"/>
  <path d="M393.48 -56.4972C424.72 -19.2666 419.864 36.2399 382.634 67.48C345.403 98.7202 289.897 93.864 258.656 56.6334C227.416 19.4029 232.272 -36.1036 269.503 -67.3438C306.734 -98.584 362.24 -93.7278 393.48 -56.4972Z" stroke="url(#paint3_radial_13292_10107)" mask="url(#path-1-inside-1_13292_10107)"/>
  <path d="M392.918 -79.6005C436.918 -42.6803 442.657 22.9183 405.737 66.9181C368.817 110.918 303.218 116.657 259.219 79.7368C215.219 42.8166 209.48 -22.782 246.4 -66.7818C283.32 -110.782 348.919 -116.521 392.918 -79.6005Z" stroke="url(#paint4_radial_13292_10107)" mask="url(#path-1-inside-1_13292_10107)"/>
  <path d="M386.069 -103.855C443.464 -70.7178 463.129 2.673 429.992 60.0681C396.855 117.463 323.464 137.128 266.069 103.991C208.674 70.8541 189.009 -2.53677 222.146 -59.9319C255.283 -117.327 328.674 -136.992 386.069 -103.855Z" stroke="url(#paint5_radial_13292_10107)" mask="url(#path-1-inside-1_13292_10107)"/>
  <path d="M372.584 -127.73C443.165 -102.041 479.557 -23.9981 453.867 46.5829C428.178 117.164 350.135 153.556 279.554 127.866C208.973 102.177 172.581 24.1344 198.271 -46.4466C223.96 -117.028 302.003 -153.419 372.584 -127.73Z" stroke="url(#paint6_radial_13292_10107)" mask="url(#path-1-inside-1_13292_10107)"/>
  <path d="M352.463 -149.623C435.135 -135.045 490.337 -56.2093 475.76 26.4627C461.182 109.135 382.346 164.336 299.674 149.759C217.002 135.182 161.801 56.3456 176.378 -26.3264C190.955 -108.998 269.792 -164.2 352.463 -149.623Z" stroke="url(#paint7_radial_13292_10107)" mask="url(#path-1-inside-1_13292_10107)"/>
  <path d="M326.069 -167.932C418.852 -167.932 494.069 -92.7157 494.069 0.0681458C494.069 92.852 418.852 168.068 326.069 168.068C233.285 168.068 158.069 92.852 158.069 0.0681458C158.069 -92.7157 233.285 -167.932 326.069 -167.932Z" stroke="url(#paint8_radial_13292_10107)" mask="url(#path-1-inside-1_13292_10107)"/>
  <path d="M294.118 -181.137C394.194 -198.783 489.628 -131.96 507.274 -31.8831C524.92 68.1934 458.097 163.627 358.02 181.273C257.944 198.919 162.511 132.096 144.864 32.0194C127.218 -68.0572 194.041 -163.49 294.118 -181.137Z" stroke="url(#paint9_radial_13292_10107)" mask="url(#path-1-inside-1_13292_10107)"/>
  <path d="M257.665 -187.87C361.46 -225.649 476.229 -172.131 514.007 -68.3359C551.786 35.4597 498.268 150.228 394.473 188.007C290.677 225.785 175.909 172.268 138.13 68.4721C100.352 -35.3234 153.869 -150.092 257.665 -187.87Z" stroke="url(#paint10_radial_13292_10107)" mask="url(#path-1-inside-1_13292_10107)"/>
  <path d="M218.069 -186.993C321.38 -246.64 453.483 -211.243 513.13 -107.932C572.777 -4.62067 537.38 127.483 434.069 187.13C330.757 246.776 198.654 211.379 139.007 108.068C79.3603 4.7569 114.757 -127.347 218.069 -186.993Z" stroke="url(#paint11_radial_13292_10107)" mask="url(#path-1-inside-1_13292_10107)"/>
  <path d="M176.942 -177.654C275.095 -260.015 421.43 -247.212 503.791 -149.059C586.151 -50.9052 573.349 95.4301 475.195 177.79C377.042 260.151 230.707 247.348 148.346 149.195C65.9857 51.0416 78.7884 -95.2937 176.942 -177.654Z" stroke="url(#paint12_radial_13292_10107)" mask="url(#path-1-inside-1_13292_10107)"/>
  <path d="M136.089 -159.343C224.13 -264.266 380.557 -277.951 485.48 -189.911C590.402 -101.87 604.088 54.5569 516.047 159.479C428.007 264.402 271.579 278.088 166.657 190.047C61.7344 102.007 48.0488 -54.4207 136.089 -159.343Z" stroke="url(#paint13_radial_13292_10107)" mask="url(#path-1-inside-1_13292_10107)"/>
  <path d="M97.438 -131.932C170.34 -258.201 331.799 -301.464 458.069 -228.563C584.338 -155.661 627.601 5.79886 554.699 132.068C481.798 258.337 320.338 301.6 194.069 228.699C67.7995 155.797 24.5365 -5.66263 97.438 -131.932Z" stroke="url(#paint14_radial_13292_10107)" mask="url(#path-1-inside-1_13292_10107)"/>
  <path d="M62.955 -95.6975C115.845 -241.011 276.521 -315.936 421.835 -263.046C567.148 -210.156 642.073 -49.48 589.183 95.8338C536.293 241.148 375.617 316.072 230.303 263.182C84.9895 210.292 10.0651 49.6163 62.955 -95.6975Z" stroke="url(#paint15_radial_13292_10107)" mask="url(#path-1-inside-1_13292_10107)"/>
  <path d="M34.5658 -51.3317C62.9531 -212.324 216.476 -319.822 377.469 -291.435C538.461 -263.048 645.959 -109.525 617.572 51.468C589.185 212.461 435.662 319.959 274.669 291.571C113.676 263.184 6.1784 109.661 34.5658 -51.3317Z" stroke="url(#paint16_radial_13292_10107)" mask="url(#path-1-inside-1_13292_10107)"/>
  <path d="M14.0686 0.0681458C14.0686 -172.245 153.756 -311.932 326.069 -311.932C498.381 -311.932 638.069 -172.245 638.069 0.0681458C638.069 172.381 498.381 312.068 326.069 312.068C153.756 312.068 14.0686 172.381 14.0686 0.0681458Z" stroke="url(#paint17_radial_13292_10107)" mask="url(#path-1-inside-1_13292_10107)"/>
  <path d="M3.0517 57.0247C-28.4046 -121.373 90.7147 -291.493 269.112 -322.949C447.509 -354.405 617.629 -235.286 649.086 -56.8885C680.542 121.509 561.423 291.629 383.025 323.085C204.628 354.541 34.508 235.422 3.0517 57.0247Z" stroke="url(#paint18_radial_13292_10107)" mask="url(#path-1-inside-1_13292_10107)"/>
  <path d="M2.81432 117.723C-62.1647 -60.8054 29.8852 -258.207 208.414 -323.186C386.942 -388.165 584.344 -296.115 649.323 -117.587C714.302 60.9416 622.252 258.343 443.724 323.322C265.195 388.301 67.7933 296.251 2.81432 117.723Z" stroke="url(#paint19_radial_13292_10107)" mask="url(#path-1-inside-1_13292_10107)"/>
  <path d="M14.2998 180.068C-85.1114 7.88281 -26.1164 -212.29 146.069 -311.701C318.254 -411.112 538.427 -352.117 637.838 -179.932C737.249 -7.74649 678.254 212.426 506.069 311.837C333.884 411.249 113.711 352.254 14.2998 180.068Z" stroke="url(#paint20_radial_13292_10107)" mask="url(#path-1-inside-1_13292_10107)"/>
  <path d="M38.0357 241.756C-95.445 82.6802 -74.6958 -154.484 84.3803 -287.965C243.456 -421.445 480.62 -400.696 614.101 -241.62C747.582 -82.5439 726.833 154.62 567.757 288.101C408.681 421.582 171.516 400.832 38.0357 241.756Z" stroke="url(#paint21_radial_13292_10107)" mask="url(#path-1-inside-1_13292_10107)"/>
  <path d="M74.0954 300.358C-91.7499 161.197 -113.382 -86.0593 25.7787 -251.905C164.939 -417.75 412.196 -439.382 578.041 -300.221C743.886 -161.061 765.518 86.1956 626.358 252.041C487.197 417.886 239.941 439.518 74.0954 300.358Z" stroke="url(#paint22_radial_13292_10107)" mask="url(#path-1-inside-1_13292_10107)"/>
  <path d="M122.068 353.406C-73.0753 240.74 -139.936 -8.78851 -27.2702 -203.932C85.3959 -399.075 334.925 -465.936 530.068 -353.27C725.211 -240.604 792.073 8.92474 679.406 204.068C566.74 399.211 317.211 466.073 122.068 353.406Z" stroke="url(#paint23_radial_13292_10107)" mask="url(#path-1-inside-1_13292_10107)"/>
  <path d="M350 0.0681458C350 13.323 339.255 24.0681 326 24.0681C312.745 24.0681 302 13.323 302 0.0681458C302 -13.1867 312.745 -23.9319 326 -23.9319C339.255 -23.9319 350 -13.1867 350 0.0681458Z" stroke="url(#paint24_radial_13292_10107)" mask="url(#path-1-inside-1_13292_10107)"/>
  <defs>
    <radialGradient id="paint0_radial_13292_10107" cx="0" cy="0" r="1" gradientUnits="userSpaceOnUse" gradientTransform="translate(326.068 0.0681152) rotate(90) scale(408.068)">
      <stop stop-color="#E8E8EC"/>
      <stop offset="1" stop-color="#FCFCFD" stop-opacity="0"/>
    </radialGradient>
    <radialGradient id="paint1_radial_13292_10107" cx="0" cy="0" r="1" gradientUnits="userSpaceOnUse" gradientTransform="translate(326.068 0.0681152) rotate(90) scale(408.068)">
      <stop stop-color="#E8E8EC"/>
      <stop offset="1" stop-color="#FCFCFD" stop-opacity="0"/>
    </radialGradient>
    <radialGradient id="paint2_radial_13292_10107" cx="0" cy="0" r="1" gradientUnits="userSpaceOnUse" gradientTransform="translate(326.068 0.0681152) rotate(90) scale(408.068)">
      <stop stop-color="#E8E8EC"/>
      <stop offset="1" stop-color="#FCFCFD" stop-opacity="0"/>
    </radialGradient>
    <radialGradient id="paint3_radial_13292_10107" cx="0" cy="0" r="1" gradientUnits="userSpaceOnUse" gradientTransform="translate(326.068 0.0681152) rotate(90) scale(408.068)">
      <stop stop-color="#E8E8EC"/>
      <stop offset="1" stop-color="#FCFCFD" stop-opacity="0"/>
    </radialGradient>
    <radialGradient id="paint4_radial_13292_10107" cx="0" cy="0" r="1" gradientUnits="userSpaceOnUse" gradientTransform="translate(326.068 0.0681152) rotate(90) scale(408.068)">
      <stop stop-color="#E8E8EC"/>
      <stop offset="1" stop-color="#FCFCFD" stop-opacity="0"/>
    </radialGradient>
    <radialGradient id="paint5_radial_13292_10107" cx="0" cy="0" r="1" gradientUnits="userSpaceOnUse" gradientTransform="translate(326.068 0.0681152) rotate(90) scale(408.068)">
      <stop stop-color="#E8E8EC"/>
      <stop offset="1" stop-color="#FCFCFD" stop-opacity="0"/>
    </radialGradient>
    <radialGradient id="paint6_radial_13292_10107" cx="0" cy="0" r="1" gradientUnits="userSpaceOnUse" gradientTransform="translate(326.068 0.0681152) rotate(90) scale(408.068)">
      <stop stop-color="#E8E8EC"/>
      <stop offset="1" stop-color="#FCFCFD" stop-opacity="0"/>
    </radialGradient>
    <radialGradient id="paint7_radial_13292_10107" cx="0" cy="0" r="1" gradientUnits="userSpaceOnUse" gradientTransform="translate(326.068 0.0681152) rotate(90) scale(408.068)">
      <stop stop-color="#E8E8EC"/>
      <stop offset="1" stop-color="#FCFCFD" stop-opacity="0"/>
    </radialGradient>
    <radialGradient id="paint8_radial_13292_10107" cx="0" cy="0" r="1" gradientUnits="userSpaceOnUse" gradientTransform="translate(326.068 0.0681152) rotate(90) scale(408.068)">
      <stop stop-color="#E8E8EC"/>
      <stop offset="1" stop-color="#FCFCFD" stop-opacity="0"/>
    </radialGradient>
    <radialGradient id="paint9_radial_13292_10107" cx="0" cy="0" r="1" gradientUnits="userSpaceOnUse" gradientTransform="translate(326.068 0.0681152) rotate(90) scale(408.068)">
      <stop stop-color="#E8E8EC"/>
      <stop offset="1" stop-color="#FCFCFD" stop-opacity="0"/>
    </radialGradient>
    <radialGradient id="paint10_radial_13292_10107" cx="0" cy="0" r="1" gradientUnits="userSpaceOnUse" gradientTransform="translate(326.068 0.0681152) rotate(90) scale(408.068)">
      <stop stop-color="#E8E8EC"/>
      <stop offset="1" stop-color="#FCFCFD" stop-opacity="0"/>
    </radialGradient>
    <radialGradient id="paint11_radial_13292_10107" cx="0" cy="0" r="1" gradientUnits="userSpaceOnUse" gradientTransform="translate(326.068 0.0681152) rotate(90) scale(408.068)">
      <stop stop-color="#E8E8EC"/>
      <stop offset="1" stop-color="#FCFCFD" stop-opacity="0"/>
    </radialGradient>
    <radialGradient id="paint12_radial_13292_10107" cx="0" cy="0" r="1" gradientUnits="userSpaceOnUse" gradientTransform="translate(326.068 0.0681152) rotate(90) scale(408.068)">
      <stop stop-color="#E8E8EC"/>
      <stop offset="1" stop-color="#FCFCFD" stop-opacity="0"/>
    </radialGradient>
    <radialGradient id="paint13_radial_13292_10107" cx="0" cy="0" r="1" gradientUnits="userSpaceOnUse" gradientTransform="translate(326.068 0.0681152) rotate(90) scale(408.068)">
      <stop stop-color="#E8E8EC"/>
      <stop offset="1" stop-color="#FCFCFD" stop-opacity="0"/>
    </radialGradient>
    <radialGradient id="paint14_radial_13292_10107" cx="0" cy="0" r="1" gradientUnits="userSpaceOnUse" gradientTransform="translate(326.068 0.0681152) rotate(90) scale(408.068)">
      <stop stop-color="#E8E8EC"/>
      <stop offset="1" stop-color="#FCFCFD" stop-opacity="0"/>
    </radialGradient>
    <radialGradient id="paint15_radial_13292_10107" cx="0" cy="0" r="1" gradientUnits="userSpaceOnUse" gradientTransform="translate(326.068 0.0681152) rotate(90) scale(408.068)">
      <stop stop-color="#E8E8EC"/>
      <stop offset="1" stop-color="#FCFCFD" stop-opacity="0"/>
    </radialGradient>
    <radialGradient id="paint16_radial_13292_10107" cx="0" cy="0" r="1" gradientUnits="userSpaceOnUse" gradientTransform="translate(326.068 0.0681152) rotate(90) scale(408.068)">
      <stop stop-color="#E8E8EC"/>
      <stop offset="1" stop-color="#FCFCFD" stop-opacity="0"/>
    </radialGradient>
    <radialGradient id="paint17_radial_13292_10107" cx="0" cy="0" r="1" gradientUnits="userSpaceOnUse" gradientTransform="translate(326.068 0.0681152) rotate(90) scale(408.068)">
      <stop stop-color="#E8E8EC"/>
      <stop offset="1" stop-color="#FCFCFD" stop-opacity="0"/>
    </radialGradient>
    <radialGradient id="paint18_radial_13292_10107" cx="0" cy="0" r="1" gradientUnits="userSpaceOnUse" gradientTransform="translate(326.068 0.0681152) rotate(90) scale(408.068)">
      <stop stop-color="#E8E8EC"/>
      <stop offset="1" stop-color="#FCFCFD" stop-opacity="0"/>
    </radialGradient>
    <radialGradient id="paint19_radial_13292_10107" cx="0" cy="0" r="1" gradientUnits="userSpaceOnUse" gradientTransform="translate(326.068 0.0681152) rotate(90) scale(408.068)">
      <stop stop-color="#E8E8EC"/>
      <stop offset="1" stop-color="#FCFCFD" stop-opacity="0"/>
    </radialGradient>
    <radialGradient id="paint20_radial_13292_10107" cx="0" cy="0" r="1" gradientUnits="userSpaceOnUse" gradientTransform="translate(326.068 0.0681152) rotate(90) scale(408.068)">
      <stop stop-color="#E8E8EC"/>
      <stop offset="1" stop-color="#FCFCFD" stop-opacity="0"/>
    </radialGradient>
    <radialGradient id="paint21_radial_13292_10107" cx="0" cy="0" r="1" gradientUnits="userSpaceOnUse" gradientTransform="translate(326.068 0.0681152) rotate(90) scale(408.068)">
      <stop stop-color="#E8E8EC"/>
      <stop offset="1" stop-color="#FCFCFD" stop-opacity="0"/>
    </radialGradient>
    <radialGradient id="paint22_radial_13292_10107" cx="0" cy="0" r="1" gradientUnits="userSpaceOnUse" gradientTransform="translate(326.068 0.0681152) rotate(90) scale(408.068)">
      <stop stop-color="#E8E8EC"/>
      <stop offset="1" stop-color="#FCFCFD" stop-opacity="0"/>
    </radialGradient>
    <radialGradient id="paint23_radial_13292_10107" cx="0" cy="0" r="1" gradientUnits="userSpaceOnUse" gradientTransform="translate(326.068 0.0681152) rotate(90) scale(408.068)">
      <stop stop-color="#E8E8EC"/>
      <stop offset="1" stop-color="#FCFCFD" stop-opacity="0"/>
    </radialGradient>
    <radialGradient id="paint24_radial_13292_10107" cx="0" cy="0" r="1" gradientUnits="userSpaceOnUse" gradientTransform="translate(326.068 0.0681152) rotate(90) scale(408.068)">
      <stop stop-color="#E8E8EC"/>
      <stop offset="1" stop-color="#FCFCFD" stop-opacity="0"/>
    </radialGradient>
  </defs>
</svg>