<svg xmlns="http://www.w3.org/2000/svg" width="40" height="40" fill="none" viewBox="0 0 40 40"><g fill="#151618" clip-path="url(#a)"><path d="m10.656 36.148-8.642-8.65L0 29.515 10.478 40l7.925-7.932-1.835-1.837zm7.703-25.007-2.016 2.017 6.139 6.141c1.142 1.146 1.222 1.9 1.193 2.749-.014.936-.586 1.917-1.435 2.777-.86.858-1.826 1.407-2.76 1.423-.85.03-1.582-.07-2.734-1.216l-6.133-6.137-2.02 2.019 5.983 5.987c1.953 1.954 3.427 2.26 5.002 2.171 1.445-.086 3.04-.893 4.52-2.369 1.481-1.475 2.303-3.098 2.387-4.544.088-1.575-.195-3.077-2.148-5.027zm13.365-2.858V0h-2.586v8.283h-8.277v2.588h8.277v8.284h2.586V10.87h8.277V8.283z"/></g><defs><clipPath id="a"><path fill="#fff" d="M0 0h40v40H0z"/></clipPath></defs></svg>