<svg xmlns="http://www.w3.org/2000/svg" width="99" height="20" fill="none" viewBox="0 0 99 20"><g clip-path="url(#a)"><path fill="#67707e" d="M98.307 5.261H95.4l-3.482 3.86v-3.86h-2.44l.012 9.502h2.428v-3.61l3.302 3.61h3.087l-4.45-4.691zM85.543 9.17l-2.226-.25c-1.303-.142-1.626-.463-1.626-.903 0-.487.67-.926 1.974-.926 1.256 0 1.913.464 2.033 1.164h2.393C87.97 6.247 86.27 5 83.796 5c-2.943 0-4.426 1.164-4.426 3.218 0 1.675.981 2.46 3.014 2.673l2.261.237c.862.095 1.257.428 1.257.855 0 .487-.575.927-1.963.927-1.602 0-2.248-.404-2.356-1.212h-2.345C79.346 13.884 80.781 15 83.856 15c2.811 0 4.379-1.223 4.379-3.064 0-1.604-.933-2.566-2.692-2.767m-15.086 5.594h7.705v-2.055h-5.264v-1.722h4.234V8.92h-4.234V7.316h5.264V5.26h-7.705zm-5.74-9.503H60.24v9.502h4.475c3.433 0 4.378-1.27 4.378-4.823 0-3.337-.909-4.679-4.378-4.679m-.099 7.448h-1.94V7.316h1.94c1.531 0 1.986.416 1.986 2.624.003 2.02-.512 2.769-1.986 2.769M53.614 5c-3.481 0-5.288 2.126-5.288 4.988 0 2.874 1.806 5.012 5.288 5.012 3.493 0 5.3-2.138 5.3-5.012 0-2.862-1.807-4.988-5.3-4.988m0 7.862c-1.806 0-2.8-1.092-2.8-2.874 0-1.746.993-2.85 2.8-2.85 1.819 0 2.8 1.104 2.8 2.85 0 1.782-.982 2.874-2.8 2.874M39.33 7.316h3.086v7.447h2.44V7.316h3.075V5.26H39.33zm-3.552 3.812c0 1.235-.766 1.734-2.07 1.734-1.268 0-2.094-.522-2.094-1.734V5.261h-2.44v6.14c0 2.744 2.464 3.599 4.533 3.599 2.058 0 4.51-.855 4.51-3.599v-6.14h-2.44zM22.032 5.261l-3.673 9.502h2.524l.641-1.782h4.1l.63 1.782h2.608L25.145 5.26zm.219 5.7 1.34-3.723 1.319 3.725zM.2 14.764l8.57-5.292h4.445a.26.26 0 0 1 .24.16q.02.046.02.098a.22.22 0 0 1-.122.217l-4.21 2.505c-.273.163-.368.49-.368.733l-.005 1.58h5.35V5.586a.32.32 0 0 0-.213-.306.3.3 0 0 0-.13-.02H8.674L.125 10.53v4.232z"/></g><defs><clipPath id="a"><path fill="#fff" d="M0 0h98.75v20H0z"/></clipPath></defs></svg>