<svg xmlns="http://www.w3.org/2000/svg" width="32" height="32" fill="none" viewBox="0 0 32 32"><path fill="#67707e" fill-rule="evenodd" d="M0 0h32v32H0zm17.72 6.454h-3.236c-.084.012-.078.113-.072.216v4.818c-2.373-.504-4.584.269-5.682 1.367-2.165 2.166-1.945 7.029.792 8.559 2.125 1.188 5.096.867 8.199.36zM10.6 16.81c-.01 2.008 1.462 3.205 3.812 2.66v-5.32c-2.38-.725-3.802.741-3.812 2.66m12.37-6.977h-3.236v-3.38h3.237zm-.002 7.498c0-2.208 0-3.753.003-5.786h-3.228c0 .8-.002 1.723-.004 2.675-.002 1.012-.005 2.057-.005 3.021l.002.6c.005 1.697.01 3.379-.361 4.579-.43 1.389-1.421 1.99-2.514 2.654l-.363.223c.346.104.668.278.993.453.17.091.341.183.517.266q.125.059.299.148c.428.217 1.02.515 1.284.5.3-.02.81-.406 1.13-.65l.092-.07c.365-.275.802-.666 1.007-.935.922-1.205 1.003-3.117 1.105-5.513l.043-.96z" clip-rule="evenodd"/></svg>