<svg xmlns="http://www.w3.org/2000/svg" width="32" height="32" viewBox="0 0 32 32" fill="none">
  <g clip-path="url(#clip0_21119_9667)">
    <circle opacity="0.2" cx="29.7154" cy="2.28571" r="2.28571" fill="#67707E"/>
    <g opacity="0.4">
      <path d="M22.8566 2.28571C22.8566 3.54808 21.8332 4.57143 20.5709 4.57143C19.3085 4.57143 18.2852 3.54808 18.2852 2.28571C18.2852 1.02335 19.3085 0 20.5709 0C21.8332 0 22.8566 1.02335 22.8566 2.28571Z" fill="#67707E"/>
      <path d="M22.8566 11.4286C22.8566 12.6909 21.8332 13.7143 20.5709 13.7143C19.3085 13.7143 18.2852 12.6909 18.2852 11.4286C18.2852 10.1662 19.3085 9.14286 20.5709 9.14286C21.8332 9.14286 22.8566 10.1662 22.8566 11.4286Z" fill="#67707E"/>
    </g>
    <circle opacity="0.6" cx="11.4302" cy="2.28571" r="2.28571" fill="#67707E"/>
    <g opacity="0.8">
      <path d="M4.57143 2.28571C4.57143 3.54808 3.54808 4.57143 2.28571 4.57143C1.02335 4.57143 0 3.54808 0 2.28571C0 1.02335 1.02335 0 2.28571 0C3.54808 0 4.57143 1.02335 4.57143 2.28571Z" fill="#67707E"/>
      <path d="M4.57143 11.4286C4.57143 12.6909 3.54808 13.7143 2.28571 13.7143C1.02335 13.7143 0 12.6909 0 11.4286C0 10.1662 1.02335 9.14286 2.28571 9.14286C3.54808 9.14286 4.57143 10.1662 4.57143 11.4286Z" fill="#67707E"/>
    </g>
    <path d="M9.14286 11.4285C9.14286 10.1662 10.1662 9.14282 11.4286 9.14282C12.6909 9.14282 13.7143 10.1662 13.7143 11.4285V29.7143C13.7143 30.9766 12.6909 32 11.4286 32C10.1662 32 9.14286 30.9766 9.14286 29.7143V11.4285Z" fill="#67707E"/>
    <path d="M27.4286 11.4285C27.4286 10.1662 28.4519 9.14282 29.7143 9.14282C30.9767 9.14282 32 10.1662 32 11.4285V29.7143C32 30.9766 30.9767 32 29.7143 32C28.4519 32 27.4286 30.9766 27.4286 29.7143V11.4285Z" fill="#67707E"/>
    <path d="M18.2857 20.5714C18.2857 19.309 19.3091 18.2857 20.5714 18.2857C21.8338 18.2857 22.8571 19.309 22.8571 20.5714V29.7143C22.8571 30.9766 21.8338 32 20.5714 32C19.3091 32 18.2857 30.9766 18.2857 29.7143V20.5714Z" fill="#67707E"/>
    <path d="M0 20.5714C0 19.309 1.02335 18.2857 2.28571 18.2857C3.54808 18.2857 4.57143 19.309 4.57143 20.5714V29.7143C4.57143 30.9766 3.54808 32 2.28571 32C1.02335 32 0 30.9766 0 29.7143V20.5714Z" fill="#67707E"/>
  </g>
  <defs>
    <clipPath id="clip0_21119_9667">
      <rect width="32" height="32" fill="white"/>
    </clipPath>
  </defs>
</svg>