<svg xmlns="http://www.w3.org/2000/svg" width="32" height="32" viewBox="0 0 32 32" fill="none">
  <path d="M3 1.98095C3 0.914286 3.92571 0 5.00571 0H14.4171C15.4971 0 16.4229 0.914286 16.4229 1.98095V10.6667H5.00571C3.92571 10.6667 3 9.75238 3 8.68571V1.98095Z" fill="#67707E"/>
  <path d="M16.5 10.6667H27.9943C29.0743 10.6667 30 11.581 30 12.6476V19.3524C30 20.419 29.0743 21.3333 27.9943 21.3333H16.5V10.6667Z" fill="#67707E"/>
  <path d="M3 23.3143C3 22.2476 3.92571 21.3333 5.00571 21.3333H16.5V30.0191C16.5 31.0857 15.5743 32 14.4943 32H5.00571C3.92571 32 3 31.0857 3 30.0191V23.3143Z" fill="#67707E"/>
</svg>