<svg xmlns="http://www.w3.org/2000/svg" width="32" height="32" viewBox="0 0 32 32" fill="none">
  <path d="M21 1.5C21 1.10218 20.842 0.720644 20.5607 0.43934C20.2794 0.158035 19.8978 0 19.5 0L2.5 0C2.10218 0 1.72064 0.158035 1.43934 0.43934C1.15804 0.720644 1 1.10218 1 1.5L1 8.5C1 9.328 1.672 10 2.5 10H19.5C19.8978 10 20.2794 10.158 20.5607 10.4393C20.842 10.7206 21 11.1022 21 11.5V13.5C21 13.8978 20.842 14.2794 20.5607 14.5607C20.2794 14.842 19.8978 15 19.5 15H8.5C8.10218 15 7.72064 15.158 7.43934 15.4393C7.15804 15.7206 7 16.1022 7 16.5V23.5C7 24.328 7.672 25 8.5 25H19.5C19.8978 25 20.2794 25.158 20.5607 25.4393C20.842 25.7206 21 26.1022 21 26.5V30.5C21 31.33 21.672 32 22.5 32H29.5C29.8978 32 30.2794 31.842 30.5607 31.5607C30.842 31.2794 31 30.8978 31 30.5V23.5C31 23.1022 30.842 22.7206 30.5607 22.4393C30.2794 22.158 29.8978 22 29.5 22H22.5C22.1022 22 21.7206 21.842 21.4393 21.5607C21.158 21.2794 21 20.8978 21 20.5V18.5C21 18.1022 21.158 17.7206 21.4393 17.4393C21.7206 17.158 22.1022 17 22.5 17H29.5C29.8978 17 30.2794 16.842 30.5607 16.5607C30.842 16.2794 31 15.8978 31 15.5V8.5C31 8.10218 30.842 7.72064 30.5607 7.43934C30.2794 7.15804 29.8978 7 29.5 7H22.5C22.1022 7 21.7206 6.84196 21.4393 6.56066C21.158 6.27936 21 5.89782 21 5.5V1.5Z" fill="#67707E"/>
</svg>