<svg xmlns="http://www.w3.org/2000/svg" width="32" height="18" viewBox="0 0 32 18" fill="none">
  <g clip-path="url(#clip0_21119_9677)">
    <path opacity="0.5" d="M16.0503 11.0783L10.4591 8.04554L0.753678 2.78189C0.744819 2.77279 0.727101 2.77279 0.718242 2.77279C0.363866 2.60007 0.00063248 2.96371 0.133523 3.32735L5.07882 16.2701L5.07972 16.2728C5.08503 16.2855 5.08945 16.2983 5.09477 16.311C5.29766 16.7937 5.74063 17.0919 6.22257 17.2092C6.26332 17.2183 6.29248 17.2266 6.34141 17.2366C6.39011 17.2476 6.45824 17.2628 6.51671 17.2674C6.52645 17.2682 6.53531 17.2682 6.54505 17.2692H6.55214C6.55923 17.2701 6.56631 17.2701 6.5734 17.271H6.58315C6.58935 17.2719 6.59644 17.2719 6.60264 17.2719H6.61415C6.62124 17.2728 6.62833 17.2728 6.63542 17.2728C12.8985 17.9735 19.2171 17.9735 25.4802 17.2728C25.5555 17.2728 25.629 17.2692 25.6999 17.2619C25.7229 17.2592 25.7451 17.2565 25.7672 17.2537C25.7699 17.2529 25.7734 17.2529 25.7761 17.2519C25.7912 17.2501 25.8063 17.2474 25.8212 17.2447C25.8435 17.2419 25.8656 17.2374 25.8877 17.2328C25.932 17.2229 25.9522 17.2155 26.0123 17.1944C26.0724 17.1732 26.1722 17.1361 26.2347 17.1051C26.2971 17.0743 26.3405 17.0446 26.3927 17.011C26.4574 16.9692 26.5189 16.9263 26.5813 16.8785C26.6082 16.8573 26.6266 16.8438 26.6461 16.8247L26.6355 16.8182L16.0503 11.0783Z" fill="#67707E"/>
    <path d="M31.3624 2.78202H31.3535L21.6445 8.04566L27.0417 16.2939L31.9746 3.32747V3.30929C32.0986 2.92747 31.7176 2.58201 31.3624 2.78202Z" fill="#67707E"/>
    <path opacity="0.7" d="M16.5656 0.279353C16.3176 -0.0924666 15.7771 -0.0924666 15.5379 0.279353L10.457 8.04574L16.0482 11.0785L26.644 16.8248C26.7105 16.7579 26.7639 16.6928 26.8204 16.6239C26.9001 16.523 26.9745 16.4149 27.04 16.2939L21.643 8.04574L16.5656 0.279353Z" fill="#67707E"/>
  </g>
  <defs>
    <clipPath id="clip0_21119_9677">
      <rect width="32" height="18" fill="white"/>
    </clipPath>
  </defs>
</svg>