<svg xmlns="http://www.w3.org/2000/svg" width="32" height="32" fill="none" viewBox="0 0 32 32"><g clip-path="url(#clip0_20119_6352)"><path fill="#67707e" stroke="#67707e" d="M15.539.232V3.17h-2.63v.773h2.63V6.88h.928V3.943h2.626V3.17h-2.626V.232zm8.04 3.016-.003 2.164v2.164h-3.943v1.236h3.943v4.251h1.39l.015-2.11.027-2.1 1.953-.027 1.947-.014V7.576h-3.937V3.248zm-16.543.08v4.254H3.055v1.233h3.981v4.253h1.313V8.814h4.018V7.58H8.349V3.328zm8.115 7.027v4.79h-4.404v1.585h4.405v4.794h1.707V16.73h4.412v-1.584h-4.414v-4.79h-1.706Zm12.961 2.067v2.961h-2.683v1.081h2.683v3.015h1.183v-3.015H32v-1.08h-2.705v-2.96h-.563zm-25.481.174v2.9H0v.827h2.63v2.925h.89v-2.925h2.667v-.827H3.479v-2.9zm20.945 6.022v4.338h-4.021v1.236h4.021v4.29h1.43v-4.288h3.98v-1.238h-3.98v-4.338zm-16.617.01v4.328H3.016v1.238h3.943v4.252h1.468v-4.252h3.94v-1.238h-3.94v-4.329h-.734zm8.421 6.104.003 1.471v1.467h-2.628v1.082h2.628v3.016h1.237l.016-1.492.023-1.524h2.625V27.67h-2.667v-2.938z"/></g><defs><clipPath id="clip0_20119_6352"><path fill="#fff" d="M0 0h32v32H0z"/></clipPath></defs></svg>