<svg xmlns="http://www.w3.org/2000/svg" width="97" height="31" fill="none" viewBox="0 0 97 31"><g fill-rule="evenodd" clip-path="url(#a)" clip-rule="evenodd"><path fill="url(#b)" d="M13.52 8.852a.63.63 0 0 1-.464-.444 1.5 1.5 0 0 1 0-.712c.215-1.211.413-2.43.691-3.63a7.7 7.7 0 0 1 1.136-2.763A3.2 3.2 0 0 1 16.623.05c1.21-.306 1.711.887 1.294 1.9-.357.835-1.21 1.288-1.842 1.9-1.151 1.12-1.511 3.015-1.843 4.525a.61.61 0 0 1-.713.478"/><path fill="url(#c)" d="M8.741 6.584c.456-.17.94.205 1.305.418.384.204.811.309 1.244.302.32.014.643 0 .949.025 5.654.248 10.327 4.537 11.107 10.198.78 5.66-2.554 11.074-7.927 12.87-5.373 1.797-11.25-.535-13.974-5.544-2.72-5.01-1.51-11.268 2.88-14.875q.721-.587 1.52-1.064a11 11 0 0 0 1.82-1.113c.385-.342.62-1.045 1.076-1.217m6.079 3.03c-3.92.003-6.76 3.568-6.385 7.95.374 4.38 3.838 7.948 7.746 7.982s6.805-3.54 6.429-7.953c-.377-4.413-3.866-7.984-7.789-7.98zm.493.802a6.43 6.43 0 0 1 4.56 2.038 8.1 8.1 0 0 1 2.267 4.918 6.92 6.92 0 0 1-1.575 5.22v.021a5.4 5.4 0 0 1-3.875 1.837 6.37 6.37 0 0 1-4.647-1.955 8.07 8.07 0 0 1-2.357-4.957 6.92 6.92 0 0 1 1.57-5.288 5.37 5.37 0 0 1 3.883-1.832z"/><path fill="url(#d)" d="M3.237 2.895c.095-.325.279-.615.53-.837a1.145 1.145 0 0 1 1.609.155c.956 1.155.232 2.928.194 4.255a7.7 7.7 0 0 0 .787 3.266q.176.285.257.606a.76.76 0 0 1-.415.813c-.476.24-.783-.268-.977-.628a28 28 0 0 1-1.21-2.601 12.4 12.4 0 0 1-.853-2.8q-.042-.26-.07-.522a6 6 0 0 1-.034-.479c-.01-.417.052-.832.182-1.228"/><path fill="#000" d="M65.221 15.077c.436.733 1.617 2.197 4.28 2.711l.226-1.175a5.42 5.42 0 0 1-3.026-1.536h3.062v-1.166h-5.15v-.604h4.76v-1.113h-4.558v-.513h4.231v-1.085h-4.214v-.59h4.231V8.922h-4.231v-.589h4.559V7.22h-4.394c.265-.165.491-.385.664-.644.136-.218.21-.352.215-.365l-1.09-.597q-.189.336-.414.648a1.98 1.98 0 0 1-1.919.962h-1.372q.354-.473.655-.983l-1.09-.6a14.4 14.4 0 0 1-3.084 3.625l.796.958c.207-.176.415-.352.589-.527v2.444c0 .803.377 1.183 1.172 1.183h3.25v.602h-5.152v1.168h3.062a5.42 5.42 0 0 1-3.025 1.536l.225 1.175c2.664-.514 3.845-1.975 4.28-2.71h.61v2.831h1.243v-2.832zm-1.632-4.502H60.16v-.57h3.429zm0-2.229v.56H60.16v-.49l.06-.07zm-3.429 3.61v-.276h3.429v.531h-3.195c-.2-.021-.23-.05-.23-.255zm-17.92 3.975c.262-.72.298-2.339.298-3.85v-.543h-1.657l.336-5.146h-5.412v1.166h4.085l-.256 3.98h-2.118l.236-3.347h-1.19l-.323 4.513h5.053c0 1.494-.088 2.377-.22 2.737-.187.511-.51 1.085-1.753 1.085h-1.94v1.196h2.019c1.49.004 2.4-.565 2.842-1.79"/><path fill="#000" d="M35.667 16.7v-1.49h4.286v-1.253h-4.288v1.233h-1.242v1.222h-.987V14.32h.572a1.32 1.32 0 0 0 1.026-.391 1.35 1.35 0 0 0 .387-1.036V7.605H33.44V5.93h-1.243v1.674h-1.919v6.693h1.926v2.092h-1.951v1.31h4.41a.93.93 0 0 0 .728-.268.95.95 0 0 0 .276-.732m-1.488-7.878v4.113a.175.175 0 0 1-.174.175h-.568V8.826zm-2.657 4.273V8.826h.685v4.264zm51.805 2.58V6.242h-11.23v11.673h9.013c1.455 0 2.217-.795 2.217-2.238m-1.242 0a.92.92 0 0 1-.26.725.9.9 0 0 1-.717.262h-7.76V7.496h8.737z"/><path fill="#000" d="m74.049 13.68.413 1.176a10.55 10.55 0 0 0 4.593-3.414v2.371a.917.917 0 0 1-.942.884H77v1.196h1.242a1.96 1.96 0 0 0 1.474-.557c.393-.384.61-.916.599-1.468v-3.114h.9V9.559h-.9V8.274h-1.243v1.285h-4.808v1.196h3.838a9.9 9.9 0 0 1-4.053 2.924m-17.3 3.31a27 27 0 0 1-2.938-2.816q.638-.849 1.123-1.795c.83-1.649.913-3.41.913-5.072h-1.298c0 1.502-.058 3.088-.768 4.473q-.355.693-.804 1.33a11 11 0 0 1-.802-1.33c-.71-1.385-.768-2.97-.768-4.473H50.11c0 1.59.07 3.427.912 5.072q.485.945 1.123 1.795a25 25 0 0 1-2.523 2.46v-1.44h-1.244v1.222h-.987v-2.091h.568a1.32 1.32 0 0 0 1.026-.392 1.35 1.35 0 0 0 .388-1.036V7.605H47.39V5.93h-1.243v1.674h-1.926v6.693h1.926v2.092h-1.953v1.31h4.41a.96.96 0 0 0 .858-.418l.572.686a29 29 0 0 0 2.942-2.795 29 29 0 0 0 2.944 2.795zm-8.62-8.164v4.11a.175.175 0 0 1-.175.174h-.566V8.826zm-2.664 4.264V8.826h.683v4.264z"/><path fill="#000" d="m52.539 9.63 1.02-.13a31 31 0 0 0-.27-3.652l-1.244.18v.138q.345 1.718.494 3.464m41.638 10.882h-3.556v8.046q.348.075.702.07.352.002.7-.07v-2.603h2.205c1.657 0 2.772-1.079 2.772-2.753s-1.102-2.69-2.823-2.69m-.232 4.185h-1.914v-2.93h1.923c1.202 0 1.72.42 1.72 1.473s-.655 1.456-1.729 1.456zm-23.723 1.054c-.413-.335-.787-.418-.778-.482.008-.062.208-.038.555-.146a2.23 2.23 0 0 0 1.725-2.213c0-1.896-1.298-2.41-3.176-2.41h-3.455v8.058q.345.075.695.07.352.002.696-.07v-3.072h.896a2.36 2.36 0 0 1 1.462.348c.422.36.777.795 1.05 1.28.228.356.791 1.431.791 1.431q.41.075.83.07a2.7 2.7 0 0 0 .794-.108s-.83-1.36-1.198-1.823a5.6 5.6 0 0 0-.887-.933m-1.893-1.449H66.5v-2.615h2.072c1.202 0 1.762.24 1.762 1.226 0 .988-.804 1.39-2.006 1.39m19.276-3.79v4.782c0 1.297-.759 2.117-2.014 2.117-1.256 0-2.015-.837-2.015-2.117v-4.782a3.2 3.2 0 0 0-.7-.07 3.4 3.4 0 0 0-.7.07v4.829c0 2.355 1.496 3.385 3.41 3.385s3.41-1.029 3.41-3.385v-4.829a3.4 3.4 0 0 0-1.392 0m-27.752 1.134a3.04 3.04 0 0 1 2.666 1.388l1.027-.765c-.923-1.283-1.926-1.912-3.804-1.912a4 4 0 0 0-2.914 1.219 4.1 4.1 0 0 0-1.147 2.965c0 2.432 1.698 4.185 3.804 4.185.544 0 1.082-.11 1.583-.323.321-.125.628-.286.912-.48.113-.077.24-.17.324-.134.082.032.074.104.074.191v.561q.26.075.53.07.276.003.534-.087v-4.292h-3.576v1.146h2.35c0 .862-.778 2.063-2.54 2.063-1.659 0-2.636-1.335-2.636-2.88a2.88 2.88 0 0 1 .802-2.05c.53-.55 1.254-.86 2.011-.865m17.002-1.289c-2.29 0-4.146 1.874-4.146 4.185s1.856 4.184 4.145 4.184c2.29 0 4.144-1.874 4.144-4.185s-1.854-4.184-4.143-4.184m0 6.97a2.76 2.76 0 0 1-2.552-1.718 2.81 2.81 0 0 1 .6-3.038 2.74 2.74 0 0 1 4.248.424c.303.458.464.996.464 1.546a2.78 2.78 0 0 1-.803 1.965 2.77 2.77 0 0 1-1.953.822zm-30.728-5.53h2.902v6.757q.366.075.742.07.375.002.74-.07v-6.757h2.902v-1.302h-7.286zm-2.553-1.306v5.859a51 51 0 0 0-4.077-5.858 3 3 0 0 0-.688-.07 3.2 3.2 0 0 0-.69.07v8.063q.34.075.685.07.348.002.683-.07v-6.25a76 76 0 0 1 4.063 6.247q.34.076.692.07.348.003.692-.07V20.49a3 3 0 0 0-.684-.07q-.342 0-.675.07m-6.478 8.004-.049-.175-.05-.172-.207-.69-.103-.347-.112-.344-.225-.686c-.073-.23-.156-.457-.235-.682l-.117-.338c-.036-.113-.083-.226-.123-.339l-.25-.679q-.514-1.35-1.101-2.669-.148-.33-.304-.656l-.115-.244h-1.878l-.12.255a52 52 0 0 0-1.392 3.326l-.25.679-.124.338-.12.34-.235.681-.225.687-.113.342-.107.344-.21.69a6 6 0 0 0-.104.347v.06q.351.07.708.07.36 0 .713-.07l.2-.679.098-.338.108-.335.278-.837a9 9 0 0 1 1.845-.068c.59.051 1.174.18 1.732.386.178.084.261.13.319.268l.079.247.104.334.098.338.196.679v.021q.35.076.708.07.356 0 .704-.07zm-3.916-3.239c-.528.01-1.052.09-1.558.24.025-.068.075-.248.096-.31l.236-.662c.327-.878.666-1.753 1.04-2.61l.062-.146c.038-.093.079-.117.12-.117.043 0 .08.024.113.098l.07.155c.373.839.718 1.73 1.044 2.613l.236.66.074.21a7.6 7.6 0 0 0-1.532-.13z"/></g><defs><linearGradient id="b" x1="174.867" x2="558.056" y1="846.899" y2="122.404" gradientUnits="userSpaceOnUse"><stop stop-color="#06f"/><stop offset=".2" stop-color="#1677ff"/><stop offset="1" stop-color="#04a6ff"/></linearGradient><linearGradient id="c" x1="141.431" x2="2196.49" y1="1620.39" y2="868.843" gradientUnits="userSpaceOnUse"><stop stop-color="#06f"/><stop offset=".2" stop-color="#1677ff"/><stop offset="1" stop-color="#04a6ff"/></linearGradient><linearGradient id="d" x1="203.152" x2="-28.582" y1="936.537" y2="67.183" gradientUnits="userSpaceOnUse"><stop stop-color="#06f"/><stop offset=".2" stop-color="#1677ff"/><stop offset="1" stop-color="#04a6ff"/></linearGradient><clipPath id="a"><path fill="#fff" d="M0 0h97v31H0z"/></clipPath></defs></svg>