<svg xmlns="http://www.w3.org/2000/svg" width="22" height="26" fill="none" viewBox="0 0 22 26"><path fill="#67707E" d="M20.494 8.87c-1.733 1.071-2.804 2.907-2.804 4.946 0 2.294 1.377 4.384 3.467 5.25a13.6 13.6 0 0 1-1.785 3.671c-1.121 1.58-2.294 3.212-4.027 3.212s-2.243-1.02-4.282-1.02C9.075 24.93 8.36 26 6.729 26s-2.753-1.478-4.027-3.314C1.02 20.137.051 17.18 0 14.071c0-5.047 3.263-7.75 6.525-7.75 1.734 0 3.161 1.122 4.232 1.122 1.02 0 2.65-1.172 4.588-1.172a6.09 6.09 0 0 1 5.15 2.6m-6.066-4.74c.866-1.02 1.325-2.295 1.376-3.62 0-.153 0-.357-.051-.51a5.86 5.86 0 0 0-3.824 1.988 5.56 5.56 0 0 0-1.427 3.518c0 .153 0 .306.05.459.103 0 .256.05.358.05 1.376-.101 2.65-.815 3.518-1.886"/></svg>