<svg xmlns="http://www.w3.org/2000/svg" width="92" height="17" fill="none" viewBox="0 0 92 17"><g clip-path="url(#a)"><path fill="#60646c" fill-rule="evenodd" d="M6.17 1.411c.545-.545.817-.817 1.141-.89a1.2 1.2 0 0 1 .5 0c.324.073.596.345 1.141.89l.896.897-.896.896c-.545.545-.817.818-1.142.89a1.14 1.14 0 0 1-.499 0c-.324-.072-.596-.345-1.141-.89l-.897-.896zM3.192 2.864c-.454.454-.681.681-.952.742a.95.95 0 0 1-.415 0c-.27-.06-.498-.288-.952-.742l-.556-.556.556-.557c.454-.454.681-.68.952-.741a.95.95 0 0 1 .415 0c.27.06.498.287.952.741l.556.557zM1.18 7.926c.409-.408.613-.613.856-.667a.9.9 0 0 1 .374 0c.244.054.448.259.857.667l.481.482-.481.482c-.41.408-.613.613-.857.667a.9.9 0 0 1-.374 0c-.243-.054-.447-.259-.856-.667l-.482-.482zm1.06 7.88c.27-.06.498-.287.952-.741l.556-.557-.556-.556c-.454-.454-.681-.681-.952-.742a.95.95 0 0 0-.415 0c-.27.06-.498.288-.952.742l-.556.556.556.557c.454.454.681.68.952.741.137.03.279.03.415 0m.88-9.552c.545.545.817.818 1.141.89.165.037.335.037.5 0 .324-.072.596-.345 1.14-.89l.897-.896-.896-.897c-.545-.544-.817-.817-1.142-.89a1.14 1.14 0 0 0-.499 0c-.324.073-.596.346-1.141.89l-.897.897zm1.141 6.99c-.324-.072-.596-.345-1.141-.89l-.897-.896.897-.896c.545-.545.817-.818 1.141-.89a1.14 1.14 0 0 1 .5 0c.324.072.596.345 1.14.89l.897.896-.896.897c-.545.544-.817.817-1.142.89a1.15 1.15 0 0 1-.499 0M6.17 7.512l-.897.896.897.896c.545.545.817.818 1.141.89.165.037.335.037.5 0 .324-.072.596-.345 1.141-.89l.896-.896-.896-.896c-.545-.545-.817-.818-1.142-.89a1.14 1.14 0 0 0-.499 0c-.324.072-.596.345-1.141.89m0 6.1c.545-.545.817-.818 1.141-.89a1.14 1.14 0 0 1 .5 0c.324.072.596.345 1.141.89l.896.896-.896.897c-.545.545-.817.817-1.142.89a1.14 1.14 0 0 1-.499 0c-.324-.073-.596-.346-1.141-.89l-.897-.897zm3.39-3.39-1.237 1.236 1.237 1.237c.635.635.953.953 1.332 1.038.191.043.39.043.582 0 .378-.085.696-.403 1.332-1.038l1.236-1.237-1.236-1.236c-.636-.636-.954-.954-1.332-1.039a1.3 1.3 0 0 0-.582 0c-.379.085-.697.403-1.332 1.039m0-6.1c.635-.636.953-.954 1.332-1.039.191-.043.39-.043.582 0 .378.085.696.403 1.332 1.038l1.236 1.237-1.236 1.236c-.636.636-.954.954-1.332 1.038-.192.043-.39.043-.582 0-.379-.084-.697-.402-1.332-1.038L8.323 5.358zm44.053 6.242c.072 2.043 1.231 3.26 3.55 3.26 2.028 0 3.491-1.014 3.491-2.97 0-1.391-.797-2.318-2.173-2.826l-1.666-.608c-.97-.362-1.232-.666-1.232-1.347 0-.768.58-1.232 1.536-1.232.942 0 1.623.536 1.724 1.594h1.666c-.072-1.594-1.304-3.043-3.332-3.043-1.941 0-3.26.986-3.26 2.854 0 1.304.74 2.16 2.014 2.623l1.826.666c.869.319 1.23.696 1.23 1.391 0 .87-.651 1.449-1.752 1.449-1.246 0-1.883-.638-1.956-1.811zm-26.806.145c0 1.956-1.159 2.97-3.187 2.97h-3.477V3.337h3.332c1.738 0 2.897.797 2.897 2.753 0 1.087-.622 1.71-1.434 2.028 1.101.275 1.87.956 1.87 2.39m-3.622-5.65H21.81V7.61h1.376c.87 0 1.521-.29 1.521-1.376 0-1.087-.651-1.377-1.52-1.377m.435 4.056h-1.811v3.043h1.81c1.16 0 1.522-.652 1.522-1.522 0-.869-.362-1.52-1.521-1.52m12.436 4.564h-1.739l-.623-2.39h-3.303l-.623 2.39h-1.68l2.897-10.142h2.173zm-2.753-3.912-1.26-4.911-1.261 4.911zm6.05 3.912h1.667V9.567l3.187-6.23H42.47l-2.275 4.767-2.289-4.767h-1.738l3.187 6.23zm12.586 0h-5.796V3.337h5.65v1.521H47.81v2.463h3.839v1.522h-3.84v3.114h4.13zm16.525 0h-5.505V3.337h1.665v8.62h3.84zm2.308 0h1.666V3.337h-1.666zm12.015 0H80.47L77.137 5.35v8.128h-1.594V3.337h2.318l3.332 8.128V3.337h1.594zm3.102 0h5.795v-1.521h-4.129V8.843h3.84V7.32h-3.84V4.858h3.984v-1.52h-5.65z" clip-rule="evenodd"/></g><defs><clipPath id="a"><path fill="#fff" d="M0 0h92v16.323H0z"/></clipPath></defs></svg>