<svg xmlns="http://www.w3.org/2000/svg" width="205" height="29" fill="none" viewBox="0 0 205 29"><path fill="#00b7f1" d="M45.959 2.715c5.947 0 8.269 2.683 8.269 6.147 0 1.935-.89 3.62-2.926 4.68 2.576 1.061 3.626 2.996 3.626 5.243 0 3.713-2.386 6.397-8.524 6.397h-8.62V2.715zm-4.517 3.307v6.116h4.517c3.466 0 4.643-1.373 4.643-3.026 0-1.81-1.209-3.09-4.643-3.09zm0 9.205v6.647h4.994c3.657 0 4.898-1.31 4.898-3.308 0-1.903-1.24-3.307-4.898-3.307h-4.994zM58.331.967h3.498v18.504c0 2.122.636 2.746 1.527 2.746.604 0 .89-.093 1.24-.28l1.018 3.026c-.763.28-1.527.468-2.703.468-2.577 0-4.549-1.529-4.549-5.991V.967zM82.566 24.62c-2.099.561-4.294.905-7.315.905-4.326 0-7.506-2.122-7.506-7.49V7.896h3.499v10.36c0 3.213 1.685 3.993 4.261 3.993 1.654 0 2.577-.062 3.563-.312V7.895h3.53V24.62zm19.147-6.771H89.754v.124c0 2.809 1.908 4.275 4.994 4.275 2.226 0 4.325-.374 5.566-.873l1.017 3.089c-1.78.655-4.039 1.03-6.583 1.03-5.28 0-8.588-2.56-8.588-8.644v-.718c0-6.053 3.022-8.612 7.793-8.612 4.707 0 7.76 2.559 7.76 8.612zm-11.927-2.622h8.333v-.187c0-2.902-1.622-4.243-4.166-4.243s-4.199 1.341-4.199 4.243v.188zm22.995 1.249v8.706h-3.657v-8.644l-8.779-13.823h4.135l6.488 10.515 6.457-10.515h4.134zm6.584-.219c0-6.178 3.339-8.706 7.919-8.706 4.548 0 7.92 2.528 7.92 8.706v.562c0 6.178-3.372 8.706-7.92 8.706-4.58 0-7.919-2.528-7.919-8.706zm12.308 0c0-4.15-1.622-5.46-4.357-5.46-2.799 0-4.389 1.31-4.389 5.46v.562c0 4.15 1.622 5.46 4.389 5.46 2.735 0 4.357-1.31 4.357-5.46zm7.029-7.8c1.654-.531 4.326-.906 7.284-.906 4.325 0 7.538 2.122 7.538 7.49v10.14h-3.499v-10.36c0-3.213-1.686-3.993-4.262-3.993-1.686 0-2.481.062-3.594.312v14.073h-3.498V8.456zm32.855 16.163c-2.035.655-4.961.905-6.679.905-4.834 0-8.142-2.809-8.142-8.644v-.686c0-5.991 3.498-8.644 8.237-8.644 1.177 0 2.259.188 3.086.53V1h3.498zm-11.291-7.739c0 4.213 1.813 5.398 4.707 5.398 1.4 0 2.195-.093 3.086-.343V11.39c-.446-.25-1.432-.592-2.863-.592-2.926 0-4.962 1.092-4.962 5.398v.686zm30.374.968h-11.959v.124c0 2.809 1.909 4.275 4.994 4.275 2.226 0 4.325-.374 5.566-.873l1.018 3.089c-1.782.655-4.04 1.03-6.584 1.03-5.28 0-8.588-2.56-8.588-8.644v-.718c0-6.053 3.022-8.612 7.793-8.612 4.707 0 7.76 2.559 7.76 8.612zm-11.863-2.622h8.365v-.187c0-2.902-1.622-4.243-4.167-4.243s-4.198 1.341-4.198 4.243zm15.489-6.77c1.495-.531 3.848-.874 5.916-.874 1.685 0 2.799.187 3.975.436l-1.049 3.152c-.732-.218-1.559-.343-2.704-.343-1.335 0-2.003.125-2.639.28v14.074h-3.499zM14.44 0c-2.481 0-4.453 1.966-4.453 4.369 0 2.433 2.004 4.368 4.453 4.368 2.48 0 4.452-1.966 4.452-4.368S16.89 0 14.44 0m0 28.302c2.48 0 4.452-1.966 4.452-4.369 0-2.434-2.003-4.368-4.452-4.368-2.481 0-4.453 1.966-4.453 4.368s1.972 4.369 4.453 4.369m.954-14.167c0 .437.254.812.636.968l6.488 2.995c.573.281 1.209.406 1.908.406 2.481 0 4.453-1.966 4.453-4.369 0-2.434-2.004-4.368-4.453-4.368-.667 0-1.335.156-1.908.406l-6.488 2.995c-.382.156-.636.53-.636.967m-1.909 0c0-.437-.254-.811-.636-.967l-6.488-2.995c-.572-.281-1.209-.406-1.908-.406C1.972 9.767 0 11.733 0 14.135c0 2.434 2.004 4.369 4.453 4.369.668 0 1.336-.156 1.908-.406l6.488-2.995c.382-.156.636-.53.636-.968"/></svg>