<svg xmlns="http://www.w3.org/2000/svg" width="92" height="59" fill="none" viewBox="0 0 92 59"><g fill="#60646c" clip-path="url(#a)"><path d="m73.105 4.88-9.592 5.149c-.601.244-1.358.287-1.939-.025-1.067-.96-1.31-2.32-1.796-3.546.403-.267 1.07-.265 1.56-.466l2.41-1.13L72.957 0h.2zM54.769 17.291s-2.177-5.682-3.263-8.401h-.11c-1.79 3.406-3.202 6.967-4.992 10.374-2.21 2.066-5.24 2.374-8.07 2.992l-.715.086.025-.335L47.687 3.18l.269-.423 7.574-.029c.423.67.733 1.451 1.043 2.208l4.192 9.145z"/><path d="M56.825 22.627c-8.163 3.948-16.46 8.077-26.329 7.388-3.944-.366-7.907-2.245-9.725-6.058-2.021-3.28-1.81-8.205.445-11.275 3.598-5.138 8.974-8.38 14.548-9.93 1.917-.419 4.925-1.26 6.214.905.51 1.315.93 2.653 1.196 4.06-4.701-.145-8.783 1.741-12.53 4.183-2.947 2.11-5.937 4.868-7.103 8.21-.336 1-.16 2.226.552 3.008 2.937 2.345 7.372 1.73 11.027 1.38 7.02-1.1 13.45-3.966 19.649-7.207l5.994-3.213L73.01 7.33h.133l-.01 5.927-10.04 5.929z"/><path d="M63.093 19.186s3.193 7.248 4.701 10.704l-6.73-.015c-.779-.002-1.514-.58-1.778-1.274-.821-2.007-1.708-3.969-2.46-5.976zm6.439 13.747c-.006 1.139-.008 4.45-.008 4.45H19.35c.008-1.343-.002-4.45-.002-4.45zM3.352 58.755c-1.871 0-3.343-.89-3.343-2.319 0-1.444 1.53-2.333 3.294-2.333.835 0 1.434.146 2.17.306v.95a5.6 5.6 0 0 0-1.916-.347c-1.184 0-2.013.55-2.013 1.422 0 .885.768 1.451 2.102 1.451.697 0 1.077-.14 1.777-.234v.8a6.6 6.6 0 0 1-2.07.304m5.186-1.767c.074-.166.257-.43.392-.597.125-.152.242-.199.536-.199.207 0 .48.01.786-.037.504-.078.66-.3.66-.617 0-.676-1.122-.618-1.82-.618h-.829v3.72H6.841v-4.484h3.374c1.41 0 2.138.546 2.138 1.382 0 .582-.435.983-1.147 1.159l1.459 1.943H11.1l-1.256-1.652zm7.866-4.075h1.303l-.878.796h-.981zm-2.664 1.22h4.946l.343.811h-3.903v2.92h4.04l-.419.774H13.74zm1.804 2.17c.287-.37.337-.312 1.31-.318h1.479l-.456.53c-.156.182-.33.203-.58.203H15.22zm5.11-2.17h2.17c1.82 0 3.654.744 3.654 2.402 0 1.299-1.252 2.103-2.713 2.103h-3.111zm2.5 3.795c1.266 0 1.933-.628 1.933-1.449 0-.919-.86-1.393-2.334-1.393h-.71v2.842zm4.843-3.794h1.413v4.504h-1.413zm4.586.802H30.5l.48-.8h5.289s-.12.328-.35.593c-.18.21-.586.21-.953.21h-.955v3.703h-1.428zm14.012 3.704-1.914-3.642-1.055 1.865h1.878c-.355.737-.643.778-1.16.778h-1.15l-.535.997h-1.434l2.587-4.504h1.823l2.48 4.504h-1.52m7.285-.835v-.977h-1.689l.23-.464c.138-.28.318-.312.924-.312l1.752-.004v2.377c-.716.213-1.902.332-2.694.332-1.872 0-3.341-.89-3.341-2.319 0-1.444 1.529-2.333 3.285-2.333.838 0 1.722.099 2.459.259v.925c-.642-.238-1.646-.347-2.303-.347-1.184 0-1.914.624-1.914 1.496 0 .885.697 1.492 2.038 1.492.455 0 .968-.03 1.253-.125m4.018-.815q.165-.32.394-.597c.126-.152.243-.199.536-.199.205 0 .48.01.786-.037.505-.078.66-.3.66-.617 0-.676-1.122-.618-1.821-.618h-.83v3.72h-1.422v-4.484h3.374c1.41 0 2.139.546 2.139 1.382 0 .582-.436.983-1.148 1.159l1.46 1.943H60.46l-1.254-1.652zm5.162-2.854h1.414v4.504H63.06zm6.306 4.621c-1.872 0-3.343-.89-3.343-2.319 0-1.444 1.529-2.333 3.294-2.333.835 0 1.434.146 2.169.306v.95a5.6 5.6 0 0 0-1.915-.347c-1.184 0-2.013.55-2.013 1.422 0 .885.767 1.451 2.101 1.451.7 0 1.08-.14 1.778-.234v.8c-.67.211-1.37.314-2.071.304m3.253-2.312c0-1.41 1.258-2.35 3.361-2.35 1.808 0 3.255.888 3.255 2.374 0 1.205-1.072 2.3-3.255 2.3-2.22.003-3.361-1.14-3.361-2.325m1.522-.037c-.012.843.612 1.606 1.839 1.606 1.116 0 1.771-.78 1.746-1.631-.026-.82-.691-1.513-1.746-1.513-1.14-.002-1.826.696-1.839 1.538m6.389 2.234v-4.506h1.416v3.737h3.043l-.437.77zm6.035-4.506h4.946l.343.81H87.95v2.92h4.041l-.419.774h-5.007zm1.802 2.169c.287-.37.336-.312 1.31-.318l1.477-.004-.456.535c-.156.183-.33.203-.58.203H88.04z"/></g><defs><clipPath id="a"><path fill="#fff" d="M0 0h92v58.77H0z"/></clipPath></defs></svg>