<svg xmlns="http://www.w3.org/2000/svg" width="360" height="88" fill="none" viewBox="0 0 360 88"><g clip-path="url(#a)"><path fill="#005f9c" d="M53.708 87.02c16.62-3.734 29.657-16.77 33.39-33.39h-33.39zM0 44q0 1.517.103 3.012a44 44 0 0 0 3.758.165c23.557-.025 42.933-19.4 42.96-42.958q0-2.139-.206-4.224a46 46 0 0 0-2.538-.073C19.898-.08 0 19.82 0 43.999m87.098-9.635A44.15 44.15 0 0 0 67.433 6.613a63.2 63.2 0 0 1-7.515 27.75zM6.953 67.763a44.14 44.14 0 0 0 27.49 19.256V60.034a63.15 63.15 0 0 1-27.49 7.729"/><path fill="#37b3e5" d="M34.442 34.364h25.476a63.2 63.2 0 0 0 7.515-27.75A43.8 43.8 0 0 0 46.615-.004a44 44 0 0 1 .206 4.22c-.025 23.556-19.4 42.934-42.958 42.961q-1.903 0-3.76-.165a43.8 43.8 0 0 0 6.85 20.75 63.2 63.2 0 0 0 27.49-7.729z"/><path fill="#ffa300" d="M87.098 34.364h-27.18a64 64 0 0 1-11.071 14.84 64 64 0 0 1-14.405 10.83v26.985a44.4 44.4 0 0 0 19.266.002V53.63H87.1a44.35 44.35 0 0 0-.002-19.267"/><path fill="#fff" d="M59.918 34.364H34.442v25.67a64 64 0 0 0 14.407-10.83 64 64 0 0 0 11.069-14.84"/><path fill="#61656a" d="m110.045 12.972 10.596.046c3.886-.17 7.733.832 11.041 2.881a15.3 15.3 0 0 1 5.453 12.592c0 9.844-5.276 14.987-11.35 16.097-1.907.3-3.839.42-5.766.354h-9.974zm6.96 26.693c.755.044 1.906.09 2.705.09a9.65 9.65 0 0 0 7.448-2.219 13.63 13.63 0 0 0 2.884-9.045c0-4.522-1.553-8.69-5.854-9.887a22.2 22.2 0 0 0-7.183-.443zm38.04 5.277a18 18 0 0 1-.223-3.058A8.66 8.66 0 0 1 142.54 43.7a6.95 6.95 0 0 1-1.95-4.92 7.46 7.46 0 0 1 4.744-6.963 23.3 23.3 0 0 1 8.866-1.24 8.7 8.7 0 0 0-.31-2.972 3.04 3.04 0 0 0-2.924-1.862 2.99 2.99 0 0 0-2.485 1.24 3.37 3.37 0 0 0-.488 1.997h-6.428a6.26 6.26 0 0 1 .611-2.951 6.26 6.26 0 0 1 1.917-2.326 11.7 11.7 0 0 1 6.783-1.817c2.941-.174 5.83.87 7.981 2.882a8.85 8.85 0 0 1 1.551 5.5l.046 9a27 27 0 0 0 .532 5.674zm-8.07-6.917-.003.106a3.1 3.1 0 0 0 3.09 3.087h.106a3.73 3.73 0 0 0 2.791-1.287 8.2 8.2 0 0 0 1.241-5.542c-4.211-.356-7.226.975-7.226 3.636m19.153-11.484c0-.09 0-2.528-.133-4.079h6.297l.177 3.37a7.76 7.76 0 0 1 7.272-3.902 6.82 6.82 0 0 1 6.827 4.212c.614 2.175.825 4.444.622 6.694v12.106h-6.697V31.02a5.3 5.3 0 0 0-.353-2.439 3.42 3.42 0 0 0-3.193-1.906 4.09 4.09 0 0 0-3.414 1.73 6.14 6.14 0 0 0-.798 3.413v13.125h-6.607zm39.85 18.401a18 18 0 0 1-.223-3.058 8.66 8.66 0 0 1-12.282 1.817 6.94 6.94 0 0 1-1.95-4.92 7.46 7.46 0 0 1 4.744-6.964 23.4 23.4 0 0 1 8.87-1.24 8.8 8.8 0 0 0-.313-2.972 3.04 3.04 0 0 0-2.925-1.862 2.98 2.98 0 0 0-2.484 1.24 3.4 3.4 0 0 0-.487 1.997h-6.43a6.26 6.26 0 0 1 .611-2.951 6.26 6.26 0 0 1 1.917-2.326 11.7 11.7 0 0 1 6.784-1.817 10.76 10.76 0 0 1 7.98 2.882 8.85 8.85 0 0 1 1.551 5.5l.046 9a27 27 0 0 0 .533 5.674zm-8.07-6.917-.003.106a3.1 3.1 0 0 0 3.09 3.087h.106a3.73 3.73 0 0 0 2.792-1.287 8.23 8.23 0 0 0 1.243-5.542c-4.214-.356-7.228.975-7.228 3.636"/><path fill="#61656a" fill-rule="evenodd" d="M215.596 30.71h10.995v5.01h-10.995z" clip-rule="evenodd"/><path fill="#61656a" d="M231.468 12.928h20.663v5.143h-13.79v7.892H251.2v5.322h-12.858v13.657h-6.873zm35.604 32.014a18 18 0 0 1-.223-3.058 8.66 8.66 0 0 1-12.282 1.817 6.94 6.94 0 0 1-1.95-4.92 7.46 7.46 0 0 1 4.744-6.964 23.3 23.3 0 0 1 8.867-1.24 8.7 8.7 0 0 0-.31-2.972 3.04 3.04 0 0 0-2.925-1.862 2.98 2.98 0 0 0-2.484 1.24 3.4 3.4 0 0 0-.487 1.997h-6.43a6.27 6.27 0 0 1 2.528-5.277 11.7 11.7 0 0 1 6.784-1.817 10.76 10.76 0 0 1 7.98 2.882 8.85 8.85 0 0 1 1.551 5.5l.046 9a27 27 0 0 0 .532 5.674zm-8.07-6.917-.003.106a3.105 3.105 0 0 0 3.09 3.087h.106a3.73 3.73 0 0 0 2.792-1.287 8.2 8.2 0 0 0 1.24-5.542c-4.211-.356-7.226.975-7.226 3.636m19.066-9.977c0-1.064-.176-4.3-.31-5.586h6.16l.135 4.302c.842-1.91 2.304-4.614 7.628-4.348v5.898c-6.655-.62-7.05 2.794-7.05 5.586v11.042h-6.563zm16.802-15.076h6.563v12.282a7.55 7.55 0 0 1 6.34-3.014c5.456 0 9.755 4.3 9.755 11.837 0 8.38-4.877 11.307-9.355 11.307a7.42 7.42 0 0 1-6.74-3.592c-.044.711-.09 1.773-.223 3.15h-6.34zm11.13 13.656c-4.833 0-4.833 5.5-4.833 6.917 0 5.1 2.172 7.538 5.143 7.538 4.524 0 4.524-5.632 4.524-6.784 0-1.773-.09-7.67-4.834-7.67m21.236 8.782c0 1.461 0 5.985 4.565 5.985a3.684 3.684 0 0 0 3.903-3.104h5.985a7.48 7.48 0 0 1-2.127 4.877 10.9 10.9 0 0 1-7.85 2.615 11.15 11.15 0 0 1-7.891-2.79 12.2 12.2 0 0 1-2.882-8.737 12.29 12.29 0 0 1 4.655-10.596 11.2 11.2 0 0 1 6.297-1.863 9.62 9.62 0 0 1 9.045 5.41 16.6 16.6 0 0 1 1.33 8.203zm8.335-4.125c0-1.02-.09-5.01-3.903-5.01-2.88 0-4.078 2.395-4.211 5.01zm10.818-3.237c0-1.064-.179-4.3-.31-5.586h6.162l.133 4.302c.842-1.91 2.306-4.614 7.628-4.348v5.898c-6.653-.62-7.05 2.794-7.05 5.586v11.042h-6.563zM124.06 61.972a4.19 4.19 0 0 0-4.75-3.805c-5.297 0-6.242 5.418-6.242 9.073 0 4.14 1.189 8.614 6.21 8.614a4.76 4.76 0 0 0 3.563-1.308 4.3 4.3 0 0 0 1.064-2.315h3.35c-.457 4.322-4.444 6.12-8.22 6.12-7.73 0-9.224-6.819-9.224-11.08 0-4.629 1.796-11.538 9.621-11.538 3.104 0 7.488 1.248 7.885 6.24zm16.53 16.045a8.2 8.2 0 0 1-.275-2.283 4.96 4.96 0 0 1-4.72 2.77c-3.5 0-5.388-1.98-5.388-4.506a5.04 5.04 0 0 1 2.68-4.476 11.94 11.94 0 0 1 5.296-1.005c.732 0 1.189.033 2.072.092 0-1.886 0-2.71-.548-3.379a3.5 3.5 0 0 0-2.65-1.005c-2.89 0-3.044 1.98-3.074 2.588h-2.863a4.86 4.86 0 0 1 1.067-2.893 6.9 6.9 0 0 1 4.932-1.642 6.16 6.16 0 0 1 5.419 2.252c.38.72.56 1.53.518 2.345l-.124 7.306q.018 1.925.246 3.836zm-1.98-7.52c-1.156 0-5.51 0-5.51 3.106 0 .973.608 2.648 3.166 2.648a3.68 3.68 0 0 0 3.257-1.643 7.2 7.2 0 0 0 .732-4.02 12 12 0 0 0-1.645-.09m9.31-6-.03-1.764h2.86l.03 2.464a5.01 5.01 0 0 1 4.902-2.769q.223-.017.445-.018c2.797 0 5.098 2.3 5.098 5.097l-.002.126v10.38H158.3v-9.71a3.46 3.46 0 0 0-.821-2.617 3.92 3.92 0 0 0-2.71-1.037c-2.211.023-4.021 1.85-4.021 4.062q0 .255.032.505v8.798h-2.86zm26.998 3.136q.004-.09.005-.179a3.03 3.03 0 0 0-3.017-3.016h-.032c-3.957 0-3.957 4.597-3.957 5.753 0 3.136.761 6.06 3.805 6.06q.068.003.14.003a3.196 3.196 0 0 0 3.18-3.18l-.002-.144h2.892c-.151 3.06-2.709 5.497-5.771 5.497q-.206 0-.409-.016a6.88 6.88 0 0 1-5.024-1.98 8.26 8.26 0 0 1-1.826-5.845c0-6.362 3.898-8.25 6.942-8.25a6.2 6.2 0 0 1 4.687 1.888 5.32 5.32 0 0 1 1.28 3.41zm8.398 3.26c-.06 3.166 1.25 5.51 4.387 5.51q.135.01.27.01a3.34 3.34 0 0 0 3.32-3.175h2.86a5.17 5.17 0 0 1-1.307 3.195 6.61 6.61 0 0 1-5.267 2.04c-4.809 0-7.093-2.983-7.093-7.823a7.93 7.93 0 0 1 3.014-7.185 7.3 7.3 0 0 1 4.17-1.126c6.85 0 6.697 6.058 6.637 8.554zm8.069-2.01c.03-1.46-.244-4.505-3.774-4.505l-.092-.002c-2.248 0-4.1 1.85-4.1 4.1q0 .201.021.407zm7.058-3.046c0-1.035-.062-2.1-.151-3.106h2.89l.062 2.955a4.14 4.14 0 0 1 3.652-3.015 9.2 9.2 0 0 1 1.98-.062v2.801c-.176-.06-.362-.1-.548-.12a7 7 0 0 0-.824-.03c-3.376 0-4.17 2.01-4.17 4.626v8.128h-2.89z"/><path fill="#61656a" fill-rule="evenodd" d="M217.998 56.036h3.044v21.98h-3.044z" clip-rule="evenodd"/><path fill="#61656a" d="m226.704 64.498-.03-1.764h2.86l.03 2.464a5.01 5.01 0 0 1 4.903-2.769q.222-.017.445-.018c2.796 0 5.097 2.3 5.097 5.097l-.002.126v10.38h-2.923v-9.71a3.46 3.46 0 0 0-.821-2.617 3.92 3.92 0 0 0-2.71-1.037c-2.213.023-4.02 1.85-4.02 4.062q0 .255.031.505v8.798h-2.86zm20.304 8.982c-.03 1.156.578 2.768 3.35 2.768a3.13 3.13 0 0 0 2.679-.972c.312-.412.482-.915.486-1.432 0-1.49-1.066-1.766-3.35-2.282-3.195-.732-5.874-1.372-5.874-4.568 0-2.8 2.436-4.627 5.967-4.627a6.18 6.18 0 0 1 5.51 2.374c.305.7.44 1.462.397 2.223h-2.925c.092-2.314-1.916-2.496-2.95-2.496-.43 0-3.106 0-3.106 2.191 0 1.402 1.37 1.737 2.16 1.948 4.233 1.007 5.146 1.25 6.06 2.101a3.8 3.8 0 0 1 1.155 2.833 4.64 4.64 0 0 1-2.069 3.866 8.57 8.57 0 0 1-4.537 1.034c-3.104 0-5.997-1.28-5.967-4.962zm11.383-10.808h2.71v-3.198l2.83-.913v4.111h3.412v2.102h-3.412v9.162c0 .762 0 2.04 2.042 2.04q.692 0 1.37-.152v2.223q-1.181.192-2.377.181c-2.618 0-3.866-.762-3.866-3.257V64.774h-2.709zm12.728-6.575h3.44v3.136h-3.44zm.305 6.637h2.86v15.283h-2.86zm6.239-.062h2.71v-3.198l2.83-.913v4.111h3.41v2.102h-3.41v9.162c0 .762 0 2.04 2.042 2.04q.692 0 1.367-.152v2.223q-1.179.19-2.374.181c-2.617 0-3.865-.762-3.865-3.257V64.774h-2.71zm15.251.062v9.832c0 1.494.335 3.38 3.258 3.38a4.13 4.13 0 0 0 3.592-1.705 4.96 4.96 0 0 0 .638-2.86v-8.647h2.952v12.42c0 .305.062 2.01.092 2.863h-2.982l-.062-2.62a4.79 4.79 0 0 1-4.87 2.771q-.327.044-.659.044c-2.684 0-4.893-2.21-4.893-4.893q0-.163.012-.326V62.734zm13.269-.062h2.71v-3.198l2.83-.913v4.111h3.409v2.102h-3.409v9.162c0 .762 0 2.04 2.042 2.04q.69 0 1.367-.152v2.223q-1.183.19-2.374.181c-2.618 0-3.866-.762-3.866-3.257V64.774h-2.71zm13.996 8.222c-.06 3.166 1.248 5.51 4.384 5.51q.135.01.273.01a3.333 3.333 0 0 0 3.32-3.175h2.86a5.17 5.17 0 0 1-1.308 3.195 6.63 6.63 0 0 1-5.267 2.04c-4.81 0-7.093-2.983-7.093-7.823a7.92 7.92 0 0 1 3.014-7.185 7.33 7.33 0 0 1 4.171-1.126c6.85 0 6.696 6.058 6.637 8.554zm8.068-2.01c.03-1.46-.243-4.505-3.774-4.505a1 1 0 0 0-.091-.002c-2.249 0-4.098 1.85-4.098 4.1q0 .201.019.407z"/></g><defs><clipPath id="a"><path fill="#fff" d="M0 0h360v88H0z"/></clipPath></defs></svg>