<svg xmlns="http://www.w3.org/2000/svg" width="125" height="23" fill="none" viewBox="0 0 125 23"><g clip-path="url(#a)"><path fill="#86bc25" d="M117.995 19.618c0-1.827 1.511-3.247 3.296-3.247 1.855 0 3.297 1.488 3.297 3.247s-1.511 3.247-3.297 3.247c-1.785 0-3.296-1.42-3.296-3.247"/><path fill="#404040" d="M18.956 10.891c0 3.789-.962 6.63-3.022 8.66q-3.09 3.043-8.654 3.043H0V.068h7.692c3.64 0 6.388.88 8.31 2.773 1.992 1.827 2.954 4.533 2.954 8.05m-6.319.203c0-2.097-.412-3.585-1.236-4.6-.755-.947-2.06-1.488-3.709-1.488H6.044V17.59h1.374c1.854 0 3.159-.542 4.052-1.624.755-1.082 1.167-2.706 1.167-4.87M44.643 0h-5.7v22.594h5.7zm18.819 14.138c0 2.706-.687 4.87-2.198 6.427s-3.572 2.3-6.182 2.3c-2.54 0-4.533-.744-6.044-2.368s-2.266-3.72-2.266-6.359c0-2.706.687-4.87 2.198-6.359 1.51-1.555 3.571-2.3 6.181-2.3q2.472 0 4.327 1.015c1.305.677 2.198 1.691 2.885 2.977.824 1.42 1.099 2.909 1.099 4.667m-10.783 0c0 1.489.206 2.503.549 3.247s.962 1.083 1.923 1.083 1.511-.338 1.923-1.083c.344-.744.55-1.894.55-3.247 0-1.488-.206-2.503-.55-3.247-.343-.676-.961-1.082-1.923-1.082-.824 0-1.51.338-1.923 1.082-.343.744-.55 1.76-.55 3.247M71.497 5.75h-5.7v16.777h5.7zm0-5.75h-5.7v3.788h5.7zm11.607 18.265c.756 0 1.717-.203 2.747-.541v4.261c-.755.339-1.51.541-2.197.677q-1.03.203-2.473.203c-1.923 0-3.297-.474-4.19-1.488-.824-.947-1.304-2.436-1.304-4.397v-6.9h-1.992V5.75h1.992V1.556l5.769-.947v5.276h3.709v4.262h-3.71v6.494c.138 1.15.619 1.624 1.65 1.624m13.323 0c.756 0 1.717-.203 2.748-.541v4.261c-.756.339-1.511.541-2.198.677q-1.03.203-2.473.203c-1.923 0-3.296-.474-4.19-1.488-.823-.947-1.304-2.436-1.304-4.397v-6.9h-1.992V5.75h1.992V1.488l5.769-.88v5.277h3.709v4.262H94.78v6.494c.069 1.15.618 1.624 1.648 1.624M114.56 7.441c-1.373-1.353-3.296-1.962-5.769-1.962-2.61 0-4.67.745-6.113 2.3-1.442 1.556-2.129 3.721-2.129 6.562 0 2.706.756 4.87 2.267 6.36 1.579 1.487 3.709 2.231 6.456 2.231 1.373 0 2.472-.067 3.434-.27.893-.203 1.923-.474 2.747-.947l-.824-3.788a12 12 0 0 1-1.854.608c-.825.203-1.786.271-2.748.271-1.099 0-1.991-.27-2.61-.744-.618-.541-.961-1.285-.961-2.233h10.233v-2.638c-.068-2.503-.824-4.397-2.129-5.75m-8.104 4.668c.069-.88.343-1.624.755-2.03.413-.405.962-.608 1.717-.608.687 0 1.374.203 1.786.676s.618 1.082.687 1.962zM34.684 7.441c-1.442-1.353-3.297-1.962-5.77-1.962-2.61 0-4.67.745-6.112 2.3-1.442 1.556-2.13 3.721-2.13 6.562 0 2.706.756 4.87 2.267 6.36 1.58 1.487 3.71 2.231 6.456 2.231 1.374 0 2.473-.067 3.434-.27.893-.203 1.923-.474 2.748-.947l-.825-3.856a12 12 0 0 1-1.854.609c-.824.203-1.786.27-2.747.27-1.099 0-1.992-.27-2.61-.744-.618-.541-.962-1.285-.962-2.232h10.234v-2.57c-.069-2.504-.824-4.398-2.13-5.75M26.51 12.11c.068-.88.343-1.624.755-2.03s.962-.608 1.717-.608 1.374.203 1.786.676.618 1.082.687 1.962z"/></g><defs><clipPath id="a"><path fill="#fff" d="M0 0h125v23H0z"/></clipPath></defs></svg>