<svg xmlns="http://www.w3.org/2000/svg" width="119" height="51" fill="none" viewBox="0 0 119 51"><g clip-path="url(#a)"><path fill="#3f9c35" d="M119 19.429H0v2.428h119z"/><path fill="#003591" d="M119 24.286H0v4.857h119z"/><path fill="#99d9f0" d="M119 0H0v14.571h119z"/><path fill="#0f214a" d="M71.813 36.453a10.2 10.2 0 0 0-4.192-.787h-8.3V51h8.3a10.2 10.2 0 0 0 4.192-.787 5.8 5.8 0 0 0 2.698-2.372 7.7 7.7 0 0 0 .941-3.976V42.8a7.7 7.7 0 0 0-.94-3.976 5.8 5.8 0 0 0-2.7-2.372m1.124 7.33a4.76 4.76 0 0 1-1.329 3.7 5.73 5.73 0 0 1-3.966 1.206h-5.766V37.976h5.766a5.83 5.83 0 0 1 3.966 1.176 4.74 4.74 0 0 1 1.33 3.731zm21.714 3.867L82.79 35.666h-2.494V51h2.494V39.032L94.65 51h2.514V35.666H94.65zm21.631-11.983-5.868 11.983-5.868-11.983h-2.882L109.35 51h1.983L119 35.666z"/></g><defs><clipPath id="a"><path fill="#fff" d="M0 0h119v51H0z"/></clipPath></defs></svg>