<svg xmlns="http://www.w3.org/2000/svg" viewBox="0 0 97.81 35.43">
  <path fill="gray" d="M81.12 29.07h5.63V14.64c0-1.06 0-1.38.21-1.7.32-.74 1.17-1.17 2.23-1.17.96 0 1.59.21 2.34.74V8.27c-6.26.11-8.28.53-10.41 2.23zm-12.1-10.93V13.9c0-1.59.74-2.44 2.34-2.44 1.49 0 2.34.85 2.34 2.33v4.35h-4.67Zm10.3 3.29v-8.06c0-3.4-1.81-4.99-5.63-4.99h-4.67c-2.02 0-2.87.21-3.93 1.06-1.06.95-1.7 2.33-1.7 3.92v10.72c0 1.48.42 2.55 1.38 3.61 1.06 1.06 2.02 1.38 4.25 1.38h10.19v-4.24c-2.87.85-4.57 1.06-6.69 1.06-2.44 0-3.5-.53-3.5-1.91v-2.55zm-27.61 6.36c0-1.59.74-2.44 2.34-2.44s2.44.85 2.44 2.44v2.33c0 1.38-.85 2.23-2.34 2.23-1.59 0-2.44-.85-2.44-2.23zm10.41-.53c0-1.59-.32-2.65-1.17-3.61-1.06-1.17-2.23-1.49-4.46-1.49h-4.67c-2.12 0-2.97.21-4.03 1.06-1.06.95-1.7 2.44-1.7 4.03v3.08c0 1.49.53 2.76 1.38 3.61 1.06 1.17 2.02 1.48 4.35 1.48h4.67c2.02 0 2.97-.21 4.03-1.06 1.06-.96 1.59-2.12 1.59-4.03v-3.08ZM51.71 13.68c0-1.38.85-2.23 2.44-2.23s2.44.85 2.44 2.23v2.44c0 1.38-.96 2.23-2.44 2.23-1.59 0-2.44-.85-2.44-2.23zm9.98-5.3h-9.98c-1.91 0-2.66.21-3.72 1.06-1.06.95-1.59 2.33-1.59 3.92v3.08c0 1.27.42 2.55 1.27 3.5 1.06 1.17 1.91 1.49 4.04 1.49h4.57c2.02 0 2.87-.32 3.82-1.06 1.06-.95 1.59-2.23 1.59-3.92V8.39Zm-22.62 17.4h-2.44c-.95 0-1.7-.32-2.12-1.06-.21-.32-.21-.42-.21-1.38v-1.91c0-1.59.74-2.33 2.33-2.33h2.44zm0-9.97h-4.88c-1.91 0-2.76.21-3.72 1.17-1.06.85-1.59 2.12-1.59 3.82v3.29c0 1.48.32 2.55 1.17 3.5 1.06 1.17 2.02 1.49 4.25 1.49h10.51V13.27c0-1.38-.43-2.55-1.38-3.5-1.17-1.17-2.12-1.49-4.25-1.49h-8.49v4.24c2.12-.85 3.51-1.17 5.42-1.17 2.02 0 2.97.64 2.97 2.01v2.44ZM41.41 0c-1.81 0-3.18 1.38-3.18 3.08 0 1.8 1.38 3.18 3.18 3.18 1.7 0 3.08-1.38 3.08-3.18 0-1.7-1.38-3.08-3.08-3.08m-7.54 0c-1.8 0-3.18 1.38-3.18 3.08 0 1.8 1.38 3.18 3.19 3.18 1.7 0 3.08-1.38 3.08-3.18A3.096 3.096 0 0 0 33.87 0M19.11 29.07h5.63V14.64c0-1.06 0-1.38.21-1.7.32-.74 1.17-1.17 2.23-1.17.96 0 1.59.21 2.34.74V8.27c-6.26.11-8.28.53-10.41 2.23zM0 .72v2.97h9.13c1.06 0 1.59.21 2.12.74.43.53.43.74.43 2.65v15.29c0 2.87-.53 3.4-3.08 3.4H6.05V6.67H0v22.4h11.26c2.65 0 3.4-.21 4.67-1.49 1.17-1.17 1.38-2.02 1.38-5.31V6.24c0-2.02-.21-2.76-1.06-3.82-1.06-1.17-2.44-1.7-4.35-1.7z"/>
</svg>