<svg xmlns="http://www.w3.org/2000/svg" width="43" height="15" fill="none" viewBox="0 0 43 15"><g clip-path="url(#a)"><mask id="b" width="43" height="15" x="0" y="0" maskUnits="userSpaceOnUse" style="mask-type:luminance"><path fill="#fff" d="M43 0H0v14.983h43z"/></mask><g fill="#67707E" mask="url(#b)"><path d="m30.477 9.306-.005-.022v.004c.007.076.027.219.043.325l.076-.152c.02-.041.01-.054-.007-.06-.05-.018-.1-.056-.107-.095m.863-1.149c.007.081.068.091.119.02l.046-.072-.044-.056a4 4 0 0 0-.4-.405c.162.154.26.341.279.513m-3.228-5.6"/><path d="M21.5 0C9.627 0 0 3.354 0 7.492c0 4.137 9.626 7.491 21.5 7.491S43 11.63 43 7.493C43 3.354 33.374 0 21.5 0m0 .649c11.458 0 20.745 3.063 20.745 6.843s-9.287 6.843-20.744 6.843C10.043 14.335.756 11.272.756 7.492S10.043.649 21.501.649m-5.609 1.217q-.458 0-.92.038c-2.051.173-4.003 1.33-4.007 3.084-.002.89.63 1.611 1.61 1.58 1.15-.04 2.095-.962 2.589-2.126.188-.441-.16-.625-.325-.37a2.93 2.93 0 0 1-1.161 1.034c-.542.265-1.12.193-1.296-.247-.246-.62.266-1.55 1.436-1.987 1.69-.626 3.459-.212 5.16.108.024 0 .115.05.035.092-.305.166-.605.302-1.072.704-.335.288-.774.67-1.113 1.087-.337.41-.576.777-.892 1.182-.044.06-.098.056-.097.056-.77.13-1.524.218-2.213.698-.143.099-.205.274-.119.408.078.118.256.131.38.041a2.3 2.3 0 0 1 1.376-.486c.022.001.032.005.039.018.004.008.001.024-.008.036-.758 1.053-.948 1.291-1.518 1.944-.292.336-.58.619-.9.914-1.295 1.204-2.687 1.183-3.187.428-.299-.453-.26-.929-.064-1.324.241-.483.728-.837 1.133-1.044.15-.077.194-.27.043-.445-.096-.114-.328-.134-.5-.103-.53.098-1.158.5-1.528.983a2.7 2.7 0 0 0-.556 1.939c.126 1.332 1.222 2.102 2.466 2.093.99-.007 1.923-.307 3.046-1.448 1.046-1.064 1.999-2.653 2.891-4.127.028-.047.048-.072.184-.089.56-.07 1.386-.15 1.916-.18.118-.007.142-.006.189.053.138.175.345.322.511.413.081.043.12.065.183.067a.24.24 0 0 0 .18-.086c.055-.062.071-.142.04-.194-.03-.055-.4-.26-.411-.343-.009-.051.048-.064.048-.064.272-.085.554-.26.725-.589.169-.323.196-.755-.112-.995-.27-.21-.678-.177-1.004.115a1.22 1.22 0 0 0-.38 1.06c.007.063.004.084-.082.091-.49.04-.961.053-1.486.08-.035.003-.046-.02-.026-.044.605-1.051 1.507-1.8 2.505-2.536.066-.05.045-.144.043-.223 1.801.392 3.542 1.12 5.411 1.105.773-.006 1.513-.124 2.22-.512.622-.34.875-.654.893-.98.015-.226-.142-.369-.365-.32-1.889.434-3.69.43-5.569.202-2.146-.261-4.205-.798-6.34-.791m3.77 3.045a.2.2 0 0 1 .118.046c.1.085.053.298-.048.445-.11.162-.296.302-.466.336-.034.006-.063-.008-.078-.084a.76.76 0 0 1 .251-.657.32.32 0 0 1 .223-.086m15.16.04h-1.152c-.085 0-.13.01-.17.09-.132.253-1.74 2.667-2.04 3.136-.05.071-.112.062-.12-.02-.03-.278-.27-.598-.648-.751a1.65 1.65 0 0 0-.864-.1c-.53.071-1 .351-1.416.666-.624.476-1.163 1.092-1.86 1.547-.38.248-.9.464-1.247.142-.315-.293-.28-.942.202-1.444.051-.053.112-.01.102.038a.64.64 0 0 0 .183.612c.21.188.511.21.769.084.304-.15.482-.442.534-.772.081-.513-.313-.965-.806-1.001q-.6-.043-1.16.42a2.2 2.2 0 0 0-.456.503c-.04.056-.1.062-.099-.022.02-.656-.252-1.025-.794-1.038-.42-.01-.87.219-1.22.498-.384.31-.72.718-1.08 1.103-.045.047-.084.045-.096-.047-.011-.435-.12-.856-.322-1.155a.267.267 0 0 0-.346-.085c-.058.032-.26.125-.407.243-.073.06-.102.148-.07.26a3.03 3.03 0 0 1-.111 2.011c-.242.572-.712 1.087-1.264 1.261-.364.116-.742.06-.976-.264-.321-.445-.192-1.22.287-1.864.423-.566 1.035-.926 1.645-1.158.072-.027.086-.074.066-.135-.033-.1-.086-.237-.108-.3-.056-.148-.212-.173-.404-.152-.443.052-.842.204-1.237.416-1.034.554-1.553 1.627-1.78 2.201-.11.276-.203.448-.324.6-.163.206-.368.393-.742.721a.13.13 0 0 0-.03.152c.038.08.232.354.287.379.061.03.132-.012.16-.032.262-.178.575-.46.729-.65.053-.066.108-.039.137.06a1.61 1.61 0 0 0 1.036 1.104c.948.32 1.932-.144 2.674-.95.472-.513.642-.843.823-1.067.306-.38.91-1.23 1.63-1.777.265-.201.578-.355.735-.253.126.082.166.272-.036.64-.734 1.343-1.814 2.92-2.012 3.302-.036.066-.005.119.064.119.385-.002.765-.001 1.114-.001.058-.003.084-.03.113-.07.564-.883 1.094-1.724 1.662-2.593.032-.05.061-.011.063.011.011.202.06.477.18.658.215.335.52.48.857.481.269.003.405-.038.694-.146.236-.087.425-.202.57-.306.086-.06.1.04.098.055-.13.7.03 1.531.727 1.876.832.41 1.747-.167 2.274-.689.051-.05.107-.045.112.064.01.199.1.435.265.6.441.444 1.332.268 2.225-.424.573-.443 1.173-1.07 1.716-1.733.02-.025.035-.067-.004-.108-.083-.087-.202-.186-.284-.262-.037-.032-.092-.023-.124.001-.555.53-1.055 1.133-1.778 1.632-.244.17-.633.307-.807.07-.068-.09-.06-.218.007-.385.21-.526 3.547-5.612 3.72-5.913.03-.052 0-.09-.067-.09m-4.676 3.18q.131-.003.243.051c.411.196.28.673.096 1.047a.1.1 0 0 0-.007.077c.007.039.057.077.107.095.017.006.027.019.007.06-.142.304-.272.48-.45.744a2.8 2.8 0 0 1-.57.618c-.337.28-.805.583-1.191.379-.172-.09-.246-.33-.243-.524.01-.548.252-1.11.701-1.662.445-.549.928-.883 1.306-.886"/></g></g><defs><clipPath id="a"><path fill="#fff" d="M0 0h43v15H0z"/></clipPath></defs></svg>