<svg xmlns="http://www.w3.org/2000/svg" width="84" height="24" fill="none" viewBox="0 0 84 24"><g clip-path="url(#a)"><path fill="#000" d="M46.411 13.771c.685-2.078 1.732-2.988 3.335-2.988a3 3 0 0 1 2.454 1.235c.336.537.57 1.132.688 1.753zm11.223 1.364c0-4.643-3.501-8.249-7.986-8.249-4.742 0-8.243 3.736-8.243 8.802 0 4.87 3.597 8.312 8.737 8.312a11.2 11.2 0 0 0 3.08-.479s1.904-.574 2.34-.795a1.005 1.005 0 0 0 .492-1.224c-.17-.466-.871-2.235-.871-2.235a.88.88 0 0 0-.811-.566.9.9 0 0 0-.343.06s-2.428 1.082-3.626 1.082c-1.897 0-3.11-.91-3.83-2.826h8.967c1.474 0 2.094-.553 2.094-1.882M11.729 8.066a.88.88 0 0 0-.264-.627.9.9 0 0 0-.633-.258H7.945V5.527c0-.862.342-1.217 1.21-1.252l1.683-.003a.9.9 0 0 0 .825-.549.9.9 0 0 0 .068-.34L11.725.887A.9.9 0 0 0 11.46.26a.9.9 0 0 0-.632-.259L8.199.02C5.155.094 3.132 2.074 3.132 5.005V7.18l-2.24.005a.9.9 0 0 0-.63.26.88.88 0 0 0-.26.627l.005 2.594c0 .235.096.46.263.626a.9.9 0 0 0 .633.258l2.23.015.003 11.452a.88.88 0 0 0 .555.82.9.9 0 0 0 .342.066H5.52l.035.004.036-.006H7.06a.9.9 0 0 0 .63-.261.88.88 0 0 0 .261-.627L7.945 11.57h2.897a.9.9 0 0 0 .631-.261.9.9 0 0 0 .262-.627zM40.56 6.884h-1.585c-1.795 0-3.306 1.788-3.306 1.788v-.87a.88.88 0 0 0-.263-.626.9.9 0 0 0-.633-.258l-3.02.007a.9.9 0 0 0-.824.548.9.9 0 0 0-.067.34v15.211c0 .235.095.46.263.626a.9.9 0 0 0 .632.259l3.027-.007a.9.9 0 0 0 .826-.549.9.9 0 0 0 .067-.34l-.006-8.3a2.78 2.78 0 0 1 .952-2.284c1.161-1.153 3.939-1.086 3.939-1.086a.87.87 0 0 0 .8-.518.9.9 0 0 0 .069-.326V7.727a.85.85 0 0 0-.259-.6.86.86 0 0 0-.61-.244"/><path fill="#13bdc9" d="m83.11 23.938-4.344.008a.84.84 0 0 1-.587-.24.82.82 0 0 1-.244-.581l-.01-4.312a.82.82 0 0 1 .243-.582.83.83 0 0 1 .585-.242l4.344-.009a.83.83 0 0 1 .768.506q.062.151.063.315l.01 4.312a.82.82 0 0 1-.243.582.83.83 0 0 1-.586.242"/><path fill="#000" d="M20.667 11.635c.761 0 1.505.224 2.138.644a3.83 3.83 0 0 1 1.417 1.713 3.79 3.79 0 0 1-.834 4.161 3.88 3.88 0 0 1-4.193.828 3.84 3.84 0 0 1-1.727-1.406 3.8 3.8 0 0 1-.648-2.121 3.8 3.8 0 0 1 1.128-2.7 3.87 3.87 0 0 1 2.72-1.119m0-4.7c-1.697 0-3.357.5-4.769 1.436a8.53 8.53 0 0 0-3.161 3.823 8.46 8.46 0 0 0-.489 4.921 8.5 8.5 0 0 0 2.35 4.362 8.6 8.6 0 0 0 4.395 2.331 8.65 8.65 0 0 0 4.96-.485 8.57 8.57 0 0 0 3.852-3.137 8.47 8.47 0 0 0 .794-7.992 8.5 8.5 0 0 0-1.861-2.764 8.6 8.6 0 0 0-2.785-1.847 8.6 8.6 0 0 0-3.286-.648m62.441 8.449a.9.9 0 0 0 .632-.263.9.9 0 0 0 .26-.629l-.009-2.101c0-3.186-2.458-5.53-5.801-5.53-1.837 0-3.115.521-5.047 2.082a4.05 4.05 0 0 0-1.345-1.27 6.7 6.7 0 0 0-3.278-.812A5.74 5.74 0 0 0 64.3 8.516v-.75a.9.9 0 0 0-.263-.627.9.9 0 0 0-.633-.26l-2.944.007a.9.9 0 0 0-.632.262.9.9 0 0 0-.26.628l.005 2.991.002.006-.002 12.253a.88.88 0 0 0 .554.82.9.9 0 0 0 .343.066l3.035-.006a.9.9 0 0 0 .633-.261.9.9 0 0 0 .261-.629l-.004-9.555a2.38 2.38 0 0 1 .704-1.772 2.4 2.4 0 0 1 1.786-.699c1.575 0 2.49 1.073 2.49 2.927l.002 9.122a.88.88 0 0 0 .554.82.9.9 0 0 0 .343.067l3.036-.007a.9.9 0 0 0 .632-.262.9.9 0 0 0 .26-.628l-.008-9.57a2.37 2.37 0 0 1 .713-1.787 2.4 2.4 0 0 1 1.81-.683 2.37 2.37 0 0 1 1.787.69 2.33 2.33 0 0 1 .675 1.78v1.04a.88.88 0 0 0 .553.819.9.9 0 0 0 .343.066l1.525-.003"/></g><defs><clipPath id="a"><path fill="#fff" d="M0 0h84v24H0z"/></clipPath></defs></svg>