<svg xmlns="http://www.w3.org/2000/svg" width="91" height="64" fill="none" viewBox="0 0 91 64"><path fill="#717871" d="m7.78 11.11-1.012-1.012-6.657 6.657 4.262 4.25.945-.955-3.24-3.239zm6.055 6.06-6.656 6.656 1.01 1.01 6.656-6.656zm9.003 9.01-6.196 2.462 2.429-6.24-.956-.957-6.657 6.658 1.012 1.012 4.15-4.15.022.011-1.81 4.589.843.843 4.588-1.8.022.023-4.15 4.139 1.013 1.012 6.646-6.646zm6.995 10.558c1.046-1.046 1.113-2.452-.191-3.757l-2.575-2.575-6.658 6.658 2.8 2.8c1.001 1 2.587 1.113 3.745-.034.675-.675 1.012-1.72.45-2.62l.022-.023c1.125.428 1.856.102 2.407-.45M26.01 38.75c-.53.517-1.339.663-2.081-.09l-1.552-1.552 2.002-2.002 1.552 1.552c.753.753.607 1.563.09 2.092zm.72-3.082-1.463-1.462 1.912-1.912 1.462 1.462c.73.731.64 1.519.124 2.025-.529.528-1.294.607-2.025-.124zm11.503 5.906-4.284 4.284c-.922.923-2.002.821-2.767.057-.764-.765-.854-1.856.057-2.767l4.295-4.284-1.012-1.012-4.397 4.397c-1.383 1.383-1.26 3.35.056 4.678 1.316 1.316 3.295 1.44 4.679.056l4.397-4.397-1.012-1.012zm7.681 8.546c-.045-.664-.36-1.237-.922-1.8l-2.598-2.597-6.657 6.657 1.012 1.012 2.834-2.834 1.293 1.294-1.473 4.217 1.192 1.192 1.417-4.499c1.08.529 2.271.315 3.126-.55a2.65 2.65 0 0 0 .754-2.081zm-1.71 1.124c-.562.563-1.428.686-2.192-.078l-1.518-1.519 2.024-2.024 1.574 1.586c.349.348.484.618.529.944.056.36-.079.754-.416 1.091m4.678 3.263c-.608.18-.878.304-2.474 1.9-1.597 1.598-1.72 1.867-1.9 2.475-.26.9-.158 2.226.888 3.283 1.327 1.327 3.418 1.327 4.734 0l1.36-1.36-2.36-2.362-.957.956 1.36 1.36-.348.35c-.832.831-2.013.809-2.777.044a1.81 1.81 0 0 1-.54-1.507c.079-.596.191-.865 1.552-2.226 1.372-1.36 1.63-1.473 2.226-1.552a1.8 1.8 0 0 1 1.507.54c.641.63.664 1.563.304 2.237l1.068 1.069c.877-1.293.9-3.048-.36-4.307a3.36 3.36 0 0 0-3.283-.889z"/><path fill="#d14900" d="m18.317 7.938 1.361-1.36-2.361-2.362-.956.956 1.36 1.36-.348.35c-.832.831-2.013.809-2.778.044a1.79 1.79 0 0 1-.54-1.518c.08-.596.192-.855 1.552-2.227 1.361-1.36 1.63-1.473 2.227-1.551a1.81 1.81 0 0 1 1.507.54c.64.64.663 1.563.315 2.237l1.068 1.069c.877-1.282.9-3.048-.36-4.307A3.36 3.36 0 0 0 17.08.28c-.607.18-.877.304-2.474 1.9-1.597 1.597-1.72 1.867-1.9 2.475-.259.9-.157 2.238.888 3.283 1.327 1.327 3.419 1.327 4.735 0zm3.037 7.759c1.327 1.327 3.418 1.327 4.734 0l1.35-1.35-2.362-2.361-.956.955 1.35 1.361-.35.349c-.831.832-2.012.81-2.777.045-.472-.484-.596-1.046-.54-1.518.08-.596.192-.855 1.552-2.227 1.372-1.36 1.63-1.473 2.227-1.552.472-.056 1.034.068 1.518.54.63.63.664 1.563.304 2.238l1.068 1.068c.877-1.293.9-3.047-.36-4.307a3.36 3.36 0 0 0-3.283-.888c-.608.18-.878.303-2.474 1.9s-1.721 1.867-1.901 2.474c-.259.9-.157 2.238.888 3.284zm7.928 7.828c.99.99 2.17 1.192 3.182.967.765-.169 1.102-.36 2.598-1.856 1.394-1.394 1.62-1.675 1.855-2.564.304-1.158-.022-2.271-.91-3.148l-2.328-2.328-6.647 6.657 2.26 2.26zm4.453-6.961 1.203 1.203c.54.54.742 1.023.63 1.743-.09.63-.36.956-1.552 2.148-1.237 1.237-1.45 1.394-2.013 1.507-.641.123-1.237-.09-1.81-.652l-1.204-1.204z"/><path fill="#717871" d="m35.41 27.968-.831.843 4.25 4.25.945-.955-3.025-3.025 7.973-1.912.754-.753-4.128-4.139-.9.9 2.902 2.901zm14.024 2.394-1.012-1.012-4.397 4.397c-1.383 1.383-1.26 3.35.056 4.666s3.295 1.44 4.678.057l4.397-4.397-1.012-1.012-4.285 4.284c-.91.911-2.001.821-2.766.056s-.855-1.844.056-2.766l4.285-4.284zm8.074 8.074-1.012-1.012-6.646 6.657 1.001 1.012zm3.464 3.464-6.657 6.657 2.26 2.26c.99.99 2.17 1.193 3.182.968.765-.169 1.102-.36 2.598-1.856 1.395-1.394 1.62-1.675 1.844-2.564.304-1.158-.022-2.271-.91-3.148l-2.328-2.328zm1.89 4.926c-.09.64-.36.955-1.553 2.147-1.237 1.237-1.45 1.395-2.013 1.507-.64.124-1.237-.078-1.81-.652l-1.204-1.203 4.746-4.746 1.203 1.203c.54.54.742 1.024.63 1.755z"/><path fill="#d14900" d="m76.333 11.448-6.117 6.118 5.814 5.825.303.304c3.385 3.373 3.385 8.85 0 12.235L88.57 23.695a8.654 8.654 0 0 0 0-12.247 8.674 8.674 0 0 0-12.247 0z"/><path fill="#717871" d="m70.216 17.566-6.118-6.118a8.674 8.674 0 0 0-12.246 0 8.654 8.654 0 0 0 0 12.247L64.098 35.94a8.654 8.654 0 0 0 12.246 0 8.66 8.66 0 0 0 0-12.235l-.303-.304-5.825-5.825zm0-.001 5.814 5.825z"/></svg>