<svg xmlns="http://www.w3.org/2000/svg" width="20" height="20" fill="none" viewBox="0 0 20 20"><g fill="#86848D" clip-path="url(#a)" opacity=".5"><path fill-rule="evenodd" d="M10 .417c-2.375.001-4.67.842-6.478 2.372a9.93 9.93 0 0 0-3.39 5.98 9.9 9.9 0 0 0 1.314 6.738 10 10 0 0 0 5.39 4.287c.497.092.684-.216.684-.477 0-.262-.01-1.021-.013-1.85-2.782.6-3.37-1.175-3.37-1.175-.453-1.152-1.109-1.455-1.109-1.455-.907-.616.068-.605.068-.605 1.005.071 1.533 1.026 1.533 1.026.891 1.52 2.34 1.08 2.91.823.09-.643.35-1.081.636-1.33-2.223-.25-4.557-1.103-4.557-4.913a3.84 3.84 0 0 1 1.03-2.669c-.103-.25-.446-1.261.097-2.634 0 0 .84-.267 2.75 1.019a9.54 9.54 0 0 1 5.008 0c1.91-1.286 2.747-1.02 2.747-1.02.545 1.37.202 2.381.1 2.635a3.83 3.83 0 0 1 1.031 2.672c0 3.818-2.34 4.66-4.565 4.905.358.31.677.914.677 1.842 0 1.33-.011 2.401-.011 2.729 0 .265.18.574.687.477a10 10 0 0 0 5.391-4.288 9.9 9.9 0 0 0 1.313-6.74 9.93 9.93 0 0 0-3.391-5.979 10.04 10.04 0 0 0-6.48-2.37z" clip-rule="evenodd"/><path d="M3.786 14.694c-.021.049-.1.064-.165.03-.065-.035-.113-.1-.09-.15.023-.052.101-.065.166-.03.064.034.114.1.09.15m.405.449a.166.166 0 0 1-.205-.046c-.065-.07-.078-.165-.028-.208s.139-.023.204.046c.064.07.079.165.03.208m.395.571c-.062.043-.166 0-.224-.085a.17.17 0 0 1-.037-.183.2.2 0 0 1 .037-.054c.061-.042.166 0 .224.084.058.083.06.195 0 .238m.534.553c-.055.061-.166.045-.257-.037-.091-.083-.113-.195-.058-.254.055-.06.166-.043.26.038s.113.194.055.253m.749.323c-.024.078-.137.112-.25.08-.112-.034-.187-.126-.165-.205.021-.08.136-.115.25-.08.114.037.187.124.165.205m.819.056c0 .08-.092.15-.211.151-.12.002-.217-.064-.217-.145s.092-.15.212-.151c.119-.002.217.063.217.145m.761-.126c.015.08-.068.164-.187.184-.12.02-.224-.028-.239-.107-.015-.08.071-.165.187-.186.116-.022.224.028.239.108"/></g><defs><clipPath id="a"><path fill="#fff" d="M0 0h20v20H0z"/></clipPath></defs></svg>