<svg xmlns="http://www.w3.org/2000/svg" width="154" height="23" fill="none" viewBox="0 0 154 23"><g clip-path="url(#a)"><path fill="#275da6" d="M27.925.792v10.095h7.187V9.175h-5.133V.792zm12.064 6.542c-.257.077-.642.179-1.181.307-.54.128-.898.23-1.078.332q-.385.269-.385.69c0 .281.103.511.308.716q.308.306.77.306c.36 0 .693-.128 1-.358.232-.178.386-.383.463-.638.051-.154.077-.486.077-.946v-.409zM37.37 5.775 35.6 5.47c.205-.716.539-1.227 1.026-1.585.488-.332 1.207-.51 2.182-.51.873-.001 1.514.101 1.95.306.437.204.72.46.899.792.18.307.257.894.257 1.738l-.026 2.274c0 .639.026 1.125.103 1.431.05.307.18.64.359.997h-1.925c-.051-.128-.103-.332-.18-.588a1.2 1.2 0 0 0-.077-.23 3.7 3.7 0 0 1-1.078.741c-.385.154-.795.23-1.206.23-.77 0-1.36-.204-1.797-.613a2.04 2.04 0 0 1-.667-1.559c0-.409.103-.792.308-1.124s.488-.588.847-.742c.36-.178.873-.332 1.566-.46.924-.178 1.54-.332 1.899-.485v-.205c0-.383-.103-.638-.282-.792-.18-.153-.54-.23-1.053-.23-.36 0-.616.077-.821.205-.231.127-.385.357-.513.715m7.212 5.11-2.335-7.36h1.899l1.386 4.83 1.258-4.83h1.899l1.232 4.83 1.412-4.83h1.925l-2.362 7.36h-1.9L47.74 6.16l-1.257 4.727zm10.934 0h-1.95v-7.36h1.822v1.048c.308-.485.59-.818.847-.97a1.6 1.6 0 0 1 .847-.23 2.6 2.6 0 0 1 1.283.357l-.616 1.686q-.501-.306-.924-.306t-.693.23c-.18.153-.334.409-.462.818-.103.383-.154 1.226-.154 2.478zm7.418-4.319c-.026-.562-.154-.996-.437-1.277a1.4 1.4 0 0 0-1.026-.435c-.437 0-.77.154-1.053.46s-.41.741-.41 1.252zm-.103 1.968 1.95.332c-.256.716-.641 1.253-1.18 1.636s-1.206.562-2.028.562c-1.283 0-2.233-.409-2.849-1.252-.487-.664-.744-1.508-.744-2.53 0-1.227.308-2.172.95-2.862s1.463-1.048 2.438-1.048c1.104 0 1.976.358 2.592 1.099.642.715.95 1.84.924 3.322h-4.902c.026.588.18 1.022.462 1.355.308.332.667.485 1.13.485.307 0 .564-.077.77-.255.23-.205.384-.46.487-.844m9.728 2.352h-1.95V7.13c0-.792-.052-1.303-.13-1.533a1.1 1.1 0 0 0-.41-.537 1.15 1.15 0 0 0-.667-.205c-.334 0-.642.103-.924.282a1.5 1.5 0 0 0-.565.74q-.154.461-.154 1.687v3.323h-1.95v-7.36h1.822V4.6c.642-.843 1.463-1.252 2.438-1.252.437 0 .822.076 1.18.23.36.153.617.357.822.587.18.23.308.512.385.818.077.307.103.741.103 1.304zm7.802-5.188-1.925.358c-.077-.384-.205-.665-.436-.87s-.539-.28-.898-.28c-.488 0-.873.179-1.155.51-.283.333-.437.895-.437 1.687 0 .87.154 1.483.437 1.84.282.358.693.537 1.18.537q.54 0 .924-.307c.231-.204.411-.562.488-1.073l1.925.332q-.308 1.304-1.155 1.994c-.565.46-1.335.664-2.284.664-1.078 0-1.951-.332-2.593-1.022s-.975-1.61-.975-2.811.334-2.147.975-2.837c.642-.69 1.515-1.022 2.618-1.022.899 0 1.617.179 2.156.588.54.332.924.92 1.155 1.712m5.237.868c-.026-.562-.154-.996-.437-1.277a1.4 1.4 0 0 0-1.027-.435c-.436 0-.77.154-1.052.46s-.41.741-.41 1.252zm-.129 1.968 1.95.332c-.256.716-.64 1.253-1.18 1.636s-1.206.562-2.027.562c-1.284 0-2.233-.409-2.85-1.252-.487-.664-.744-1.508-.744-2.53 0-1.227.308-2.172.95-2.862s1.437-1.048 2.438-1.048c1.104 0 1.977.358 2.593 1.099.641.715.95 1.84.924 3.322H82.62c.026.588.18 1.022.488 1.355s.667.485 1.13.485c.307 0 .564-.077.77-.255.204-.205.359-.46.461-.844M91.86.792v10.094h7.188V9.174H93.94V.792zm8.01 10.094h1.95v-7.36h-1.95zm0-8.356h1.95V.715h-1.95zm5.338 8.356-2.978-7.36h2.054l1.386 3.757.41 1.252c.103-.306.18-.536.206-.639.077-.204.128-.409.205-.613l1.412-3.757h2.002l-2.952 7.36zm9.65-4.319c-.025-.562-.154-.996-.436-1.277a1.4 1.4 0 0 0-1.027-.435c-.436 0-.77.154-1.052.46s-.411.741-.411 1.252zm-.102 1.968 1.95.332c-.256.716-.641 1.253-1.18 1.636s-1.207.562-2.028.562c-1.283 0-2.233-.409-2.849-1.252-.488-.664-.719-1.508-.719-2.53 0-1.227.334-2.172.95-2.862.642-.69 1.437-1.048 2.438-1.048 1.104 0 1.977.358 2.593 1.099.641.715.949 1.84.924 3.322h-4.928c.025.588.179 1.022.487 1.355s.668.485 1.13.485c.308 0 .564-.077.77-.255.205-.205.359-.46.462-.844m4.876 2.351h-1.95v-7.36h1.822v1.048c.308-.485.59-.818.847-.97q.385-.23.847-.23c.436-.001.873.127 1.283.357l-.616 1.686q-.5-.306-.924-.306-.423 0-.693.23c-.179.153-.333.409-.436.818-.103.383-.154 1.226-.154 2.478v2.25zm2.901-7.359h1.796v.996c.642-.792 1.412-1.175 2.31-1.175.488 0 .873.102 1.232.28.36.205.642.486.847.87.334-.384.668-.69 1.053-.87.385-.204.77-.28 1.206-.28.539 0 1.001.102 1.386.332s.667.537.847.971c.128.307.205.818.205 1.533v4.703h-1.95V6.67c0-.741-.077-1.201-.206-1.406-.179-.28-.462-.409-.821-.409-.282 0-.539.077-.77.256-.231.153-.411.409-.513.741s-.154.818-.154 1.508v3.526h-1.951V6.85c0-.716-.026-1.176-.103-1.38-.077-.205-.179-.358-.333-.46s-.334-.154-.591-.154a1.36 1.36 0 0 0-.821.256c-.257.153-.411.409-.513.69-.103.307-.154.818-.154 1.508v3.577h-1.951v-7.36zm13.731 3.679c0 .741.18 1.278.514 1.687.359.383.77.588 1.283.588s.95-.205 1.283-.588c.334-.383.514-.946.514-1.687 0-.715-.18-1.277-.514-1.66a1.65 1.65 0 0 0-1.283-.589c-.513 0-.95.205-1.283.588-.36.358-.514.92-.514 1.661m-2.002-.102c0-.639.154-1.278.488-1.865a3.1 3.1 0 0 1 1.36-1.38 4.2 4.2 0 0 1 1.977-.486c1.129 0 2.027.358 2.746 1.073.719.716 1.078 1.636 1.078 2.735q0 1.686-1.078 2.76c-.719.74-1.617 1.099-2.721 1.099a4.4 4.4 0 0 1-1.95-.46 3.2 3.2 0 0 1-1.412-1.33c-.334-.587-.488-1.303-.488-2.146m10.37 3.782h-1.951v-7.36h1.822v1.048c.308-.485.591-.818.847-.97q.385-.23.847-.23c.437-.001.873.127 1.284.357l-.616 1.686q-.501-.306-.924-.306t-.693.23c-.18.153-.334.409-.437.818-.102.383-.154 1.226-.154 2.478v2.25zm7.443-4.319c-.026-.562-.154-.996-.436-1.277a1.4 1.4 0 0 0-1.027-.435c-.436 0-.77.154-1.052.46s-.411.741-.411 1.252zm-.128 1.968 1.95.332c-.256.716-.641 1.253-1.18 1.636s-1.207.562-2.028.562c-1.283 0-2.233-.409-2.849-1.252-.488-.664-.744-1.508-.744-2.53 0-1.227.308-2.172.949-2.862.642-.69 1.438-1.048 2.439-1.048 1.103 0 1.976.358 2.592 1.099.642.715.95 1.84.898 3.322h-4.902c.026.588.18 1.022.462 1.355.308.332.693.485 1.129.485.308 0 .565-.077.77-.255.257-.205.411-.46.514-.844M27.874 23.051V12.88h2.002l4.184 6.798V12.88h1.925v10.17h-2.08L29.8 16.432v6.619zm13.706-3.527c-.257.077-.642.18-1.18.307-.54.128-.9.23-1.079.332q-.385.268-.385.69c0 .281.103.511.308.716q.309.306.77.306c.36 0 .693-.102 1.001-.357.231-.18.385-.384.462-.64.052-.153.077-.485.077-.945v-.409zm-2.618-1.584-1.771-.307c.205-.715.539-1.226 1.027-1.584.487-.332 1.206-.511 2.181-.511.873 0 1.515.102 1.95.306.437.205.72.46.9.793.179.306.256.894.256 1.737l-.026 2.275c0 .639.026 1.124.103 1.43.051.308.18.64.36.997h-1.926c-.051-.127-.102-.332-.18-.587a.7.7 0 0 0-.076-.23 3.7 3.7 0 0 1-1.078.74c-.385.154-.796.23-1.207.23-.77 0-1.36-.204-1.796-.613a2.04 2.04 0 0 1-.668-1.558c0-.41.103-.793.308-1.1a1.84 1.84 0 0 1 .847-.74c.36-.18.873-.333 1.566-.46.924-.18 1.54-.333 1.9-.486v-.204c0-.384-.103-.64-.283-.793s-.54-.23-1.052-.23c-.36 0-.616.077-.822.205-.23.102-.385.332-.513.69m9.215-2.249v1.559h-1.335v2.965c0 .613.026.945.026 1.047a.43.43 0 0 0 .18.256.52.52 0 0 0 .333.102c.18 0 .436-.051.796-.179l.18 1.508c-.463.204-.976.281-1.54.281-.36 0-.668-.051-.95-.179q-.424-.192-.616-.46c-.129-.179-.231-.434-.283-.767-.051-.23-.051-.69-.051-1.38v-3.22h-.898v-1.558h.898v-1.457l1.95-1.124v2.606zm.718 0h1.95v7.36h-1.95zm0-2.811h1.95v1.814h-1.95zm4.877 6.49c0 .742.18 1.279.513 1.688.36.383.77.587 1.283.587.514 0 .95-.204 1.284-.587.333-.384.513-.946.513-1.687 0-.716-.18-1.278-.514-1.661a1.65 1.65 0 0 0-1.283-.588c-.513 0-.95.204-1.283.588-.36.358-.513.92-.513 1.66m-2.002-.101c0-.64.153-1.278.487-1.866a3.1 3.1 0 0 1 1.36-1.38 4.2 4.2 0 0 1 1.977-.485c1.13 0 2.027.357 2.746 1.073.719.715 1.078 1.636 1.078 2.734q0 1.688-1.078 2.76c-.719.741-1.643 1.1-2.72 1.1a4.4 4.4 0 0 1-1.951-.46 3.2 3.2 0 0 1-1.412-1.33c-.334-.587-.487-1.303-.487-2.146m15.246 3.781h-1.951v-3.756c0-.792-.052-1.303-.129-1.533a1.1 1.1 0 0 0-.41-.537 1.15 1.15 0 0 0-.667-.204c-.334 0-.642.102-.925.28a1.5 1.5 0 0 0-.564.742q-.154.46-.154 1.687v3.348h-1.95v-7.36h1.822v1.073c.641-.843 1.462-1.252 2.438-1.252.436 0 .821.076 1.18.23.36.153.617.357.822.587.18.23.308.511.385.818s.103.741.103 1.304zm5.416-3.526c-.257.077-.642.18-1.181.307-.54.128-.898.23-1.078.332q-.385.268-.385.69c0 .281.103.511.308.716q.308.306.77.306c.36 0 .693-.102 1-.357.232-.18.386-.384.463-.64.051-.153.077-.485.077-.945v-.409zm-2.618-1.584-1.771-.307c.205-.715.538-1.226 1.026-1.584.488-.332 1.206-.511 2.182-.511.873 0 1.514.102 1.95.306.437.205.72.46.899.793.18.306.257.894.257 1.737l-.026 2.275c0 .639.025 1.124.102 1.43.052.308.18.64.36.997h-1.925c-.051-.127-.103-.332-.18-.587a.8.8 0 0 0-.077-.23 3.7 3.7 0 0 1-1.078.74 3.3 3.3 0 0 1-1.206.23c-.77 0-1.36-.204-1.797-.613a2.04 2.04 0 0 1-.667-1.558c0-.41.103-.793.308-1.1a1.83 1.83 0 0 1 .847-.74c.36-.18.873-.333 1.566-.46.923-.18 1.54-.333 1.899-.486v-.204c0-.384-.103-.64-.282-.793-.18-.153-.54-.23-1.053-.23-.36 0-.616.077-.821.205-.231.102-.41.332-.513.69m7.776-5.06h-1.95v10.17h1.95zm4.749 10.17V12.983h2.053v8.357h5.133v1.712zm12.089-3.526c-.257.077-.642.18-1.181.307-.54.128-.898.23-1.078.332q-.385.268-.385.69c0 .281.102.511.308.716q.308.306.77.306c.36 0 .693-.102 1-.357.232-.18.386-.384.463-.64.051-.153.077-.485.077-.945v-.409zM91.81 17.94l-1.772-.307c.206-.715.54-1.226 1.027-1.584.488-.332 1.207-.511 2.182-.511.873 0 1.514.102 1.95.306.437.205.72.46.899.793.18.306.257.894.257 1.737l-.026 2.275c0 .639.026 1.124.103 1.43.05.308.18.64.359.997h-1.925c-.051-.127-.103-.332-.18-.587a.8.8 0 0 0-.077-.23 3.7 3.7 0 0 1-1.078.74c-.385.154-.795.23-1.206.23-.77 0-1.36-.204-1.797-.613a2.04 2.04 0 0 1-.667-1.558c0-.41.103-.793.308-1.1.205-.331.488-.587.847-.74.36-.18.873-.333 1.566-.46.924-.18 1.54-.333 1.899-.486v-.204c0-.384-.103-.64-.282-.793-.18-.153-.54-.23-1.053-.23-.36 0-.616.077-.821.205-.257.102-.41.332-.513.69m7.674 1.278c0 .766.128 1.329.36 1.686.333.511.795.767 1.36.767.436 0 .795-.179 1.103-.562.308-.358.462-.946.462-1.738 0-.843-.154-1.457-.462-1.814a1.43 1.43 0 0 0-1.18-.563c-.462 0-.847.18-1.181.537q-.462.575-.462 1.687m-1.95 3.833V12.88h1.95v3.654c.59-.69 1.309-1.022 2.156-1.022.898 0 1.643.332 2.233.971.59.64.873 1.585.873 2.786 0 1.252-.308 2.223-.899 2.913-.59.69-1.334 1.022-2.181 1.022a2.85 2.85 0 0 1-1.258-.306 2.8 2.8 0 0 1-1.052-.92v1.073zm9.701-3.681c0 .742.18 1.279.514 1.688.359.383.77.587 1.283.587s.95-.204 1.283-.587c.334-.384.514-.946.514-1.687 0-.716-.18-1.278-.514-1.661a1.65 1.65 0 0 0-1.283-.588c-.513 0-.95.204-1.283.588-.334.358-.514.92-.514 1.66m-2.002-.101c0-.64.154-1.278.488-1.866a3.1 3.1 0 0 1 1.36-1.38 4.2 4.2 0 0 1 1.977-.485c1.129 0 2.027.357 2.746 1.073.719.715 1.078 1.636 1.078 2.734q0 1.688-1.078 2.76c-.719.741-1.643 1.1-2.721 1.1a4.4 4.4 0 0 1-1.95-.46 3.2 3.2 0 0 1-1.412-1.33c-.308-.587-.488-1.303-.488-2.146m10.395 3.781h-1.95v-7.36h1.822v1.049c.308-.486.59-.818.847-.971q.385-.23.847-.23c.436 0 .873.127 1.283.357l-.616 1.687q-.5-.306-.924-.307-.423 0-.693.23c-.179.154-.333.41-.436.818-.103.383-.154 1.201-.154 2.479v2.249zm7.11-3.526c-.257.077-.642.18-1.181.307-.539.128-.898.23-1.078.332q-.385.268-.385.69c0 .281.103.511.308.716q.308.306.77.306c.36 0 .693-.102 1.001-.357.231-.18.385-.384.462-.64.052-.153.077-.485.077-.945v-.409zm-2.618-1.584-1.771-.307c.205-.715.539-1.226 1.027-1.584.487-.332 1.206-.511 2.181-.511.873 0 1.515.102 1.951.306s.719.46.898.793c.18.306.257.894.257 1.737l-.026 2.275c0 .639.026 1.124.103 1.43.051.308.18.64.359.997h-1.925c-.051-.127-.102-.332-.179-.587-.026-.128-.052-.18-.077-.23a3.7 3.7 0 0 1-1.078.74c-.385.154-.796.23-1.207.23-.77 0-1.36-.204-1.796-.613a2.04 2.04 0 0 1-.668-1.558c0-.41.103-.793.308-1.1a1.84 1.84 0 0 1 .847-.74c.36-.18.873-.333 1.566-.46.924-.18 1.54-.333 1.899-.486v-.204c0-.384-.102-.64-.282-.793s-.539-.23-1.052-.23c-.36 0-.616.077-.822.205-.231.102-.385.332-.513.69m9.214-2.249v1.559H128v2.965c0 .613 0 .945.025 1.047a.43.43 0 0 0 .18.256c.077.076.205.102.334.102.179 0 .436-.051.795-.179l.18 1.508c-.462.204-.975.281-1.54.281-.359 0-.667-.051-.95-.179q-.423-.192-.616-.46c-.128-.179-.231-.434-.282-.767-.051-.23-.051-.69-.051-1.38v-3.22h-.899v-1.558h.899v-1.457l1.95-1.124v2.606zm2.285 3.679c0 .742.179 1.279.513 1.688.359.383.77.587 1.283.587.514 0 .95-.204 1.284-.587.333-.384.513-.946.513-1.687 0-.716-.18-1.278-.513-1.661a1.65 1.65 0 0 0-1.284-.588c-.513 0-.949.204-1.283.588-.334.358-.513.92-.513 1.66m-2.002-.101c0-.64.154-1.278.487-1.866a3.1 3.1 0 0 1 1.361-1.38 4.2 4.2 0 0 1 1.976-.485c1.129 0 2.028.357 2.746 1.073.719.715 1.078 1.636 1.078 2.734q0 1.688-1.078 2.76c-.718.741-1.642 1.1-2.72 1.1a4.4 4.4 0 0 1-1.951-.46 3.2 3.2 0 0 1-1.412-1.33c-.333-.587-.487-1.303-.487-2.146m10.395 3.781h-1.951v-7.36h1.822v1.049c.308-.486.591-.818.847-.971q.385-.23.847-.23c.437 0 .873.127 1.284.357l-.616 1.687q-.501-.306-.924-.307-.424 0-.693.23c-.18.154-.334.41-.437.818-.102.383-.154 1.201-.154 2.479v2.249z"/><path fill="#275da6" d="M142.116 15.69h2.079l1.771 5.24 1.72-5.24h2.028l-2.618 7.08-.462 1.278c-.18.434-.334.766-.488.97-.154.23-.334.41-.539.563s-.462.256-.744.332a3.8 3.8 0 0 1-1.001.128c-.385 0-.745-.051-1.104-.128l-.18-1.533c.308.05.591.076.822.076.462 0 .795-.127 1.001-.408.205-.256.385-.614.513-1.023zM1.822.127H0v22.924h22.15V10.963l-9.24 9.507H8.804c-2.824-.103-6.853-2.25-6.982-7.36z"/><path fill="#275da6" d="M22.176.127h-10.37v10.325h10.37z"/><path stroke="#275da6" stroke-miterlimit="10" stroke-width="2.299" d="M4.98.128v12.65c-.052 2.555 1.95 4.267 4.003 4.523h7.7l3.62-3.552H9.83c-.82-.051-1.283-.588-1.334-1.278V.102"/></g><defs><clipPath id="a"><path fill="#fff" d="M0 0h154v23H0z"/></clipPath></defs></svg>