<svg xmlns="http://www.w3.org/2000/svg" width="229" height="44" fill="none" viewBox="0 0 229 44"><g fill="#3b3b3b" clip-path="url(#a)"><path fill-rule="evenodd" d="M21.69 0c11.93 0 21.7 9.73 21.7 21.67s-9.78 21.72-21.7 21.72S0 33.65 0 21.67 9.73 0 21.69 0m-3 40.44 9.25-16.07h-6.26l3.11-5.39h14.7l-3.12 5.41-5.31-.02-9.38 16.31c10.44 0 19-8.56 19-19.02S32.13 2.72 21.69 2.72c-.76 0-1.53.05-2.24.14l-9.33 16.13h11.57l-3.14 5.39H3.88L15.85 3.65C8.23 6.12 2.7 13.29 2.7 21.67c0 9.44 6.94 17.32 15.99 18.77" clip-rule="evenodd"/><path d="M54.5 32.58h12.88l.75-3.43h-8.54l3.9-18.33h-4.36l-4.61 21.76zm15.78-18.33h6.14l-3.96 18.33h4.55l3.96-18.33h6.14l.72-3.43h-16.8zm15.25 18.33h4.55l4.58-21.76h-4.55zm9.1 0h4.15l3.99-18.02h.06l1.75 18.02h4.18l9.85-18.02h.06l-4.12 18.02h4.61l4.65-21.76h-7.26l-8.57 15.68h-.06l-1.46-15.68h-7.2l-4.61 21.76zm29.12 0h4.18l3.43-16.06h-4.18zm4.08-18.99h4.18l.87-3.99h-4.18zm4.58 18.99h4.18l1.72-8.07c.53-2.4 1.59-5.11 4.49-5.11 1.34 0 2.28.9 2.28 2.24 0 1.18-.25 2.28-.47 3.37l-1.56 7.58h4.18l1.68-7.79c.22-1 .53-2.28.53-3.49 0-3.18-2.09-5.14-5.24-5.14-1.81 0-3.4.87-4.55 1.93h-.06l.28-1.56h-4.08c-.06.5-.22 1.34-.4 2.31l-2.96 13.75zM167.14 9.2l-2.03 9.23c-1.31-1.5-2.9-2.28-4.96-2.28-5.46 0-8.07 5.33-8.07 10.13 0 3.49 1.72 6.67 5.52 6.67 2.43 0 3.99-1 5.24-2.74h.06l-.4 2.37h3.9c.09-.81.34-2.18.59-3.55l4.33-19.83zm-6.3 10.19c2.12 0 3.02 1.93 3.02 3.8 0 2.96-1.81 6.52-4.86 6.52-2.06 0-2.56-2.18-2.56-3.8 0-2.4 1.4-6.52 4.4-6.52m10.66.19h3.02L173.34 25c-.28 1.28-.53 2.49-.53 3.74 0 3.09 2 4.21 4.83 4.21.72 0 1.53-.22 2.24-.37l.72-3.24c-.53.22-1.28.37-2.03.37-.94 0-1.59-.59-1.59-1.56 0-.62.09-1.18.19-1.56l1.53-7.01h3.74l.66-3.06h-3.74l1.03-4.77-4.49 1.46-.72 3.3h-3.02l-.66 3.06zm11.13 13h4.18l1.5-7.2c.53-2.59 1.96-5.24 4.93-5.24.53 0 1.12.09 1.59.25l.87-4.08c-.5-.12-1.06-.16-1.59-.16-1.93 0-3.99 1.65-4.74 3.4h-.06l.56-3.02h-3.99c-.12.75-.25 1.46-.37 2.15l-2.87 13.91zm27.78-6.73c.25-1.18.4-2.37.4-3.58 0-4.08-2.62-6.11-6.58-6.11-5.27 0-9.13 4.8-9.13 9.79s3.12 7.01 7.73 7.01c1.72 0 3.49-.4 5.11-.9l.53-3.3c-1.56.72-3.21 1.15-4.93 1.15-2.87 0-4.46-1.09-4.46-4.05h11.32zm-10.76-2.87c.81-2.21 1.93-3.77 4.52-3.77 1.75 0 2.65.97 2.65 2.68 0 .37-.03.72-.09 1.09zm28.09 2.87c.25-1.18.4-2.37.4-3.58 0-4.08-2.62-6.11-6.58-6.11-5.27 0-9.13 4.8-9.13 9.79s3.12 7.01 7.73 7.01c1.72 0 3.49-.4 5.11-.9l.53-3.3c-1.56.72-3.21 1.15-4.93 1.15-2.87 0-4.46-1.09-4.46-4.05h11.32zm-10.76-2.87c.81-2.21 1.93-3.77 4.52-3.77 1.75 0 2.65.97 2.65 2.68 0 .37-.03.72-.09 1.09z"/></g><defs><clipPath id="a"><path fill="#fff" d="M0 0h228.15v43.39H0z"/></clipPath></defs></svg>