<svg xmlns="http://www.w3.org/2000/svg" width="30" height="17" fill="none" viewBox="0 0 30 17"><path fill="#67707E" d="M21.987 12.321h-2.339V17h2.36v-2.111l2.784 2.11h2.358v-4.678h-2.36v2.13zM15 0C6.715 0 0 6.878 0 15.363q0 .83.084 1.637h1.57a14 14 0 0 1-.093-1.637C1.561 7.762 7.578 1.6 15 1.6s13.439 6.163 13.439 13.764q0 .831-.094 1.637h1.57q.085-.816.085-1.637C30 6.878 23.284 0 15 0m1.259 12.321H13.75L10.778 17h2.434l.33-.524h2.925l.33.524h2.435zm-.57 2.912H14.32l.684-1.083zM5.02 12.32H2.808V17h2.36v-1.85l1.409 1.443 1.409-1.443V17h2.36v-4.68H8.131l-1.555 1.594z"/></svg>