<svg xmlns="http://www.w3.org/2000/svg" viewBox="0 0 468 186"><g fill="none"><path fill="#fff" d="M369.8 62.3V56l35.3-1.4 1.8-39h6.9l1.4 38.9 37.4 1.3-.1 6.9-37.2 1.1-1.7 70.8h-7.3L405 63.7z"/><path fill="#4d9db7" d="M367.5 63.4c0-1.2 1-2.1 2.1-2.1l36.6 1.6 1.5 71.6c0 1.2-1 2.2-2.2 2.2h-15.6c-1.2 0-2.2-1-2.2-2.2l.1-54.5h-20.5V63.4z"/><path fill="#006388" d="M387.9 64.3c0-1.2 1-2.2 2.2-2.2l16.2.7.3 15c0 1.2-1 2.1-2.2 2.1h-16.5z"/><path fill="#ef3a43" d="m414.3 62.8 51.2-1.8c1.2 0 2.2 1 2.2 2.1V78c0 1.2-.9 2.2-2.1 2.2h-32.7v74.9c0 1.2-1 2.1-2.2 2.1h-16c-1.2 0-2.2-1-2.2-2.1z"/><path fill="#b52025" d="M432.9 80.1V64.4c0-1.2-.9-2.1-2.1-2.1l-16.5.6L414 78c0 1.2.8 2.1 2 2.1z"/><path fill="#a7ae7b" d="M432.8 2.1c0-1.2-1-2.1-2.2-2.1h-15.9c-1.2 0-2.1 1-2.1 2.1l1.7 53.3 38.4 1.3c1.2 0 2.2-1 2.2-2.1V40.4c0-1.2-1-2.2-2.2-2.2h-19.9z"/><path fill="#3f6966" d="M432.8 38.3H416c-1.2 0-2.2 1-2.2 2.2l.5 15 16.3.5c1.2 0 2.2-1 2.2-2.1z"/><path fill="#f99d27" d="M359.4 54.9c0 1.2 1 2.1 2.1 2.1l44.7-1.6 1.5-39.8c0-1.2-1-2.1-2.2-2.1h-15.6c-1.2 0-2.2 1-2.2 2.1l.1 22.7h-26.4c-1.2 0-2.2 1-2.2 2.1v14.5z"/><path fill="#ee5a2a" d="M387.9 53.9c0 1.2 1 2.2 2.2 2.2l16.2-.6.6-15c0-1.2-1-2.1-2.2-2.1H388z"/><path fill="#006388" d="m351.6 80-.2.5-19.4 57.2-19.8-57.8H296l28.3 76.7-2.8 7.5c-2.3 6-6.1 7.5-10.5 8.1-2.5.4-6 .6-11.2-.1l4.9 13.2c2.7.4 3.4.5 4.3.5 12 0 20.8-3.8 27.7-22.6L367.5 80zm-77.3 64.8c-13.1-.6-21.9-9.6-21.9-26.4 0-16.4 7.7-24.5 20.4-26.2 6.1-.8 12.3.3 17.6 1.6l-5.2-14c-4.3-.9-8.5-1.3-12.2-1.3-22.5.3-36.1 15.7-36.1 40.1 0 24.3 13.9 39 35.8 39.9 12.6.5 21.4-3.2 28.9-7.6l-4.4-12.4c-7.1 3.4-13.1 6.8-22.9 6.3m-82 12.1V80h12.5l2.2 14.2.4-.5C214 84.4 223.1 79 233 78.4h.6l2.4 14.8h-.8c-11.2.6-22 7.8-27.5 18.4v45.3zm-46-78.5c20.1 0 32.65 14.4 32.9 37.79v4.41h-51.3v.3c.7 15.8 8.1 24.2 21.3 24.2 10 0 17.42-3.89 23.67-8.55l.73-.55 4.6 12.5c-8.7 6.7-18.6 10-30.2 10-22.4 0-35.7-15.1-35.7-40.3 0-23.8 13.7-39.8 34-39.8m-.1 12.4c-8.59 0-15.13 6.33-17.41 17.07l-.09.43-.1.3h34.8v-.3c-1.9-11.9-7.4-17.5-17.2-17.5M43.4 157.2 14.8 82.9v74.3H0V53.1h19.4l30.5 80.2 30.5-80.2h19.3v104.1H84.8V82.8l-29.1 74.4z"/></g></svg>