<svg xmlns="http://www.w3.org/2000/svg" width="65" height="18" fill="none" viewBox="0 0 65 18"><path fill="#8B8D98" fill-rule="evenodd" d="M34.37 17.558h8.863c1.324 0 2.411-.543 3.294-1.63.85-1.053 1.29-2.31 1.29-3.736 0-2.886-3.7-4.924-5.128-4.924h-4.856c-.374 0-.68-.17-.917-.441a1.66 1.66 0 0 1-.374-1.053c0-.476.136-.883.374-1.223.272-.34.611-.543 1.019-.543h9.101V.374h-9.271c-1.665 0-2.956.51-3.873 1.494-.814.917-1.222 2.14-1.222 3.6 0 1.426.408 2.683 1.222 3.701.917 1.12 2.005 1.699 3.33 1.699h5.603c.34 0 .611.102.815.373.237.271.34.611.34.985 0 .442-.17.85-.442 1.189-.306.306-.645.475-1.086.475h-8.966l-.136-.238-3.362-10.8-.17-.339C29.003.85 27.645.034 25.777.034c-1.02 0-1.936.238-2.751.747-.85.51-1.393 1.257-1.698 2.208L16.81 17.524l4.109.034L25.063 4.62c.102-.407.34-.611.645-.611a.56.56 0 0 1 .408.17c.102.135.17.271.204.441l4.177 12.94zM3.803 5.672v11.852H0V4.38C0 2.682.408 1.493 1.29.78 1.97.271 2.99 0 4.416 0c1.154 0 2.14.34 3.022.985.883.645 1.46 1.528 1.766 2.615l2.48 8.728.407 1.189c.034.237.17.407.306.543.17.136.34.204.543.136.34-.034.51-.238.51-.544V.408h3.905v13.075c0 1.46-.339 2.547-1.052 3.328-.68.781-1.698 1.189-3.057 1.189-1.189 0-2.174-.238-2.955-.645-.95-.476-1.562-1.223-1.834-2.208l-2.852-9.95L5.4 4.55c-.068-.238-.204-.407-.374-.577-.17-.136-.373-.17-.577-.136s-.34.136-.475.34c-.112.184-.17.395-.17.61zm60.79 11.886L60.18 2.853l-.17-.34C59.195.85 57.837.034 55.969.034c-1.02 0-1.936.238-2.751.747-.85.51-1.393 1.257-1.699 2.208l-4.517 14.535 4.11.034L55.255 4.62c.102-.407.34-.611.645-.611a.56.56 0 0 1 .408.17c.102.135.17.271.204.441l4.177 12.94z" clip-rule="evenodd"/></svg>