<svg xmlns="http://www.w3.org/2000/svg" width="50" height="18" fill="none" viewBox="0 0 50 18"><path fill="#8B8D98" d="M5.515 17.993q-2.233-.09-3.661-1.237a7 7 0 0 1-.761-.769 4.8 4.8 0 0 1-.825-1.498c-.539-1.632-.261-3.773.794-6.123.904-2.012 2.299-4.007 4.732-6.77A138 138 0 0 1 7.227 0c.002 0-.056.102-.13.226-.632 1.07-1.173 2.331-1.468 3.423-.474 1.751-.417 3.254.167 4.42.403.802 1.094 1.498 1.87 1.882 1.36.673 3.35.729 5.78.163.168-.039 8.46-2.262 18.428-4.941S49.999.304 50 .306c.003.002-23.158 10.013-35.181 15.207-1.904.822-2.414 1.03-3.309 1.347-2.288.812-4.338 1.2-5.995 1.133"/></svg>