<svg xmlns="http://www.w3.org/2000/svg" width="72" height="74" fill="none" viewBox="0 0 72 74"><g clip-path="url(#a)"><mask id="b" width="72" height="74" x="0" y="0" maskUnits="userSpaceOnUse" style="mask-type:luminance"><path fill="#fff" d="M72 0H0v74h72z"/></mask><g mask="url(#b)"><path fill="#7fb82c" d="M32.263.212s-1.443 3.89-10.795 6.411c-9.352 2.522-10.456 2.86-13.752 9.624a36 36 0 0 1-2.554 5.536c-1.56 2.683-8.05 12.248-3.584 25.9 4.636 14.171 13.26 20.738 24.134 24.725 10.875 3.986 26.69-.23 33.275-6.45 6.586-6.222 10.51-14.682 11.02-22.58.238-2.15 1.29-7.166 1.167-8.545-.124-1.38-.108-4.26-.216-7.53-.109-3.271-1.931-3.731-2.854-4.396-.923-.664-3.03-1.984-3.915-2.69-.886-.707-1.09-2.265-1.045-2.92s1.429-1.619 1.383-2.254c-.045-.635-1.305-1.107-1.305-1.107-.29-.127-.205-.396-.222-.692s-.538-.026-.749-.093-.052-.302.01-.547c.063-.244-.2-.326-.279-.394s-.045-.116.024-.367c.068-.25.066-.408-.119-.549-.185-.14-1.252-.16-1.647-.2-.394-.04-.448-.226-.831-.592S56.978 8.85 56.978 8.85c-2.705-1.378-5.956.463-7.862 1.95-1.906 1.488-6.337 3.862-8.451 4.254s-4.045.37-7.511 1.09c-3.466.718-5.08 4-4.144 5.61.846 1.452 2 .747 2 .747-.41-.613-.436-1.034-.205-2.212.23-1.178 3.08-1.203 3.08-1.203-.945.56-1.172 1.063-1.83 2.658-.657 1.595-1.147 2.01-2.839 2.178s-1.671-1.476-1.671-1.476-1.37 2.306.753 3.328c2.122 1.021 4.674-1.737 7.153-4.193s6.593-2.825 6.593-2.825c-5.234 1.758-8.073 6.758-11.327 7.99s-4.648-1.567-4.648-1.567c2.015 7.912 10.308 1.093 10.308 1.093-2.639 5.527-9.332 3.631-9.332 3.631 5.008 6.188 11.042.217 11.99-1.452a15.7 15.7 0 0 1 3.08-3.68c-.828.83-1.123 1.96-1.73 4.59-.606 2.631-3.054 3.418-3.054 3.418 7.468-.45 7.696-6.577 7.696-6.577-.022.61.257.812.691 2.318s-.65 3.043-.65 3.043c2.421-.815 2.234-3.314 2.845-6.212s1.67-2.707 1.67-2.707c-1.1 1.076-1.5 3.975.49 4.162s2.588-1.819 2.588-1.819c-.9.551-1.184.113-1.206-.567-.022-.681 2.092-2.824 3.977-3.67 1.886-.845 2.366-.573 2.897-.113.532.46.772 1.529.748 1.967-.024.437-1.178.654-1.848 1.174s-1.6 2.03-1.952 2.482-4.79 5.63-5.967 6.699c-1.178 1.069-3.058 2.86-3.588 3.593s-1.886 3.01-3.439 4.39c-1.552 1.38-1.598 2.858-1.765 3.233-.168.375-.486 2.23-.746 2.794-.26.563-.473 1.377.156 1.182s1.234-1.483 1.352-1.737c.117-.254.67-.95.838-1.238.17-.29.496-1.33 1.095-1.076.6.253.408.968.741 1.57.334.602.9.475 1.073.255.174-.221-.095-.593-.282-.73-.188-.138-.143-.344-.004-.837.139-.494-.173-.855-.341-1.628s.031-.884.522-1.415c.49-.531 1.92-1.537 3.296-2.866 1.375-1.328 4.412-4.529 5.375-5.503a8.6 8.6 0 0 1 1.59-1.218c.968-.673 1.83-.957 4.013-3.162.569-.574 1.14-1.82 2.012-.24s1.885 6.882 1.885 6.882c1.256 6.713-2.621 7.911-4.272 9.059-1.65 1.147-6.916 3.531-9.458 8.518-1.981 3.89-10.014 6.917-10.014 6.917-11.442 3.535-19.754-1.68-25.378-9.948-5.624-8.266-4.98-21-4.935-23.72.045-2.721 1.783-2.701 1.783-2.701 2.398-.424 6.087 1.769 7.809 4.617s1.719 5.401 1.556 5.906c-.162.504.197.395.197.395 2.375-1.355 2.091-4.444 2.082-5.03s.166-.636.166-.636c2.877-2.63-.681-6.03-1.155-6.52-.09-.094-.17-.2-.232-.315.616-.385 1.098-1.238-.572-2.822 0 0 2.835-1.707 1.26-5.002a.7.7 0 0 1-.058-.292c-.007-.416.709-.35.709-.35 4.67-.544 4.858-3.649 4.729-4.31-.13-.66.349-.687.349-.687 4.318-1.862 4.935-6.749 4.929-7.704-.007-.955-.325-.37-.325-.37"/><path stroke="#93b628" stroke-miterlimit="10" stroke-width=".314" d="M32.263.212s-1.443 3.89-10.795 6.411c-9.352 2.522-10.456 2.86-13.752 9.624a36 36 0 0 1-2.554 5.536c-1.56 2.683-8.05 12.248-3.584 25.9 4.636 14.171 13.26 20.738 24.134 24.725 10.875 3.986 26.69-.23 33.275-6.45 6.586-6.222 10.51-14.682 11.02-22.58.238-2.15 1.29-7.166 1.167-8.545-.124-1.38-.108-4.26-.216-7.53-.109-3.271-1.931-3.731-2.854-4.396-.923-.664-3.03-1.984-3.915-2.69-.886-.707-1.09-2.265-1.045-2.92s1.429-1.619 1.383-2.254c-.045-.635-1.305-1.107-1.305-1.107-.29-.127-.205-.396-.222-.692s-.538-.026-.749-.093-.052-.302.01-.547c.063-.244-.2-.326-.279-.394s-.045-.116.024-.367c.068-.25.066-.408-.119-.549-.185-.14-1.252-.16-1.647-.2-.394-.04-.448-.226-.831-.592S56.978 8.85 56.978 8.85c-2.705-1.378-5.956.463-7.862 1.95-1.906 1.488-6.337 3.862-8.451 4.254s-4.045.37-7.511 1.09c-3.466.718-5.08 4-4.144 5.61.846 1.452 2 .747 2 .747-.41-.613-.436-1.034-.205-2.212.23-1.178 3.08-1.203 3.08-1.203-.945.56-1.172 1.063-1.83 2.658-.657 1.595-1.147 2.01-2.839 2.178s-1.671-1.476-1.671-1.476-1.37 2.306.753 3.328c2.122 1.021 4.674-1.737 7.153-4.193s6.593-2.825 6.593-2.825c-5.234 1.758-8.073 6.758-11.327 7.99s-4.648-1.567-4.648-1.567c2.015 7.912 10.308 1.093 10.308 1.093-2.639 5.527-9.332 3.631-9.332 3.631 5.008 6.188 11.042.217 11.99-1.452a15.7 15.7 0 0 1 3.08-3.68c-.828.83-1.123 1.96-1.73 4.59-.606 2.631-3.054 3.418-3.054 3.418 7.468-.45 7.696-6.577 7.696-6.577-.022.61.257.812.691 2.318s-.65 3.043-.65 3.043c2.421-.815 2.234-3.314 2.845-6.212s1.67-2.707 1.67-2.707c-1.1 1.076-1.5 3.975.49 4.162s2.588-1.819 2.588-1.819c-.9.551-1.184.113-1.206-.567-.022-.681 2.092-2.824 3.977-3.67 1.886-.845 2.366-.573 2.897-.113.532.46.772 1.529.748 1.967-.024.437-1.178.654-1.848 1.174s-1.6 2.03-1.952 2.482-4.79 5.63-5.967 6.699c-1.178 1.069-3.058 2.86-3.588 3.593s-1.886 3.01-3.439 4.39c-1.552 1.38-1.598 2.858-1.765 3.233-.168.375-.486 2.23-.746 2.794-.26.563-.473 1.377.156 1.182s1.234-1.483 1.352-1.737c.117-.254.67-.95.838-1.238.17-.29.496-1.33 1.095-1.076.6.253.408.968.741 1.57.334.602.9.475 1.073.255.174-.221-.095-.593-.282-.73-.188-.138-.143-.344-.004-.837.139-.494-.173-.855-.341-1.628s.031-.884.522-1.415c.49-.531 1.92-1.537 3.296-2.866 1.375-1.328 4.412-4.529 5.375-5.503a8.6 8.6 0 0 1 1.59-1.218c.968-.673 1.83-.957 4.013-3.162.569-.574 1.14-1.82 2.012-.24s1.885 6.882 1.885 6.882c1.256 6.713-2.621 7.911-4.272 9.059-1.65 1.147-6.916 3.531-9.458 8.518-1.981 3.89-10.014 6.917-10.014 6.917-11.442 3.535-19.754-1.68-25.378-9.948-5.624-8.266-4.98-21-4.935-23.72.045-2.721 1.783-2.701 1.783-2.701 2.398-.424 6.087 1.769 7.809 4.617s1.719 5.401 1.556 5.906c-.162.504.197.395.197.395 2.375-1.355 2.091-4.444 2.082-5.03s.166-.636.166-.636c2.877-2.63-.681-6.03-1.155-6.52-.09-.094-.17-.2-.232-.315.616-.385 1.098-1.238-.572-2.822 0 0 2.835-1.707 1.26-5.002a.7.7 0 0 1-.058-.292c-.007-.416.709-.35.709-.35 4.67-.544 4.858-3.649 4.729-4.31-.13-.66.349-.687.349-.687 4.318-1.862 4.935-6.749 4.929-7.704-.007-.955-.325-.37-.325-.37Z"/><path fill="#002a59" d="M10.83 62.728v10.009H8.77l-5.408-6.413v6.413H.919V62.728h2.239l5.232 6.118v-6.118zm6.726-.128q2.504 0 4.054 1.543a4.9 4.9 0 0 1 1.145 1.63c.267.618.405 1.287.405 1.963a4.9 4.9 0 0 1-.407 1.974 4.8 4.8 0 0 1-1.165 1.63q-1.571 1.526-4.033 1.526-2.49 0-4.054-1.518a4.9 4.9 0 0 1-1.154-1.632 4.96 4.96 0 0 1-.006-3.94 4.9 4.9 0 0 1 1.15-1.635q1.553-1.54 4.064-1.54m0 8.188c.41.019.818-.046 1.202-.19a3.1 3.1 0 0 0 1.036-.652 3.3 3.3 0 0 0 .849-2.212c0-.82-.303-1.61-.85-2.212a3.1 3.1 0 0 0-1.035-.649 3 3 0 0 0-1.202-.19 3.07 3.07 0 0 0-2.248.839 3.3 3.3 0 0 0-.852 2.212c0 .82.304 1.611.852 2.212.301.286.655.507 1.041.652s.797.21 1.207.19m6.697-8.061h4.378a3.23 3.23 0 0 1 2.314.841c.284.254.51.568.664.92.153.35.231.732.227 1.117q0 1.654-1.683 2.449.737.343 1.402 1.846t1.284 2.836H30.16q-.24-.495-.836-1.884-.595-1.39-1.02-1.784a1.32 1.32 0 0 0-.909-.395h-.701v4.063h-2.441zm2.441 1.834v2.279h1.291c.35.02.696-.086.978-.298.122-.102.217-.233.28-.38a1.06 1.06 0 0 0 .082-.469q0-1.132-1.396-1.132zm13.352-1.834v1.834H35.74v2.234h4.305v1.834H35.74v4.106h-2.441V62.728zm6.453-.128q2.504 0 4.054 1.543a4.9 4.9 0 0 1 1.146 1.63c.267.618.404 1.287.404 1.963a4.9 4.9 0 0 1-.407 1.974 4.8 4.8 0 0 1-1.164 1.63q-1.572 1.526-4.033 1.526-2.49 0-4.054-1.518a4.9 4.9 0 0 1-1.155-1.632 4.96 4.96 0 0 1-.005-3.94 4.9 4.9 0 0 1 1.149-1.635q1.553-1.54 4.065-1.54m0 8.188c.409.019.818-.046 1.202-.19a3.1 3.1 0 0 0 1.035-.652 3.3 3.3 0 0 0 .85-2.212c0-.82-.304-1.61-.85-2.212a3.43 3.43 0 0 0-2.243-.838c-.821 0-1.616.297-2.243.838a3.3 3.3 0 0 0-.852 2.212c0 .82.304 1.611.852 2.212.301.286.655.507 1.041.652s.797.21 1.207.19m14.168.113v1.835h-7.47v-10.01h2.44v8.175zm9.452-8.174-3.191 4.707 4.327 5.302h-3.05l-3.887-4.693v4.693h-2.44v-10.01h2.44v4.507l3.115-4.506zm-27.972-3.492h-1.267v2.232h-.517v-2.232h-1.267v-.476h3.051zm3.642 2.232h-.518v-1.171h-2.047v1.17h-.517v-2.706h.517v1.06h2.047v-1.06h.518zm3.756 0h-2.852V58.76h2.754v.475H47.21v.586h1.555v.475H47.21v.695h2.334zm5.134-2.056-.474.168a1.47 1.47 0 0 0-1.082-.432 1.4 1.4 0 0 0-.9.266.87.87 0 0 0-.337.692.89.89 0 0 0 .337.693c.266.188.586.28.909.263a1.4 1.4 0 0 0 1.081-.44l.444.242c-.192.221-.43.396-.695.513a1.9 1.9 0 0 1-.843.16c-.46.023-.914-.12-1.282-.402a1.3 1.3 0 0 1-.37-.475 1.33 1.33 0 0 1 .038-1.178c.096-.18.233-.333.398-.449a2.095 2.095 0 0 1 2.776.38m1.241-.653h-.517v2.708h.517zm2.257.48v2.228h-.518V59.24H56.39v-.48h3.052v.48zm3.482 1.162v1.066h-.518v-1.066l-1.5-1.642h.629l1.134 1.233 1.133-1.233h.63zm6.603-.294a1.3 1.3 0 0 1-.556 1.082 2.16 2.16 0 0 1-2.374 0 1.3 1.3 0 0 1-.41-.47 1.33 1.33 0 0 1 .003-1.219c.098-.188.239-.348.41-.468a2.1 2.1 0 0 1 2.367 0 1.3 1.3 0 0 1 .56 1.074m-.538-.003a.86.86 0 0 0-.337-.69 1.53 1.53 0 0 0-1.743.002.87.87 0 0 0-.339.692.89.89 0 0 0 .332.695c.256.19.566.283.881.267.313.016.621-.078.874-.267a.85.85 0 0 0 .33-.7m4.04-.867h-2.237v.585h1.557v.475h-1.556v1.171h-.517V58.76h2.754zm-1.205 4.11c0-.116.033-.228.095-.325a.7.7 0 0 1 .264-.24.8.8 0 0 1 .73 0 .67.67 0 0 1 .261.241.61.61 0 0 1-.002.656.7.7 0 0 1-.265.237.79.79 0 0 1-.723-.003.7.7 0 0 1-.265-.239.6.6 0 0 1-.095-.326m.133 0c0 .096.028.19.08.27a.61.61 0 0 0 .509.263.64.64 0 0 0 .298-.071.56.56 0 0 0 .217-.195.49.49 0 0 0 0-.534.56.56 0 0 0-.217-.195.65.65 0 0 0-.59 0 .55.55 0 0 0-.216.195.5.5 0 0 0-.08.267m.66-.343a.27.27 0 0 1 .171.053.17.17 0 0 1 .067.137.2.2 0 0 1-.058.137.24.24 0 0 1-.155.062v.003a.2.2 0 0 1 .077.044.7.7 0 0 1 .095.124l.091.139h-.175l-.036-.062a1 1 0 0 0-.087-.139.3.3 0 0 0-.072-.07.16.16 0 0 0-.086-.02h-.064v.29h-.143v-.698zm-.055.303a.2.2 0 0 0 .106-.027.09.09 0 0 0 .038-.074.08.08 0 0 0-.04-.073.2.2 0 0 0-.104-.026h-.175v.2z"/></g></g><defs><clipPath id="a"><path fill="#fff" d="M0 0h72v74H0z"/></clipPath></defs></svg>