<svg xmlns="http://www.w3.org/2000/svg" width="138" height="67" fill="none" viewBox="0 0 138 67"><path fill="#545454" d="M101.923 28.18c-4.929.787-7.294 4.334-7.294 10.64s3.351 10.642 8.28 10.642 4.534-.789 9.068-2.956v5.123c-5.323 2.562-8.477 3.153-13.011 3.153-4.535 0-8.083-1.182-10.646-3.941-2.76-2.759-4.14-6.503-4.14-10.444 0-9.065 6.703-15.174 16.56-15.174s11.04 2.956 11.04 7.291-2.169 4.73-5.126 4.73-2.957-.394-4.534-1.38V28.18zM78.069 40.2c4.337-5.518 5.914-7.686 5.914-10.444 0-2.76-2.169-4.927-4.929-4.927s-3.351.788-4.14 1.774v11.232l-7.097 9.459V25.617h-6.703l-11.237 18.72v-18.72h-3.943L35.683 28.18v2.562l5.52.591v22.859h7.294L59.34 36.456V54.19h7.886l11.04-13.99zm-63.875-8.67c1.577 0 2.563-.395 3.352-.395 4.731 0 7.294 3.153 7.294 9.065s-3.154 10.64-8.871 10.64H14.39V31.727zm0 22.464h4.732c9.66 0 15.771-6.109 15.771-15.37 0-9.263-4.534-13.598-10.843-13.598-6.308 0-4.534.591-9.66 3.744v-3.744h-2.957L0 28.376v2.759h4.731v31.924l-4.14.985v2.562h18.335v-2.562l-4.732-.985v-9.262z"/><path fill="#fd5108" d="M96.797 17.341H66.24l5.126-8.67h30.557zM137.803 0h-30.557l-5.126 8.67h30.557z"/></svg>