<svg xmlns="http://www.w3.org/2000/svg" width="32" height="23" fill="none" viewBox="0 0 32 23"><g clip-path="url(#a)"><path fill="#67707E" d="M21.346 13.255c2.103 0 5.146-.412 5.146-2.789a2 2 0 0 0-.053-.546l-1.252-5.168c-.291-1.138-.544-1.653-2.645-2.652-1.63-.792-5.184-2.1-6.234-2.1-.979 0-1.262 1.197-2.429 1.197-1.123 0-1.956-.894-3.008-.894-1.008 0-1.664.654-2.173 1.997 0 0-1.414 3.79-1.595 4.338a1 1 0 0 0-.037.31c0 1.473 6.102 6.301 14.28 6.301m5.468-1.818c.291 1.308.291 1.446.291 1.619 0 2.235-2.647 3.477-6.125 3.477-7.86.004-14.746-4.372-14.746-7.265 0-.403.086-.8.253-1.17C3.66 8.225 0 8.706 0 11.773 0 16.804 12.538 23 22.468 23 30.08 23 32 19.728 32 17.147c0-2.033-1.849-4.339-5.183-5.716"/></g><defs><clipPath id="a"><path fill="#fff" d="M0 0h32v23H0z"/></clipPath></defs></svg>