<svg xmlns="http://www.w3.org/2000/svg" height="40" aria-hidden="true" viewBox="0 0 72 40"><path fill="#888888" fill-rule="evenodd" d="M16.2 39h39.7L72 19.5 55.9 0H16.2L0 19.5zM55 37H17L2.6 19.4 17.1 2H55l14.5 17.6L55 36.9zM17 19.1V26h-2.2V10.8h4.3c1.2 0 2 .3 2.8 1 .6.8 1 1.7 1 3a4 4 0 0 1-.6 2.2c-.3.6-.8 1-1.4 1.3.3.1.6.4.9.7l.4 1.5.6 5.5h-2.2l-.5-5.3c-.1-.5-.2-.9-.5-1.1-.2-.2-.5-.4-1-.4H17zm0-6.4v4.4h2c.5 0 1-.1 1.2-.5.4-.4.5-1 .5-1.7 0-.8-.2-1.3-.5-1.7-.2-.3-.7-.5-1.2-.5zm13 13c-.5.3-1.2.5-2 .5s-1.4-.2-2-.6c-.6-.3-1.1-.9-1.4-1.6-.4-.6-.5-1.5-.5-2.4v-2c0-1 .1-1.8.5-2.5A3.7 3.7 0 0 1 28 15c.8 0 1.4.2 2 .6s1.1.9 1.4 1.6c.4.7.5 1.5.5 2.4v2.1c0 1-.1 1.8-.5 2.4-.3.7-.8 1.3-1.4 1.6m-3.4-2.1c.4.4.8.6 1.4.6s1-.2 1.4-.6c.3-.5.5-1.1.5-2v-2.2a3 3 0 0 0-.5-1.9c-.4-.4-.8-.6-1.4-.6s-1 .2-1.4.6a3 3 0 0 0-.5 1.9v2.3c0 .8.2 1.4.5 1.9m13.5 1.7c-.6.6-1.5 1-2.5 1-1.2 0-2.2-.5-2.9-1.3a5 5 0 0 1-1-3.4v-2a5 5 0 0 1 1-3.4c.8-.9 1.7-1.3 3-1.3 1 0 1.9.3 2.5 1 .6.5 1 1.4 1.2 2.5l-2 .5c-.2-1.4-.8-2-1.8-2-.6 0-1 .2-1.4.6-.3.5-.5 1.1-.5 1.9v2.3c0 .8.2 1.4.5 1.9.4.4.8.6 1.4.6.5 0 .9-.1 1.2-.5q.45-.45.6-1.5l2 .5c-.2 1.1-.6 2-1.3 2.6m4.9-6.5V26h-2V10.8h2V16c.2-.3.5-.5 1-.8a3 3 0 0 1 1.4-.3c1 0 1.7.3 2.2 1 .5.5.8 1.4.8 2.5V26h-2v-7.2c0-.6-.2-1.1-.5-1.5-.3-.3-.7-.5-1.2-.5s-1 .2-1.2.5A2 2 0 0 0 45 19zm13.6-2.7c.6.8 1 2 1 3.3V21H54v.9c0 .8.2 1.4.5 1.9.4.4.8.6 1.3.6s.9-.1 1.2-.5c.3-.3.5-.7.6-1.3l1.8.4c-.1 1-.5 1.8-1.1 2.4-.7.6-1.5.9-2.5.9-1.2 0-2-.4-2.8-1.3-.7-.8-1-2-1-3.4v-2c0-1 .1-1.7.5-2.5.3-.6.8-1.2 1.3-1.6.6-.3 1.3-.5 2-.5 1.2 0 2 .4 2.8 1.2zm-1.4 1.3c-.4-.5-.8-.7-1.4-.7-.5 0-1 .2-1.2.7-.4.4-.5 1-.5 1.8v.3h3.5v-.4a3 3 0 0 0-.4-1.7" clip-rule="evenodd"/></svg>