<svg xmlns="http://www.w3.org/2000/svg" width="128" height="27" fill="none" viewBox="0 0 128 27"><g clip-path="url(#a)"><path fill="#000" d="M122.197 2.679c3.286 0 5.803 2.057 5.803 5.357 0 3.193-2.347 5.828-5.909 5.828-4.032 0-5.739-3.042-5.739-5.614 0-2.314 1.771-5.571 5.845-5.571m.32 10.607c1.302 0 3.968-.686 3.968-4.822 0-3.407-2.09-5.185-4.394-5.185-2.454 0-4.224 1.521-4.224 4.671 0 3.236 2.026 5.336 4.65 5.336M12.544 7.971l-.619-.514c-2.24-1.736-2.773-2.614-2.773-3.986 0-1.671 1.301-2.785 2.923-2.785 2.133 0 2.773 1.093 2.88 1.307.15.257.256.9.32 1.157 0 .214.042.321.213.321.107 0 .15-.15.15-.514 0-1.564.106-2.357.106-2.464s-.043-.15-.213-.15c-.15 0-.363 0-.832-.107a8.3 8.3 0 0 0-2.134-.257c-2.922 0-4.693 1.671-4.693 4.2 0 1.564.619 3.042 3.072 5.035l1.045.836c1.622 1.371 2.134 2.207 2.518 3.364.15.515.15 1.05.15 1.565 0 .835-.214 1.564-.513 2.25h.043c1.621-1.158 1.834-2.893 1.834-3.88-.085-1.842-.768-3.213-3.477-5.378M30.4 12.493c-1.472-1.265-1.77-2.893-1.77-4.2 0-.943.362-2.615 1.663-3.879.896-.836 2.24-1.521 4.502-1.521.576 0 1.408.042 2.133.15.576.107 1.003.214 1.515.214.15 0 .213.043.213.15s-.043.257-.043.793c0 .471 0 1.264-.042 1.478 0 .215-.107.322-.15.322-.106 0-.106-.107-.106-.322 0-.578-.214-1.093-.619-1.414-.512-.429-1.557-.793-2.88-.793-1.877 0-2.773.514-3.285 1.007-1.088 1.007-1.302 2.25-1.302 3.729 0 2.721 2.134 5.143 5.27 5.143 1.088 0 1.834-.107 2.41-.686.32-.321.512-.943.576-1.2.043-.15.043-.214.15-.214.042 0 .15.107.15.214s-.214 1.371-.364 1.843c-.106.257-.106.321-.362.428-.576.215-1.728.322-2.667.322-2.325-.043-3.84-.514-4.992-1.564M42.582 7.2c0-2.207 0-2.615-.043-3.043-.043-.471-.107-.729-.576-.793-.107 0-.363-.043-.512-.043-.043 0-.107-.043-.107-.107 0-.107.043-.107.214-.107.682 0 1.664.043 1.728.043.149 0 1.408-.043 1.834-.043.939 0 1.984.107 2.71.621.362.257 1.002.943 1.002 1.95 0 1.05-.426 2.1-1.834 3.258 1.194 1.52 2.24 2.785 3.072 3.664 2.922 3.085 4.394 4.093 4.757 4.135.256.043.427.043.512.043.107 0 .15.043.15.108 0 .107-.107.107-.363.107h-.94c-.831 0-1.194-.107-1.556-.258-.62-.32-4.288-4.135-5.12-5.25a56 56 0 0 1-1.558-2.1c-.042-.042-.106-.107-.213-.107l-1.877-.042c-.043 0-.107.042-.107.107v.321c0 1.372 0 2.464.043 3.043.042.428.149.686.576.728.213.043.512.043.618.043.107 0 .107.043.107.107 0 .043-.043.108-.213.108-.79 0-1.728-.043-1.835-.043 0 0-1.003.043-1.472.043-.15 0-.213-.043-.213-.107 0-.043.042-.108.106-.108.15 0 .32-.043.47-.043.256-.042.32-.32.362-.728.107-.579.107-1.736.107-3.086V7.2zm1.258 1.2c0 .107.043.15.107.15.213.107 1.003.214 1.621.214.363 0 .726 0 1.088-.257.512-.321.896-1.093.896-2.207 0-1.779-1.002-2.786-2.56-2.786-.426 0-.896.043-1.045.107-.043.043-.107.107-.107.15zm34.112 3.621c.043.514.15 1.264.725 1.479.427.15.79.15.939.15.043 0 .107.043.107.107 0 .107-.15.15-.32.15-.32 0-1.984-.043-2.518-.107-.362-.043-.426-.107-.426-.15s.042-.107.106-.107c.107 0 .107-.215.043-.515l-.619-7.243h-.042l-3.499 7.286c-.32.622-.363.729-.512.729s-.213-.15-.512-.622c-.363-.685-1.365-2.528-1.728-3.3-.427-.9-1.621-3.3-1.877-3.878h-.043l-.576 6.45v.728c0 .215.15.365.363.429.256.043.469.107.576.107.042 0 .106.043.106.107 0 .107-.106.15-.256.15-.576 0-1.258-.043-1.365-.043-.15 0-.832.043-1.259.043-.149 0-.256-.043-.256-.15 0-.043.043-.107.15-.107.106 0 .213 0 .426-.043.47-.107.512-.578.576-1.157l1.046-9.279c0-.15.106-.257.149-.257.107 0 .213.043.32.215l4.437 8.871 4.288-8.914c.043-.15.15-.257.214-.257.106 0 .213.107.213.364zM83.221 7.2c0-2.207 0-2.614-.042-3.043-.043-.471-.107-.728-.576-.793-.107 0-.363-.043-.512-.043-.043 0-.107-.042-.107-.107 0-.107.043-.107.213-.107.683 0 1.622.043 1.728.043h3.499c.256 0 .576-.043.683-.107.042 0 .149-.043.213-.043.043 0 .043.043.043.15s-.107.257-.107.686c0 .15-.043.793-.107.943 0 .042-.042.15-.15.15-.106 0-.106-.043-.106-.215 0-.107 0-.321-.106-.514-.107-.214-.256-.321-1.046-.429-.256-.042-1.941-.042-2.133-.042-.043 0-.107.042-.107.15v3.878c0 .107 0 .15.107.15.213 0 2.133 0 2.453-.043.363-.043.576-.043.726-.214.106-.107.149-.214.213-.214.043 0 .107.043.107.107 0 .107-.107.321-.107.793-.043.257-.043.835-.043.943s-.042.257-.15.257c-.042 0-.106-.043-.106-.15 0-.15 0-.257-.042-.472s-.214-.364-.726-.428c-.426-.043-1.984-.043-2.24-.043-.106 0-.106.043-.106.107v3.621c.042.943.32 1.158 1.77 1.158.363 0 1.088 0 1.472-.15.363-.15.576-.429.683-1.008.043-.15.043-.214.15-.214.106 0 .106.107.106.214 0 .108-.107 1.05-.213 1.372-.107.364-.256.364-.832.364-1.088 0-1.942-.043-2.56-.043-.62-.043-1.003-.043-1.195-.043h-.619c-.256 0-.618.043-.832.043-.15 0-.213-.043-.213-.107s.043-.107.107-.107c.149 0 .32-.043.469-.043.256-.043.32-.321.363-.728.106-.579.106-1.736.106-3.086V7.22h-.128zm10.198 4.714c.042 1.158.15 1.522.576 1.629.256.043.618.107.725.107.043 0 .107.043.107.107 0 .107-.107.107-.256.107-.832 0-1.408-.043-1.558-.043-.149 0-.725.043-1.408.043-.149 0-.213 0-.213-.107 0-.043.043-.107.107-.107.106 0 .362 0 .618-.107.363-.107.427-.471.427-1.779V3.58c0-.579.107-.729.213-.729.15 0 .427.257.576.429.214.214 2.347 2.528 4.651 4.885a202 202 0 0 1 3.456 3.665l-.213-7.136c0-.943-.107-1.264-.576-1.307-.256-.043-.619-.043-.726-.043s-.106-.107-.106-.15c0-.107.106-.107.256-.107.682 0 1.365.043 1.514.043s.619-.043 1.259-.043c.149 0 .256 0 .256.107 0 .043-.043.15-.149.15-.043 0-.214 0-.363.043-.469.107-.512.364-.512 1.264l-.043 8.336c0 .943 0 1.007-.106 1.007-.15 0-.32-.107-1.088-.9l-3.819-3.836c-1.728-1.778-3.35-3.514-3.819-4.05zm17.344-2.207c0 1.371 0 2.529.042 3.086.043.428.107.686.576.728.214.043.512.043.683.043.107 0 .107.043.107.107 0 .065-.043.107-.214.107-.789 0-1.728-.042-1.834-.042-.043 0-1.088.042-1.515.042-.149 0-.213-.042-.213-.107 0-.064.042-.107.106-.107.15 0 .32-.043.427-.043.32-.043.363-.364.427-.793.042-.578.042-1.735.042-3.085V3.707l-2.133.043c-.939 0-1.259.107-1.472.471-.149.257-.213.365-.213.472-.043.107-.107.15-.15.15s-.106-.043-.106-.107c0-.15.32-1.415.32-1.522.042-.107.106-.257.149-.257.107 0 .256.107.619.15.426-.043 1.002-.043 1.152-.043h5.546c.47 0 .832-.043 1.046-.043.213-.043.362-.043.426-.043.043 0 .043.108.043.15 0 .429-.043 1.479-.043 1.629 0 .107-.042.15-.149.15-.043 0-.107-.043-.107-.257V4.5c-.042-.429-.362-.729-1.77-.793l-1.835-.043v6.043z"/><path fill="#000" d="m55.957 9.964-.832 2.25c-.149.365-.213.686-.213.943s.256.365.512.365h.15c.106 0 .149.042.149.107 0 .107-.107.107-.214.107-.362 0-1.152-.043-1.301-.043s-.896.043-1.472.043c-.15 0-.256-.043-.256-.107 0-.043.043-.107.15-.107.106 0 .32 0 .426-.043.683-.107.939-.579 1.259-1.307l3.456-8.915c.213-.471.256-.578.362-.578.15 0 .214.214.363.514.256.579 2.603 6.514 3.499 8.657.512 1.264.938 1.479 1.258 1.564.214.043.427.108.576.108.107 0 .214.042.214.107 0 .107-.15.107-.32.107-.214 0-1.302 0-2.304-.043-.256 0-.512 0-.512-.107 0-.043.042-.043.106-.107.107-.043.214-.15.15-.365L59.86 9.857l-.32-.793-1.472-3.878c-.106-.214-.149-.214-.256 0l-1.365 3.878z"/><path fill="#000" d="M58.56 10.543c0 .364-.32.685-.683.685a.704.704 0 0 1-.682-.685c0-.365.32-.686.682-.686s.683.279.683.686m-38.336-.579-.832 2.25c-.15.365-.213.686-.213.943s.256.365.512.365h.149c.107 0 .15.042.15.107 0 .107-.107.107-.214.107-.363 0-1.152-.043-1.301-.043s-.896.043-1.472.043c-.15 0-.256-.043-.256-.107 0-.043.042-.107.149-.107s.32 0 .427-.043c.682-.107.938-.579 1.258-1.307l3.456-8.915c.214-.471.256-.578.363-.578.15 0 .213.214.363.514.256.579 2.602 6.514 3.498 8.657.512 1.264.939 1.479 1.259 1.564.213.043.427.108.576.108.107 0 .213.042.213.107 0 .107-.15.107-.32.107-.213 0-1.301 0-2.304-.043-.256 0-.512 0-.512-.107 0-.043.043-.043.107-.107.107-.043.213-.15.15-.365l-1.302-3.257-.32-.793-1.472-3.878c-.107-.214-.15-.214-.256 0l-1.365 3.878z"/><path fill="#000" d="M22.827 10.543c0 .364-.32.685-.683.685a.704.704 0 0 1-.683-.685c0-.365.32-.686.683-.686.427.021.683.279.683.686"/><path fill="#3d619d" d="M65.728 18.065c-.32-.429-.896-.686-1.472-.686-1.365 0-2.197 1.05-2.197 2.421 0 1.265.832 2.315 2.197 2.315.683 0 1.195-.322 1.557-.793l.683.514c-.15.257-.896 1.05-2.24 1.05-1.877 0-3.072-1.564-3.072-3.086 0-1.843 1.259-3.193 3.072-3.193.79 0 1.621.322 2.09.943zm6.848 1.671c0-1.779 1.302-3.15 3.072-3.15 1.835 0 3.072 1.371 3.072 3.15s-1.301 3.15-3.072 3.15c-1.834 0-3.072-1.371-3.072-3.15m5.312 0c0-1.307-.896-2.357-2.24-2.357-1.365 0-2.24 1.05-2.24 2.357s.896 2.357 2.24 2.357 2.24-1.05 2.24-2.357m8.362-3V20.4c0 .729.363 1.736 1.515 1.736s1.515-.943 1.515-1.736v-3.664h.79v3.771c0 1.372-1.003 2.357-2.305 2.357-1.3 0-2.304-.942-2.304-2.357v-3.771zm10.88 0h1.046l3.286 4.95v-4.95h.832v6h-1.046l-3.285-4.95h-.064v4.95h-.768zm13.526.793h-1.877v-.793h4.586v.793h-1.877v5.207h-.832zm11.03 2.635-2.262-3.428h1.046l1.621 2.636 1.685-2.636h.982l-2.24 3.428v2.572h-.832zm-71.105.193s-9.194 7.286-25.237.257C12.374 15.021 0 21.364 0 21.364s10.39-9.814 24.768-3.471c15.616 6.985 25.813 2.464 25.813 2.464"/><path fill="#99a0c8" d="M23.253 20.786s6.272 3.943 14.742 4.307c9.45.428 18.026-6.3 18.026-6.3s-6.74 8.807-17.6 8.079c-10.944-.793-15.168-6.086-15.168-6.086"/></g><defs><clipPath id="a"><path fill="#fff" d="M0 0h128v27H0z"/></clipPath></defs></svg>