<svg xmlns="http://www.w3.org/2000/svg" width="102" height="20" fill="none" viewBox="0 0 102 20"><g clip-path="url(#a)"><mask id="b" width="102" height="20" x="0" y="0" maskUnits="userSpaceOnUse" style="mask-type:luminance"><path fill="#fff" d="M101.663 0H0v20h101.663z"/></mask><g mask="url(#b)"><path fill="#00b3dc" d="M50.51 16.493a4.45 4.45 0 0 1-3.144-1.28l-1.782-1.75c-3.078-3.022-3.078-8.134 0-11.156A8.06 8.06 0 0 1 51.27 0c2.15 0 4.167.817 5.685 2.307l2.201 2.162a.866.866 0 0 1 0 1.236.905.905 0 0 1-1.259 0l-2.201-2.162A6.27 6.27 0 0 0 51.27 1.75a6.25 6.25 0 0 0-4.42 1.793c-2.4 2.357-2.4 6.334 0 8.684l1.783 1.75c.5.492 1.171.766 1.885.766s1.385-.274 1.885-.766a2.58 2.58 0 0 0 .001-3.702L50.62 8.532a.866.866 0 0 1 0-1.236.905.905 0 0 1 1.26 0l1.775 1.75a4.304 4.304 0 0 1 0 6.175 4.47 4.47 0 0 1-3.145 1.28m.051 3.506a8.12 8.12 0 0 0 5.634-2.328 7.82 7.82 0 0 0 2.371-5.531 7.53 7.53 0 0 0-2.275-5.503l-1.87-1.837a4.42 4.42 0 0 0-3.16-1.28 4.46 4.46 0 0 0-3.16 1.28 4.337 4.337 0 0 0 0 6.197l1.731 1.7c.347.34.914.34 1.26 0a.866.866 0 0 0 0-1.237l-1.73-1.7a2.6 2.6 0 0 1-.789-1.858c0-.701.28-1.366.788-1.865a2.7 2.7 0 0 1 1.9-.774c.722 0 1.377.26 1.893.774l1.87 1.836a5.84 5.84 0 0 1 1.76 4.252 6.1 6.1 0 0 1-1.848 4.31 6.3 6.3 0 0 1-4.382 1.814h-.044c-1.635 0-3.16-.614-4.293-1.728l-1.893-1.858a.905.905 0 0 0-1.26 0 .866.866 0 0 0 0 1.236l1.893 1.859C46.431 19.205 48.398 20 50.511 20h.051z"/><path fill="#231f20" d="M2.018 16.254c.884.586 2.047.882 3.49.875q1.9 0 3.16-.824c.84-.55 1.252-1.28 1.252-2.198 0-.694-.207-1.237-.612-1.634q-.607-.599-1.546-.883c-.626-.187-1.45-.361-2.475-.513q-1.689-.258-2.673-.528A3.8 3.8 0 0 1 .95 9.617C.493 9.175.258 8.554.258 7.758q0-1.008.618-1.822c.413-.535.987-.962 1.716-1.265q1.094-.454 2.497-.463c1.465 0 2.665.296 3.6.904q1.402.91 1.62 2.675h-.58Q9.46 6.278 8.254 5.495q-1.205-.79-3.085-.788-1.936.002-3.13.839c-.803.556-1.2 1.287-1.2 2.183 0 .673.206 1.2.61 1.57a3.4 3.4 0 0 0 1.474.773c.574.145 1.37.297 2.393.448 1.09.152 2.003.34 2.725.564.721.225 1.318.572 1.774 1.049.457.477.693 1.12.693 1.938 0 1.07-.479 1.938-1.436 2.588-.958.651-2.143.976-3.557.984q-2.463.002-3.933-1.006Q.111 15.63 0 13.731h.582q.11 1.637 1.436 2.516M18.3 17.636q-1.8.002-3.203-.854-1.403-.855-2.187-2.386-.786-1.53-.788-3.507 0-1.952.773-3.47a5.73 5.73 0 0 1 2.194-2.365c.943-.564 2.01-.846 3.211-.853 1.414 0 2.607.369 3.587 1.114.979.744 1.59 1.75 1.84 3.008h-.61c-.251-1.107-.81-1.982-1.687-2.632q-1.315-.968-3.16-.97c-1.075 0-2.032.261-2.879.782-.847.52-1.502 1.25-1.98 2.183-.472.933-.715 2.003-.708 3.196q.002 1.822.722 3.232c.479.94 1.141 1.678 1.988 2.206q1.273.79 2.887.788c1.237 0 2.29-.333 3.174-.983q1.325-.978 1.686-2.64h.582c-.265 1.266-.883 2.27-1.863 3.015q-1.47 1.12-3.579 1.121m13.322-.014q-1.8.002-3.203-.853-1.404-.858-2.188-2.386-.786-1.531-.788-3.507 0-1.953.774-3.471a5.73 5.73 0 0 1 2.194-2.364c.943-.564 2.01-.846 3.21-.854 1.415 0 2.608.37 3.587 1.114s1.598 1.742 1.841 3.008h-.61c-.251-1.106-.81-1.989-1.687-2.632-.877-.65-1.93-.969-3.167-.969-1.075 0-2.032.26-2.88.78-.846.521-1.502 1.252-1.98 2.185-.472.932-.715 2.002-.707 3.196q.002 1.822.721 3.232.72 1.412 1.989 2.205 1.272.79 2.887.788c1.237 0 2.29-.332 3.174-.983q1.323-.978 1.686-2.64h.582q-.398 1.898-1.856 3.016-1.469 1.118-3.58 1.12m39.149.015q-1.8.002-3.204-.853-1.403-.858-2.187-2.386-.786-1.531-.788-3.507c0-1.302.258-2.451.774-3.471a5.73 5.73 0 0 1 2.194-2.364c.942-.564 2.01-.846 3.211-.854q2.12-.001 3.586 1.114c.98.745 1.598 1.742 1.841 3.008h-.611c-.25-1.106-.81-1.989-1.687-2.632q-1.314-.967-3.159-.969c-1.075 0-2.04.26-2.88.78-.846.521-1.501 1.252-1.98 2.185-.471.932-.714 2.002-.707 3.196q.002 1.822.722 3.232.717 1.412 1.988 2.205 1.272.79 2.887.788c1.237 0 2.29-.325 3.174-.976.883-.65 1.443-1.533 1.686-2.64h.582q-.398 1.899-1.856 3.016-1.47 1.119-3.579 1.12m12.895-.014q-1.8.002-3.203-.853-1.403-.857-2.187-2.386-.786-1.531-.788-3.507 0-1.953.773-3.47a5.73 5.73 0 0 1 2.194-2.365c.943-.564 2.01-.846 3.211-.846 1.414 0 2.607.368 3.587 1.113.979.745 1.597 1.743 1.84 3.008h-.61c-.251-1.106-.81-1.981-1.687-2.632-.877-.65-1.93-.969-3.166-.969-1.076 0-2.04.268-2.88.781-.847.52-1.51 1.251-1.981 2.184s-.714 2.003-.707 3.196q.002 1.822.722 3.232c.478.94 1.141 1.678 1.988 2.205s1.812.788 2.887.788c1.237 0 2.29-.332 3.174-.983.884-.65 1.443-1.533 1.686-2.64h.582q-.397 1.899-1.856 3.016c-.972.745-2.172 1.12-3.579 1.12m17.976-7.584.015 7.404h-.582l-.015-7.375c0-1.714-.412-3.03-1.222-3.956-.81-.925-1.93-1.388-3.366-1.38-1.583 0-2.85.585-3.777 1.75q-1.404 1.743-1.392 4.648l.015 6.335h-.582L90.72 4.302h.53l.088 3.999q.55-1.953 1.885-3.059t3.321-1.106q2.355 0 3.734 1.496 1.383 1.509 1.385 4.36"/></g></g><defs><clipPath id="a"><path fill="#fff" d="M0 0h102v20H0z"/></clipPath></defs></svg>