<svg xmlns="http://www.w3.org/2000/svg" width="101" height="22" fill="none" viewBox="0 0 101 22"><g clip-path="url(#a)"><mask id="b" width="101" height="22" x="0" y="0" maskUnits="userSpaceOnUse" style="mask-type:luminance"><path fill="#fff" d="M0 0h101v22H0z"/></mask><g mask="url(#b)"><path fill="#ee5472" d="M11.506 17.333q0 1.014-.333 1.745c-.21.467-.5.894-.86 1.258a4.7 4.7 0 0 1-2.012 1.187 8.7 8.7 0 0 1-2.517.354 8 8 0 0 1-2.275-.334c-1.123-.335-1.42-.606-2.012-1.147a4.8 4.8 0 0 1-1.072-1.45A4.2 4.2 0 0 1 0 17.048h2.67q0 .528.212.984.211.457.536.78.464.468 1.122.62a5.7 5.7 0 0 0 2.7-.02q.667-.171 1.071-.6.243-.261.405-.557.162-.294.161-.821 0-.791-.515-1.187a2.7 2.7 0 0 0-1.183-.518 13 13 0 0 0-1.598-.202c-.869-.06-1.105-.103-1.577-.184a5.4 5.4 0 0 1-1.405-.426 4 4 0 0 1-1.153-.802 3.7 3.7 0 0 1-.788-1.197q-.294-.699-.294-1.593 0-.852.344-1.562c.344-.71.532-.9.91-1.28q.707-.71 1.82-1.115a6.9 6.9 0 0 1 2.386-.406q1.152 0 2.214.355t1.79 1.045c.424.396.776.863 1.041 1.38q.394.771.415 1.684h-2.67a2.1 2.1 0 0 0-.191-.76 2.5 2.5 0 0 0-.435-.66q-.345-.365-.97-.569a4 4 0 0 0-1.214-.202q-.608 0-1.244.162c-.413.1-.789.32-1.081.63a2 2 0 0 0-.355.527q-.13.285-.13.69 0 .71.403 1.085.404.376 1.052.477.687.104 1.547.183a33 33 0 0 1 1.567.182 6 6 0 0 1 1.527.437q.717.315 1.254.832.535.517.85 1.248a4.15 4.15 0 0 1 .312 1.644"/></g><mask id="c" width="101" height="22" x="0" y="0" maskUnits="userSpaceOnUse" style="mask-type:luminance"><path fill="#fff" d="M0 0h101v22H0z"/></mask><g mask="url(#c)"><path fill="#ee5472" d="m22.796 21.635-1.01-1.137a5.7 5.7 0 0 1-1.912 1.137A6.5 6.5 0 0 1 17.72 22q-.95 0-1.82-.304a4.6 4.6 0 0 1-1.517-.863 4.1 4.1 0 0 1-1.03-1.37q-.385-.812-.385-1.826 0-1.339.698-2.294.698-.953 1.85-1.664-.345-.365-.627-.721a5 5 0 0 1-.485-.72 3.5 3.5 0 0 1-.314-.771 3.5 3.5 0 0 1-.111-.913q0-.853.314-1.523c.2-.435.485-.825.839-1.146a3.5 3.5 0 0 1 1.244-.72 4.7 4.7 0 0 1 1.526-.244q.789 0 1.506.234.719.232 1.265.69.544.456.87 1.115.323.66.323 1.512 0 .71-.203 1.269c-.132.367-.323.71-.566 1.015a5.2 5.2 0 0 1-.86.841q-.495.387-1.081.73l2.487 2.72q.182-.345.253-.802c.07-.456.084-.625.11-.963q.042-.487.042-.954v-.81h3.7v2.01H24.09a10.4 10.4 0 0 1-.222 1.683 4.6 4.6 0 0 1-.647 1.543l2.648 2.881zm-5.804-6.373q-.364.225-.667.427a2.8 2.8 0 0 0-.536.467 2 2 0 0 0-.364.599c-.092.25-.136.515-.131.782q0 .546.212.974.213.425.566.71.354.283.82.426.464.142.97.141.646 0 1.294-.183c.647-.182.802-.357 1.112-.71zm2.508-4.687q0-.75-.455-1.157-.454-.405-1.143-.405-.626 0-1.112.375-.485.375-.485 1.127 0 .345.131.648.13.306.324.58.191.272.435.516l.465.467q.323-.183.657-.376.324-.184.596-.436.263-.244.425-.569a1.7 1.7 0 0 0 .162-.77"/></g><mask id="d" width="101" height="22" x="0" y="0" maskUnits="userSpaceOnUse" style="mask-type:luminance"><path fill="#fff" d="M0 0h101v22H0z"/></mask><g mask="url(#d)"><path fill="#ee5472" d="M38.454 11.833q0 1.035-.324 1.888a3.9 3.9 0 0 1-.961 1.461q-.636.61-1.587.944-.95.335-2.184.335h-3.033v5.154h-2.589V7.227h5.622q1.233 0 2.184.335.951.334 1.587.933.638.6.961 1.451c.323.852.323 1.197.323 1.887m-2.628.02q0-1.033-.607-1.684-.607-.649-1.921-.649h-2.932v4.647h2.932q1.314 0 1.92-.64.607-.638.608-1.673"/></g><mask id="e" width="101" height="22" x="0" y="0" maskUnits="userSpaceOnUse" style="mask-type:luminance"><path fill="#fff" d="M0 0h101v22H0z"/></mask><g mask="url(#e)"><path fill="#ee5472" d="m53.823 21.615-.304-1.584q-.2.353-.484.64a3.4 3.4 0 0 1-.8.599c-.475.265-.67.321-1.061.437-.407.117-.83.175-1.254.171a7.6 7.6 0 0 1-2.335-.345q-1.083-.345-1.931-1.258a5.7 5.7 0 0 1-.92-1.238 7 7 0 0 1-.566-1.38 8.6 8.6 0 0 1-.294-1.531 19 19 0 0 1-.01-3.37 8 8 0 0 1 .273-1.511 6.3 6.3 0 0 1 .566-1.36c.26-.454.58-.87.95-1.238a5.4 5.4 0 0 1 1.972-1.258 6.5 6.5 0 0 1 2.295-.427q1.336 0 2.427.447 1.092.446 1.82 1.197c.355.372.654.792.89 1.248q.364.7.424 1.655h-2.669a1.7 1.7 0 0 0-.222-.731 6 6 0 0 0-.405-.589q-.748-.872-2.286-.873-.627 0-1.273.255a2.8 2.8 0 0 0-1.072.72 3.1 3.1 0 0 0-.587.892q-.225.516-.343 1.066-.121.556-.152 1.126-.03.527-.03 1.055 0 .488.04 1.065.04.579.162 1.147.121.569.344 1.086t.586.903q.424.465 1.062.69a3.8 3.8 0 0 0 1.263.224q.708 0 1.244-.224c.34-.136.646-.343.9-.608q.587-.61.759-1.289a6.2 6.2 0 0 0 .17-1.511h-3.417V13.74H55.5v7.874z"/></g><mask id="f" width="101" height="22" x="0" y="0" maskUnits="userSpaceOnUse" style="mask-type:luminance"><path fill="#fff" d="M0 0h101v22H0z"/></mask><g mask="url(#f)"><path fill="#ee5472" d="M61.828 21.594q-.386.081-.556.111-.276.036-.556.03-1.295 0-2.083-.67t-.789-2.17V6.941h2.548V18.47q0 .467.182.74c.182.275.398.275.83.275q.162 0 .242-.01c.08-.01.114-.011.182-.011z"/></g><mask id="g" width="101" height="22" x="0" y="0" maskUnits="userSpaceOnUse" style="mask-type:luminance"><path fill="#fff" d="M0 0h101v22H0z"/></mask><g mask="url(#g)"><path fill="#ee5472" d="M72.558 16.339q0 1.34-.323 2.242a5.9 5.9 0 0 1-.91 1.653q-.546.67-1.507 1.157-.96.486-2.174.487c-1.213 0-1.533-.163-2.172-.487q-.963-.487-1.507-1.157a5.9 5.9 0 0 1-.91-1.653q-.324-.904-.324-2.242c0-1.34.108-1.641.323-2.243a5.9 5.9 0 0 1 .91-1.654q.545-.668 1.508-1.157.959-.486 2.172-.487c1.214 0 1.534.163 2.174.487q.961.488 1.507 1.157a5.9 5.9 0 0 1 .91 1.654q.323.903.323 2.243m-2.569 0q0-.752-.141-1.451a2.5 2.5 0 0 0-.606-1.209 2.2 2.2 0 0 0-.668-.476c-.404-.193-.58-.193-.93-.193a2.13 2.13 0 0 0-1.598.67 2.5 2.5 0 0 0-.606 1.208q-.141.7-.142 1.45c0 .752.048.985.142 1.451q.141.702.606 1.208.262.285.667.478.405.192.93.192a2.13 2.13 0 0 0 1.599-.67c.31-.338.52-.756.606-1.207q.142-.719.141-1.451"/></g><mask id="h" width="101" height="22" x="0" y="0" maskUnits="userSpaceOnUse" style="mask-type:luminance"><path fill="#fff" d="M0 0h101v22H0z"/></mask><g mask="url(#h)"><path fill="#ee5472" d="M84.222 16.359q0 1.5-.466 2.668a4.7 4.7 0 0 1-1.415 1.938 3.9 3.9 0 0 1-1.121.65q-.638.243-1.427.242a4.4 4.4 0 0 1-1.678-.334 2.7 2.7 0 0 1-1.274-1.065l-.162 1.156h-2.183V6.962h2.527v4.871q.365-.446 1.082-.74.718-.295 1.669-.295.807 0 1.446.223c.41.14.79.353 1.121.63q1.88 1.563 1.881 4.708m-2.568-.04q-.002-.69-.132-1.361a2.8 2.8 0 0 0-.537-1.196 2.6 2.6 0 0 0-.697-.59q-.415-.242-1-.242-.75 0-1.214.314a2.2 2.2 0 0 0-.727.812c-.18.343-.299.713-.354 1.096q-.09.58-.09 1.167a7 7 0 0 0 .181 1.572q.182.801.728 1.31.262.243.627.385.363.142.849.141.586.001 1-.244a2.6 2.6 0 0 0 .698-.588 2.85 2.85 0 0 0 .536-1.207q.13-.679.131-1.37"/></g><mask id="i" width="101" height="22" x="0" y="0" maskUnits="userSpaceOnUse" style="mask-type:luminance"><path fill="#fff" d="M0 0h101v22H0z"/></mask><g mask="url(#i)"><path fill="#ee5472" d="M95.444 21.493a5 5 0 0 1-.556.213q-.231.07-.697.071-.828 0-1.274-.446a1.67 1.67 0 0 1-.505-1.034q-.365.65-1.214 1.116-.849.465-1.98.466-.95 0-1.66-.273c-.708-.274-.866-.427-1.182-.731a3 3 0 0 1-.718-1.055 3.3 3.3 0 0 1-.242-1.247q0-.752.273-1.34a3 3 0 0 1 .757-1.015 3.5 3.5 0 0 1 1.133-.66c.45-.16.92-.259 1.396-.294l3.093-.223v-.65q0-.753-.353-1.209-.354-.456-1.427-.456-.889 0-1.385.385-.494.386-.536 1.116h-2.446q.06-.894.414-1.542a3.1 3.1 0 0 1 .94-1.065 4.2 4.2 0 0 1 1.353-.62 6.5 6.5 0 0 1 1.658-.203q1.356 0 2.417.477 1.062.477 1.527 1.674.202.507.253 1.055.05.549.05 1.076v3.917q0 .365.132.517.13.152.455.152a.8.8 0 0 0 .222-.02.2.2 0 0 0 .101-.02zm-3.377-4.566-2.669.202c-.38.025-.745.158-1.051.385q-.466.347-.466.996 0 .608.455.964c.456.355.65.354 1.042.354q1.192 0 1.941-.619.748-.618.748-1.796z"/></g><mask id="j" width="101" height="22" x="0" y="0" maskUnits="userSpaceOnUse" style="mask-type:luminance"><path fill="#fff" d="M0 0h101v22H0z"/></mask><g mask="url(#j)"><path fill="#ee5472" d="M101 21.594q-.385.081-.556.111a4 4 0 0 1-.556.03q-1.295 0-2.083-.67t-.789-2.17V6.941h2.548V18.47q0 .467.182.74c.183.275.397.275.829.275q.162 0 .243-.01a2 2 0 0 1 .182-.011z"/></g><mask id="k" width="101" height="22" x="0" y="0" maskUnits="userSpaceOnUse" style="mask-type:luminance"><path fill="#fff" d="M0 0h101v22H0z"/></mask><g mask="url(#k)"><path fill="#7b7b7b" d="M0 0h101v2.336H0z"/></g></g><defs><clipPath id="a"><path fill="#fff" d="M0 0h101v22H0z"/></clipPath></defs></svg>