<svg xmlns="http://www.w3.org/2000/svg" width="99" height="61" fill="none" viewBox="0 0 99 61"><g clip-path="url(#a)"><path fill="#515151" d="m91.433 35.264-7.344-5.026c-2.87-2.027-4.141-3.875-4.141-6.087 0-2.82 2.346-4.579 5.656-4.579 4.218 0 6.193 1.944 8.699 1.944 1.975 0 3.33-1.317 3.33-3.267 0-1.4-.73-2.551-2.608-3.427-2.966-1.42-6.193-1.944-9.69-1.944-3.668 0-6.902 1.055-9.24 2.82-.442.357-.89.703-1.337 1.15-2.697 2.82-4.94 6.957-6.736 12.776l-2.058 6.695c-3.675 11.803-9.51 17.443-18.573 17.443-9.951 0-16.227-6.79-16.227-16.83 0-10.045 6.276-16.918 15.339-16.918q.595 0 1.15.032.07 0 .134.019.512.012 1.004.083.082 0 .166.013.492.05.971.134.064.02.147.019.5.077.972.198.051 0 .083.013a19.3 19.3 0 0 1 3.988 1.356c1.157.524 2.141.69 3.049.69 2.14 0 3.579-1.4 3.579-3.51 0-1.324-.812-2.66-2.69-3.53-3.407-1.669-7.811-2.64-12.553-2.64-14.17 0-23.96 9.86-23.96 24.22 0 3.792.696 7.251 1.98 10.301-1.866 3.977-4.716 6.088-8.436 6.088-4.48 0-7.446-2.558-7.446-8.358V20.276h10.495c2.422 0 4.032-1.4 4.032-3.428 0-2.026-1.61-3.427-4.032-3.427H8.654V4.418C8.654 1.778 6.858.02 4.34.02 1.835.019.039 1.777.039 4.419v41.676c0 9.694 5.65 14.809 15.236 14.809 2.16 0 4.142-.365 5.938-.978 3.125-1.151 5.662-3.197 7.445-6.113 4.27 4.514 10.578 7.168 18.471 7.168 4.116 0 7.708-.787 10.942-2.468 6.538-3.351 11.216-10.122 14.45-20.526l1.88-6.068c1.252 1.65 3.01 3.217 5.387 4.847l6.724 4.566c3.042 2.129 4.295 3.887 4.295 6.432 0 3.792-3.049 6.343-7.446 6.343-4.218 0-7.791-2.11-9.772-2.11-1.975 0-3.31 1.317-3.31 3.267 0 1.4.709 2.552 2.588 3.428 2.6 1.234 6.819 2.289 10.596 2.289 4.743 0 8.699-1.4 11.479-3.869 2.505-2.295 4.04-5.556 4.04-9.348-.014-5.282-2.161-8.805-7.549-12.5"/></g><defs><clipPath id="a"><path fill="#fff" d="M0 0h99v61H0z"/></clipPath></defs></svg>