<svg width="20" height="20" viewBox="0 0 20 20" fill="none" xmlns="http://www.w3.org/2000/svg">
<g opacity="0.5" clip-path="url(#clip0_3447_3644)">
<path d="M6.2918 18.1251C13.8371 18.1251 17.9652 11.8724 17.9652 6.45167C17.9652 6.27589 17.9613 6.0962 17.9535 5.92042C18.7566 5.33967 19.4496 4.62033 20 3.7962C19.2521 4.12896 18.458 4.34627 17.6449 4.44074C18.5011 3.92755 19.1421 3.12135 19.4492 2.17159C18.6438 2.64892 17.763 2.98563 16.8445 3.1673C16.2257 2.50976 15.4075 2.07439 14.5164 1.9285C13.6253 1.78261 12.711 1.93433 11.9148 2.3602C11.1186 2.78607 10.4848 3.46238 10.1115 4.28455C9.73825 5.10672 9.64619 6.02897 9.84961 6.9087C8.21874 6.82686 6.62328 6.40321 5.16665 5.6652C3.71002 4.9272 2.42474 3.89132 1.39414 2.62472C0.870333 3.52782 0.710047 4.59649 0.945859 5.61353C1.18167 6.63057 1.79589 7.51966 2.66367 8.10011C2.01219 8.07943 1.37498 7.90402 0.804688 7.58839V7.63917C0.804104 8.58691 1.13175 9.50561 1.73192 10.2391C2.3321 10.9726 3.16777 11.4756 4.09687 11.6626C3.49338 11.8277 2.85999 11.8518 2.2457 11.7329C2.50788 12.548 3.01798 13.2609 3.70481 13.7721C4.39164 14.2833 5.22093 14.5673 6.07695 14.5845C4.62369 15.726 2.82848 16.3452 0.980469 16.3423C0.652739 16.3418 0.325333 16.3217 0 16.2821C1.87738 17.4866 4.06128 18.1263 6.2918 18.1251Z" fill="#86848D"/>
</g>
<defs>
<clipPath id="clip0_3447_3644">
<rect width="20" height="20" fill="white"/>
</clipPath>
</defs>
</svg>
