<svg xmlns="http://www.w3.org/2000/svg" width="140" height="49" fill="none" viewBox="0 0 140 49"><path fill="#000" d="M51.042 19.521v-5.95h1.672v5.754c0 1.12.525 1.944 1.847 1.944 1.225 0 1.847-.648 1.847-1.944v-5.754h1.673v5.813c0 2.16-1.42 3.398-3.52 3.398-2.1.02-3.52-1.08-3.52-3.26m8.614-3.397h1.497v.805h.02c.427-.628 1.108-.923 1.827-.923 1.458 0 2.256.923 2.256 2.475v4.183h-1.537v-3.79c0-.983-.408-1.513-1.205-1.513-.836 0-1.342.53-1.342 1.63v3.653h-1.536zm7.214-2.651h1.536v1.65h-1.537zm0 2.65h1.536v6.521h-1.537zm3.422 4.99V17.36h-.875v-1.237h.875V14.16h1.536v1.983h1.4v1.238h-1.4v3.378c0 .49.253.628.603.628.31 0 .486-.02.797-.059v1.316c-.35.098-.914.118-1.128.118-1.011 0-1.808-.491-1.808-1.65m3.655-.963v-1.277c0-1.826 1.361-2.847 2.956-2.847 1.4 0 2.78.825 2.78 2.553v1.257h-4.141v.353c0 .825.66 1.316 1.497 1.316.525 0 1.05-.354 1.4-.844l1.186.687c-.505 1.021-1.517 1.453-2.664 1.453-1.575 0-3.014-.864-3.014-2.651m4.22-1.394v-.177c0-.884-.623-1.257-1.245-1.257-.66 0-1.36.353-1.36 1.335v.099zm2.625 1.473v-1.572c0-1.767 1.225-2.651 2.664-2.651.72 0 1.302.373 1.633.805h.039v-3.24h1.536v9.093h-1.497v-.727c-.37.51-1.245.884-1.809.884-1.439-.02-2.566-.923-2.566-2.593m4.336-.04v-1.61c0-.786-.622-1.257-1.42-1.257-.641 0-1.341.353-1.341 1.296v1.61c0 .786.602 1.257 1.4 1.257.641-.02 1.36-.353 1.36-1.296m6.436-6.618h1.633l3.909 6.186h.019v-6.186h1.614v9.093h-1.633l-3.89-6.206h-.019v6.206h-1.614zm8.497 7.227c0-1.257 1.128-2.003 2.392-2.003h1.711v-.59c0-.687-.447-.981-1.245-.981-.661 0-1.166.235-1.166.648v.235h-1.381v-.176c0-1.434 1.342-1.905 2.567-1.905 1.439 0 2.761.49 2.761 2.081v3.182c0 .295.039 1.257.117 1.394H104.3a6 6 0 0 1-.058-.589h-.02c-.564.59-1.05.727-1.886.727-1.361-.04-2.275-.786-2.275-2.023m4.103-.55v-.314h-1.517c-.661 0-1.089.235-1.089.805 0 .55.448.825 1.167.825 1.244 0 1.439-.609 1.439-1.316m3.364.864v-3.75h-.875v-1.238h.875V14.16h1.536v1.983h1.4v1.238h-1.4v3.378c0 .49.253.628.603.628.311 0 .486-.02.797-.059v1.316c-.35.098-.914.118-1.128.118-1.011 0-1.808-.491-1.808-1.65m3.966-7.64h1.537v1.65h-1.537zm0 2.652h1.537v6.52h-1.537zm2.898 4.124v-1.492c0-1.768 1.497-2.73 2.916-2.73 1.556 0 2.956 1.04 2.956 2.71v1.335c0 1.768-1.497 2.73-2.917 2.73-1.555 0-2.955-.884-2.955-2.553m4.316-.04v-1.61c0-.785-.602-1.256-1.4-1.256-.641 0-1.341.353-1.341 1.296v1.61c0 .786.602 1.257 1.4 1.257.641 0 1.341-.354 1.341-1.296m2.936-4.084h1.498v.805h.019c.428-.628 1.108-.923 1.828-.923 1.458 0 2.255.923 2.255 2.475v4.183h-1.536v-3.79c0-.983-.408-1.513-1.205-1.513-.836 0-1.342.53-1.342 1.63v3.653h-1.536zm6.767 5.4 1.089-.824c.408.53 1.05.844 1.769.844.623 0 1.284-.216 1.284-.805 0-.51-.35-.628-1.206-.786l-.836-.157c-1.05-.196-1.769-.707-1.769-1.689 0-1.355 1.186-2.14 2.566-2.14 1.167 0 1.984.294 2.528 1.06l-1.108.766c-.37-.451-.817-.628-1.439-.628-.603 0-1.05.235-1.05.726 0 .452.564.53 1.225.649l.972.196c1.089.216 1.731.844 1.731 1.826 0 1.513-1.517 2.22-2.859 2.22-1.166.02-2.255-.295-2.897-1.257m-77.37 11.922v-3.24c0-1.866 1.4-3.182 3.345-3.182 1.808 0 3.15 1.04 3.15 2.592v.491h-.758v-.373c0-1.237-.914-2.003-2.43-2.003-1.46 0-2.51.962-2.51 2.455v3.103c0 1.472 1.05 2.415 2.568 2.415 1.497 0 2.41-.785 2.41-2.023v-1.296H54.29v-.726h3.286v2.12c0 1.611-1.264 2.632-3.17 2.632-1.886.04-3.363-1.001-3.363-2.965m8.381 1.335v-7.6h.74v7.64c0 .49.271.883.913.883.253 0 .486-.04.7-.059v.57c-.311.098-.661.118-.933.118-1.109 0-1.42-.766-1.42-1.552m3.286-.766v-1.708c0-1.65 1.109-2.514 2.548-2.514 1.555 0 2.547.884 2.547 2.494v1.65c0 1.65-1.07 2.514-2.528 2.514-1.536 0-2.567-.825-2.567-2.436m4.356-.059V32.23c0-1.04-.564-1.787-1.808-1.787-1.186 0-1.809.707-1.809 1.846v1.709c0 1.08.584 1.826 1.828 1.826 1.206-.02 1.789-.668 1.789-1.866m3.072 1.198h-.039v1.14h-.7V27.2h.74v3.87h.038c.408-.924 1.303-1.297 2.022-1.297 1.322 0 2.217.864 2.217 2.2v2.062c0 1.709-1.167 2.416-2.353 2.416-.817 0-1.672-.472-1.925-1.297m3.52-1.02v-2.161c0-.884-.623-1.532-1.692-1.532-.875 0-1.828.805-1.828 2.12v1.258c0 1.217.856 2.003 1.847 2.003.817-.02 1.673-.53 1.673-1.689m2.002.47c0-1.433 1.303-1.905 2.334-1.905h1.847v-.982c0-1.001-.661-1.335-1.594-1.335-.778 0-1.614.275-1.614 1.1v.196h-.68v-.196c0-1.257 1.166-1.729 2.332-1.729 1.225 0 2.314.452 2.314 1.827v3.083c0 .373.059 1.316.098 1.591h-.74a20 20 0 0 1-.058-1.001h-.02c-.524.981-1.36 1.139-2.138 1.139-1.147.02-2.08-.61-2.08-1.788m4.18-.628v-.707h-1.69c-.856 0-1.75.216-1.75 1.296 0 .845.738 1.257 1.516 1.257 1.283.02 1.925-.746 1.925-1.846m2.568.805v-7.6h.738v7.64c0 .49.273.883.914.883.253 0 .486-.04.7-.059v.57c-.31.098-.66.118-.933.118-1.108 0-1.42-.766-1.42-1.552m6.494-1.335v-3.24c0-1.866 1.4-3.182 3.364-3.182 1.808 0 3.15 1.08 3.15 2.631v.51h-.778v-.372c0-1.238-.914-2.043-2.411-2.043-1.458 0-2.528.963-2.528 2.455v3.103c0 1.473 1.05 2.416 2.586 2.416 1.478 0 2.353-.825 2.353-2.043v-.216h.778v.354c0 1.61-1.303 2.631-3.111 2.631-1.925 0-3.403-1.04-3.403-3.004m7.797.57v-1.71c0-1.65 1.109-2.513 2.547-2.513 1.556 0 2.548.884 2.548 2.494v1.65c0 1.65-1.07 2.514-2.528 2.514-1.536 0-2.567-.825-2.567-2.436m4.356-.06v-1.728c0-1.04-.564-1.787-1.808-1.787-1.187 0-1.809.707-1.809 1.846v1.709c0 1.08.583 1.826 1.828 1.826 1.205-.02 1.789-.668 1.789-1.866m2.314-4.026h.7v1.218h.019a2.37 2.37 0 0 1 2.178-1.355c1.03 0 1.594.648 1.769 1.394h.02a2.45 2.45 0 0 1 2.236-1.394c1.225 0 1.964.805 1.964 1.944v4.556h-.739V32.15c0-1.14-.545-1.69-1.458-1.69-.973 0-1.848.825-1.887 1.945v3.888h-.738V32.11c-.02-1.1-.525-1.65-1.439-1.65-.875 0-1.906.727-1.906 1.984v3.869h-.739zm10.752 0h.7v1.14h.02a2.33 2.33 0 0 1 2.061-1.297c1.322 0 2.217.845 2.217 2.16v2.082c0 1.709-1.167 2.416-2.334 2.416-.816 0-1.633-.471-1.905-1.296h-.039v3.613h-.739zm4.259 4.203v-2.14c0-.884-.622-1.572-1.692-1.572-.875 0-1.828.747-1.828 2.082v1.296c0 1.218.856 2.003 1.848 2.003.816 0 1.672-.51 1.672-1.669m2.003.471c0-1.433 1.302-1.905 2.333-1.905h1.847v-.982c0-1.001-.661-1.335-1.594-1.335-.778 0-1.614.275-1.614 1.1v.196h-.681v-.196c0-1.257 1.167-1.729 2.334-1.729 1.225 0 2.313.452 2.313 1.827v3.083c0 .373.059 1.316.098 1.591h-.739c-.02-.216-.059-.825-.059-1.001h-.019c-.525.981-1.361 1.139-2.139 1.139-1.147.02-2.08-.61-2.08-1.788m4.18-.628v-.707h-1.692c-.855 0-1.75.216-1.75 1.296 0 .845.739 1.257 1.517 1.257 1.283.02 1.925-.746 1.925-1.846m2.217-.079v-1.472c0-1.65.991-2.632 2.508-2.632 1.478 0 2.392.844 2.392 2.101v.197h-.72v-.256c0-.648-.486-1.414-1.672-1.414-1.167 0-1.75.845-1.75 1.944v1.532c0 1.1.525 1.905 1.77 1.905 1.186 0 1.652-.746 1.652-1.414v-.216h.72v.158c0 1.256-.895 2.1-2.392 2.1-1.555.02-2.508-.902-2.508-2.533m6.825 1.12v-4.458h-1.167v-.61h1.167v-2.002h.739v2.003h1.866v.609h-1.866v4.261c0 .688.35.904.991.904.331 0 .661-.06.953-.138v.648a4.8 4.8 0 0 1-1.167.158c-.797 0-1.516-.295-1.516-1.375m-102.997-8.68c-.078-.06-.098-.393-.098-.393a21.3 21.3 0 0 0-1.264-5.008.6.6 0 0 1-.058-.217c0-.078.04-.157.233-.255a7.1 7.1 0 0 0 2.023-1.394q.117-.118.175-.118c.039 0 .078.04.155.157.759 1.316 1.322 2.789 1.711 4.34q.06.265.059.413c0 .216-.078.373-.273.57-.505.51-1.4 1.237-2.333 1.806-.039 0-.272.138-.33.098m-.817 1.924s0-.295-.097-.354c-.098-.058-.33.04-.33.04-1.634.589-3.423.884-5.29.942-.35.02-.33.099-.35.393-.02 1.67-.058 3.24-.097 4.674 0 0-.02.138.039.197.039.039.194.039.194.039a16.4 16.4 0 0 0 5.25-1.198c.234-.098.273-.255.35-.53.448-1.807.33-4.203.33-4.203m-.72-8.563c.74-.393 1.42-.864 1.848-1.316.097-.098.136-.176.136-.275 0-.098-.04-.196-.136-.353a12.6 12.6 0 0 0-3.461-3.32c-.37.256-.953.492-1.556.63a20.5 20.5 0 0 1 2.742 4.438c.078.157.116.255.175.275.078.02.175-.04.253-.079m-1.283.55c.097-.04.156-.059.195-.137.02-.079-.04-.256-.04-.256-.719-1.787-1.594-3.417-2.527-4.674-.506.098-1.478.157-1.828.157.059 1.807.097 3.594.117 5.323 0 .157.02.235.078.274.039.04.116.06.194.06 1.167-.02 2.839-.374 3.811-.747M29.05 33.78c0-.04-.039-.04-.039-.04-.039 0-.097.02-.233.06a17.5 17.5 0 0 1-4.958.824c-.156 0-.195.059-.214.236l-.098 1.532s2.295.058 4.648-.943c.33-.432.602-.943.836-1.512.02-.06.039-.098.058-.157m4.764-8.465c0-.04-.039 0-.039 0-.544.55-1.536 1.296-2.703 1.885-.37.197-.408.334-.427.668.019 1.905-.214 3.359-.623 4.596 0 0-.039.098.078.039s1.808-.884 2.975-2.082c.389-.392.7-.982.758-1.61.253-2.082-.02-3.496-.02-3.496m.583-2.435c.778-1.355.778-2.475.778-2.475 0-.078 0-.137-.02-.177-.35-1.551-1.166-3.024-2.391-4.38.02.138.02.256.02.394a3.5 3.5 0 0 1-.331 1.473c-.078.176-.117.294-.117.392s.04.158.097.275c.02-.039 1.264 1.67 1.964 4.498m-17.752 3.85c.116-1.926.641-3.948 1.36-5.873.02-.04.02-.079.02-.098 0-.06-.039-.099-.136-.138-1.206-.53-2.12-1.257-2.722-2.042 0 0-.04-.04 0-.079.039-.04.078 0 .078 0 .68.668 1.672 1.218 2.819 1.65.058.02.078.02.117.02.058 0 .097-.04.175-.197.777-1.807 1.788-3.515 2.936-4.93-.973-.235-1.964-.765-2.198-1.335 0 0-.038-.059.02-.098.058-.02.097.04.097.04 1.07 1.178 4.2 1.1 4.2 1.1 1.303 0 4.006-.453 4.006-1.572 0-1.002-1.44-1.532-4.045-1.571-7.894 0-12.133 6.913-12.133 12.392 0 6.619 5.561 12.393 11.997 12.393 0-.099-.078-1.552-.078-1.552 0-.157-.039-.216-.233-.236 0 0-2.8-.216-3.714-.687-.039-.02-.02-.059.04-.059 0 0 1.885.334 3.694.334 0 0 .194.02.194-.216 0-.196-.078-4.694-.078-4.694-.02-.334-.058-.393-.389-.412-1.944-.099-3.85-.51-5.503-1.218-.038-.02-.058-.02-.097-.02-.039.02-.039.099-.039.099-.155 2.081.078 4.104.078 4.104 0 .04 0 .06-.039.06s-.039-.04-.039-.04a14.4 14.4 0 0 1-.447-3.633c0-.099.02-.629.02-.629a.305.305 0 0 0-.175-.294c-.778-.393-1.478-.884-2.1-1.375 0 0-.04-.04 0-.079.039-.02.058 0 .058 0 .642.413 1.38.766 2.139 1.08h.097c0-.02 0-.078.02-.196m15.147-9.703c.214-.55.252-1.316.02-1.866-.215-.51-.895-1.04-.895-1.04-1.05-.825-2.217-1.336-2.761-1.552.097.177.155.354.155.53 0 .315-.155.629-.428.963a13.6 13.6 0 0 1 3.54 2.946s.155.196.252.196c.058-.02.117-.177.117-.177m2.975 9.133c0 .844-.078 1.689-.234 2.474.68-1.178 1.225-2.907 1.225-4.91 0-.57-.039-1.139-.136-1.728a5.3 5.3 0 0 1-.641 1.728c-.214.373-.312.629-.273.884.04.825.059 1.552.059 1.552m-5.29 7.737a9 9 0 0 1-.738 1.277c1.458-.727 3.111-2.16 4.239-3.633a12.3 12.3 0 0 1-2.995 1.787c-.213.118-.408.373-.505.57m-6.416-11.803q0-.383-.35-.412a14 14 0 0 1-4.044-.766c-.059-.02-.098-.04-.136-.04-.04 0-.078.02-.098.118-1.127 2.868-1.36 5.97-1.36 5.97-.02.138.019.178.116.217 0 0 2.392.923 5.464.923 0 0 .214 0 .272-.06.078-.078.097-.137.078-.392.039-1.512.058-5.558.058-5.558m-4.278-1.964c-.077.157-.039.216-.039.216.02.04.078.06.078.06.914.313 2.684.608 3.928.608.136 0 .214-.02.272-.078.059-.06.078-.158.098-.315.038-1.728.077-3.535.174-5.283a10.4 10.4 0 0 1-1.633-.196c-1.167 1.473-2.12 3.142-2.878 4.988m5.23 7.954c.856-.04 3.054-.196 5.27-1.06.311-.118.37-.256.37-.491 0-.06 0-.118-.02-.197-.213-1.708-.622-3.417-1.186-5.126-.078-.216-.116-.255-.175-.255-.039 0-.097.02-.175.04a13.7 13.7 0 0 1-3.986.687c-.272.02-.35.196-.35.393 0 .883.02 2.278.02 4.163v1.571s0 .138.058.216c0 .06.078.079.175.06m-18.705 4.36c.934 2.514 3.248 2.73 4.803 4.262.292.294.583.57.914.746l.02-.02c-.37-.392-.778-.824-1.031-1.335-.914-1.512-.583-3.653-1.283-5.283.622.884 1.186 1.807 1.555 2.828.564 1.65.778 3.515 2.061 4.753-1.4-.55-3.033-.432-4.277-1.434-1.284-1.04-2.509-2.67-2.762-4.517m12.99 7.227c.194 0 .35-.059.35-.059-1.206-.275-2.237-.49-3.267-1.374-1.361-1.159-2.411-2.318-3.928-3.26.194.117 1.05 1.905 1.77 2.965.505.746 1.302 1.159 2.021 1.336.603.157.74.216.74.216s-.098.059-.331 0c0 0-2.003-.413-3.092-.413-4.316 0-5.444-1.67-5.444-1.67 1.283 2.338 3.927 3.222 5.658 3.222 2.489-.02 4.336-.963 5.522-.963m15.885.943c1.73 0 4.375-.864 5.659-3.22 0 0-1.128 1.669-5.445 1.669-1.089 0-3.091.412-3.091.412-.234.059-.33 0-.33 0s.135-.059.738-.216c.7-.177 1.517-.59 2.022-1.336.72-1.06 1.575-2.847 1.77-2.965-1.517.943-2.567 2.121-3.928 3.26-1.03.864-2.061 1.1-3.267 1.375 0 0 .156.059.35.059 1.206.02 3.053.962 5.522.962M7.311 33.622c.428.374 1.303 1.179 1.459 1.414 0 0-.098-.333-.195-.746-.097-.412-.233-1.414-.642-2.278-.31-.687-1.633-2.887-1.886-4.105 0 0-.952 3.81 1.264 5.715m27.3 4.773c1.4-.55 3.014-.432 4.259-1.434 1.302-1.04 2.547-2.67 2.8-4.517-.934 2.514-3.248 2.71-4.823 4.242-.291.295-.583.57-.914.746l-.02-.02c.35-.392.779-.824 1.032-1.335.913-1.512.583-3.652 1.283-5.283-.622.884-1.186 1.807-1.556 2.828-.564 1.67-.777 3.516-2.06 4.773m-3.441 2.75c-2.159-.885-4.395-2.004-6.981-1.474-.292.06-.525.118-.797.118-.253 0-.486-.059-.778-.118-2.606-.53-4.842.59-7 1.473-1.614.59-3.714.491-5.133-.412.7.825 1.633 1.335 2.605 1.689 1.79.668 3.928.216 5.406-.766 1.283-.668 2.372-2.003 4.044-1.512-1.71.746-3.267 1.806-4.686 3.162l.875.687s1.653-2.258 4.647-3.614c2.975 1.355 4.648 3.614 4.648 3.614l.894-.687a16.5 16.5 0 0 0-4.686-3.162c1.672-.51 2.78.825 4.044 1.512 1.498.982 3.617 1.434 5.425.766.972-.354 1.906-.864 2.606-1.69-1.42.924-3.52 1.022-5.133.413m8.497-7.523c2.216-1.905 1.283-5.715 1.283-5.715-.253 1.218-1.575 3.437-1.886 4.105-.408.864-.544 1.866-.642 2.278-.097.413-.194.746-.194.746.136-.235 1.01-1.04 1.439-1.414m-35-10.82c.66.058 1.303.117 1.964.176.525.04.797-.157.836-.668.02-.235 0-.412-.097-.57-.117-.196-.292-.294-.662-.333-.622-.079-1.264-.138-1.886-.216-.077.137-.136.275-.214.412-.038 0-.097 0-.136-.02.04-.412.097-.824.136-1.237.04 0 .098.02.137.02.038.157.077.294.116.452.603.078 1.206.137 1.809.216.447.059.719.216.894.53.136.255.194.55.155.923-.077.786-.486 1.198-1.147 1.14-.66-.06-1.303-.1-1.964-.158a4 4 0 0 0-.194.412c-.039 0-.097 0-.136-.02l.117-1.512c.038 0 .097 0 .136.02.058.157.097.295.136.432m1.05-3.89c.7.236 1.42.472 2.12.708.096-.099.194-.216.29-.315.04.02.079.02.137.04l-.35 1.06c-.039-.02-.097-.02-.136-.04-.02-.156-.02-.294-.04-.45l-2.507-.826-.292.354c-.02 0-.078 0-.117-.02.098-.314.195-.628.311-.962.875-.314 1.75-.628 2.625-.923a63 63 0 0 0-1.77-.629 5 5 0 0 0-.29.334c-.04-.02-.079-.02-.137-.039.117-.373.253-.746.39-1.1.038.02.077.04.116.04 0 .157 0 .314.02.47.933.335 1.866.688 2.8 1.022-.02.079-.06.157-.079.236-1.03.314-2.06.668-3.091 1.04m4.608-5.773.739.53c-.175.452-.311.727-.486.982-.603.844-1.44 1.021-2.275.412-.836-.589-1.109-1.453-.39-2.474.156-.236.41-.472.72-.766l.059-.06.641.472-.136.197-.641-.138a.7.7 0 0 0-.214.197c-.623.785-.428 1.512.33 2.062.68.49 1.4.373 1.848-.256.077-.117.097-.196.097-.196l-.642-.452-.389.236-.117-.079.837-1.158.116.078zm1.342-.354L9.8 10.88l-.408.157-.098-.098 1.031-1.021.097.098-.175.412 1.886 1.945.584-.59-.195-.647.136-.158.525.649s-.816.785-1.614 1.63l-.097-.099zm.914-2.632c-.603-.883-.467-1.826.447-2.415.836-.53 1.653-.295 2.139.51.525.884.389 1.847-.447 2.397-.759.51-1.595.294-2.14-.492m.486-.451c.505.726 1.147.962 1.594.687.428-.275.447-.962 0-1.728-.428-.707-1.03-1.021-1.555-.668-.584.354-.545 1.002-.04 1.709m3.597-.55-1.05-2.475h-.428l-.058-.117 1.478-.629c.35-.137.563-.157.797-.078a.69.69 0 0 1 .428.412c.155.412-.059.825-.584 1.1.642-.236 1.07-.098 1.264.373a.84.84 0 0 1-.078.746c-.136.216-.35.354-.758.53l-1.264.57-.058-.118zm.02-1.63.194-.079c.37-.157.525-.49.37-.864-.137-.373-.428-.51-.798-.353l-.272.137zm.583 1.434.175-.079c.253-.098.37-.177.447-.354a.63.63 0 0 0 0-.53c-.156-.412-.486-.53-.914-.353l-.233.098zm2.528-1.905-.176 1.001.409.098.02.138-1.07.255-.02-.137.33-.236.74-3.26.233-.04 1.672 2.809.39.098.019.138-1.38.196-.02-.137.33-.236-.486-.884zm.038-.236.817-.157-.564-1.041zm3.19.805.019-2.67-.409-.178v-.137c.759-.02 1.44-.02 1.44-.02v.138l-.41.176-.038 2.73.758.02.312-.59h.194l-.078.845s-1.225-.059-2.236-.02v-.137zm5.463.825.409-.57.213.06-.252.765h-.078c-.447-.02-.7-.04-.992-.118-.953-.255-1.36-1.001-1.147-1.983.233-1.021.953-1.512 2.158-1.218.292.06.584.216.934.413l-.214.785-.214-.04-.059-.706s-.116-.06-.252-.098c-1.05-.275-1.556.235-1.73 1.04-.195.825.155 1.454.874 1.67.156-.04.233-.02.35 0m6.086 2.651 2.236-1.021.74.746-.098.098-.428-.137-1.828 1.905.214.412-.097.099a79 79 0 0 0-.972-.963l.097-.118.408.138 1.478-1.571-2.47 1.1-.096-.079.739-2.632-1.342 1.709.194.393-.097.098-.933-.668.097-.098.428.138L34.513 8.6l-.195-.393.098-.098.855.628zm2.722 2.396-.836.629.098.432-.098.078c-.408-.57-.875-1.139-.875-1.139l.117-.078.37.216L38.13 12l-.097-.413.117-.078.856 1.12c.291.392.37.628.389.902a.84.84 0 0 1-.35.688c-.487.353-1.09.177-1.537-.432zm.273 0c.155.216.272.295.408.334.214.04.447.02.642-.137.194-.138.31-.315.33-.491.02-.177-.02-.315-.155-.491l-.195-.236-1.147.903zm1.03 2.24-.991.078.02.412-.118.059a29 29 0 0 0-.544-.962l.117-.079.31.275 3.306-.196.117.275-2.217 2.356.02.413-.117.059c-.272-.668-.525-1.277-.525-1.277l.117-.059.31.256.662-.707zm.253-.02.37.746.836-.825zm.486 4.83.72.08.058.215-.778.157-.039-.058c-.233-.393-.33-.629-.408-.904-.272-.982.155-1.67 1.128-2.003 1.01-.334 1.847.177 2.12 1.257.077.294.116.648.116 1.04l-.778.197-.058-.216.564-.393c0-.078-.02-.196-.04-.294-.252-.904-.913-1.257-1.75-.982-.816.275-1.185.824-.972 1.59.02.118.059.197.117.315m3.034 2.318-2.664.197-.137.55-.136.02c-.02-.885-.136-1.69-.136-1.69l.136-.02.214.53 2.664-.196-.058-.687-.68-.197-.02-.196.914-.078s.214 1.453.214 2.887l-.914.078-.02-.196.642-.295zM30.003 7.561c.447-.982 1.342-1.335 2.294-.825.895.452 1.09 1.296.642 2.121-.486.904-1.4 1.277-2.275.825-.817-.412-1.07-1.237-.661-2.12m.622.177c-.37.805-.253 1.492.214 1.728.447.236 1.05-.098 1.478-.844.389-.727.35-1.414-.214-1.709-.584-.314-1.109.04-1.478.825m-.02 18.598c-.077-.059-.097-.392-.097-.392a21.3 21.3 0 0 0-1.264-5.008.6.6 0 0 1-.058-.217c0-.078.04-.157.233-.255a7.1 7.1 0 0 0 2.023-1.394q.117-.118.175-.118c.039 0 .078.04.155.157.759 1.316 1.322 2.789 1.711 4.34q.06.265.059.413c0 .216-.078.373-.273.57-.505.51-1.4 1.237-2.333 1.806-.039 0-.272.138-.33.098m-.816 1.925s0-.295-.097-.354c-.098-.058-.33.04-.33.04-1.634.589-3.423.884-5.29.942-.35.02-.33.099-.35.393-.02 1.67-.058 3.24-.097 4.674 0 0-.02.138.039.197.039.039.194.039.194.039a16.4 16.4 0 0 0 5.25-1.198c.234-.098.273-.255.35-.53.448-1.807.33-4.203.33-4.203m-.72-8.563c.74-.393 1.42-.864 1.848-1.316.097-.098.136-.176.136-.275 0-.098-.04-.196-.136-.353a12.6 12.6 0 0 0-3.461-3.32c-.37.256-.953.492-1.556.63a20.5 20.5 0 0 1 2.742 4.438c.078.157.116.255.175.275.078.02.175-.04.253-.079m-1.283.55c.097-.04.156-.059.195-.137.02-.079-.04-.256-.04-.256-.719-1.787-1.594-3.417-2.527-4.674-.506.098-1.478.157-1.828.157.059 1.807.097 3.594.117 5.323 0 .157.02.235.078.274.039.04.116.06.194.06 1.167-.02 2.839-.374 3.811-.747M29.05 33.78c0-.04-.039-.04-.039-.04-.039 0-.097.02-.233.06a17.5 17.5 0 0 1-4.958.824c-.156 0-.195.059-.214.236l-.098 1.532s2.295.058 4.648-.943c.33-.432.602-.943.836-1.512.02-.06.039-.098.058-.157m4.764-8.465c0-.04-.039 0-.039 0-.544.55-1.536 1.296-2.703 1.885-.37.197-.408.334-.427.668.019 1.905-.214 3.359-.623 4.596 0 0-.039.098.078.039s1.808-.884 2.975-2.082c.389-.392.7-.982.758-1.61.253-2.082-.02-3.496-.02-3.496m.583-2.435c.778-1.355.778-2.475.778-2.475 0-.078 0-.137-.02-.177-.35-1.551-1.166-3.024-2.391-4.38.02.138.02.256.02.394a3.5 3.5 0 0 1-.331 1.473c-.078.176-.117.294-.117.392s.04.158.097.275c.02-.039 1.264 1.67 1.964 4.498m-17.752 3.85c.116-1.926.641-3.948 1.36-5.873.02-.04.02-.079.02-.098 0-.06-.039-.099-.136-.138-1.206-.53-2.12-1.257-2.722-2.042 0 0-.04-.04 0-.079.039-.04.078 0 .078 0 .68.668 1.672 1.218 2.819 1.65.058.02.078.02.117.02.058 0 .097-.04.175-.197.777-1.807 1.788-3.515 2.936-4.93-.973-.235-1.964-.765-2.198-1.335 0 0-.038-.059.02-.098.058-.02.097.04.097.04 1.07 1.178 4.2 1.1 4.2 1.1 1.303 0 4.006-.453 4.006-1.572 0-1.002-1.44-1.532-4.045-1.571-7.894 0-12.133 6.913-12.133 12.392 0 6.619 5.561 12.393 11.997 12.393 0-.099-.078-1.552-.078-1.552 0-.157-.039-.216-.233-.236 0 0-2.8-.216-3.714-.687-.039-.02-.02-.059.04-.059 0 0 1.885.334 3.694.334 0 0 .194.02.194-.216 0-.196-.078-4.694-.078-4.694-.02-.334-.058-.393-.389-.412-1.944-.099-3.85-.51-5.503-1.218-.038-.02-.058-.02-.097-.02-.039.02-.039.099-.039.099-.155 2.081.078 4.104.078 4.104 0 .04 0 .06-.039.06s-.039-.04-.039-.04a14.4 14.4 0 0 1-.447-3.633c0-.099.02-.629.02-.629a.305.305 0 0 0-.175-.294c-.778-.393-1.478-.884-2.1-1.375 0 0-.04-.04 0-.079.039-.02.058 0 .058 0 .642.413 1.38.766 2.139 1.08h.097c0-.02 0-.078.02-.196m15.147-9.703c.214-.55.252-1.316.02-1.866-.215-.51-.895-1.04-.895-1.04-1.05-.825-2.217-1.336-2.761-1.552.097.177.155.354.155.53 0 .315-.155.629-.428.963a13.6 13.6 0 0 1 3.54 2.946s.155.196.252.196c.058-.02.117-.177.117-.177m2.975 9.133c0 .844-.078 1.689-.234 2.474.68-1.178 1.225-2.907 1.225-4.91 0-.57-.039-1.139-.136-1.728a5.3 5.3 0 0 1-.641 1.728c-.214.373-.312.629-.273.884.04.825.059 1.552.059 1.552m-5.29 7.737a9 9 0 0 1-.738 1.277c1.458-.727 3.111-2.16 4.239-3.633a12.3 12.3 0 0 1-2.995 1.787c-.213.118-.408.373-.505.57m-6.416-11.803q0-.383-.35-.412a14 14 0 0 1-4.044-.766c-.059-.02-.098-.04-.136-.04-.04 0-.078.02-.098.118-1.127 2.868-1.36 5.97-1.36 5.97-.02.138.019.178.116.217 0 0 2.392.923 5.464.923 0 0 .214 0 .272-.06.078-.078.097-.137.078-.392.039-1.512.058-5.558.058-5.558m-4.278-1.964c-.077.157-.039.216-.039.216.02.04.078.06.078.06.914.313 2.684.608 3.928.608.136 0 .214-.02.272-.078.059-.06.078-.158.098-.315.038-1.728.077-3.535.174-5.283a10.4 10.4 0 0 1-1.633-.196c-1.167 1.473-2.12 3.142-2.878 4.988m5.23 7.954c.856-.04 3.054-.196 5.27-1.06.311-.118.37-.256.37-.491 0-.06 0-.118-.02-.197-.213-1.708-.622-3.417-1.186-5.126-.078-.216-.116-.255-.175-.255-.039 0-.097.02-.175.04a13.7 13.7 0 0 1-3.986.687c-.272.02-.35.196-.35.393 0 .883.02 2.278.02 4.163v1.571s0 .138.058.216c0 .06.078.079.175.06m-18.705 4.36c.934 2.514 3.248 2.73 4.803 4.262.292.294.583.57.914.746l.02-.02c-.37-.392-.778-.824-1.031-1.335-.914-1.512-.583-3.653-1.283-5.283.622.884 1.186 1.807 1.555 2.828.564 1.65.778 3.515 2.061 4.753-1.4-.55-3.033-.432-4.277-1.434-1.284-1.04-2.509-2.67-2.762-4.517m12.99 7.227c.194 0 .35-.059.35-.059-1.206-.275-2.237-.49-3.267-1.374-1.361-1.159-2.411-2.318-3.928-3.26.194.117 1.05 1.905 1.77 2.965.505.746 1.302 1.159 2.021 1.336.603.157.74.216.74.216s-.098.059-.331 0c0 0-2.003-.413-3.092-.413-4.316 0-5.444-1.67-5.444-1.67 1.283 2.338 3.927 3.222 5.658 3.222 2.489-.02 4.336-.963 5.522-.963m15.885.943c1.73 0 4.375-.864 5.659-3.22 0 0-1.128 1.669-5.445 1.669-1.089 0-3.091.412-3.091.412-.234.059-.33 0-.33 0s.135-.059.738-.216c.7-.177 1.517-.59 2.022-1.336.72-1.06 1.575-2.847 1.77-2.965-1.517.943-2.567 2.121-3.928 3.26-1.03.864-2.061 1.1-3.267 1.375 0 0 .156.059.35.059 1.206.02 3.053.962 5.522.962M7.311 33.622c.428.374 1.303 1.179 1.459 1.414 0 0-.098-.333-.195-.746-.097-.412-.233-1.414-.642-2.278-.31-.687-1.633-2.887-1.886-4.105 0 0-.952 3.81 1.264 5.715m27.3 4.773c1.4-.55 3.014-.432 4.259-1.434 1.302-1.04 2.547-2.67 2.8-4.517-.934 2.514-3.248 2.71-4.823 4.242-.291.295-.583.57-.914.746l-.02-.02c.35-.392.779-.824 1.032-1.335.913-1.512.583-3.652 1.283-5.283-.622.884-1.186 1.807-1.556 2.828-.564 1.67-.777 3.516-2.06 4.773m-3.441 2.75c-2.159-.885-4.395-2.004-6.981-1.474-.292.06-.525.118-.797.118-.253 0-.486-.059-.778-.118-2.606-.53-4.842.59-7 1.473-1.614.59-3.714.491-5.133-.412.7.825 1.633 1.335 2.605 1.689 1.79.668 3.928.216 5.406-.766 1.283-.668 2.372-2.003 4.044-1.512-1.71.746-3.267 1.806-4.686 3.162l.875.687s1.653-2.258 4.647-3.614c2.975 1.355 4.648 3.614 4.648 3.614l.894-.687a16.5 16.5 0 0 0-4.686-3.162c1.672-.51 2.78.825 4.044 1.512 1.498.982 3.617 1.434 5.425.766.972-.354 1.906-.864 2.606-1.69-1.42.924-3.52 1.022-5.133.413m8.497-7.523c2.216-1.905 1.283-5.715 1.283-5.715-.253 1.218-1.575 3.437-1.886 4.105-.408.864-.544 1.866-.642 2.278-.097.413-.194.746-.194.746.136-.235 1.01-1.04 1.439-1.414m-35-10.82c.66.058 1.303.117 1.964.176.525.04.797-.157.836-.668.02-.235 0-.412-.097-.57-.117-.196-.292-.294-.662-.333-.622-.079-1.264-.138-1.886-.216-.077.137-.136.275-.214.412-.038 0-.097 0-.136-.02.04-.412.097-.824.136-1.237.04 0 .098.02.137.02.038.157.077.294.116.452.603.078 1.206.137 1.809.216.447.059.719.216.894.53.136.255.194.55.155.923-.077.786-.486 1.198-1.147 1.14-.66-.06-1.303-.1-1.964-.158a4 4 0 0 0-.194.412c-.039 0-.097 0-.136-.02l.117-1.512c.038 0 .097 0 .136.02.058.157.097.295.136.432m1.05-3.89c.7.236 1.42.472 2.12.708.096-.099.194-.216.29-.315.04.02.079.02.137.04l-.35 1.06c-.039-.02-.097-.02-.136-.04-.02-.156-.02-.294-.04-.45l-2.507-.826-.292.354c-.02 0-.078 0-.117-.02.098-.314.195-.628.311-.962.875-.314 1.75-.628 2.625-.923a63 63 0 0 0-1.77-.629 5 5 0 0 0-.29.334c-.04-.02-.079-.02-.137-.039.117-.373.253-.746.39-1.1.038.02.077.04.116.04 0 .157 0 .314.02.47.933.335 1.866.688 2.8 1.022-.02.079-.06.157-.079.236-1.03.314-2.06.668-3.091 1.04m4.608-5.773.739.53c-.175.452-.311.727-.486.982-.603.844-1.44 1.021-2.275.412-.836-.589-1.109-1.453-.39-2.474.156-.236.41-.472.72-.766l.059-.06.641.472-.136.197-.641-.138a.7.7 0 0 0-.214.197c-.623.785-.428 1.512.33 2.062.68.49 1.4.373 1.848-.256.077-.117.097-.196.097-.196l-.642-.452-.389.236-.117-.079.837-1.158.116.078zm1.342-.354L9.8 10.88l-.408.157-.098-.098 1.031-1.021.097.098-.175.412 1.886 1.945.584-.59-.195-.647.136-.158.525.649s-.816.785-1.614 1.63l-.097-.099zm.914-2.632c-.603-.883-.467-1.826.447-2.415.836-.53 1.653-.295 2.139.51.525.884.389 1.847-.447 2.397-.759.51-1.595.294-2.14-.492m.486-.451c.505.726 1.147.962 1.594.687.428-.275.447-.962 0-1.728-.428-.707-1.03-1.021-1.555-.668-.584.354-.545 1.002-.04 1.709m3.597-.55-1.05-2.475h-.428l-.058-.117 1.478-.629c.35-.137.563-.157.797-.078a.69.69 0 0 1 .428.412c.155.412-.059.825-.584 1.1.642-.236 1.07-.098 1.264.373a.84.84 0 0 1-.078.746c-.136.216-.35.354-.758.53l-1.264.57-.058-.118zm.02-1.63.194-.079c.37-.157.525-.49.37-.864-.137-.373-.428-.51-.798-.353l-.272.137zm.583 1.434.175-.079c.253-.098.37-.177.447-.354a.63.63 0 0 0 0-.53c-.156-.412-.486-.53-.914-.353l-.233.098zm2.528-1.905-.176 1.001.409.098.02.138-1.07.255-.02-.137.33-.236.74-3.26.233-.04 1.672 2.809.39.098.019.138-1.38.196-.02-.137.33-.236-.486-.884zm.038-.236.817-.157-.564-1.041zm3.19.805.019-2.67-.409-.178v-.137c.759-.02 1.44-.02 1.44-.02v.138l-.41.176-.038 2.73.758.02.312-.59h.194l-.078.845s-1.225-.059-2.236-.02v-.137zm5.463.825.409-.57.213.06-.252.765h-.078c-.447-.02-.7-.04-.992-.118-.953-.255-1.36-1.001-1.147-1.983.233-1.021.953-1.512 2.158-1.218.292.06.584.216.934.413l-.214.785-.214-.04-.059-.706s-.116-.06-.252-.098c-1.05-.275-1.556.235-1.73 1.04-.195.825.155 1.454.874 1.67.156-.04.233-.02.35 0m6.086 2.651 2.236-1.021.74.746-.098.098-.428-.137-1.828 1.905.214.412-.097.099a79 79 0 0 0-.972-.963l.097-.118.408.138 1.478-1.571-2.47 1.1-.096-.079.739-2.632-1.342 1.709.194.393-.097.098-.933-.668.097-.098.428.138L34.513 8.6l-.195-.393.098-.098.855.628zm2.722 2.396-.836.629.098.432-.098.078c-.408-.57-.875-1.139-.875-1.139l.117-.078.37.216L38.13 12l-.097-.413.117-.078.856 1.12c.291.392.37.628.389.902a.84.84 0 0 1-.35.688c-.487.353-1.09.177-1.537-.432zm.273 0c.155.216.272.295.408.334.214.04.447.02.642-.137.194-.138.31-.315.33-.491.02-.177-.02-.315-.155-.491l-.195-.236-1.147.903zm1.03 2.24-.991.078.02.412-.118.059a29 29 0 0 0-.544-.962l.117-.079.31.275 3.306-.196.117.275-2.217 2.356.02.413-.117.059c-.272-.668-.525-1.277-.525-1.277l.117-.059.31.256.662-.707zm.253-.02.37.746.836-.825zm.486 4.83.72.08.058.215-.778.157-.039-.058c-.233-.393-.33-.629-.408-.904-.272-.982.155-1.67 1.128-2.003 1.01-.334 1.847.177 2.12 1.257.077.294.116.648.116 1.04l-.778.197-.058-.216.564-.393c0-.078-.02-.196-.04-.294-.252-.904-.913-1.257-1.75-.982-.816.275-1.185.824-.972 1.59.02.118.059.197.117.315m3.034 2.318-2.664.197-.137.55-.136.02c-.02-.885-.136-1.69-.136-1.69l.136-.02.214.53 2.664-.196-.058-.687-.68-.197-.02-.196.914-.078s.214 1.453.214 2.887l-.914.078-.02-.196.642-.295zM30.003 7.561c.447-.982 1.342-1.335 2.294-.825.895.452 1.09 1.296.642 2.121-.486.904-1.4 1.277-2.275.825-.817-.412-1.07-1.237-.661-2.12m.622.177c-.37.805-.253 1.492.214 1.728.447.236 1.05-.098 1.478-.844.389-.727.35-1.414-.214-1.709-.584-.314-1.109.04-1.478.825"/></svg>