<svg xmlns="http://www.w3.org/2000/svg" width="26" height="23" fill="none" viewBox="0 0 26 23"><mask id="a" width="26" height="23" x="0" y="0" maskUnits="userSpaceOnUse" style="mask-type:luminance"><path fill="#fff" d="M25.875 0H0v23h25.875z"/></mask><g fill="#67707E" mask="url(#a)"><path d="M13.225 1.158c-4.701 0-8.573 3.802-8.573 8.572 0 4.701 3.803 8.572 8.573 8.572 4.7 0 8.572-3.802 8.572-8.572s-3.871-8.572-8.572-8.572M19.86 4.96c-.415.276-.898.553-1.382.83a8 8 0 0 0-1.037-1.59c.345-.208.691-.484.968-.692.622.346 1.106.899 1.451 1.452m-3.594-2.834a7.8 7.8 0 0 1 1.935 1.106c-.276.276-.622.484-.968.691-.415-.484-.898-.899-1.382-1.314.138-.207.276-.345.415-.483m.69 1.935c-.483.277-.967.415-1.451.622-.207-.483-.415-.967-.691-1.382.276-.138.553-.277.76-.484.484.346.968.76 1.383 1.244m-1.036-2.074c-.138.139-.277.277-.346.415-.484-.276-.899-.553-1.452-.76a5.2 5.2 0 0 1 1.798.345m-.622.622c-.208.139-.415.277-.623.346-.276-.415-.553-.76-.83-1.175q.727.31 1.453.83m-1.936-.76c.346.346.622.76.899 1.244-.277.07-.553.139-.9.139zm0 1.728c.346 0 .76-.069 1.106-.207.277.415.484.899.691 1.383-.553.138-1.175.207-1.797.276zm-.346-1.728v1.383c-.276 0-.553-.07-.898-.139.345-.414.622-.83.898-1.244m-1.175 1.106c-.207-.069-.484-.207-.622-.346.484-.276.968-.553 1.452-.76-.346.346-.623.691-.83 1.106m.484-1.382c-.484.207-.968.483-1.452.76-.138-.138-.276-.277-.346-.415a14 14 0 0 1 1.798-.345m5.876 14.655c-1.106-.622-1.175-1.52-1.106-1.797.07-.346.277-.207.415-.207.76 0 1.52-.208 2.489-1.245 1.106-1.106 1.451-3.595-.277-5.185-1.797-1.728-3.733-1.451-4.977.139-.277.345-.9.553-1.383.553-.83 0-.277.622-.277.76s-.138.208-.207.208c-.277-.07-.138.345-.138.414 0 .07-.139.208-.139.208-.345 0-.276.276-.207.415 0 .069 0 .207-.138.276s-.208.346-.208.553c0 .346.346.622.9 1.037.552.415.621.83.621 1.106s.07.76.139 1.037c.138.346.138 1.037-.623 1.037-.967.07-2.627.76-2.765.83-.553.207-1.244.276-1.797.138a7 7 0 0 1-.83-.691c-.138-.346.07-.76.277-1.037.345.345.76.276 1.037.276s1.52-.207 1.728-.276.276-.07.346 0c.483.207 1.175.207 1.451-.692.277-.968-.345-.691-.484-.622-.069.07-.207 0-.138-.069.138-.207-.069-.207-.138-.207-.277 0-.622.276-.691.345-.139.07-.208.07-.277.07-.346-.208-1.383.069-1.728-.485 0-.138-.277-2.42-.415-2.834 0-.069-.07-.207.07-.346.276-.414.967 0 1.382 0 .484 0 .553-.207.691-.345s.207-.07.277-.138c.069-.07 0-.139 0-.208s.069 0 .138-.069c.069-.07 0-.207 0-.277.138-.207.415-.069.276-.483-.069-.277.07-.554.208-.692.207-.276 1.106-1.52-.415-2.834-1.452-1.245-2.973-1.106-3.94-.07-.968 1.038-.484 2.559-.415 2.973.069.415-.208.76-.553.9-.277.137-.9.552-1.314.898.07-3.319 2.074-6.222 5.116-7.397.138.138.276.345.415.484-.346.276-1.106.898-1.106.898s.069 0 .207.07c.07 0 .207.069.207.069s.622-.553.968-.76c.208.207.484.345.76.483-.138.277-.552.968-.552.968s.069.069.138.069c.069.07.138.07.138.07s.415-.761.553-1.038q.519.207 1.037.208v1.382c-.207 0-.691 0-.899-.069h-.138l.07.138c.068.07.068.139.138.208h.83v2.558h.345V7.31c.553 0 .968-.069 1.452-.138l.483-.415h-.276c-.553.07-1.037.139-1.452.139h-.207v-1.59c.622 0 1.313-.07 1.935-.277l.484 1.452.346-.138-.484-1.452c.553-.138 1.037-.415 1.521-.622.415.484.76 1.037 1.037 1.59a7 7 0 0 1-.691.276c.345.07.622.138.622.138s.138-.069.207-.069c0 .07.07.208.07.208l.483.207-.069-.138s-.138-.346-.207-.415A7.8 7.8 0 0 0 20 5.236c.898 1.314 1.313 2.904 1.313 4.494.138 2.627-1.175 4.977-3.11 6.498M3.89 3.439l-.138.138c-.484.415-1.66 1.59-1.452 2.904v.069l.07.276.137-.138C3.2 6.066 3.752 4.96 3.96 3.715l.07-.345zM1.54 5.651l-.069.138a7 7 0 0 0-.276 1.245c-.139.83-.07 2.074.622 2.972l.07.139.068.138.138-.553c.139-.968-.069-2.973-.414-3.871l-.139-.277zM.71 9.108v.138c-.069.83 0 2.973 1.728 4.148l.208.138v-.276c0-.83-.968-3.25-1.66-4.08L.78 8.9zm.278 3.802v.139c.276 1.244 1.382 3.18 3.18 3.802l.276.069-.069-.277c-.346-.898-2.074-3.041-3.18-3.733l-.207-.138zM4.65 5.305l-.207.07c-1.313.83-1.935 1.797-1.935 3.041v.277l.207-.138c.692-.623 1.66-2.143 1.867-2.973l.069-.346zm-.828 2.627-.069.139c-.345.345-1.452 1.52-1.382 2.972 0 .208.069.484.138.692l.069.207.138-.207c.553-.76 1.245-2.696 1.175-3.595v-.277zm.068 2.558-.069.139q-.83 1.245-.83 2.489c0 .553.208 1.106.554 1.659l.138.207.069-.207c.207-.484.415-1.936.415-3.111 0-.415-.07-.76-.139-.968l-.069-.277zm.622 2.697-.069.138c-.138.553-.276 1.037-.207 1.59 0 1.106.552 2.005 1.52 2.627l.138.069.07-.207v-.208c0-.899-.692-3.249-1.245-3.94l-.138-.208zm-1.865 3.595.07.138c.69 1.175 1.935 2.765 4.217 2.35h.207l-.138-.138c-.415-.622-3.18-2.212-4.148-2.35l-.277-.07zm3.388 3.041-.346.07.346.138c1.452.622 3.25.76 4.355.415.415-.139.622-.346.899-.623 1.866.208 3.595 1.729 4.632 2.973l.069.07h.069c.138-.07.276-.208.346-.277l.069-.07-.07-.069c-1.036-1.382-2.695-2.212-2.765-2.281-1.52-.691-4.148-1.244-7.604-.346"/><path d="M6.104 15.952v.138c.207 1.383.76 3.18 3.111 2.973h.138l-.069-.138c-.138-.623-2.281-2.42-3.042-2.904l-.207-.138zM22.419 3.3l.069.346c.207 1.245.76 2.35 1.451 2.973l.139.138.069-.276v-.07c.207-1.313-.968-2.488-1.452-2.903l-.138-.138zm2.42 2.213-.139.277c-.345.898-.483 2.903-.414 3.871l.138.553.069-.069.07-.138c.76-.899.76-2.074.621-2.973a5.7 5.7 0 0 0-.276-1.244l-.07-.139zm.899 3.457-.207.276c-.692.899-1.66 3.25-1.66 4.079v.277l.208-.139c1.728-1.106 1.797-3.249 1.728-4.148v-.138zm-.277 3.802-.276.138c-1.107.692-2.835 2.835-3.18 3.733l-.07.277.277-.07c1.797-.552 2.973-2.557 3.18-3.801v-.139zm-3.663-7.605.069.346c.276.899 1.106 2.42 1.866 3.042l.208.138v-.276c.069-1.245-.553-2.213-1.867-3.042l-.138-.07zm.76 2.696v.277c-.069.899.691 2.903 1.175 3.595l.139.207.069-.207c.069-.277.138-.484.138-.692.07-1.451-1.037-2.627-1.383-2.972L22.627 8zm-.07 2.49-.069.276a3.2 3.2 0 0 0-.138.968c0 1.175.138 2.627.415 3.11l.069.208.138-.207c.346-.484.553-1.037.553-1.66 0-.76-.276-1.658-.83-2.488l-.069-.138zm-.623 2.695-.138.208c-.553.691-1.245 3.041-1.245 3.94v.208l.07.207.138-.07c.967-.621 1.451-1.52 1.52-2.626 0-.484-.069-1.037-.207-1.59l-.07-.138zm2.005 3.595-.277.07c-.967.137-3.733 1.727-4.147 2.35l-.139.138h.208c2.281.415 3.526-1.175 4.217-2.35l.069-.139zm-10.99 3.526c-.07 0-1.729.899-2.766 2.281l-.069.07.07.069c.069.069.276.207.345.276h.07l.069-.069c1.036-1.244 2.765-2.834 4.631-2.973.277.277.553.484.899.622 1.037.346 2.903.208 4.355-.414l.346-.139-.346-.069c-3.525-.898-6.152-.345-7.604.346m7.464-4.355-.208.138c-.76.484-2.834 2.281-3.041 2.903l-.07.139h.139c2.281.207 2.834-1.59 3.11-2.973v-.139z"/></g></svg>