<svg xmlns="http://www.w3.org/2000/svg" fill="none" aria-labelledby="uhglogo" viewBox="0 0 298 25"><title>United Health Group Logo</title><path fill="gray" d="M198.398 23.069h-1.785a.913.913 0 0 1-.922-.919v-7.458h-7.247v7.458a.91.91 0 0 1-.919.919h-1.785a.913.913 0 0 1-.922-.919V5.281c0-.487.406-.916.895-.916h1.839c.489 0 .892.429.892.916v6.78h7.247V5.28c0-.487.406-.916.892-.916h1.842c.486 0 .895.429.895.916v16.87a.915.915 0 0 1-.922.918m-190.581.324C2.057 23.392 0 20.16 0 16.316V2.96c0-.545.465-1.048 1.022-1.048H2.65c.557 0 1.022.503 1.022 1.047v13.737c0 3.477 1.93 4.412 4.224 4.412 3.036 0 4.223-1.543 4.223-4.412V2.96c0-.544.465-1.047 1.022-1.047h1.433c.56 0 1.022.503 1.022 1.047v13.357c0 4.445-2.714 7.076-7.779 7.076M87.79 6.531h-3.21v14.367h3.21c4.236 0 5.267-3.203 5.267-7.076s-.996-7.291-5.268-7.291m.864 16.538h-6.776a.914.914 0 0 1-.895-.902V5.295c0-.485.409-.93.895-.93h6.776c4.457 0 7.996 2.382 7.996 9.457s-3.81 9.244-7.996 9.244m27.312.006h-1.606a1.02 1.02 0 0 1-1.036-1.026v-8.547h-8.612v8.547c0 .573-.457 1.026-1.039 1.026h-1.606c-.576 0-1.03-.45-1.03-1.026V3.082c0-.546.452-1.031 1.003-1.031h1.669c.546 0 1.003.485 1.003 1.031v7.723h8.612V3.083c0-.546.457-1.031 1.006-1.031h1.665c.547 0 1.004.485 1.004 1.031v18.963c0 .573-.457 1.026-1.033 1.026m50.496 0h-9.063a.913.913 0 0 1-.922-.919V5.28c0-.485.408-.916.895-.916h1.895c.487 0 .892.43.892.916v15.15h6.303c.487 0 .893.434.893.919v.83a.9.9 0 0 1-.893.891m-122.576.002H42.05a.924.924 0 0 1-.92-.932V5.297c0-.484.407-.932.896-.932h1.885c.489 0 .892.448.892.932V22.14a.92.92 0 0 1-.92.932M61.258 7.005h-4.27V22.14a.924.924 0 0 1-.919.932h-1.836a.924.924 0 0 1-.92-.932V7.005h-4.299a.896.896 0 0 1-.892-.886v-.832c0-.485.406-.922.892-.922h12.241c.487 0 .89.44.89.922v.832a.894.894 0 0 1-.89.886m119.325 0h-4.561V22.14a.92.92 0 0 1-.917.932h-1.838a.925.925 0 0 1-.917-.932V7.005h-4.591a.895.895 0 0 1-.893-.886v-.832c0-.485.403-.922.893-.922h12.824c.487 0 .89.44.89.922v.832a.894.894 0 0 1-.89.886M76.83 23.072H66.237c-.487 0-.892-.313-.892-.798V5.287c0-.485.405-.922.892-.922h10.207c.49 0 .893.44.893.922v.743a.894.894 0 0 1-.892.886H69.02v5.185h6.674c.486 0 .892.431.892.916v.743a.9.9 0 0 1-.892.89H69.02v5.86l7.81.01c.486 0 .889.43.889.914v.843c0 .485-.403.797-.89.797m56.56-.002h-10.591c-.487 0-.893-.313-.893-.798V5.287c0-.485.406-.922.893-.922h10.207c.487 0 .892.44.892.922v.743a.896.896 0 0 1-.892.886h-7.425v5.185h6.671c.489 0 .892.431.892.916v.743a.897.897 0 0 1-.892.89h-6.671v5.86l7.809.01c.487 0 .89.43.89.914v.843c0 .485-.403.797-.89.797m-98.8-.002h-2.772c-.86 0-1.265-.396-1.481-.878-1.377-2.912-6.706-14.825-6.706-14.825v14.798a.913.913 0 0 1-.892.905H21.49a.91.91 0 0 1-.892-.905V5.262c0-.484.402-.9.892-.9h2.712c.8 0 1.293.278 1.566.876a5594 5594 0 0 1 6.681 14.739V5.262c0-.484.406-.9.892-.9h1.25c.486 0 .892.416.892.9v16.902a.913.913 0 0 1-.892.905m107.404-6.666 2.799-9.269 2.634 9.269zm10.973 5.48-5.394-16.656c-.19-.568-.647-.862-1.32-.862h-2.385c-.692 0-1.076.297-1.268.862l-5.378 16.762c-.057.162-.114.275-.114.433a.66.66 0 0 0 .649.647h1.217c.646 0 1.117-.299 1.306-.865l1.063-3.498h6.841l1.108 3.498c.157.488.517.865 1.342.865h1.765c.406 0 .676-.272.676-.676 0-.189-.057-.32-.105-.512m82.212-9.233c2.339 0 3.275-1.056 3.275-3.068 0-2.13-1.082-3.124-3.221-3.124h-3.115v15.63c0 .485-.4.892-.892.892h-1.922a.9.9 0 0 1-.89-.892V5.187c0-.485.406-.916.89-.916h6.303c3.869 0 6.278 1.751 6.278 5.31 0 2.803-1.782 4.15-3.842 4.689l4.058 7.574c.084.161.163.326.163.514 0 .32-.214.62-.514.62h-2.355c-.273 0-.571-.219-.703-.515l-4.337-8.438c-.111-.21-.306-.547-.306-.87 0-.283.141-.507.638-.507zm17.968-6.668c-3.891 0-4.559 3.485-4.559 7.646s.714 7.647 4.502 7.647c3.789 0 4.613-3.3 4.613-7.647s-.724-7.647-4.556-7.647m0 17.391c-3.623 0-8.239-1.242-8.239-9.745s4.583-9.745 8.239-9.745 8.236 1.293 8.236 9.745-4.483 9.745-8.236 9.745m18.867 0c-5.032 0-7.089-2.83-7.089-6.253V5.185c0-.485.405-.914.892-.914h1.893c.489 0 .895.429.895.914v12.147c0 3.098 1.495 3.938 3.583 3.938 2.749 0 3.585-1.613 3.585-3.938V5.185c0-.485.406-.914.892-.914h1.542c.486 0 .895.429.895.914v11.932c0 3.962-2.493 6.254-7.09 6.254m16.932-9.748h.93c1.901 0 3.388-.961 3.388-3.504 0-2.78-1.441-3.69-3.477-3.69h-2.91v15.654c0 .485-.354.892-.838.892h-1.868a.9.9 0 0 1-.89-.892V5.184c0-.484.403-.915.89-.915h6.762c3.64 0 5.765 2.211 5.765 5.847 0 3.289-1.938 5.5-5.77 5.5-.73 0-1.449-.07-1.893-.143-.776-.132-1.125-.549-1.125-.988s.346-.865 1.039-.865m-65.527 8.749c-.99.434-2.534 1.072-5.778 1.072-5.292 0-10.035-2.211-10.035-10.97 0-6.874 2.921-10.971 10.035-10.971 3.28 0 5.094.87 5.521 1.05.652.275.695.407.695.712 0 .145-.081.59-.1.7-.105.533-.257 1.406-.341 1.877-.043.259-.081.62-.478.62-.327 0-.614-.377-.79-.56-.278-.286-1.852-1.91-4.51-1.91-5.046 0-5.9 4.816-5.9 8.481 0 5.056 1.649 8.485 5.9 8.485 1.625 0 2.477-.261 2.742-.334v-6.933c0-.42.246-.555.679-.555h2.333c.492 0 .663.2.663.587v7.582c0 .72-.044.803-.639 1.064"/></svg>