<svg width="26" height="26" viewBox="0 0 26 26" fill="none" xmlns="http://www.w3.org/2000/svg">
<path d="M23.371 7.3649C23.0743 7.4909 22.9361 7.83232 23.0621 8.12903C23.6555 9.53129 23.9563 11.027 23.9563 12.5634C23.9563 13.5064 23.8384 14.4209 23.6189 15.2988C23.4482 15.8516 23.1434 16.3637 22.7247 16.8271C22.7328 16.6279 22.741 16.4288 22.741 16.2255C22.745 13.9819 22.1272 11.6164 20.977 9.38903C21.8183 8.66555 22.3548 7.77135 22.5418 6.77148C22.5987 6.45445 22.3914 6.14961 22.0744 6.08864C21.7574 6.02768 21.4525 6.23903 21.3956 6.55606C21.2737 7.21858 20.9282 7.82419 20.3917 8.34039C20.225 8.064 20.0503 7.79168 19.8674 7.51935C18.8431 6.01548 17.6237 4.71484 16.2906 3.67839C18.0505 3.79219 19.6763 4.22303 20.9892 4.95464C21.1965 5.07252 21.4688 5.06845 21.6598 4.90587C21.9077 4.69858 21.9403 4.32871 21.733 4.08077C19.8511 1.45103 16.5954 0 12.5634 0C5.63748 0 0 5.63748 0 12.5634C0 13.7584 0.17071 14.9127 0.483677 16.0061C0.504 16.0792 0.520258 16.1524 0.540581 16.2255C0.544645 16.2418 0.552774 16.254 0.556839 16.2662C2.142 21.3875 6.92187 25.1228 12.5594 25.1228C15.1688 25.1228 17.5912 24.3221 19.6032 22.9564C19.6235 22.9442 19.6438 22.9361 19.6601 22.9239C19.782 22.8426 19.8958 22.7572 20.0096 22.6678C22.3183 20.9607 24.0294 18.4814 24.7448 15.6118C24.7854 15.4817 24.822 15.3435 24.8505 15.2094C24.8586 15.1769 24.8586 15.1444 24.8626 15.1119C25.0334 14.2868 25.1228 13.4332 25.1228 12.5594C25.1228 10.8645 24.7895 9.21832 24.1351 7.66974C24.0132 7.3771 23.6677 7.2389 23.371 7.3649ZM18.9041 8.18187C19.0951 8.46639 19.278 8.7509 19.4528 9.04355C18.5179 9.58413 17.3392 9.90522 16.063 9.99871C15.9532 7.98271 15.7175 6.03987 15.3354 4.42626C16.6645 5.41394 17.8839 6.69019 18.9041 8.18187ZM17.1685 1.99568C17.7538 2.23142 18.335 2.53219 18.8878 2.91019C18.0058 2.69071 17.0669 2.55658 16.0914 2.50781C16.4897 2.24768 16.8596 2.06884 17.1685 1.99568ZM15.624 1.512C15.2988 1.68677 14.9615 1.90626 14.6201 2.16639C14.4656 1.8209 14.303 1.51606 14.1283 1.25594C14.5957 1.30877 15.0997 1.39006 15.624 1.512ZM10.0678 10.0434C10.9051 10.4214 11.8196 10.7181 12.7788 10.9254C13.5064 11.0799 14.2299 11.1652 14.9452 11.1896C14.9574 11.6286 14.9655 12.0797 14.9655 12.5431C14.9655 15.2948 14.7461 17.579 14.429 19.3634C13.3845 19.3186 12.3074 19.1804 11.2262 18.9528C9.77923 18.6399 8.41355 18.1846 7.17387 17.5994C7.58032 15.7703 8.33632 13.5511 9.53942 11.0921C9.70606 10.7344 9.8849 10.3848 10.0678 10.0434ZM8.02742 7.34458C7.54374 6.88935 7.17794 6.42194 6.93 5.94639C8.02335 5.28794 9.23458 4.75142 10.5271 4.36123C11.2953 4.12955 12.0716 3.95884 12.8479 3.84097C11.7261 5.09284 10.6125 6.68613 9.58819 8.48671C9.0029 8.14935 8.47858 7.76729 8.02742 7.34458ZM14.8965 10.015C14.2786 9.99058 13.6446 9.91335 13.0227 9.77922C12.1773 9.60039 11.3725 9.34026 10.6328 9.0151C11.7221 7.10884 12.917 5.45052 14.0917 4.2149C14.4575 5.66187 14.7664 7.60471 14.8965 10.015ZM12.5472 1.17058C12.7463 1.17465 12.9902 1.41039 13.2463 1.87374C12.6145 1.60246 11.9586 1.39152 11.2872 1.24374C11.7017 1.19497 12.1204 1.17058 12.5472 1.17058ZM6.6089 4.04419C6.73897 3.43858 7.10477 2.898 7.66568 2.44684C9.02729 2.04039 10.6165 2.13794 12.283 2.74761C11.5839 2.86955 10.8807 3.03213 10.1857 3.23942C8.89723 3.62555 7.68194 4.15393 6.56826 4.80019C6.54794 4.54413 6.56013 4.29213 6.6089 4.04419ZM5.51555 3.62148C5.49929 3.68245 5.48303 3.73935 5.47084 3.80439C5.35363 4.35774 5.36476 4.93058 5.50336 5.47897C4.24742 6.34471 3.15406 7.37303 2.28019 8.52329C2.016 8.87284 1.78026 9.23052 1.56484 9.59226C2.2111 7.19826 3.62148 5.11723 5.51555 3.62148ZM5.70252 21.6517C3.72644 20.1575 2.28873 18.0622 1.60548 15.6809C1.50794 15.2988 1.4429 14.9127 1.41852 14.5225C1.80871 15.0753 2.28426 15.6199 2.84923 16.1443C3.70277 16.9328 4.7189 17.64 5.84884 18.2456C5.62123 19.5381 5.55619 20.7087 5.70252 21.6517ZM3.64587 15.2826C2.65413 14.364 1.97129 13.3966 1.62174 12.4293C1.89813 11.3481 2.43058 10.2629 3.21503 9.22645C3.95884 8.23877 4.88555 7.35271 5.95045 6.58858C6.25529 7.14135 6.68613 7.68194 7.23077 8.19406C7.75103 8.68181 8.35258 9.12077 9.02729 9.5069C8.84032 9.85645 8.66148 10.2141 8.48671 10.5759C7.45026 12.7016 6.60484 14.9777 6.1049 17.0466C5.18226 16.5304 4.34903 15.937 3.64587 15.2826ZM12.5715 23.9481C12.5431 23.9481 12.5146 23.9522 12.4903 23.9563C10.7506 23.9441 9.10452 23.5457 7.6291 22.8344C7.59658 22.806 7.55594 22.7816 7.51529 22.7613C6.86497 22.4443 6.60484 20.9973 6.94219 18.7862C8.19 19.3471 9.54755 19.7901 10.9742 20.095C12.0554 20.3266 13.1325 20.4689 14.1892 20.5217C13.673 22.7694 13.0105 23.9481 12.5715 23.9481ZM19.3024 21.7411C17.8178 22.8379 16.0876 23.5551 14.2624 23.8303C14.7298 23.0214 15.1078 21.8834 15.3923 20.5461C17.0425 20.5258 18.6074 20.286 19.9934 19.8186C20.3429 19.7007 20.6721 19.5706 20.9892 19.4284C20.6071 20.3714 20.0421 21.1558 19.3024 21.7411ZM21.4322 17.8798C20.9079 18.2009 20.3063 18.4814 19.6235 18.709C18.4163 19.1154 17.0588 19.3349 15.6159 19.3715C15.9614 17.2945 16.128 14.8843 16.128 12.539C16.128 12.0838 16.1239 11.6245 16.1077 11.1693C17.5628 11.0717 18.9081 10.6937 20.0096 10.0597C21.0298 12.0797 21.5785 14.2095 21.5745 16.2174C21.5745 16.8027 21.5257 17.3595 21.4322 17.8798Z" fill="#67707E"/>
</svg>
