<svg xmlns="http://www.w3.org/2000/svg" width="92" height="19" fill="none" viewBox="0 0 92 19"><g fill="#60646c" clip-path="url(#a)"><path d="M20.365 4.21h4.632v.95h-1.7v4.766h-1.229V5.159h-1.703zm6.511 5.716V7.415h2.175v2.51h1.229V4.21h-1.244v2.255h-2.16V4.21h-1.229v5.716zm4.401 0h3.92v-.95h-2.691V7.448h2.44v-.95h-2.44V5.159h2.605v-.95h-3.834zM40.1 8.51h-.015l-.878-4.3H37.94l1.395 5.716h1.391l1.11-4.354h.015l1.03 4.354h1.36l1.456-5.716h-1.172l-.92 4.3h-.015l-.997-4.3H41.21zm6.013-1.44c0 1.686.855 2.977 2.748 2.977 1.89 0 2.748-1.288 2.748-2.976 0-1.686-.855-2.977-2.748-2.977-1.893-.003-2.748 1.288-2.748 2.977m1.306 0c0-.982.231-2.092 1.442-2.092s1.442 1.11 1.442 2.093c0 .979-.231 2.089-1.442 2.089s-1.442-1.11-1.442-2.09m6.226.553h1.3c.404.014.48.45.513.768.054.517.11 1.03.214 1.535h1.353c-.228-.318-.276-.989-.332-1.354-.104-.792-.104-1.37-1.045-1.472v-.015c.707-.148 1.187-.64 1.187-1.385 0-1.164-1.006-1.481-1.988-1.49h-2.43v5.716h1.228zm0-2.464h1.027c.54.01.855.223.855.728 0 .507-.318.774-.855.783h-1.027zm7.832 4.767v-.95h-2.478V4.21h-1.226v5.716zm.665 0h1.946c1.781.014 2.891-.87 2.891-2.858 0-1.989-1.11-2.876-2.89-2.858h-1.947zM63.37 5.16h.635c1.458-.014 1.671.998 1.671 1.909 0 .908-.213 1.923-1.67 1.908h-.636zm8.88 4.767c.878.062 2.303-.348 2.303-1.481 0-.837-.537-1.336-1.259-1.487v-.015c.57-.19 1.007-.626 1.007-1.25 0-1.115-1.045-1.543-2.066-1.48h-2.146V9.93h2.16zm-.938-.95v-1.52h.959c.578 0 .973.104.973.76 0 .659-.395.76-.973.76zm0-2.47V5.16h.959c.513 0 .798.214.798.674s-.285.674-.798.674zm4.793 3.42.427-1.211h2.265l.412 1.21h1.235L78.458 4.21h-1.457l-2.068 5.716zm.745-2.16.837-2.44h.017l.784 2.44zm9.384 2.16V4.21h-1.149v4.48l-.015.018-2.178-4.496h-1.82v5.716h1.15V5.192l.014-.018 2.256 4.752zm2.235-5.716h-1.226v5.716h1.226V7.01h.014l1.989 2.915H92l-2.28-3.158 2.1-2.558h-1.434l-1.9 2.472h-.014V4.21zM17.065 5.498a.425.425 0 0 0-.226.558 8.27 8.27 0 0 1 .407 5.235 3 3 0 0 1-.653 1.116q.01-.218.012-.44c.003-1.638-.449-3.365-1.289-4.991.615-.529 1.007-1.181 1.143-1.912a.43.43 0 0 0-.341-.498.423.423 0 0 0-.496.341c-.089.484-.341.926-.733 1.303q-.183-.302-.383-.6a12.4 12.4 0 0 0-2.611-2.804c1.285.083 2.472.398 3.43.932a.43.43 0 0 0 .49-.036.43.43 0 0 0 .053-.602C14.496 1.18 12.119.12 9.173.12 4.116.12 0 4.236 0 9.293c0 .873.125 1.716.353 2.514l.042.16.012.03c1.157 3.74 4.647 6.467 8.763 6.467a9.13 9.13 0 0 0 5.143-1.582l.042-.024q.132-.089.255-.187a9.2 9.2 0 0 0 3.458-5.152c.03-.095.056-.196.077-.293.006-.024.006-.048.009-.072.124-.602.19-1.225.19-1.864a9.1 9.1 0 0 0-.722-3.57.425.425 0 0 0-.558-.222m-3.262.596q.21.31.4.63c-.682.394-1.543.629-2.474.697-.08-1.472-.253-2.89-.532-4.069.97.721 1.861 1.653 2.606 2.742m-1.267-4.517c.427.172.851.392 1.255.668a10.7 10.7 0 0 0-2.042-.294c.291-.19.561-.32.787-.374m-1.128-.353a5.6 5.6 0 0 0-.733.478 4.5 4.5 0 0 0-.36-.665c.342.039.71.098 1.093.187M7.35 7.454c.611.275 1.28.492 1.98.643a9 9 0 0 0 1.581.193q.015.48.015.989c0 2.009-.16 3.677-.391 4.98a14.4 14.4 0 0 1-2.34-.3 13.8 13.8 0 0 1-2.958-.989c.297-1.335.849-2.955 1.727-4.75q.185-.393.386-.767M5.86 5.482a3.9 3.9 0 0 1-.801-1.021c.798-.48 1.683-.873 2.626-1.157.561-.17 1.128-.294 1.695-.38-.82.914-1.632 2.077-2.38 3.392a6.2 6.2 0 0 1-1.14-.834m5.016 1.95a8 8 0 0 1-1.368-.172 9 9 0 0 1-1.745-.558C8.559 5.31 9.43 4.1 10.289 3.198c.267 1.056.493 2.475.588 4.235M9.16.975c.146.003.324.175.51.513a8 8 0 0 0-1.43-.46q.454-.053.92-.053M4.826 3.073c.095-.442.362-.837.771-1.166.994-.297 2.155-.226 3.372.22a14 14 0 0 0-1.532.358c-.94.282-1.828.668-2.641 1.14a2 2 0 0 1 .03-.552m-.799-.309q-.019.066-.032.134c-.086.404-.078.822.023 1.223a10.3 10.3 0 0 0-2.353 2.223 9 9 0 0 0-.522.78 8.33 8.33 0 0 1 2.884-4.36m.137 13.165a8.35 8.35 0 0 1-2.992-4.36 4.6 4.6 0 0 1-.136-.845c.285.403.632.801 1.044 1.184a10.6 10.6 0 0 0 2.19 1.534c-.166.944-.213 1.799-.106 2.487m-1.502-4.65c-.724-.67-1.223-1.377-1.478-2.083.202-.79.59-1.582 1.163-2.339a9.2 9.2 0 0 1 1.998-1.926c.222.404.537.798.935 1.172q.571.535 1.311.959-.204.383-.394.78c-.757 1.552-1.374 3.214-1.74 4.725a9.3 9.3 0 0 1-1.795-1.288m6.517 6.327a.4.4 0 0 0-.06.006 8.3 8.3 0 0 1-3.549-.82.4.4 0 0 0-.083-.053c-.474-.231-.664-1.288-.418-2.902.911.41 1.902.733 2.944.956.79.169 1.576.273 2.347.311-.377 1.642-.86 2.502-1.18 2.502m4.915-1.611a8.3 8.3 0 0 1-3.68 1.525c.341-.59.617-1.421.825-2.398 1.205-.015 2.347-.19 3.36-.531q.381-.129.726-.285c-.278.689-.691 1.261-1.231 1.689m1.555-2.82c-.383.235-.822.44-1.32.606-.882.297-1.873.457-2.927.483.252-1.516.374-3.276.374-4.988q.002-.5-.015-1c1.063-.072 2.045-.348 2.85-.81.744 1.474 1.145 3.03 1.142 4.495q-.001.643-.104 1.214"/></g><defs><clipPath id="a"><path fill="#fff" d="M0 0h92v18.584H0z"/></clipPath></defs></svg>