<?xml version="1.0" encoding="utf-8"?>
<!-- Generator: Adobe Illustrator 19.1.0, SVG Export Plug-In . SVG Version: 6.00 Build 0)  -->
<!DOCTYPE svg PUBLIC "-//W3C//DTD SVG 1.1//EN" "http://www.w3.org/Graphics/SVG/1.1/DTD/svg11.dtd">
<svg version="1.1" id="Layer_1" xmlns="http://www.w3.org/2000/svg" xmlns:xlink="http://www.w3.org/1999/xlink" x="0px" y="0px"
	 viewBox="420 296 1452.1 201" style="enable-background:new 420 296 1452.1 201;" xml:space="preserve">
<style type="text/css">
	.st0{fill:#EDAA00;}
	.st1{fill:#002856;}
</style>
<g>
	<g>
		<path class="st0" d="M611.5,299.9h-31.2l-1.9,0c-5.8-0.1-7.9,2.1-9.6,4.7l-24.5,36.4l-23.5-35.6l-0.8-1.2c0,0-0.6-1-1.8-1.1h0h0
			c-1.1,0-1.8,1.1-1.8,1.1l-0.8,1.2L493,340.9l-25.3-36.4c-1.7-2.7-3.8-4.8-9.6-4.7l-1.9,0H425l0,29.7h18.4c3.9,0,5.7,0.1,8.3,3.3
			l1.1,1.6l37.1,58.1c0,0,1.2,1.9,3.3,1.9c2.2,0,3.4-1.9,3.4-1.9l21.6-32.4l0,0l0,0l22.5,32.4c0,0,1.3,1.9,3.2,2
			c2,0,3.2-1.9,3.2-1.9l36.6-58.1l1.1-1.6c1.9-3,4.3-3.3,8.2-3.2l18.4,0L611.5,299.9z"/>
		<path class="st0" d="M564.4,383l-20,31.7l-25.8-37.4l-19.8,29.2l41.8,65.6c1.4,2.5,2.6,2.8,3.2,2.9c1.3,0.1,2-0.6,3.4-2.9
			l32.8-59.9c2.9-5.2,7.8-5.1,7.8-5.1h23.7v-29.6h-37C567.8,377.4,564.4,383,564.4,383"/>
		<path class="st1" d="M1059,299.9v89.1c0,9.9-2,17.7-5.8,22.3c-3.8,4.5-10.9,6.8-21.2,6.8c-5.9,0-10.7-0.8-14.2-2.5
			c-3.4-1.7-6.1-3.8-8-6.4c-1.9-2.6-3.2-5.7-3.8-9.1c-0.6-3.6-1-7.4-1-11.1v-89.1h-34.8v89.1c0,19.6,5.5,34.3,16.3,43.9
			c10.7,9.4,26,14.2,45.3,14.2c19.1,0,34.3-4.8,45.2-14.3c11-9.6,16.6-24.3,16.6-43.8v-89.1H1059z"/>
		<polygon class="st1" points="791.4,299.9 770.1,397.2 769.5,397.2 747.3,299.9 715.3,299.9 692.8,396.1 692.1,396.1 671.6,299.9 
			636.4,299.9 674.8,443.9 709,443.9 730.7,354.1 731.4,354.1 753.4,443.9 787.1,443.9 826.1,299.9 		"/>
		<polygon class="st1" points="926.9,299.9 897,400.9 896.2,400.9 866.7,299.9 830.6,299.9 877.5,443.9 915.1,443.9 963.1,299.9 		
			"/>
		<rect x="1492.1" y="339" class="st0" width="15.4" height="104.9"/>
		<rect x="1492.1" y="299.9" class="st0" width="15.4" height="19.6"/>
		<path class="st0" d="M1599.5,405.7c-0.4,4-1.4,7.8-3,11.2c-1.6,3.4-3.7,6.3-6.2,8.8c-2.5,2.4-5.4,4.4-8.6,5.7
			c-3.2,1.4-6.7,2.1-10.3,2.1c-5.6,0-10.7-1.2-14.9-3.6c-4.3-2.4-7.9-5.6-10.7-9.5c-2.9-3.9-5-8.5-6.5-13.5
			c-1.5-5-2.2-10.2-2.2-15.5c0-5.2,0.7-10.5,2.2-15.5c1.5-5,3.6-9.5,6.5-13.5c2.8-3.9,6.4-7.1,10.7-9.5c4.2-2.4,9.3-3.6,14.9-3.6
			c7.9,0,14,2.1,18.4,6.1c4.4,4.1,7.4,9.9,9.1,17.2l0.3,1.1h15.3l-0.2-1.7c-1.5-12.1-6.2-21.2-14.1-27.3c-7.8-6-17.4-9-28.6-9
			c-8,0-15.1,1.5-21.3,4.5c-6.2,3-11.4,7-15.6,12c-4.2,5-7.4,10.9-9.6,17.6c-2.1,6.6-3.2,13.8-3.2,21.3s1.1,14.7,3.2,21.3
			c2.2,6.7,5.4,12.6,9.6,17.6c4.2,5,9.5,9,15.6,11.9c6.2,2.9,13.3,4.4,21.3,4.4c11.9,0,21.8-3.6,29.5-10.8
			c7.6-7.1,12.3-17.2,14.1-29.8l0.2-1.7h-15.5L1599.5,405.7z"/>
		<rect x="1627.3" y="339" class="st0" width="15.4" height="104.9"/>
		<rect x="1627.3" y="299.9" class="st0" width="15.4" height="19.6"/>
		<polygon class="st0" points="1234.3,299.9 1186.7,420.9 1141.2,300.8 1140.9,299.9 1118.6,299.9 1118.6,443.9 1135,443.9 
			1135,328.8 1135.5,328.8 1179,442.9 1179.3,443.9 1194,443.9 1239.7,328.3 1240.1,328.3 1240.1,443.9 1256.5,443.9 1256.5,299.9 
					"/>
		<path class="st0" d="M1746.6,360.1c-1.2-5.1-3.4-9.4-6.4-13c-3-3.5-7.1-6.3-12.1-8.2c-5-1.9-11.2-2.9-18.4-2.9
			c-7.5,0-14.5,2-20.7,5.9c-4.3,2.6-7.9,6.5-10.2,10.8h-0.5V339h-15.4v104.9h15.4l0-60.9c0.1-4.8,0.9-9.4,2.4-13.5
			c1.4-4.1,3.5-7.6,6-10.6c2.5-2.9,5.7-5.3,9.4-6.9c3.7-1.7,8-2.5,12.7-2.5c4.8,0,8.8,0.8,11.9,2.2c3.1,1.5,5.6,3.5,7.4,6
			c1.8,2.6,3.2,5.7,3.9,9.2c0.8,3.6,1.2,7.6,1.2,11.8v65.1h15.4v-67.1C1748.4,370.7,1747.8,365,1746.6,360.1"/>
		<path class="st0" d="M1456.7,299.9v54.1h-0.5c-0.8-1.7-1.9-3.6-3-4.8c-2.5-2.9-5.5-5.3-8.7-7.3c-3.3-2-6.8-3.5-10.6-4.4
			c-3.7-0.9-7.6-1.4-11.5-1.4c-8,0-15,1.5-20.9,4.5c-5.9,3-10.9,7.1-14.8,12.2c-3.9,5.1-6.9,11-8.7,17.7c-1.9,6.6-2.8,13.7-2.8,21
			c0,7.4,0.9,14.4,2.8,21c1.9,6.7,4.8,12.6,8.7,17.7c3.9,5.1,8.9,9.2,14.8,12.1c5.9,2.9,12.9,4.4,20.9,4.4c3.8,0,7.7-0.6,11.6-1.6
			c3.9-1.1,7.5-2.6,10.9-4.6c3.4-2,6.5-4.4,9.1-7.3c1.2-1.3,2.4-3,3.3-4.8h0.4v15.5h14.4v-144H1456.7z M1454.8,406.8
			c-1.2,5-3.2,9.5-5.9,13.4c-2.7,3.9-6.3,7.1-10.6,9.5c-4.3,2.4-9.7,3.7-16,3.7c-5.6,0-10.5-1.2-14.5-3.6c-4-2.4-7.3-5.7-9.9-9.5
			c-2.6-3.9-4.5-8.4-5.7-13.5c-1.2-5.1-1.8-10.2-1.8-15.4c0-5.1,0.6-10.3,1.8-15.4c1.2-5,3.1-9.5,5.7-13.5c2.6-3.9,5.9-7.1,9.9-9.5
			c4-2.4,8.8-3.6,14.5-3.6c6.3,0,11.7,1.2,16,3.7c4.3,2.4,7.9,5.7,10.6,9.5c2.7,3.9,4.7,8.4,5.9,13.4c1.2,5.1,1.8,10.3,1.8,15.4
			C1456.7,396.5,1456.1,401.7,1454.8,406.8"/>
		<path class="st0" d="M1347.6,410.6c-2,6.6-5.2,12-9.6,16.1c-4.8,4.5-11.7,6.7-20.3,6.7c-5.6,0-10.5-1.2-14.5-3.5
			c-4-2.4-7.4-5.4-10-9.1c-2.6-3.7-4.6-7.8-5.8-12.4c-1.1-4.1-1.7-8.2-1.8-12.1h78.4l0.1-1.4c0.3-7.2-0.4-14.4-2-21.4
			c-1.6-7.1-4.3-13.4-8-18.9c-3.7-5.5-8.7-10-14.6-13.4c-6-3.4-13.3-5.1-21.7-5.1c-8.2,0-15.5,1.6-21.5,4.8c-6,3.2-11,7.5-14.8,12.7
			c-3.8,5.2-6.6,11.2-8.4,17.8c-1.8,6.5-2.7,13.3-2.7,20.1c0,7.3,0.9,14.4,2.7,21c1.8,6.7,4.7,12.6,8.4,17.7
			c3.8,5.1,8.8,9.2,14.9,12.1c6,2.9,13.3,4.4,21.5,4.4c13.2,0,23.6-3.3,30.9-9.9c6.9-6.2,11.9-15.1,14.6-26.2H1347.6z M1288.7,371.3
			c1.6-4.2,3.7-8,6.4-11.2c2.6-3.2,5.9-5.8,9.6-7.7c3.7-1.9,8.1-2.9,13-2.9c4.7,0,9,1,12.8,2.9c3.8,1.9,7,4.5,9.6,7.7
			c2.6,3.2,4.7,6.9,6.2,11.1c1.3,3.7,2.1,7.6,2.3,11.7h-62.8C1286.3,378.9,1287.3,375,1288.7,371.3"/>
		<path class="st0" d="M1839.7,410.6c-2,6.6-5.2,12-9.6,16.1c-4.8,4.5-11.7,6.7-20.3,6.7c-5.6,0-10.5-1.2-14.5-3.5
			c-4-2.4-7.4-5.4-10-9.1c-2.6-3.7-4.6-7.8-5.8-12.4c-1.1-4.1-1.7-8.2-1.8-12.1h78.4l0.1-1.4c0.3-7.2-0.4-14.4-2-21.4
			c-1.6-7.1-4.3-13.4-8-18.9c-3.7-5.5-8.7-10-14.6-13.4c-6-3.4-13.3-5.1-21.7-5.1c-8.2,0-15.5,1.6-21.5,4.8c-6,3.2-11,7.5-14.8,12.7
			c-3.8,5.2-6.6,11.2-8.4,17.8c-1.8,6.5-2.7,13.3-2.7,20.1c0,7.3,0.9,14.4,2.7,21c1.8,6.7,4.7,12.6,8.4,17.7
			c3.8,5.1,8.8,9.2,14.9,12.1c6,2.9,13.3,4.4,21.5,4.4c13.2,0,23.6-3.3,30.9-9.9c6.9-6.2,11.9-15.1,14.6-26.2H1839.7z M1780.8,371.3
			c1.6-4.2,3.7-8,6.4-11.2c2.6-3.2,5.9-5.8,9.6-7.7c3.7-1.9,8.1-2.9,13-2.9c4.7,0,9,1,12.8,2.9c3.8,1.9,7,4.5,9.6,7.7
			c2.6,3.2,4.7,6.9,6.2,11.1c1.3,3.7,2.1,7.6,2.3,11.7h-62.8C1778.4,378.9,1779.4,375,1780.8,371.3"/>
	</g>
	<path class="st0" d="M570,469.9c0,3.8-3.1,6.8-7,6.8c-3.9,0-7-3-7-6.8c0-3.8,3.1-6.8,7-6.8C566.9,463.1,570,466.1,570,469.9
		 M557.8,469.9c0,3.1,2.3,5.5,5.3,5.5c3,0,5.2-2.4,5.2-5.4c0-3-2.2-5.5-5.3-5.5C560,464.5,557.8,466.9,557.8,469.9 M562,473.4h-1.6
		v-6.8c0.6-0.1,1.5-0.2,2.6-0.2c1.3,0,1.9,0.2,2.3,0.5c0.4,0.3,0.7,0.8,0.7,1.5c0,0.8-0.6,1.4-1.4,1.6v0.1c0.7,0.2,1,0.7,1.2,1.7
		c0.2,1,0.4,1.4,0.5,1.6h-1.7c-0.2-0.2-0.3-0.8-0.5-1.6c-0.1-0.7-0.5-1.1-1.4-1.1H562V473.4z M562,469.6h0.7c0.9,0,1.6-0.3,1.6-1
		c0-0.6-0.5-1.1-1.5-1.1c-0.4,0-0.7,0-0.9,0.1V469.6z"/>
	<g>
		<path class="st0" d="M1849,437.4v-1h7.4v1h-3.1v8.2h-1.2v-8.2H1849z"/>
		<path class="st0" d="M1859.2,436.4l2.9,7.8l2.9-7.8h1.7v9.3h-1.2v-7.7h0l-2.9,7.7h-1.1l-2.9-7.7h0v7.7h-1.2v-9.3H1859.2z"/>
	</g>
</g>
</svg>
