<svg width="668" height="280" viewBox="0 0 668 280" fill="none" xmlns="http://www.w3.org/2000/svg">
<g clip-path="url(#clip0_10763_3698)">
<ellipse cx="334" cy="143" rx="194" ry="167" fill="url(#paint0_radial_10763_3698)"/>
<rect x="84" y="124" width="88" height="8" rx="4" fill="#303236"/>
<rect x="84" y="60" width="56" height="8" rx="4" fill="#303236"/>
<rect x="84" y="188" width="88" height="8" rx="4" fill="#303236"/>
<rect x="84" y="140" width="40" height="8" rx="4" fill="#303236"/>
<rect x="84" y="76" width="88" height="8" rx="4" fill="#303236"/>
<rect x="84" y="204" width="64" height="8" rx="4" fill="#303236"/>
<rect x="40" y="120" width="32" height="32" rx="16" fill="#222326"/>
<path d="M52.385 138.321C51.4419 138.883 48.9689 140.029 50.4751 141.464C51.2109 142.165 52.0303 142.667 53.0606 142.667H58.9394C59.9697 142.667 60.7891 142.165 61.5249 141.464C63.0311 140.029 60.5581 138.883 59.6149 138.321C57.4032 137.004 54.5968 137.004 52.385 138.321Z" fill="#4B4D53"/>
<path d="M59 132.333C59 133.99 57.6569 135.333 56 135.333C54.3431 135.333 53 133.99 53 132.333C53 130.676 54.3431 129.333 56 129.333C57.6569 129.333 59 130.676 59 132.333Z" fill="#4B4D53"/>
<rect x="40" y="56" width="32" height="32" rx="16" fill="#222326"/>
<path d="M52.385 74.3211C51.4419 74.8827 48.9689 76.0294 50.4751 77.4644C51.2109 78.1653 52.0303 78.6667 53.0606 78.6667H58.9394C59.9697 78.6667 60.7891 78.1653 61.5249 77.4644C63.0311 76.0294 60.5581 74.8827 59.6149 74.3211C57.4032 73.0041 54.5968 73.0041 52.385 74.3211Z" fill="#4B4D53"/>
<path d="M59 68.3333C59 69.9902 57.6569 71.3333 56 71.3333C54.3431 71.3333 53 69.9902 53 68.3333C53 66.6765 54.3431 65.3333 56 65.3333C57.6569 65.3333 59 66.6765 59 68.3333Z" fill="#4B4D53"/>
<rect x="40" y="184" width="32" height="32" rx="16" fill="#222326"/>
<path d="M52.385 202.321C51.4419 202.883 48.9689 204.029 50.4751 205.464C51.2109 206.165 52.0303 206.667 53.0606 206.667H58.9394C59.9697 206.667 60.7891 206.165 61.5249 205.464C63.0311 204.029 60.5581 202.883 59.6149 202.321C57.4032 201.004 54.5968 201.004 52.385 202.321Z" fill="#4B4D53"/>
<path d="M59 196.333C59 197.99 57.6569 199.333 56 199.333C54.3431 199.333 53 197.99 53 196.333C53 194.676 54.3431 193.333 56 193.333C57.6569 193.333 59 194.676 59 196.333Z" fill="#4B4D53"/>
<rect x="588" y="126" width="40" height="20" rx="10" fill="#222326"/>
<rect x="591" y="129" width="14" height="14" rx="7" fill="#4B4D53"/>
<rect x="588" y="62" width="40" height="20" rx="10" fill="#222326"/>
<rect x="611" y="65" width="14" height="14" rx="7" fill="#6E56CF"/>
<rect x="588" y="190" width="40" height="20" rx="10" fill="#222326"/>
<rect x="591" y="193" width="14" height="14" rx="7" fill="#4B4D53"/>
<line x1="40" y1="103.5" x2="628" y2="103.5" stroke="url(#paint1_linear_10763_3698)"/>
<line x1="40" y1="167.5" x2="628" y2="167.5" stroke="url(#paint2_linear_10763_3698)"/>
<rect x="500" y="120" width="32" height="32" rx="8" fill="#222326"/>
<path fill-rule="evenodd" clip-rule="evenodd" d="M514.882 129.506C515.609 129.276 516.391 129.276 517.117 129.506C517.84 129.735 518.408 130.277 518.979 131.04C519.547 131.8 520.175 132.86 520.985 134.226L521.017 134.28C521.827 135.646 522.455 136.706 522.846 137.565C523.24 138.429 523.436 139.174 523.279 139.891C523.122 140.612 522.734 141.268 522.169 141.764C521.605 142.258 520.837 142.467 519.87 142.567C518.909 142.667 517.651 142.667 516.033 142.667H515.967C514.348 142.667 513.091 142.667 512.129 142.567C511.163 142.467 510.395 142.258 509.831 141.764C509.266 141.268 508.878 140.612 508.72 139.891C508.564 139.174 508.76 138.429 509.153 137.565C509.545 136.706 510.173 135.646 510.983 134.28L511.015 134.226C511.824 132.86 512.453 131.8 513.021 131.04C513.592 130.277 514.159 129.735 514.882 129.506Z" fill="#6E56CF"/>
<path fill-rule="evenodd" clip-rule="evenodd" d="M515.318 139.252C515.318 138.893 515.622 138.602 515.997 138.602H516.003C516.378 138.602 516.682 138.893 516.682 139.252C516.682 139.611 516.378 139.902 516.003 139.902H515.997C515.622 139.902 515.318 139.611 515.318 139.252ZM515.318 136.65C515.318 137.01 515.623 137.301 516 137.301C516.377 137.301 516.682 137.01 516.682 136.65V134.049C516.682 133.69 516.377 133.398 516 133.398C515.623 133.398 515.318 133.69 515.318 134.049V136.65Z" fill="#C2B5F5"/>
<rect x="500" y="56" width="32" height="32" rx="8" fill="#222326"/>
<path fill-rule="evenodd" clip-rule="evenodd" d="M516 64.8333C515.739 64.8333 515.48 64.9135 515.237 65.0053C514.99 65.0986 514.684 65.2349 514.31 65.4013C513.761 65.6457 513.025 65.93 512.248 66.1513C511.681 66.3129 511.211 66.4467 510.853 66.5859C510.492 66.726 510.137 66.9097 509.894 67.2326C509.66 67.5435 509.575 67.901 509.536 68.2623C509.5 68.6076 509.5 69.0373 509.5 69.5422V71.4679C509.5 73.5117 510.421 75.1281 511.523 76.3249C512.621 77.5167 513.974 78.3505 514.831 78.8038C515.187 78.9929 515.515 79.1667 516 79.1667C516.485 79.1667 516.813 78.9929 517.169 78.8038C518.026 78.3505 519.379 77.5167 520.477 76.3249C521.579 75.1281 522.5 73.5117 522.5 71.4679V69.5422C522.5 69.0373 522.5 68.6076 522.464 68.2623C522.425 67.901 522.34 67.5435 522.106 67.2326C521.863 66.9097 521.508 66.726 521.147 66.5859C520.789 66.4467 520.319 66.3129 519.752 66.1513C518.975 65.93 518.239 65.6457 517.69 65.4013C517.316 65.2349 517.01 65.0986 516.763 65.0053C516.52 64.9135 516.261 64.8333 516 64.8333ZM514.819 66.6005C515.216 66.4239 515.488 66.303 515.696 66.2245C515.912 66.143 515.986 66.1364 516 66.1364C516.014 66.1364 516.088 66.143 516.304 66.2245C516.512 66.303 516.784 66.4239 517.181 66.6005C517.775 66.8647 518.519 67.1547 519.365 67.3958L519.606 67.4645L512.096 74.9939C511.337 74.034 510.8 72.8644 510.8 71.4679V69.5766C510.8 69.0279 510.801 68.6679 510.829 68.3996C510.857 68.1395 510.903 68.0557 510.931 68.018C510.951 67.9923 511.024 67.9171 511.323 67.8008C511.618 67.6863 512.028 67.5686 512.635 67.3958C513.481 67.1547 514.225 66.8647 514.819 66.6005Z" fill="#4B4D53"/>
<rect x="500" y="184" width="32" height="32" rx="8" fill="#222326"/>
<path fill-rule="evenodd" clip-rule="evenodd" d="M516 192.833C515.739 192.833 515.48 192.913 515.237 193.005C514.99 193.099 514.684 193.235 514.31 193.401C513.761 193.646 513.025 193.93 512.248 194.151C511.681 194.313 511.211 194.447 510.853 194.586C510.492 194.726 510.137 194.91 509.894 195.233C509.66 195.543 509.575 195.901 509.536 196.262C509.5 196.608 509.5 197.037 509.5 197.542V199.468C509.5 201.512 510.421 203.128 511.523 204.325C512.621 205.517 513.974 206.351 514.831 206.804C515.187 206.993 515.515 207.167 516 207.167C516.485 207.167 516.813 206.993 517.169 206.804C518.026 206.351 519.379 205.517 520.477 204.325C521.579 203.128 522.5 201.512 522.5 199.468V197.542C522.5 197.037 522.5 196.608 522.464 196.262C522.425 195.901 522.34 195.543 522.106 195.233C521.863 194.91 521.508 194.726 521.147 194.586C520.789 194.447 520.319 194.313 519.752 194.151C518.975 193.93 518.239 193.646 517.69 193.401C517.316 193.235 517.01 193.099 516.763 193.005C516.52 192.913 516.261 192.833 516 192.833ZM514.819 194.6C515.216 194.424 515.488 194.303 515.696 194.224C515.912 194.143 515.986 194.136 516 194.136C516.014 194.136 516.088 194.143 516.304 194.224C516.512 194.303 516.784 194.424 517.181 194.6C517.775 194.865 518.519 195.155 519.365 195.396L519.606 195.464L512.096 202.994C511.337 202.034 510.8 200.864 510.8 199.468V197.577C510.8 197.028 510.801 196.668 510.829 196.4C510.857 196.14 510.903 196.056 510.931 196.018C510.951 195.992 511.024 195.917 511.323 195.801C511.618 195.686 512.028 195.569 512.635 195.396C513.481 195.155 514.225 194.865 514.819 194.6Z" fill="#4B4D53"/>
<g filter="url(#filter0_b_10763_3698)">
<g clip-path="url(#clip1_10763_3698)">
<rect x="228" y="40" width="216" height="192" rx="10" fill="#1A1B1D" fill-opacity="0.48"/>
<mask id="path-31-inside-1_10763_3698" fill="white">
<path d="M228 40H444V72H228V40Z"/>
</mask>
<path d="M228 40H444V72H228V40Z" fill="#1A1B1D"/>
<path d="M444 71H228V73H444V71Z" fill="#27282B" mask="url(#path-31-inside-1_10763_3698)"/>
<g clip-path="url(#clip2_10763_3698)">
<path d="M247.21 59.2087L249.835 61.8337M248.668 55.417C248.668 52.5175 246.317 50.167 243.418 50.167C240.518 50.167 238.168 52.5175 238.168 55.417C238.168 58.3165 240.518 60.667 243.418 60.667C246.317 60.667 248.668 58.3165 248.668 55.417Z" stroke="#4B4D53" stroke-width="1.5" stroke-linecap="round" stroke-linejoin="round"/>
</g>
<path d="M265.474 61.14C264.755 61.14 264.093 61.014 263.486 60.762C262.889 60.5007 262.366 60.1367 261.918 59.67C261.47 59.2033 261.125 58.6527 260.882 58.018C260.639 57.3833 260.518 56.688 260.518 55.932C260.518 55.176 260.639 54.4853 260.882 53.86C261.125 53.2347 261.465 52.6933 261.904 52.236C262.352 51.7693 262.875 51.41 263.472 51.158C264.079 50.906 264.746 50.78 265.474 50.78C266.277 50.78 267 50.9387 267.644 51.256C268.288 51.5733 268.815 52.0213 269.226 52.6C269.646 53.1693 269.903 53.8413 269.996 54.616H268.204C268.092 53.86 267.789 53.2813 267.294 52.88C266.799 52.4693 266.197 52.264 265.488 52.264C264.863 52.264 264.317 52.4133 263.85 52.712C263.383 53.0107 263.019 53.4353 262.758 53.986C262.497 54.5273 262.366 55.1713 262.366 55.918C262.366 56.6833 262.497 57.346 262.758 57.906C263.019 58.4567 263.388 58.886 263.864 59.194C264.34 59.502 264.886 59.656 265.502 59.656C266.193 59.656 266.785 59.4553 267.28 59.054C267.775 58.6433 268.087 58.0647 268.218 57.318H270.024C269.912 58.0833 269.646 58.7553 269.226 59.334C268.815 59.9127 268.288 60.3607 267.644 60.678C267 60.986 266.277 61.14 265.474 61.14ZM274.443 61.14C273.687 61.14 273.019 60.9813 272.441 60.664C271.871 60.3467 271.428 59.908 271.111 59.348C270.793 58.7787 270.635 58.13 270.635 57.402C270.635 56.674 270.793 56.0347 271.111 55.484C271.428 54.9333 271.871 54.504 272.441 54.196C273.019 53.8787 273.687 53.72 274.443 53.72C275.208 53.72 275.875 53.8787 276.445 54.196C277.014 54.504 277.457 54.9333 277.775 55.484C278.092 56.0347 278.251 56.674 278.251 57.402C278.251 58.13 278.087 58.7787 277.761 59.348C277.443 59.908 277 60.3467 276.431 60.664C275.861 60.9813 275.199 61.14 274.443 61.14ZM274.443 59.726C274.816 59.726 275.152 59.6327 275.451 59.446C275.749 59.25 275.983 58.9793 276.151 58.634C276.319 58.2793 276.403 57.864 276.403 57.388C276.403 56.688 276.216 56.1373 275.843 55.736C275.479 55.3347 275.012 55.134 274.443 55.134C273.873 55.134 273.402 55.3347 273.029 55.736C272.655 56.1373 272.469 56.688 272.469 57.388C272.469 57.864 272.553 58.2793 272.721 58.634C272.898 58.9793 273.131 59.25 273.421 59.446C273.719 59.6327 274.06 59.726 274.443 59.726ZM279.373 61V53.86H281.095V55.54H281.137V61H279.373ZM284.175 61V56.394C284.175 55.974 284.068 55.666 283.853 55.47C283.648 55.2647 283.354 55.162 282.971 55.162C282.635 55.162 282.327 55.2413 282.047 55.4C281.767 55.5587 281.543 55.7827 281.375 56.072C281.216 56.3613 281.137 56.6973 281.137 57.08L280.955 55.442C281.198 54.9193 281.548 54.504 282.005 54.196C282.462 53.8787 282.994 53.72 283.601 53.72C284.329 53.72 284.903 53.93 285.323 54.35C285.743 54.7607 285.953 55.2927 285.953 55.946V61H284.175ZM288.977 61V56.394C288.977 55.974 288.874 55.666 288.669 55.47C288.464 55.2647 288.17 55.162 287.787 55.162C287.442 55.162 287.129 55.2413 286.849 55.4C286.569 55.5587 286.35 55.7827 286.191 56.072C286.032 56.3613 285.953 56.6973 285.953 57.08L285.645 55.442C285.878 54.9193 286.233 54.504 286.709 54.196C287.185 53.8787 287.736 53.72 288.361 53.72C289.108 53.72 289.691 53.9347 290.111 54.364C290.54 54.784 290.755 55.344 290.755 56.044V61H288.977ZM296.452 61.14C295.771 61.14 295.215 60.9813 294.786 60.664C294.366 60.3373 294.105 59.8893 294.002 59.32L294.142 59.306V63.87H292.378V53.86H294.1V55.47L293.96 55.442C294.091 54.91 294.389 54.49 294.856 54.182C295.323 53.874 295.892 53.72 296.564 53.72C297.199 53.72 297.749 53.874 298.216 54.182C298.692 54.4807 299.061 54.9053 299.322 55.456C299.583 56.0067 299.714 56.6553 299.714 57.402C299.714 58.158 299.579 58.816 299.308 59.376C299.037 59.936 298.659 60.37 298.174 60.678C297.689 60.986 297.115 61.14 296.452 61.14ZM296.004 59.684C296.573 59.684 297.026 59.488 297.362 59.096C297.698 58.6947 297.866 58.1347 297.866 57.416C297.866 56.6973 297.693 56.142 297.348 55.75C297.012 55.358 296.559 55.162 295.99 55.162C295.43 55.162 294.977 55.3627 294.632 55.764C294.287 56.156 294.114 56.7113 294.114 57.43C294.114 58.1487 294.287 58.704 294.632 59.096C294.977 59.488 295.435 59.684 296.004 59.684ZM304.242 61.14C303.486 61.14 302.819 60.9813 302.24 60.664C301.671 60.3467 301.227 59.908 300.91 59.348C300.593 58.7787 300.434 58.13 300.434 57.402C300.434 56.674 300.593 56.0347 300.91 55.484C301.227 54.9333 301.671 54.504 302.24 54.196C302.819 53.8787 303.486 53.72 304.242 53.72C305.007 53.72 305.675 53.8787 306.244 54.196C306.813 54.504 307.257 54.9333 307.574 55.484C307.891 56.0347 308.05 56.674 308.05 57.402C308.05 58.13 307.887 58.7787 307.56 59.348C307.243 59.908 306.799 60.3467 306.23 60.664C305.661 60.9813 304.998 61.14 304.242 61.14ZM304.242 59.726C304.615 59.726 304.951 59.6327 305.25 59.446C305.549 59.25 305.782 58.9793 305.95 58.634C306.118 58.2793 306.202 57.864 306.202 57.388C306.202 56.688 306.015 56.1373 305.642 55.736C305.278 55.3347 304.811 55.134 304.242 55.134C303.673 55.134 303.201 55.3347 302.828 55.736C302.455 56.1373 302.268 56.688 302.268 57.388C302.268 57.864 302.352 58.2793 302.52 58.634C302.697 58.9793 302.931 59.25 303.22 59.446C303.519 59.6327 303.859 59.726 304.242 59.726ZM309.172 61V53.86H310.894V55.54H310.936V61H309.172ZM314.184 61V56.492C314.184 56.0533 314.072 55.722 313.848 55.498C313.624 55.274 313.298 55.162 312.868 55.162C312.495 55.162 312.159 55.246 311.86 55.414C311.571 55.582 311.342 55.8153 311.174 56.114C311.016 56.4127 310.936 56.758 310.936 57.15L310.754 55.442C310.997 54.9193 311.352 54.504 311.818 54.196C312.285 53.8787 312.845 53.72 313.498 53.72C314.273 53.72 314.875 53.9393 315.304 54.378C315.743 54.8167 315.962 55.4 315.962 56.128V61H314.184ZM320.776 61.14C320.02 61.14 319.357 60.9813 318.788 60.664C318.228 60.3467 317.789 59.908 317.472 59.348C317.164 58.788 317.01 58.144 317.01 57.416C317.01 56.688 317.164 56.0487 317.472 55.498C317.789 54.938 318.228 54.504 318.788 54.196C319.348 53.8787 320.001 53.72 320.748 53.72C321.457 53.72 322.073 53.8693 322.596 54.168C323.118 54.4573 323.524 54.868 323.814 55.4C324.103 55.932 324.248 56.5527 324.248 57.262C324.248 57.3927 324.243 57.514 324.234 57.626C324.224 57.738 324.21 57.85 324.192 57.962H318.102V56.73H322.834L322.47 57.066C322.47 56.394 322.316 55.89 322.008 55.554C321.7 55.218 321.27 55.05 320.72 55.05C320.122 55.05 319.646 55.2553 319.292 55.666C318.946 56.0767 318.774 56.6693 318.774 57.444C318.774 58.2093 318.946 58.7973 319.292 59.208C319.646 59.6093 320.146 59.81 320.79 59.81C321.163 59.81 321.49 59.74 321.77 59.6C322.05 59.46 322.255 59.2453 322.386 58.956H324.052C323.818 59.628 323.422 60.16 322.862 60.552C322.311 60.944 321.616 61.14 320.776 61.14ZM325.393 61V53.86H327.115V55.54H327.157V61H325.393ZM330.405 61V56.492C330.405 56.0533 330.293 55.722 330.069 55.498C329.845 55.274 329.518 55.162 329.089 55.162C328.715 55.162 328.379 55.246 328.081 55.414C327.791 55.582 327.563 55.8153 327.395 56.114C327.236 56.4127 327.157 56.758 327.157 57.15L326.975 55.442C327.217 54.9193 327.572 54.504 328.039 54.196C328.505 53.8787 329.065 53.72 329.719 53.72C330.493 53.72 331.095 53.9393 331.525 54.378C331.963 54.8167 332.183 55.4 332.183 56.128V61H330.405ZM336.736 61.14C335.859 61.14 335.21 60.9347 334.79 60.524C334.38 60.104 334.174 59.4787 334.174 58.648V52.236L335.952 51.578V58.69C335.952 59.0353 336.046 59.292 336.232 59.46C336.419 59.628 336.713 59.712 337.114 59.712C337.273 59.712 337.413 59.7027 337.534 59.684C337.665 59.656 337.786 59.6233 337.898 59.586V60.958C337.786 61.014 337.628 61.056 337.422 61.084C337.217 61.1213 336.988 61.14 336.736 61.14ZM332.802 55.246V53.86H337.898V55.246H332.802ZM341.704 61.14C340.715 61.14 339.926 60.9347 339.338 60.524C338.75 60.104 338.428 59.5253 338.372 58.788H339.982C340.029 59.152 340.202 59.4273 340.5 59.614C340.799 59.8007 341.2 59.894 341.704 59.894C342.162 59.894 342.502 59.824 342.726 59.684C342.96 59.5347 343.076 59.3247 343.076 59.054C343.076 58.858 343.011 58.6993 342.88 58.578C342.75 58.4473 342.502 58.34 342.138 58.256L340.99 57.99C340.206 57.822 339.623 57.5607 339.24 57.206C338.867 56.842 338.68 56.3893 338.68 55.848C338.68 55.1853 338.932 54.6673 339.436 54.294C339.95 53.9113 340.654 53.72 341.55 53.72C342.437 53.72 343.146 53.9113 343.678 54.294C344.22 54.6673 344.518 55.1853 344.574 55.848H342.964C342.918 55.5587 342.768 55.3393 342.516 55.19C342.274 55.0407 341.938 54.966 341.508 54.966C341.107 54.966 340.804 55.0313 340.598 55.162C340.393 55.2833 340.29 55.4653 340.29 55.708C340.29 55.8947 340.37 56.0533 340.528 56.184C340.687 56.3053 340.953 56.4127 341.326 56.506L342.558 56.786C343.258 56.9447 343.786 57.22 344.14 57.612C344.504 58.004 344.686 58.466 344.686 58.998C344.686 59.6793 344.425 60.2067 343.902 60.58C343.38 60.9533 342.647 61.14 341.704 61.14Z" fill="#4B4D53"/>
<mask id="path-35-inside-2_10763_3698" fill="white">
<path d="M228 72H444V104H228V72Z"/>
</mask>
<path d="M444 103H228V105H444V103Z" fill="#27282B" mask="url(#path-35-inside-2_10763_3698)"/>
<path d="M242.5 85L245.5 88L242.5 91" stroke="#4B4D53" stroke-width="1.5" stroke-linecap="round" stroke-linejoin="round"/>
<path d="M260.392 93L264.102 82.92H265.67L262.184 93H260.392ZM267.994 93L264.522 82.92H266.174L269.87 93H267.994ZM262.31 89.038H267.826V90.494H262.31V89.038ZM272.007 93L269.151 85.86H271.055L273.337 92.426H272.399L274.681 85.86H276.529L273.659 93H272.007ZM281.46 93C281.413 92.8133 281.376 92.608 281.348 92.384C281.329 92.16 281.32 91.8893 281.32 91.572H281.264V88.184C281.264 87.8107 281.157 87.5307 280.942 87.344C280.737 87.148 280.419 87.05 279.99 87.05C279.57 87.05 279.234 87.1293 278.982 87.288C278.739 87.4373 278.59 87.6567 278.534 87.946H276.84C276.915 87.2833 277.232 86.7467 277.792 86.336C278.352 85.9253 279.103 85.72 280.046 85.72C281.026 85.72 281.768 85.944 282.272 86.392C282.776 86.8307 283.028 87.4793 283.028 88.338V91.572C283.028 91.796 283.042 92.0247 283.07 92.258C283.107 92.4913 283.159 92.7387 283.224 93H281.46ZM278.982 93.14C278.263 93.14 277.689 92.9627 277.26 92.608C276.84 92.244 276.63 91.7587 276.63 91.152C276.63 90.4987 276.868 89.9807 277.344 89.598C277.82 89.2153 278.492 88.9587 279.36 88.828L281.586 88.492V89.612L279.654 89.906C279.234 89.9713 278.917 90.088 278.702 90.256C278.497 90.424 278.394 90.6573 278.394 90.956C278.394 91.2267 278.492 91.4367 278.688 91.586C278.884 91.726 279.155 91.796 279.5 91.796C280.004 91.796 280.424 91.67 280.76 91.418C281.096 91.166 281.264 90.858 281.264 90.494L281.46 91.572C281.273 92.0853 280.965 92.4773 280.536 92.748C280.116 93.0093 279.598 93.14 278.982 93.14ZM287.463 93.14C286.585 93.14 285.937 92.9347 285.517 92.524C285.106 92.104 284.901 91.4787 284.901 90.648V84.236L286.679 83.578V90.69C286.679 91.0353 286.772 91.292 286.959 91.46C287.145 91.628 287.439 91.712 287.841 91.712C287.999 91.712 288.139 91.7027 288.261 91.684C288.391 91.656 288.513 91.6233 288.625 91.586V92.958C288.513 93.014 288.354 93.056 288.149 93.084C287.943 93.1213 287.715 93.14 287.463 93.14ZM283.529 87.246V85.86H288.625V87.246H283.529ZM294.126 93C294.079 92.8133 294.042 92.608 294.014 92.384C293.995 92.16 293.986 91.8893 293.986 91.572H293.93V88.184C293.93 87.8107 293.822 87.5307 293.608 87.344C293.402 87.148 293.085 87.05 292.656 87.05C292.236 87.05 291.9 87.1293 291.648 87.288C291.405 87.4373 291.256 87.6567 291.2 87.946H289.506C289.58 87.2833 289.898 86.7467 290.458 86.336C291.018 85.9253 291.769 85.72 292.712 85.72C293.692 85.72 294.434 85.944 294.938 86.392C295.442 86.8307 295.694 87.4793 295.694 88.338V91.572C295.694 91.796 295.708 92.0247 295.736 92.258C295.773 92.4913 295.824 92.7387 295.89 93H294.126ZM291.648 93.14C290.929 93.14 290.355 92.9627 289.926 92.608C289.506 92.244 289.296 91.7587 289.296 91.152C289.296 90.4987 289.534 89.9807 290.01 89.598C290.486 89.2153 291.158 88.9587 292.026 88.828L294.252 88.492V89.612L292.32 89.906C291.9 89.9713 291.582 90.088 291.368 90.256C291.162 90.424 291.06 90.6573 291.06 90.956C291.06 91.2267 291.158 91.4367 291.354 91.586C291.55 91.726 291.82 91.796 292.166 91.796C292.67 91.796 293.09 91.67 293.426 91.418C293.762 91.166 293.93 90.858 293.93 90.494L294.126 91.572C293.939 92.0853 293.631 92.4773 293.202 92.748C292.782 93.0093 292.264 93.14 291.648 93.14ZM297.305 93V85.86H299.027V87.582H299.069V93H297.305ZM299.069 89.276L298.887 87.582C299.055 86.9753 299.34 86.5133 299.741 86.196C300.143 85.8787 300.623 85.72 301.183 85.72C301.379 85.72 301.519 85.7387 301.603 85.776V87.442C301.557 87.4233 301.491 87.414 301.407 87.414C301.323 87.4047 301.221 87.4 301.099 87.4C300.418 87.4 299.909 87.5493 299.573 87.848C299.237 88.1467 299.069 88.6227 299.069 89.276Z" fill="#6E7287"/>
<mask id="path-39-inside-3_10763_3698" fill="white">
<path d="M228 104H444V136H228V104Z"/>
</mask>
<path d="M444 135H228V137H444V135Z" fill="#27282B" mask="url(#path-39-inside-3_10763_3698)"/>
<path d="M242.5 117L245.5 120L242.5 123" stroke="#4B4D53" stroke-width="1.5" stroke-linecap="round" stroke-linejoin="round"/>
<path d="M262.296 125V123.656H265.11C265.623 123.656 266.02 123.516 266.3 123.236C266.58 122.947 266.72 122.555 266.72 122.06C266.72 121.547 266.571 121.141 266.272 120.842C265.973 120.543 265.558 120.394 265.026 120.394H262.296V119.05H264.9C265.404 119.05 265.791 118.929 266.062 118.686C266.333 118.443 266.468 118.093 266.468 117.636C266.468 117.188 266.337 116.847 266.076 116.614C265.824 116.381 265.451 116.264 264.956 116.264H262.296V114.92H265.292C266.197 114.92 266.921 115.149 267.462 115.606C268.013 116.054 268.288 116.665 268.288 117.44C268.288 117.925 268.171 118.35 267.938 118.714C267.714 119.069 267.411 119.344 267.028 119.54C266.645 119.736 266.211 119.834 265.726 119.834L265.796 119.54C266.309 119.54 266.776 119.657 267.196 119.89C267.616 120.114 267.947 120.431 268.19 120.842C268.442 121.253 268.568 121.729 268.568 122.27C268.568 122.821 268.437 123.301 268.176 123.712C267.924 124.123 267.565 124.44 267.098 124.664C266.641 124.888 266.099 125 265.474 125H262.296ZM260.868 125V114.92H262.688V125H260.868ZM272.042 125.14C271.547 125.14 271.118 125.037 270.754 124.832C270.399 124.617 270.124 124.328 269.928 123.964C269.741 123.6 269.648 123.189 269.648 122.732V117.86H271.412V122.368C271.412 122.807 271.519 123.138 271.734 123.362C271.958 123.586 272.27 123.698 272.672 123.698C273.036 123.698 273.353 123.614 273.624 123.446C273.904 123.278 274.123 123.045 274.282 122.746C274.45 122.438 274.534 122.093 274.534 121.71L274.716 123.418C274.482 123.941 274.132 124.361 273.666 124.678C273.208 124.986 272.667 125.14 272.042 125.14ZM274.59 125V123.32H274.534V117.86H276.312V125H274.59ZM281.103 125.14C280.225 125.14 279.577 124.935 279.157 124.524C278.746 124.104 278.541 123.479 278.541 122.648V116.236L280.319 115.578V122.69C280.319 123.035 280.412 123.292 280.599 123.46C280.785 123.628 281.079 123.712 281.481 123.712C281.639 123.712 281.779 123.703 281.901 123.684C282.031 123.656 282.153 123.623 282.265 123.586V124.958C282.153 125.014 281.994 125.056 281.789 125.084C281.583 125.121 281.355 125.14 281.103 125.14ZM277.169 119.246V117.86H282.265V119.246H277.169ZM286.711 125.14C285.833 125.14 285.185 124.935 284.765 124.524C284.354 124.104 284.149 123.479 284.149 122.648V116.236L285.927 115.578V122.69C285.927 123.035 286.02 123.292 286.207 123.46C286.393 123.628 286.687 123.712 287.089 123.712C287.247 123.712 287.387 123.703 287.509 123.684C287.639 123.656 287.761 123.623 287.873 123.586V124.958C287.761 125.014 287.602 125.056 287.397 125.084C287.191 125.121 286.963 125.14 286.711 125.14ZM282.777 119.246V117.86H287.873V119.246H282.777ZM292.047 125.14C291.291 125.14 290.623 124.981 290.045 124.664C289.475 124.347 289.032 123.908 288.715 123.348C288.397 122.779 288.239 122.13 288.239 121.402C288.239 120.674 288.397 120.035 288.715 119.484C289.032 118.933 289.475 118.504 290.045 118.196C290.623 117.879 291.291 117.72 292.047 117.72C292.812 117.72 293.479 117.879 294.049 118.196C294.618 118.504 295.061 118.933 295.379 119.484C295.696 120.035 295.855 120.674 295.855 121.402C295.855 122.13 295.691 122.779 295.365 123.348C295.047 123.908 294.604 124.347 294.035 124.664C293.465 124.981 292.803 125.14 292.047 125.14ZM292.047 123.726C292.42 123.726 292.756 123.633 293.055 123.446C293.353 123.25 293.587 122.979 293.755 122.634C293.923 122.279 294.007 121.864 294.007 121.388C294.007 120.688 293.82 120.137 293.447 119.736C293.083 119.335 292.616 119.134 292.047 119.134C291.477 119.134 291.006 119.335 290.633 119.736C290.259 120.137 290.073 120.688 290.073 121.388C290.073 121.864 290.157 122.279 290.325 122.634C290.502 122.979 290.735 123.25 291.025 123.446C291.323 123.633 291.664 123.726 292.047 123.726ZM296.977 125V117.86H298.699V119.54H298.741V125H296.977ZM301.989 125V120.492C301.989 120.053 301.877 119.722 301.653 119.498C301.429 119.274 301.102 119.162 300.673 119.162C300.3 119.162 299.964 119.246 299.665 119.414C299.376 119.582 299.147 119.815 298.979 120.114C298.82 120.413 298.741 120.758 298.741 121.15L298.559 119.442C298.802 118.919 299.156 118.504 299.623 118.196C300.09 117.879 300.65 117.72 301.303 117.72C302.078 117.72 302.68 117.939 303.109 118.378C303.548 118.817 303.767 119.4 303.767 120.128V125H301.989Z" fill="#6E7287"/>
<mask id="path-43-inside-4_10763_3698" fill="white">
<path d="M228 136H444V168H228V136Z"/>
</mask>
<path d="M444 167H228V169H444V167Z" fill="#27282B" mask="url(#path-43-inside-4_10763_3698)"/>
<path d="M242.5 149L245.5 152L242.5 155" stroke="#4B4D53" stroke-width="1.5" stroke-linecap="round" stroke-linejoin="round"/>
<path d="M265.474 157.14C264.755 157.14 264.093 157.014 263.486 156.762C262.889 156.501 262.366 156.137 261.918 155.67C261.47 155.203 261.125 154.653 260.882 154.018C260.639 153.383 260.518 152.688 260.518 151.932C260.518 151.176 260.639 150.485 260.882 149.86C261.125 149.235 261.465 148.693 261.904 148.236C262.352 147.769 262.875 147.41 263.472 147.158C264.079 146.906 264.746 146.78 265.474 146.78C266.277 146.78 267 146.939 267.644 147.256C268.288 147.573 268.815 148.021 269.226 148.6C269.646 149.169 269.903 149.841 269.996 150.616H268.204C268.092 149.86 267.789 149.281 267.294 148.88C266.799 148.469 266.197 148.264 265.488 148.264C264.863 148.264 264.317 148.413 263.85 148.712C263.383 149.011 263.019 149.435 262.758 149.986C262.497 150.527 262.366 151.171 262.366 151.918C262.366 152.683 262.497 153.346 262.758 153.906C263.019 154.457 263.388 154.886 263.864 155.194C264.34 155.502 264.886 155.656 265.502 155.656C266.193 155.656 266.785 155.455 267.28 155.054C267.775 154.643 268.087 154.065 268.218 153.318H270.024C269.912 154.083 269.646 154.755 269.226 155.334C268.815 155.913 268.288 156.361 267.644 156.678C267 156.986 266.277 157.14 265.474 157.14ZM275.414 157C275.368 156.813 275.33 156.608 275.302 156.384C275.284 156.16 275.274 155.889 275.274 155.572H275.218V152.184C275.218 151.811 275.111 151.531 274.896 151.344C274.691 151.148 274.374 151.05 273.944 151.05C273.524 151.05 273.188 151.129 272.936 151.288C272.694 151.437 272.544 151.657 272.488 151.946H270.794C270.869 151.283 271.186 150.747 271.746 150.336C272.306 149.925 273.058 149.72 274 149.72C274.98 149.72 275.722 149.944 276.226 150.392C276.73 150.831 276.982 151.479 276.982 152.338V155.572C276.982 155.796 276.996 156.025 277.024 156.258C277.062 156.491 277.113 156.739 277.178 157H275.414ZM272.936 157.14C272.218 157.14 271.644 156.963 271.214 156.608C270.794 156.244 270.584 155.759 270.584 155.152C270.584 154.499 270.822 153.981 271.298 153.598C271.774 153.215 272.446 152.959 273.314 152.828L275.54 152.492V153.612L273.608 153.906C273.188 153.971 272.871 154.088 272.656 154.256C272.451 154.424 272.348 154.657 272.348 154.956C272.348 155.227 272.446 155.437 272.642 155.586C272.838 155.726 273.109 155.796 273.454 155.796C273.958 155.796 274.378 155.67 274.714 155.418C275.05 155.166 275.218 154.858 275.218 154.494L275.414 155.572C275.228 156.085 274.92 156.477 274.49 156.748C274.07 157.009 273.552 157.14 272.936 157.14ZM278.594 157V146.92H280.358V157H278.594ZM282.056 157V146.92H283.82V157H282.056ZM288.765 157.14C288.009 157.14 287.342 156.981 286.763 156.664C286.194 156.347 285.751 155.908 285.433 155.348C285.116 154.779 284.957 154.13 284.957 153.402C284.957 152.674 285.116 152.035 285.433 151.484C285.751 150.933 286.194 150.504 286.763 150.196C287.342 149.879 288.009 149.72 288.765 149.72C289.531 149.72 290.198 149.879 290.767 150.196C291.337 150.504 291.78 150.933 292.097 151.484C292.415 152.035 292.573 152.674 292.573 153.402C292.573 154.13 292.41 154.779 292.083 155.348C291.766 155.908 291.323 156.347 290.753 156.664C290.184 156.981 289.521 157.14 288.765 157.14ZM288.765 155.726C289.139 155.726 289.475 155.633 289.773 155.446C290.072 155.25 290.305 154.979 290.473 154.634C290.641 154.279 290.725 153.864 290.725 153.388C290.725 152.688 290.539 152.137 290.165 151.736C289.801 151.335 289.335 151.134 288.765 151.134C288.196 151.134 287.725 151.335 287.351 151.736C286.978 152.137 286.791 152.688 286.791 153.388C286.791 153.864 286.875 154.279 287.043 154.634C287.221 154.979 287.454 155.25 287.743 155.446C288.042 155.633 288.383 155.726 288.765 155.726ZM296.006 157.14C295.511 157.14 295.082 157.037 294.718 156.832C294.363 156.617 294.088 156.328 293.892 155.964C293.705 155.6 293.612 155.189 293.612 154.732V149.86H295.376V154.368C295.376 154.807 295.483 155.138 295.698 155.362C295.922 155.586 296.234 155.698 296.636 155.698C297 155.698 297.317 155.614 297.588 155.446C297.868 155.278 298.087 155.045 298.246 154.746C298.414 154.438 298.498 154.093 298.498 153.71L298.68 155.418C298.446 155.941 298.096 156.361 297.63 156.678C297.172 156.986 296.631 157.14 296.006 157.14ZM298.554 157V155.32H298.498V149.86H300.276V157H298.554ZM305.067 157.14C304.189 157.14 303.541 156.935 303.121 156.524C302.71 156.104 302.505 155.479 302.505 154.648V148.236L304.283 147.578V154.69C304.283 155.035 304.376 155.292 304.563 155.46C304.749 155.628 305.043 155.712 305.445 155.712C305.603 155.712 305.743 155.703 305.865 155.684C305.995 155.656 306.117 155.623 306.229 155.586V156.958C306.117 157.014 305.958 157.056 305.753 157.084C305.547 157.121 305.319 157.14 305.067 157.14ZM301.133 151.246V149.86H306.229V151.246H301.133Z" fill="#6E7287"/>
<mask id="path-47-inside-5_10763_3698" fill="white">
<path d="M228 168H444V200H228V168Z"/>
</mask>
<path d="M444 199H228V201H444V199Z" fill="#27282B" mask="url(#path-47-inside-5_10763_3698)"/>
<path d="M242.5 181L245.5 184L242.5 187" stroke="#4B4D53" stroke-width="1.5" stroke-linecap="round" stroke-linejoin="round"/>
<path d="M261.974 189V187.544H264.578C265.343 187.544 265.997 187.39 266.538 187.082C267.079 186.774 267.49 186.345 267.77 185.794C268.059 185.243 268.204 184.613 268.204 183.904C268.204 183.204 268.059 182.588 267.77 182.056C267.49 181.524 267.079 181.113 266.538 180.824C266.006 180.525 265.353 180.376 264.578 180.376H262.002V178.92H264.578C265.679 178.92 266.641 179.125 267.462 179.536C268.283 179.947 268.918 180.53 269.366 181.286C269.823 182.033 270.052 182.915 270.052 183.932C270.052 184.949 269.823 185.841 269.366 186.606C268.909 187.362 268.269 187.95 267.448 188.37C266.636 188.79 265.684 189 264.592 189H261.974ZM260.868 189V178.92H262.688V189H260.868ZM275.619 189C275.573 188.813 275.535 188.608 275.507 188.384C275.489 188.16 275.479 187.889 275.479 187.572H275.423V184.184C275.423 183.811 275.316 183.531 275.101 183.344C274.896 183.148 274.579 183.05 274.149 183.05C273.729 183.05 273.393 183.129 273.141 183.288C272.899 183.437 272.749 183.657 272.693 183.946H270.999C271.074 183.283 271.391 182.747 271.951 182.336C272.511 181.925 273.263 181.72 274.205 181.72C275.185 181.72 275.927 181.944 276.431 182.392C276.935 182.831 277.187 183.479 277.187 184.338V187.572C277.187 187.796 277.201 188.025 277.229 188.258C277.267 188.491 277.318 188.739 277.383 189H275.619ZM273.141 189.14C272.423 189.14 271.849 188.963 271.419 188.608C270.999 188.244 270.789 187.759 270.789 187.152C270.789 186.499 271.027 185.981 271.503 185.598C271.979 185.215 272.651 184.959 273.519 184.828L275.745 184.492V185.612L273.813 185.906C273.393 185.971 273.076 186.088 272.861 186.256C272.656 186.424 272.553 186.657 272.553 186.956C272.553 187.227 272.651 187.437 272.847 187.586C273.043 187.726 273.314 187.796 273.659 187.796C274.163 187.796 274.583 187.67 274.919 187.418C275.255 187.166 275.423 186.858 275.423 186.494L275.619 187.572C275.433 188.085 275.125 188.477 274.695 188.748C274.275 189.009 273.757 189.14 273.141 189.14ZM281.622 189.14C280.745 189.14 280.096 188.935 279.676 188.524C279.265 188.104 279.06 187.479 279.06 186.648V180.236L280.838 179.578V186.69C280.838 187.035 280.931 187.292 281.118 187.46C281.305 187.628 281.599 187.712 282 187.712C282.159 187.712 282.299 187.703 282.42 187.684C282.551 187.656 282.672 187.623 282.784 187.586V188.958C282.672 189.014 282.513 189.056 282.308 189.084C282.103 189.121 281.874 189.14 281.622 189.14ZM277.688 183.246V181.86H282.784V183.246H277.688ZM288.285 189C288.238 188.813 288.201 188.608 288.173 188.384C288.154 188.16 288.145 187.889 288.145 187.572H288.089V184.184C288.089 183.811 287.982 183.531 287.767 183.344C287.562 183.148 287.244 183.05 286.815 183.05C286.395 183.05 286.059 183.129 285.807 183.288C285.564 183.437 285.415 183.657 285.359 183.946H283.665C283.74 183.283 284.057 182.747 284.617 182.336C285.177 181.925 285.928 181.72 286.871 181.72C287.851 181.72 288.593 181.944 289.097 182.392C289.601 182.831 289.853 183.479 289.853 184.338V187.572C289.853 187.796 289.867 188.025 289.895 188.258C289.932 188.491 289.984 188.739 290.049 189H288.285ZM285.807 189.14C285.088 189.14 284.514 188.963 284.085 188.608C283.665 188.244 283.455 187.759 283.455 187.152C283.455 186.499 283.693 185.981 284.169 185.598C284.645 185.215 285.317 184.959 286.185 184.828L288.411 184.492V185.612L286.479 185.906C286.059 185.971 285.742 186.088 285.527 186.256C285.322 186.424 285.219 186.657 285.219 186.956C285.219 187.227 285.317 187.437 285.513 187.586C285.709 187.726 285.98 187.796 286.325 187.796C286.829 187.796 287.249 187.67 287.585 187.418C287.921 187.166 288.089 186.858 288.089 186.494L288.285 187.572C288.098 188.085 287.79 188.477 287.361 188.748C286.941 189.009 286.423 189.14 285.807 189.14ZM294.288 189.14C293.41 189.14 292.762 188.935 292.342 188.524C291.931 188.104 291.726 187.479 291.726 186.648V180.236L293.504 179.578V186.69C293.504 187.035 293.597 187.292 293.784 187.46C293.97 187.628 294.264 187.712 294.666 187.712C294.824 187.712 294.964 187.703 295.086 187.684C295.216 187.656 295.338 187.623 295.45 187.586V188.958C295.338 189.014 295.179 189.056 294.974 189.084C294.768 189.121 294.54 189.14 294.288 189.14ZM290.354 183.246V181.86H295.45V183.246H290.354ZM300.951 189C300.904 188.813 300.867 188.608 300.839 188.384C300.82 188.16 300.811 187.889 300.811 187.572H300.755V184.184C300.755 183.811 300.647 183.531 300.433 183.344C300.227 183.148 299.91 183.05 299.481 183.05C299.061 183.05 298.725 183.129 298.473 183.288C298.23 183.437 298.081 183.657 298.025 183.946H296.331C296.405 183.283 296.723 182.747 297.283 182.336C297.843 181.925 298.594 181.72 299.537 181.72C300.517 181.72 301.259 181.944 301.763 182.392C302.267 182.831 302.519 183.479 302.519 184.338V187.572C302.519 187.796 302.533 188.025 302.561 188.258C302.598 188.491 302.649 188.739 302.715 189H300.951ZM298.473 189.14C297.754 189.14 297.18 188.963 296.751 188.608C296.331 188.244 296.121 187.759 296.121 187.152C296.121 186.499 296.359 185.981 296.835 185.598C297.311 185.215 297.983 184.959 298.851 184.828L301.077 184.492V185.612L299.145 185.906C298.725 185.971 298.407 186.088 298.193 186.256C297.987 186.424 297.885 186.657 297.885 186.956C297.885 187.227 297.983 187.437 298.179 187.586C298.375 187.726 298.645 187.796 298.991 187.796C299.495 187.796 299.915 187.67 300.251 187.418C300.587 187.166 300.755 186.858 300.755 186.494L300.951 187.572C300.764 188.085 300.456 188.477 300.027 188.748C299.607 189.009 299.089 189.14 298.473 189.14ZM308.204 189.14C307.523 189.14 306.963 188.981 306.524 188.664C306.095 188.337 305.829 187.889 305.726 187.32L305.852 187.306V189H304.13V178.92H305.894V183.47L305.768 183.442C305.89 182.91 306.174 182.49 306.622 182.182C307.08 181.874 307.644 181.72 308.316 181.72C308.951 181.72 309.502 181.874 309.968 182.182C310.444 182.481 310.813 182.905 311.074 183.456C311.336 184.007 311.466 184.655 311.466 185.402C311.466 186.158 311.331 186.816 311.06 187.376C310.79 187.936 310.412 188.37 309.926 188.678C309.441 188.986 308.867 189.14 308.204 189.14ZM307.756 187.684C308.326 187.684 308.778 187.488 309.114 187.096C309.45 186.695 309.618 186.135 309.618 185.416C309.618 184.697 309.446 184.142 309.1 183.75C308.764 183.358 308.312 183.162 307.742 183.162C307.182 183.162 306.73 183.363 306.384 183.764C306.039 184.156 305.866 184.711 305.866 185.43C305.866 186.149 306.039 186.704 306.384 187.096C306.73 187.488 307.187 187.684 307.756 187.684ZM312.651 189V178.92H314.415V189H312.651ZM319.318 189.14C318.562 189.14 317.9 188.981 317.33 188.664C316.77 188.347 316.332 187.908 316.014 187.348C315.706 186.788 315.552 186.144 315.552 185.416C315.552 184.688 315.706 184.049 316.014 183.498C316.332 182.938 316.77 182.504 317.33 182.196C317.89 181.879 318.544 181.72 319.29 181.72C320 181.72 320.616 181.869 321.138 182.168C321.661 182.457 322.067 182.868 322.356 183.4C322.646 183.932 322.79 184.553 322.79 185.262C322.79 185.393 322.786 185.514 322.776 185.626C322.767 185.738 322.753 185.85 322.734 185.962H316.644V184.73H321.376L321.012 185.066C321.012 184.394 320.858 183.89 320.55 183.554C320.242 183.218 319.813 183.05 319.262 183.05C318.665 183.05 318.189 183.255 317.834 183.666C317.489 184.077 317.316 184.669 317.316 185.444C317.316 186.209 317.489 186.797 317.834 187.208C318.189 187.609 318.688 187.81 319.332 187.81C319.706 187.81 320.032 187.74 320.312 187.6C320.592 187.46 320.798 187.245 320.928 186.956H322.594C322.361 187.628 321.964 188.16 321.404 188.552C320.854 188.944 320.158 189.14 319.318 189.14Z" fill="#6E7287"/>
<mask id="path-51-inside-6_10763_3698" fill="white">
<path d="M228 200H444V232H228V200Z"/>
</mask>
<path d="M444 231H228V233H444V231Z" fill="#27282B" mask="url(#path-51-inside-6_10763_3698)"/>
<path d="M242.5 213L245.5 216L242.5 219" stroke="#4B4D53" stroke-width="1.5" stroke-linecap="round" stroke-linejoin="round"/>
<path d="M260.868 221V210.92H262.688V221H260.868ZM261.736 216.954V215.512H267.406V216.954H261.736ZM261.736 212.362V210.92H267.742V212.362H261.736ZM272.036 221.14C271.28 221.14 270.613 220.981 270.034 220.664C269.465 220.347 269.022 219.908 268.704 219.348C268.387 218.779 268.228 218.13 268.228 217.402C268.228 216.674 268.387 216.035 268.704 215.484C269.022 214.933 269.465 214.504 270.034 214.196C270.613 213.879 271.28 213.72 272.036 213.72C272.802 213.72 273.469 213.879 274.038 214.196C274.608 214.504 275.051 214.933 275.368 215.484C275.686 216.035 275.844 216.674 275.844 217.402C275.844 218.13 275.681 218.779 275.354 219.348C275.037 219.908 274.594 220.347 274.024 220.664C273.455 220.981 272.792 221.14 272.036 221.14ZM272.036 219.726C272.41 219.726 272.746 219.633 273.044 219.446C273.343 219.25 273.576 218.979 273.744 218.634C273.912 218.279 273.996 217.864 273.996 217.388C273.996 216.688 273.81 216.137 273.436 215.736C273.072 215.335 272.606 215.134 272.036 215.134C271.467 215.134 270.996 215.335 270.622 215.736C270.249 216.137 270.062 216.688 270.062 217.388C270.062 217.864 270.146 218.279 270.314 218.634C270.492 218.979 270.725 219.25 271.014 219.446C271.313 219.633 271.654 219.726 272.036 219.726ZM276.967 221V213.86H278.689V215.582H278.731V221H276.967ZM278.731 217.276L278.549 215.582C278.717 214.975 279.002 214.513 279.403 214.196C279.804 213.879 280.285 213.72 280.845 213.72C281.041 213.72 281.181 213.739 281.265 213.776V215.442C281.218 215.423 281.153 215.414 281.069 215.414C280.985 215.405 280.882 215.4 280.761 215.4C280.08 215.4 279.571 215.549 279.235 215.848C278.899 216.147 278.731 216.623 278.731 217.276ZM282.247 221V213.86H283.969V215.54H284.011V221H282.247ZM287.049 221V216.394C287.049 215.974 286.942 215.666 286.727 215.47C286.522 215.265 286.228 215.162 285.845 215.162C285.509 215.162 285.201 215.241 284.921 215.4C284.641 215.559 284.417 215.783 284.249 216.072C284.09 216.361 284.011 216.697 284.011 217.08L283.829 215.442C284.072 214.919 284.422 214.504 284.879 214.196C285.336 213.879 285.868 213.72 286.475 213.72C287.203 213.72 287.777 213.93 288.197 214.35C288.617 214.761 288.827 215.293 288.827 215.946V221H287.049ZM291.851 221V216.394C291.851 215.974 291.748 215.666 291.543 215.47C291.338 215.265 291.044 215.162 290.661 215.162C290.316 215.162 290.003 215.241 289.723 215.4C289.443 215.559 289.224 215.783 289.065 216.072C288.906 216.361 288.827 216.697 288.827 217.08L288.519 215.442C288.752 214.919 289.107 214.504 289.583 214.196C290.059 213.879 290.61 213.72 291.235 213.72C291.982 213.72 292.565 213.935 292.985 214.364C293.414 214.784 293.629 215.344 293.629 216.044V221H291.851Z" fill="#6E7287"/>
</g>
<rect x="228.5" y="40.5" width="215" height="191" rx="9.5" stroke="#27282B"/>
</g>
<rect width="668" height="140" transform="translate(0 140)" fill="url(#paint3_linear_10763_3698)"/>
</g>
<defs>
<filter id="filter0_b_10763_3698" x="216" y="28" width="240" height="216" filterUnits="userSpaceOnUse" color-interpolation-filters="sRGB">
<feFlood flood-opacity="0" result="BackgroundImageFix"/>
<feGaussianBlur in="BackgroundImageFix" stdDeviation="6"/>
<feComposite in2="SourceAlpha" operator="in" result="effect1_backgroundBlur_10763_3698"/>
<feBlend mode="normal" in="SourceGraphic" in2="effect1_backgroundBlur_10763_3698" result="shape"/>
</filter>
<radialGradient id="paint0_radial_10763_3698" cx="0" cy="0" r="1" gradientUnits="userSpaceOnUse" gradientTransform="translate(334 143) rotate(90) scale(167 194)">
<stop stop-color="#261958"/>
<stop offset="1" stop-color="#1A1B1D" stop-opacity="0"/>
</radialGradient>
<linearGradient id="paint1_linear_10763_3698" x1="40" y1="104.5" x2="628" y2="104.5" gradientUnits="userSpaceOnUse">
<stop stop-color="#1A1B1D"/>
<stop offset="0.2" stop-color="#222326"/>
<stop offset="0.8" stop-color="#222326"/>
<stop offset="1" stop-color="#1A1B1D"/>
</linearGradient>
<linearGradient id="paint2_linear_10763_3698" x1="40" y1="168.5" x2="628" y2="168.5" gradientUnits="userSpaceOnUse">
<stop stop-color="#1A1B1D"/>
<stop offset="0.2" stop-color="#222326"/>
<stop offset="0.8" stop-color="#222326"/>
<stop offset="1" stop-color="#1A1B1D"/>
</linearGradient>
<linearGradient id="paint3_linear_10763_3698" x1="334" y1="0" x2="334" y2="140" gradientUnits="userSpaceOnUse">
<stop stop-color="#1A1B1D" stop-opacity="0"/>
<stop offset="0.638983" stop-color="#1A1B1D"/>
</linearGradient>
<clipPath id="clip0_10763_3698">
<rect width="668" height="280" fill="white"/>
</clipPath>
<clipPath id="clip1_10763_3698">
<rect x="228" y="40" width="216" height="192" rx="10" fill="white"/>
</clipPath>
<clipPath id="clip2_10763_3698">
<rect width="14" height="14" fill="white" transform="translate(237 49)"/>
</clipPath>
</defs>
</svg>