<svg xmlns="http://www.w3.org/2000/svg" width="326" height="304" fill="none" viewBox="0 0 326 304"><g stroke="#303236" clip-path="url(#a)"><rect width="99" height="63" x="113.5" y="120.5" rx="31.5"/><rect width="123" height="87" x="101.5" y="108.5" rx="43.5"/><rect width="147" height="111" x="89.5" y="96.5" rx="55.5"/><rect width="171" height="135" x="77.5" y="84.5" rx="67.5"/><rect width="195" height="159" x="65.5" y="72.5" rx="79.5"/><rect width="219" height="183" x="53.5" y="60.5" rx="91.5"/><rect width="243" height="207" x="41.5" y="48.5" rx="103.5"/><rect width="267" height="231" x="29.5" y="36.5" rx="115.5"/><rect width="291" height="255" x="17.5" y="24.5" rx="127.5"/><rect width="315" height="279" x="5.5" y="12.5" rx="139.5"/><rect width="339" height="303" x="-6.5" y=".5" rx="151.5"/></g><circle cx="163" cy="152" r="140" fill="url(#b)"/><path fill="url(#c)" d="M0 0h326v312H0z"/><g filter="url(#d)"><rect width="76" height="40" x="125" y="132" fill="#1A1B1D" fill-opacity=".48" rx="20"/><rect width="75" height="39" x="125.5" y="132.5" stroke="#27282B" rx="19.5"/><rect width="32" height="32" x="165" y="136" fill="#6E56CF" rx="16"/><path fill="#D4CAFE" fill-rule="evenodd" d="M180.011 145.362a.5.5 0 0 1 .044.54 5.205 5.205 0 0 0 7.043 7.043.498.498 0 0 1 .722.555 6.917 6.917 0 1 1-8.32-8.32.5.5 0 0 1 .511.182" clip-rule="evenodd"/><g fill="#9A9CAC" fill-rule="evenodd" clip-path="url(#e)" clip-rule="evenodd"><path d="M141.167 152a3.833 3.833 0 1 1 7.666 0 3.833 3.833 0 0 1-7.666 0m3.832-7.333c.368 0 .667.298.667.666v1.334a.667.667 0 0 1-1.334 0v-1.334c0-.368.299-.666.667-.666m-5.137 2.196a.666.666 0 0 1 .943 0l.999.999a.666.666 0 1 1-.942.943l-1-1a.666.666 0 0 1 0-.942m10.275 0c.26.26.26.682 0 .942l-.999 1a.668.668 0 0 1-.943-.943l.999-.999a.666.666 0 0 1 .943 0M137.667 152c0-.368.298-.667.667-.667h1.333a.667.667 0 0 1 0 1.334h-1.333a.667.667 0 0 1-.667-.667m12 0c0-.368.298-.667.667-.667h1.333a.667.667 0 0 1 0 1.334h-1.333a.667.667 0 0 1-.667-.667m-7.862 3.195c.26.261.26.683 0 .943l-1 1a.668.668 0 0 1-.943-.943l1-1a.67.67 0 0 1 .943 0m6.391.001a.665.665 0 0 1 .942 0l1 1a.666.666 0 1 1-.942.943l-1-1a.666.666 0 0 1 0-.943m-3.197 1.471c.368 0 .667.298.667.666v1.334a.667.667 0 0 1-1.334 0v-1.334c0-.368.299-.666.667-.666"/></g></g><defs><radialGradient id="b" cx="0" cy="0" r="1" gradientTransform="matrix(0 140 -140 0 163 152)" gradientUnits="userSpaceOnUse"><stop stop-color="#261958"/><stop offset="1" stop-color="#1A1B1D" stop-opacity="0"/></radialGradient><radialGradient id="c" cx="0" cy="0" r="1" gradientTransform="matrix(215 0 0 124.336 163 170)" gradientUnits="userSpaceOnUse"><stop stop-color="#1A1B1D" stop-opacity="0"/><stop offset="1" stop-color="#1A1B1D"/></radialGradient><clipPath id="a"><path fill="#fff" d="M0 0h326v312H0z"/></clipPath><clipPath id="e"><path fill="#fff" d="M137 144h16v16h-16z"/></clipPath><filter id="d" width="100" height="64" x="113" y="120" color-interpolation-filters="sRGB" filterUnits="userSpaceOnUse"><feFlood flood-opacity="0" result="BackgroundImageFix"/><feGaussianBlur in="BackgroundImageFix" stdDeviation="6"/><feComposite in2="SourceAlpha" operator="in" result="effect1_backgroundBlur_10609_4174"/><feBlend in="SourceGraphic" in2="effect1_backgroundBlur_10609_4174" result="shape"/></filter></defs></svg>