<svg width="668" height="320" viewBox="0 0 668 320" fill="none" xmlns="http://www.w3.org/2000/svg">
<g clip-path="url(#clip0_11133_3381)">
<circle cx="335.5" cy="260.5" r="259.5" fill="url(#paint0_radial_11133_3381)"/>
<circle cx="160" cy="109" r="64" fill="url(#paint1_radial_11133_3381)" fill-opacity="0.48"/>
<circle cx="508" cy="109" r="64" fill="url(#paint2_radial_11133_3381)" fill-opacity="0.48"/>
<circle cx="68" cy="220" r="64" fill="url(#paint3_radial_11133_3381)" fill-opacity="0.48"/>
<circle cx="600" cy="220" r="64" fill="url(#paint4_radial_11133_3381)" fill-opacity="0.48"/>
<rect x="319" y="148" width="32" height="32" rx="8" fill="#6E56CF"/>
<path d="M339 166V174H343V166H339Z" fill="#D4CAFE"/>
<path d="M327 154V174H331V166H339V162H331V158H339V162H343V154H327Z" fill="#D4CAFE"/>
<path d="M334 193.102C376.262 193.102 410.522 179.625 410.522 163C410.522 146.375 376.262 132.897 334 132.897C291.738 132.897 257.479 146.375 257.479 163C257.479 179.625 291.738 193.102 334 193.102Z" stroke="#6E56CF" stroke-opacity="0.48" stroke-dasharray="2 2"/>
<path d="M308.697 178.051C329.828 215.759 358.287 239.589 372.261 231.277C386.236 222.964 380.434 185.657 359.303 147.948C338.172 110.24 309.714 86.41 295.739 94.7225C281.765 103.035 287.566 140.342 308.697 178.051Z" stroke="#6E56CF" stroke-opacity="0.48" stroke-dasharray="2 2"/>
<path d="M308.697 147.948C287.566 185.657 281.765 222.964 295.739 231.277C309.714 239.589 338.172 215.759 359.303 178.051C380.434 140.342 386.236 103.035 372.261 94.7225C358.287 86.41 329.828 110.24 308.697 147.948Z" stroke="#6E56CF" stroke-opacity="0.48" stroke-dasharray="2 2"/>
<path d="M188 109C262.137 109 226.868 165 319 165" stroke="url(#paint5_linear_11133_3381)"/>
<path d="M319 165C226.868 165 262.137 221 188 221H96" stroke="url(#paint6_linear_11133_3381)"/>
<path d="M480 109C406.995 109 441.725 165 351 165" stroke="url(#paint7_linear_11133_3381)"/>
<path d="M351 165C441.725 165 406.995 221 480 221H572" stroke="url(#paint8_linear_11133_3381)"/>
<g filter="url(#filter0_b_11133_3381)">
<g clip-path="url(#clip1_11133_3381)">
<rect x="132" y="80" width="56" height="56" rx="16" fill="#1A1B1D" fill-opacity="0.48"/>
<path d="M150 93H170.28V103.14H160.14L150 93ZM150 103.14H160.14L170.28 113.28H150V103.14ZM150 113.28H160.14V123.42L150 113.28Z" fill="#4B4D53"/>
</g>
<rect x="132.5" y="80.5" width="55" height="55" rx="15.5" stroke="#27282B"/>
</g>
<g filter="url(#filter1_b_11133_3381)">
<rect x="480" y="81" width="56" height="56" rx="16" fill="#1A1B1D" fill-opacity="0.48"/>
<rect x="480.5" y="81.5" width="55" height="55" rx="15.5" stroke="#27282B"/>
<g clip-path="url(#clip2_11133_3381)">
<path d="M522.8 109.281C522.8 108.052 522.7 107.155 522.484 106.225H508.449V111.772H516.687C516.521 113.151 515.624 115.227 513.631 116.622L513.603 116.808L518.041 120.245L518.348 120.276C521.172 117.668 522.8 113.832 522.8 109.281Z" fill="#4B4D53"/>
<path d="M508.448 123.897C512.484 123.897 515.872 122.568 518.347 120.276L513.63 116.622C512.368 117.502 510.673 118.117 508.448 118.117C504.495 118.117 501.14 115.509 499.944 111.905L499.768 111.92L495.154 115.491L495.094 115.659C497.552 120.542 502.601 123.897 508.448 123.897Z" fill="#4B4D53"/>
<path d="M499.944 111.905C499.629 110.975 499.446 109.978 499.446 108.948C499.446 107.919 499.629 106.922 499.928 105.992L499.919 105.794L495.247 102.165L495.094 102.238C494.081 104.265 493.5 106.54 493.5 108.948C493.5 111.357 494.081 113.632 495.094 115.659L499.944 111.905Z" fill="#4B4D53"/>
<path d="M508.448 99.78C511.255 99.78 513.148 100.993 514.228 102.006L518.447 97.8866C515.856 95.4782 512.484 94 508.448 94C502.601 94 497.552 97.3551 495.094 102.238L499.927 105.992C501.14 102.388 504.495 99.78 508.448 99.78Z" fill="#4B4D53"/>
</g>
</g>
<g filter="url(#filter2_b_11133_3381)">
<rect x="40" y="192" width="56" height="56" rx="16" fill="#1A1B1D" fill-opacity="0.48"/>
<rect x="40.5" y="192.5" width="55" height="55" rx="15.5" stroke="#27282B"/>
<path d="M84.25 211.25H79.875V216.25H84.25V211.25Z" fill="#4B4D53"/>
<path d="M84.25 211.25H73.625L68.625 216.25H84.25V211.25Z" fill="#4B4D53"/>
<path d="M74.875 218.75H70.5V223.75H74.875V218.75Z" fill="#4B4D53"/>
<path d="M74.8741 223.75V218.753H66.1241L61.1191 223.75H74.8741Z" fill="#4B4D53"/>
<path d="M67.375 226.25H63V231.25H67.375V226.25Z" fill="#4B4D53"/>
<path d="M56.125 228.756L58.625 226.25H67.375V231.25H56.125V228.756Z" fill="#4B4D53"/>
<path d="M73.625 211.25L71.125 213.75H54.875V208.75H73.625V211.25Z" fill="#4B4D53"/>
<path d="M58 221.25H63.625L68.625 216.25H58V221.25Z" fill="#4B4D53"/>
<path d="M51.75 228.743L56.125 228.75L61.12 223.75L51.75 223.721V228.743Z" fill="#4B4D53"/>
</g>
<g filter="url(#filter3_b_11133_3381)">
<rect x="572" y="192" width="56" height="56" rx="16" fill="#1A1B1D" fill-opacity="0.48"/>
<rect x="572.5" y="192.5" width="55" height="55" rx="15.5" stroke="#27282B"/>
<g clip-path="url(#clip3_11133_3381)">
<path fill-rule="evenodd" clip-rule="evenodd" d="M600 204C608.837 204 616 211.163 616 220C616 228.837 608.837 236 600 236C591.163 236 584 228.837 584 220C584 211.163 591.163 204 600 204ZM603.388 210.074L593.07 220.823C592.921 220.979 593.026 221.246 593.236 221.246H600.258C600.45 221.246 600.562 221.475 600.449 221.638L594.943 229.605C594.776 229.847 595.086 230.135 595.295 229.931L606.925 218.545C607.081 218.392 606.978 218.117 606.764 218.117H600.127C599.949 218.117 599.835 217.916 599.921 217.751L603.761 210.368C603.891 210.118 603.581 209.873 603.388 210.074Z" fill="#4B4D53"/>
</g>
</g>
<rect width="668" height="140" transform="translate(0 180)" fill="url(#paint9_linear_11133_3381)"/>
</g>
<defs>
<filter id="filter0_b_11133_3381" x="120" y="68" width="80" height="80" filterUnits="userSpaceOnUse" color-interpolation-filters="sRGB">
<feFlood flood-opacity="0" result="BackgroundImageFix"/>
<feGaussianBlur in="BackgroundImageFix" stdDeviation="6"/>
<feComposite in2="SourceAlpha" operator="in" result="effect1_backgroundBlur_11133_3381"/>
<feBlend mode="normal" in="SourceGraphic" in2="effect1_backgroundBlur_11133_3381" result="shape"/>
</filter>
<filter id="filter1_b_11133_3381" x="468" y="69" width="80" height="80" filterUnits="userSpaceOnUse" color-interpolation-filters="sRGB">
<feFlood flood-opacity="0" result="BackgroundImageFix"/>
<feGaussianBlur in="BackgroundImageFix" stdDeviation="6"/>
<feComposite in2="SourceAlpha" operator="in" result="effect1_backgroundBlur_11133_3381"/>
<feBlend mode="normal" in="SourceGraphic" in2="effect1_backgroundBlur_11133_3381" result="shape"/>
</filter>
<filter id="filter2_b_11133_3381" x="28" y="180" width="80" height="80" filterUnits="userSpaceOnUse" color-interpolation-filters="sRGB">
<feFlood flood-opacity="0" result="BackgroundImageFix"/>
<feGaussianBlur in="BackgroundImageFix" stdDeviation="6"/>
<feComposite in2="SourceAlpha" operator="in" result="effect1_backgroundBlur_11133_3381"/>
<feBlend mode="normal" in="SourceGraphic" in2="effect1_backgroundBlur_11133_3381" result="shape"/>
</filter>
<filter id="filter3_b_11133_3381" x="560" y="180" width="80" height="80" filterUnits="userSpaceOnUse" color-interpolation-filters="sRGB">
<feFlood flood-opacity="0" result="BackgroundImageFix"/>
<feGaussianBlur in="BackgroundImageFix" stdDeviation="6"/>
<feComposite in2="SourceAlpha" operator="in" result="effect1_backgroundBlur_11133_3381"/>
<feBlend mode="normal" in="SourceGraphic" in2="effect1_backgroundBlur_11133_3381" result="shape"/>
</filter>
<radialGradient id="paint0_radial_11133_3381" cx="0" cy="0" r="1" gradientUnits="userSpaceOnUse" gradientTransform="translate(335.5 260.5) rotate(90) scale(259.5)">
<stop stop-color="#261958"/>
<stop offset="1" stop-color="#1A1B1D" stop-opacity="0"/>
</radialGradient>
<radialGradient id="paint1_radial_11133_3381" cx="0" cy="0" r="1" gradientUnits="userSpaceOnUse" gradientTransform="translate(160 109) rotate(90) scale(64)">
<stop stop-color="#261958"/>
<stop offset="1" stop-color="#1A1B1D" stop-opacity="0"/>
</radialGradient>
<radialGradient id="paint2_radial_11133_3381" cx="0" cy="0" r="1" gradientUnits="userSpaceOnUse" gradientTransform="translate(508 109) rotate(90) scale(64)">
<stop stop-color="#261958"/>
<stop offset="1" stop-color="#1A1B1D" stop-opacity="0"/>
</radialGradient>
<radialGradient id="paint3_radial_11133_3381" cx="0" cy="0" r="1" gradientUnits="userSpaceOnUse" gradientTransform="translate(68 220) rotate(90) scale(64)">
<stop stop-color="#261958"/>
<stop offset="1" stop-color="#1A1B1D" stop-opacity="0"/>
</radialGradient>
<radialGradient id="paint4_radial_11133_3381" cx="0" cy="0" r="1" gradientUnits="userSpaceOnUse" gradientTransform="translate(600 220) rotate(90) scale(64)">
<stop stop-color="#261958"/>
<stop offset="1" stop-color="#1A1B1D" stop-opacity="0"/>
</radialGradient>
<linearGradient id="paint5_linear_11133_3381" x1="188" y1="137" x2="319" y2="137" gradientUnits="userSpaceOnUse">
<stop offset="0.3" stop-color="#27282B"/>
<stop offset="1" stop-color="#6E56CF"/>
</linearGradient>
<linearGradient id="paint6_linear_11133_3381" x1="96" y1="193" x2="319" y2="193" gradientUnits="userSpaceOnUse">
<stop offset="0.3" stop-color="#27282B"/>
<stop offset="1" stop-color="#6E56CF"/>
</linearGradient>
<linearGradient id="paint7_linear_11133_3381" x1="480" y1="137" x2="351" y2="137" gradientUnits="userSpaceOnUse">
<stop offset="0.3" stop-color="#27282B"/>
<stop offset="1" stop-color="#6E56CF"/>
</linearGradient>
<linearGradient id="paint8_linear_11133_3381" x1="572" y1="193" x2="351" y2="193" gradientUnits="userSpaceOnUse">
<stop offset="0.3" stop-color="#27282B"/>
<stop offset="1" stop-color="#6E56CF"/>
</linearGradient>
<linearGradient id="paint9_linear_11133_3381" x1="334" y1="0" x2="334" y2="140" gradientUnits="userSpaceOnUse">
<stop stop-color="#1A1B1D" stop-opacity="0"/>
<stop offset="0.638983" stop-color="#1A1B1D"/>
</linearGradient>
<clipPath id="clip0_11133_3381">
<rect width="668" height="320" fill="white"/>
</clipPath>
<clipPath id="clip1_11133_3381">
<rect x="132" y="80" width="56" height="56" rx="16" fill="white"/>
</clipPath>
<clipPath id="clip2_11133_3381">
<rect width="29.313" height="30" fill="white" transform="translate(493.5 94)"/>
</clipPath>
<clipPath id="clip3_11133_3381">
<rect width="32" height="32" fill="white" transform="translate(584 204)"/>
</clipPath>
</defs>
</svg>
