<svg xmlns="http://www.w3.org/2000/svg" width="668" height="320" fill="none" viewBox="0 0 668 320"><g clip-path="url(#a)"><circle cx="335.5" cy="260.5" r="259.5" fill="url(#b)"/><circle cx="160" cy="109" r="64" fill="url(#c)" fill-opacity=".48"/><circle cx="508" cy="109" r="64" fill="url(#d)" fill-opacity=".48"/><circle cx="68" cy="220" r="64" fill="url(#e)" fill-opacity=".48"/><circle cx="600" cy="220" r="64" fill="url(#f)" fill-opacity=".48"/><rect width="32" height="32" x="319" y="148" fill="#6E56CF" rx="8"/><path fill="#D4CAFE" d="M339 166v8h4v-8z"/><path fill="#D4CAFE" d="M327 154v20h4v-8h8v-4h-8v-4h8v4h4v-8z"/><path stroke="#6E56CF" stroke-dasharray="2 2" stroke-opacity=".48" d="M334 193.102c42.262 0 76.522-13.477 76.522-30.102s-34.26-30.103-76.522-30.103-76.521 13.478-76.521 30.103 34.259 30.102 76.521 30.102Z"/><path stroke="#6E56CF" stroke-dasharray="2 2" stroke-opacity=".48" d="M308.697 178.051c21.131 37.708 49.59 61.538 63.564 53.226 13.975-8.313 8.173-45.62-12.958-83.329s-49.589-61.538-63.564-53.226c-13.974 8.313-8.173 45.62 12.958 83.329Z"/><path stroke="#6E56CF" stroke-dasharray="2 2" stroke-opacity=".48" d="M308.697 147.948c-21.131 37.709-26.932 75.016-12.958 83.329 13.975 8.312 42.433-15.518 63.564-53.226 21.131-37.709 26.933-75.016 12.958-83.328-13.974-8.313-42.433 15.517-63.564 53.225Z"/><path stroke="url(#g)" d="M188 109c74.137 0 38.868 56 131 56"/><path stroke="url(#h)" d="M319 165c-92.132 0-56.863 56-131 56H96"/><path stroke="url(#i)" d="M480 109c-73.005 0-38.275 56-129 56"/><path stroke="url(#j)" d="M351 165c90.725 0 55.995 56 129 56h92"/><g filter="url(#k)"><g clip-path="url(#l)"><rect width="56" height="56" x="132" y="80" fill="#1A1B1D" fill-opacity=".48" rx="16"/><path fill="#4B4D53" d="M150 93h20.28v10.14h-10.14zm0 10.14h10.14l10.14 10.14H150zm0 10.14h10.14v10.14z"/></g><rect width="55" height="55" x="132.5" y="80.5" stroke="#27282B" rx="15.5"/></g><g filter="url(#m)"><rect width="56" height="56" x="480" y="81" fill="#1A1B1D" fill-opacity=".48" rx="16"/><rect width="55" height="55" x="480.5" y="81.5" stroke="#27282B" rx="15.5"/><g fill="#4B4D53" clip-path="url(#n)"><path d="M522.8 109.281c0-1.229-.1-2.126-.316-3.056h-14.035v5.547h8.238c-.166 1.379-1.063 3.455-3.056 4.85l-.028.186 4.438 3.437.307.031c2.824-2.608 4.452-6.444 4.452-10.995"/><path d="M508.448 123.897c4.036 0 7.424-1.329 9.899-3.621l-4.717-3.654c-1.262.88-2.957 1.495-5.182 1.495-3.953 0-7.308-2.608-8.504-6.212l-.176.015-4.614 3.571-.06.168c2.458 4.883 7.507 8.238 13.354 8.238"/><path d="M499.944 111.905a9.2 9.2 0 0 1-.498-2.957 9.7 9.7 0 0 1 .482-2.956l-.009-.198-4.672-3.629-.153.073a15 15 0 0 0-1.594 6.71c0 2.409.581 4.684 1.594 6.711z"/><path d="M508.448 99.78c2.807 0 4.7 1.213 5.78 2.226l4.219-4.12c-2.591-2.408-5.963-3.886-9.999-3.886-5.847 0-10.896 3.355-13.354 8.238l4.833 3.754c1.213-3.604 4.568-6.212 8.521-6.212"/></g></g><g filter="url(#o)"><rect width="56" height="56" x="40" y="192" fill="#1A1B1D" fill-opacity=".48" rx="16"/><rect width="55" height="55" x="40.5" y="192.5" stroke="#27282B" rx="15.5"/><path fill="#4B4D53" d="M84.25 211.25h-4.375v5h4.375z"/><path fill="#4B4D53" d="M84.25 211.25H73.625l-5 5H84.25zm-9.375 7.5H70.5v5h4.375z"/><path fill="#4B4D53" d="M74.874 223.75v-4.997h-8.75l-5.005 4.997zm-7.499 2.5H63v5h4.375z"/><path fill="#4B4D53" d="m56.125 228.756 2.5-2.506h8.75v5h-11.25zm17.5-17.506-2.5 2.5h-16.25v-5h18.75zM58 221.25h5.625l5-5H58zm-6.25 7.493 4.375.007 4.995-5-9.37-.029z"/></g><g filter="url(#p)"><rect width="56" height="56" x="572" y="192" fill="#1A1B1D" fill-opacity=".48" rx="16"/><rect width="55" height="55" x="572.5" y="192.5" stroke="#27282B" rx="15.5"/><g clip-path="url(#q)"><path fill="#4B4D53" fill-rule="evenodd" d="M600 204c8.837 0 16 7.163 16 16s-7.163 16-16 16-16-7.163-16-16 7.163-16 16-16m3.388 6.074-10.318 10.749c-.149.156-.044.423.166.423h7.022c.192 0 .304.229.191.392l-5.506 7.967c-.167.242.143.53.352.326l11.63-11.386c.156-.153.053-.428-.161-.428h-6.637c-.178 0-.292-.201-.206-.366l3.84-7.383c.13-.25-.18-.495-.373-.294" clip-rule="evenodd"/></g></g><path fill="url(#r)" d="M0 0h668v140H0z" transform="translate(0 180)"/></g><defs><radialGradient id="b" cx="0" cy="0" r="1" gradientTransform="rotate(90 37.5 298)scale(259.5)" gradientUnits="userSpaceOnUse"><stop stop-color="#261958"/><stop offset="1" stop-color="#1A1B1D" stop-opacity="0"/></radialGradient><radialGradient id="c" cx="0" cy="0" r="1" gradientTransform="matrix(0 64 -64 0 160 109)" gradientUnits="userSpaceOnUse"><stop stop-color="#261958"/><stop offset="1" stop-color="#1A1B1D" stop-opacity="0"/></radialGradient><radialGradient id="d" cx="0" cy="0" r="1" gradientTransform="matrix(0 64 -64 0 508 109)" gradientUnits="userSpaceOnUse"><stop stop-color="#261958"/><stop offset="1" stop-color="#1A1B1D" stop-opacity="0"/></radialGradient><radialGradient id="e" cx="0" cy="0" r="1" gradientTransform="matrix(0 64 -64 0 68 220)" gradientUnits="userSpaceOnUse"><stop stop-color="#261958"/><stop offset="1" stop-color="#1A1B1D" stop-opacity="0"/></radialGradient><radialGradient id="f" cx="0" cy="0" r="1" gradientTransform="matrix(0 64 -64 0 600 220)" gradientUnits="userSpaceOnUse"><stop stop-color="#261958"/><stop offset="1" stop-color="#1A1B1D" stop-opacity="0"/></radialGradient><linearGradient id="g" x1="188" x2="319" y1="137" y2="137" gradientUnits="userSpaceOnUse"><stop offset=".3" stop-color="#27282B"/><stop offset="1" stop-color="#6E56CF"/></linearGradient><linearGradient id="h" x1="96" x2="319" y1="193" y2="193" gradientUnits="userSpaceOnUse"><stop offset=".3" stop-color="#27282B"/><stop offset="1" stop-color="#6E56CF"/></linearGradient><linearGradient id="i" x1="480" x2="351" y1="137" y2="137" gradientUnits="userSpaceOnUse"><stop offset=".3" stop-color="#27282B"/><stop offset="1" stop-color="#6E56CF"/></linearGradient><linearGradient id="j" x1="572" x2="351" y1="193" y2="193" gradientUnits="userSpaceOnUse"><stop offset=".3" stop-color="#27282B"/><stop offset="1" stop-color="#6E56CF"/></linearGradient><linearGradient id="r" x1="334" x2="334" y1="0" y2="140" gradientUnits="userSpaceOnUse"><stop stop-color="#1A1B1D" stop-opacity="0"/><stop offset=".639" stop-color="#1A1B1D"/></linearGradient><clipPath id="a"><path fill="#fff" d="M0 0h668v320H0z"/></clipPath><clipPath id="l"><rect width="56" height="56" x="132" y="80" fill="#fff" rx="16"/></clipPath><clipPath id="n"><path fill="#fff" d="M493.5 94h29.313v30H493.5z"/></clipPath><clipPath id="q"><path fill="#fff" d="M584 204h32v32h-32z"/></clipPath><filter id="k" width="80" height="80" x="120" y="68" color-interpolation-filters="sRGB" filterUnits="userSpaceOnUse"><feFlood flood-opacity="0" result="BackgroundImageFix"/><feGaussianBlur in="BackgroundImageFix" stdDeviation="6"/><feComposite in2="SourceAlpha" operator="in" result="effect1_backgroundBlur_11133_3381"/><feBlend in="SourceGraphic" in2="effect1_backgroundBlur_11133_3381" result="shape"/></filter><filter id="m" width="80" height="80" x="468" y="69" color-interpolation-filters="sRGB" filterUnits="userSpaceOnUse"><feFlood flood-opacity="0" result="BackgroundImageFix"/><feGaussianBlur in="BackgroundImageFix" stdDeviation="6"/><feComposite in2="SourceAlpha" operator="in" result="effect1_backgroundBlur_11133_3381"/><feBlend in="SourceGraphic" in2="effect1_backgroundBlur_11133_3381" result="shape"/></filter><filter id="o" width="80" height="80" x="28" y="180" color-interpolation-filters="sRGB" filterUnits="userSpaceOnUse"><feFlood flood-opacity="0" result="BackgroundImageFix"/><feGaussianBlur in="BackgroundImageFix" stdDeviation="6"/><feComposite in2="SourceAlpha" operator="in" result="effect1_backgroundBlur_11133_3381"/><feBlend in="SourceGraphic" in2="effect1_backgroundBlur_11133_3381" result="shape"/></filter><filter id="p" width="80" height="80" x="560" y="180" color-interpolation-filters="sRGB" filterUnits="userSpaceOnUse"><feFlood flood-opacity="0" result="BackgroundImageFix"/><feGaussianBlur in="BackgroundImageFix" stdDeviation="6"/><feComposite in2="SourceAlpha" operator="in" result="effect1_backgroundBlur_11133_3381"/><feBlend in="SourceGraphic" in2="effect1_backgroundBlur_11133_3381" result="shape"/></filter></defs></svg>