<svg xmlns="http://www.w3.org/2000/svg" width="326" height="304" fill="none" viewBox="0 0 326 304"><path fill="#27282B" fill-rule="evenodd" d="M270 144H166v-1h104zm0-21H166v-1h104zm0 42H166v-1h104z" clip-rule="evenodd"/><path stroke="#303236" stroke-linecap="round" stroke-width="3" d="M268.5 110c-11.174 0-10.737 37.782-18.849 37.782-4.158 0-6.826-7.841-11.218-7.841-6.636 0-11.096 16.572-17.893 12.871-4.606-2.508-7.644-14.524-12.883-10.574-7.248 5.464-8.072 42.388-18.685 29.386-5.331-6.532-14.114-16.046-20.972-15.271"/><rect width="104" height="8" x="56" y="114" fill="#303236" rx="4"/><rect width="104" height="8" x="56" y="130" fill="#303236" rx="4"/><rect width="48" height="24" x="56" y="154" fill="#27282B" rx="8"/><rect width="48" height="24" x="112" y="154" fill="#27282B" rx="8"/><ellipse cx="163" cy="150" fill="url(#a)" rx="108" ry="150"/><path stroke="url(#b)" d="M40.5 303V63"/><path stroke="url(#c)" d="M285.5 303V63"/><path fill="#6E56CF" fill-rule="evenodd" d="M124 105.025V106h-1v-.975zm0-3.9v1.95h-1v-1.95zm0-3.9v1.95h-1v-1.95zm0-3.9v1.95h-1v-1.95zm0-3.9v1.95h-1v-1.95zm0-3.9v1.95h-1v-1.95zm0-3.9v1.95h-1v-1.95zm0-3.9v1.95h-1v-1.95zm0-3.9v1.95h-1v-1.95zm0-3.9v1.95h-1v-1.95zm79 35.1V106h-1v-.975zm0-3.9v1.95h-1v-1.95zm0-3.9v1.95h-1v-1.95zm0-3.9v1.95h-1v-1.95zm0-3.9v1.95h-1v-1.95zm0-3.9v1.95h-1v-1.95zm0-3.9v1.95h-1v-1.95zm0-3.9v1.95h-1v-1.95zm0-3.9v1.95h-1v-1.95zm0-3.9v1.95h-1v-1.95z" clip-rule="evenodd" opacity=".72"/><path fill="#303236" fill-rule="evenodd" d="M206.95 65H205v-1h1.95zm3.9 0h-1.95v-1h1.95zm3.9 0h-1.95v-1h1.95zm3.9 0h-1.95v-1h1.95zm3.9 0h-1.95v-1h1.95zm3.9 0h-1.95v-1h1.95zm3.9 0h-1.95v-1h1.95zm3.9 0h-1.95v-1h1.95zm3.9 0h-1.95v-1h1.95zm3.9 0h-1.95v-1h1.95zm3.9 0H244v-1h1.95zm3.9 0h-1.95v-1h1.95zm3.9 0h-1.95v-1h1.95zm3.9 0h-1.95v-1h1.95zm3.9 0h-1.95v-1h1.95zm3.9 0h-1.95v-1h1.95zm3.9 0h-1.95v-1h1.95zm3.9 0h-1.95v-1h1.95zm3.75 0h-1.8v-1h1.8zM50.95 65H49v-1h1.95zm3.9 0H52.9v-1h1.95zm3.9 0H56.8v-1h1.95zm3.9 0H60.7v-1h1.95zm3.9 0H64.6v-1h1.95zm3.9 0H68.5v-1h1.95zm3.9 0H72.4v-1h1.95zm3.9 0H76.3v-1h1.95zm3.9 0H80.2v-1h1.95zm3.9 0H84.1v-1h1.95zm3.9 0H88v-1h1.95zm3.9 0H91.9v-1h1.95zm3.9 0H95.8v-1h1.95zm3.9 0H99.7v-1h1.95zm3.9 0h-1.95v-1h1.95zm3.9 0h-1.95v-1h1.95zm3.9 0h-1.95v-1h1.95zm3.9 0h-1.95v-1h1.95zm3.75 0h-1.8v-1h1.8z" clip-rule="evenodd"/><path fill="#6E56CF" fill-rule="evenodd" d="M134 65h-2v-1h2zm4 0h-2v-1h2zm4 0h-2v-1h2zm4 0h-2v-1h2zm4 0h-2v-1h2zm4 0h-2v-1h2zm4 0h-2v-1h2zm4 0h-2v-1h2zm4 0h-2v-1h2zm4 0h-2v-1h2zm4 0h-2v-1h2zm4 0h-2v-1h2zm4 0h-2v-1h2zm4 0h-2v-1h2zm4 0h-2v-1h2zm4 0h-2v-1h2z" clip-rule="evenodd" opacity=".72"/><path fill="#6E56CF" d="m130 64.5-7-3.5v7z"/><path fill="#303236" d="m279 64.5 7-3.5v7z"/><path fill="#6E56CF" d="m196 64.5 7-3.5v7z"/><path fill="#303236" d="M47 64.5 40 61v7z"/><g filter="url(#d)"><rect width="80" height="184" x="123" y="88" fill="#1A1B1D" fill-opacity=".48" rx="10"/><rect width="79" height="183" x="123.5" y="88.5" stroke="#27282B" rx="9.5"/><rect width="64" height="4" x="131" y="148" fill="#6E56CF" rx="2"/><rect width="32" height="4" x="131" y="156" fill="#6E56CF" rx="2"/><rect width="64" height="12" x="131" y="168" fill="#6E56CF" rx="4"/><rect width="64" height="12" x="131" y="184" fill="#6E56CF" rx="4"/><g clip-path="url(#e)"><path fill="#6E56CF" fill-rule="evenodd" d="M195 114h-64v-1h64zm0-9h-64v-1h64zm0 18h-64v-1h64z" clip-rule="evenodd" opacity=".36"/><path stroke="#6E56CF" stroke-linecap="round" stroke-width="1.5" d="M132 131c4.413 0 6.558-4.956 9.965-9.851 3.443-4.947 9.628 1.989 13.02 6.375 5.307 6.862 5.719-11.626 9.343-14.51 2.62-2.084 4.138 4.258 6.441 5.581 3.399 1.953 5.629-6.793 8.947-6.793 2.196 0 3.53 4.139 5.609 4.139 4.056 0 3.088-18.941 8.675-18.941"/></g></g><path fill="url(#f)" d="M0 0h326v168H0z" transform="translate(0 136)"/><defs><linearGradient id="b" x1="41.5" x2="41.5" y1="63" y2="303" gradientUnits="userSpaceOnUse"><stop offset=".05" stop-color="#1A1B1D"/><stop offset=".15" stop-color="#222326"/></linearGradient><linearGradient id="c" x1="286.5" x2="286.5" y1="63" y2="303" gradientUnits="userSpaceOnUse"><stop offset=".05" stop-color="#1A1B1D"/><stop offset=".15" stop-color="#222326"/></linearGradient><linearGradient id="f" x1="163" x2="163" y1="0" y2="168" gradientUnits="userSpaceOnUse"><stop stop-color="#1A1B1D" stop-opacity="0"/><stop offset=".724" stop-color="#1A1B1D"/></linearGradient><radialGradient id="a" cx="0" cy="0" r="1" gradientTransform="matrix(0 150 -108 0 163 150)" gradientUnits="userSpaceOnUse"><stop stop-color="#261958"/><stop offset="1" stop-color="#1A1B1D" stop-opacity="0"/></radialGradient><clipPath id="e"><path fill="#fff" d="M131 96h64v36h-64z"/></clipPath><filter id="d" width="104" height="208" x="111" y="76" color-interpolation-filters="sRGB" filterUnits="userSpaceOnUse"><feFlood flood-opacity="0" result="BackgroundImageFix"/><feGaussianBlur in="BackgroundImageFix" stdDeviation="6"/><feComposite in2="SourceAlpha" operator="in" result="effect1_backgroundBlur_10609_3335"/><feBlend in="SourceGraphic" in2="effect1_backgroundBlur_10609_3335" result="shape"/></filter></defs></svg>