<svg xmlns="http://www.w3.org/2000/svg" width="668" height="320" fill="none" viewBox="0 0 668 320"><g clip-path="url(#a)"><ellipse cx="334" cy="167" fill="url(#b)" rx="194" ry="167"/><g filter="url(#c)"><rect width="323" height="224" x="40" y="104" fill="#1A1B1D" fill-opacity=".48" rx="10"/><rect width="322" height="223" x="40.5" y="104.5" stroke="#27282B" rx="9.5"/><path fill="#6E7287" d="M67.289 141.13q-1.065 0-1.729-.741-.65-.741-.65-1.989v-1.937q0-1.261.65-2.002t1.729-.741q.884 0 1.404.507.52.494.52 1.365l-.364-.377h.377l-.052-1.703v-2.002h1.625V141h-1.586v-1.365h-.364l.364-.377q0 .871-.52 1.378-.52.494-1.404.494m.572-1.404q.624 0 .962-.364.351-.377.351-1.04v-1.794q0-.663-.351-1.027-.338-.377-.962-.377t-.975.364-.351 1.04v1.794q0 .676.351 1.04t.975.364m7.652 1.404q-.91 0-1.586-.351a2.6 2.6 0 0 1-1.053-.975q-.364-.638-.364-1.482v-1.794q0-.845.364-1.469a2.57 2.57 0 0 1 1.053-.988q.676-.351 1.586-.351.897 0 1.56.351.675.35 1.04.988.377.624.377 1.469v1.287h-4.407v.507q0 .754.364 1.144.364.377 1.079.377.546 0 .884-.182a.87.87 0 0 0 .429-.559h1.599q-.181.923-.988 1.482-.793.546-1.937.546m1.404-4.225v-.39q0-.741-.351-1.131-.351-.403-1.053-.403t-1.066.403-.364 1.144v.273l2.95-.026zM81.865 141v-4.888h-1.963v-1.469h1.963v-1.079q0-.936.624-1.495.624-.56 1.65-.559h2.094v1.43h-2.054a.72.72 0 0 0-.507.182q-.182.17-.182.468v1.053h2.743v1.469H83.49V141zm16.474.13q-.91 0-1.6-.338a2.6 2.6 0 0 1-1.052-.975q-.377-.637-.377-1.495v-1.794q0-.871.377-1.495a2.5 2.5 0 0 1 1.053-.962q.689-.351 1.599-.351 1.351 0 2.158.702.806.689.845 1.885h-1.625q-.039-.56-.403-.858-.352-.312-.975-.312-.65 0-1.027.364-.377.351-.377 1.014v1.807q0 .663.377 1.027.376.364 1.027.364.623 0 .975-.299.364-.312.403-.871h1.625q-.04 1.196-.845 1.898-.807.689-2.158.689m7.561-.013q-.91 0-1.586-.338a2.6 2.6 0 0 1-1.04-.975q-.364-.637-.364-1.495v-1.768q0-.858.364-1.482.377-.638 1.04-.975.675-.351 1.586-.351.923 0 1.586.351.663.338 1.027.975.377.624.377 1.469v1.781q0 .858-.377 1.495a2.54 2.54 0 0 1-1.027.975q-.663.338-1.586.338m0-1.417q.65 0 1.001-.351.364-.364.364-1.04v-1.768q0-.689-.364-1.04-.351-.351-1.001-.351-.638 0-1.001.351-.364.351-.364 1.04v1.768q0 .676.364 1.04.363.351 1.001.351m4.376 1.3v-7.15h1.326v.962h.273l-.221.234q0-.598.338-.962.337-.364.871-.364.572 0 .884.468.325.468.325 1.261l-.286-.637h.442l-.169.234q0-.598.338-.962.337-.364.897-.364.663 0 1.053.494t.39 1.339V141h-1.43v-5.382q0-.351-.156-.546-.156-.208-.455-.208a.57.57 0 0 0-.455.195q-.156.195-.156.559V141h-1.17v-5.382q0-.364-.156-.559t-.455-.195q-.3 0-.455.195-.144.195-.143.559V141zm7.924 2.34v-9.49h1.586v1.365h.364l-.364.377q0-.871.52-1.365.52-.507 1.404-.507 1.08 0 1.729.741.65.741.65 1.989v1.937q0 .832-.299 1.456-.285.611-.819.949-.532.338-1.261.338-.883 0-1.404-.494-.52-.507-.52-1.378l.364.377h-.377l.052 1.703v2.002zm2.938-3.614q.624 0 .975-.364t.351-1.04v-1.794q0-.676-.351-1.04t-.975-.364q-.61 0-.962.377-.351.364-.351 1.027v1.794q0 .663.351 1.04.351.364.962.364m7.561 1.391q-.91 0-1.586-.338a2.63 2.63 0 0 1-1.04-.975q-.364-.637-.364-1.495v-1.768q0-.858.364-1.482.377-.638 1.04-.975.677-.351 1.586-.351.923 0 1.586.351.664.338 1.027.975.377.624.377 1.469v1.781q0 .858-.377 1.495a2.53 2.53 0 0 1-1.027.975q-.662.338-1.586.338m0-1.417q.65 0 1.001-.351.364-.364.364-1.04v-1.768q0-.689-.364-1.04-.35-.351-1.001-.351-.636 0-1.001.351t-.364 1.04v1.768q0 .676.364 1.04.365.351 1.001.351m4.701 1.3v-7.15h1.586v1.365h.442l-.442.377q0-.884.507-1.378.52-.494 1.417-.494 1.053 0 1.677.702.637.702.637 1.885V141h-1.625v-4.524q0-.65-.338-1.001-.337-.351-.949-.351-.597 0-.949.364-.338.364-.338 1.04V141zm10.512.13q-.91 0-1.586-.351a2.6 2.6 0 0 1-1.053-.975q-.363-.638-.364-1.482v-1.794q0-.845.364-1.469a2.6 2.6 0 0 1 1.053-.988q.677-.351 1.586-.351.897 0 1.56.351.677.35 1.04.988.377.624.377 1.469v1.287h-4.407v.507q0 .754.364 1.144.365.377 1.079.377.546 0 .884-.182a.86.86 0 0 0 .429-.559h1.599q-.181.923-.988 1.482-.792.546-1.937.546m1.404-4.225v-.39q0-.741-.351-1.131-.351-.403-1.053-.403t-1.066.403q-.363.403-.364 1.144v.273l2.951-.026zM148.6 141v-7.15h1.586v1.365h.442l-.442.377q0-.884.507-1.378.52-.494 1.417-.494 1.053 0 1.677.702.637.702.637 1.885V141h-1.625v-4.524q0-.65-.338-1.001t-.949-.351q-.598 0-.949.364-.338.364-.338 1.04V141zm11.279 0q-1.027 0-1.612-.572-.572-.572-.572-1.573v-3.536h-1.937v-1.469h1.937v-2.015h1.638v2.015h2.743v1.469h-2.743v3.536q0 .676.663.676h1.95V141zm9.225 1.56q-1.976-.52-3.055-1.833-1.079-1.326-1.079-3.224v-2.353q0-1.248.494-2.262a4.96 4.96 0 0 1 1.43-1.742q.936-.728 2.21-1.066v1.599a3.2 3.2 0 0 0-1.339.663 3.15 3.15 0 0 0-.858 1.196 4.2 4.2 0 0 0-.299 1.612v2.353q0 .871.299 1.586.299.702.858 1.183.572.468 1.339.65zm2.79 0v-1.638q.78-.182 1.339-.65.56-.481.858-1.183a4.1 4.1 0 0 0 .299-1.586v-2.353q0-.897-.299-1.612a3.15 3.15 0 0 0-.858-1.196 3.1 3.1 0 0 0-1.339-.663v-1.599q1.287.338 2.21 1.066a4.8 4.8 0 0 1 1.417 1.742q.507 1.014.507 2.262v2.353q0 1.898-1.079 3.224-1.079 1.313-3.055 1.833m10.005-6.656q-.546 0-.884-.299a1.05 1.05 0 0 1-.325-.793q0-.494.325-.793.338-.299.884-.299t.871.299q.338.299.338.793 0 .481-.338.793-.325.299-.871.299m0 5.226q-.546 0-.884-.299-.325-.299-.325-.793t.325-.793q.338-.299.884-.299t.871.299q.338.299.338.793t-.338.793q-.325.299-.871.299M95.622 165v-7.15h1.534v1.365h.403l-.481.832q0-1.157.52-1.742t1.534-.585q1.157 0 1.82.715t.663 1.976v.52h-1.703v-.403q0-.689-.364-1.066-.352-.377-.975-.377-.637 0-.988.377-.339.377-.338 1.066V165zm10.291.13q-.91 0-1.586-.351a2.6 2.6 0 0 1-1.053-.975q-.364-.638-.364-1.482v-1.794q0-.845.364-1.469a2.57 2.57 0 0 1 1.053-.988q.675-.351 1.586-.351.897 0 1.56.351.675.35 1.04.988.377.624.377 1.469v1.287h-4.407v.507q0 .754.364 1.144.363.377 1.079.377.546 0 .884-.182a.87.87 0 0 0 .429-.559h1.599q-.183.923-.988 1.482-.794.546-1.937.546m1.404-4.225v-.39q0-.741-.351-1.131-.351-.403-1.053-.403-.703 0-1.066.403t-.364 1.144v.273l2.951-.026zM114.28 165q-1.027 0-1.612-.572-.573-.572-.572-1.573v-3.536h-1.937v-1.469h1.937v-2.015h1.638v2.015h2.743v1.469h-2.743v3.536q0 .676.663.676h1.95V165zm6.819.13q-1.365 0-2.145-.754-.78-.767-.78-2.08v-4.446h1.625v4.433q0 .689.338 1.066.339.364.962.364.612 0 .949-.364.351-.377.351-1.066v-4.433h1.625v4.446q0 1.313-.793 2.08-.792.754-2.132.754m4.922-.13v-7.15h1.534v1.365h.403l-.481.832q0-1.157.52-1.742t1.534-.585q1.157 0 1.82.715t.663 1.976v.52h-1.703v-.403q0-.689-.364-1.066-.351-.377-.975-.377-.636 0-.988.377-.338.377-.338 1.066V165zm7.379 0v-7.15h1.586v1.365h.442l-.442.377q0-.884.507-1.378.52-.494 1.417-.494 1.053 0 1.677.702.637.702.637 1.885V165h-1.625v-4.524q0-.65-.338-1.001-.337-.351-.949-.351-.597 0-.949.364-.338.364-.338 1.04V165zm15.421 0v-7.15h1.534v1.365h.403l-.481.832q0-1.157.52-1.742t1.534-.585q1.157 0 1.82.715t.663 1.976v.52h-1.703v-.403q0-.689-.364-1.066-.351-.377-.975-.377-.637 0-.988.377-.338.377-.338 1.066V165zm6.846 0 2.496-3.692-2.327-3.458h1.833l1.105 1.755q.104.156.182.351.091.195.143.312.052-.117.143-.312t.182-.351l1.118-1.755h1.833l-2.327 3.458 2.483 3.692h-1.846l-1.235-1.963a4 4 0 0 1-.195-.364 6 6 0 0 0-.156-.312q-.052.117-.143.312a4 4 0 0 1-.195.364L157.5 165zm11.032.13q-.56 0-.897-.325-.325-.325-.325-.884t.325-.884q.338-.338.897-.338t.884.338q.338.325.338.884t-.338.884q-.325.325-.884.325m7.639 0q-.91 0-1.599-.338a2.6 2.6 0 0 1-1.053-.975q-.377-.637-.377-1.495v-1.794q0-.871.377-1.495a2.5 2.5 0 0 1 1.053-.962q.689-.351 1.599-.351 1.352 0 2.158.702.806.689.845 1.885h-1.625q-.039-.56-.403-.858-.351-.312-.975-.312-.65 0-1.027.364-.377.351-.377 1.014v1.807q0 .663.377 1.027t1.027.364q.624 0 .975-.299.364-.312.403-.871h1.625q-.04 1.196-.845 1.898-.806.689-2.158.689m7.561-.013q-.91 0-1.586-.338a2.6 2.6 0 0 1-1.04-.975q-.364-.637-.364-1.495v-1.768q0-.858.364-1.482.377-.638 1.04-.975.675-.351 1.586-.351.923 0 1.586.351.663.338 1.027.975.377.624.377 1.469v1.781q0 .858-.377 1.495a2.54 2.54 0 0 1-1.027.975q-.663.338-1.586.338m0-1.417q.65 0 1.001-.351.363-.364.364-1.04v-1.768q0-.689-.364-1.04-.351-.351-1.001-.351-.638 0-1.001.351-.364.351-.364 1.04v1.768q0 .676.364 1.04.363.351 1.001.351m4.701 1.3v-7.15h1.586v1.365h.442l-.442.377q0-.884.507-1.378.52-.494 1.417-.494 1.053 0 1.677.702.637.702.637 1.885V165h-1.625v-4.524q0-.65-.338-1.001-.339-.351-.949-.351-.598 0-.949.364-.339.364-.338 1.04V165zm11.279 0q-1.027 0-1.612-.572-.572-.572-.572-1.573v-3.536h-1.937v-1.469h1.937v-2.015h1.638v2.015h2.743v1.469h-2.743v3.536q0 .676.663.676h1.95V165zm6.027.13q-1.106 0-1.742-.585-.637-.585-.637-1.573 0-1.053.702-1.625t1.989-.572h1.781v-.611q0-.52-.338-.806-.338-.299-.923-.299-.534 0-.884.234a.91.91 0 0 0-.416.637h-1.586q.117-1.014.91-1.612.792-.598 2.028-.598 1.313 0 2.067.663.767.65.767 1.768V165h-1.573v-1.248h-.26l.26-.351q0 .793-.585 1.261t-1.56.468m.533-1.222q.689 0 1.118-.351a1.11 1.11 0 0 0 .442-.91v-.871h-1.755q-.495 0-.793.286-.3.286-.299.754 0 .507.338.806.35.286.949.286m4.948 1.092v-1.482h2.496v-4.199h-2.171v-1.469h3.731v5.668h2.21V165zm3.146-8.346q-.495 0-.78-.247-.286-.26-.286-.689t.286-.676q.285-.26.78-.26.494 0 .78.26.286.247.286.676t-.286.689q-.286.247-.78.247m4.466 8.346v-7.15h1.586v1.365h.442l-.442.377q0-.884.507-1.378.52-.494 1.417-.494 1.053 0 1.677.702.637.702.637 1.885V165h-1.625v-4.524q0-.65-.338-1.001-.337-.351-.949-.351-.598 0-.949.364-.338.364-.338 1.04V165zm10.512.13q-.91 0-1.586-.351a2.6 2.6 0 0 1-1.053-.975q-.363-.638-.364-1.482v-1.794q0-.845.364-1.469a2.6 2.6 0 0 1 1.053-.988q.677-.351 1.586-.351.897 0 1.56.351.677.35 1.04.988.377.624.377 1.469v1.287h-4.407v.507q0 .754.364 1.144.365.377 1.079.377.546 0 .884-.182a.86.86 0 0 0 .429-.559h1.599q-.181.923-.988 1.482-.792.546-1.937.546m1.404-4.225v-.39q0-.741-.351-1.131-.351-.403-1.053-.403t-1.066.403q-.363.403-.364 1.144v.273l2.951-.026zM232.42 165v-7.15h1.534v1.365h.403l-.481.832q0-1.157.52-1.742t1.534-.585q1.157 0 1.82.715t.663 1.976v.52h-1.703v-.403q0-.689-.364-1.066-.351-.377-.975-.377-.636 0-.988.377-.338.377-.338 1.066V165zm12.683 1.56q-1.975-.52-3.055-1.833-1.079-1.326-1.079-3.224v-2.353q0-1.248.494-2.262a4.96 4.96 0 0 1 1.43-1.742q.936-.728 2.21-1.066v1.599a3.2 3.2 0 0 0-1.339.663 3.2 3.2 0 0 0-.858 1.196 4.2 4.2 0 0 0-.299 1.612v2.353q0 .871.299 1.586.3.702.858 1.183.573.468 1.339.65z"/></g><g filter="url(#d)"><rect width="111" height="20" x="117" y="184" fill="#1A1B1D" fill-opacity=".48" rx="6"/><rect width="110" height="19" x="117.5" y="184.5" stroke="#27282B" rx="5.5"/><path fill="#9A9CAC" d="M126.939 199.13q-.91 0-1.599-.338a2.6 2.6 0 0 1-1.053-.975q-.377-.637-.377-1.495v-1.794q0-.871.377-1.495a2.5 2.5 0 0 1 1.053-.962q.689-.351 1.599-.351 1.352 0 2.158.702.806.689.845 1.885h-1.625q-.039-.56-.403-.858-.351-.312-.975-.312-.65 0-1.027.364-.377.351-.377 1.014v1.807q0 .663.377 1.027t1.027.364q.624 0 .975-.299.364-.312.403-.871h1.625q-.04 1.196-.845 1.898-.806.689-2.158.689m7.561-.013q-.91 0-1.586-.338a2.6 2.6 0 0 1-1.04-.975q-.364-.637-.364-1.495v-1.768q0-.858.364-1.482.377-.638 1.04-.975.676-.351 1.586-.351.923 0 1.586.351.663.338 1.027.975.377.624.377 1.469v1.781q0 .858-.377 1.495a2.54 2.54 0 0 1-1.027.975q-.663.338-1.586.338m0-1.417q.65 0 1.001-.351.364-.364.364-1.04v-1.768q0-.689-.364-1.04-.351-.351-1.001-.351-.637 0-1.001.351t-.364 1.04v1.768q0 .676.364 1.04.364.351 1.001.351m4.376 1.3v-7.15h1.326v.962h.273l-.221.234q0-.598.338-.962t.871-.364q.572 0 .884.468.325.468.325 1.261l-.286-.637h.442l-.169.234q0-.598.338-.962t.897-.364q.663 0 1.053.494t.39 1.339V199h-1.43v-5.382q0-.351-.156-.546-.156-.208-.455-.208a.57.57 0 0 0-.455.195q-.156.195-.156.559V199h-1.17v-5.382q0-.364-.156-.559t-.455-.195-.455.195q-.143.195-.143.559V199zm7.925 2.34v-9.49h1.586v1.365h.364l-.364.377q0-.871.52-1.365.519-.507 1.404-.507 1.078 0 1.729.741.65.741.65 1.989v1.937q0 .832-.299 1.456a2.2 2.2 0 0 1-.819.949q-.534.338-1.261.338-.885 0-1.404-.494-.52-.507-.52-1.378l.364.377h-.377l.052 1.703v2.002zm2.938-3.614q.624 0 .975-.364t.351-1.04v-1.794q0-.676-.351-1.04t-.975-.364q-.612 0-.962.377-.351.364-.351 1.027v1.794q0 .663.351 1.04.35.364.962.364m7.561 1.391q-.91 0-1.586-.338a2.6 2.6 0 0 1-1.04-.975q-.364-.637-.364-1.495v-1.768q0-.858.364-1.482.377-.638 1.04-.975.675-.351 1.586-.351.923 0 1.586.351.663.338 1.027.975.377.624.377 1.469v1.781q0 .858-.377 1.495a2.54 2.54 0 0 1-1.027.975q-.663.338-1.586.338m0-1.417q.65 0 1.001-.351.363-.364.364-1.04v-1.768q0-.689-.364-1.04-.351-.351-1.001-.351-.638 0-1.001.351-.364.351-.364 1.04v1.768q0 .676.364 1.04.363.351 1.001.351m4.701 1.3v-7.15h1.586v1.365h.442l-.442.377q0-.884.507-1.378.52-.494 1.417-.494 1.053 0 1.677.702.637.702.637 1.885V199H166.2v-4.524q0-.65-.338-1.001-.339-.351-.949-.351-.598 0-.949.364-.338.364-.338 1.04V199zm10.512.13q-.91 0-1.586-.351a2.6 2.6 0 0 1-1.053-.975q-.364-.638-.364-1.482v-1.794q0-.845.364-1.469a2.57 2.57 0 0 1 1.053-.988q.675-.351 1.586-.351.897 0 1.56.351.675.35 1.04.988.377.624.377 1.469v1.287h-4.407v.507q0 .754.364 1.144.363.377 1.079.377.546 0 .884-.182a.87.87 0 0 0 .429-.559h1.599q-.183.923-.988 1.482-.794.546-1.937.546m1.404-4.225v-.39q0-.741-.351-1.131-.351-.403-1.053-.403-.703 0-1.066.403t-.364 1.144v.273l2.951-.026zM177.2 199v-7.15h1.586v1.365h.442l-.442.377q0-.884.507-1.378.52-.494 1.417-.494 1.053 0 1.677.702.637.702.637 1.885V199h-1.625v-4.524q0-.65-.338-1.001-.337-.351-.949-.351-.597 0-.949.364-.338.364-.338 1.04V199zm11.279 0q-1.027 0-1.612-.572-.572-.572-.572-1.573v-3.536h-1.937v-1.469h1.937v-2.015h1.638v2.015h2.743v1.469h-2.743v3.536q0 .676.663.676h1.95V199zm4.012 0v-1.43h2.47v-6.617l-2.483 1.846v-1.716l2.184-1.573h1.924v8.06h1.989V199zm12.813 1.56q-1.975-.52-3.055-1.833-1.079-1.326-1.079-3.224v-2.353q0-1.248.494-2.262a4.96 4.96 0 0 1 1.43-1.742q.936-.728 2.21-1.066v1.599a3.2 3.2 0 0 0-1.339.663 3.2 3.2 0 0 0-.858 1.196 4.2 4.2 0 0 0-.299 1.612v2.353q0 .871.299 1.586.3.702.858 1.183.573.468 1.339.65zm2.79 0v-1.638q.78-.182 1.339-.65.56-.481.858-1.183a4.1 4.1 0 0 0 .299-1.586v-2.353q0-.897-.299-1.612a3.15 3.15 0 0 0-.858-1.196 3.1 3.1 0 0 0-1.339-.663v-1.599q1.287.338 2.21 1.066a4.8 4.8 0 0 1 1.417 1.742q.507 1.014.507 2.262v2.353q0 1.898-1.079 3.224-1.079 1.313-3.055 1.833m8.055.52 1.04-4.043h2.08l-1.69 4.043z"/></g><g filter="url(#e)"><rect width="111" height="20" x="117" y="210" fill="#1A1B1D" fill-opacity=".48" rx="6"/><rect width="110" height="19" x="117.5" y="210.5" stroke="#27282B" rx="5.5"/><path fill="#9A9CAC" d="M126.939 225.13q-.91 0-1.599-.338a2.6 2.6 0 0 1-1.053-.975q-.377-.637-.377-1.495v-1.794q0-.871.377-1.495a2.5 2.5 0 0 1 1.053-.962q.689-.351 1.599-.351 1.352 0 2.158.702.806.689.845 1.885h-1.625q-.039-.56-.403-.858-.351-.312-.975-.312-.65 0-1.027.364-.377.351-.377 1.014v1.807q0 .663.377 1.027t1.027.364q.624 0 .975-.299.364-.312.403-.871h1.625q-.04 1.196-.845 1.898-.806.689-2.158.689m7.561-.013q-.91 0-1.586-.338a2.6 2.6 0 0 1-1.04-.975q-.364-.637-.364-1.495v-1.768q0-.858.364-1.482.377-.638 1.04-.975.676-.351 1.586-.351.923 0 1.586.351.663.338 1.027.975.377.624.377 1.469v1.781q0 .858-.377 1.495a2.54 2.54 0 0 1-1.027.975q-.663.338-1.586.338m0-1.417q.65 0 1.001-.351.364-.364.364-1.04v-1.768q0-.689-.364-1.04-.351-.351-1.001-.351-.637 0-1.001.351t-.364 1.04v1.768q0 .676.364 1.04.364.351 1.001.351m4.376 1.3v-7.15h1.326v.962h.273l-.221.234q0-.598.338-.962t.871-.364q.572 0 .884.468.325.468.325 1.261l-.286-.637h.442l-.169.234q0-.598.338-.962t.897-.364q.663 0 1.053.494t.39 1.339V225h-1.43v-5.382q0-.351-.156-.546-.156-.208-.455-.208a.57.57 0 0 0-.455.195q-.156.195-.156.559V225h-1.17v-5.382q0-.364-.156-.559t-.455-.195-.455.195q-.143.195-.143.559V225zm7.925 2.34v-9.49h1.586v1.365h.364l-.364.377q0-.871.52-1.365.519-.507 1.404-.507 1.078 0 1.729.741.65.741.65 1.989v1.937q0 .832-.299 1.456a2.2 2.2 0 0 1-.819.949q-.534.338-1.261.338-.885 0-1.404-.494-.52-.507-.52-1.378l.364.377h-.377l.052 1.703v2.002zm2.938-3.614q.624 0 .975-.364t.351-1.04v-1.794q0-.676-.351-1.04t-.975-.364q-.612 0-.962.377-.351.364-.351 1.027v1.794q0 .663.351 1.04.35.364.962.364m7.561 1.391q-.91 0-1.586-.338a2.6 2.6 0 0 1-1.04-.975q-.364-.637-.364-1.495v-1.768q0-.858.364-1.482.377-.638 1.04-.975.675-.351 1.586-.351.923 0 1.586.351.663.338 1.027.975.377.624.377 1.469v1.781q0 .858-.377 1.495a2.54 2.54 0 0 1-1.027.975q-.663.338-1.586.338m0-1.417q.65 0 1.001-.351.363-.364.364-1.04v-1.768q0-.689-.364-1.04-.351-.351-1.001-.351-.638 0-1.001.351-.364.351-.364 1.04v1.768q0 .676.364 1.04.363.351 1.001.351m4.701 1.3v-7.15h1.586v1.365h.442l-.442.377q0-.884.507-1.378.52-.494 1.417-.494 1.053 0 1.677.702.637.702.637 1.885V225H166.2v-4.524q0-.65-.338-1.001-.339-.351-.949-.351-.598 0-.949.364-.338.364-.338 1.04V225zm10.512.13q-.91 0-1.586-.351a2.6 2.6 0 0 1-1.053-.975q-.364-.638-.364-1.482v-1.794q0-.845.364-1.469a2.57 2.57 0 0 1 1.053-.988q.675-.351 1.586-.351.897 0 1.56.351.675.35 1.04.988.377.624.377 1.469v1.287h-4.407v.507q0 .754.364 1.144.363.377 1.079.377.546 0 .884-.182a.87.87 0 0 0 .429-.559h1.599q-.183.923-.988 1.482-.794.546-1.937.546m1.404-4.225v-.39q0-.741-.351-1.131-.351-.403-1.053-.403-.703 0-1.066.403t-.364 1.144v.273l2.951-.026zM177.2 225v-7.15h1.586v1.365h.442l-.442.377q0-.884.507-1.378.52-.494 1.417-.494 1.053 0 1.677.702.637.702.637 1.885V225h-1.625v-4.524q0-.65-.338-1.001-.337-.351-.949-.351-.597 0-.949.364-.338.364-.338 1.04V225zm11.279 0q-1.027 0-1.612-.572-.572-.572-.572-1.573v-3.536h-1.937v-1.469h1.937v-2.015h1.638v2.015h2.743v1.469h-2.743v3.536q0 .676.663.676h1.95V225zm3.947 0v-1.573l2.964-2.977q.624-.637.923-1.144.3-.52.299-1.066 0-.663-.364-1.027-.363-.377-.988-.377-.689 0-1.079.403-.39.39-.39 1.092h-1.625q.013-.91.39-1.56a2.66 2.66 0 0 1 1.092-1.027q.702-.364 1.638-.364.897 0 1.56.338a2.47 2.47 0 0 1 1.027.949q.364.611.364 1.456 0 .871-.455 1.703-.441.819-1.43 1.768l-1.976 1.937h3.978V225zm12.878 1.56q-1.975-.52-3.055-1.833-1.079-1.326-1.079-3.224v-2.353q0-1.248.494-2.262a4.96 4.96 0 0 1 1.43-1.742q.936-.728 2.21-1.066v1.599a3.2 3.2 0 0 0-1.339.663 3.2 3.2 0 0 0-.858 1.196 4.2 4.2 0 0 0-.299 1.612v2.353q0 .871.299 1.586.3.702.858 1.183.573.468 1.339.65zm2.79 0v-1.638q.78-.182 1.339-.65.56-.481.858-1.183a4.1 4.1 0 0 0 .299-1.586v-2.353q0-.897-.299-1.612a3.15 3.15 0 0 0-.858-1.196 3.1 3.1 0 0 0-1.339-.663v-1.599q1.287.338 2.21 1.066a4.8 4.8 0 0 1 1.417 1.742q.507 1.014.507 2.262v2.353q0 1.898-1.079 3.224-1.079 1.313-3.055 1.833m8.055.52 1.04-4.043h2.08l-1.69 4.043z"/></g><g filter="url(#f)"><rect width="111" height="20" x="117" y="236" fill="#1A1B1D" fill-opacity=".48" rx="6"/><rect width="110" height="19" x="117.5" y="236.5" stroke="#27282B" rx="5.5"/><path fill="#9A9CAC" d="M126.939 251.13q-.91 0-1.599-.338a2.6 2.6 0 0 1-1.053-.975q-.377-.637-.377-1.495v-1.794q0-.871.377-1.495a2.5 2.5 0 0 1 1.053-.962q.689-.351 1.599-.351 1.352 0 2.158.702.806.689.845 1.885h-1.625q-.039-.56-.403-.858-.351-.312-.975-.312-.65 0-1.027.364-.377.351-.377 1.014v1.807q0 .663.377 1.027t1.027.364q.624 0 .975-.299.364-.312.403-.871h1.625q-.04 1.196-.845 1.898-.806.689-2.158.689m7.561-.013q-.91 0-1.586-.338a2.6 2.6 0 0 1-1.04-.975q-.364-.637-.364-1.495v-1.768q0-.858.364-1.482.377-.638 1.04-.975.676-.351 1.586-.351.923 0 1.586.351.663.338 1.027.975.377.624.377 1.469v1.781q0 .858-.377 1.495a2.54 2.54 0 0 1-1.027.975q-.663.338-1.586.338m0-1.417q.65 0 1.001-.351.364-.364.364-1.04v-1.768q0-.689-.364-1.04-.351-.351-1.001-.351-.637 0-1.001.351t-.364 1.04v1.768q0 .676.364 1.04.364.351 1.001.351m4.376 1.3v-7.15h1.326v.962h.273l-.221.234q0-.598.338-.962t.871-.364q.572 0 .884.468.325.468.325 1.261l-.286-.637h.442l-.169.234q0-.598.338-.962t.897-.364q.663 0 1.053.494t.39 1.339V251h-1.43v-5.382q0-.351-.156-.546-.156-.208-.455-.208a.57.57 0 0 0-.455.195q-.156.195-.156.559V251h-1.17v-5.382q0-.364-.156-.559t-.455-.195-.455.195q-.143.195-.143.559V251zm7.925 2.34v-9.49h1.586v1.365h.364l-.364.377q0-.871.52-1.365.519-.507 1.404-.507 1.078 0 1.729.741.65.741.65 1.989v1.937q0 .832-.299 1.456a2.2 2.2 0 0 1-.819.949q-.534.338-1.261.338-.885 0-1.404-.494-.52-.507-.52-1.378l.364.377h-.377l.052 1.703v2.002zm2.938-3.614q.624 0 .975-.364t.351-1.04v-1.794q0-.676-.351-1.04t-.975-.364q-.612 0-.962.377-.351.364-.351 1.027v1.794q0 .663.351 1.04.35.364.962.364m7.561 1.391q-.91 0-1.586-.338a2.6 2.6 0 0 1-1.04-.975q-.364-.637-.364-1.495v-1.768q0-.858.364-1.482.377-.638 1.04-.975.675-.351 1.586-.351.923 0 1.586.351.663.338 1.027.975.377.624.377 1.469v1.781q0 .858-.377 1.495a2.54 2.54 0 0 1-1.027.975q-.663.338-1.586.338m0-1.417q.65 0 1.001-.351.363-.364.364-1.04v-1.768q0-.689-.364-1.04-.351-.351-1.001-.351-.638 0-1.001.351-.364.351-.364 1.04v1.768q0 .676.364 1.04.363.351 1.001.351m4.701 1.3v-7.15h1.586v1.365h.442l-.442.377q0-.884.507-1.378.52-.494 1.417-.494 1.053 0 1.677.702.637.702.637 1.885V251H166.2v-4.524q0-.65-.338-1.001-.339-.351-.949-.351-.598 0-.949.364-.338.364-.338 1.04V251zm10.512.13q-.91 0-1.586-.351a2.6 2.6 0 0 1-1.053-.975q-.364-.638-.364-1.482v-1.794q0-.845.364-1.469a2.57 2.57 0 0 1 1.053-.988q.675-.351 1.586-.351.897 0 1.56.351.675.35 1.04.988.377.624.377 1.469v1.287h-4.407v.507q0 .754.364 1.144.363.377 1.079.377.546 0 .884-.182a.87.87 0 0 0 .429-.559h1.599q-.183.923-.988 1.482-.794.546-1.937.546m1.404-4.225v-.39q0-.741-.351-1.131-.351-.403-1.053-.403-.703 0-1.066.403t-.364 1.144v.273l2.951-.026zM177.2 251v-7.15h1.586v1.365h.442l-.442.377q0-.884.507-1.378.52-.494 1.417-.494 1.053 0 1.677.702.637.702.637 1.885V251h-1.625v-4.524q0-.65-.338-1.001-.337-.351-.949-.351-.597 0-.949.364-.338.364-.338 1.04V251zm11.279 0q-1.027 0-1.612-.572-.572-.572-.572-1.573v-3.536h-1.937v-1.469h1.937v-2.015h1.638v2.015h2.743v1.469h-2.743v3.536q0 .676.663.676h1.95V251zm6.729.13q-.922 0-1.612-.338a2.55 2.55 0 0 1-1.053-.949q-.377-.61-.377-1.443h1.638q0 .637.364 1.001.378.351 1.053.351.677 0 1.04-.364.364-.364.364-.988v-.741q0-.637-.364-.988-.363-.364-1.04-.364h-1.066v-1.469l2.093-1.937h-3.653v-1.391h5.304v1.469l-2.678 2.457v-.52q1.404 0 2.223.741.819.74.819 2.002v.741q0 .833-.377 1.443a2.5 2.5 0 0 1-1.066.949q-.688.338-1.612.338m10.096 1.43q-1.975-.52-3.055-1.833-1.079-1.326-1.079-3.224v-2.353q0-1.248.494-2.262a4.96 4.96 0 0 1 1.43-1.742q.936-.728 2.21-1.066v1.599a3.2 3.2 0 0 0-1.339.663 3.2 3.2 0 0 0-.858 1.196 4.2 4.2 0 0 0-.299 1.612v2.353q0 .871.299 1.586.3.702.858 1.183.573.468 1.339.65zm2.79 0v-1.638q.78-.182 1.339-.65.56-.481.858-1.183a4.1 4.1 0 0 0 .299-1.586v-2.353q0-.897-.299-1.612a3.15 3.15 0 0 0-.858-1.196 3.1 3.1 0 0 0-1.339-.663v-1.599q1.287.338 2.21 1.066a4.8 4.8 0 0 1 1.417 1.742q.507 1.014.507 2.262v2.353q0 1.898-1.079 3.224-1.079 1.313-3.055 1.833m8.055.52 1.04-4.043h2.08l-1.69 4.043z"/></g><g filter="url(#g)"><rect width="111" height="20" x="117" y="262" fill="#1A1B1D" fill-opacity=".48" rx="6"/><rect width="110" height="19" x="117.5" y="262.5" stroke="#27282B" rx="5.5"/><path fill="#9A9CAC" d="M126.939 277.13q-.91 0-1.599-.338a2.6 2.6 0 0 1-1.053-.975q-.377-.637-.377-1.495v-1.794q0-.871.377-1.495a2.5 2.5 0 0 1 1.053-.962q.689-.351 1.599-.351 1.352 0 2.158.702.806.689.845 1.885h-1.625q-.039-.56-.403-.858-.351-.312-.975-.312-.65 0-1.027.364-.377.351-.377 1.014v1.807q0 .663.377 1.027t1.027.364q.624 0 .975-.299.364-.312.403-.871h1.625q-.04 1.196-.845 1.898-.806.689-2.158.689m7.561-.013q-.91 0-1.586-.338a2.6 2.6 0 0 1-1.04-.975q-.364-.637-.364-1.495v-1.768q0-.858.364-1.482.377-.637 1.04-.975.676-.351 1.586-.351.923 0 1.586.351.663.338 1.027.975.377.624.377 1.469v1.781q0 .858-.377 1.495a2.54 2.54 0 0 1-1.027.975q-.663.338-1.586.338m0-1.417q.65 0 1.001-.351.364-.364.364-1.04v-1.768q0-.689-.364-1.04-.351-.351-1.001-.351-.637 0-1.001.351t-.364 1.04v1.768q0 .676.364 1.04.364.351 1.001.351m4.376 1.3v-7.15h1.326v.962h.273l-.221.234q0-.598.338-.962t.871-.364q.572 0 .884.468.325.468.325 1.261l-.286-.637h.442l-.169.234q0-.598.338-.962t.897-.364q.663 0 1.053.494t.39 1.339V277h-1.43v-5.382q0-.351-.156-.546-.156-.208-.455-.208a.57.57 0 0 0-.455.195q-.156.195-.156.559V277h-1.17v-5.382q0-.364-.156-.559t-.455-.195-.455.195q-.143.195-.143.559V277zm7.925 2.34v-9.49h1.586v1.365h.364l-.364.377q0-.872.52-1.365.519-.507 1.404-.507 1.078 0 1.729.741.65.741.65 1.989v1.937q0 .832-.299 1.456a2.2 2.2 0 0 1-.819.949q-.534.338-1.261.338-.885 0-1.404-.494-.52-.507-.52-1.378l.364.377h-.377l.052 1.703v2.002zm2.938-3.614q.624 0 .975-.364t.351-1.04v-1.794q0-.676-.351-1.04t-.975-.364q-.612 0-.962.377-.351.364-.351 1.027v1.794q0 .663.351 1.04.35.364.962.364m7.561 1.391q-.91 0-1.586-.338a2.6 2.6 0 0 1-1.04-.975q-.364-.637-.364-1.495v-1.768q0-.858.364-1.482.377-.637 1.04-.975.675-.351 1.586-.351.923 0 1.586.351.663.338 1.027.975.377.624.377 1.469v1.781q0 .858-.377 1.495a2.54 2.54 0 0 1-1.027.975q-.663.338-1.586.338m0-1.417q.65 0 1.001-.351.363-.364.364-1.04v-1.768q0-.689-.364-1.04-.351-.351-1.001-.351-.638 0-1.001.351-.364.351-.364 1.04v1.768q0 .676.364 1.04.363.351 1.001.351m4.701 1.3v-7.15h1.586v1.365h.442l-.442.377q0-.884.507-1.378.52-.494 1.417-.494 1.053 0 1.677.702.637.702.637 1.885V277H166.2v-4.524q0-.65-.338-1.001-.339-.351-.949-.351-.598 0-.949.364-.338.364-.338 1.04V277zm10.512.13q-.91 0-1.586-.351a2.6 2.6 0 0 1-1.053-.975q-.364-.637-.364-1.482v-1.794q0-.845.364-1.469a2.57 2.57 0 0 1 1.053-.988q.675-.351 1.586-.351.897 0 1.56.351.675.35 1.04.988.377.624.377 1.469v1.287h-4.407v.507q0 .754.364 1.144.363.377 1.079.377.546 0 .884-.182a.87.87 0 0 0 .429-.559h1.599q-.183.922-.988 1.482-.794.546-1.937.546m1.404-4.225v-.39q0-.741-.351-1.131-.351-.403-1.053-.403-.703 0-1.066.403t-.364 1.144v.273l2.951-.026zM177.2 277v-7.15h1.586v1.365h.442l-.442.377q0-.884.507-1.378.52-.494 1.417-.494 1.053 0 1.677.702.637.702.637 1.885V277h-1.625v-4.524q0-.65-.338-1.001-.337-.351-.949-.351-.597 0-.949.364-.338.364-.338 1.04V277zm11.279 0q-1.027 0-1.612-.572-.572-.572-.572-1.573v-3.536h-1.937v-1.469h1.937v-2.015h1.638v2.015h2.743v1.469h-2.743v3.536q0 .676.663.676h1.95V277zm7.99 0v-1.885h-4.225v-2.353l3.653-5.252h1.82l-3.913 5.681v.494h2.665v-2.145h1.625V277zm8.835 1.56q-1.975-.52-3.055-1.833-1.079-1.326-1.079-3.224v-2.353q0-1.248.494-2.262a4.96 4.96 0 0 1 1.43-1.742q.936-.728 2.21-1.066v1.599a3.2 3.2 0 0 0-1.339.663 3.2 3.2 0 0 0-.858 1.196 4.2 4.2 0 0 0-.299 1.612v2.353q0 .871.299 1.586.3.702.858 1.183.573.468 1.339.65zm2.79 0v-1.638q.78-.182 1.339-.65.56-.481.858-1.183a4.1 4.1 0 0 0 .299-1.586v-2.353q0-.897-.299-1.612a3.15 3.15 0 0 0-.858-1.196 3.1 3.1 0 0 0-1.339-.663v-1.599q1.287.338 2.21 1.066a4.8 4.8 0 0 1 1.417 1.742q.507 1.014.507 2.262v2.353q0 1.898-1.079 3.224-1.079 1.313-3.055 1.833m8.055.52 1.04-4.043h2.08l-1.69 4.043z"/></g><g filter="url(#h)"><rect width="335" height="88" x="315" y="80" fill="#1A1B1D" fill-opacity=".48" rx="10"/><rect width="334" height="87" x="315.5" y="80.5" stroke="#27282B" rx="9.5"/><path fill="#6E7287" d="M342.289 117.13q-1.066 0-1.729-.741-.65-.741-.65-1.989v-1.937q0-1.261.65-2.002t1.729-.741q.884 0 1.404.507.52.494.52 1.365l-.364-.377h.377l-.052-1.703v-2.002h1.625V117h-1.586v-1.365h-.364l.364-.377q0 .871-.52 1.378-.52.494-1.404.494m.572-1.404q.624 0 .962-.364.351-.377.351-1.04v-1.794q0-.663-.351-1.027-.338-.377-.962-.377t-.975.364-.351 1.04v1.794q0 .676.351 1.04t.975.364m7.652 1.404q-.91 0-1.586-.351a2.6 2.6 0 0 1-1.053-.975q-.364-.637-.364-1.482v-1.794q0-.845.364-1.469a2.57 2.57 0 0 1 1.053-.988q.676-.351 1.586-.351.897 0 1.56.351.676.35 1.04.988.377.624.377 1.469v1.287h-4.407v.507q0 .754.364 1.144.364.377 1.079.377.546 0 .884-.182a.87.87 0 0 0 .429-.559h1.599q-.182.922-.988 1.482-.793.546-1.937.546m1.404-4.225v-.39q0-.741-.351-1.131-.351-.403-1.053-.403t-1.066.403-.364 1.144v.273l2.951-.026zm4.948 4.095v-4.888h-1.963v-1.469h1.963v-1.079q0-.936.624-1.495.624-.56 1.651-.559h2.093v1.43h-2.054a.72.72 0 0 0-.507.182q-.182.17-.182.468v1.053h2.743v1.469h-2.743V117zm13.757 24v-7.15h1.534v1.365h.403l-.481.832q0-1.157.52-1.742t1.534-.585q1.157 0 1.82.715t.663 1.976v.52h-1.703v-.403q0-.689-.364-1.066-.351-.377-.975-.377-.637 0-.988.377-.339.377-.338 1.066V141zm10.291.13q-.91 0-1.586-.351a2.6 2.6 0 0 1-1.053-.975q-.364-.638-.364-1.482v-1.794q0-.845.364-1.469a2.57 2.57 0 0 1 1.053-.988q.675-.351 1.586-.351.897 0 1.56.351.675.35 1.04.988.377.624.377 1.469v1.287h-4.407v.507q0 .754.364 1.144.363.377 1.079.377.546 0 .884-.182a.87.87 0 0 0 .429-.559h1.599q-.183.923-.988 1.482-.794.546-1.937.546m1.404-4.225v-.39q0-.741-.351-1.131-.351-.403-1.053-.403t-1.066.403-.364 1.144v.273l2.951-.026zM389.28 141q-1.027 0-1.612-.572-.572-.572-.572-1.573v-3.536h-1.937v-1.469h1.937v-2.015h1.638v2.015h2.743v1.469h-2.743v3.536q0 .676.663.676h1.95V141zm6.819.13q-1.365 0-2.145-.754-.78-.767-.78-2.08v-4.446h1.625v4.433q0 .689.338 1.066.339.364.962.364.612 0 .949-.364.351-.377.351-1.066v-4.433h1.625v4.446q0 1.313-.793 2.08-.792.754-2.132.754m4.922-.13v-7.15h1.534v1.365h.403l-.481.832q0-1.157.52-1.742t1.534-.585q1.157 0 1.82.715t.663 1.976v.52h-1.703v-.403q0-.689-.364-1.066-.351-.377-.975-.377-.636 0-.988.377-.338.377-.338 1.066V141zm7.379 0v-7.15h1.586v1.365h.442l-.442.377q0-.884.507-1.378.52-.494 1.417-.494 1.053 0 1.677.702.637.702.637 1.885V141h-1.625v-4.524q0-.65-.338-1.001-.337-.351-.949-.351-.597 0-.949.364-.338.364-.338 1.04V141zm15.421 0v-7.15h1.534v1.365h.403l-.481.832q0-1.157.52-1.742t1.534-.585q1.157 0 1.82.715t.663 1.976v.52h-1.703v-.403q0-.689-.364-1.066-.351-.377-.975-.377-.637 0-.988.377-.338.377-.338 1.066V141zm6.846 0 2.496-3.692-2.327-3.458h1.833l1.105 1.755q.104.156.182.351.091.195.143.312.052-.117.143-.312t.182-.351l1.118-1.755h1.833l-2.327 3.458 2.483 3.692h-1.846l-1.235-1.963a4 4 0 0 1-.195-.364 6 6 0 0 0-.156-.312q-.052.117-.143.312a4 4 0 0 1-.195.364L432.5 141zm11.032.13q-.56 0-.897-.325-.325-.325-.325-.884t.325-.884q.337-.338.897-.338.559 0 .884.338.338.325.338.884t-.338.884q-.325.325-.884.325m8.211 0q-.884 0-1.404-.494-.52-.507-.52-1.378l.364.377h-.364V141H446.4v-9.49h1.625v2.002l-.052 1.703h.377l-.364.377q0-.871.52-1.365.52-.507 1.404-.507 1.079 0 1.729.741.65.74.65 2.002v1.937q0 1.248-.65 1.989t-1.729.741m-.572-1.404q.624 0 .975-.364t.351-1.04v-1.794q0-.676-.351-1.04t-.975-.364q-.61 0-.962.377-.351.364-.351 1.027v1.794q0 .663.351 1.04.351.364.962.364m7.561 1.404q-1.365 0-2.145-.754-.78-.767-.78-2.08v-4.446h1.625v4.433q0 .689.338 1.066.338.364.962.364.61 0 .949-.364.351-.377.351-1.066v-4.433h1.625v4.446q0 1.313-.793 2.08-.794.754-2.132.754m8.38-.13q-1.027 0-1.612-.572-.572-.572-.572-1.573v-3.536h-1.937v-1.469h1.937v-2.015h1.638v2.015h2.743v1.469h-2.743v3.536q0 .676.663.676h1.95V141zm7.6 0q-1.027 0-1.612-.572-.572-.572-.572-1.573v-3.536h-1.937v-1.469h1.937v-2.015h1.638v2.015h2.743v1.469h-2.743v3.536q0 .676.663.676h1.95V141zm6.82.117q-.91 0-1.586-.338a2.6 2.6 0 0 1-1.04-.975q-.364-.637-.364-1.495v-1.768q0-.858.364-1.482.377-.638 1.04-.975.675-.351 1.586-.351.923 0 1.586.351.663.338 1.027.975.377.624.377 1.469v1.781q0 .858-.377 1.495a2.54 2.54 0 0 1-1.027.975q-.663.338-1.586.338m0-1.417q.65 0 1.001-.351.363-.364.364-1.04v-1.768q0-.689-.364-1.04-.351-.351-1.001-.351-.638 0-1.001.351-.364.351-.364 1.04v1.768q0 .676.364 1.04.363.351 1.001.351m4.701 1.3v-7.15h1.586v1.365h.442l-.442.377q0-.884.507-1.378.52-.494 1.417-.494 1.053 0 1.677.702.637.702.637 1.885V141h-1.625v-4.524q0-.65-.338-1.001-.339-.351-.949-.351-.598 0-.949.364-.339.364-.338 1.04V141zm12.903 1.56q-1.975-.52-3.055-1.833-1.079-1.326-1.079-3.224v-2.353q0-1.248.494-2.262a4.96 4.96 0 0 1 1.43-1.742q.936-.728 2.21-1.066v1.599a3.2 3.2 0 0 0-1.339.663 3.2 3.2 0 0 0-.858 1.196 4.2 4.2 0 0 0-.299 1.612v2.353q0 .871.299 1.586.3.702.858 1.183.573.468 1.339.65zm5.952-1.43q-.558 0-.884-.325-.338-.325-.338-.884t.338-.884q.326-.338.884-.338.56 0 .897.338.325.325.325.884t-.325.884q-.338.325-.897.325m6.643 0q-.558 0-.884-.325-.338-.325-.338-.884t.338-.884q.326-.338.884-.338.56 0 .897.338.325.325.325.884t-.325.884q-.338.325-.897.325m6.656 0q-.558 0-.897-.325-.324-.325-.325-.884 0-.559.325-.884.339-.338.897-.338.56 0 .884.338.339.325.338.884 0 .559-.338.884-.324.325-.884.325m6.339 1.43v-1.638q.78-.182 1.339-.65.56-.481.858-1.183a4.1 4.1 0 0 0 .299-1.586v-2.353q0-.897-.299-1.612a3.15 3.15 0 0 0-.858-1.196 3.1 3.1 0 0 0-1.339-.663v-1.599q1.287.338 2.21 1.066a4.8 4.8 0 0 1 1.417 1.742q.507 1.014.507 2.262v2.353q0 1.898-1.079 3.224-1.079 1.313-3.055 1.833"/></g><g filter="url(#i)"><rect width="377" height="88" x="291" y="192" fill="#1A1B1D" fill-opacity=".48" rx="10"/><rect width="376" height="87" x="291.5" y="192.5" stroke="#27282B" rx="9.5"/><path fill="#6E7287" d="M318.289 229.13q-1.066 0-1.729-.741-.65-.741-.65-1.989v-1.937q0-1.261.65-2.002t1.729-.741q.884 0 1.404.507.52.494.52 1.365l-.364-.377h.377l-.052-1.703v-2.002h1.625V229h-1.586v-1.365h-.364l.364-.377q0 .871-.52 1.378-.52.494-1.404.494m.572-1.404q.624 0 .962-.364.351-.377.351-1.04v-1.794q0-.663-.351-1.027-.338-.377-.962-.377t-.975.364-.351 1.04v1.794q0 .676.351 1.04t.975.364m7.652 1.404q-.91 0-1.586-.351a2.6 2.6 0 0 1-1.053-.975q-.364-.638-.364-1.482v-1.794q0-.845.364-1.469a2.57 2.57 0 0 1 1.053-.988q.676-.351 1.586-.351.897 0 1.56.351.676.35 1.04.988.377.624.377 1.469v1.287h-4.407v.507q0 .754.364 1.144.364.377 1.079.377.546 0 .884-.182a.87.87 0 0 0 .429-.559h1.599q-.182.923-.988 1.482-.793.546-1.937.546m1.404-4.225v-.39q0-.741-.351-1.131-.351-.403-1.053-.403t-1.066.403-.364 1.144v.273l2.951-.026zm4.948 4.095v-4.888h-1.963v-1.469h1.963v-1.079q0-.936.624-1.495.624-.56 1.651-.559h2.093v1.43h-2.054a.72.72 0 0 0-.507.182q-.182.17-.182.468v1.053h2.743v1.469h-2.743V229zm13.757 24v-7.15h1.534v1.365h.403l-.481.832q0-1.157.52-1.742t1.534-.585q1.157 0 1.82.715t.663 1.976v.52h-1.703v-.403q0-.689-.364-1.066-.351-.377-.975-.377-.637 0-.988.377-.339.377-.338 1.066V253zm10.291.13q-.91 0-1.586-.351a2.6 2.6 0 0 1-1.053-.975q-.364-.638-.364-1.482v-1.794q0-.845.364-1.469a2.57 2.57 0 0 1 1.053-.988q.675-.351 1.586-.351.897 0 1.56.351.675.35 1.04.988.377.624.377 1.469v1.287h-4.407v.507q0 .754.364 1.144.363.377 1.079.377.546 0 .884-.182a.87.87 0 0 0 .429-.559h1.599q-.183.923-.988 1.482-.794.546-1.937.546m1.404-4.225v-.39q0-.741-.351-1.131-.351-.403-1.053-.403t-1.066.403-.364 1.144v.273l2.951-.026zM365.28 253q-1.027 0-1.612-.572-.572-.572-.572-1.573v-3.536h-1.937v-1.469h1.937v-2.015h1.638v2.015h2.743v1.469h-2.743v3.536q0 .676.663.676h1.95V253zm6.819.13q-1.365 0-2.145-.754-.78-.767-.78-2.08v-4.446h1.625v4.433q0 .689.338 1.066.339.364.962.364.612 0 .949-.364.351-.377.351-1.066v-4.433h1.625v4.446q0 1.313-.793 2.08-.792.754-2.132.754m4.922-.13v-7.15h1.534v1.365h.403l-.481.832q0-1.157.52-1.742t1.534-.585q1.157 0 1.82.715t.663 1.976v.52h-1.703v-.403q0-.689-.364-1.066-.351-.377-.975-.377-.636 0-.988.377-.338.377-.338 1.066V253zm7.379 0v-7.15h1.586v1.365h.442l-.442.377q0-.884.507-1.378.52-.494 1.417-.494 1.053 0 1.677.702.637.702.637 1.885V253h-1.625v-4.524q0-.65-.338-1.001-.337-.351-.949-.351-.597 0-.949.364-.338.364-.338 1.04V253zm15.421 0v-7.15h1.534v1.365h.403l-.481.832q0-1.157.52-1.742t1.534-.585q1.157 0 1.82.715t.663 1.976v.52h-1.703v-.403q0-.689-.364-1.066-.351-.377-.975-.377-.637 0-.988.377-.338.377-.338 1.066V253zm6.846 0 2.496-3.692-2.327-3.458h1.833l1.105 1.755q.104.156.182.351.091.195.143.312.052-.117.143-.312t.182-.351l1.118-1.755h1.833l-2.327 3.458 2.483 3.692h-1.846l-1.235-1.963a4 4 0 0 1-.195-.364 6 6 0 0 0-.156-.312q-.052.117-.143.312a4 4 0 0 1-.195.364L408.5 253zm11.032.13q-.56 0-.897-.325-.325-.325-.325-.884t.325-.884q.337-.338.897-.338.559 0 .884.338.338.325.338.884t-.338.884q-.325.325-.884.325m6.365-.13v-4.888h-1.963v-1.469h1.963v-1.079q0-.936.624-1.495.624-.56 1.651-.559h2.093v1.43h-2.054a.72.72 0 0 0-.507.182q-.182.17-.182.468v1.053h2.743v1.469h-2.743V253zm8.835.117q-.91 0-1.586-.338a2.6 2.6 0 0 1-1.04-.975q-.364-.637-.364-1.495v-1.768q0-.858.364-1.482.377-.638 1.04-.975.675-.351 1.586-.351.923 0 1.586.351.663.338 1.027.975.377.624.377 1.469v1.781q0 .858-.377 1.495a2.54 2.54 0 0 1-1.027.975q-.663.338-1.586.338m0-1.417q.65 0 1.001-.351.364-.364.364-1.04v-1.768q0-.689-.364-1.04-.351-.351-1.001-.351-.638 0-1.001.351-.364.351-.364 1.04v1.768q0 .676.364 1.04.363.351 1.001.351m4.922 1.3v-7.15h1.534v1.365h.403l-.481.832q0-1.157.52-1.742t1.534-.585q1.157 0 1.82.715t.663 1.976v.52h-1.703v-.403q0-.689-.364-1.066-.351-.377-.975-.377-.637 0-.988.377-.338.377-.338 1.066V253zm7.054 0v-7.15h1.326v.962h.273l-.221.234q0-.598.338-.962.337-.364.871-.364.572 0 .884.468.325.468.325 1.261l-.286-.637h.442l-.169.234q0-.598.338-.962.337-.364.897-.364.663 0 1.053.494t.39 1.339V253h-1.43v-5.382q0-.351-.156-.546-.156-.208-.455-.208a.57.57 0 0 0-.455.195q-.156.195-.156.559V253h-1.17v-5.382q0-.364-.156-.559t-.455-.195q-.3 0-.455.195-.144.195-.143.559V253zm13.229 1.56q-1.977-.52-3.055-1.833-1.08-1.326-1.079-3.224v-2.353q0-1.248.494-2.262a4.95 4.95 0 0 1 1.43-1.742q.936-.728 2.21-1.066v1.599a3.2 3.2 0 0 0-1.339.663 3.15 3.15 0 0 0-.858 1.196q-.3.715-.299 1.612v2.353q0 .871.299 1.586.299.702.858 1.183.571.468 1.339.65zm5.951-1.43q-.558 0-.884-.325-.338-.325-.338-.884t.338-.884q.326-.338.884-.338.56 0 .897.338.325.325.325.884t-.325.884q-.337.325-.897.325m6.643 0q-.558 0-.884-.325-.338-.325-.338-.884t.338-.884q.326-.338.884-.338.56 0 .897.338.325.325.325.884t-.325.884q-.337.325-.897.325m6.656 0q-.558 0-.897-.325-.325-.325-.325-.884t.325-.884q.339-.338.897-.338.56 0 .884.338.339.325.338.884 0 .559-.338.884-.324.325-.884.325m6.339 1.43v-1.638q.78-.182 1.339-.65.56-.481.858-1.183a4.1 4.1 0 0 0 .299-1.586v-2.353q0-.897-.299-1.612a3.15 3.15 0 0 0-.858-1.196 3.1 3.1 0 0 0-1.339-.663v-1.599q1.287.338 2.21 1.066a4.8 4.8 0 0 1 1.417 1.742q.507 1.014.507 2.262v2.353q0 1.898-1.079 3.224-1.078 1.313-3.055 1.833"/><g filter="url(#j)"><rect width="111" height="20" x="346" y="214" fill="#6E56CF" rx="6"/><path fill="#D4CAFE" d="M355.939 229.13q-.91 0-1.599-.338a2.6 2.6 0 0 1-1.053-.975q-.377-.637-.377-1.495v-1.794q0-.871.377-1.495a2.5 2.5 0 0 1 1.053-.962q.689-.351 1.599-.351 1.352 0 2.158.702.806.689.845 1.885h-1.625q-.039-.56-.403-.858-.351-.312-.975-.312-.65 0-1.027.364-.377.351-.377 1.014v1.807q0 .663.377 1.027t1.027.364q.624 0 .975-.299.364-.312.403-.871h1.625q-.04 1.196-.845 1.898-.806.689-2.158.689m7.561-.013q-.91 0-1.586-.338a2.6 2.6 0 0 1-1.04-.975q-.364-.637-.364-1.495v-1.768q0-.858.364-1.482.377-.638 1.04-.975.676-.351 1.586-.351.923 0 1.586.351.663.338 1.027.975.377.624.377 1.469v1.781q0 .858-.377 1.495a2.54 2.54 0 0 1-1.027.975q-.663.338-1.586.338m0-1.417q.65 0 1.001-.351.364-.364.364-1.04v-1.768q0-.689-.364-1.04-.351-.351-1.001-.351-.637 0-1.001.351t-.364 1.04v1.768q0 .676.364 1.04.364.351 1.001.351m4.376 1.3v-7.15h1.326v.962h.273l-.221.234q0-.598.338-.962t.871-.364q.572 0 .884.468.325.468.325 1.261l-.286-.637h.442l-.169.234q0-.598.338-.962t.897-.364q.663 0 1.053.494t.39 1.339V229h-1.43v-5.382q0-.351-.156-.546-.156-.208-.455-.208a.57.57 0 0 0-.455.195q-.156.195-.156.559V229h-1.17v-5.382q0-.364-.156-.559t-.455-.195-.455.195q-.143.195-.143.559V229zm7.925 2.34v-9.49h1.586v1.365h.364l-.364.377q0-.871.52-1.365.519-.507 1.404-.507 1.078 0 1.729.741.65.741.65 1.989v1.937q0 .832-.299 1.456a2.2 2.2 0 0 1-.819.949q-.534.338-1.261.338-.885 0-1.404-.494-.52-.507-.52-1.378l.364.377h-.377l.052 1.703v2.002zm2.938-3.614q.624 0 .975-.364t.351-1.04v-1.794q0-.676-.351-1.04t-.975-.364q-.612 0-.962.377-.351.364-.351 1.027v1.794q0 .663.351 1.04.35.364.962.364m7.561 1.391q-.91 0-1.586-.338a2.6 2.6 0 0 1-1.04-.975q-.364-.637-.364-1.495v-1.768q0-.858.364-1.482.377-.638 1.04-.975.675-.351 1.586-.351.923 0 1.586.351.663.338 1.027.975.377.624.377 1.469v1.781q0 .858-.377 1.495a2.54 2.54 0 0 1-1.027.975q-.663.338-1.586.338m0-1.417q.65 0 1.001-.351.363-.364.364-1.04v-1.768q0-.689-.364-1.04-.351-.351-1.001-.351-.638 0-1.001.351-.364.351-.364 1.04v1.768q0 .676.364 1.04.363.351 1.001.351m4.701 1.3v-7.15h1.586v1.365h.442l-.442.377q0-.884.507-1.378.52-.494 1.417-.494 1.053 0 1.677.702.636.702.637 1.885V229H395.2v-4.524q0-.65-.338-1.001-.339-.351-.949-.351-.598 0-.949.364-.339.364-.338 1.04V229zm10.512.13q-.91 0-1.586-.351a2.6 2.6 0 0 1-1.053-.975q-.364-.638-.364-1.482v-1.794q0-.845.364-1.469a2.57 2.57 0 0 1 1.053-.988q.675-.351 1.586-.351.897 0 1.56.351.675.35 1.04.988.377.624.377 1.469v1.287h-4.407v.507q0 .754.364 1.144.363.377 1.079.377.546 0 .884-.182a.87.87 0 0 0 .429-.559h1.599q-.183.923-.988 1.482-.794.546-1.937.546m1.404-4.225v-.39q0-.741-.351-1.131-.351-.403-1.053-.403-.703 0-1.066.403t-.364 1.144v.273l2.951-.026zM406.2 229v-7.15h1.586v1.365h.442l-.442.377q0-.884.507-1.378.52-.494 1.417-.494 1.053 0 1.677.702.637.702.637 1.885V229h-1.625v-4.524q0-.65-.338-1.001-.337-.351-.949-.351-.597 0-.949.364-.338.364-.338 1.04V229zm11.279 0q-1.027 0-1.612-.572-.572-.572-.572-1.573v-3.536h-1.937v-1.469h1.937v-2.015h1.638v2.015h2.743v1.469h-2.743v3.536q0 .676.663.676h1.95V229zm3.947 0v-1.573l2.964-2.977q.624-.637.923-1.144.3-.52.299-1.066 0-.663-.364-1.027-.363-.377-.988-.377-.689 0-1.079.403-.39.39-.39 1.092h-1.625q.014-.91.39-1.56a2.66 2.66 0 0 1 1.092-1.027q.702-.364 1.638-.364.897 0 1.56.338a2.47 2.47 0 0 1 1.027.949q.364.611.364 1.456 0 .871-.455 1.703-.441.819-1.43 1.768l-1.976 1.937h3.978V229zm12.878 1.56q-1.975-.52-3.055-1.833-1.079-1.326-1.079-3.224v-2.353q0-1.248.494-2.262a4.96 4.96 0 0 1 1.43-1.742q.936-.728 2.21-1.066v1.599a3.2 3.2 0 0 0-1.339.663 3.2 3.2 0 0 0-.858 1.196 4.2 4.2 0 0 0-.299 1.612v2.353q0 .871.299 1.586.3.702.858 1.183.573.468 1.339.65zm2.79 0v-1.638q.78-.182 1.339-.65.56-.481.858-1.183a4.1 4.1 0 0 0 .299-1.586v-2.353q0-.897-.299-1.612a3.15 3.15 0 0 0-.858-1.196 3.1 3.1 0 0 0-1.339-.663v-1.599q1.287.338 2.21 1.066a4.8 4.8 0 0 1 1.417 1.742q.507 1.014.507 2.262v2.353q0 1.898-1.079 3.224-1.079 1.313-3.055 1.833m10.005-6.656q-.546 0-.884-.299a1.05 1.05 0 0 1-.325-.793q0-.494.325-.793.338-.299.884-.299t.871.299q.338.299.338.793 0 .481-.338.793-.325.299-.871.299m0 5.226q-.546 0-.884-.299-.325-.299-.325-.793t.325-.793q.338-.299.884-.299t.871.299q.338.299.338.793t-.338.793q-.325.299-.871.299"/></g></g><path fill="#6E56CF" d="M224.833 194.5a2.667 2.667 0 1 0 5.334 0 2.667 2.667 0 0 0-5.334 0m88-67a2.667 2.667 0 1 0 5.334 0 2.667 2.667 0 0 0-5.334 0M227.5 195h1.036v-1H227.5zm3.107 0h2.072v-1h-2.072zm4.143 0h2.071v-1h-2.071zm4.143 0h2.071v-1h-2.071zm4.143 0h2.071v-1h-2.071zm4.143 0h2.071v-1h-2.071zm4.142 0h2.072v-1h-2.072zm4.143 0h1.036v-1h-1.036zm1.036 0q.52 0 1.029-.05l-.097-.995q-.46.045-.932.045zm3.049-.45a10.4 10.4 0 0 0 1.902-.788l-.472-.882a9.4 9.4 0 0 1-1.72.713zm3.612-1.933a10.6 10.6 0 0 0 1.456-1.456l-.773-.634a9.5 9.5 0 0 1-1.317 1.317zm2.601-3.166c.322-.601.587-1.238.788-1.902l-.957-.29a9.4 9.4 0 0 1-.713 1.72zm1.188-3.922q.05-.508.05-1.029h-1q0 .473-.045.932zm.05-1.029v-.979h-1v.979zm0-2.938v-1.958h-1v1.958zm0-3.916v-1.958h-1v1.958zm0-3.917v-1.958h-1v1.958zm0-3.917v-1.958h-1v1.958zm0-3.916v-1.958h-1v1.958zm0-3.917v-1.958h-1v1.958zm0-3.917v-1.958h-1v1.958zm0-3.916v-1.959h-1v1.959zm0-3.917v-1.958h-1v1.958zm0-3.917v-1.958h-1v1.958zm0-3.916v-1.958h-1v1.958zm0-3.917v-.979h-1v.979zm0-.979q0-.473.045-.932l-.995-.097q-.05.508-.05 1.029zm.407-2.759q.274-.902.713-1.72l-.882-.472a10.4 10.4 0 0 0-.788 1.902zm1.749-3.268a9.5 9.5 0 0 1 1.317-1.317l-.634-.773q-.8.657-1.456 1.456zm2.865-2.353a9.4 9.4 0 0 1 1.72-.713l-.29-.957c-.664.201-1.301.466-1.902.788zm3.547-1.075q.46-.045.932-.045v-1q-.52 0-1.029.05zm.932-.045h.975v-1h-.975zm2.925 0h1.95v-1h-1.95zm3.9 0h1.95v-1h-1.95zm3.9 0h1.95v-1h-1.95zm3.9 0h1.95v-1h-1.95zm3.9 0h1.95v-1h-1.95zm3.9 0h1.95v-1h-1.95zm3.9 0h1.95v-1h-1.95zm3.9 0h1.95v-1h-1.95zm3.9 0h1.95v-1h-1.95zm3.9 0h.975v-1h-.975zm-89.192 92.5a2.667 2.667 0 1 0 5.334 0 2.667 2.667 0 0 0-5.334 0m63 0a2.667 2.667 0 1 0 5.334 0 2.667 2.667 0 0 0-5.334 0M228 221h.984v-1H228zm2.953 0h1.969v-1h-1.969zm3.938 0h1.968v-1h-1.968zm3.937 0h1.969v-1h-1.969zm3.938 0h1.968v-1h-1.968zm3.937 0h1.969v-1h-1.969zm3.938 0h1.968v-1h-1.968zm3.937 0h1.969v-1h-1.969zm3.938 0h1.968v-1h-1.968zm3.937 0h1.969v-1h-1.969zm3.938 0h1.968v-1h-1.968zm3.937 0h1.969v-1h-1.969zm3.938 0h1.968v-1h-1.968zm3.937 0h1.969v-1h-1.969zm3.938 0h1.968v-1h-1.968zm3.937 0h1.969v-1h-1.969zm3.938 0H291v-1h-.984z" opacity=".72"/><path fill="url(#k)" d="M0 0h280v178H0z" transform="rotate(-90 405 -85)"/><g filter="url(#l)"><rect width="111" height="20" x="370" y="102" fill="#6E56CF" rx="6"/><path fill="#D4CAFE" d="M379.939 117.13q-.91 0-1.599-.338a2.6 2.6 0 0 1-1.053-.975q-.377-.637-.377-1.495v-1.794q0-.871.377-1.495a2.5 2.5 0 0 1 1.053-.962q.689-.351 1.599-.351 1.352 0 2.158.702.806.689.845 1.885h-1.625q-.039-.56-.403-.858-.351-.312-.975-.312-.65 0-1.027.364-.377.351-.377 1.014v1.807q0 .663.377 1.027t1.027.364q.624 0 .975-.299.364-.312.403-.871h1.625q-.04 1.196-.845 1.898-.806.689-2.158.689m7.561-.013q-.91 0-1.586-.338a2.6 2.6 0 0 1-1.04-.975q-.364-.637-.364-1.495v-1.768q0-.858.364-1.482.377-.637 1.04-.975.676-.351 1.586-.351.923 0 1.586.351.663.338 1.027.975.377.624.377 1.469v1.781q0 .858-.377 1.495a2.54 2.54 0 0 1-1.027.975q-.663.338-1.586.338m0-1.417q.65 0 1.001-.351.364-.364.364-1.04v-1.768q0-.689-.364-1.04-.351-.351-1.001-.351-.637 0-1.001.351t-.364 1.04v1.768q0 .676.364 1.04.364.351 1.001.351m4.376 1.3v-7.15h1.326v.962h.273l-.221.234q0-.598.338-.962t.871-.364q.572 0 .884.468.325.468.325 1.261l-.286-.637h.442l-.169.234q0-.598.338-.962t.897-.364q.663 0 1.053.494t.39 1.339V117h-1.43v-5.382q0-.351-.156-.546-.156-.208-.455-.208a.57.57 0 0 0-.455.195q-.156.195-.156.559V117h-1.17v-5.382q0-.364-.156-.559t-.455-.195-.455.195q-.143.195-.143.559V117zm7.925 2.34v-9.49h1.586v1.365h.364l-.364.377q0-.871.52-1.365.519-.507 1.404-.507 1.078 0 1.729.741.65.741.65 1.989v1.937q0 .832-.299 1.456a2.2 2.2 0 0 1-.819.949q-.534.338-1.261.338-.885 0-1.404-.494-.52-.507-.52-1.378l.364.377h-.377l.052 1.703v2.002zm2.938-3.614q.624 0 .975-.364t.351-1.04v-1.794q0-.676-.351-1.04t-.975-.364q-.612 0-.962.377-.351.364-.351 1.027v1.794q0 .663.351 1.04.35.364.962.364m7.561 1.391q-.91 0-1.586-.338a2.6 2.6 0 0 1-1.04-.975q-.364-.637-.364-1.495v-1.768q0-.858.364-1.482.377-.637 1.04-.975.675-.351 1.586-.351.923 0 1.586.351.663.338 1.027.975.377.624.377 1.469v1.781q0 .858-.377 1.495a2.54 2.54 0 0 1-1.027.975q-.663.338-1.586.338m0-1.417q.65 0 1.001-.351.363-.364.364-1.04v-1.768q0-.689-.364-1.04-.351-.351-1.001-.351-.638 0-1.001.351-.364.351-.364 1.04v1.768q0 .676.364 1.04.363.351 1.001.351m4.701 1.3v-7.15h1.586v1.365h.442l-.442.377q0-.884.507-1.378.52-.494 1.417-.494 1.053 0 1.677.702.636.702.637 1.885V117H419.2v-4.524q0-.65-.338-1.001-.339-.351-.949-.351-.598 0-.949.364-.339.364-.338 1.04V117zm10.512.13q-.91 0-1.586-.351a2.6 2.6 0 0 1-1.053-.975q-.364-.637-.364-1.482v-1.794q0-.845.364-1.469a2.57 2.57 0 0 1 1.053-.988q.675-.351 1.586-.351.897 0 1.56.351.675.35 1.04.988.377.624.377 1.469v1.287h-4.407v.507q0 .754.364 1.144.363.377 1.079.377.546 0 .884-.182a.87.87 0 0 0 .429-.559h1.599q-.183.922-.988 1.482-.794.546-1.937.546m1.404-4.225v-.39q0-.741-.351-1.131-.351-.403-1.053-.403-.703 0-1.066.403t-.364 1.144v.273l2.951-.026zM430.2 117v-7.15h1.586v1.365h.442l-.442.377q0-.884.507-1.378.52-.494 1.417-.494 1.053 0 1.677.702.637.702.637 1.885V117h-1.625v-4.524q0-.65-.338-1.001-.337-.351-.949-.351-.597 0-.949.364-.338.364-.338 1.04V117zm11.279 0q-1.027 0-1.612-.572-.572-.572-.572-1.573v-3.536h-1.937v-1.469h1.937v-2.015h1.638v2.015h2.743v1.469h-2.743v3.536q0 .676.663.676h1.95V117zm4.012 0v-1.43h2.47v-6.617l-2.483 1.846v-1.716l2.184-1.573h1.924v8.06h1.989V117zm12.813 1.56q-1.975-.52-3.055-1.833-1.079-1.326-1.079-3.224v-2.353q0-1.248.494-2.262a4.96 4.96 0 0 1 1.43-1.742q.936-.728 2.21-1.066v1.599a3.2 3.2 0 0 0-1.339.663 3.2 3.2 0 0 0-.858 1.196 4.2 4.2 0 0 0-.299 1.612v2.353q0 .871.299 1.586.3.702.858 1.183.573.468 1.339.65zm2.79 0v-1.638q.78-.182 1.339-.65.56-.481.858-1.183a4.1 4.1 0 0 0 .299-1.586v-2.353q0-.897-.299-1.612a3.15 3.15 0 0 0-.858-1.196 3.1 3.1 0 0 0-1.339-.663v-1.599q1.287.338 2.21 1.066a4.8 4.8 0 0 1 1.417 1.742q.507 1.014.507 2.262v2.353q0 1.898-1.079 3.224-1.079 1.313-3.055 1.833m10.005-6.656q-.546 0-.884-.299a1.05 1.05 0 0 1-.325-.793q0-.494.325-.793.338-.299.884-.299t.871.299q.338.299.338.793 0 .481-.338.793-.325.299-.871.299m0 5.226q-.546 0-.884-.299-.325-.299-.325-.793t.325-.793q.338-.299.884-.299t.871.299q.338.299.338.793t-.338.793q-.325.299-.871.299"/></g><path fill="url(#m)" d="M0 0h668v140H0z" transform="translate(0 180)"/></g><defs><filter id="c" width="347" height="248" x="28" y="92" color-interpolation-filters="sRGB" filterUnits="userSpaceOnUse"><feFlood flood-opacity="0" result="BackgroundImageFix"/><feGaussianBlur in="BackgroundImageFix" stdDeviation="6"/><feComposite in2="SourceAlpha" operator="in" result="effect1_backgroundBlur_10763_4947"/><feBlend in="SourceGraphic" in2="effect1_backgroundBlur_10763_4947" result="shape"/></filter><filter id="d" width="135" height="44" x="105" y="172" color-interpolation-filters="sRGB" filterUnits="userSpaceOnUse"><feFlood flood-opacity="0" result="BackgroundImageFix"/><feGaussianBlur in="BackgroundImageFix" stdDeviation="6"/><feComposite in2="SourceAlpha" operator="in" result="effect1_backgroundBlur_10763_4947"/><feBlend in="SourceGraphic" in2="effect1_backgroundBlur_10763_4947" result="shape"/></filter><filter id="e" width="135" height="44" x="105" y="198" color-interpolation-filters="sRGB" filterUnits="userSpaceOnUse"><feFlood flood-opacity="0" result="BackgroundImageFix"/><feGaussianBlur in="BackgroundImageFix" stdDeviation="6"/><feComposite in2="SourceAlpha" operator="in" result="effect1_backgroundBlur_10763_4947"/><feBlend in="SourceGraphic" in2="effect1_backgroundBlur_10763_4947" result="shape"/></filter><filter id="f" width="135" height="44" x="105" y="224" color-interpolation-filters="sRGB" filterUnits="userSpaceOnUse"><feFlood flood-opacity="0" result="BackgroundImageFix"/><feGaussianBlur in="BackgroundImageFix" stdDeviation="6"/><feComposite in2="SourceAlpha" operator="in" result="effect1_backgroundBlur_10763_4947"/><feBlend in="SourceGraphic" in2="effect1_backgroundBlur_10763_4947" result="shape"/></filter><filter id="g" width="135" height="44" x="105" y="250" color-interpolation-filters="sRGB" filterUnits="userSpaceOnUse"><feFlood flood-opacity="0" result="BackgroundImageFix"/><feGaussianBlur in="BackgroundImageFix" stdDeviation="6"/><feComposite in2="SourceAlpha" operator="in" result="effect1_backgroundBlur_10763_4947"/><feBlend in="SourceGraphic" in2="effect1_backgroundBlur_10763_4947" result="shape"/></filter><filter id="h" width="359" height="112" x="303" y="68" color-interpolation-filters="sRGB" filterUnits="userSpaceOnUse"><feFlood flood-opacity="0" result="BackgroundImageFix"/><feGaussianBlur in="BackgroundImageFix" stdDeviation="6"/><feComposite in2="SourceAlpha" operator="in" result="effect1_backgroundBlur_10763_4947"/><feBlend in="SourceGraphic" in2="effect1_backgroundBlur_10763_4947" result="shape"/></filter><filter id="i" width="401" height="112" x="279" y="180" color-interpolation-filters="sRGB" filterUnits="userSpaceOnUse"><feFlood flood-opacity="0" result="BackgroundImageFix"/><feGaussianBlur in="BackgroundImageFix" stdDeviation="6"/><feComposite in2="SourceAlpha" operator="in" result="effect1_backgroundBlur_10763_4947"/><feBlend in="SourceGraphic" in2="effect1_backgroundBlur_10763_4947" result="shape"/></filter><filter id="j" width="135" height="44" x="334" y="202" color-interpolation-filters="sRGB" filterUnits="userSpaceOnUse"><feFlood flood-opacity="0" result="BackgroundImageFix"/><feGaussianBlur in="BackgroundImageFix" stdDeviation="6"/><feComposite in2="SourceAlpha" operator="in" result="effect1_backgroundBlur_10763_4947"/><feBlend in="SourceGraphic" in2="effect1_backgroundBlur_10763_4947" result="shape"/></filter><filter id="l" width="135" height="44" x="358" y="90" color-interpolation-filters="sRGB" filterUnits="userSpaceOnUse"><feFlood flood-opacity="0" result="BackgroundImageFix"/><feGaussianBlur in="BackgroundImageFix" stdDeviation="6"/><feComposite in2="SourceAlpha" operator="in" result="effect1_backgroundBlur_10763_4947"/><feBlend in="SourceGraphic" in2="effect1_backgroundBlur_10763_4947" result="shape"/></filter><linearGradient id="k" x1="140" x2="140" y1="-34.117" y2="178" gradientUnits="userSpaceOnUse"><stop offset=".41" stop-color="#1A1B1D" stop-opacity="0"/><stop offset=".948" stop-color="#1A1B1D"/></linearGradient><linearGradient id="m" x1="334" x2="334" y1="0" y2="140" gradientUnits="userSpaceOnUse"><stop stop-color="#1A1B1D" stop-opacity="0"/><stop offset=".639" stop-color="#1A1B1D"/></linearGradient><radialGradient id="b" cx="0" cy="0" r="1" gradientTransform="matrix(0 167 -194 0 334 167)" gradientUnits="userSpaceOnUse"><stop stop-color="#261958"/><stop offset="1" stop-color="#1A1B1D" stop-opacity="0"/></radialGradient><clipPath id="a"><path fill="#fff" d="M0 0h668v320H0z"/></clipPath></defs></svg>