<svg xmlns="http://www.w3.org/2000/svg" width="326" height="280" fill="none" viewBox="0 0 326 280"><g clip-path="url(#a)"><path fill="url(#b)" d="M41.222 57v-7.15h1.534v1.365h.403l-.481.832q0-1.157.52-1.742t1.534-.585q1.157 0 1.82.715t.663 1.976v.52h-1.703v-.403q0-.69-.364-1.066-.351-.377-.975-.377-.637 0-.988.377-.338.377-.338 1.066V57zm6.846 0 2.496-3.692-2.327-3.458h1.833l1.105 1.755q.105.156.182.351l.143.312q.052-.117.143-.312.09-.195.182-.351l1.118-1.755h1.833l-2.327 3.458L54.932 57h-1.846l-1.235-1.963a4 4 0 0 1-.195-.364 5 5 0 0 0-.156-.312q-.052.117-.143.312a4 4 0 0 1-.195.364L49.9 57zm11.032.13q-.56 0-.897-.325-.325-.325-.325-.884t.325-.884q.338-.338.897-.338t.884.338q.338.325.338.884t-.338.884q-.326.325-.884.325m7.639 0q-.91 0-1.6-.338a2.6 2.6 0 0 1-1.052-.975q-.378-.637-.377-1.495v-1.794q0-.87.377-1.495a2.5 2.5 0 0 1 1.053-.962q.69-.351 1.599-.351 1.351 0 2.158.702.806.69.845 1.885h-1.625q-.039-.56-.403-.858-.352-.312-.975-.312-.65 0-1.027.364-.377.351-.377 1.014v1.807q0 .663.377 1.027.376.364 1.027.364.623 0 .975-.299.364-.312.403-.871h1.625q-.04 1.196-.845 1.898-.807.69-2.158.689m6.768 0q-1.106 0-1.742-.585-.637-.585-.637-1.573 0-1.053.702-1.625.701-.572 1.989-.572h1.78v-.611q0-.52-.337-.806-.339-.3-.923-.299-.534 0-.884.234a.91.91 0 0 0-.416.637h-1.586q.117-1.014.91-1.612.792-.598 2.028-.598 1.313 0 2.067.663.767.65.767 1.768V57h-1.573v-1.248h-.26l.26-.351q0 .793-.585 1.261t-1.56.468m.533-1.222q.689 0 1.118-.351.441-.35.442-.91v-.871h-1.755q-.495 0-.793.286-.3.285-.3.754 0 .507.339.806.35.285.949.286M82.992 57q-.702 0-1.235-.286-.52-.286-.82-.806a2.46 2.46 0 0 1-.298-1.222v-5.707H78.35V47.51h3.913v7.176q0 .39.22.624.235.22.625.221h2.158V57zm7.6 0q-.702 0-1.236-.286-.52-.286-.819-.806a2.46 2.46 0 0 1-.299-1.222v-5.707h-2.287V47.51h3.913v7.176q0 .39.22.624.234.22.624.221h2.159V57zm6.508.117q-.91 0-1.587-.338a2.6 2.6 0 0 1-1.04-.975q-.364-.637-.364-1.495v-1.768q0-.858.365-1.482.375-.638 1.04-.975.675-.351 1.586-.351.923 0 1.586.351.662.337 1.026.975.377.624.377 1.469v1.781q0 .858-.376 1.495a2.53 2.53 0 0 1-1.027.975q-.664.338-1.587.338m0-1.417q.65 0 1-.351.365-.365.365-1.04v-1.768q0-.69-.365-1.04-.35-.351-1-.351-.638 0-1.001.351-.365.35-.365 1.04v1.768q0 .675.365 1.04.364.351 1 .351m7.599 1.43q-1.365 0-2.145-.754-.78-.767-.78-2.08V49.85h1.625v4.433q0 .69.338 1.066.339.364.962.364.612 0 .949-.364.351-.377.351-1.066V49.85h1.625v4.446q0 1.313-.793 2.08-.792.754-2.132.754m8.38-.13q-1.026 0-1.612-.572-.572-.572-.572-1.573v-3.536h-1.937V49.85h1.937v-2.015h1.638v2.015h2.743v1.469h-2.743v3.536q0 .675.663.676h1.95V57zm9.225 1.56q-1.975-.52-3.055-1.833-1.079-1.326-1.079-3.224V51.15q0-1.248.494-2.262a4.96 4.96 0 0 1 1.43-1.742q.936-.727 2.21-1.066v1.599a3.2 3.2 0 0 0-1.339.663q-.558.481-.858 1.196a4.2 4.2 0 0 0-.299 1.612v2.353q0 .871.299 1.586.3.702.858 1.183.573.468 1.339.65zM67.311 81.13q-.885 0-1.404-.494-.52-.507-.52-1.378l.364.377h-.364V81H63.8v-9.49h1.625v2.002l-.052 1.703h.377l-.364.377q0-.87.52-1.365.519-.507 1.404-.507 1.079 0 1.729.741.65.74.65 2.002V78.4q0 1.248-.65 1.989t-1.73.741m-.572-1.404q.623 0 .975-.364.35-.365.35-1.04v-1.794q0-.675-.35-1.04-.352-.364-.975-.364-.612 0-.962.377-.351.364-.351 1.027v1.794q0 .663.35 1.04.352.364.963.364m7.56 1.391q-.91 0-1.585-.338a2.6 2.6 0 0 1-1.04-.975q-.364-.637-.364-1.495v-1.768q0-.858.364-1.482.377-.638 1.04-.975.675-.351 1.586-.351.923 0 1.586.351.663.337 1.027.975.377.624.377 1.469v1.781q0 .858-.377 1.495a2.53 2.53 0 0 1-1.027.975q-.663.338-1.586.338m0-1.417q.651 0 1.002-.351.364-.365.364-1.04v-1.768q0-.69-.364-1.04-.351-.351-1.001-.351-.638 0-1.001.351-.364.35-.364 1.04v1.768q0 .675.364 1.04.363.351 1 .351m4.923 1.3v-7.15h1.534v1.365h.403l-.481.832q0-1.157.52-1.742t1.534-.585q1.156 0 1.82.715.663.715.663 1.976v.52h-1.703v-.403q0-.69-.364-1.066-.352-.377-.975-.377-.637 0-.988.377-.338.377-.338 1.066V81zm9.667.13q-1.066 0-1.73-.741-.65-.741-.65-1.989v-1.937q0-1.26.65-2.002t1.73-.741q.884 0 1.404.507.52.494.52 1.365l-.365-.377h.378l-.052-1.703V71.51h1.624V81h-1.585v-1.365h-.365l.365-.377q0 .87-.52 1.378-.52.494-1.405.494m.572-1.404q.623 0 .962-.364.35-.377.35-1.04v-1.794q0-.663-.35-1.027-.339-.377-.963-.377t-.974.364-.352 1.04v1.794q0 .675.352 1.04.35.364.974.364m7.651 1.404q-.91 0-1.585-.351a2.6 2.6 0 0 1-1.053-.975q-.365-.637-.365-1.482v-1.794q0-.845.365-1.469a2.57 2.57 0 0 1 1.052-.988q.677-.351 1.587-.351.896 0 1.56.351.675.35 1.04.988.376.624.376 1.469v1.287H95.68v.507q0 .754.363 1.144.365.377 1.08.377.546 0 .883-.182a.87.87 0 0 0 .43-.559h1.598q-.18.923-.988 1.482-.792.546-1.937.546m1.404-4.225v-.39q0-.741-.35-1.131-.351-.403-1.053-.403-.703 0-1.067.403t-.364 1.144v.273l2.951-.026zM102.021 81v-7.15h1.534v1.365h.403l-.481.832q0-1.157.52-1.742t1.534-.585q1.158 0 1.82.715t.663 1.976v.52h-1.703v-.403q0-.69-.364-1.066-.351-.377-.975-.377-.636 0-.988.377-.338.377-.338 1.066V81zm7.158 1.794v-1.469h6.24v1.469zM117.221 81v-7.15h1.534v1.365h.403l-.481.832q0-1.157.52-1.742t1.534-.585q1.158 0 1.82.715t.663 1.976v.52h-1.703v-.403q0-.69-.364-1.066-.351-.377-.975-.377-.637 0-.988.377-.338.377-.338 1.066V81zm9.485.13q-1.105 0-1.742-.585t-.637-1.573q0-1.053.702-1.625t1.989-.572h1.781v-.611q0-.52-.338-.806-.338-.3-.923-.299-.533 0-.884.234a.91.91 0 0 0-.416.637h-1.586q.117-1.014.91-1.612t2.028-.598q1.312 0 2.067.663.767.65.767 1.768V81h-1.573v-1.248h-.26l.26-.351q0 .793-.585 1.261t-1.56.468m.533-1.222q.689 0 1.118-.351.442-.35.442-.91v-.871h-1.755q-.494 0-.793.286-.299.285-.299.754 0 .507.338.806.35.285.949.286m7.249 1.222q-1.066 0-1.729-.741-.65-.741-.65-1.989v-1.937q0-1.26.65-2.002t1.729-.741q.883 0 1.404.507.52.494.52 1.365l-.364-.377h.377l-.052-1.703V71.51h1.625V81h-1.586v-1.365h-.364l.364-.377q0 .87-.52 1.378-.52.494-1.404.494m.572-1.404q.624 0 .962-.364.351-.377.351-1.04v-1.794q0-.663-.351-1.027-.338-.377-.962-.377t-.975.364-.351 1.04v1.794q0 .675.351 1.04.351.364.975.364M139.787 81v-1.482h2.496v-4.199h-2.171V73.85h3.731v5.668h2.21V81zm3.146-8.346q-.493 0-.78-.247-.286-.26-.286-.689t.286-.676q.287-.26.78-.26t.78.26q.286.247.286.676t-.286.689q-.287.247-.78.247m7.366 8.476q-1.365 0-2.145-.754-.78-.767-.78-2.08V73.85h1.625v4.433q0 .69.338 1.066.338.364.962.364.611 0 .949-.364.351-.377.351-1.066V73.85h1.625v4.446q0 1.313-.793 2.08-.793.754-2.132.754m7.327-.013q-.82 0-1.43-.26a2.34 2.34 0 0 1-.962-.715 1.95 1.95 0 0 1-.364-1.092h1.625a.7.7 0 0 0 .325.546q.311.208.806.208h.572q.597 0 .897-.234a.77.77 0 0 0 .299-.637q0-.377-.273-.585-.261-.221-.819-.286l-.884-.13q-1.223-.17-1.794-.65-.573-.48-.572-1.443 0-1 .676-1.547.675-.56 1.989-.559h.494q1.195 0 1.911.533.714.533.767 1.43h-1.625q-.04-.286-.325-.468-.273-.182-.728-.182h-.494q-.56 0-.819.208-.247.195-.247.585 0 .364.221.546.22.17.715.247l.923.13q1.274.182 1.872.689.61.495.611 1.469 0 1.04-.715 1.625-.702.572-2.08.572zm5.039-5.252V74.37h5.668v1.495zm0 3.185v-1.495h5.668v1.495zm11.214-3.64-.169-2.197V71.51h1.638v1.703l-.156 2.197zm-2.86 0-.169-2.197V71.51h1.638v1.703l-.156 2.197zm6.872 5.59v-1.43h2.47v-6.617l-2.483 1.846v-1.716l2.184-1.573h1.924v8.06h1.989V81zm7.73 0v-7.15h1.534v1.365h.403l-.481.832q0-1.157.52-1.742t1.534-.585q1.157 0 1.82.715t.663 1.976v.52h-1.703v-.403q0-.69-.364-1.066-.351-.377-.975-.377-.637 0-.988.377-.338.377-.338 1.066V81zm10.29.13q-.91 0-1.586-.351a2.6 2.6 0 0 1-1.053-.975q-.363-.637-.364-1.482v-1.794q0-.845.364-1.469a2.6 2.6 0 0 1 1.053-.988q.677-.351 1.586-.351.897 0 1.56.351.677.35 1.04.988.377.624.377 1.469v1.287h-4.407v.507q0 .754.364 1.144.365.377 1.079.377.546 0 .884-.182a.86.86 0 0 0 .429-.559h1.599q-.181.923-.988 1.482-.792.546-1.937.546m1.404-4.225v-.39q0-.741-.351-1.131-.351-.403-1.053-.403t-1.066.403-.364 1.144v.273l2.951-.026zM200.274 81v-7.15h1.326v.962h.273l-.221.234q0-.599.338-.962.339-.364.871-.364a1 1 0 0 1 .884.468q.325.468.325 1.261l-.286-.637h.442l-.169.234q0-.599.338-.962.339-.364.897-.364.663 0 1.053.494.39.495.39 1.339V81h-1.43v-5.382q0-.351-.156-.546-.155-.208-.455-.208a.57.57 0 0 0-.455.195q-.156.195-.156.559V81h-1.17v-5.382q0-.364-.156-.559t-.455-.195-.455.195q-.143.195-.143.559V81zm11.604-5.59-.169-2.197V71.51h1.638v1.703l-.156 2.197zm-2.86 0-.169-2.197V71.51h1.638v1.703l-.156 2.197zm7.73 7.67 1.04-4.043h2.08l-1.69 4.043zM67.311 105.13q-.885 0-1.404-.494-.52-.507-.52-1.378l.364.377h-.364V105H63.8v-9.49h1.625v2.002l-.052 1.703h.377l-.364.377q0-.87.52-1.365.519-.507 1.404-.507 1.079 0 1.729.741.65.74.65 2.002v1.937q0 1.248-.65 1.989t-1.73.741m-.572-1.404q.623 0 .975-.364.35-.364.35-1.04v-1.794q0-.676-.35-1.04-.352-.364-.975-.364-.612 0-.962.377-.351.364-.351 1.027v1.794q0 .663.35 1.04.352.364.963.364m6.768 1.404q-1.106 0-1.742-.585-.637-.585-.637-1.573 0-1.053.702-1.625.701-.572 1.989-.572h1.78v-.611q0-.52-.337-.806-.339-.3-.923-.299-.534 0-.884.234a.91.91 0 0 0-.416.637h-1.586q.117-1.014.91-1.612.792-.598 2.028-.598 1.313 0 2.067.663.767.65.767 1.768V105H75.65v-1.248h-.26l.26-.351q0 .793-.585 1.261t-1.56.468m.533-1.222q.689 0 1.118-.351.441-.35.442-.91v-.871h-1.755q-.495 0-.793.286-.3.286-.3.754 0 .507.339.806.35.286.949.286m7.899 1.222q-.91 0-1.6-.338a2.6 2.6 0 0 1-1.052-.975q-.377-.637-.377-1.495v-1.794q0-.87.377-1.495a2.5 2.5 0 0 1 1.053-.962q.688-.351 1.599-.351 1.35 0 2.158.702.806.69.845 1.885h-1.625q-.039-.56-.403-.858-.352-.312-.975-.312-.65 0-1.027.364-.377.351-.377 1.014v1.807q0 .663.377 1.027.376.364 1.027.364.623 0 .975-.299.364-.312.403-.871h1.625q-.04 1.196-.845 1.898-.807.689-2.158.689m4.7-.13v-9.49h1.626v5.148h1.13l1.743-2.808h1.82l-2.159 3.458 2.2 3.692h-1.858l-1.743-2.964h-1.13V105zm9.85.13q-1.067 0-1.73-.741-.65-.741-.65-1.989v-1.937q0-1.26.65-2.002t1.73-.741q.884 0 1.403.507.52.494.52 1.365l-.364-.377h.377l-.051-1.703V95.51h1.625V105H98.41v-1.365h-.364l.364-.377q0 .871-.52 1.378-.52.494-1.403.494m.572-1.404q.623 0 .961-.364.352-.377.352-1.04v-1.794q0-.663-.352-1.027-.338-.377-.962-.377t-.975.364-.35 1.04v1.794q0 .676.35 1.04.352.364.976.364m4.96 1.274v-7.15h1.534v1.365h.403l-.481.832q0-1.157.52-1.742t1.534-.585q1.158 0 1.82.715t.663 1.976v.52h-1.703v-.403q0-.689-.364-1.066-.351-.377-.975-.377-.636 0-.988.377-.338.377-.338 1.066V105zm10.278.117q-.91 0-1.586-.338a2.63 2.63 0 0 1-1.04-.975q-.363-.637-.364-1.495v-1.768q0-.858.364-1.482.377-.637 1.04-.975.677-.351 1.586-.351.924 0 1.586.351.663.338 1.027.975.377.624.377 1.469v1.781q0 .858-.377 1.495a2.53 2.53 0 0 1-1.027.975q-.662.338-1.586.338m0-1.417q.65 0 1.001-.351.364-.364.364-1.04v-1.768q0-.689-.364-1.04-.35-.351-1.001-.351-.636 0-1.001.351-.363.351-.364 1.04v1.768q0 .676.364 1.04.365.351 1.001.351m4.701 3.64v-9.49h1.586v1.365h.364l-.364.377q0-.87.52-1.365.52-.507 1.404-.507 1.08 0 1.729.741.65.741.65 1.989v1.937q0 .832-.299 1.456-.285.611-.819.949-.532.338-1.261.338-.883 0-1.404-.494-.52-.507-.52-1.378l.364.377h-.377l.052 1.703v2.002zm2.938-3.614q.624 0 .975-.364t.351-1.04v-1.794q0-.676-.351-1.04t-.975-.364q-.61 0-.962.377-.351.364-.351 1.027v1.794q0 .663.351 1.04.351.364.962.364m4.441 3.068v-1.469h6.24v1.469zm11.331-1.664q-.883 0-1.404-.494-.52-.507-.52-1.378l.364.377h-.364V105H132.2v-9.49h1.625v2.002l-.052 1.703h.377l-.364.377q0-.87.52-1.365.52-.507 1.404-.507 1.079 0 1.729.741.65.74.65 2.002v1.937q0 1.248-.65 1.989t-1.729.741m-.572-1.404q.624 0 .975-.364t.351-1.04v-1.794q0-.676-.351-1.04t-.975-.364q-.61 0-.962.377-.351.364-.351 1.027v1.794q0 .663.351 1.04.351.364.962.364m8.653 1.274q-.702 0-1.235-.286a2.1 2.1 0 0 1-.819-.806 2.46 2.46 0 0 1-.299-1.222v-5.707h-2.288V95.51h3.913v7.176q0 .39.221.624.234.22.624.221h2.158V105zm6.508.13q-1.365 0-2.145-.754-.78-.767-.78-2.08V97.85h1.625v4.433q0 .689.338 1.066.338.364.962.364.611 0 .949-.364.351-.377.351-1.066V97.85h1.625v4.446q0 1.313-.793 2.08-.793.754-2.132.754m4.922-.13v-7.15h1.534v1.365h.403l-.481.832q0-1.157.52-1.742t1.534-.585q1.157 0 1.82.715t.663 1.976v.52h-1.703v-.403q0-.689-.364-1.066-.351-.377-.975-.377-.637 0-.988.377-.338.377-.338 1.066V105zm7.444-5.135V98.37h5.668v1.495zm0 3.185v-1.495h5.668v1.495zm11.214-3.64-.169-2.197V95.51h1.638v1.703l-.156 2.197zm-2.86 0-.169-2.197V95.51h1.638v1.703l-.156 2.197zm9.68 5.72q-.924 0-1.599-.351a2.57 2.57 0 0 1-1.053-.988q-.364-.637-.364-1.495v-4.082q0-.858.364-1.495a2.57 2.57 0 0 1 1.053-.988q.675-.351 1.599-.351.936 0 1.599.351.675.35 1.04.988.377.637.377 1.495v4.082q0 .858-.377 1.495-.365.637-1.04.988-.676.351-1.599.351m0-1.404q.675 0 1.079-.39.402-.39.403-1.04v-4.082q0-.65-.403-1.04-.404-.39-1.079-.39-.677 0-1.079.39-.403.39-.403 1.04v4.082q0 .65.403 1.04.402.39 1.079.39m0-2.626a.84.84 0 0 1-.624-.247.9.9 0 0 1-.234-.637q0-.39.234-.624t.624-.234.624.234.234.624a.9.9 0 0 1-.234.637q-.234.247-.624.247m7.6 4.03q-.56 0-.897-.325-.325-.325-.325-.884t.325-.884q.338-.338.897-.338t.884.338q.338.325.338.884t-.338.884q-.326.325-.884.325m5.714-.13 3.432-7.982h-3.042v1.378h-1.625V95.51h6.292v1.534L195.755 105zm9.472.13q-1.312 0-2.106-.65-.792-.663-.871-1.794h1.625q.052.494.39.767.351.26.962.26.676 0 1.027-.351.351-.364.351-1.001v-.923q0-.65-.351-.988-.35-.351-1.027-.351a1.43 1.43 0 0 0-.715.169 1.13 1.13 0 0 0-.455.468h-1.586l.065-5.226h5.343v1.469h-3.809l-.026 2.756h.377l-.39.325q0-.598.468-.936.481-.351 1.287-.351 1.158-.014 1.794.702.65.702.65 1.963v.923q0 1.287-.806 2.028-.793.741-2.197.741m4.935-.13v-7.15h1.534v1.365h.403l-.481.832q0-1.157.52-1.742t1.534-.585q1.157 0 1.82.715t.663 1.976v.52h-1.703v-.403q0-.689-.364-1.066-.351-.377-.975-.377-.636 0-.988.377-.338.377-.338 1.066V105zm10.291.13q-.91 0-1.586-.351a2.6 2.6 0 0 1-1.053-.975q-.363-.637-.364-1.482v-1.794q0-.845.364-1.469a2.6 2.6 0 0 1 1.053-.988q.677-.351 1.586-.351.897 0 1.56.351.677.35 1.04.988.378.624.377 1.469v1.287h-4.407v.507q0 .754.364 1.144.365.377 1.079.377.546 0 .884-.182a.86.86 0 0 0 .429-.559h1.599q-.181.922-.988 1.482-.792.546-1.937.546m1.404-4.225v-.39q0-.741-.351-1.131-.351-.403-1.053-.403t-1.066.403q-.363.403-.364 1.144v.273l2.951-.026zm2.959 4.095v-7.15h1.326v.962h.273l-.221.234q0-.599.338-.962.338-.364.871-.364.572 0 .884.468.325.468.325 1.261l-.286-.637h.442l-.169.234q0-.599.338-.962.337-.364.897-.364.663 0 1.053.494.39.495.39 1.339V105h-1.43v-5.382q0-.351-.156-.546-.156-.208-.455-.208a.57.57 0 0 0-.455.195q-.156.195-.156.559V105h-1.17v-5.382q0-.364-.156-.559t-.455-.195-.455.195q-.143.195-.143.559V105zm11.604-5.59-.169-2.197V95.51h1.638v1.703l-.156 2.197zm-2.86 0-.169-2.197V95.51h1.638v1.703l-.156 2.197zm7.73 7.67 1.04-4.043h2.08l-1.69 4.043zM67.311 129.13q-.885 0-1.404-.494-.52-.507-.52-1.378l.364.377h-.364V129H63.8v-9.49h1.625v2.002l-.052 1.703h.377l-.364.377q0-.871.52-1.365.519-.507 1.404-.507 1.079 0 1.729.741.65.74.65 2.002v1.937q0 1.248-.65 1.989t-1.73.741m-.572-1.404q.623 0 .975-.364.35-.364.35-1.04v-1.794q0-.676-.35-1.04-.352-.364-.975-.364-.612 0-.962.377-.351.364-.351 1.027v1.794q0 .663.35 1.04.352.364.963.364m6.768 1.404q-1.106 0-1.742-.585-.637-.585-.637-1.573 0-1.053.702-1.625.701-.572 1.989-.572h1.78v-.611q0-.52-.337-.806-.339-.299-.923-.299-.534 0-.884.234a.91.91 0 0 0-.416.637h-1.586q.117-1.014.91-1.612.792-.598 2.028-.598 1.313 0 2.067.663.767.65.767 1.768V129H75.65v-1.248h-.26l.26-.351q0 .793-.585 1.261t-1.56.468m.533-1.222q.689 0 1.118-.351.441-.35.442-.91v-.871h-1.755q-.495 0-.793.286-.3.286-.3.754 0 .507.339.806.35.286.949.286m7.899 1.222q-.91 0-1.6-.338a2.6 2.6 0 0 1-1.052-.975q-.377-.637-.377-1.495v-1.794q0-.871.377-1.495a2.5 2.5 0 0 1 1.053-.962q.688-.351 1.599-.351 1.35 0 2.158.702.806.689.845 1.885h-1.625q-.039-.56-.403-.858-.352-.312-.975-.312-.65 0-1.027.364-.377.351-.377 1.014v1.807q0 .663.377 1.027.376.364 1.027.364.623 0 .975-.299.364-.312.403-.871h1.625q-.04 1.196-.845 1.898-.807.689-2.158.689m4.7-.13v-9.49h1.626v5.148h1.13l1.743-2.808h1.82l-2.159 3.458 2.2 3.692h-1.858l-1.743-2.964h-1.13V129zm8.537 2.34v-1.352h2.118q.547 0 .82-.273.272-.26.272-.754v-.533l.026-1.339h-.35l.35-.351q0 .871-.52 1.365-.506.481-1.377.481-1.093 0-1.743-.741-.636-.74-.637-2.002v-1.391q0-1.248.637-1.989.65-.741 1.742-.741.871 0 1.379.494.52.481.52 1.352l-.352-.351h.351l-.038-1.365h1.625V129q0 1.079-.715 1.703-.716.637-1.964.637zm1.885-4.16q.623 0 .961-.364.352-.377.352-1.04v-1.248q0-.663-.352-1.027-.338-.377-.962-.377t-.962.364-.338 1.04v1.248q0 .676.338 1.04t.963.364m4.96 1.82v-7.15h1.534v1.365h.403l-.481.832q0-1.157.52-1.742t1.534-.585q1.158 0 1.82.715t.663 1.976v.52h-1.703v-.403q0-.689-.364-1.066-.351-.377-.975-.377-.636 0-.988.377-.338.377-.338 1.066V129zm10.278.117q-.91 0-1.586-.338a2.63 2.63 0 0 1-1.04-.975q-.363-.637-.364-1.495v-1.768q0-.858.364-1.482.377-.637 1.04-.975.677-.351 1.586-.351.924 0 1.586.351.663.338 1.027.975.377.624.377 1.469v1.781q0 .858-.377 1.495a2.53 2.53 0 0 1-1.027.975q-.662.338-1.586.338m0-1.417q.65 0 1.001-.351.364-.364.364-1.04v-1.768q0-.689-.364-1.04-.35-.351-1.001-.351-.636 0-1.001.351-.363.351-.364 1.04v1.768q0 .676.364 1.04.365.351 1.001.351m7.6 1.43q-1.365 0-2.145-.754-.78-.767-.78-2.08v-4.446h1.625v4.433q0 .689.338 1.066.338.364.962.364.612 0 .949-.364.351-.377.351-1.066v-4.433h1.625v4.446q0 1.313-.793 2.08-.792.754-2.132.754m4.701-.13v-7.15h1.586v1.365h.442l-.442.377q0-.884.507-1.378.52-.494 1.417-.494 1.053 0 1.677.702.637.702.637 1.885V129h-1.625v-4.524q0-.65-.338-1.001t-.949-.351q-.598 0-.949.364-.338.364-.338 1.04V129zm9.888.13q-1.066 0-1.729-.741-.65-.741-.65-1.989v-1.937q0-1.261.65-2.002t1.729-.741q.883 0 1.404.507.52.494.52 1.365l-.364-.377h.377l-.052-1.703v-2.002h1.625V129h-1.586v-1.365h-.364l.364-.377q0 .871-.52 1.378-.52.494-1.404.494m.572-1.404q.624 0 .962-.364.351-.377.351-1.04v-1.794q0-.663-.351-1.027-.338-.377-.962-.377t-.975.364-.351 1.04v1.794q0 .676.351 1.04t.975.364m4.519 3.068v-1.469h6.24v1.469zm10.759-1.664q-.91 0-1.599-.338a2.6 2.6 0 0 1-1.053-.975q-.377-.637-.377-1.495v-1.794q0-.871.377-1.495a2.5 2.5 0 0 1 1.053-.962q.689-.351 1.599-.351 1.352 0 2.158.702.806.689.845 1.885h-1.625q-.039-.56-.403-.858-.351-.312-.975-.312-.65 0-1.027.364-.377.351-.377 1.014v1.807q0 .663.377 1.027t1.027.364q.624 0 .975-.299.364-.312.403-.871h1.625q-.04 1.196-.845 1.898-.806.689-2.158.689m7.561-.013q-.91 0-1.586-.338a2.6 2.6 0 0 1-1.04-.975q-.364-.637-.364-1.495v-1.768q0-.858.364-1.482.377-.637 1.04-.975.675-.351 1.586-.351.923 0 1.586.351.663.338 1.027.975.377.624.377 1.469v1.781q0 .858-.377 1.495a2.54 2.54 0 0 1-1.027.975q-.663.338-1.586.338m0-1.417q.65 0 1.001-.351.363-.364.364-1.04v-1.768q0-.689-.364-1.04-.351-.351-1.001-.351-.638 0-1.001.351-.364.351-.364 1.04v1.768q0 .676.364 1.04.363.351 1.001.351m8.692 1.3q-.702 0-1.235-.286a2.1 2.1 0 0 1-.819-.806 2.45 2.45 0 0 1-.299-1.222v-5.707h-2.288v-1.469h3.913v7.176q0 .39.221.624.234.22.624.221h2.158V129zm6.508.117q-.91 0-1.586-.338a2.6 2.6 0 0 1-1.04-.975q-.364-.637-.364-1.495v-1.768q0-.858.364-1.482.377-.637 1.04-.975.675-.351 1.586-.351.923 0 1.586.351.663.338 1.027.975.377.624.377 1.469v1.781q0 .858-.377 1.495a2.54 2.54 0 0 1-1.027.975q-.663.338-1.586.338m0-1.417q.65 0 1.001-.351.364-.364.364-1.04v-1.768q0-.689-.364-1.04-.351-.351-1.001-.351-.638 0-1.001.351-.364.351-.364 1.04v1.768q0 .676.364 1.04.363.351 1.001.351m4.922 1.3v-7.15h1.534v1.365h.403l-.481.832q0-1.157.52-1.742t1.534-.585q1.157 0 1.82.715t.663 1.976v.52h-1.703v-.403q0-.689-.364-1.066-.351-.377-.975-.377-.637 0-.988.377-.338.377-.338 1.066V129zm7.444-5.135v-1.495h5.668v1.495zm0 3.185v-1.495h5.668v1.495zm11.213-3.64-.169-2.197v-1.703h1.638v1.703l-.156 2.197zm-2.86 0-.169-2.197v-1.703h1.638v1.703l-.156 2.197zm9.407 5.707q-.818 0-1.43-.26a2.34 2.34 0 0 1-.962-.715 1.97 1.97 0 0 1-.364-1.092h1.625a.71.71 0 0 0 .325.546q.312.208.806.208h.572q.599 0 .897-.234a.76.76 0 0 0 .299-.637.7.7 0 0 0-.273-.585q-.26-.221-.819-.286l-.884-.13q-1.221-.169-1.794-.65-.572-.482-.572-1.443 0-1 .676-1.547.676-.56 1.989-.559h.494q1.197 0 1.911.533.716.533.767 1.43h-1.625q-.039-.286-.325-.468-.272-.182-.728-.182h-.494q-.558 0-.819.208-.247.195-.247.585 0 .364.221.546.222.17.715.247l.923.13q1.275.182 1.872.689.611.494.611 1.469 0 1.04-.715 1.625-.702.572-2.08.572zm8.965-.117q-.701 0-1.235-.286a2.1 2.1 0 0 1-.819-.806 2.46 2.46 0 0 1-.299-1.222v-5.707h-2.288v-1.469h3.913v7.176q0 .39.221.624.234.22.624.221h2.158V129zm5.715.13q-1.104 0-1.742-.585t-.637-1.573q0-1.053.702-1.625t1.989-.572h1.781v-.611q0-.52-.338-.806-.338-.299-.923-.299-.533 0-.884.234a.92.92 0 0 0-.416.637h-1.586q.118-1.014.91-1.612.794-.598 2.028-.598 1.314 0 2.067.663.767.65.767 1.768V129h-1.573v-1.248h-.26l.26-.351q0 .793-.585 1.261t-1.56.468m.533-1.222q.69 0 1.118-.351.442-.35.442-.91v-.871h-1.755q-.493 0-.793.286-.299.286-.299.754 0 .507.338.806.352.286.949.286m8.64 1.092q-1.027 0-1.612-.572-.572-.572-.572-1.573v-3.536h-1.937v-1.469h1.937v-2.015h1.638v2.015h2.743v1.469h-2.743v3.536q0 .676.663.676h1.95V129zm6.833.13q-.91 0-1.586-.351a2.6 2.6 0 0 1-1.053-.975q-.364-.637-.364-1.482v-1.794q0-.845.364-1.469a2.57 2.57 0 0 1 1.053-.988q.676-.351 1.586-.351.897 0 1.56.351.676.35 1.04.988.377.624.377 1.469v1.287h-4.407v.507q0 .754.364 1.144.364.377 1.079.377.546 0 .884-.182a.87.87 0 0 0 .429-.559h1.599q-.182.922-.988 1.482-.793.546-1.937.546m1.404-4.225v-.39q0-.741-.351-1.131-.351-.403-1.053-.403t-1.066.403-.364 1.144v.273l2.951-.026zm4.103.559v-1.508h4.16v1.508zm6.807 3.536v-1.573l2.964-2.977q.624-.637.923-1.144.299-.52.299-1.066 0-.663-.364-1.027-.364-.377-.988-.377-.689 0-1.079.403-.39.39-.39 1.092h-1.625q.013-.91.39-1.56a2.66 2.66 0 0 1 1.092-1.027q.702-.364 1.638-.364.897 0 1.56.338t1.027.949.364 1.456q0 .871-.455 1.703-.442.819-1.43 1.768l-1.976 1.937h3.978V129zm11.253-5.59-.169-2.197v-1.703h1.638v1.703l-.156 2.197zm-2.86 0-.169-2.197v-1.703h1.638v1.703l-.156 2.197zm7.73 7.67 1.04-4.043h2.08l-1.69 4.043zm-195.61 22.05q-.91 0-1.598-.338a2.6 2.6 0 0 1-1.053-.975q-.378-.637-.377-1.495v-1.794q0-.871.377-1.495a2.5 2.5 0 0 1 1.053-.962q.69-.351 1.599-.351 1.351 0 2.158.702.806.689.845 1.885h-1.625q-.039-.56-.403-.858-.352-.312-.975-.312-.65 0-1.027.364-.377.351-.377 1.014v1.807q0 .663.377 1.027.376.364 1.027.364.623 0 .975-.299.364-.312.403-.871h1.625q-.04 1.196-.845 1.898-.807.689-2.158.689m7.562-.013q-.91 0-1.586-.338a2.6 2.6 0 0 1-1.04-.975q-.364-.637-.364-1.495v-1.768q0-.858.364-1.482.377-.638 1.04-.975.675-.351 1.586-.351.923 0 1.586.351.663.338 1.027.975.377.624.377 1.469v1.781q0 .858-.377 1.495a2.53 2.53 0 0 1-1.027.975q-.663.338-1.586.338m0-1.417q.65 0 1-.351.365-.364.365-1.04v-1.768q0-.689-.364-1.04-.351-.351-1.001-.351-.638 0-1.001.351-.364.351-.364 1.04v1.768q0 .676.364 1.04.363.351 1 .351m8.692 1.3q-.702 0-1.235-.286a2.1 2.1 0 0 1-.82-.806 2.46 2.46 0 0 1-.298-1.222v-5.707H78.35v-1.469h3.913v7.176q0 .39.22.624.235.22.625.221h2.158V153zm6.507.117q-.91 0-1.585-.338a2.6 2.6 0 0 1-1.04-.975q-.364-.637-.364-1.495v-1.768q-.001-.858.364-1.482.376-.638 1.04-.975.676-.351 1.585-.351.924 0 1.587.351.663.338 1.026.975.378.624.378 1.469v1.781q0 .858-.377 1.495a2.53 2.53 0 0 1-1.028.975q-.662.338-1.585.338m0-1.417q.65 0 1.002-.351.364-.364.364-1.04v-1.768q0-.689-.364-1.04-.352-.351-1.002-.351-.636 0-1 .351t-.364 1.04v1.768q-.001.676.364 1.04.364.351 1 .351m4.922 1.3v-7.15h1.534v1.365h.404l-.481.832q0-1.157.52-1.742t1.534-.585q1.155 0 1.82.715.662.715.662 1.976v.52H98.71v-.403q.001-.689-.364-1.066-.35-.377-.974-.377-.638 0-.989.377-.338.377-.338 1.066V153zm7.444-5.135v-1.495h5.668v1.495zm0 3.185v-1.495h5.668v1.495zm11.214-3.64-.169-2.197v-1.703h1.638v1.703l-.156 2.197zm-2.86 0-.169-2.197v-1.703h1.638v1.703l-.156 2.197zm9.407 5.707q-.819 0-1.43-.26a2.34 2.34 0 0 1-.962-.715 1.97 1.97 0 0 1-.364-1.092h1.625a.71.71 0 0 0 .325.546q.312.208.806.208h.572q.599 0 .897-.234a.76.76 0 0 0 .299-.637.7.7 0 0 0-.273-.585q-.26-.221-.819-.286l-.884-.13q-1.221-.169-1.794-.65-.572-.482-.572-1.443 0-1 .676-1.547.677-.56 1.989-.559h.494q1.197 0 1.911.533.716.533.767 1.43h-1.625q-.039-.287-.325-.468-.273-.182-.728-.182h-.494q-.558 0-.819.208-.246.195-.247.585 0 .365.221.546.222.17.715.247l.923.13q1.275.182 1.872.689.612.494.611 1.469 0 1.04-.715 1.625-.702.572-2.08.572zm8.965-.117q-.702 0-1.235-.286a2.1 2.1 0 0 1-.819-.806 2.46 2.46 0 0 1-.299-1.222v-5.707h-2.288v-1.469h3.913v7.176q0 .39.221.624.234.22.624.221h2.158V153zm5.715.13q-1.105 0-1.742-.585t-.637-1.573q0-1.053.702-1.625t1.989-.572h1.781v-.611q0-.52-.338-.806-.338-.299-.923-.299-.533 0-.884.234a.91.91 0 0 0-.416.637h-1.586q.117-1.014.91-1.612t2.028-.598q1.313 0 2.067.663.767.65.767 1.768V153h-1.573v-1.248h-.26l.26-.351q0 .793-.585 1.261t-1.56.468m.533-1.222q.689 0 1.118-.351.442-.35.442-.91v-.871h-1.755q-.494 0-.793.286t-.299.754q0 .507.338.806.35.286.949.286m8.64 1.092q-1.027 0-1.612-.572-.572-.572-.572-1.573v-3.536h-1.937v-1.469h1.937v-2.015h1.638v2.015h2.743v1.469h-2.743v3.536q0 .676.663.676h1.95V153zm6.833.13q-.91 0-1.586-.351a2.6 2.6 0 0 1-1.053-.975q-.364-.638-.364-1.482v-1.794q0-.845.364-1.469a2.57 2.57 0 0 1 1.053-.988q.676-.351 1.586-.351.897 0 1.56.351.676.35 1.04.988.377.624.377 1.469v1.287h-4.407v.507q0 .754.364 1.144.364.377 1.079.377.546 0 .884-.182a.87.87 0 0 0 .429-.559h1.599q-.182.923-.988 1.482-.793.546-1.937.546m1.404-4.225v-.39q0-.741-.351-1.131-.351-.403-1.053-.403t-1.066.403-.364 1.144v.273l2.951-.026zm4.103.559v-1.508h4.16v1.508zM162.69 153v-1.43h2.47v-6.617l-2.483 1.846v-1.716l2.184-1.573h1.924v8.06h1.989V153zm7.6 0v-1.43h2.47v-6.617l-2.483 1.846v-1.716l2.184-1.573h1.924v8.06h1.989V153zm11.188-5.59-.169-2.197v-1.703h1.638v1.703l-.156 2.197zm-2.86 0-.169-2.197v-1.703h1.638v1.703l-.156 2.197zm7.73 7.67 1.04-4.043h2.08l-1.69 4.043zM63.801 179.34v-9.49h1.586v1.365h.364l-.364.377q0-.871.52-1.365.519-.507 1.404-.507 1.079 0 1.729.741t.65 1.989v1.937q0 .832-.3 1.456-.285.611-.818.949-.534.338-1.261.338-.885 0-1.404-.494-.52-.507-.52-1.378l.364.377h-.377l.052 1.703v2.002zm2.938-3.614q.623 0 .975-.364.35-.364.35-1.04v-1.794q0-.676-.35-1.04-.352-.364-.975-.364-.612 0-.962.377-.351.364-.351 1.027v1.794q0 .663.35 1.04.352.364.963.364m6.768 1.404q-1.106 0-1.742-.585-.637-.585-.637-1.573 0-1.053.702-1.625.701-.572 1.989-.572h1.78v-.611q0-.52-.337-.806-.339-.299-.923-.299-.534 0-.884.234a.91.91 0 0 0-.416.637h-1.586q.117-1.014.91-1.612.792-.598 2.028-.598 1.313 0 2.067.663.767.65.767 1.768V177h-1.573v-1.248h-.26l.26-.351q0 .793-.585 1.261t-1.56.468m.533-1.222q.689 0 1.118-.351.441-.35.442-.91v-.871h-1.755q-.495 0-.793.286-.3.286-.3.754 0 .507.339.806.35.286.949.286m7.249 1.222q-1.066 0-1.73-.741-.65-.741-.65-1.989v-1.937q0-1.261.65-2.002t1.73-.741q.883 0 1.404.507.52.494.52 1.365l-.364-.377h.377l-.052-1.703v-2.002h1.625V177h-1.586v-1.365h-.364l.364-.377q0 .871-.52 1.378-.52.494-1.404.494m.572-1.404q.623 0 .962-.364.35-.377.35-1.04v-1.794q0-.663-.35-1.027-.338-.377-.962-.377t-.975.364-.351 1.04v1.794q0 .676.35 1.04.352.364.976.364m7.027 1.404q-1.065 0-1.729-.741-.65-.741-.65-1.989v-1.937q0-1.261.65-2.002t1.73-.741q.884 0 1.404.507.52.494.52 1.365l-.365-.377h.378l-.052-1.703v-2.002h1.624V177h-1.585v-1.365h-.365l.365-.377q0 .871-.52 1.378-.52.494-1.405.494m.572-1.404q.624 0 .963-.364.35-.377.35-1.04v-1.794q0-.663-.35-1.027-.339-.377-.963-.377t-.974.364-.352 1.04v1.794q0 .676.352 1.04.35.364.974.364M94.188 177v-1.482h2.495v-4.199h-2.17v-1.469h3.73v5.668h2.21V177zm3.145-8.346q-.493 0-.78-.247-.285-.26-.285-.689t.285-.676q.286-.26.78-.26t.78.26q.287.247.287.676t-.287.689q-.285.247-.78.247M101.8 177v-7.15h1.586v1.365h.442l-.442.377q0-.884.507-1.378.52-.494 1.417-.494 1.053 0 1.677.702.637.702.637 1.885V177h-1.625v-4.524q0-.65-.338-1.001-.337-.351-.949-.351-.598 0-.949.364-.338.364-.338 1.04V177zm8.575 2.34v-1.352h2.119q.546 0 .819-.273.273-.26.273-.754v-.533l.026-1.339h-.351l.351-.351q0 .871-.52 1.365-.507.481-1.378.481-1.091 0-1.742-.741-.636-.74-.637-2.002v-1.391q0-1.248.637-1.989.65-.741 1.742-.741.871 0 1.378.494.52.481.52 1.352l-.351-.351h.351l-.039-1.365h1.625V177q0 1.079-.715 1.703-.714.637-1.963.637zm1.885-4.16q.624 0 .962-.364.351-.377.351-1.04v-1.248q0-.663-.351-1.027-.338-.377-.962-.377t-.962.364-.338 1.04v1.248q0 .676.338 1.04.339.364.962.364m4.805-3.315v-1.495h5.668v1.495zm0 3.185v-1.495h5.668v1.495zm11.214-3.64-.169-2.197v-1.703h1.638v1.703l-.156 2.197zm-2.86 0-.169-2.197v-1.703h1.638v1.703l-.156 2.197zm6.872 5.59v-1.43h2.47v-6.617l-2.483 1.846v-1.716l2.184-1.573h1.924v8.06h1.989V177zm10.408.13q-.56 0-.897-.325-.325-.325-.325-.884t.325-.884q.338-.338.897-.338t.884.338q.338.325.338.884t-.338.884q-.325.325-.884.325m7.587 0q-1.312 0-2.106-.65-.793-.663-.871-1.794h1.625q.052.494.39.767.351.26.962.26.676 0 1.027-.351.351-.364.351-1.001v-.923q0-.65-.351-.988-.35-.351-1.027-.351-.416 0-.715.169a1.13 1.13 0 0 0-.455.468h-1.586l.065-5.226h5.343v1.469h-3.809l-.026 2.756h.377l-.39.325q0-.599.468-.936.481-.351 1.287-.351 1.156-.014 1.794.702.65.702.65 1.963v.923q0 1.287-.806 2.028-.793.741-2.197.741m4.935-.13v-7.15h1.534v1.365h.403l-.481.832q0-1.157.52-1.742t1.534-.585q1.157 0 1.82.715t.663 1.976v.52h-1.703v-.403q0-.689-.364-1.066-.351-.377-.975-.377-.637 0-.988.377-.338.377-.338 1.066V177zm10.291.13q-.91 0-1.586-.351a2.6 2.6 0 0 1-1.053-.975q-.364-.638-.364-1.482v-1.794q0-.845.364-1.469a2.57 2.57 0 0 1 1.053-.988q.675-.351 1.586-.351.897 0 1.56.351.675.35 1.04.988.377.624.377 1.469v1.287h-4.407v.507q0 .754.364 1.144.363.377 1.079.377.546 0 .884-.182a.87.87 0 0 0 .429-.559h1.599q-.183.923-.988 1.482-.794.546-1.937.546m1.404-4.225v-.39q0-.741-.351-1.131-.351-.403-1.053-.403t-1.066.403-.364 1.144v.273l2.951-.026zm2.959 4.095v-7.15h1.326v.962h.273l-.221.234q0-.598.338-.962.337-.364.871-.364.572 0 .884.468.325.468.325 1.261l-.286-.637h.442l-.169.234q0-.598.338-.962t.897-.364q.663 0 1.053.494t.39 1.339V177h-1.43v-5.382q0-.351-.156-.546-.156-.208-.455-.208a.57.57 0 0 0-.455.195q-.156.195-.156.559V177h-1.17v-5.382q0-.364-.156-.559t-.455-.195q-.3 0-.455.195-.143.195-.143.559V177zm11.604-5.59-.169-2.197v-1.703h1.638v1.703l-.156 2.197zm-2.86 0-.169-2.197v-1.703h1.638v1.703l-.156 2.197zm7.73 7.67 1.04-4.043h2.08l-1.69 4.043zM64.776 203.34v-1.352h2.119q.546 0 .819-.273.273-.26.273-.754v-.533l.026-1.339h-.351l.35-.351q0 .871-.52 1.365-.506.481-1.377.481-1.092 0-1.742-.741-.637-.74-.637-2.002v-1.391q0-1.248.637-1.989.65-.741 1.742-.741.87 0 1.378.494.52.481.52 1.352l-.351-.351h.35l-.038-1.365h1.625V201q0 1.079-.715 1.703-.715.637-1.963.637zm1.885-4.16q.624 0 .962-.364.35-.377.35-1.04v-1.248q0-.663-.35-1.027-.338-.377-.962-.377t-.962.364-.338 1.04v1.248q0 .676.338 1.04t.962.364m6.846 1.95q-1.106 0-1.742-.585-.637-.585-.637-1.573 0-1.053.702-1.625.701-.572 1.989-.572h1.78v-.611q0-.52-.337-.806-.339-.299-.923-.299-.534 0-.884.234a.91.91 0 0 0-.416.637h-1.586q.117-1.014.91-1.612.792-.598 2.028-.598 1.313 0 2.067.663.767.65.767 1.768V201h-1.573v-1.248h-.26l.26-.351q0 .793-.585 1.261t-1.56.468m.533-1.222q.689 0 1.118-.351.441-.35.442-.91v-.871h-1.755q-.495 0-.793.286-.3.286-.3.754 0 .507.339.806.35.286.949.286M79 203.34v-9.49h1.587v1.365h.364l-.364.377q0-.871.52-1.365.519-.507 1.404-.507 1.078 0 1.729.741.65.741.65 1.989v1.937q0 .832-.3 1.456-.285.611-.818.949-.534.338-1.261.338-.885 0-1.404-.494-.52-.507-.52-1.378l.364.377h-.377l.052 1.703v2.002zm2.939-3.614q.623 0 .975-.364.35-.364.35-1.04v-1.794q0-.676-.35-1.04-.352-.364-.975-.364-.611 0-.962.377-.351.364-.351 1.027v1.794q0 .663.35 1.04.352.364.963.364m4.727-3.861v-1.495h5.668v1.495zm0 3.185v-1.495h5.668v1.495zm11.213-3.64-.169-2.197v-1.703h1.639v1.703l-.157 2.197zm-2.86 0-.169-2.197v-1.703h1.639v1.703l-.157 2.197zm6.872 5.59v-1.43h2.47v-6.617l-2.483 1.846v-1.716l2.184-1.573h1.924v8.06h1.989V201zm10.408.13q-.558 0-.897-.325-.325-.325-.325-.884t.325-.884q.339-.338.897-.338.56 0 .884.338.338.325.338.884t-.338.884q-.324.325-.884.325m7.587 0q-1.312 0-2.106-.65-.793-.663-.871-1.794h1.625q.052.494.39.767.351.26.962.26.676 0 1.027-.351.351-.364.351-1.001v-.923q0-.65-.351-.988-.35-.351-1.027-.351a1.43 1.43 0 0 0-.715.169 1.13 1.13 0 0 0-.455.468h-1.586l.065-5.226h5.343v1.469h-3.809l-.026 2.756h.377l-.39.325q0-.599.468-.936.481-.351 1.287-.351 1.158-.014 1.794.702.65.702.65 1.963v.923q0 1.287-.806 2.028-.793.741-2.197.741m4.935-.13v-7.15h1.534v1.365h.403l-.481.832q0-1.157.52-1.742t1.534-.585q1.157 0 1.82.715t.663 1.976v.52h-1.703v-.403q0-.689-.364-1.066-.351-.377-.975-.377-.637 0-.988.377-.338.377-.338 1.066V201zm10.291.13q-.91 0-1.586-.351a2.6 2.6 0 0 1-1.053-.975q-.364-.638-.364-1.482v-1.794q0-.845.364-1.469a2.57 2.57 0 0 1 1.053-.988q.676-.351 1.586-.351.897 0 1.56.351.676.35 1.04.988.377.624.377 1.469v1.287h-4.407v.507q0 .754.364 1.144.364.377 1.079.377.546 0 .884-.182a.87.87 0 0 0 .429-.559h1.599q-.182.923-.988 1.482-.793.546-1.937.546m1.404-4.225v-.39q0-.741-.351-1.131-.351-.403-1.053-.403t-1.066.403-.364 1.144v.273l2.951-.026zm2.959 4.095v-7.15h1.326v.962h.273l-.221.234q0-.598.338-.962t.871-.364q.572 0 .884.468.325.468.325 1.261l-.286-.637h.442l-.169.234q0-.598.338-.962.337-.364.897-.364.663 0 1.053.494t.39 1.339V201h-1.43v-5.382q0-.351-.156-.546-.156-.208-.455-.208a.57.57 0 0 0-.455.195q-.156.195-.156.559V201h-1.17v-5.382q0-.364-.156-.559t-.455-.195-.455.195q-.143.195-.143.559V201zm11.604-5.59-.169-2.197v-1.703h1.638v1.703l-.156 2.197zm-2.86 0-.169-2.197v-1.703h1.638v1.703l-.156 2.197zm7.73 7.67 1.04-4.043h2.08l-1.69 4.043zM67.479 225q-1.026 0-1.611-.572-.572-.572-.572-1.573v-3.536h-1.937v-1.469h1.937v-2.015h1.638v2.015h2.743v1.469h-2.743v3.536q0 .676.663.676h1.95V225zm6.834.13q-.91 0-1.586-.351a2.6 2.6 0 0 1-1.053-.975q-.364-.638-.364-1.482v-1.794q0-.845.364-1.469a2.57 2.57 0 0 1 1.053-.988q.675-.351 1.586-.351.897 0 1.56.351.675.35 1.04.988.377.624.377 1.469v1.287h-4.407v.507q0 .754.364 1.144.363.377 1.079.377.546 0 .884-.182a.87.87 0 0 0 .429-.559h1.599q-.183.923-.988 1.482-.794.546-1.937.546m1.404-4.225v-.39q0-.741-.351-1.131-.351-.403-1.053-.403t-1.066.403-.364 1.144v.273l2.95-.026zm2.75 4.095 2.497-3.692-2.327-3.458h1.833l1.105 1.755q.104.156.182.351l.143.312q.051-.117.143-.312.09-.195.182-.351l1.118-1.755h1.833l-2.327 3.458L85.332 225h-1.846l-1.235-1.963a4 4 0 0 1-.195-.364 5 5 0 0 0-.156-.312l-.143.312q-.092.195-.195.364L80.3 225zm11.813 0q-1.027 0-1.612-.572-.573-.572-.573-1.573v-3.536H86.16v-1.469h1.936v-2.015h1.639v2.015h2.743v1.469h-2.743v3.536q0 .676.663.676h1.95V225zm3.7 1.794v-1.469h6.239v1.469zm9.926-1.664q-1.104 0-1.742-.585-.636-.585-.637-1.573 0-1.053.702-1.625t1.989-.572h1.781v-.611q0-.52-.338-.806-.338-.299-.923-.299-.533 0-.884.234a.92.92 0 0 0-.416.637h-1.586q.118-1.014.91-1.612.793-.598 2.028-.598 1.314 0 2.067.663.767.65.767 1.768V225h-1.573v-1.248h-.26l.26-.351q0 .793-.585 1.261t-1.56.468m.533-1.222q.69 0 1.118-.351.442-.35.442-.91v-.871h-1.755q-.493 0-.793.286-.299.286-.299.754 0 .507.338.806.352.286.949.286m8.952 1.092q-.702 0-1.235-.286a2.1 2.1 0 0 1-.819-.806 2.46 2.46 0 0 1-.299-1.222v-5.707h-2.288v-1.469h3.913v7.176q0 .39.221.624.234.22.624.221h2.158V225zm3.596 0v-1.482h2.496v-4.199h-2.171v-1.469h3.731v5.668h2.21V225zm3.146-8.346q-.493 0-.78-.247-.286-.26-.286-.689t.286-.676q.287-.26.78-.26.495 0 .78.26.286.247.286.676t-.286.689q-.285.247-.78.247m5.442 10.686v-1.352h2.119q.546 0 .819-.273.273-.26.273-.754v-.533l.026-1.339h-.351l.351-.351q0 .871-.52 1.365-.507.481-1.378.481-1.092 0-1.742-.741-.637-.74-.637-2.002v-1.391q0-1.248.637-1.989.65-.741 1.742-.741.871 0 1.378.494.52.481.52 1.352l-.351-.351h.351l-.039-1.365h1.625V225q0 1.079-.715 1.703-.715.637-1.963.637zm1.885-4.16q.624 0 .962-.364.351-.377.351-1.04v-1.248q0-.663-.351-1.027-.338-.377-.962-.377t-.962.364-.338 1.04v1.248q0 .676.338 1.04t.962.364m4.74 1.82v-7.15h1.586v1.365h.442l-.442.377q0-.884.507-1.378.52-.494 1.417-.494 1.053 0 1.677.702.637.702.637 1.885V225h-1.625v-4.524q0-.65-.338-1.001t-.949-.351q-.598 0-.949.364-.338.364-.338 1.04V225zm7.665-5.135v-1.495h5.668v1.495zm0 3.185v-1.495h5.668v1.495zm11.214-3.64-.169-2.197v-1.703h1.638v1.703l-.156 2.197zm-2.86 0-.169-2.197v-1.703h1.638v1.703l-.156 2.197zm10.772 5.59q-.702 0-1.235-.286a2.1 2.1 0 0 1-.819-.806 2.45 2.45 0 0 1-.299-1.222v-5.707h-2.288v-1.469h3.913v7.176q0 .39.221.624.234.22.624.221h2.158V225zm6.521.13q-.91 0-1.586-.351a2.6 2.6 0 0 1-1.053-.975q-.364-.638-.364-1.482v-1.794q0-.845.364-1.469a2.57 2.57 0 0 1 1.053-.988q.675-.351 1.586-.351.897 0 1.56.351.675.35 1.04.988.377.624.377 1.469v1.287h-4.407v.507q0 .754.364 1.144.363.377 1.079.377.546 0 .884-.182a.87.87 0 0 0 .429-.559h1.599q-.183.923-.988 1.482-.794.546-1.937.546m1.404-4.225v-.39q0-.741-.351-1.131-.351-.403-1.053-.403t-1.066.403-.364 1.144v.273l2.951-.026zm4.948 4.095v-4.888h-1.963v-1.469h1.963v-1.079q0-.936.624-1.495.624-.56 1.651-.559h2.093v1.43h-2.054a.72.72 0 0 0-.507.182q-.183.17-.182.468v1.053h2.743v1.469h-2.743V225zm9.615 0q-1.027 0-1.612-.572-.572-.572-.572-1.573v-3.536h-1.937v-1.469h1.937v-2.015h1.638v2.015h2.743v1.469h-2.743v3.536q0 .676.663.676h1.95V225zm7.6-5.59-.169-2.197v-1.703h1.638v1.703l-.156 2.197zm-2.86 0-.169-2.197v-1.703h1.638v1.703l-.156 2.197zm7.729 7.67 1.04-4.043h2.08l-1.69 4.043z"/><ellipse cx="260.5" cy="104" fill="url(#c)" rx="229.5" ry="104"/><g clip-path="url(#d)" filter="url(#e)"><g opacity=".2"><g clip-path="url(#f)"><path stroke="#6E56CF" d="m140.433 227.539-46-79.674m50 79.674-46-79.674m50 79.674-46-79.674m50 79.674-46-79.674m50 79.674-46-79.674m50 79.674-46-79.674m50 79.674-46-79.674m50 79.674-46-79.674m50 79.674-46-79.674m50 79.674-46-79.674m50 79.674-46-79.674m50 79.674-46-79.674m50 79.674-46-79.674m50 79.674-46-79.674m50 79.674-46-79.674m50 79.674-46-79.674m50 79.674-46-79.674m50 79.674-46-79.674m50 79.674-46-79.674m50 79.674-46-79.674m50 79.674-46-79.674m50 79.674-46-79.674m50 79.674-46-79.674m50 79.674-46-79.674m114 79.674-46-79.674m-18 79.674-46-79.674m114 79.674-46-79.674m-18 79.674-46-79.674m114 79.674-46-79.674m-18 79.674-46-79.674m114 79.674-46-79.674m-18 79.674-46-79.674m114 79.674-46-79.674m-18 79.674-46-79.674m114 79.674-46-79.674m-18 79.674-46-79.674m114 79.674-46-79.674m-18 79.674-46-79.674m114 79.674-46-79.674m-18 79.674-46-79.674m114 79.674-46-79.674m-18 79.674-46-79.674m114 79.674-46-79.674m-18 79.674-46-79.674m114 79.674-46-79.674m-18 79.674-46-79.674m114 79.674-46-79.674m-18 79.674-46-79.674m114 79.674-46-79.674m-18 79.674-46-79.674m114 79.674-46-79.674m-18 79.674-46-79.674m114 79.674-46-79.674m-18 79.674-46-79.674m114 79.674-46-79.674m54 79.674-46-79.674m54 79.674-46-79.674m-34 79.674-46-79.674m114 79.674-46-79.674m54 79.674-46-79.674m54 79.674-46-79.674m50 79.674-46-79.674m50 79.674-46-79.674"/></g><g clip-path="url(#g)"><path stroke="#6E56CF" d="m140.433 227.539-46-79.674m50 79.674-46-79.674m50 79.674-46-79.674m50 79.674-46-79.674m50 79.674-46-79.674m50 79.674-46-79.674m50 79.674-46-79.674m50 79.674-46-79.674m50 79.674-46-79.674m50 79.674-46-79.674m50 79.674-46-79.674m50 79.674-46-79.674m50 79.674-46-79.674m50 79.674-46-79.674m50 79.674-46-79.674m50 79.674-46-79.674m50 79.674-46-79.674m50 79.674-46-79.674m50 79.674-46-79.674m50 79.674-46-79.674m50 79.674-46-79.674m50 79.674-46-79.674m50 79.674-46-79.674m50 79.674-46-79.674m114 79.674-46-79.674m-18 79.674-46-79.674m114 79.674-46-79.674m-18 79.674-46-79.674m114 79.674-46-79.674m-18 79.674-46-79.674m114 79.674-46-79.674m-18 79.674-46-79.674m114 79.674-46-79.674m-18 79.674-46-79.674m114 79.674-46-79.674m-18 79.674-46-79.674m114 79.674-46-79.674m-18 79.674-46-79.674m114 79.674-46-79.674m-18 79.674-46-79.674m114 79.674-46-79.674m-18 79.674-46-79.674m114 79.674-46-79.674m-18 79.674-46-79.674m114 79.674-46-79.674m-18 79.674-46-79.674m114 79.674-46-79.674m-18 79.674-46-79.674m114 79.674-46-79.674m-18 79.674-46-79.674m114 79.674-46-79.674m-18 79.674-46-79.674m114 79.674-46-79.674m-18 79.674-46-79.674m114 79.674-46-79.674m54 79.674-46-79.674m54 79.674-46-79.674m-34 79.674-46-79.674m114 79.674-46-79.674m54 79.674-46-79.674m54 79.674-46-79.674m50 79.674-46-79.674m50 79.674-46-79.674"/></g><g clip-path="url(#h)"><path stroke="#6E56CF" d="m140.433 227.539-46-79.674m50 79.674-46-79.674m50 79.674-46-79.674m50 79.674-46-79.674m50 79.674-46-79.674m50 79.674-46-79.674m50 79.674-46-79.674m50 79.674-46-79.674m50 79.674-46-79.674m50 79.674-46-79.674m50 79.674-46-79.674m50 79.674-46-79.674m50 79.674-46-79.674m50 79.674-46-79.674m50 79.674-46-79.674m50 79.674-46-79.674m50 79.674-46-79.674m50 79.674-46-79.674m50 79.674-46-79.674m50 79.674-46-79.674m50 79.674-46-79.674m50 79.674-46-79.674m50 79.674-46-79.674m50 79.674-46-79.674m114 79.674-46-79.674m-18 79.674-46-79.674m114 79.674-46-79.674m-18 79.674-46-79.674m114 79.674-46-79.674m-18 79.674-46-79.674m114 79.674-46-79.674m-18 79.674-46-79.674m114 79.674-46-79.674m-18 79.674-46-79.674m114 79.674-46-79.674m-18 79.674-46-79.674m114 79.674-46-79.674m-18 79.674-46-79.674m114 79.674-46-79.674m-18 79.674-46-79.674m114 79.674-46-79.674m-18 79.674-46-79.674m114 79.674-46-79.674m-18 79.674-46-79.674m114 79.674-46-79.674m-18 79.674-46-79.674m114 79.674-46-79.674m-18 79.674-46-79.674m114 79.674-46-79.674m-18 79.674-46-79.674m114 79.674-46-79.674m-18 79.674-46-79.674m114 79.674-46-79.674m-18 79.674-46-79.674m114 79.674-46-79.674m54 79.674-46-79.674m54 79.674-46-79.674m-34 79.674-46-79.674m114 79.674-46-79.674m54 79.674-46-79.674m54 79.674-46-79.674m50 79.674-46-79.674m50 79.674-46-79.674"/></g><g clip-path="url(#i)"><path stroke="#6E56CF" d="m140.433 227.539-46-79.674m50 79.674-46-79.674m50 79.674-46-79.674m50 79.674-46-79.674m50 79.674-46-79.674m50 79.674-46-79.674m50 79.674-46-79.674m50 79.674-46-79.674m50 79.674-46-79.674m50 79.674-46-79.674m50 79.674-46-79.674m50 79.674-46-79.674m50 79.674-46-79.674m50 79.674-46-79.674m50 79.674-46-79.674m50 79.674-46-79.674m50 79.674-46-79.674m50 79.674-46-79.674m50 79.674-46-79.674m50 79.674-46-79.674m50 79.674-46-79.674m50 79.674-46-79.674m50 79.674-46-79.674m50 79.674-46-79.674m114 79.674-46-79.674m-18 79.674-46-79.674m114 79.674-46-79.674m-18 79.674-46-79.674m114 79.674-46-79.674m-18 79.674-46-79.674m114 79.674-46-79.674m-18 79.674-46-79.674m114 79.674-46-79.674m-18 79.674-46-79.674m114 79.674-46-79.674m-18 79.674-46-79.674m114 79.674-46-79.674m-18 79.674-46-79.674m114 79.674-46-79.674m-18 79.674-46-79.674m114 79.674-46-79.674m-18 79.674-46-79.674m114 79.674-46-79.674m-18 79.674-46-79.674m114 79.674-46-79.674m-18 79.674-46-79.674m114 79.674-46-79.674m-18 79.674-46-79.674m114 79.674-46-79.674m-18 79.674-46-79.674m114 79.674-46-79.674m-18 79.674-46-79.674m114 79.674-46-79.674m-18 79.674-46-79.674m114 79.674-46-79.674m54 79.674-46-79.674m54 79.674-46-79.674m-34 79.674-46-79.674m114 79.674-46-79.674m54 79.674-46-79.674m54 79.674-46-79.674m50 79.674-46-79.674m50 79.674-46-79.674"/></g></g><path stroke="#6E56CF" stroke-dasharray="2 2" d="M136 200.5h212m-212-25h212m-196.5.5v24m25-24v24m15-24v24" opacity=".72"/><rect width="20" height="20" x="154" y="178" fill="#6E56CF" rx="6"/><path stroke="#D4CAFE" stroke-linecap="round" stroke-linejoin="round" stroke-width="2" d="m160 188.818 2.286 2.182 5.714-6"/><rect width="140" height="8" x="192" y="184" fill="#303236" rx="4"/></g><path stroke="#27282B" stroke-dasharray="2 2" d="M136.5 40v240M112 64.5h215m-215 79h236m-236 25h236m-236 39h236"/><g filter="url(#j)"><g clip-path="url(#k)"><rect width="212" height="80" x="136" y="64" fill="#1A1B1D" fill-opacity=".48" rx="16"/><g opacity=".2"><g clip-path="url(#l)"><path stroke="#6E56CF" d="m140.433 143.539-46-79.674m50 79.674-46-79.674m50 79.674-46-79.674m50 79.674-46-79.674m50 79.674-46-79.674m50 79.674-46-79.674m50 79.674-46-79.674m50 79.674-46-79.674m50 79.674-46-79.674m50 79.674-46-79.674m50 79.674-46-79.674m50 79.674-46-79.674m50 79.674-46-79.674m50 79.674-46-79.674m50 79.674-46-79.674m50 79.674-46-79.674m50 79.674-46-79.674m50 79.674-46-79.674m50 79.674-46-79.674m50 79.674-46-79.674m50 79.674-46-79.674m50 79.674-46-79.674m50 79.674-46-79.674m50 79.674-46-79.674m114 79.674-46-79.674m-18 79.674-46-79.674m114 79.674-46-79.674m-18 79.674-46-79.674m114 79.674-46-79.674m-18 79.674-46-79.674m114 79.674-46-79.674m-18 79.674-46-79.674m114 79.674-46-79.674m-18 79.674-46-79.674m114 79.674-46-79.674m-18 79.674-46-79.674m114 79.674-46-79.674m-18 79.674-46-79.674m114 79.674-46-79.674m-18 79.674-46-79.674m114 79.674-46-79.674m-18 79.674-46-79.674m114 79.674-46-79.674m-18 79.674-46-79.674m114 79.674-46-79.674m-18 79.674-46-79.674m114 79.674-46-79.674m-18 79.674-46-79.674m114 79.674-46-79.674m-18 79.674-46-79.674m114 79.674-46-79.674m-18 79.674-46-79.674m114 79.674-46-79.674m-18 79.674-46-79.674m114 79.674-46-79.674m54 79.674-46-79.674m54 79.674-46-79.674m-34 79.674-46-79.674m114 79.674-46-79.674m54 79.674-46-79.674m54 79.674-46-79.674m50 79.674-46-79.674m50 79.674-46-79.674"/></g><g clip-path="url(#m)"><path stroke="#6E56CF" d="m140.433 143.539-46-79.674m50 79.674-46-79.674m50 79.674-46-79.674m50 79.674-46-79.674m50 79.674-46-79.674m50 79.674-46-79.674m50 79.674-46-79.674m50 79.674-46-79.674m50 79.674-46-79.674m50 79.674-46-79.674m50 79.674-46-79.674m50 79.674-46-79.674m50 79.674-46-79.674m50 79.674-46-79.674m50 79.674-46-79.674m50 79.674-46-79.674m50 79.674-46-79.674m50 79.674-46-79.674m50 79.674-46-79.674m50 79.674-46-79.674m50 79.674-46-79.674m50 79.674-46-79.674m50 79.674-46-79.674m50 79.674-46-79.674m114 79.674-46-79.674m-18 79.674-46-79.674m114 79.674-46-79.674m-18 79.674-46-79.674m114 79.674-46-79.674m-18 79.674-46-79.674m114 79.674-46-79.674m-18 79.674-46-79.674m114 79.674-46-79.674m-18 79.674-46-79.674m114 79.674-46-79.674m-18 79.674-46-79.674m114 79.674-46-79.674m-18 79.674-46-79.674m114 79.674-46-79.674m-18 79.674-46-79.674m114 79.674-46-79.674m-18 79.674-46-79.674m114 79.674-46-79.674m-18 79.674-46-79.674m114 79.674-46-79.674m-18 79.674-46-79.674m114 79.674-46-79.674m-18 79.674-46-79.674m114 79.674-46-79.674m-18 79.674-46-79.674m114 79.674-46-79.674m-18 79.674-46-79.674m114 79.674-46-79.674m-18 79.674-46-79.674m114 79.674-46-79.674m54 79.674-46-79.674m54 79.674-46-79.674m-34 79.674-46-79.674m114 79.674-46-79.674m54 79.674-46-79.674m54 79.674-46-79.674m50 79.674-46-79.674m50 79.674-46-79.674"/></g><g clip-path="url(#n)"><path stroke="#6E56CF" d="m140.433 143.539-46-79.674m50 79.674-46-79.674m50 79.674-46-79.674m50 79.674-46-79.674m50 79.674-46-79.674m50 79.674-46-79.674m50 79.674-46-79.674m50 79.674-46-79.674m50 79.674-46-79.674m50 79.674-46-79.674m50 79.674-46-79.674m50 79.674-46-79.674m50 79.674-46-79.674m50 79.674-46-79.674m50 79.674-46-79.674m50 79.674-46-79.674m50 79.674-46-79.674m50 79.674-46-79.674m50 79.674-46-79.674m50 79.674-46-79.674m50 79.674-46-79.674m50 79.674-46-79.674m50 79.674-46-79.674m50 79.674-46-79.674m114 79.674-46-79.674m-18 79.674-46-79.674m114 79.674-46-79.674m-18 79.674-46-79.674m114 79.674-46-79.674m-18 79.674-46-79.674m114 79.674-46-79.674m-18 79.674-46-79.674m114 79.674-46-79.674m-18 79.674-46-79.674m114 79.674-46-79.674m-18 79.674-46-79.674m114 79.674-46-79.674m-18 79.674-46-79.674m114 79.674-46-79.674m-18 79.674-46-79.674m114 79.674-46-79.674m-18 79.674-46-79.674m114 79.674-46-79.674m-18 79.674-46-79.674m114 79.674-46-79.674m-18 79.674-46-79.674m114 79.674-46-79.674m-18 79.674-46-79.674m114 79.674-46-79.674m-18 79.674-46-79.674m114 79.674-46-79.674m-18 79.674-46-79.674m114 79.674-46-79.674m-18 79.674-46-79.674m114 79.674-46-79.674m54 79.674-46-79.674m54 79.674-46-79.674m-34 79.674-46-79.674m114 79.674-46-79.674m54 79.674-46-79.674m54 79.674-46-79.674m50 79.674-46-79.674m50 79.674-46-79.674"/></g><g clip-path="url(#o)"><path stroke="#6E56CF" d="m140.433 143.539-46-79.674m50 79.674-46-79.674m50 79.674-46-79.674m50 79.674-46-79.674m50 79.674-46-79.674m50 79.674-46-79.674m50 79.674-46-79.674m50 79.674-46-79.674m50 79.674-46-79.674m50 79.674-46-79.674m50 79.674-46-79.674m50 79.674-46-79.674m50 79.674-46-79.674m50 79.674-46-79.674m50 79.674-46-79.674m50 79.674-46-79.674m50 79.674-46-79.674m50 79.674-46-79.674m50 79.674-46-79.674m50 79.674-46-79.674m50 79.674-46-79.674m50 79.674-46-79.674m50 79.674-46-79.674m50 79.674-46-79.674m114 79.674-46-79.674m-18 79.674-46-79.674m114 79.674-46-79.674m-18 79.674-46-79.674m114 79.674-46-79.674m-18 79.674-46-79.674m114 79.674-46-79.674m-18 79.674-46-79.674m114 79.674-46-79.674m-18 79.674-46-79.674m114 79.674-46-79.674m-18 79.674-46-79.674m114 79.674-46-79.674m-18 79.674-46-79.674m114 79.674-46-79.674m-18 79.674-46-79.674m114 79.674-46-79.674m-18 79.674-46-79.674m114 79.674-46-79.674m-18 79.674-46-79.674m114 79.674-46-79.674m-18 79.674-46-79.674m114 79.674-46-79.674m-18 79.674-46-79.674m114 79.674-46-79.674m-18 79.674-46-79.674m114 79.674-46-79.674m-18 79.674-46-79.674m114 79.674-46-79.674m-18 79.674-46-79.674m114 79.674-46-79.674m54 79.674-46-79.674m54 79.674-46-79.674m-34 79.674-46-79.674m114 79.674-46-79.674m54 79.674-46-79.674m54 79.674-46-79.674m50 79.674-46-79.674m50 79.674-46-79.674"/></g><g clip-path="url(#p)"><path stroke="#6E56CF" d="m140.433 143.539-46-79.674m50 79.674-46-79.674m50 79.674-46-79.674m50 79.674-46-79.674m50 79.674-46-79.674m50 79.674-46-79.674m50 79.674-46-79.674m50 79.674-46-79.674m50 79.674-46-79.674m50 79.674-46-79.674m50 79.674-46-79.674m50 79.674-46-79.674m50 79.674-46-79.674m50 79.674-46-79.674m50 79.674-46-79.674m50 79.674-46-79.674m50 79.674-46-79.674m50 79.674-46-79.674m50 79.674-46-79.674m50 79.674-46-79.674m50 79.674-46-79.674m50 79.674-46-79.674m50 79.674-46-79.674m50 79.674-46-79.674m114 79.674-46-79.674m-18 79.674-46-79.674m114 79.674-46-79.674m-18 79.674-46-79.674m114 79.674-46-79.674m-18 79.674-46-79.674m114 79.674-46-79.674m-18 79.674-46-79.674m114 79.674-46-79.674m-18 79.674-46-79.674m114 79.674-46-79.674m-18 79.674-46-79.674m114 79.674-46-79.674m-18 79.674-46-79.674m114 79.674-46-79.674m-18 79.674-46-79.674m114 79.674-46-79.674m-18 79.674-46-79.674m114 79.674-46-79.674m-18 79.674-46-79.674m114 79.674-46-79.674m-18 79.674-46-79.674m114 79.674-46-79.674m-18 79.674-46-79.674m114 79.674-46-79.674m-18 79.674-46-79.674m114 79.674-46-79.674m-18 79.674-46-79.674m114 79.674-46-79.674m-18 79.674-46-79.674m114 79.674-46-79.674m54 79.674-46-79.674m54 79.674-46-79.674m-34 79.674-46-79.674m114 79.674-46-79.674m54 79.674-46-79.674m54 79.674-46-79.674m50 79.674-46-79.674m50 79.674-46-79.674"/></g></g><path stroke="#6E56CF" stroke-dasharray="2 2" d="M137 79.5h208m-208 49h208M151.5 65v78m25-78v78m15-78v78m.5-44.5h153m-153 11h153" opacity=".72"/><path fill="#6E56CF" fill-rule="evenodd" d="M164 81.25c-5.937 0-10.75 4.813-10.75 10.75s4.813 10.75 10.75 10.75 10.75-4.813 10.75-10.75-4.813-10.75-10.75-10.75" clip-rule="evenodd"/><path fill="#D4CAFE" d="M161.926 90.947c-.573 0-1.037.472-1.037 1.053s.464 1.053 1.037 1.053h.009c.573 0 1.037-.472 1.037-1.053s-.464-1.053-1.037-1.053z"/><path fill="#D4CAFE" d="M159.333 87c-.716 0-1.296.59-1.296 1.316v1.866l-.906 1.38a.8.8 0 0 0 0 .876l.906 1.38v1.866c0 .727.58 1.316 1.296 1.316h1.037c.43 0 .778-.353.778-.79a.784.784 0 0 0-.778-.789h-.777v-1.683c0-.26-.076-.513-.218-.73L158.713 92l.662-1.008a1.33 1.33 0 0 0 .218-.73v-1.683h.777c.43 0 .778-.353.778-.79a.784.784 0 0 0-.778-.789zm6.732 3.947c-.573 0-1.037.472-1.037 1.053s.464 1.053 1.037 1.053h.009c.573 0 1.037-.472 1.037-1.053s-.464-1.053-1.037-1.053z"/><path fill="#D4CAFE" d="M166.852 87.79c0-.437.348-.79.778-.79h1.037c.716 0 1.296.59 1.296 1.316v1.866l.906 1.38a.8.8 0 0 1 0 .876l-.906 1.38v1.866c0 .727-.58 1.316-1.296 1.316h-1.037a.784.784 0 0 1-.778-.79c0-.435.348-.789.778-.789h.777v-1.683c0-.26.076-.513.218-.73l.662-1.008-.662-1.008a1.33 1.33 0 0 1-.218-.73v-1.683h-.777a.784.784 0 0 1-.778-.79"/><rect width="140" height="8" x="192" y="85" fill="#303236" rx="4"/><rect width="140" height="8" x="192" y="115" fill="#303236" rx="4"/></g><rect width="211" height="79" x="136.5" y="64.5" stroke="#27282B" rx="15.5"/></g><path fill="#6E56CF" d="M152 64a16 16 0 0 0-16 16h2.01A13.99 13.99 0 0 1 152 66.01zm0 80a16 16 0 0 1-16-16h2.01a13.99 13.99 0 0 0 8.636 12.925A14 14 0 0 0 152 141.99z"/><path fill="url(#q)" d="M0 0h280v134H0z" transform="rotate(-90 236 44)"/><path fill="url(#r)" d="M0 0h327v140H0z" transform="translate(0 140)"/></g><defs><clipPath id="a"><path fill="#fff" d="M0 0h326v280H0z"/></clipPath><clipPath id="d"><path fill="#fff" d="M136 168h212v40H136z"/></clipPath><clipPath id="f"><path fill="#fff" d="M136 168h212v8H136z"/></clipPath><clipPath id="g"><path fill="#fff" d="M136 176h16v24h-16z"/></clipPath><clipPath id="h"><path fill="#fff" d="M176 176h16v24h-16z"/></clipPath><clipPath id="i"><path fill="#fff" d="M136 200h212v8H136z"/></clipPath><clipPath id="k"><rect width="212" height="80" x="136" y="64" fill="#fff" rx="16"/></clipPath><clipPath id="l"><path fill="#fff" d="M136 64h212v16H136z"/></clipPath><clipPath id="m"><path fill="#fff" d="M192 98h140v12H192z"/></clipPath><clipPath id="n"><path fill="#fff" d="M136 80h16v48h-16z"/></clipPath><clipPath id="o"><path fill="#fff" d="M176 80h16v48h-16z"/></clipPath><clipPath id="p"><path fill="#fff" d="M136 128h212v16H136z"/></clipPath><linearGradient id="b" x1="40" x2="256.096" y1="217.5" y2="270.306" gradientUnits="userSpaceOnUse"><stop stop-color="#6E7287"/><stop offset=".501" stop-color="#222326" stop-opacity=".64"/><stop offset="1" stop-color="#1A1B1D" stop-opacity="0"/></linearGradient><linearGradient id="q" x1="140" x2="140" y1="-25.683" y2="134" gradientUnits="userSpaceOnUse"><stop offset=".41" stop-color="#1A1B1D" stop-opacity="0"/><stop offset=".948" stop-color="#1A1B1D"/></linearGradient><linearGradient id="r" x1="163.5" x2="163.5" y1="0" y2="140" gradientUnits="userSpaceOnUse"><stop stop-color="#1A1B1D" stop-opacity="0"/><stop offset=".719" stop-color="#1A1B1D"/></linearGradient><filter id="e" width="236" height="64" x="124" y="156" color-interpolation-filters="sRGB" filterUnits="userSpaceOnUse"><feFlood flood-opacity="0" result="BackgroundImageFix"/><feGaussianBlur in="BackgroundImageFix" stdDeviation="6"/><feComposite in2="SourceAlpha" operator="in" result="effect1_backgroundBlur_10763_3971"/><feBlend in="SourceGraphic" in2="effect1_backgroundBlur_10763_3971" result="shape"/></filter><filter id="j" width="236" height="104" x="124" y="52" color-interpolation-filters="sRGB" filterUnits="userSpaceOnUse"><feFlood flood-opacity="0" result="BackgroundImageFix"/><feGaussianBlur in="BackgroundImageFix" stdDeviation="6"/><feComposite in2="SourceAlpha" operator="in" result="effect1_backgroundBlur_10763_3971"/><feBlend in="SourceGraphic" in2="effect1_backgroundBlur_10763_3971" result="shape"/></filter><radialGradient id="c" cx="0" cy="0" r="1" gradientTransform="matrix(0 104 -229.5 0 260.5 104)" gradientUnits="userSpaceOnUse"><stop stop-color="#261958"/><stop offset="1" stop-color="#1A1B1D" stop-opacity="0"/></radialGradient></defs></svg>