<svg width="320" height="232" viewBox="0 0 320 232" fill="none" xmlns="http://www.w3.org/2000/svg">
<g filter="url(#filter0_dd_10191_39461)">
<g clip-path="url(#clip0_10191_39461)">
<rect x="52" y="62" width="216" height="108" rx="12" fill="#0E0F10"/>
<path d="M109 142.5C81.5 142.5 67.5 83 42 83V172H284.5V100H276C235.5 100 236.5 134 210 134C183.5 134 179.5 103 160 103C140.5 103 136.5 142.5 109 142.5Z" fill="#140E2B"/>
<path d="M42 83C67.5 83 81.5 142.5 109 142.5C136.5 142.5 140.5 103 160 103C179.5 103 183.5 134 210 134C236.5 134 235.5 100 276 100" stroke="#4329AC" stroke-width="2" stroke-linecap="round"/>
</g>
</g>
<defs>
<filter id="filter0_dd_10191_39461" x="32" y="54" width="256" height="148" filterUnits="userSpaceOnUse" color-interpolation-filters="sRGB">
<feFlood flood-opacity="0" result="BackgroundImageFix"/>
<feColorMatrix in="SourceAlpha" type="matrix" values="0 0 0 0 0 0 0 0 0 0 0 0 0 0 0 0 0 0 127 0" result="hardAlpha"/>
<feOffset dy="12"/>
<feGaussianBlur stdDeviation="10"/>
<feComposite in2="hardAlpha" operator="out"/>
<feColorMatrix type="matrix" values="0 0 0 0 0 0 0 0 0 0 0 0 0 0 0 0 0 0 0.03 0"/>
<feBlend mode="normal" in2="BackgroundImageFix" result="effect1_dropShadow_10191_39461"/>
<feColorMatrix in="SourceAlpha" type="matrix" values="0 0 0 0 0 0 0 0 0 0 0 0 0 0 0 0 0 0 127 0" result="hardAlpha"/>
<feOffset dy="2"/>
<feGaussianBlur stdDeviation="3"/>
<feComposite in2="hardAlpha" operator="out"/>
<feColorMatrix type="matrix" values="0 0 0 0 0 0 0 0 0 0 0 0 0 0 0 0 0 0 0.05 0"/>
<feBlend mode="normal" in2="effect1_dropShadow_10191_39461" result="effect2_dropShadow_10191_39461"/>
<feBlend mode="normal" in="SourceGraphic" in2="effect2_dropShadow_10191_39461" result="shape"/>
</filter>
<clipPath id="clip0_10191_39461">
<rect x="52" y="62" width="216" height="108" rx="12" fill="white"/>
</clipPath>
</defs>
</svg>
