<svg width="320" height="232" viewBox="0 0 320 232" fill="none" xmlns="http://www.w3.org/2000/svg">
<g filter="url(#filter0_dd_10191_39547)">
<g clip-path="url(#clip0_10191_39547)">
<rect x="52" y="62" width="216" height="108" rx="12" fill="#0E0F10"/>
<path d="M110.5 128.006C82.9433 128.006 73.5526 153.5 48 153.5V172.5H291L293 151H284.482C243.899 151 241.555 120 215 120C188.445 120 179.757 151 163 151C146.243 151 138.057 128.006 110.5 128.006Z" fill="#140E2B"/>
<rect x="82" y="126" width="18" height="36" rx="4" fill="#2F1C78"/>
<rect x="128" y="120" width="18" height="42" rx="4" fill="#2F1C78"/>
<rect x="174" y="138" width="18" height="24" rx="4" fill="#2F1C78"/>
<rect x="220" y="106" width="18" height="56" rx="4" fill="#2F1C78"/>
<path d="M276 90C250.5 90 236.5 149.5 209 149.5C181.5 149.5 177.5 110 158 110C138.5 110 134.5 141 108 141C81.5 141 82.5 107 42 107" stroke="#4329AC" stroke-width="2" stroke-linecap="round"/>
</g>
</g>
<defs>
<filter id="filter0_dd_10191_39547" x="32" y="54" width="256" height="148" filterUnits="userSpaceOnUse" color-interpolation-filters="sRGB">
<feFlood flood-opacity="0" result="BackgroundImageFix"/>
<feColorMatrix in="SourceAlpha" type="matrix" values="0 0 0 0 0 0 0 0 0 0 0 0 0 0 0 0 0 0 127 0" result="hardAlpha"/>
<feOffset dy="12"/>
<feGaussianBlur stdDeviation="10"/>
<feComposite in2="hardAlpha" operator="out"/>
<feColorMatrix type="matrix" values="0 0 0 0 0 0 0 0 0 0 0 0 0 0 0 0 0 0 0.03 0"/>
<feBlend mode="normal" in2="BackgroundImageFix" result="effect1_dropShadow_10191_39547"/>
<feColorMatrix in="SourceAlpha" type="matrix" values="0 0 0 0 0 0 0 0 0 0 0 0 0 0 0 0 0 0 127 0" result="hardAlpha"/>
<feOffset dy="2"/>
<feGaussianBlur stdDeviation="3"/>
<feComposite in2="hardAlpha" operator="out"/>
<feColorMatrix type="matrix" values="0 0 0 0 0 0 0 0 0 0 0 0 0 0 0 0 0 0 0.05 0"/>
<feBlend mode="normal" in2="effect1_dropShadow_10191_39547" result="effect2_dropShadow_10191_39547"/>
<feBlend mode="normal" in="SourceGraphic" in2="effect2_dropShadow_10191_39547" result="shape"/>
</filter>
<clipPath id="clip0_10191_39547">
<rect x="52" y="62" width="216" height="108" rx="12" fill="white"/>
</clipPath>
</defs>
</svg>
