<svg width="320" height="232" viewBox="0 0 320 232" fill="none" xmlns="http://www.w3.org/2000/svg">
<g filter="url(#filter0_dd_10191_39591)">
<rect x="52" y="62" width="216" height="108" rx="12" fill="#0E0F10"/>
<rect x="104" y="117" width="2" height="20" fill="#4329AC"/>
<rect width="2" height="8" rx="1" transform="matrix(-4.37114e-08 -1 -1 4.37114e-08 109 117)" fill="#4329AC"/>
<rect width="2" height="8" rx="1" transform="matrix(-1 8.74228e-08 8.74228e-08 1 97 125)" fill="#2F1C78"/>
<rect width="2" height="8" rx="1" transform="matrix(-4.37114e-08 -1 -1 4.37114e-08 109 139)" fill="#4329AC"/>
<rect width="2" height="8" rx="1" transform="matrix(-1 8.74228e-08 8.74228e-08 1 117 125)" fill="#2F1C78"/>
<rect x="97" y="130" width="2" height="18" transform="rotate(-90 97 130)" fill="#2F1C78"/>
<circle cx="105" cy="129" r="4" fill="#5F43D0"/>
<rect x="215" y="126" width="2" height="20" fill="#4329AC"/>
<rect width="2" height="8" rx="1" transform="matrix(-4.37114e-08 -1 -1 4.37114e-08 220 126)" fill="#4329AC"/>
<rect width="2" height="8" rx="1" transform="matrix(-1 8.74228e-08 8.74228e-08 1 206 130)" fill="#2F1C78"/>
<rect width="2" height="8" rx="1" transform="matrix(-4.37114e-08 -1 -1 4.37114e-08 220 148)" fill="#4329AC"/>
<rect width="2" height="8" rx="1" transform="matrix(-1 8.74228e-08 8.74228e-08 1 230 130)" fill="#2F1C78"/>
<rect x="206" y="135" width="2" height="22" transform="rotate(-90 206 135)" fill="#2F1C78"/>
<circle cx="216" cy="134" r="4" fill="#5F43D0"/>
<rect x="157" y="90" width="2" height="16" fill="#4329AC"/>
<rect width="2" height="8" rx="1" transform="matrix(-4.37114e-08 -1 -1 4.37114e-08 162 90)" fill="#4329AC"/>
<rect width="2" height="8" rx="1" transform="matrix(-1 8.74228e-08 8.74228e-08 1 142 94)" fill="#2F1C78"/>
<rect width="2" height="8" rx="1" transform="matrix(-4.37114e-08 -1 -1 4.37114e-08 162 108)" fill="#4329AC"/>
<rect width="2" height="8" rx="1" transform="matrix(-1 8.74228e-08 8.74228e-08 1 176 94)" fill="#2F1C78"/>
<rect x="142" y="99" width="2" height="32" transform="rotate(-90 142 99)" fill="#2F1C78"/>
<circle cx="158" cy="98" r="4" fill="#5F43D0"/>
</g>
<defs>
<filter id="filter0_dd_10191_39591" x="32" y="54" width="256" height="148" filterUnits="userSpaceOnUse" color-interpolation-filters="sRGB">
<feFlood flood-opacity="0" result="BackgroundImageFix"/>
<feColorMatrix in="SourceAlpha" type="matrix" values="0 0 0 0 0 0 0 0 0 0 0 0 0 0 0 0 0 0 127 0" result="hardAlpha"/>
<feOffset dy="12"/>
<feGaussianBlur stdDeviation="10"/>
<feComposite in2="hardAlpha" operator="out"/>
<feColorMatrix type="matrix" values="0 0 0 0 0 0 0 0 0 0 0 0 0 0 0 0 0 0 0.03 0"/>
<feBlend mode="normal" in2="BackgroundImageFix" result="effect1_dropShadow_10191_39591"/>
<feColorMatrix in="SourceAlpha" type="matrix" values="0 0 0 0 0 0 0 0 0 0 0 0 0 0 0 0 0 0 127 0" result="hardAlpha"/>
<feOffset dy="2"/>
<feGaussianBlur stdDeviation="3"/>
<feComposite in2="hardAlpha" operator="out"/>
<feColorMatrix type="matrix" values="0 0 0 0 0 0 0 0 0 0 0 0 0 0 0 0 0 0 0.05 0"/>
<feBlend mode="normal" in2="effect1_dropShadow_10191_39591" result="effect2_dropShadow_10191_39591"/>
<feBlend mode="normal" in="SourceGraphic" in2="effect2_dropShadow_10191_39591" result="shape"/>
</filter>
</defs>
</svg>
