<svg xmlns="http://www.w3.org/2000/svg" width="320" height="232" fill="none" viewBox="0 0 320 232"><g filter="url(#a)"><rect width="216" height="108" x="52" y="62" fill="#0E0F10" rx="12"/><path fill="#4329AC" d="M104 117h2v20h-2z"/><rect width="2" height="8" fill="#4329AC" rx="1" transform="matrix(0 -1 -1 0 109 117)"/><rect width="2" height="8" fill="#2F1C78" rx="1" transform="matrix(-1 0 0 1 97 125)"/><rect width="2" height="8" fill="#4329AC" rx="1" transform="matrix(0 -1 -1 0 109 139)"/><rect width="2" height="8" fill="#2F1C78" rx="1" transform="matrix(-1 0 0 1 117 125)"/><path fill="#2F1C78" d="M97 130v-2h18v2z"/><circle cx="105" cy="129" r="4" fill="#5F43D0"/><path fill="#4329AC" d="M215 126h2v20h-2z"/><rect width="2" height="8" fill="#4329AC" rx="1" transform="matrix(0 -1 -1 0 220 126)"/><rect width="2" height="8" fill="#2F1C78" rx="1" transform="matrix(-1 0 0 1 206 130)"/><rect width="2" height="8" fill="#4329AC" rx="1" transform="matrix(0 -1 -1 0 220 148)"/><rect width="2" height="8" fill="#2F1C78" rx="1" transform="matrix(-1 0 0 1 230 130)"/><path fill="#2F1C78" d="M206 135v-2h22v2z"/><circle cx="216" cy="134" r="4" fill="#5F43D0"/><path fill="#4329AC" d="M157 90h2v16h-2z"/><rect width="2" height="8" fill="#4329AC" rx="1" transform="matrix(0 -1 -1 0 162 90)"/><rect width="2" height="8" fill="#2F1C78" rx="1" transform="matrix(-1 0 0 1 142 94)"/><rect width="2" height="8" fill="#4329AC" rx="1" transform="matrix(0 -1 -1 0 162 108)"/><rect width="2" height="8" fill="#2F1C78" rx="1" transform="matrix(-1 0 0 1 176 94)"/><path fill="#2F1C78" d="M142 99v-2h32v2z"/><circle cx="158" cy="98" r="4" fill="#5F43D0"/></g><defs><filter id="a" width="256" height="148" x="32" y="54" color-interpolation-filters="sRGB" filterUnits="userSpaceOnUse"><feFlood flood-opacity="0" result="BackgroundImageFix"/><feColorMatrix in="SourceAlpha" result="hardAlpha" values="0 0 0 0 0 0 0 0 0 0 0 0 0 0 0 0 0 0 127 0"/><feOffset dy="12"/><feGaussianBlur stdDeviation="10"/><feComposite in2="hardAlpha" operator="out"/><feColorMatrix values="0 0 0 0 0 0 0 0 0 0 0 0 0 0 0 0 0 0 0.03 0"/><feBlend in2="BackgroundImageFix" result="effect1_dropShadow_10191_39591"/><feColorMatrix in="SourceAlpha" result="hardAlpha" values="0 0 0 0 0 0 0 0 0 0 0 0 0 0 0 0 0 0 127 0"/><feOffset dy="2"/><feGaussianBlur stdDeviation="3"/><feComposite in2="hardAlpha" operator="out"/><feColorMatrix values="0 0 0 0 0 0 0 0 0 0 0 0 0 0 0 0 0 0 0.05 0"/><feBlend in2="effect1_dropShadow_10191_39591" result="effect2_dropShadow_10191_39591"/><feBlend in="SourceGraphic" in2="effect2_dropShadow_10191_39591" result="shape"/></filter></defs></svg>