<svg xmlns="http://www.w3.org/2000/svg" width="320" height="232" fill="none" viewBox="0 0 320 232"><g filter="url(#a)"><rect width="216" height="108" x="52" y="62" fill="#0E0F10" rx="12"/><mask id="b" width="168" height="74" x="78" y="78" maskUnits="userSpaceOnUse" style="mask-type:alpha"><path fill="#4B4D53" d="M79.86 85.226C76.743 82.941 78.359 78 82.226 78h159.481c3.349 0 5.215 3.87 3.13 6.49l-21.799 27.398a4 4 0 0 1-1.169.996L187 132.5l-25.281 18.259a4 4 0 0 1-3.711.515l-24.147-8.797a4 4 0 0 1-2.041-1.666l-19.109-31.141a4 4 0 0 0-1.045-1.135z"/></mask><g mask="url(#b)"><path fill="#4329AC" d="M70 78v18h180V78z"/></g><g opacity=".8"><mask id="c" width="168" height="74" x="78" y="79" maskUnits="userSpaceOnUse" style="mask-type:alpha"><path fill="#4B4D53" d="M79.86 86.226C76.743 83.941 78.359 79 82.226 79h159.481c3.349 0 5.215 3.87 3.13 6.49l-21.799 27.398a4 4 0 0 1-1.169.996L187 133.5l-25.281 18.259a4 4 0 0 1-3.711.515l-24.147-8.797a4 4 0 0 1-2.041-1.666l-19.109-31.141a4 4 0 0 0-1.045-1.135z"/></mask><g mask="url(#c)"><path fill="#4329AC" d="M70 98v18h180V98z"/></g></g><g opacity=".6"><mask id="d" width="168" height="74" x="78" y="80" maskUnits="userSpaceOnUse" style="mask-type:alpha"><path fill="#4B4D53" d="M79.86 87.226C76.743 84.941 78.359 80 82.226 80h159.481c3.349 0 5.215 3.87 3.13 6.49l-21.799 27.398a4 4 0 0 1-1.169.996L187 134.5l-25.281 18.259a4 4 0 0 1-3.711.515l-24.147-8.797a4 4 0 0 1-2.041-1.666l-19.109-31.141a4 4 0 0 0-1.045-1.135z"/></mask><g mask="url(#d)"><path fill="#4329AC" d="M70 118v18h180v-18z"/></g></g><g opacity=".4"><mask id="e" width="168" height="74" x="78" y="81" maskUnits="userSpaceOnUse" style="mask-type:alpha"><path fill="#4B4D53" d="M79.86 88.226C76.743 85.941 78.359 81 82.226 81h159.481c3.349 0 5.215 3.87 3.13 6.49l-21.799 27.398a4 4 0 0 1-1.169.996L187 135.5l-25.281 18.259a4 4 0 0 1-3.711.515l-24.147-8.797a4 4 0 0 1-2.041-1.666l-19.109-31.141a4 4 0 0 0-1.045-1.135z"/></mask><g mask="url(#e)"><path fill="#4329AC" d="M70 138v18h180v-18z"/></g></g></g><defs><filter id="a" width="256" height="148" x="32" y="54" color-interpolation-filters="sRGB" filterUnits="userSpaceOnUse"><feFlood flood-opacity="0" result="BackgroundImageFix"/><feColorMatrix in="SourceAlpha" result="hardAlpha" values="0 0 0 0 0 0 0 0 0 0 0 0 0 0 0 0 0 0 127 0"/><feOffset dy="12"/><feGaussianBlur stdDeviation="10"/><feComposite in2="hardAlpha" operator="out"/><feColorMatrix values="0 0 0 0 0 0 0 0 0 0 0 0 0 0 0 0 0 0 0.03 0"/><feBlend in2="BackgroundImageFix" result="effect1_dropShadow_10191_39653"/><feColorMatrix in="SourceAlpha" result="hardAlpha" values="0 0 0 0 0 0 0 0 0 0 0 0 0 0 0 0 0 0 127 0"/><feOffset dy="2"/><feGaussianBlur stdDeviation="3"/><feComposite in2="hardAlpha" operator="out"/><feColorMatrix values="0 0 0 0 0 0 0 0 0 0 0 0 0 0 0 0 0 0 0.05 0"/><feBlend in2="effect1_dropShadow_10191_39653" result="effect2_dropShadow_10191_39653"/><feBlend in="SourceGraphic" in2="effect2_dropShadow_10191_39653" result="shape"/></filter></defs></svg>