<svg width="320" height="232" viewBox="0 0 320 232" fill="none" xmlns="https://www.w3.org/2000/svg">
<g filter="url(#filter0_dd_10191_39749)">
<rect x="52" y="62" width="216" height="108" rx="12" fill="#0E0F10"/>
<path d="M192 116C194.209 116 196.023 117.796 195.778 119.992C195.141 125.7 193.145 131.193 189.933 136.001C185.977 141.921 180.355 146.535 173.777 149.26C167.198 151.984 159.96 152.697 152.977 151.308C145.993 149.919 139.579 146.491 134.544 141.456C129.509 136.421 126.081 130.007 124.692 123.023C123.303 116.04 124.016 108.802 126.74 102.223C129.465 95.6453 134.079 90.0228 139.999 86.0671C144.807 82.8548 150.3 80.8588 156.008 80.222C158.204 79.977 160 81.7909 160 84V112C160 114.209 161.791 116 164 116H192Z" fill="#2F1C78"/>
<path d="M164.103 79.2281C161.24 78.9087 159 81.2725 159 84L159 112C159 114.761 161.239 117 164 117L192 117C194.728 117 197.091 114.76 196.772 111.897C195.846 103.594 192.128 95.8019 186.163 89.8371C180.198 83.8722 172.406 80.1543 164.103 79.2281Z" fill="#4329AC" stroke="#0E0F10" stroke-width="2"/>
</g>
<defs>
<filter id="filter0_dd_10191_39749" x="32" y="54" width="256" height="148" filterUnits="userSpaceOnUse" color-interpolation-filters="sRGB">
<feFlood flood-opacity="0" result="BackgroundImageFix"/>
<feColorMatrix in="SourceAlpha" type="matrix" values="0 0 0 0 0 0 0 0 0 0 0 0 0 0 0 0 0 0 127 0" result="hardAlpha"/>
<feOffset dy="12"/>
<feGaussianBlur stdDeviation="10"/>
<feComposite in2="hardAlpha" operator="out"/>
<feColorMatrix type="matrix" values="0 0 0 0 0 0 0 0 0 0 0 0 0 0 0 0 0 0 0.03 0"/>
<feBlend mode="normal" in2="BackgroundImageFix" result="effect1_dropShadow_10191_39749"/>
<feColorMatrix in="SourceAlpha" type="matrix" values="0 0 0 0 0 0 0 0 0 0 0 0 0 0 0 0 0 0 127 0" result="hardAlpha"/>
<feOffset dy="2"/>
<feGaussianBlur stdDeviation="3"/>
<feComposite in2="hardAlpha" operator="out"/>
<feColorMatrix type="matrix" values="0 0 0 0 0 0 0 0 0 0 0 0 0 0 0 0 0 0 0.05 0"/>
<feBlend mode="normal" in2="effect1_dropShadow_10191_39749" result="effect2_dropShadow_10191_39749"/>
<feBlend mode="normal" in="SourceGraphic" in2="effect2_dropShadow_10191_39749" result="shape"/>
</filter>
</defs>
</svg>
