<svg xmlns="http://www.w3.org/2000/svg" width="320" height="232" fill="none" viewBox="0 0 320 232"><g filter="url(#a)"><rect width="216" height="108" x="52" y="62" fill="#0E0F10" rx="12"/><path stroke="#2F1C78" stroke-width="2" d="M159 81.732a2 2 0 0 1 2 0L189.177 98a2 2 0 0 1 1 1.732v32.536a2 2 0 0 1-1 1.732L161 150.268a2 2 0 0 1-2 0L130.823 134a2 2 0 0 1-1-1.732V99.732a2 2 0 0 1 1-1.732z"/><path stroke="#2F1C78" stroke-width="2" d="M159 93.732a2 2 0 0 1 2 0L178.785 104c.618.357 1 1.018 1 1.732v20.536c0 .714-.382 1.375-1 1.732L161 138.268a2 2 0 0 1-2 0L141.215 128l-.5.866.5-.866a2 2 0 0 1-1-1.732v-20.536c0-.714.382-1.375 1-1.732z"/><path fill="#2F1C78" d="M159 82h2v68h-2z"/><path fill="#2F1C78" d="m130.055 99.866 1-1.732 58.89 34-1 1.732z"/><path fill="#2F1C78" d="m131.055 133.866-1-1.732 58.89-34 1 1.732z"/><path fill="#2F1C78" d="m144.758 125.852 11.628 13.082c1.569 1.765 4.468 1.109 5.124-1.161l4.782-16.552a3 3 0 0 1 .732-1.259l13.149-13.515c1.75-1.798.651-4.822-1.845-5.077l-17.502-1.786a3 3 0 0 0-1.578.268l-13.521 6.339a3 3 0 0 0-1.727 2.716v14.952a3 3 0 0 0 .758 1.993" opacity=".64"/><path stroke="#4329AC" stroke-linecap="round" stroke-width="2" d="m144.758 125.852 11.628 13.082c1.569 1.765 4.468 1.109 5.124-1.161l4.782-16.552a3 3 0 0 1 .732-1.259l13.149-13.515c1.75-1.798.651-4.822-1.845-5.077l-17.502-1.786a3 3 0 0 0-1.578.268l-13.521 6.339a3 3 0 0 0-1.727 2.716v14.952a3 3 0 0 0 .758 1.993Z"/></g><defs><filter id="a" width="256" height="148" x="32" y="54" color-interpolation-filters="sRGB" filterUnits="userSpaceOnUse"><feFlood flood-opacity="0" result="BackgroundImageFix"/><feColorMatrix in="SourceAlpha" result="hardAlpha" values="0 0 0 0 0 0 0 0 0 0 0 0 0 0 0 0 0 0 127 0"/><feOffset dy="12"/><feGaussianBlur stdDeviation="10"/><feComposite in2="hardAlpha" operator="out"/><feColorMatrix values="0 0 0 0 0 0 0 0 0 0 0 0 0 0 0 0 0 0 0.03 0"/><feBlend in2="BackgroundImageFix" result="effect1_dropShadow_10191_39789"/><feColorMatrix in="SourceAlpha" result="hardAlpha" values="0 0 0 0 0 0 0 0 0 0 0 0 0 0 0 0 0 0 127 0"/><feOffset dy="2"/><feGaussianBlur stdDeviation="3"/><feComposite in2="hardAlpha" operator="out"/><feColorMatrix values="0 0 0 0 0 0 0 0 0 0 0 0 0 0 0 0 0 0 0.05 0"/><feBlend in2="effect1_dropShadow_10191_39789" result="effect2_dropShadow_10191_39789"/><feBlend in="SourceGraphic" in2="effect2_dropShadow_10191_39789" result="shape"/></filter></defs></svg>