<?xml version="1.0" encoding="iso-8859-1"?>
<!-- Generator: Adobe Illustrator 19.0.0, SVG Export Plug-In . SVG Version: 6.00 Build 0)  -->
<svg version="1.1" id="Layer_1" xmlns="http://www.w3.org/2000/svg" xmlns:xlink="http://www.w3.org/1999/xlink" x="20px" y="0px"
	 viewBox="0 0 436.127 436.127" xml:space="preserve">
<path d="M350.359,191.016c-7.813-66.133-64.062-117.431-132.296-117.431S93.581,124.883,85.768,191.016
	C38.402,191.016,0,229.413,0,276.779c0,47.366,38.397,85.763,85.763,85.763h264.601c47.366,0,85.763-38.397,85.763-85.763
	C436.127,229.413,397.725,191.016,350.359,191.016z M138.063,307.542c-8.284,0-15-6.716-15-15c0-8.284,6.716-15,15-15
	c8.284,0,15,6.716,15,15C153.063,300.827,146.348,307.542,138.063,307.542z M218.063,307.542c-8.284,0-15-6.716-15-15
	c0-8.284,6.716-15,15-15c8.284,0,15,6.716,15,15S226.348,307.542,218.063,307.542z M298.063,307.542c-8.284,0-15-6.716-15-15
	s6.716-15,15-15c8.284,0,15,6.716,15,15S306.348,307.542,298.063,307.542z"/>
<g>
</g>
<g>
</g>
<g>
</g>
<g>
</g>
<g>
</g>
<g>
</g>
<g>
</g>
<g>
</g>
<g>
</g>
<g>
</g>
<g>
</g>
<g>
</g>
<g>
</g>
<g>
</g>
<g>
</g>
</svg>
