<svg width="573" height="292" viewBox="0 0 573 292" fill="none" xmlns="http://www.w3.org/2000/svg">
<path d="M26 291L31.6875 283.599C37.375 276.198 48.75 261.396 60.125 260.336C71.5 259.276 82.875 271.958 94.25 276.401C105.625 280.844 117 277.049 128.375 266.847C139.75 256.645 151.125 240.036 162.5 246.201C173.875 252.365 185.25 281.304 196.625 275.434C208 269.565 219.375 228.886 230.75 221.442C242.125 213.998 253.5 239.789 264.875 244.852C276.25 249.915 287.625 234.25 299 208.593C310.375 182.935 321.75 147.285 333.125 150.197C344.5 153.11 355.875 194.585 367.25 204.034C378.625 213.484 390 190.909 401.375 182.941C412.75 174.973 424.125 181.613 435.5 182.934C446.875 184.254 458.25 180.257 469.625 163.412C481 146.568 492.375 116.877 503.75 96.858C515.125 76.8391 526.5 66.4923 537.875 80.3337C549.25 94.175 560.625 132.204 566.312 151.219L572 170.234" stroke="#EE756A" stroke-width="2"/>
<path d="M59 291L64.3437 288.244C69.6875 285.488 80.375 279.977 91.0625 273.878C101.75 267.779 112.437 261.092 123.125 250.333C133.812 239.574 144.5 224.743 155.187 214.087C165.875 203.432 176.562 196.953 187.25 193.935C197.937 190.918 208.625 191.361 219.313 193.405C230 195.449 240.687 199.095 251.375 206.157C262.062 213.219 272.75 223.699 283.437 214.669C294.125 205.638 304.812 177.098 315.5 170.498C326.187 163.897 336.875 179.236 347.562 189.672C358.25 200.108 368.938 205.643 379.625 191.328C390.313 177.014 401 142.851 411.687 130.477C422.375 118.104 433.062 127.52 443.75 139.649C454.437 151.778 465.125 166.619 475.812 162.348C486.5 158.077 497.187 134.694 507.875 115.642C518.562 96.5901 529.25 81.8698 539.937 76.5813C550.625 71.2927 561.312 75.436 566.656 77.5076L572 79.5792" stroke="#756AEE" stroke-width="2"/>
<path d="M1 291L7.34444 278.981C13.6889 266.961 26.3778 242.923 39.0667 224.27C51.7556 205.617 64.4444 192.35 77.1333 185.858C89.8222 179.367 102.511 179.651 115.2 190.011C127.889 200.37 140.578 220.806 153.267 223.849C165.956 226.893 178.644 212.544 191.333 191.723C204.022 170.902 216.711 143.609 229.4 129.311C242.089 115.014 254.778 113.713 267.467 126.222C280.156 138.732 292.844 165.052 305.533 168.811C318.222 172.571 330.911 153.769 343.6 147.126C356.289 140.482 368.978 145.996 381.667 146.658C394.356 147.32 407.044 143.13 419.733 141.089C432.422 139.048 445.111 139.157 457.8 125.631C470.489 112.105 483.178 84.9445 495.867 67.0544C508.556 49.1643 521.244 40.5444 533.933 31.0803C546.622 21.6163 559.311 11.3081 565.656 6.15407L572 1" stroke="#6AEE75" stroke-width="2"/>
</svg>
