<svg width="600" height="701" viewBox="0 0 600 701" fill="none" xmlns="http://www.w3.org/2000/svg">
<path d="M189.365 322.833L95.5684 471.784C91.6105 478.069 82.9307 479.242 77.4461 474.234L53.0753 451.981L22.5176 424.122C19.3981 421.278 18.0157 416.996 18.8832 412.865L60.2247 216.02C62.1205 206.993 73.1101 203.448 79.923 209.665L159.777 282.536L187.316 307.681C191.576 311.57 192.439 317.952 189.365 322.833Z" fill="#756AEE" fill-opacity="0.025"/>
<path d="M434.757 230.13L417.287 246.084L403.245 258.892C392.379 268.805 375.19 266.473 367.352 254.026L309.355 161.939C305.028 155.073 295.021 155.073 290.694 161.934L232.668 254.036C224.829 266.478 207.64 268.805 196.774 258.892L182.727 246.084L165.257 230.13C156.282 221.931 154.993 208.259 162.283 198.533L282.53 9.59518C290.672 -3.19839 309.348 -3.19839 317.49 9.59518L437.737 198.533C445.021 208.259 443.732 221.931 434.757 230.13Z" fill="#756AEE" fill-opacity="0.025"/>
<path d="M463.939 527.763L426.3 562.113C416.434 571.102 400.867 568.982 393.742 557.727L325.742 451.953C320.113 443.198 310.42 437.906 300.011 437.906C289.603 437.906 279.909 443.198 274.281 451.953L206.281 557.727C199.155 568.982 183.588 571.102 173.722 562.113L157.753 547.532L136.084 527.763C128.41 520.783 126.876 509.309 132.393 500.539L229.594 346.259L252.543 309.79L286.527 255.818C289.45 251.214 294.53 248.4 300.011 248.4C305.492 248.4 310.571 251.214 313.494 255.818L347.515 309.79L370.464 346.259L467.629 500.539C473.147 509.309 471.612 520.784 463.939 527.763Z" fill="#756AEE" fill-opacity="0.025"/>
<path d="M599.144 480.77L584.856 512.233L538.814 613.527V613.564L515.755 664.211C510.713 675.32 502.636 684.455 492.807 690.777C482.941 697.135 471.284 700.716 459.079 700.716H140.944C116.497 700.716 94.353 686.429 84.2308 664.211L61.173 613.564V613.527L15.1301 512.233L0.842048 480.77C-3.10428 472.073 7.71206 464.217 14.801 470.648L31.6105 486.033L66.5083 517.897L101.406 549.725L136.266 581.553L171.164 613.418L176.353 618.132C191.847 632.274 216.33 628.949 227.512 611.226L292.066 508.752C293.782 506.029 296.775 504.377 299.993 504.377C303.211 504.377 306.204 506.029 307.92 508.752L372.474 611.226C378.943 621.494 389.905 626.938 401.013 626.938C409.053 626.938 417.165 624.088 423.67 618.132L428.822 613.418L463.719 581.553L498.581 549.725L533.478 517.897L568.375 486.033L585.222 470.648C592.31 464.217 603.127 472.073 599.144 480.77Z" fill="#756AEE" fill-opacity="0.025"/>
<path d="M410.638 322.833L504.435 471.784C508.393 478.069 517.072 479.242 522.557 474.234L546.928 451.981L577.486 424.122C580.605 421.278 581.988 416.996 581.12 412.865L539.779 216.02C537.883 206.993 526.893 203.448 520.08 209.665L440.226 282.536L412.688 307.681C408.427 311.57 407.565 317.952 410.638 322.833Z" fill="#756AEE" fill-opacity="0.025"/>
</svg>
