<svg xmlns="http://www.w3.org/2000/svg" width="320" height="232" fill="none" viewBox="0 0 320 232"><g filter="url(#a)"><g clip-path="url(#b)"><rect width="216" height="108" x="52" y="62" fill="#0E0F10" rx="12"/><path fill="#2F1C78" fill-rule="evenodd" d="M105 63.5V62h2v1.5zm0 6v-3h2v3zm0 6v-3h2v3zm0 6v-3h2v3zm0 6v-3h2v3zm0 6v-3h2v3zm0 6v-3h2v3zm0 6v-3h2v3zm0 6v-3h2v3zm0 6v-3h2v3zm0 6v-3h2v3zm0 6v-3h2v3zm0 6v-3h2v3zm0 6v-3h2v3zm0 6v-3h2v3zm0 6v-3h2v3zm0 6v-3h2v3zm0 6v-3h2v3zm0 4.5v-1.5h2v1.5zm54-106.5V62h2v1.5zm0 6v-3h2v3zm0 6v-3h2v3zm0 6v-3h2v3zm0 6v-3h2v3zm0 6v-3h2v3zm0 6v-3h2v3zm0 6v-3h2v3zm0 6v-3h2v3zm0 6v-3h2v3zm0 6v-3h2v3zm0 6v-3h2v3zm0 6v-3h2v3zm0 6v-3h2v3zm0 6v-3h2v3zm0 6v-3h2v3zm0 6v-3h2v3zm0 6v-3h2v3zm0 4.5v-1.5h2v1.5zm54-106.5V62h2v1.5zm0 6v-3h2v3zm0 6v-3h2v3zm0 6v-3h2v3zm0 6v-3h2v3zm0 6v-3h2v3zm0 6v-3h2v3zm0 6v-3h2v3zm0 6v-3h2v3zm0 6v-3h2v3zm0 6v-3h2v3zm0 6v-3h2v3zm0 6v-3h2v3zm0 6v-3h2v3zm0 6v-3h2v3zm0 6v-3h2v3zm0 6v-3h2v3zm0 6v-3h2v3zm0 4.5v-1.5h2v1.5zM53.5 145H52v-2h1.5zm6 0h-3v-2h3zm6 0h-3v-2h3zm6 0h-3v-2h3zm6 0h-3v-2h3zm6 0h-3v-2h3zm6 0h-3v-2h3zm6 0h-3v-2h3zm6 0h-3v-2h3zm12 0h-3v-2h3zm6 0h-3v-2h3zm6 0h-3v-2h3zm6 0h-3v-2h3zm6 0h-3v-2h3zm6 0h-3v-2h3zm6 0h-3v-2h3zm6 0h-3v-2h3zm12 0h-3v-2h3zm6 0h-3v-2h3zm6 0h-3v-2h3zm6 0h-3v-2h3zm6 0h-3v-2h3zm6 0h-3v-2h3zm6 0h-3v-2h3zm6 0h-3v-2h3zm11 0h-3v-2h3zm6 0h-3v-2h3zm6 0h-3v-2h3zm6 0h-3v-2h3zm6 0h-3v-2h3zm6 0h-3v-2h3zm6 0h-3v-2h3zm6 0h-3v-2h3zm5.5 0h-2.5v-2h2.5zM53.5 117H52v-2h1.5zm6 0h-3v-2h3zm6 0h-3v-2h3zm6 0h-3v-2h3zm6 0h-3v-2h3zm6 0h-3v-2h3zm6 0h-3v-2h3zm6 0h-3v-2h3zm6 0h-3v-2h3zm12 0h-3v-2h3zm6 0h-3v-2h3zm6 0h-3v-2h3zm6 0h-3v-2h3zm6 0h-3v-2h3zm6 0h-3v-2h3zm6 0h-3v-2h3zm6 0h-3v-2h3zm12 0h-3v-2h3zm6 0h-3v-2h3zm6 0h-3v-2h3zm6 0h-3v-2h3zm6 0h-3v-2h3zm6 0h-3v-2h3zm6 0h-3v-2h3zm6 0h-3v-2h3zm11 0h-3v-2h3zm6 0h-3v-2h3zm6 0h-3v-2h3zm6 0h-3v-2h3zm6 0h-3v-2h3zm6 0h-3v-2h3zm6 0h-3v-2h3zm6 0h-3v-2h3zm5.5 0h-2.5v-2h2.5zM53.5 89H52v-2h1.5zm6 0h-3v-2h3zm6 0h-3v-2h3zm6 0h-3v-2h3zm6 0h-3v-2h3zm6 0h-3v-2h3zm6 0h-3v-2h3zm6 0h-3v-2h3zm6 0h-3v-2h3zm12 0h-3v-2h3zm6 0h-3v-2h3zm6 0h-3v-2h3zm6 0h-3v-2h3zm6 0h-3v-2h3zm6 0h-3v-2h3zm6 0h-3v-2h3zm6 0h-3v-2h3zm12 0h-3v-2h3zm6 0h-3v-2h3zm6 0h-3v-2h3zm6 0h-3v-2h3zm6 0h-3v-2h3zm6 0h-3v-2h3zm6 0h-3v-2h3zm6 0h-3v-2h3zm11 0h-3v-2h3zm6 0h-3v-2h3zm6 0h-3v-2h3zm6 0h-3v-2h3zm6 0h-3v-2h3zm6 0h-3v-2h3zm6 0h-3v-2h3zm6 0h-3v-2h3zm5.5 0h-2.5v-2h2.5z" clip-rule="evenodd"/></g></g><defs><clipPath id="b"><rect width="216" height="108" x="52" y="62" fill="#fff" rx="12"/></clipPath><filter id="a" width="256" height="148" x="32" y="54" color-interpolation-filters="sRGB" filterUnits="userSpaceOnUse"><feFlood flood-opacity="0" result="BackgroundImageFix"/><feColorMatrix in="SourceAlpha" result="hardAlpha" values="0 0 0 0 0 0 0 0 0 0 0 0 0 0 0 0 0 0 127 0"/><feOffset dy="12"/><feGaussianBlur stdDeviation="10"/><feComposite in2="hardAlpha" operator="out"/><feColorMatrix values="0 0 0 0 0 0 0 0 0 0 0 0 0 0 0 0 0 0 0.03 0"/><feBlend in2="BackgroundImageFix" result="effect1_dropShadow_10196_62617"/><feColorMatrix in="SourceAlpha" result="hardAlpha" values="0 0 0 0 0 0 0 0 0 0 0 0 0 0 0 0 0 0 127 0"/><feOffset dy="2"/><feGaussianBlur stdDeviation="3"/><feComposite in2="hardAlpha" operator="out"/><feColorMatrix values="0 0 0 0 0 0 0 0 0 0 0 0 0 0 0 0 0 0 0.05 0"/><feBlend in2="effect1_dropShadow_10196_62617" result="effect2_dropShadow_10196_62617"/><feBlend in="SourceGraphic" in2="effect2_dropShadow_10196_62617" result="shape"/></filter></defs></svg>