<svg xmlns="http://www.w3.org/2000/svg" width="320" height="232" fill="none" viewBox="0 0 320 232"><g filter="url(#a)"><rect width="160" height="108" x="80" y="62" fill="#0E0F10" rx="12"/><path fill="#5F43D0" d="M126.576 114.12c-1.824 0-3.192-1.02-3.336-2.868h1.836c.132.996.612 1.452 1.428 1.452.696 0 1.236-.42 1.236-1.224 0-.768-.42-1.284-1.5-1.284h-.768v-1.392h.732c.936 0 1.332-.456 1.332-1.104 0-.6-.288-1.044-1.056-1.044-.66 0-1.188.396-1.296 1.212h-1.848c.204-1.62 1.38-2.628 3.204-2.628 1.812 0 2.94.888 2.94 2.316 0 .9-.54 1.572-1.152 1.86.864.288 1.368 1.14 1.368 2.16 0 1.572-1.344 2.544-3.12 2.544m7.035 0c-1.968 0-3.312-1.032-3.312-2.568 0-1.032.576-1.836 1.488-2.124-.804-.264-1.248-.912-1.248-1.812 0-1.44 1.188-2.376 3.06-2.376 1.86 0 3.06.936 3.06 2.376 0 .9-.444 1.548-1.26 1.812.924.288 1.5 1.092 1.5 2.136 0 1.536-1.332 2.556-3.288 2.556m-.012-5.268c.648 0 1.116-.42 1.116-1.104s-.456-1.092-1.128-1.092c-.66 0-1.104.42-1.104 1.092 0 .684.468 1.104 1.116 1.104m0 3.852c.84 0 1.344-.468 1.344-1.284 0-.804-.54-1.272-1.344-1.272-.816 0-1.344.468-1.344 1.272 0 .828.504 1.284 1.344 1.284m8.003 1.296v-1.632h-4.2v-1.416l4.248-5.592h1.824v5.592h.864v1.416h-.864V114zm-2.196-3.048h2.292v-3.036zM151.788 86c.228-2.64 1.332-5.148 2.952-7.224h-4.452V77.36h6.372v1.32c-1.632 2.328-2.676 4.644-2.892 7.32zm5.229 0v-1.44c3.168-2.58 4.14-3.6 4.14-4.788 0-.696-.396-1.116-1.068-1.116-.708 0-1.2.456-1.308 1.212h-1.848c.18-1.632 1.404-2.628 3.228-2.628 1.848 0 2.952 1.008 2.952 2.7 0 1.488-.792 2.592-3.36 4.644h3.528V86zm10.212.12c-2.28 0-3.564-1.536-3.564-4.248 0-2.844 1.428-4.632 3.672-4.632 1.68 0 2.796.936 3.036 2.508h-1.836c-.084-.708-.552-1.092-1.212-1.092-1.14 0-1.704.924-1.74 2.904.444-.636 1.164-1.008 2.088-1.008 1.68 0 2.82 1.104 2.82 2.748 0 1.704-1.272 2.82-3.264 2.82m-.132-1.416c.816 0 1.44-.48 1.44-1.392s-.648-1.368-1.464-1.368c-.84 0-1.488.468-1.488 1.344 0 .9.696 1.416 1.512 1.416M175.3 126v-1.44c3.168-2.58 4.14-3.6 4.14-4.788 0-.696-.396-1.116-1.068-1.116-.708 0-1.2.456-1.308 1.212h-1.848c.18-1.632 1.404-2.628 3.228-2.628 1.848 0 2.952 1.008 2.952 2.7 0 1.488-.792 2.592-3.36 4.644h3.528V126zm9.968.12c-1.872 0-2.904-1.092-3.084-2.688h1.836c.084.852.504 1.272 1.308 1.272 1.104 0 1.488-.792 1.524-2.832-.444.54-1.14.84-1.992.84-1.656 0-2.808-1.104-2.808-2.688 0-1.668 1.296-2.784 3.252-2.784 2.304 0 3.588 1.524 3.588 4.32 0 2.844-1.32 4.56-3.624 4.56m.204-4.8c.888 0 1.344-.54 1.344-1.272 0-.768-.456-1.392-1.344-1.392s-1.38.588-1.38 1.344.504 1.32 1.38 1.32m7.123 4.8c-1.776 0-2.976-.948-3.24-2.604h1.836c.12.732.696 1.188 1.356 1.188.744 0 1.248-.516 1.248-1.572 0-1.008-.468-1.56-1.212-1.56-.432 0-.84.192-1.092.636h-1.68l.444-4.848h4.968v1.416h-3.348l-.144 1.8c.336-.216.732-.324 1.248-.324 1.644 0 2.772 1.14 2.772 2.904 0 1.872-1.26 2.964-3.156 2.964"/><rect width="18" height="34" x="125" y="120" fill="#2F1C78" rx="4"/><rect width="18" height="62" x="151" y="92" fill="#2F1C78" rx="4"/><rect width="18" height="22" x="177" y="132" fill="#2F1C78" rx="4"/></g><defs><filter id="a" width="200" height="148" x="60" y="54" color-interpolation-filters="sRGB" filterUnits="userSpaceOnUse"><feFlood flood-opacity="0" result="BackgroundImageFix"/><feColorMatrix in="SourceAlpha" result="hardAlpha" values="0 0 0 0 0 0 0 0 0 0 0 0 0 0 0 0 0 0 127 0"/><feOffset dy="12"/><feGaussianBlur stdDeviation="10"/><feComposite in2="hardAlpha" operator="out"/><feColorMatrix values="0 0 0 0 0 0 0 0 0 0 0 0 0 0 0 0 0 0 0.03 0"/><feBlend in2="BackgroundImageFix" result="effect1_dropShadow_10196_62744"/><feColorMatrix in="SourceAlpha" result="hardAlpha" values="0 0 0 0 0 0 0 0 0 0 0 0 0 0 0 0 0 0 127 0"/><feOffset dy="2"/><feGaussianBlur stdDeviation="3"/><feComposite in2="hardAlpha" operator="out"/><feColorMatrix values="0 0 0 0 0 0 0 0 0 0 0 0 0 0 0 0 0 0 0.05 0"/><feBlend in2="effect1_dropShadow_10196_62744" result="effect2_dropShadow_10196_62744"/><feBlend in="SourceGraphic" in2="effect2_dropShadow_10196_62744" result="shape"/></filter></defs></svg>