<svg xmlns="http://www.w3.org/2000/svg" width="320" height="232" fill="none" viewBox="0 0 320 232"><g filter="url(#a)"><rect width="216" height="40" x="52" y="96" fill="#0E0F10" rx="12"/><rect width="16" height="16" x="79" y="108" fill="#4329AC" rx="4"/><path fill="#5F43D0" d="M101.6 120v-8.64h4.104c1.908 0 3.096 1.068 3.096 2.676 0 1.62-1.212 2.712-3.096 2.712h-2.256V120zm4.008-7.224h-2.16v2.556h2.16c.84 0 1.344-.516 1.344-1.284s-.492-1.272-1.344-1.272m6.36 7.224-3.096-8.64h1.92l2.256 6.852 2.256-6.852h1.824l-3.096 8.64z"/><rect width="16" height="16" x="135" y="108" fill="#5F43D0" rx="4"/><path fill="#5F43D0" d="m157.288 120 3.096-8.64h2.064l3.096 8.64h-1.92l-.624-1.908h-3.252l-.624 1.908zm2.94-3.348h2.304l-1.152-3.504zm6.058 3.348v-8.64h2.88l1.884 6.516 1.872-6.516h2.892V120h-1.824v-7.044L171.962 120h-1.908l-2.016-7.008V120zm13.081 0v-7.224h-2.82v-1.416h7.488v1.416h-2.82V120z"/><rect width="16" height="16" x="201" y="108" fill="#2F1C78" rx="4"/><path fill="#5F43D0" d="M227.188 120.12c-2.46 0-3.684-1.38-3.684-3.972v-4.788h1.848v5.112c0 1.5.696 2.184 1.848 2.184s1.848-.684 1.848-2.172v-5.124h1.848v4.812c0 2.568-1.236 3.948-3.708 3.948m7.401-.12-3.096-8.64h1.92l2.256 6.852 2.256-6.852h1.824l-3.096 8.64z"/></g><defs><filter id="a" width="256" height="80" x="32" y="88" color-interpolation-filters="sRGB" filterUnits="userSpaceOnUse"><feFlood flood-opacity="0" result="BackgroundImageFix"/><feColorMatrix in="SourceAlpha" result="hardAlpha" values="0 0 0 0 0 0 0 0 0 0 0 0 0 0 0 0 0 0 127 0"/><feOffset dy="12"/><feGaussianBlur stdDeviation="10"/><feComposite in2="hardAlpha" operator="out"/><feColorMatrix values="0 0 0 0 0 0 0 0 0 0 0 0 0 0 0 0 0 0 0.03 0"/><feBlend in2="BackgroundImageFix" result="effect1_dropShadow_10196_62789"/><feColorMatrix in="SourceAlpha" result="hardAlpha" values="0 0 0 0 0 0 0 0 0 0 0 0 0 0 0 0 0 0 127 0"/><feOffset dy="2"/><feGaussianBlur stdDeviation="3"/><feComposite in2="hardAlpha" operator="out"/><feColorMatrix values="0 0 0 0 0 0 0 0 0 0 0 0 0 0 0 0 0 0 0.05 0"/><feBlend in2="effect1_dropShadow_10196_62789" result="effect2_dropShadow_10196_62789"/><feBlend in="SourceGraphic" in2="effect2_dropShadow_10196_62789" result="shape"/></filter></defs></svg>