<svg xmlns="http://www.w3.org/2000/svg" width="320" height="232" fill="none" viewBox="0 0 320 232"><path fill="#5F43D0" fill-rule="evenodd" d="M165.118 103.222a1 1 0 0 0 .104 1.411l1.84 1.585c.366.316.587.508.728.657-.141.149-.362.341-.728.657l-1.84 1.586a1 1 0 0 0 1.306 1.515l1.84-1.586.043-.038c.349-.3.684-.589.923-.859.262-.296.541-.713.541-1.275s-.279-.979-.541-1.275c-.239-.27-.574-.558-.923-.859l-.043-.038-1.84-1.585a1 1 0 0 0-1.41.104m-2.486 0a1 1 0 0 1-.104 1.411l-1.84 1.585c-.366.316-.587.508-.728.657.141.149.362.341.728.657l1.84 1.586a1 1 0 0 1-1.306 1.515l-1.84-1.586-.043-.038c-.349-.3-.684-.589-.923-.859-.262-.296-.541-.713-.541-1.275s.279-.979.541-1.275c.239-.27.574-.558.923-.859l.043-.038 1.84-1.585a1 1 0 0 1 1.41.104" clip-rule="evenodd"/><path fill="#5F43D0" d="M154.812 110.522c.982.103.545.103 2.086.103a.978.978 0 0 0 0-1.955c-1.609 0-1.015-.001-1.885-.092-.854-.089-1.337-.256-1.695-.509a3 3 0 0 1-.632-.596c-.255-.323-.425-.756-.517-1.542-.095-.81-.097-1.867-.097-3.391v-2.9c0-.267 0-.906.281-1.378.173-.29.394-.534.622-.658a2.6 2.6 0 0 1 1.233-.312l1.041.036c.38.008.823-.004 1.251-.119a2.42 2.42 0 0 0 1.709-1.709c.115-.428.127-.871.119-1.251l-.036-1.04c0-.469.124-.876.341-1.254.127-.22.348-.423.653-.6.462-.269 1.015-.271 1.353-.273l.993-.002c1.834 0 2.501.014 3.005.19.872.308 1.538.95 1.848 1.735.078.197.133.455.162.903.03.457.031 1.04.031 1.88v5.113a.974.974 0 1 0 1.947 0v-5.146c0-.8 0-1.447-.035-1.975-.036-.545-.111-1.03-.294-1.495-.529-1.34-1.638-2.373-3.014-2.858-.859-.303-2.331-.303-3.886-.302-2.84 0-4.526 0-5.909.487-2.22.782-3.994 2.444-4.837 4.58-.281.712-.406 1.477-.466 2.394-.059.9-.059 2.013-.059 3.432v2.583c0 1.448 0 2.621.11 3.558.114.974.357 1.811.927 2.53a5 5 0 0 0 1.034.978c.745.526 1.606.75 2.616.855" opacity=".4"/><path fill="#5F43D0" d="M67.218 138v-8.8h1.952v1.776h.544l-.592.48q0-1.12.656-1.76.672-.656 1.824-.656 1.343 0 2.096.864.752.864.752 2.416v.832h-2v-.736q0-.816-.416-1.232-.417-.416-1.184-.416-.784 0-1.216.48-.416.48-.416 1.36V138zm7.977 0 3.072-4.544-2.864-4.256h2.256l1.36 2.16q.129.192.224.432.113.24.176.384l.176-.384q.113-.24.224-.432l1.36-2.16h2.272l-2.864 4.256L83.643 138h-2.272l-1.52-2.416a4 4 0 0 1-.24-.448 6 6 0 0 0-.192-.384q-.063.144-.176.384-.111.24-.24.448L77.467 138zm13.178.16q-.671 0-1.088-.4-.4-.416-.4-1.072 0-.672.4-1.072.417-.416 1.088-.416.672 0 1.072.416.417.4.416 1.072 0 .656-.416 1.072-.4.4-1.072.4m5.706-.16v-8.8h1.952v1.776h.544l-.592.48q0-1.12.656-1.76.672-.656 1.824-.656 1.344 0 2.096.864t.752 2.416v.832h-2v-.736q0-.816-.416-1.232t-1.184-.416q-.784 0-1.216.48-.416.48-.416 1.36V138zm12.218.16q-1.12 0-1.952-.432a3.16 3.16 0 0 1-1.296-1.216q-.448-.8-.448-1.872v-2.08q0-1.072.448-1.856a3.14 3.14 0 0 1 1.296-1.232q.831-.432 1.952-.432 1.104 0 1.92.432.831.432 1.28 1.216.464.768.464 1.808v1.6h-5.44v.608q0 .896.464 1.36.463.448 1.312.448.624 0 1.056-.208.447-.224.528-.64h1.984q-.209 1.136-1.184 1.824-.977.672-2.384.672m1.744-5.2v-.48q0-.912-.448-1.408-.432-.496-1.296-.496t-1.328.512q-.448.496-.448 1.408v.304l3.664-.016zm7.337 5.2q-1.135 0-1.984-.416a3.2 3.2 0 0 1-1.296-1.2q-.464-.784-.464-1.84v-2.208q0-1.072.464-1.84.465-.768 1.296-1.184.849-.432 1.984-.432 1.649 0 2.64.864.993.848 1.056 2.32h-1.968q-.047-.689-.512-1.056-.463-.384-1.216-.384-.816 0-1.28.448-.464.432-.464 1.248v2.224q0 .816.464 1.264.465.448 1.28.448.753 0 1.216-.368.465-.384.512-1.072h1.968q-.063 1.472-1.056 2.336-.991.848-2.64.848m5.242-.16v-11.68h2v2.88l-.048 1.68h.544l-.592.464q.017-1.056.672-1.68.656-.624 1.744-.624 1.296 0 2.064.864.784.864.784 2.32V138h-2v-5.536q0-.816-.416-1.248-.416-.448-1.152-.448-.752 0-1.184.448-.416.448-.416 1.28V138zm11.546.16q-1.344 0-2.128-.752-.768-.768-.768-2 0-.864.4-1.488a2.6 2.6 0 0 1 1.136-.96q.752-.352 1.76-.352h2.144v-.624q0-.64-.4-.976-.384-.352-1.152-.352-.704 0-1.136.272a.94.94 0 0 0-.448.768h-1.92q.064-1.2.992-1.92.944-.736 2.528-.736 1.68 0 2.608.784t.928 2.208V138h-1.952v-1.68h-.32l.352-.288q0 .656-.32 1.136-.32.464-.912.736-.593.256-1.392.256m.64-1.632q.88 0 1.392-.432t.512-1.152v-1.04h-2.048q-.656 0-1.04.368-.384.352-.384.944 0 .593.4.96.416.352 1.168.352m6.042 1.472v-8.8h1.952v1.776h.544l-.592.48q0-1.12.656-1.76.672-.656 1.824-.656 1.343 0 2.096.864.752.864.752 2.416v.832h-2v-.736q0-.816-.416-1.232t-1.184-.416q-.784 0-1.216.48-.416.48-.416 1.36V138zm13.081 0q-1.232 0-1.968-.704-.72-.72-.72-1.936v-4.352h-2.432V129.2h2.432v-2.48h2.016v2.48h3.504v1.808h-3.504v4.304q0 .384.208.64.225.24.608.24h2.608V138zm7.706.144q-1.04 0-1.808-.32-.752-.32-1.168-.912t-.416-1.408h1.968q0 .512.368.784.384.272 1.056.272h.704q.72 0 1.104-.272a.91.91 0 0 0 .4-.784q0-.48-.272-.72t-.832-.304l-2.192-.288q-1.056-.127-1.632-.816-.56-.688-.56-1.744 0-1.248.832-1.904.832-.672 2.4-.672h.736q1.472 0 2.368.672t.928 1.792h-1.984a.8.8 0 0 0-.368-.656q-.352-.256-.944-.256h-.736q-.64 0-.976.272a.84.84 0 0 0-.336.704q0 .4.24.592.256.175.736.24l2.064.288q1.216.16 1.824.88.624.704.624 1.888 0 1.28-.88 1.984-.864.688-2.544.688zm9.322.016q-.672 0-1.088-.4-.4-.416-.4-1.072 0-.672.4-1.072.416-.416 1.088-.416t1.072.416q.416.4.416 1.072 0 .656-.416 1.072-.4.4-1.072.4m5.706-.16v-8.8h1.952v1.776h.544l-.592.48q0-1.12.656-1.76.672-.656 1.824-.656 1.343 0 2.096.864.752.864.752 2.416v.832h-2v-.736q0-.816-.416-1.232-.417-.416-1.184-.416-.784 0-1.216.48-.416.48-.416 1.36V138zm12.217.16q-1.12 0-1.952-.432a3.2 3.2 0 0 1-1.296-1.216q-.447-.8-.448-1.872v-2.08q0-1.072.448-1.856.465-.8 1.296-1.232.833-.432 1.952-.432 1.104 0 1.92.432.833.432 1.28 1.216.465.768.464 1.808v1.6h-5.44v.608q0 .896.464 1.36.465.448 1.312.448.624 0 1.056-.208.448-.224.528-.64h1.984q-.207 1.136-1.184 1.824-.975.672-2.384.672m1.744-5.2v-.48q0-.912-.448-1.408-.432-.496-1.296-.496-.863 0-1.328.512-.448.496-.448 1.408v.304l3.664-.016zm5.594 5.04v-5.792h-2.416V130.4h2.416v-1.552q0-1.152.768-1.84t2.032-.688h2.576v1.76h-2.528q-.384 0-.624.224-.224.209-.224.576v1.52h3.376v1.808h-3.376V138zm10.57.16q-1.12 0-1.952-.432a3.16 3.16 0 0 1-1.296-1.216q-.448-.8-.448-1.872v-2.08q0-1.072.448-1.856a3.14 3.14 0 0 1 1.296-1.232q.832-.432 1.952-.432 1.104 0 1.92.432.832.432 1.28 1.216.464.768.464 1.808v1.6h-5.44v.608q0 .896.464 1.36.464.448 1.312.448.624 0 1.056-.208.449-.224.528-.64h1.984q-.208 1.136-1.184 1.824-.976.672-2.384.672m1.744-5.2v-.48q0-.912-.448-1.408-.432-.496-1.296-.496t-1.328.512q-.448.496-.448 1.408v.304l3.664-.016zm3.946 5.04v-8.8h1.952v1.776h.544l-.592.48q0-1.12.656-1.76.672-.656 1.824-.656 1.343 0 2.096.864.752.864.752 2.416v.832h-2v-.736q0-.816-.416-1.232-.417-.416-1.184-.416-.784 0-1.216.48-.416.48-.416 1.36V138zm12.217.16q-1.12 0-1.952-.432a3.2 3.2 0 0 1-1.296-1.216q-.448-.8-.448-1.872v-2.08q0-1.072.448-1.856.465-.8 1.296-1.232.833-.432 1.952-.432 1.104 0 1.92.432.833.432 1.28 1.216.464.768.464 1.808v1.6h-5.44v.608q0 .896.464 1.36.465.448 1.312.448.624 0 1.056-.208.449-.224.528-.64h1.984q-.207 1.136-1.184 1.824-.975.672-2.384.672m1.744-5.2v-.48q0-.912-.448-1.408-.432-.496-1.296-.496-.863 0-1.328.512-.447.496-.448 1.408v.304l3.664-.016zm3.626 5.04v-8.8h1.952v1.68h.544l-.592.464q.017-1.056.672-1.68.656-.624 1.744-.624 1.296 0 2.064.864.784.864.784 2.32V138h-2v-5.536q0-.816-.416-1.248-.415-.448-1.152-.448-.752 0-1.184.448-.416.448-.416 1.28V138zm12.666.16q-1.136 0-1.984-.416a3.2 3.2 0 0 1-1.296-1.2q-.464-.784-.464-1.84v-2.208q0-1.072.464-1.84a3.1 3.1 0 0 1 1.296-1.184q.848-.432 1.984-.432 1.649 0 2.64.864.992.848 1.056 2.32h-1.968q-.048-.689-.512-1.056-.464-.384-1.216-.384-.816 0-1.28.448-.464.432-.464 1.248v2.224q0 .816.464 1.264t1.28.448q.752 0 1.216-.368.464-.384.512-1.072h1.968q-.065 1.472-1.056 2.336-.992.848-2.64.848m8.826 0q-1.12 0-1.952-.432a3.16 3.16 0 0 1-1.296-1.216q-.448-.8-.448-1.872v-2.08q0-1.072.448-1.856a3.14 3.14 0 0 1 1.296-1.232q.831-.432 1.952-.432 1.104 0 1.92.432.831.432 1.28 1.216.464.768.464 1.808v1.6h-5.44v.608q0 .896.464 1.36.463.448 1.312.448.624 0 1.056-.208.447-.224.528-.64h1.984q-.209 1.136-1.184 1.824-.977.672-2.384.672m1.744-5.2v-.48q0-.912-.448-1.408-.432-.496-1.296-.496t-1.328.512q-.448.496-.448 1.408v.304l3.664-.016z"/></svg>