<svg xmlns="http://www.w3.org/2000/svg" width="77" height="20" fill="none" viewBox="0 0 77 20"><g clip-path="url(#a)"><mask id="b" width="76" height="20" x="0" y="0" maskUnits="userSpaceOnUse" style="mask-type:luminance"><path fill="#fff" d="M75.836 0H0v19.957h75.836z"/></mask><g fill="#67707e" mask="url(#b)"><path d="m44.137 5.57 4.362-1.625-4.362-1.67V0l7.472 3.017v1.856L44.137 7.89zM2.878 19.957C1.3 19.957 0 19.167 0 17.404v-.093c0-2.134 1.856-2.877 4.13-2.877h1.068v-.418c0-.882-.371-1.392-1.3-1.392-.835 0-1.253.464-1.299 1.114H.279c.185-1.95 1.717-2.878 3.759-2.878 2.088 0 3.62.882 3.62 3.063v5.848H5.29v-1.02c-.464.649-1.253 1.206-2.413 1.206m2.32-3.063v-.836h-.975c-1.206 0-1.81.325-1.81 1.114v.093c0 .603.372 1.021 1.207 1.021.835-.046 1.578-.51 1.578-1.392m7.983 3.063c-2.413 0-4.177-1.485-4.177-4.456v-.139c0-2.97 1.856-4.548 4.177-4.548 1.996 0 3.62 1.02 3.806 3.295h-2.321c-.14-.835-.603-1.392-1.439-1.392-1.02 0-1.763.835-1.763 2.552v.279c0 1.763.65 2.552 1.763 2.552.836 0 1.439-.603 1.578-1.578h2.228c-.14 2.043-1.485 3.435-3.852 3.435m9.097 0c-2.414 0-4.178-1.485-4.178-4.456v-.139c0-2.97 1.857-4.548 4.177-4.548 1.996 0 3.62 1.02 3.806 3.295h-2.32c-.14-.835-.604-1.392-1.44-1.392-1.02 0-1.763.835-1.763 2.552v.279c0 1.763.65 2.552 1.764 2.552.835 0 1.439-.603 1.578-1.578h2.228c-.14 2.043-1.485 3.435-3.852 3.435m9.143 0c-2.507 0-4.224-1.485-4.224-4.41v-.185c0-2.924 1.81-4.548 4.177-4.548 2.182 0 3.992 1.207 3.992 4.13v1.068h-5.71c.094 1.578.79 2.181 1.811 2.181.928 0 1.439-.51 1.624-1.114h2.275c-.279 1.625-1.671 2.878-3.945 2.878m-1.718-5.57h3.25c-.047-1.3-.65-1.856-1.625-1.856-.743.046-1.439.464-1.625 1.856m7.148-3.341h2.46v1.3c.417-.836 1.299-1.486 2.645-1.486 1.578 0 2.645.975 2.645 3.063v5.848h-2.46v-5.476c0-1.021-.417-1.485-1.299-1.485-.835 0-1.532.51-1.532 1.624v5.337h-2.46zM49.103 8.4v2.646h1.671v1.81h-1.67v4.13c0 .65.278.975.881.975.371 0 .604-.046.836-.14v1.904c-.28.093-.79.185-1.393.185-1.903 0-2.784-.881-2.784-2.645v-4.41h-1.022v-1.81h1.022V9.422zm10.86 11.371H57.55v-1.3c-.418.836-1.253 1.486-2.552 1.486-1.578 0-2.738-.975-2.738-3.017v-5.894h2.459v5.57c0 1.02.418 1.484 1.253 1.484.836 0 1.532-.556 1.532-1.624v-5.43h2.46zm1.81-8.725h2.46v1.624c.51-1.16 1.346-1.717 2.646-1.717v2.413c-1.67 0-2.646.51-2.646 1.95v4.502h-2.46zm10.072 8.91c-2.506 0-4.224-1.484-4.224-4.408v-.186c0-2.924 1.81-4.548 4.178-4.548 2.181 0 3.991 1.207 3.991 4.13v1.068h-5.662c.093 1.578.789 2.181 1.81 2.181.928 0 1.439-.51 1.624-1.114h2.274c-.37 1.625-1.717 2.878-3.991 2.878m-1.764-5.568h3.296c-.047-1.3-.65-1.857-1.625-1.857-.742.046-1.439.464-1.67 1.856"/></g></g><defs><clipPath id="a"><path fill="#fff" d="M0 0h76.191v20H0z"/></clipPath></defs></svg>