<svg xmlns="http://www.w3.org/2000/svg" width="50" height="20" fill="none" viewBox="0 0 50 20"><g clip-path="url(#a)"><path fill="#67707e" d="M27.89.57v11.386c0 2.236.551 3.256 2.956 3.256.569 0 1.351-.147 1.942-.273l-.38-2.282c-.4.084-.75.074-1.002.08-1.052.026-.96-.32-.96-1.31V7.14h2V5.241h-2V.571zm8.374 0h-2.556v14.642h3.817V13.27h-1.261zM4.95.57c-2.636 0-3.086.897-3.086 2.965V5.24l-1.298.214V7.14h1.298v6.13H.566v1.942h5.138V13.27H4.42V7.14h1.928v-1.9H4.42V3.764c0-.907.234-1 1.163-1 .253 0 .452.011.852.075L6.785.76C6.195.654 5.519.57 4.95.57m5.363 2.69v.65h.312v.882h.017a5.254 5.254 0 1 0 3.664 9.668l.46.752h2.7v-2.555h-.611l-.002-7.953h-2.555v.746a5.2 5.2 0 0 0-1.738-.658h.014V3.91h.312v-.65zm12.27 1.427c-2.4 0-3.84.845-3.84 3 0 2.275 1.778 3.04 4.019 3.423 1.189.241 1.553.483 1.553.986 0 .363-.206 1.045-1.474 1.045-.456 0-1.33.016-2.162-.145v-.34h-1.934v1.91c1.188.301 2.746.646 4.351.646 2.4 0 3.54-1.144 3.54-3.36 0-2.335-1.892-2.776-3.775-3.199-1.289-.281-1.454-.543-1.454-1.027 0-.341.145-.972 1.335-.972.416 0 1.184.002 1.957.143v.34h1.935V5.24c-1.19-.302-2.425-.554-4.05-.554m21.41.554v1.9h1.258l-1.856 4.565L41.54 7.14h1.26v-1.9h-5.274v1.9h1.26l3.276 8.06c-.38 1.16-1.592 1.825-2.667 1.825a6.6 6.6 0 0 1-1.012-.104l-.23 2.32c.525.126 1.284.189 1.854.189 2.318 0 3.84-2.103 4.766-4.337l3.233-7.954h1.26V5.241zm-32.24 2.01a2.704 2.704 0 0 1 2.545 2.46v.09h-.306v.306h.306v.084a2.704 2.704 0 0 1-2.546 2.461v-.3h-.306v.3a2.704 2.704 0 0 1-2.54-2.557h.304v-.306h-.303a2.704 2.704 0 0 1 2.539-2.535v.3h.306zm.993 1.369-.988.86a.5.5 0 0 0-.159-.027.49.49 0 0 0-.482.495.49.49 0 0 0 .482.496.49.49 0 0 0 .483-.496.5.5 0 0 0-.022-.149l.88-.984z"/></g><defs><clipPath id="a"><path fill="#fff" d="M0 0h49.83v20H0z"/></clipPath></defs></svg>