<svg xmlns="http://www.w3.org/2000/svg" width="32" height="28" fill="none" viewBox="0 0 32 28"><g clip-path="url(#clip0_20120_6356)"><path fill="url(#paint0_linear_20120_6356)" d="M14.984 8.098a2.04 2.04 0 0 1 2.032 0l13.957 8c1.37.785 1.37 2.76 0 3.545l-13.957 8a2.04 2.04 0 0 1-2.032 0l-13.957-8c-1.37-.785-1.37-2.76 0-3.545zM16 12.225 6.152 17.87 16 23.514l9.848-5.644z"/><path fill="url(#paint1_linear_20120_6356)" d="M14.984.27a2.04 2.04 0 0 1 2.032 0l13.957 8c1.37.786 1.37 2.761 0 3.546l-13.957 8a2.04 2.04 0 0 1-2.032 0l-13.957-8c-1.37-.785-1.37-2.76 0-3.545zM16 4.398l-9.848 5.646L16 15.687l9.848-5.644z"/><path fill="url(#paint2_linear_20120_6356)" d="m15.023 8.095 2.021 3.551-13.99 7.966L1.03 16.06z"/></g><defs><linearGradient id="paint0_linear_20120_6356" x1="-206.464" x2="2727.55" y1="1007.82" y2="1007.82" gradientUnits="userSpaceOnUse"><stop stop-color="#8b8d98"/><stop offset="1" stop-color="#60646c" stop-opacity=".96"/></linearGradient><linearGradient id="paint1_linear_20120_6356" x1="3394.53" x2="456.576" y1="999.988" y2="999.988" gradientUnits="userSpaceOnUse"><stop stop-color="#8b8d98"/><stop offset="1" stop-color="#60646c" stop-opacity=".96"/></linearGradient><linearGradient id="paint2_linear_20120_6356" x1="-205.074" x2="2719.92" y1="881.799" y2="859.869" gradientUnits="userSpaceOnUse"><stop stop-color="#8b8d98"/><stop offset="1" stop-color="#60646c" stop-opacity=".96"/></linearGradient><clipPath id="clip0_20120_6356"><path fill="#fff" d="M0 0h32v28H0z"/></clipPath></defs></svg>