<svg xmlns="http://www.w3.org/2000/svg" width="32" height="32" viewBox="0 0 32 32" fill="none">
  <mask id="mask0_21384_10525" style="mask-type:alpha" maskUnits="userSpaceOnUse" x="0" y="0" width="31" height="32">
    <path fill-rule="evenodd" clip-rule="evenodd" d="M9.2973 0C14.4325 0 18.5946 4.23867 18.5946 9.46667V13.0667H21.6879C26.8231 13.0667 30.9852 17.304 30.9852 22.5333C30.9852 27.7627 26.8231 32 21.6879 32H0V9.46667C0 4.24 4.16209 0 9.2973 0Z" fill="url(#paint0_linear_21384_10525)"/>
  </mask>
  <g mask="url(#mask0_21384_10525)">
    <g filter="url(#filter0_f_21384_10525)">
      <path d="M13.5882 38.384C25.1723 38.384 34.563 28.8465 34.563 17.0814C34.563 5.31621 25.1723 -4.22131 13.5882 -4.22131C2.00405 -4.22131 -7.38672 5.31621 -7.38672 17.0814C-7.38672 28.8465 2.00405 38.384 13.5882 38.384Z" fill="#67707E"/>
    </g>
    <g filter="url(#filter1_f_21384_10525)">
      <path opacity="0.6" d="M15.8948 26.6933C30.7311 26.6933 42.7583 17.1558 42.7583 5.39068C42.7583 -6.37446 30.7311 -15.912 15.8948 -15.912C1.05846 -15.912 -10.9688 -6.37446 -10.9688 5.39068C-10.9688 17.1558 1.05846 26.6933 15.8948 26.6933Z" fill="#979FAA"/>
    </g>
    <g filter="url(#filter2_f_21384_10525)">
      <path d="M20.2757 20.0907C31.8598 20.0907 41.2505 11.7148 41.2505 1.38268C41.2505 -8.94946 31.8598 -17.3253 20.2757 -17.3253C8.69155 -17.3253 -0.699219 -8.94946 -0.699219 1.38268C-0.699219 11.7148 8.69155 20.0907 20.2757 20.0907Z" fill="#67707E"/>
    </g>
    <g filter="url(#filter3_f_21384_10525)">
      <path d="M16.2666 18.196C23.2333 18.196 28.881 12.4605 28.881 5.38537C28.881 -1.68976 23.2333 -7.42529 16.2666 -7.42529C9.29996 -7.42529 3.65234 -1.68976 3.65234 5.38537C3.65234 12.4605 9.29996 18.196 16.2666 18.196Z" fill="#979FAA"/>
    </g>
  </g>
  <defs>
    <filter id="filter0_f_21384_10525" x="-14.5467" y="-11.3813" width="56.2697" height="56.9253" filterUnits="userSpaceOnUse" color-interpolation-filters="sRGB">
      <feFlood flood-opacity="0" result="BackgroundImageFix"/>
      <feBlend mode="normal" in="SourceGraphic" in2="BackgroundImageFix" result="shape"/>
      <feGaussianBlur stdDeviation="3.58" result="effect1_foregroundBlur_21384_10525"/>
    </filter>
    <filter id="filter1_f_21384_10525" x="-18.1287" y="-23.072" width="68.0471" height="56.9253" filterUnits="userSpaceOnUse" color-interpolation-filters="sRGB">
      <feFlood flood-opacity="0" result="BackgroundImageFix"/>
      <feBlend mode="normal" in="SourceGraphic" in2="BackgroundImageFix" result="shape"/>
      <feGaussianBlur stdDeviation="3.58" result="effect1_foregroundBlur_21384_10525"/>
    </filter>
    <filter id="filter2_f_21384_10525" x="-7.85922" y="-24.4853" width="56.2697" height="51.736" filterUnits="userSpaceOnUse" color-interpolation-filters="sRGB">
      <feFlood flood-opacity="0" result="BackgroundImageFix"/>
      <feBlend mode="normal" in="SourceGraphic" in2="BackgroundImageFix" result="shape"/>
      <feGaussianBlur stdDeviation="3.58" result="effect1_foregroundBlur_21384_10525"/>
    </filter>
    <filter id="filter3_f_21384_10525" x="-3.50766" y="-14.5853" width="39.5485" height="39.9413" filterUnits="userSpaceOnUse" color-interpolation-filters="sRGB">
      <feFlood flood-opacity="0" result="BackgroundImageFix"/>
      <feBlend mode="normal" in="SourceGraphic" in2="BackgroundImageFix" result="shape"/>
      <feGaussianBlur stdDeviation="3.58" result="effect1_foregroundBlur_21384_10525"/>
    </filter>
    <linearGradient id="paint0_linear_21384_10525" x1="10.4268" y1="5.624" x2="20.1283" y2="31.8914" gradientUnits="userSpaceOnUse">
      <stop offset="0.025" stop-color="#FF8E63"/>
      <stop offset="0.56" stop-color="#FF7EB0"/>
      <stop offset="0.95" stop-color="#4B73FF"/>
    </linearGradient>
  </defs>
</svg>