<svg xmlns="http://www.w3.org/2000/svg" width="85" height="20" fill="none" viewBox="0 0 85 20"><g fill="#67707e" clip-path="url(#a)"><path d="M10.088 0C4.51-.037-.037 4.51 0 10.088c.038 5.44 4.485 9.862 9.925 9.925 5.603.037 10.138-4.51 10.088-10.088-.05-5.44-4.498-9.887-9.925-9.925m-2.99 5.138a4.58 4.58 0 0 1 .993 2.865c0 .93-.29 1.796-.754 2.525H3.983zm10.176 6.684c-.226.1-.967.44-1.294.892-.804 1.105-1.42 2.89-2.789 2.89H7.437c-2.035 0-3.743-1.621-3.718-3.757 0-.063.038-.1.1-.1h2.714c.1 0 .163.075.163.163v.527c0 .29.226.503.503.503h2.06v-1.194h-1.42a6.06 6.06 0 0 0 1.294-3.743A6 6 0 0 0 7.538 3.92a9 9 0 0 1 1.696.339v-.34c0-.338.289-.627.628-.627.34 0 .628.289.628.628v.804c1.922.892 3.191 2.387 3.191 4.083 0 .992-.427 1.922-1.168 2.688a.78.78 0 0 1-.54.226h-1.47v1.194h1.821c.39 0 1.093-.754 1.433-1.194 0 0 .025-.025.062-.037.038-.013 3.355-.767 3.355-.767.062-.025.138.038.138.1l.025.704c0 .038-.025.076-.063.1m13.493 2.199a4.76 4.76 0 0 1-2.299-.565 4.4 4.4 0 0 1-1.658-1.558c-.402-.678-.603-1.432-.603-2.274q0-1.262.603-2.26a4.3 4.3 0 0 1 1.658-1.559 4.8 4.8 0 0 1 2.3-.565c.828 0 1.595.188 2.286.565a4.2 4.2 0 0 1 1.645 1.558q.604 1 .604 2.261c0 .842-.201 1.596-.603 2.274a4.2 4.2 0 0 1-1.646 1.558 4.7 4.7 0 0 1-2.287.565m0-1.91q1.057 0 1.696-.678.64-.678.641-1.809 0-1.13-.64-1.809-.642-.678-1.697-.678c-.716 0-1.294.226-1.72.666-.428.452-.629 1.055-.629 1.821 0 .754.214 1.37.628 1.822.427.44 1.005.666 1.721.666m7.913-4.032c.214-.314.503-.578.88-.767.377-.2.804-.289 1.306-.289.578 0 1.106.139 1.583.428.478.289.842.69 1.118 1.218q.415.792.415 1.847c0 .703-.138 1.319-.415 1.86-.264.527-.64.941-1.118 1.23a3 3 0 0 1-1.583.428c-.49 0-.93-.101-1.306-.29a2.5 2.5 0 0 1-.88-.753v2.965h-2.16V7.124h2.16zm3.078 2.437c0-.515-.15-.93-.452-1.219a1.5 1.5 0 0 0-1.106-.452c-.427 0-.791.15-1.105.452-.302.302-.44.716-.44 1.231s.151.93.44 1.232c.301.301.666.452 1.105.452.44 0 .792-.15 1.106-.452q.453-.472.452-1.244m10.003-.101c0 .201-.012.402-.038.616h-4.899q.057.64.415.98c.25.213.565.327.93.327.54 0 .916-.214 1.13-.654h2.299c-.113.453-.34.855-.64 1.206a3 3 0 0 1-1.157.842c-.464.201-.98.302-1.557.302-.691 0-1.307-.139-1.847-.428a3.1 3.1 0 0 1-1.269-1.218c-.301-.528-.452-1.143-.452-1.86 0-.703.15-1.331.44-1.859a3.1 3.1 0 0 1 1.268-1.218c.54-.29 1.156-.428 1.86-.428.678 0 1.294.139 1.821.415.528.276.942.666 1.244 1.18.302.516.452 1.119.452 1.797m-2.21-.552c0-.365-.127-.641-.378-.855s-.565-.314-.955-.314c-.364 0-.665.1-.93.302-.238.2-.401.49-.451.867zM57.2 7.048c.829 0 1.482.264 1.972.779.503.515.741 1.218.741 2.123v3.982h-2.148v-3.706c0-.452-.126-.804-.364-1.068-.239-.25-.578-.376-.993-.376-.414 0-.741.125-.992.376-.239.252-.365.603-.365 1.068v3.694h-2.16V7.123h2.16v.905a2.1 2.1 0 0 1 .892-.704 2.75 2.75 0 0 1 1.257-.276m7.45 6.972c-.652 0-1.23-.1-1.745-.301a2.86 2.86 0 0 1-1.244-.904c-.302-.402-.465-.88-.477-1.445h2.299c.037.314.15.565.339.728.188.164.452.24.754.24.326 0 .577-.076.753-.214a.73.73 0 0 0 .277-.604.68.68 0 0 0-.226-.527 1.7 1.7 0 0 0-.54-.34 9 9 0 0 0-.918-.3c-.578-.177-1.042-.34-1.407-.516a2.7 2.7 0 0 1-.942-.754c-.264-.339-.39-.766-.39-1.306 0-.792.302-1.42.905-1.872q.904-.678 2.337-.678c.98 0 1.771.226 2.362.678.603.452.917 1.08.967 1.884h-2.337a.84.84 0 0 0-.314-.64c-.188-.164-.44-.239-.741-.239-.264 0-.477.075-.628.214-.163.125-.239.326-.239.577 0 .277.138.49.402.641.264.15.691.327 1.269.503.578.188 1.043.364 1.395.54.364.176.678.414.942.741s.39.741.39 1.256c0 .49-.127.93-.39 1.332-.252.402-.628.716-1.118.955-.49.226-1.068.351-1.734.351m11.216-3.605c0 .201-.013.402-.038.616h-4.9q.057.64.415.98a1.4 1.4 0 0 0 .93.327c.54 0 .917-.214 1.13-.654h2.3a2.96 2.96 0 0 1-.641 1.206c-.302.365-.691.641-1.156.842s-.98.302-1.558.302c-.69 0-1.306-.139-1.847-.428a3.1 3.1 0 0 1-1.268-1.218c-.302-.528-.453-1.143-.453-1.86 0-.703.151-1.331.44-1.859a3.1 3.1 0 0 1 1.269-1.218c.54-.29 1.156-.428 1.86-.428.678 0 1.293.139 1.82.415s.943.666 1.244 1.18c.302.516.453 1.119.453 1.797m-2.211-.552c0-.365-.126-.641-.377-.855s-.566-.314-.955-.314c-.364 0-.666.1-.93.302-.238.2-.402.49-.452.867zm2.926.653c0-.704.138-1.32.402-1.847.276-.527.653-.93 1.13-1.218a3 3 0 0 1 1.584-.428c.502 0 .93.1 1.306.29.377.2.666.452.88.766V7.11h2.16v6.81h-2.16v-.968a2.23 2.23 0 0 1-.892.766c-.377.201-.804.29-1.307.29a2.95 2.95 0 0 1-1.57-.428 3.07 3.07 0 0 1-1.131-1.23c-.264-.516-.402-1.144-.402-1.835m5.289.012c0-.515-.15-.93-.452-1.23a1.47 1.47 0 0 0-1.093-.453c-.427 0-.792.15-1.106.452-.301.29-.44.704-.44 1.219s.151.93.44 1.244a1.5 1.5 0 0 0 1.106.452q.64 0 1.093-.452c.301-.302.452-.716.452-1.232"/></g><defs><clipPath id="a"><path fill="#fff" d="M0 0h84.033v20H0z"/></clipPath></defs></svg>