<svg xmlns="http://www.w3.org/2000/svg" width="32" height="32" fill="none" viewBox="0 0 32 32"><mask id="mask0_21383_10362" width="24" height="32" x="4" y="0" maskUnits="userSpaceOnUse" style="mask-type:alpha"><path fill="#fff" d="M26.665 0C27.402 0 28 .598 28 1.335v29.33c0 .737-.598 1.335-1.335 1.335H5.333A1.333 1.333 0 0 1 4 30.667V17.333C4 16.597 4.597 16 5.333 16H10.5V9.333c0-.736.597-1.333 1.333-1.333H17V1.335C17 .598 17.598 0 18.335 0z"/></mask><g mask="url(#mask0_21383_10362)"><path fill="#67707e" d="M28 1.335v29.33c0 .737-.598 1.335-1.335 1.335h-8.33A1.335 1.335 0 0 1 17 30.665V1.335C17 .598 17.598 0 18.335 0h8.33C27.402 0 28 .598 28 1.335"/><g filter="url(#filter0_dd_21383_10362)"><path fill="#979faa" d="M21.5 9.333V32h-11V9.333c0-.736.597-1.333 1.333-1.333h8.334c.736 0 1.333.597 1.333 1.333"/></g><path fill="#cacdd4" d="M4 17.333v13.334C4 31.403 4.597 32 5.333 32H15V17.333c0-.736-.597-1.333-1.333-1.333H5.333C4.597 16 4 16.597 4 17.333"/></g><defs><filter id="filter0_dd_21383_10362" width="277.667" height="290.667" x="-122.833" y="-92" color-interpolation-filters="sRGB" filterUnits="userSpaceOnUse"><feFlood flood-opacity="0" result="BackgroundImageFix"/><feColorMatrix in="SourceAlpha" result="hardAlpha" values="0 0 0 0 0 0 0 0 0 0 0 0 0 0 0 0 0 0 127 0"/><feOffset dy="6.333"/><feGaussianBlur stdDeviation="6.333"/><feColorMatrix values="0 0 0 0 0 0 0 0 0 0 0 0 0 0 0 0 0 0 0.2 0"/><feBlend in2="BackgroundImageFix" result="effect1_dropShadow_21383_10362"/><feColorMatrix in="SourceAlpha" result="hardAlpha" values="0 0 0 0 0 0 0 0 0 0 0 0 0 0 0 0 0 0 127 0"/><feOffset dy="33.333"/><feGaussianBlur stdDeviation="66.667"/><feColorMatrix values="0 0 0 0 0 0 0 0 0 0 0 0 0 0 0 0 0 0 0.18 0"/><feBlend in2="effect1_dropShadow_21383_10362" result="effect2_dropShadow_21383_10362"/><feBlend in="SourceGraphic" in2="effect2_dropShadow_21383_10362" result="shape"/></filter></defs></svg>