<svg xmlns="http://www.w3.org/2000/svg" width="26" height="32" viewBox="0 0 26 32" fill="none">
  <path d="M12.7197 0.167385C12.9128 0.0939865 13.127 0.099147 13.3171 0.18301L25.4048 5.51634C25.6965 5.64506 25.8852 5.9376 25.8852 6.26091C25.8852 6.58422 25.6965 6.87676 25.4048 7.00547L13.3171 12.3388C13.1144 12.4283 12.8841 12.4283 12.6814 12.3388L0.593699 7.00547C0.301994 6.87676 0.113281 6.58422 0.113281 6.26091C0.113281 5.9376 0.301994 5.64506 0.593699 5.51634L12.6814 0.18301L12.7197 0.167385ZM2.91672 6.26091L12.9992 10.7093L23.0816 6.26091L12.9992 1.81231L2.91672 6.26091Z" fill="#67707E"/>
  <path opacity="0.7" d="M24.7694 8.7626C25.1738 8.58416 25.644 8.77285 25.8195 9.18402C25.995 9.59519 25.8094 10.0733 25.405 10.2517L13.3173 15.5851C13.1146 15.6745 12.8844 15.6745 12.6817 15.5851L0.59395 10.2517C0.189547 10.0733 0.00395976 9.59519 0.179459 9.18402C0.35497 8.77285 0.825195 8.58416 1.22961 8.7626L12.9995 13.9555L24.7694 8.7626Z" fill="#67707E"/>
  <path opacity="0.6" d="M24.7694 12.0092C25.1738 11.8307 25.644 12.0194 25.8195 12.4306C25.995 12.8418 25.8094 13.3199 25.405 13.4983L13.3173 18.8316C13.1146 18.9211 12.8844 18.9211 12.6817 18.8316L0.59395 13.4983C0.189547 13.3199 0.00395976 12.8418 0.179459 12.4306C0.35497 12.0194 0.825195 11.8307 1.22961 12.0092L12.9995 17.2021L24.7694 12.0092Z" fill="#67707E"/>
  <path opacity="0.5" d="M24.7694 15.2555C25.1738 15.0771 25.644 15.2658 25.8195 15.6769C25.995 16.0881 25.8094 16.5662 25.405 16.7446L13.3173 22.078C13.1146 22.1674 12.8844 22.1674 12.6817 22.078L0.59395 16.7446C0.189547 16.5662 0.00395976 16.0881 0.179459 15.6769C0.35497 15.2658 0.825195 15.0771 1.22961 15.2555L12.9995 20.4485L24.7694 15.2555Z" fill="#67707E"/>
  <path opacity="0.4" d="M24.7694 18.5019C25.1738 18.3234 25.644 18.5121 25.8195 18.9233C25.995 19.3345 25.8094 19.8125 25.405 19.991L13.3173 25.3243C13.1146 25.4138 12.8844 25.4138 12.6817 25.3243L0.59395 19.991C0.189547 19.8125 0.00395976 19.3345 0.179459 18.9233C0.35497 18.5121 0.825195 18.3234 1.22961 18.5019L12.9995 23.6948L24.7694 18.5019Z" fill="#67707E"/>
  <path opacity="0.3" d="M24.7694 21.7482C25.1738 21.5698 25.644 21.7584 25.8195 22.1696C25.995 22.5808 25.8094 23.0589 25.405 23.2373L13.3173 28.5707C13.1146 28.6601 12.8844 28.6601 12.6817 28.5707L0.59395 23.2373C0.189547 23.0589 0.00395976 22.5808 0.179459 22.1696C0.35497 21.7584 0.825195 21.5698 1.22961 21.7482L12.9995 26.9411L24.7694 21.7482Z" fill="#67707E"/>
  <path opacity="0.2" d="M24.7694 24.9945C25.1738 24.8161 25.644 25.0048 25.8195 25.416C25.995 25.8271 25.8094 26.3052 25.405 26.4837L13.3173 31.817C13.1146 31.9064 12.8844 31.9064 12.6817 31.817L0.59395 26.4837C0.189547 26.3052 0.00395976 25.8271 0.179459 25.416C0.35497 25.0048 0.825195 24.8161 1.22961 24.9945L12.9995 30.1875L24.7694 24.9945Z" fill="#67707E"/>
</svg>