<svg xmlns="http://www.w3.org/2000/svg" width="32" height="32" fill="none" viewBox="0 0 32 32"><path fill="#67707e" d="M16.057 13.304a3.065 3.065 0 1 0 0 6.13 3.065 3.065 0 0 0 0-6.13"/><path fill="#67707e" d="M31.998 16.397c0-2.406-2.229-4.517-5.777-5.906q.073-.469.121-.926c.35-3.457-.483-5.953-2.344-7.028-2.083-1.202-5.025-.33-8 2.05-2.974-2.38-5.915-3.252-7.998-2.05-1.861 1.075-2.695 3.57-2.345 7.028.03.304.073.615.121.928q-.445.17-.864.358C1.744 12.276 0 14.247 0 16.398c0 2.406 2.228 4.517 5.776 5.906q-.074.47-.12.925c-.35 3.458.483 5.953 2.344 7.028.64.363 1.365.549 2.1.538 1.764 0 3.823-.928 5.899-2.588 2.075 1.66 4.135 2.588 5.9 2.588A4.14 4.14 0 0 0 24 30.257c1.861-1.075 2.695-3.57 2.345-7.028-.03-.303-.074-.613-.121-.926 3.548-1.386 5.776-3.5 5.776-5.905M21.886 3.524c.473-.011.94.103 1.354.332 1.293.747 1.873 2.771 1.59 5.555q-.026.285-.068.574a27 27 0 0 0-4.515-.947 27 27 0 0 0-3.082-3.44c1.764-1.365 3.42-2.074 4.72-2.074m-.607 15.922a33 33 0 0 1-1.862 2.88 33 33 0 0 1-3.418.173q-1.713 0-3.417-.174a33 33 0 0 1-1.857-2.88 33 33 0 0 1-1.555-3.048q.698-1.565 1.555-3.049a34 34 0 0 1 1.851-2.87Q14.283 10.3 16 10.3q1.713 0 3.417.174a34 34 0 0 1 1.858 2.874q.857 1.484 1.554 3.049a33 33 0 0 1-1.554 3.049m2.33-1.13q.54 1.468.881 2.993-1.487.463-3.02.728.582-.878 1.128-1.828.54-.94 1.016-1.888m-9.754 5.633c.702.043 1.42.068 2.145.068s1.447-.025 2.15-.067A24 24 0 0 1 16 26.213a24 24 0 0 1-2.145-2.259m-3.32-1.92a24 24 0 0 1-3.023-.725q.342-1.523.877-2.988.469.948 1.016 1.888a42 42 0 0 0 1.13 1.828m-2.146-7.565a24 24 0 0 1-.874-2.977 24 24 0 0 1 3.014-.73 35 35 0 0 0-2.145 3.707m9.76-5.634a33.5 33.5 0 0 0-4.295 0 24 24 0 0 1 2.144-2.258q1.15 1.058 2.15 2.258m4.447 3.747a33 33 0 0 0-1.134-1.83c1.024.177 2.036.42 3.028.73a24 24 0 0 1-.877 2.988 32 32 0 0 0-1.016-1.887M7.172 9.412c-.286-2.783.297-4.808 1.589-5.555a2.7 2.7 0 0 1 1.354-.332c1.3 0 2.956.71 4.72 2.074a27 27 0 0 0-3.084 3.442 27.3 27.3 0 0 0-4.515.944 15 15 0 0 1-.068-.573m-1.631 2.83q.26-.114.532-.226a27 27 0 0 0 1.439 4.38 27 27 0 0 0-1.44 4.391c-2.877-1.18-4.544-2.815-4.544-4.39 0-1.493 1.467-3.007 4.013-4.155M8.76 28.935c-1.292-.746-1.875-2.772-1.59-5.554q.028-.284.068-.575c1.475.445 2.986.762 4.516.948a27 27 0 0 0 3.081 3.443c-2.46 1.9-4.707 2.527-6.072 1.738m16.066-5.554c.282 2.783-.298 4.808-1.59 5.554-1.364.79-3.613.162-6.072-1.738a27 27 0 0 0 3.08-3.443 27 27 0 0 0 4.516-.948q.04.29.07.575m1.103-2.597a27.3 27.3 0 0 0-1.441-4.388 27.3 27.3 0 0 0 1.44-4.39c2.87 1.18 4.542 2.815 4.542 4.39s-1.667 3.21-4.543 4.39"/></svg>