<svg viewBox="75 81 350 350" fill="none" xmlns="http://www.w3.org/2000/svg"><path d="M0 0h512v512H0z"/><path fill="white" d="M203.333 128H246v42.667h-42.667zm85.334 0h42.667v42.667h-42.667zm-128 42.667h42.667v42.667h-42.667zm85.333 0h42.667v42.667H246zm85.333 0H374v42.667h-42.667zM118 213.333h42.667V256H118z"/><path fill="white" d="M203.333 213.333H246V256h-42.667zM118 256h42.667v42.667H118zm85.333 0H246v42.667h-42.667z"/><path fill="white" d="M160.667 298.667h42.667v42.667h-42.667zm85.333 0h42.667v42.667H246zm85.333 0H374v42.667h-42.667z"/><path fill="white" d="M203.333 341.333H246V384h-42.667zm85.334 0h42.667V384h-42.667z"/></svg>