<svg xmlns="http://www.w3.org/2000/svg" width="32" height="18" viewBox="0 0 32 18" fill="none">
  <path d="M23.6629 0.960938H8.06175C3.6165 0.960938 0 4.56767 0 9.00093C0 13.4342 3.6165 17.0409 8.06175 17.0409H23.6629C28.1081 17.0409 31.7246 13.4342 31.7246 9.00093C31.7246 4.56767 28.1081 0.960938 23.6629 0.960938ZM15.9679 13.566C15.7107 13.6191 15.4213 13.6287 15.2246 13.4237C15.152 13.5901 14.9828 13.5025 14.8521 13.4808C14.8401 13.5146 14.8296 13.5443 14.8183 13.5781C14.3838 13.607 14.0581 13.1648 13.8509 12.8312C13.4397 12.6093 12.973 12.4742 12.5529 12.2418C12.5287 12.6246 12.6126 13.0989 12.2474 13.3457C12.2289 14.0814 13.3632 13.4326 13.4671 13.9809C13.3865 13.9897 13.2971 13.968 13.2326 14.0299C12.9367 14.317 12.5973 13.8129 12.2563 14.0211C11.7984 14.251 11.7524 14.4392 11.1857 14.4866C11.1543 14.4392 11.1671 14.4078 11.1937 14.3789C11.3534 14.1939 11.3647 13.9761 11.6371 13.8972C11.3566 13.853 11.122 14.0074 10.8858 14.1296C10.5786 14.2551 10.5811 13.8466 10.1086 14.1513C10.0562 14.1087 10.0812 14.0701 10.1111 14.0372C10.2311 13.8908 10.3892 13.8691 10.5673 13.8772C9.69102 13.3899 9.27826 14.4729 8.87356 13.9343C8.75184 13.9664 8.7059 14.0757 8.62929 14.1529C8.5632 14.0806 8.61318 13.9929 8.61642 13.9077C8.5374 13.8707 8.43741 13.853 8.4608 13.7268C8.30602 13.6746 8.198 13.7662 8.08273 13.853C7.97871 13.7726 8.15285 13.6553 8.18509 13.5716C8.27781 13.4108 8.48901 13.5387 8.59623 13.4229C8.90098 13.2501 9.32583 13.5306 9.67411 13.4832C9.94256 13.517 10.2747 13.242 10.14 12.9678C9.85308 12.602 9.90384 12.1237 9.8974 11.6863C9.86193 11.4314 9.24843 11.1066 9.07109 10.8316C8.85179 10.584 8.68089 10.297 8.50998 10.0148C7.89325 8.82402 8.08755 7.29403 7.31038 6.18853C6.95889 6.3823 6.50098 6.29065 6.19789 6.03094C6.03421 6.17968 6.02694 6.37425 6.01406 6.5809C5.62145 6.18936 5.67064 5.44964 5.98424 5.01389C6.11243 4.84184 6.2656 4.70033 6.4365 4.57571C6.47518 4.54757 6.4881 4.52024 6.48727 4.47682C6.79767 3.0843 8.91469 3.35283 9.5838 4.33934C10.0691 4.94637 10.2159 5.74953 10.7665 6.31317C11.5073 7.12198 12.3514 7.83431 13.035 8.69539C13.6816 9.48251 14.1435 10.4055 14.5466 11.3357C14.7111 11.6444 14.7127 12.0232 14.9562 12.2869C15.0763 12.4461 15.6632 12.8794 15.5358 13.033C15.6092 13.1921 16.1574 13.4116 15.9671 13.566H15.9679ZM26.2498 8.816L25.0575 10.0051C24.7399 10.3219 24.3473 10.5583 23.9216 10.6877L23.8998 10.6941L23.8918 10.715C23.7531 11.0801 23.5427 11.4057 23.2654 11.6815L22.073 12.8706C21.5531 13.3892 20.8614 13.6746 20.1245 13.6746C19.3877 13.6746 18.696 13.3892 18.176 12.8706C17.1014 11.7988 17.1014 10.0557 18.176 8.98402L19.3683 7.79493C19.6876 7.47655 20.0697 7.24741 20.5026 7.11475L20.5244 7.10831L20.5325 7.08741C20.6711 6.72237 20.8823 6.39597 21.1605 6.11777L22.3528 4.92867C22.8728 4.41009 23.5645 4.12467 24.3013 4.12467C25.0382 4.12467 25.7299 4.41009 26.2498 4.92867C26.7699 5.44723 27.056 6.13709 27.056 6.87194C27.056 7.6068 26.7699 8.29741 26.2498 8.81521V8.816Z" fill="white"/>
</svg>