<svg xmlns="http://www.w3.org/2000/svg" data-name="Layer 1" viewBox="0 0 150 150"><path d="M0 0h150v150H0z" style="fill:none" data-name="Layer 2"/><path d="M75.18 9.17c-37.04 0-67.06 30.02-67.06 67.06s30.03 67.07 67.07 67.07 67.07-30.03 67.07-67.07S112.23 9.17 75.18 9.17m-23.25 105.6c.23.41.35.87.33 1.34-.05 1.29-1.06 2.35-2.39 2.29-.91-.04-1.74-.51-2.52-.99-5.64-3.46-10.66-8.34-13.25-14.51-2.3-5.35-2.58-11.47-1.03-17.06 3.77-13.92 18.88-25.51 30.73-26.98 10.24-1.28 12.95 5.32 6.76 10.15-17.92 13.34-31.24 22.78-18.63 45.76m67.39-19.2c-3.64 7.52-7.65 12.57-10.44 15.53-8.3 9.24-21.29 15.29-33.29 10.32-6.89-2.86-12.28-9.27-13.24-16.77-2.61-22.16 36.74-27.43 31.34-49.91-2.56-7.28-11.12-10.45-18.14-11.18C63 42.21 50.92 47.83 42.33 56.77c-2.33 2.12-4.66 5.43-7.94 5.94-2.33.32-4.54-1.38-4.25-3.84.65-5.52 6.81-11.81 10.73-15.6 13.59-12.63 33.95-17.09 51.66-11.81 9.86 2.91 19.63 9.77 21.37 20.57 1.67 10.7-4.53 20.88-11.64 28.34-5.94 6.26-13.51 10.36-19.79 16.19-3.67 3.41-5.17 7.6-.74 11.15 9.23 4.94 19.17-2.41 25.05-9.37 1.23-1.48 2.36-3.03 3.45-4.61.92-1.35 1.78-2.89 3-4 1.94-2.22 5.44-2.01 6.72.78.66 1.57.07 3.58-.64 5.06Z" style="fill:#6706ce"/></svg>