<svg xmlns="http://www.w3.org/2000/svg" width="96" height="25" fill="none" viewBox="0 0 96 25"><g fill="#EEEFF2" clip-path="url(#a)"><path d="M11.375 19.024c-.313-.857-.68-2.11-.827-3.652-.117-1.228-.374-4.333 1.325-7.65 1.365-2.668 3.342-4.2 4.434-4.921 5.345 5.134 2.382 14.989-4.932 16.223M8.122.049c-2.98.326-4.808 2.136-5.43 2.77C1.248 4.29.262 6.217 0 8.316a9.8 9.8 0 0 0 3.747.594c5.19-.212 8.125-4.63 8.299-4.899a10.5 10.5 0 0 0 1.274-2.876C12.61.735 10.672-.23 8.121.05zM.217 10.71c-.47 4.018 4.844 8.996 8.825 8.273.124-.56.25-1.436.105-2.48-.46-3.307-3.181-5.011-3.322-5.097C3.248 9.85.641 10.581.217 10.707zm35.951-9.458q1.797 0 3.35.637a8.4 8.4 0 0 1 2.695 1.746 8.05 8.05 0 0 1 2.45 5.854c0 1.163-.22 2.15-.663 3.122a8 8 0 0 1-1.808 2.537 8.5 8.5 0 0 1-2.695 1.704 8.8 8.8 0 0 1-3.33.627 8.8 8.8 0 0 1-3.328-.627 8.5 8.5 0 0 1-2.696-1.704 8 8 0 0 1-1.807-2.537 7.4 7.4 0 0 1-.664-3.123q0-1.746.654-3.245a8.1 8.1 0 0 1 1.797-2.608 8.4 8.4 0 0 1 2.695-1.746 8.8 8.8 0 0 1 3.35-.637m0 15.098q1.347 0 2.42-.473a5.1 5.1 0 0 0 1.838-1.356q.767-.884 1.173-2.148.408-1.263.408-2.823 0-1.644-.408-2.969-.407-1.324-1.163-2.26a5.1 5.1 0 0 0-1.838-1.438q-1.083-.503-2.43-.504-1.348 0-2.43.504a5.1 5.1 0 0 0-1.839 1.438q-.755.936-1.163 2.26t-.408 2.969c0 1.097.136 1.981.408 2.823q.408 1.264 1.163 2.148a5 5 0 0 0 1.838 1.356q1.083.473 2.43.473m19.117-6.675q0-.842-.041-1.325-.041-.484-.215-.74a.86.86 0 0 0-.51-.348 6 6 0 0 0-.93-.154v-.72h3.698v6.307q0 1.171.03 1.91.031.74.092 1.108.041.267.133.422a.65.65 0 0 0 .275.246q.183.093.48.123.296.03.767.03v.72l-3.37.246-.224-2.465h-.082q-.776 1.275-1.787 1.859a4.17 4.17 0 0 1-2.114.586q-.858 0-1.665-.329-.806-.328-1.214-.883-.346-.451-.501-1.252-.154-.799-.153-2.075V9.675q0-.842-.04-1.325-.042-.484-.215-.74a.87.87 0 0 0-.511-.348 6 6 0 0 0-.93-.154v-.72h3.699v5.608q0 2.239.52 3.246.521 1.006 1.665 1.006 1.797 0 2.797-2.362.103-.246.164-.453.06-.205.102-.453.04-.245.06-.555.021-.308.021-.74V9.674zm5.044-1.993v-.76q1.084-.637 1.696-1.275.613-.635.938-1.52h.593v2.588h2.737v.965h-2.737v6.245q0 .72.072 1.21.07.494.234.792a.95.95 0 0 0 .43.422q.264.122.674.122.51 0 .868-.215.358-.214.705-.73l.511.39q-.286.761-.99 1.16-.704.401-1.746.402-1.349 0-2.052-.648-.704-.647-.705-1.858V7.68h-1.224zm8.662 9.592h-.45v-3.532h.51q.798 2.896 2.901 2.897.818 0 1.298-.4t.48-1.221q0-.308-.091-.524a1.4 1.4 0 0 0-.347-.453 6 6 0 0 0-.715-.545 49 49 0 0 0-1.216-.78 20 20 0 0 1-1.204-.802 5.6 5.6 0 0 1-.858-.75 2.7 2.7 0 0 1-.521-.81 2.7 2.7 0 0 1-.173-1.007q0-.697.234-1.284a2.93 2.93 0 0 1 1.604-1.644 3 3 0 0 1 1.204-.235q.55 0 1.143.174t1.04.463l.408-.432h.39v2.958h-.532q-.45-1.253-.98-1.787a1.78 1.78 0 0 0-1.308-.534q-.695 0-1.113.369-.418.37-.418 1.026 0 .35.113.607.112.255.356.503.245.248.624.504.377.258.909.586.877.555 1.5.986t1.011.852.573.873q.183.451.183 1.027.001 1.458-.94 2.29-.94.832-2.47.832c-1.021 0-1.974-.307-2.737-.924l-.409.72zm18.177-1.911q-1.736 2.115-4.309 2.116-1.205 0-2.186-.401a4.9 4.9 0 0 1-1.685-1.13 5.1 5.1 0 0 1-1.092-1.745q-.387-1.017-.387-2.25c0-.821.136-1.609.41-2.321a5.2 5.2 0 0 1 1.153-1.828 5.4 5.4 0 0 1 1.776-1.19 5.8 5.8 0 0 1 2.258-.432q1.98 0 3.063 1.077 1.082 1.08 1.082 3.092 0 .287-.112.349-.112.06-.52.061h-6.72q-.041.165-.061.4t-.02.524q0 1.07.254 1.94.255.873.736 1.49.48.618 1.142.955.663.338 1.482.338.857 0 1.593-.38.734-.38 1.511-1.24l.634.575zm-3.37-5.545q.409 0 .654-.02t.367-.082a.3.3 0 0 0 .163-.175.9.9 0 0 0 .041-.297q0-.944-.603-1.51-.604-.564-1.644-.565-2.206 0-2.736 2.65zm5.226-2.136v-.76q1.084-.637 1.696-1.275.614-.635.939-1.52h.593v2.588h2.736v.965h-2.736v6.245q0 .72.071 1.21.072.494.235.792a.95.95 0 0 0 .429.422q.265.122.675.122.51 0 .867-.215.358-.214.705-.73l.511.39q-.285.761-.99 1.16-.704.401-1.746.402-1.348 0-2.052-.648-.703-.647-.704-1.858V7.68h-1.225zM69.172 22.768c0-1.17.875-2.079 1.994-2.079 1.048 0 1.867.703 2.006 1.727h-.892c-.093-.574-.536-.97-1.102-.97-.681 0-1.141.54-1.141 1.32 0 .781.46 1.333 1.141 1.333.566 0 1.004-.401 1.102-.976h.892c-.14 1.037-.958 1.734-2.006 1.734-1.12 0-1.994-.914-1.994-2.089m5.745 1.148-.304.858h-.847l1.496-4h.92l1.485 4h-.904l-.299-.858zm.238-.674h1.075l-.532-1.544zm4.386.228v1.304H78.7v-4h1.47c.97 0 1.572.462 1.572 1.332s-.605 1.365-1.573 1.365zm0-1.983v1.271h.62c.477 0 .743-.25.743-.645s-.267-.624-.742-.624h-.62zm3.326 3.287v-4h.843v4zm3.151 0v-3.237h-1.252v-.764h3.352v.764H86.86v3.237zm3.626-.858-.304.858h-.848l1.496-4h.92l1.486 4h-.904l-.3-.858zm.238-.674h1.075l-.532-1.544zm3.548 1.532v-4h.842v3.236h1.73v.764z"/></g><defs><clipPath id="a"><path fill="#fff" d="M0 0h96v24.857H0z"/></clipPath></defs></svg>