<svg xmlns="http://www.w3.org/2000/svg" width="16" height="16" fill="none" viewBox="0 0 16 16"><path fill="#82799E" d="M12.869 3.585a11.6 11.6 0 0 0-2.894-.891c-.127.22-.269.516-.368.75a11 11 0 0 0-3.205 0 9 9 0 0 0-.368-.75c-1.019.17-1.988.474-2.895.891C1.307 6.288.812 8.927 1.06 11.53a11.8 11.8 0 0 0 3.546 1.776 8.6 8.6 0 0 0 .757-1.224 7.4 7.4 0 0 1-1.196-.573q.151-.107.29-.226c2.307 1.054 4.805 1.054 7.083 0 .099.078.19.155.29.226a7.4 7.4 0 0 1-1.196.573q.331.65.757 1.224a11.7 11.7 0 0 0 3.545-1.776c.305-3.014-.481-5.631-2.066-7.945m-7.19 6.34c-.693 0-1.26-.63-1.26-1.401 0-.772.553-1.401 1.26-1.401.7 0 1.274.63 1.26 1.4 0 .772-.56 1.401-1.26 1.401m4.65 0c-.694 0-1.261-.63-1.261-1.401 0-.772.553-1.401 1.26-1.401.7 0 1.273.63 1.26 1.4 0 .772-.553 1.401-1.26 1.401"/></svg>