<svg xmlns="http://www.w3.org/2000/svg" width="16" height="16" fill="none" viewBox="0 0 16 16"><g clip-path="url(#a)"><path fill="#82799E" d="M8 .588a7.6 7.6 0 0 0-7.6 7.6 7.595 7.595 0 0 0 5.196 7.21c.38.066.523-.162.523-.361 0-.18-.01-.779-.01-1.416-1.91.352-2.403-.465-2.555-.893-.086-.218-.456-.893-.78-1.073-.265-.143-.645-.494-.009-.503.599-.01 1.026.55 1.169.779.684 1.149 1.776.826 2.213.627.067-.495.266-.827.485-1.017-1.691-.19-3.458-.846-3.458-3.753 0-.826.294-1.51.779-2.042-.076-.19-.342-.969.076-2.014 0 0 .636-.2 2.09.779a7 7 0 0 1 1.9-.256c.646 0 1.292.085 1.9.256 1.453-.988 2.09-.779 2.09-.779.418 1.045.152 1.824.076 2.014a2.94 2.94 0 0 1 .779 2.042c0 2.917-1.777 3.563-3.468 3.753.276.237.513.694.513 1.406 0 1.017-.01 1.834-.01 2.09 0 .2.143.437.523.361a7.61 7.61 0 0 0 5.178-7.21c0-4.2-3.401-7.6-7.6-7.6"/></g><defs><clipPath id="a"><path fill="#fff" d="M0 0h16v16H0z"/></clipPath></defs></svg>