<svg xmlns="http://www.w3.org/2000/svg" width="16" height="16" fill="none" viewBox="0 0 16 16"><path fill="#82799E" d="M1.1 2.9a2 2 0 0 1 2-2h2.4a2 2 0 0 1 2 2v2.4a2 2 0 0 1-2 2H3.1a2 2 0 0 1-2-2z"/><path fill="#82799E" d="M1.1 10.7a2 2 0 0 1 2-2h2.4a2 2 0 0 1 2 2v2.4a2 2 0 0 1-2 2H3.1a2 2 0 0 1-2-2z" opacity=".5"/><path fill="#82799E" d="M8.5 2.9a2 2 0 0 1 2-2h2.4a2 2 0 0 1 2 2v2.4a2 2 0 0 1-2 2h-2.4a2 2 0 0 1-2-2z" opacity=".75"/><path fill="#82799E" d="M8.5 10.7a2 2 0 0 1 2-2h2.4a2 2 0 0 1 2 2v2.4a2 2 0 0 1-2 2h-2.4a2 2 0 0 1-2-2z" opacity=".25"/></svg>