<svg xmlns="http://www.w3.org/2000/svg" xmlns:xlink="http://www.w3.org/1999/xlink" version="1.1" width="130.93347" height="154.4903" viewBox="0 0 130.93347 154.4903">
<defs>
<clipPath id="clip_0">
<path transform="matrix(1,0,0,-1,0,154.4903)" d="M53.3334 152.8002C53.3334 151.6002 63.20008 117.20016 75.33343 76.13344 87.46678 35.20005 97.33346 1.200012 97.33346 .800018 97.33346 .400009 104.93348 0 114.13349 0H130.9335L130.13352 4.400009C129.60018 6.666687 119.200168 41.333398 106.80015 81.33345L84.400119 154.00022 68.93342 154.4002C55.733404 154.66687 53.3334 154.4002 53.3334 152.8002ZM39.86672 72.53344C31.733376 70.13344 20.800026 60.266748 16.40002 51.466737 13.066683 44.933397 0 5.200012 0 1.733353 0 .400009 3.866671 0 16.40002 0H32.80004L39.333387 23.066712C47.46673 52.000078 51.333398 60.800088 59.46674 68.53343L65.86675 74.66677 55.86674 74.53344C50.400068 74.53344 43.200059 73.600109 39.86672 72.53344Z" fill-rule="evenodd"/>
</clipPath>
</defs>
<path transform="matrix(1,0,0,-1,0,154.66687)" d="M53.3334 152.97678C53.3334 151.77678 63.20008 117.37673 75.33343 76.31001 87.46678 35.376626 97.33346 1.376587 97.33346 .976593 97.33346 .576584 104.93348 .176575 114.13349 .176575H130.9335L130.13352 4.576584C129.60018 6.843262 119.200168 41.50997 106.80015 81.510028L84.400119 154.17679 68.93342 154.57678C55.733404 154.84345 53.3334 154.57678 53.3334 152.97678ZM39.86672 72.710018C31.733376 70.31001 20.800026 60.44332 16.40002 51.64331 13.066683 45.10997 0 5.376587 0 1.909927 0 .576584 3.866671 .176575 16.40002 .176575H32.80004L39.333387 23.243287C47.46673 52.17665 51.333398 60.97666 59.46674 68.71001L65.86675 74.843349 55.86674 74.710018C50.400068 74.710018 43.200059 73.77668 39.86672 72.710018Z" fill="#f9f9fb" fill-opacity=".48"/>
<g clip-path="url(#clip_0)">
<path transform="matrix(1,0,0,-1,0,154.66687)" d="M75.33343 76.31001 74.85392 76.16834 74.85405 76.167919 75.33343 76.31001ZM130.9335 .176575V-.323425H131.53261L131.42543 .266022 130.9335 .176575ZM130.13352 4.576584 130.62545 4.666031 130.62316 4.678635 130.62023 4.691116 130.13352 4.576584ZM106.80015 81.510028 106.322338 81.36273 106.32256 81.36198 106.80015 81.510028ZM84.400119 154.17679 84.87792 154.32407 84.77212 154.66733 84.41304 154.67662 84.400119 154.17679ZM68.93342 154.57678 68.94634 155.07662 68.94352 155.07668 68.93342 154.57678ZM39.86672 72.710018 40.008268 72.23033 40.019109 72.2338 39.86672 72.710018ZM16.40002 51.64331 16.845416 51.41607 16.847233 51.4197 16.40002 51.64331ZM32.80004 .176575V-.323425H33.17809L33.281118 .040329 32.80004 .176575ZM39.333387 23.243287 39.81446 23.107026 39.814729 23.107972 39.333387 23.243287ZM59.46674 68.71001 59.811277 68.34765 59.812696 68.34901 59.46674 68.71001ZM65.86675 74.843349 66.21271 74.48235 67.12874 75.36022 65.860088 75.3433 65.86675 74.843349ZM55.86674 74.710018V74.20997L55.873407 74.21006 55.86674 74.710018ZM53.8334 152.97678C53.8334 153.09761 53.853189 153.17992 53.882814 153.2418 53.911367 153.30146 53.961698 153.36879 54.063676 153.44208L53.48014 154.25417C53.25991 154.09592 53.09099 153.90369 52.98084 153.6736 52.871767 153.44576 52.8334 153.20816 52.8334 152.97678H53.8334ZM55.771787 153.92484C56.303834 153.99604 56.957616 154.0507 57.757886 154.08988L57.709016 155.08867C56.892286 155.0487 56.208498 154.99219 55.639154 154.916L55.771787 153.92484ZM59.774126 154.15164C60.39221 154.16184 61.067773 154.16678 61.805795 154.16687L61.805669 155.16687C61.063405 155.16678 60.382257 155.16182 59.757616 155.1515L59.774126 154.15164ZM63.832845 154.15682C64.47208 154.1509 65.148929 154.14244 65.865489 154.13164L65.88056 155.13153C65.16241 155.14235 64.48359 155.15084 63.8421 155.15677L63.832845 154.15682ZM67.902057 154.09683C68.23505 154.09056 68.57542 154.08391 68.92332 154.07689L68.94352 155.07668C68.5952 155.08371 68.25437 155.09038 67.92088 155.09667L67.902057 154.09683ZM68.920497 154.07695 69.88716 154.05194 69.91301 155.05162 68.94634 155.07662 68.920497 154.07695ZM71.820499 154.00196 73.75383 153.95195 73.779689 154.95162 71.84635 155.00162 71.820499 154.00196ZM75.68717 153.90195 77.62051 153.85195 77.64636 154.85161 75.71302 154.90161 75.68717 153.90195ZM79.55384 153.80194 81.48718 153.75196 81.51303 154.75162 79.5797 154.80162 79.55384 153.80194ZM83.42052 153.70195 84.387187 153.67694 84.41304 154.67662 83.446369 154.70162 83.42052 153.70195ZM83.9223 154.0295 84.21703 153.07335 85.17266 153.36794 84.87792 154.32407 83.9223 154.0295ZM84.80651 151.16107 85.39599 149.24878 86.351619 149.54337 85.76214 151.45565 84.80651 151.16107ZM85.98546 147.3365 86.574939 145.42423 87.53056 145.7188 86.941089 147.63108 85.98546 147.3365ZM87.164409 143.51194 87.75388 141.59966 88.70951 141.89423 88.12003 143.80652 87.164409 143.51194ZM88.34336 139.68737 88.93283 137.77509 89.88846 138.06967 89.29899 139.98195 88.34336 139.68737ZM89.52231 135.86281 90.11178 133.95052 91.067409 134.2451 90.477939 136.15738 89.52231 135.86281ZM90.701259 132.03824 91.29073 130.12596 92.24635 130.42053 91.65688 132.33283 90.701259 132.03824ZM91.8802 128.21367 92.46968 126.30139 93.42531 126.59597 92.83583 128.50826 91.8802 128.21367ZM93.05915 124.38911 93.64863 122.47682 94.604259 122.77141 94.01478 124.683689 93.05915 124.38911ZM94.2381 120.564548 94.827579 118.65226 95.7832 118.94684 95.193729 120.85912 94.2381 120.564548ZM95.41705 116.739978 96.00652 114.8277 96.96215 115.12227 96.37268 117.03456 95.41705 116.739978ZM96.596 112.91541 97.18547 111.00313 98.1411 111.297718 97.55163 113.20999 96.596 112.91541ZM97.77495 109.09085 98.364429 107.178569 99.320049 107.473148 98.730579 109.38543 97.77495 109.09085ZM98.953899 105.26628 99.54337 103.354007 100.499 103.648578 99.90952 105.56087 98.953899 105.26628ZM100.13284 101.44172 100.72232 99.529438 101.67795 99.82402 101.08847 101.7363 100.13284 101.44172ZM101.31179 97.61716 101.90127 95.70487 102.856899 95.99945 102.26742 97.911739 101.31179 97.61716ZM102.49074 93.79259 103.080219 91.8803 104.03584 92.17488 103.446369 94.08717 102.49074 93.79259ZM103.66969 89.968029 104.25916 88.05574 105.21479 88.35032 104.62532 90.2626 103.66969 89.968029ZM104.84864 86.143459 105.43812 84.23117 106.393749 84.52575 105.80427 86.438037 104.84864 86.143459ZM106.02759 82.31889 106.322338 81.36273 107.27796 81.65731 106.983219 82.61347 106.02759 82.31889ZM106.32256 81.36198C106.422199 81.0406 106.52169 80.719577 106.621059 80.3989L107.57625 80.69488C107.47687 81.01559 107.377368 81.33666 107.277729 81.65807L106.32256 81.36198ZM107.2156 78.47929C107.41432 77.8374 107.61247 77.197078 107.81001 76.558429L108.76536 76.85393C108.56779 77.49266 108.36961 78.133068 108.17087 78.775028L107.2156 78.47929ZM108.40339 74.63925C108.60196 73.99671 108.79988 73.356 108.997119 72.717258L109.9526 73.01228C109.75535 73.651119 109.557399 74.2919 109.3588 74.93452L108.40339 74.63925ZM109.58918 70.79898C109.78767 70.155628 109.985408 69.5144 110.18237 68.87542L111.138 69.16999C110.94102 69.809047 110.74325 70.45035 110.54474 71.09378L109.58918 70.79898ZM110.77296 66.958698C110.97141 66.31432 111.16903 65.6724 111.36577 65.033069L112.32154 65.32718C112.12478 65.96659 111.92713 66.60859 111.72865 67.25304L110.77296 66.958698ZM111.95461 63.11872C112.15312 62.4731 112.35068 61.830286 112.54725 61.190408L113.50316 61.48407C113.306568 62.124017 113.108989 62.766916 112.91045 63.412614L111.95461 63.11872ZM113.135799 59.27378C113.33384 58.62857 113.530818 57.986558 113.72669 57.347879L114.68274 57.641084C114.48685 58.27984 114.28984 58.92193 114.091777 59.567216L113.135799 59.27378ZM114.31528 55.42785C114.51268 54.783609 114.70889 54.14299 114.90387 53.50614L115.86006 53.79888C115.66506 54.435808 115.46883 55.076509 115.27139 55.720827L114.31528 55.42785ZM115.49279 51.581705C115.68936 50.93908 115.88459 50.300554 116.07844 49.66629L117.03477 49.958566C116.840908 50.59291 116.645648 51.231515 116.44905 51.874216L115.49279 51.581705ZM116.667987 47.736398C116.864589 47.092546 117.05966 46.453386 117.253177 45.81909L118.209659 46.110887C118.01612 46.745264 117.82102 47.384508 117.6244 48.028436L116.667987 47.736398ZM117.8403 43.89366C118.03753 43.24655 118.23302 42.604875 118.426708 41.96882L119.38333 42.260126C119.18963 42.896265 118.99411 43.538026 118.79685 44.18521L117.8403 43.89366ZM119.00883 40.056215C119.206829 39.40535 119.40281 38.76081 119.5967 38.122827L120.55349 38.413606C120.35957 39.05168 120.16357 39.696313 119.96553 40.34726L119.00883 40.056215ZM120.18067 36.20034C120.37663 35.55488 120.5703 34.916658 120.76159 34.28592L121.718547 34.57615C121.52723 35.206979 121.333538 35.84529 121.13754 36.490846L120.18067 36.20034ZM121.34763 32.35251C121.54462 31.702294 121.73886 31.06073 121.93028 30.428116L122.88743 30.717736C122.69597 31.350457 122.50169 31.992119 122.30468 32.64244L121.34763 32.35251ZM122.50963 28.51236C122.70693 27.85952 122.90095 27.217133 123.091579 26.585556L124.04892 26.874505C123.85825 27.506203 123.66421 28.148705 123.466869 28.801659L122.50963 28.51236ZM123.67383 24.65512C123.87121 24.000229 124.06455 23.358262 124.253719 22.72966L125.211299 23.017823C125.02209 23.646576 124.828708 24.288666 124.63128 24.943696L123.67383 24.65512ZM124.83168 20.80751C125.029079 20.150452 125.22131 19.509949 125.40823 18.886567L126.3661 19.173783C126.17913 19.797333 125.98684 20.438004 125.78939 21.09523L124.83168 20.80751ZM125.98398 16.96437C126.182949 16.299332 126.37484 15.65712 126.55942 15.038544L127.51766 15.324478C127.333019 15.943298 127.14105 16.585755 126.94202 17.251008L125.98398 16.96437ZM127.13463 13.107803C127.33697 12.427475 127.52836 11.782608 127.70838 11.174652L128.66722 11.458588C128.48708 12.066956 128.29558 12.712204 128.09314 13.392883L127.13463 13.107803ZM128.27608 9.251862C128.48761 8.532959 128.67668 7.887177 128.84221 7.318222L129.8024 7.59758C129.63652 8.167709 129.44716 8.814499 129.23542 9.534134L128.27608 9.251862ZM129.395 5.394272C129.52848 4.919983 129.61209 4.609573 129.6468 4.462067L130.62023 4.691116C130.57971 4.86322 130.49005 5.19455 130.35762 5.665146L129.395 5.394272ZM129.64157 4.487152 129.84157 3.387146 130.82544 3.566025 130.62545 4.666031 129.64157 4.487152ZM130.24156 1.187134 130.44156 .087143 131.42543 .266022 131.22544 1.366028 130.24156 1.187134ZM130.9335 .676575H129.8835V-.323425H130.9335V.676575ZM127.78349 .676575H125.683498V-.323425H127.78349V.676575ZM123.583499 .676575H121.48349V-.323425H123.583499V.676575ZM119.38349 .676575H117.283489V-.323425H119.38349V.676575ZM115.18349 .676575H114.13349V-.323425H115.18349V.676575ZM114.13349 .676575C113.779857 .676575 113.42859 .67717 113.08004 .678329L113.076709-.321655C113.42636-.32283 113.77874-.323425 114.13349-.323425V.676575ZM110.97493 .692444C110.25644 .699707 109.55357 .709351 108.8697 .721176L108.85242-.278671C109.53872-.290543 110.24397-.300217 110.96482-.30751L110.97493 .692444ZM106.76637 .765701C106.03414 .78418 105.33149 .805176 104.663417 .828369L104.62872-.171036C105.30015-.194336 106.00597-.215424 106.74115-.233978L106.76637 .765701ZM102.56168 .913742C101.7885 .950317 101.08628 .990005 100.46643 1.032043L100.39879 .034332C101.02677-.008255 101.73594-.048325 102.51445-.085129L102.56168 .913742ZM98.3983 1.217621C98.07975 1.258102 97.85321 1.297302 97.71351 1.332458 97.639728 1.351044 97.61636 1.362167 97.62138 1.35968 97.62264 1.359055 97.65861 1.34201 97.70084 1.3004 97.74315 1.258728 97.83346 1.149094 97.83346 .976593H96.83346C96.83346 .782501 96.93483 .651291 96.99903 .588043 97.063159 .524872 97.13184 .486267 97.176418 .464127 97.26807 .418594 97.373699 .38681 97.46939 .362717 97.66866 .312561 97.94303 .267426 98.27224 .225601L98.3983 1.217621ZM97.83346 .976593C97.83346 1.037033 97.821529 1.093094 97.82046 1.098618 97.816127 1.121033 97.81062 1.145859 97.80482 1.170776 97.79303 1.221375 97.7763 1.288101 97.75538 1.368668 97.71333 1.530624 97.65127 1.760422 97.57034 2.054153L96.60626 1.788544C96.6868 1.496231 96.74731 1.272064 96.787479 1.117371 96.80766 1.039597 96.821949 .98233 96.830898 .943893 96.83546 .924316 96.83775 .913361 96.83863 .908829 96.84277 .887421 96.83346 .925354 96.83346 .976593H97.83346ZM97.04314 3.934204C96.885417 4.490891 96.704708 5.125519 96.50206 5.834381L95.54057 5.559525C95.743068 4.851227 95.92355 4.217361 96.081 3.661621L97.04314 3.934204ZM95.9643 7.710541C95.79435 8.302139 95.61361 8.930222 95.422458 9.593414L94.46157 9.316452C94.65265 8.653519 94.83331 8.025726 95.00318 7.434433L95.9643 7.710541ZM94.87816 11.479416C94.70329 12.08461 94.52142 12.713409 94.33279 13.36499L93.37223 13.086914C93.56083 12.435471 93.742649 11.806854 93.91746 11.201828L94.87816 11.479416ZM93.78645 15.250519C93.60898 15.862564 93.426387 16.491806 93.23882 17.137696L92.278499 16.858826C92.46602 16.213044 92.648578 15.583939 92.82602 14.972015L93.78645 15.250519ZM92.68945 19.028382C92.510349 19.64441 92.327259 20.273804 92.14029 20.916169L91.18014 20.636704C91.36707 19.99443 91.55014 19.365143 91.72922 18.749207L92.68945 19.028382ZM91.594318 22.79103C91.4146 23.407883 91.23166 24.035492 91.04559 24.673554L90.08558 24.3936C90.27162 23.755616 90.45454 23.128083 90.63423 22.511322L91.594318 22.79103ZM90.49382 26.564866C90.31332 27.183312 90.13013 27.810708 89.94433 28.446778L88.98444 28.166398C89.17022 27.530396 89.353389 26.903069 89.53387 26.284699L90.49382 26.564866ZM89.39553 30.324898C89.21358 30.947358 89.02931 31.577477 88.84281 32.21502L87.88303 31.934258C88.06952 31.296776 88.25376 30.666718 88.4357 30.044327L89.39553 30.324898ZM88.292339 34.09616C88.1108 34.716295 87.9273 35.34295 87.74189 35.97593L86.78221 35.694818C86.96761 35.06189 87.15109 34.435297 87.33261 33.815225L88.292339 34.09616ZM87.18709 37.86933C87.005687 38.488229 86.82257 39.112756 86.637798 39.742753L85.678218 39.46132C85.862979 38.831377 86.046077 38.206895 86.22746 37.58805L87.18709 37.86933ZM86.0845 41.628686C85.90171 42.251535 85.71741 42.879388 85.531627 43.512079L84.57213 43.23033C84.757907 42.597688 84.94219 41.969896 85.12497 41.34709L86.0845 41.628686ZM84.9795 45.391786C84.795688 46.01741 84.61051 46.647478 84.42403 47.281839L83.46462 46.999795C83.65109 46.36548 83.83625 45.735467 84.02006 45.109895L84.9795 45.391786ZM83.8727 49.156694C83.68852 49.782846 83.503139 50.41294 83.316577 51.046846L82.35726 50.76451C82.54381 50.13066 82.72918 49.50061 82.913349 48.874505L83.8727 49.156694ZM82.7645 52.92221C82.58031 53.54772 82.39504 54.176729 82.20873 54.80909L81.2495 54.526475C81.43579 53.894159 81.62105 53.265207 81.80522 52.63974L82.7645 52.92221ZM81.65511 56.687669C81.47085 57.312784 81.285617 57.940996 81.09945 58.57218L80.1403 58.28929C80.32645 57.65815 80.511669 57.029985 80.69592 56.404924L81.65511 56.687669ZM80.54466 60.452737C80.36025 61.07766 80.17498 61.705339 79.988887 62.335649L79.029819 62.05249C79.2159 61.42222 79.40115 60.794588 79.58555 60.16971L80.54466 60.452737ZM79.433208 64.21724C79.248607 64.842159 79.06323 65.46951 78.87712 66.099208L77.91813 65.81577C78.104228 65.18612 78.28959 64.55881 78.474178 63.933946L79.433208 64.21724ZM78.32075 67.98118C78.13591 68.606227 77.95039 69.23344 77.76421 69.86271L76.8053 69.578998C76.99147 68.94977 77.17698 68.32261 77.36179 67.69761L78.32075 67.98118ZM77.207279 71.74459C77.02218 72.36986 76.83647 72.99704 76.65018 73.62603L75.691349 73.34204C75.87763 72.7131 76.063327 72.08597 76.248409 71.46074L77.207279 71.74459ZM76.092769 75.50754C75.99958 75.821979 75.906269 76.13684 75.81281 76.45211L74.85405 76.167919C74.947498 75.85267 75.0408 75.53783 75.13397 75.22341L76.092769 75.50754ZM75.81294 76.45169C75.71826 76.772129 75.623729 77.092159 75.529338 77.411769L74.57029 77.12852C74.66469 76.808879 74.75924 76.48881 74.85392 76.16834L75.81294 76.45169ZM74.9647 79.3243C74.77597 79.96379 74.58785 80.60147 74.40037 81.23727L73.4412 80.954418C73.62871 80.31856 73.81685 79.68081 74.00559 79.04126L74.9647 79.3243ZM73.836559 83.14993C73.648 83.78984 73.46012 84.4277 73.27295 85.063388L72.31367 84.780948C72.50086 84.14518 72.68876 83.507259 72.877338 82.86729L73.836559 83.14993ZM72.71009 86.97582C72.52165 87.61631 72.333988 88.25447 72.1471 88.89018L71.1877 88.60815C71.374599 87.97237 71.562297 87.334148 71.75075 86.69358L72.71009 86.97582ZM71.58536 90.80186C71.396999 91.44313 71.20949 92.08177 71.022869 92.717639L70.06333 92.43603C70.24998 91.80008 70.43751 91.16138 70.62589 90.52003L71.58536 90.80186ZM70.46247 94.62782C70.27412 95.27014 70.08671 95.90947 69.9003 96.54568L68.94064 96.264499C69.127079 95.62821 69.3145 94.988819 69.502887 94.34642L70.46247 94.62782ZM69.34159 98.453357C69.15316 99.09702 68.9658 99.737308 68.77955 100.37407L67.81976 100.09334C68.006038 99.4565 68.19341 98.81614 68.38187 98.1724L69.34159 98.453357ZM68.222248 102.28033C68.03389 102.92487 67.84674 103.5656 67.660839 104.20236L66.70091 103.922107C66.88683 103.28526 67.07401 102.644458 67.26239 101.99983L68.222248 102.28033ZM67.10338 106.112659C66.915729 106.75603 66.729419 107.39511 66.544498 108.029727L65.58442 107.74997C65.76936 107.115268 65.9557 106.476108 66.14338 105.83264L67.10338 106.112659ZM65.986598 109.94531C65.7999 110.586719 65.61469 111.22327 65.43105 111.85481L64.470829 111.5756C64.654499 110.94396 64.839717 110.30731 65.02645 109.66582L65.986598 109.94531ZM64.87245 113.77693C64.68609 114.41855 64.501438 115.05463 64.31855 115.68501L63.358156 115.40637C63.54107 114.775897 63.725748 114.13971 63.912137 113.498L64.87245 113.77693ZM63.7618 117.6052C63.574728 118.2508 63.389635 118.88997 63.206579 119.52252L62.245996 119.24453C62.42908 118.61188 62.614206 117.972599 62.801309 117.32689L63.7618 117.6052ZM62.655916 121.42661C62.468057 122.076648 62.28251 122.71915 62.099348 123.35385L61.138555 123.07659C61.32175 122.44176 61.50733 121.79913 61.69523 121.14897L62.655916 121.42661ZM61.546686 125.27048C61.361116 125.91454 61.178205 126.549907 60.998029 127.1763L60.036996 126.89987C60.217214 126.27333 60.40016 125.63782 60.585775 124.993618L61.546686 125.27048ZM60.444906 129.10108C60.257978 129.75215 60.074285 130.39261 59.89392 131.02213L58.932603 130.74669C59.113016 130.117 59.296758 129.47638 59.48373 128.82512L60.444906 129.10108ZM59.346117 132.93624C59.160486 133.5856 58.978788 134.22202 58.801137 134.84506L57.839468 134.57086C58.01718 133.94759 58.19894 133.31096 58.38463 132.66138L59.346117 132.93624ZM58.25456 136.76477C58.06741 137.42307 57.885374 138.06447 57.708608 138.6884L56.746477 138.41584C56.923326 137.79158 57.105447 137.14989 57.29267 136.49132L58.25456 136.76477ZM57.16542 140.60958C56.97831 141.2728 56.798154 141.91292 56.625188 142.52915L55.662397 142.25891C55.83549 141.64221 56.015768 141.00165 56.20299 140.33805L57.16542 140.60958ZM56.08876 144.44638C55.90131 145.1187 55.72445 145.75576 55.558565 146.3562L54.59467 146.0899C54.76079 145.4886 54.937868 144.85079 55.125505 144.17781L56.08876 144.44638ZM55.026735 148.29389C54.833616 149.00299 54.66233 149.6391 54.51387 150.19879L53.5473 149.9424C53.696458 149.38008 53.868333 148.74178 54.061876 148.03112L55.026735 148.29389ZM54.01517 152.14015C53.951158 152.40418 53.90376 152.61165 53.872655 152.76299 53.837236 152.93535 53.8334 152.98812 53.8334 152.97678H52.8334C52.8334 152.86678 52.862916 152.7087 52.893129 152.56168 52.927659 152.39365 52.97818 152.17324 53.043325 151.90454L54.01517 152.14015ZM39.725214 73.18957C39.40177 73.09413 39.074724 72.98743 38.744638 72.87005L39.079679 71.92784C39.39361 72.039478 39.703294 72.14047 40.00823 72.23045L39.725214 73.18957ZM36.84136 72.09283C36.23753 71.81605 35.626436 71.5086 35.01111 71.173458L35.489427 70.295269C36.086236 70.62032 36.676767 70.917339 37.258047 71.18378L36.84136 72.09283ZM33.247179 70.145C32.679986 69.793048 32.111249 69.42007 31.543246 69.02822L32.1111 68.20509C32.66646 68.58822 33.22167 68.95229 33.774435 69.295299L33.247179 70.145ZM29.89441 67.83657C29.358939 67.43202 28.825947 67.01224 28.29738 66.57903L28.931269 65.80561C29.449906 66.230678 29.97254 66.64229 30.497216 67.03868L29.89441 67.83657ZM26.750409 65.261737C26.244763 64.81473 25.745062 64.35653 25.253123 63.88881L25.942162 63.164087C26.4254 63.623529 26.916197 64.07356 27.412739 64.51253L26.750409 65.261737ZM23.806427 62.462869C23.331675 61.977716 22.866414 61.48462 22.41247 60.98522L23.152445 60.31259C23.598027 60.80278 24.054863 61.286958 24.52115 61.76346L23.806427 62.462869ZM21.074725 59.455934C20.634602 58.932603 20.208218 58.404298 19.797558 57.872797L20.588873 57.26139C20.990817 57.7816 21.408518 58.29917 21.840054 58.812295L21.074725 59.455934ZM18.589095 56.23403C18.192454 55.669069 17.815379 55.10237 17.460244 54.536035L18.307454 54.004777C18.65287 54.55562 19.020295 55.107873 19.40753 55.65943L18.589095 56.23403ZM16.42681 52.77388C16.261673 52.470827 16.103545 52.168397 15.952806 51.86692L16.847233 51.4197C16.992508 51.71025 17.145176 52.00226 17.304909 52.295404L16.42681 52.77388ZM15.954639 51.870546C15.821828 51.610239 15.675854 51.30255 15.518225 50.952768L16.429926 50.541917C16.583264 50.88218 16.722115 51.17443 16.845402 51.416078L15.954639 51.870546ZM14.718758 49.07109C14.486746 48.50048 14.238917 47.873926 13.977551 47.198419L14.910175 46.83757C15.16993 47.50891 15.415642 48.13008 15.645109 48.694429L14.718758 49.07109ZM13.255081 45.299287C13.027882 44.693017 12.793159 44.058946 12.552063 43.400606L13.491076 43.056726C13.731406 43.712976 13.965258 44.34468 14.191487 44.948366L13.255081 45.299287ZM11.864435 41.505418C11.64212 40.88736 11.415656 40.252885 11.18583 39.604394L12.128388 39.270349C12.357726 39.917467 12.583664 40.55047 12.805412 41.166955L11.864435 41.505418ZM10.515165 37.699617C10.296009 37.073289 10.074591 36.436807 9.851548 35.792108L10.79659 35.465158C11.019266 36.108797 11.240298 36.74417 11.459051 37.369348L10.515165 37.699617ZM9.194324 33.88246C8.977976 33.250619 8.760699 32.612955 8.543056 31.971169L9.490083 31.650017C9.707418 32.290895 9.924377 32.927629 10.1404 33.558519L9.194324 33.88246ZM7.897676 30.05925C7.683964 29.423226 7.470428 28.784859 7.257599 28.145752L8.206374 27.829796C8.418921 28.468056 8.632172 29.105576 8.845594 29.74073L7.897676 30.05925ZM6.622375 26.229706C6.410861 25.588852 6.200587 24.948868 5.992087 24.311387L6.942541 24.000519C7.150761 24.637146 7.360755 25.276276 7.57199 25.91629L6.622375 26.229706ZM5.366928 22.391068C5.157733 21.745423 4.95096 21.10411 4.74718 20.468873L5.699384 20.163407C5.902861 20.797699 6.109337 21.43808 6.318239 22.082825L5.366928 22.391068ZM4.133217 18.544785C3.926509 17.893418 3.723733 17.250672 3.525551 16.618592L4.47975 16.319413C4.677572 16.950348 4.88 17.591996 5.086374 18.24231L4.133217 18.544785ZM2.924931 14.689926C2.720991 14.030365 2.523257 13.385742 2.332576 12.758682L3.28932 12.467743C3.479517 13.093231 3.676792 13.736343 3.880304 14.394531L2.924931 14.689926ZM1.750657 10.825668C1.550769 10.154343 1.36125 9.50943 1.183373 8.894806L2.143955 8.616821C2.321039 9.228699 2.50983 9.87114 2.709075 10.540314L1.750657 10.825668ZM.628063 6.937378C.430966 6.226013 .256224 5.573685 .10682 4.989365L1.075652 4.741638C1.223031 5.318039 1.395979 5.963776 1.591757 6.670364L.628063 6.937378ZM-.356671 2.995529C-.444635 2.545883-.5 2.169189-.5 1.909927H.5C.5 2.063263 .53719 2.356079 .624726 2.803543L-.356671 2.995529ZM-.5 1.909927C-.5 1.328934-.09637 .94278 .425738 .694748L.854849 1.597992C.671616 1.685043 .581335 1.761719 .53945 1.812653 .505729 1.853653 .5 1.880371 .5 1.909927H-.5ZM2.61454 .147263C3.216137 .06279 3.9237-.008011 4.747103-.066971L4.818532 .930481C4.009871 .988388 3.326086 1.057159 2.7536 1.137558L2.61454 .147263ZM6.8725-.183472C7.524297-.210403 8.229145-.233017 8.990027-.251678L9.014542 .748016C8.258223 .766571 7.559056 .789017 6.913795 .815674L6.8725-.183472ZM11.112044-.291733C11.780505-.301071 12.484539-.308212 13.225571-.313339L13.232485 .68663C12.493482 .691742 11.791821 .698868 11.126016 .708176L11.112044-.291733ZM15.341053-.322418C15.686996-.32309 16.039948-.323425 16.40002-.323425V.676575C16.040556 .676575 15.688253 .67691 15.342997 .677582L15.341053-.322418ZM16.40002-.323425H17.425023V.676575H16.40002V-.323425ZM19.475024-.323425H21.525027V.676575H19.475024V-.323425ZM23.57503-.323425H25.62503V.676575H23.57503V-.323425ZM27.675036-.323425H29.725037V.676575H27.675036V-.323425ZM31.775042-.323425H32.80004V.676575H31.775042V-.323425ZM33.281118 .040329 33.553339 1.001434 32.591188 1.273956 32.318967 .312836 33.281118 .040329ZM34.097784 2.92366 34.642229 4.845886 33.680078 5.118408 33.13563 3.196182 34.097784 2.92366ZM35.186677 6.768112 35.73112 8.690338 34.76897 8.962845 34.22452 7.040634 35.186677 6.768112ZM36.275568 10.612564 36.82001 12.53479 35.85786 12.807297 35.313417 10.885071 36.275568 10.612564ZM37.364458 14.457016 37.9089 16.379227 36.94675 16.651749 36.402307 14.729523 37.364458 14.457016ZM38.453348 18.301453 38.99779 20.223679 38.03564 20.4962 37.491197 18.573975 38.453348 18.301453ZM39.542238 22.145905 39.81446 23.107026 38.852308 23.379532 38.580087 22.418427 39.542238 22.145905ZM39.814729 23.107972C39.903879 23.425126 39.992517 23.739838 40.08065 24.052155L39.118238 24.323746C39.030008 24.011094 38.94128 23.696045 38.85204 23.378586L39.814729 23.107972ZM40.60522 25.903489C40.78514 26.535782 40.962965 27.157807 41.13879 27.769822L40.17767 28.045945C40.001596 27.433083 39.82354 26.810235 39.643404 26.177186L40.60522 25.903489ZM41.676729 29.632248C41.85947 30.261429 42.040079 30.879532 42.218667 31.48684L41.25929 31.768959C41.080369 31.16053 40.89945 30.541359 40.71641 29.911171L41.676729 29.632248ZM42.766069 33.335489C42.953348 33.963426 43.13845 34.579256 43.321535 35.18332L42.36452 35.473375C42.18099 34.86782 41.995458 34.250574 41.807779 33.621294L42.766069 33.335489ZM43.88839 37.036798C44.082609 37.66588 44.274625 38.281518 44.46464 38.884157L43.510927 39.184869C43.32028 38.580224 43.127664 37.96267 42.93289 37.331796L43.88839 37.036798ZM45.0522 40.725755C45.254579 41.352319 45.45482 41.96402 45.653177 42.561426L44.70412 42.876535C44.50486 42.276407 44.303773 41.662118 44.100606 41.03312L45.0522 40.725755ZM46.26989 44.39032C46.483427 45.013437 46.694997 45.62004 46.904935 46.21087L45.96265 46.545686C45.751386 45.95112 45.538576 45.340967 45.323896 44.7145L46.26989 44.39032ZM47.561216 48.020685C47.790647 48.640138 48.01848 49.24111 48.245157 49.824625L47.31302 50.18673C47.08432 49.598016 46.85462 48.992105 46.623468 48.368005L47.561216 48.020685ZM48.960496 51.61734C49.210855 52.22753 49.460344 52.817338 49.709589 53.388177L48.793138 53.788324C48.540746 53.210275 48.288354 52.613595 48.03534 51.996934L48.960496 51.61734ZM50.500494 55.137826C50.780366 55.735139 51.060724 56.310403 51.342439 56.86563L50.45066 57.318109C50.163969 56.753068 49.879034 56.16838 49.594964 55.56211L50.500494 55.137826ZM52.239545 58.558237C52.55681 59.13063 52.876893 59.680925 53.20098 60.21183L52.347448 60.732866C52.015798 60.189577 51.688695 59.627183 51.36491 59.043016L52.239545 58.558237ZM54.23539 61.821626C54.59833 62.35794 54.96761 62.874925 55.34478 63.376054L54.54579 63.9774C54.158468 63.462778 53.779458 62.93215 53.407209 62.38208L54.23539 61.821626ZM56.531446 64.87122C56.940977 65.360919 57.36093 65.837688 57.793088 66.30539L57.058626 66.98404C56.61569 66.50467 56.184823 66.01553 55.764345 65.51275L56.531446 64.87122ZM59.123273 67.680507C59.349103 67.90397 59.578367 68.1262 59.81127 68.34765L59.12221 69.07236C58.884679 68.846508 58.65064 68.61965 58.4199 68.39133L59.123273 67.680507ZM59.812696 68.34901 60.612695 69.11568 59.920789 69.83766 59.12079 69.071 59.812696 68.34901ZM62.2127 70.64901 63.812704 72.18235 63.120798 72.904338 61.520795 71.371 62.2127 70.64901ZM65.412708 73.71568 66.21271 74.48235 65.5208 75.20434 64.7208 74.437679 65.412708 73.71568ZM65.860088 75.3433 65.02676 75.33219 65.040088 74.33228 65.87342 74.34339 65.860088 75.3433ZM63.360086 75.30997 61.693418 75.28775 61.706747 74.287837 63.373418 74.31006 63.360086 75.30997ZM60.026746 75.265529 58.360078 75.2433 58.37341 74.24339 60.040079 74.26562 60.026746 75.265529ZM56.69341 75.221088 55.860074 75.20997 55.873407 74.21006 56.70674 74.22117 56.69341 75.221088ZM55.86674 75.210018C55.532487 75.210018 55.19207 75.206569 54.84675 75.199848L54.866197 74.200038C55.20543 74.206638 55.53935 74.210018 55.86674 74.210018V75.210018ZM52.81119 75.12632C52.140813 75.0917 51.46121 75.04696 50.780427 74.99327L50.85905 73.99636C51.5313 74.049388 52.20187 74.09352 52.862764 74.12765L52.81119 75.12632ZM48.754999 74.807788C48.072038 74.73663 47.395696 74.65747 46.734273 74.57148L46.8632 73.57983C47.51606 73.6647 48.18396 73.74288 48.858617 73.81317L48.754999 74.807788ZM44.719358 74.2809C44.016176 74.16885 43.342473 74.049518 42.710397 73.924549L42.90436 72.943538C43.52287 73.06583 44.18427 73.18303 44.876714 73.29336L44.719358 74.2809ZM40.71024 73.47275C40.35235 73.37934 40.01891 73.28369 39.714334 73.186229L40.019109 72.2338C40.30331 72.324748 40.61897 72.41543 40.962785 72.505168L40.71024 73.47275ZM75.33343 76.31001 74.37441 76.026668 74.374668 76.02582 75.33343 76.31001ZM130.9335 .176575V-.823425H132.13172L131.91738 .355469 130.9335 .176575ZM130.13352 4.576584 131.11739 4.755478 131.1128 4.780685 131.10692 4.805634 130.13352 4.576584ZM106.80015 81.510028 105.84451 81.21545 105.844989 81.21392 106.80015 81.510028ZM84.400119 154.17679 85.355739 154.47136 85.14412 155.15787 84.425968 155.17646 84.400119 154.17679ZM68.93342 154.57678 68.959278 155.57646 68.95361 155.57659 68.93342 154.57678ZM39.86672 72.710018 40.14974 71.7509 40.160657 71.75412 40.171499 71.75759 39.86672 72.710018ZM16.40002 51.64331 17.290812 51.188829 17.294447 51.1961 16.40002 51.64331ZM32.80004 .176575V-.823425H33.55614L33.76219-.095932 32.80004 .176575ZM39.333387 23.243287 40.295537 22.970765 40.29607 22.972657 39.333387 23.243287ZM59.46674 68.71001 60.155809 67.9853 60.158647 67.988018 59.46674 68.71001ZM65.86675 74.843349 66.558658 74.12136 68.390727 75.87709 65.853427 75.84326 65.86675 74.843349ZM55.86674 74.710018V73.70993L55.880075 73.710109 55.86674 74.710018ZM54.3334 152.97678C54.3334 153.01016 54.33619 153.02782 54.337388 153.03383 54.338396 153.0389 54.338056 153.0348 54.3338 153.02591 54.331853 153.02185 54.329679 153.01802 54.327547 153.01477 54.32652 153.01322 54.325639 153.012 54.324975 153.01111 54.324308 153.01024 54.32394 153.00981 54.32396 153.00983 54.323984 153.00986 54.324468 153.01042 54.32552 153.01149 54.326574 153.01256 54.32825 153.0142 54.330667 153.01639 54.33549 153.02074 54.343435 153.0274 54.355443 153.03603L53.18837 154.6602C52.909017 154.45948 52.6808 154.20482 52.529855 153.8895 52.381059 153.57868 52.3334 153.26345 52.3334 152.97678H54.3334ZM55.838106 153.42926C56.351507 153.49796 56.99028 153.55171 57.782323 153.59047L57.68458 155.58808C56.85962 155.54772 56.160825 155.49027 55.572835 155.41159L55.838106 153.42926ZM59.78238 153.6517C60.397184 153.66185 61.069955 153.66678 61.805856 153.66687L61.805604 155.66687C61.06122 155.66678 60.377279 155.6618 59.74936 155.65143L59.78238 153.6517ZM63.828214 153.65683C64.466327 153.65093 65.14219 153.64249 65.857959 153.6317L65.8881 155.63147C65.16914 155.6423 64.48934 155.6508 63.846727 155.65676L63.828214 153.65683ZM67.89264 153.59693C68.22539 153.59067 68.56553 153.58402 68.91322 153.57698L68.95361 155.57659C68.60509 155.58362 68.26403 155.59029 67.9303 155.59658L67.89264 153.59693ZM68.90756 153.57712 69.87423 153.55211 69.92594 155.55146 68.959278 155.57645 68.90756 153.57712ZM71.80757 153.50212 73.740909 153.45212 73.79261 155.45145 71.859279 155.50145 71.80757 153.50212ZM75.67424 153.40212 77.60758 153.35211 77.65929 155.35144 75.72595 155.40145 75.67424 153.40212ZM79.54092 153.30211 81.47425 153.25212 81.52596 155.25145 79.59262 155.30146 79.54092 153.30211ZM83.407588 153.20212 84.37426 153.17711 84.425968 155.17646 83.4593 155.20145 83.407588 153.20212ZM83.44449 153.8822 83.73922 152.92606 85.650478 153.51522 85.355739 154.47136 83.44449 153.8822ZM84.3287 151.01378 84.918178 149.1015 86.82943 149.69066 86.23995 151.60294 84.3287 151.01378ZM85.507648 147.18921 86.09712 145.27693 88.00838 145.86609 87.4189 147.77837 85.507648 147.18921ZM86.68659 143.36464 87.27607 141.45236 89.187328 142.04152 88.59785 143.9538 86.68659 143.36464ZM87.86555 139.54009 88.45502 137.62779 90.36627 138.21695 89.7768 140.12924 87.86555 139.54009ZM89.044498 135.71552 89.633968 133.80323 91.54522 134.3924 90.95575 136.30467 89.044498 135.71552ZM90.22344 131.89095 90.81292 129.97867 92.72417 130.56783 92.1347 132.4801 90.22344 131.89095ZM91.40239 128.06638 91.99187 126.1541 93.90312 126.743259 93.313648 128.65555 91.40239 128.06638ZM92.58134 124.24182 93.170818 122.32954 95.08207 122.91869 94.49259 124.83098 92.58134 124.24182ZM93.760288 120.41725 94.34976 118.504978 96.26102 119.09413 95.67154 121.00641 93.760288 120.41725ZM94.93924 116.59269 95.52871 114.680408 97.439968 115.26956 96.850498 117.18185 94.93924 116.59269ZM96.11819 112.76813 96.70766 110.855838 98.61891 111.445 98.02944 113.357288 96.11819 112.76813ZM97.297138 108.94356 97.88661 107.03128 99.79786 107.62044 99.20839 109.532718 97.297138 108.94356ZM98.47608 105.118999 99.06556 103.20671 100.976818 103.79587 100.38734 105.70815 98.47608 105.118999ZM99.65503 101.29443 100.24451 99.38214 102.15576 99.971309 101.566287 101.88359 99.65503 101.29443ZM100.83398 97.469867 101.423458 95.55759 103.33471 96.14674 102.74523 98.05902 100.83398 97.469867ZM102.012928 93.6453 102.6024 91.73302 104.51366 92.322177 103.92418 94.23446 102.012928 93.6453ZM103.19188 89.82073 103.78135 87.90845 105.692607 88.497608 105.103137 90.40989 103.19188 89.82073ZM104.37083 85.99617 104.960308 84.083889 106.87156 84.67304 106.28208 86.58533 104.37083 85.99617ZM105.549777 82.1716 105.84452 81.21545 107.755779 81.8046 107.46103 82.76076 105.549777 82.1716ZM105.844989 81.21392C105.94461 80.89257 106.0441 80.57156 106.143459 80.250919L108.05384 80.842868C107.95446 81.1636 107.85495 81.48469 107.7553 81.80612L105.844989 81.21392ZM106.73797 78.33142C106.936679 77.689579 107.13481 77.049289 107.332347 76.410678L109.24303 77.00168C109.04545 77.64045 108.84726 78.28089 108.648509 78.9229L106.73797 78.33142ZM107.92568 74.491619C108.12424 73.84912 108.32215 73.20845 108.51937 72.56973L110.43034 73.159809C110.23308 73.798679 110.03512 74.4395 109.83651 75.08215L107.92568 74.491619ZM109.111408 70.65158C109.309879 70.00826 109.50761 69.36707 109.70456 68.728137L111.615818 69.31728C111.418819 69.956378 111.22104 70.59772 111.02252 71.24118L109.111408 70.65158ZM110.295108 66.81152C110.49355 66.16719 110.691158 65.52531 110.887889 64.886L112.79942 65.474239C112.602649 66.11369 112.405 66.75572 112.206508 67.40021L110.295108 66.81152ZM111.47669 62.97178C111.675189 62.326196 111.872737 61.68342 112.0693 61.04358L113.98112 61.630899C113.78451 62.27089 113.586917 62.91382 113.388378 63.559556L111.47669 62.97178ZM112.65781 59.127069C112.855838 58.481897 113.0528 57.83992 113.248668 57.20128L115.16077 57.78768C114.96486 58.426477 114.767848 59.068605 114.56976 59.71393L112.65781 59.127069ZM113.83721 55.281366C114.03461 54.63716 114.23081 53.996583 114.42577 53.35977L116.33816 53.94526C116.14314 54.582223 115.9469 55.222955 115.74945 55.86731L113.83721 55.281366ZM115.014659 51.435449C115.21121 50.792863 115.40643 50.15438 115.60027 49.52015L117.51294 50.1047C117.31905 50.739084 117.12379 51.37773 116.92718 52.02047L115.014659 51.435449ZM116.18978 47.590387C116.38637 46.94657 116.581439 46.30745 116.77493 45.673196L118.68789 46.256784C118.49435 46.891199 118.29923 47.53048 118.1026 48.174455L116.18978 47.590387ZM117.36202 43.747888C117.55924 43.100824 117.754718 42.459184 117.94839 41.823175L119.86165 42.40577C119.66793 43.041955 119.472408 43.683755 119.27513 44.330987L117.36202 43.747888ZM118.53047 39.91069C118.72846 39.259874 118.92442 38.61538 119.1183 37.97744L121.03188 38.559C120.83795 39.19712 120.64193 39.84179 120.443889 40.492784L118.53047 39.91069ZM119.70223 36.055086C119.898189 35.409669 120.091838 34.771493 120.28311 34.1408L122.19703 34.72126C122.00569 35.352136 121.81199 35.9905 121.61598 36.6361L119.70223 36.055086ZM120.86911 32.207544C121.06608 31.557374 121.26031 30.915863 121.45171 30.283303L123.366 30.862549C123.17452 31.495324 122.98023 32.13704 122.7832 32.787408L120.86911 32.207544ZM122.031009 28.367707C122.228298 27.714928 122.422298 27.072602 122.61291 26.44107L124.52759 27.018982C124.33691 27.650742 124.14284 28.293297 123.94549 28.946305L122.031009 28.367707ZM123.1951 24.510834C123.39246 23.856003 123.585788 23.214112 123.77493 22.585572L125.69009 23.161911C125.500858 23.790726 125.30746 24.432892 125.11001 25.087983L123.1951 24.510834ZM124.35282 20.66365C124.55019 20.006669 124.74241 19.366257 124.9293 18.742966L126.84503 19.317399C126.658039 19.941025 126.46572 20.581788 126.26825 21.23909L124.35282 20.66365ZM125.50495 16.82106C125.70389 16.156128 125.89575 15.514023 126.08029 14.895569L127.99679 15.467453C127.8121 16.08638 127.6201 16.728959 127.421039 17.394318L125.50495 16.82106ZM126.65537 12.965271C126.857669 12.28511 127.048999 11.640442 127.22896 11.0327L129.14665 11.600555C128.96645 12.209137 128.77487 12.854568 128.57239 13.535416L126.65537 12.965271ZM127.79641 9.110733C128.00783 8.392197 128.19676 7.746902 128.3621 7.178543L130.28249 7.737259C130.11644 8.307983 129.92694 8.955276 129.71508 9.675278L127.79641 9.110733ZM128.9137 5.258835C129.04769 4.7827 129.12828 4.482758 129.1601 4.347549L131.10692 4.805634C131.06354 4.990051 130.97084 5.331833 130.83893 5.800568L128.9137 5.258835ZM129.14965 4.397705 129.34964 3.297699 131.31739 3.655472 131.11739 4.755478 129.14965 4.397705ZM129.74964 1.097702 129.94963-.002304 131.91738 .355469 131.71738 1.45546 129.74964 1.097702ZM130.9335 1.176575H129.8835V-.823425H130.9335V1.176575ZM127.78349 1.176575H125.683498V-.823425H127.78349V1.176575ZM123.583499 1.176575H121.48349V-.823425H123.583499V1.176575ZM119.38349 1.176575H117.283489V-.823425H119.38349V1.176575ZM115.18349 1.176575H114.13349V-.823425H115.18349V1.176575ZM114.13349 1.176575C113.78041 1.176575 113.4297 1.17717 113.0817 1.178329L113.07504-.821655C113.425258-.82283 113.77818-.823425 114.13349-.823425V1.176575ZM110.97999 1.192413C110.26267 1.199661 109.561008 1.209305 108.878337 1.2211L108.84378-.778595C109.531299-.790482 110.23774-.800186 110.95977-.80748L110.97999 1.192413ZM106.77899 1.265549C106.04823 1.283981 105.34715 1.304932 104.680759 1.328064L104.61138-.670731C105.284488-.694092 105.991878-.715225 106.72853-.733826L106.77899 1.265549ZM102.585308 1.413193C101.81477 1.449631 101.116039 1.489136 100.50025 1.530899L100.36496-.464523C100.99702-.507385 101.709659-.547638 102.49083-.584579L102.585308 1.413193ZM98.46133 1.713623C98.14811 1.753433 97.94548 1.789673 97.83557 1.817337 97.77274 1.833145 97.79051 1.833954 97.843868 1.807449 97.86804 1.795441 97.95634 1.75058 98.05174 1.656586 98.14731 1.562439 98.33346 1.332397 98.33346 .976593H96.33346C96.33346 .599197 96.53067 .347565 96.648128 .231857 96.76543 .116287 96.886447 .049881 96.95393 .016357 97.09391-.053192 97.24068-.095306 97.347339-.122162 97.576389-.17981 97.87467-.227905 98.20921-.270416L98.46133 1.713623ZM98.33346 .976593C98.33346 1.053131 98.32443 1.114365 98.32224 1.129562 98.3185 1.155533 98.314357 1.17807 98.31137 1.193512 98.30531 1.224854 98.29821 1.256622 98.29178 1.28421 98.27857 1.340897 98.26062 1.412354 98.239337 1.494308 98.19635 1.659897 98.1335 1.892517 98.05238 2.186951L96.12422 1.655746C96.20456 1.36412 96.26429 1.142792 96.30352 .991714 96.32334 .915359 96.3364 .862793 96.34393 .83046 96.34788 .813538 96.34857 .80954 96.34772 .81395 96.34734 .815903 96.34516 .827179 96.34272 .844101 96.341838 .85025 96.33346 .904648 96.33346 .976593H98.33346ZM97.5242 4.070511C97.36635 4.62764 97.18553 5.262665 96.9828 5.971817L95.05984 5.422089C95.26224 4.714066 95.44262 4.080612 95.59994 3.52533L97.5242 4.070511ZM96.44487 7.848587C96.27487 8.440353 96.094089 9.068573 95.9029 9.731888L93.98113 9.177979C94.17217 8.515167 94.3528 7.887512 94.52261 7.296371L96.44487 7.848587ZM95.35851 11.61821C95.18362 12.223495 95.001728 12.852371 94.813068 13.504044L92.89195 12.947861C93.08053 12.296509 93.262317 11.667969 93.43711 11.063034L95.35851 11.61821ZM94.26667 15.389786C94.08917 16.001877 93.90656 16.63118 93.71899 17.277115L91.79833 16.71939C91.98583 16.07367 92.16838 15.444626 92.3458 14.832764L94.26667 15.389786ZM93.16957 19.167969C92.990459 19.784058 92.80734 20.413498 92.62037 21.055893L90.70006 20.496964C90.88698 19.854752 91.07003 19.225495 91.24909 18.609604L93.16957 19.167969ZM92.074359 22.930893C91.89463 23.54779 91.71168 24.17543 91.5256 24.813523L89.605579 24.253617C89.7916 23.615677 89.97451 22.98819 90.15419 22.37146L92.074359 22.930893ZM90.97379 26.704957C90.79328 27.323433 90.610088 27.95086 90.42428 28.586968L88.5045 28.026207C88.69026 27.390236 88.87342 26.762948 89.053897 26.144608L90.97379 26.704957ZM89.87544 30.465188C89.69348 31.087677 89.50921 31.717827 89.3227 32.3554L87.403148 31.793877C87.58962 31.156418 87.77386 30.526398 87.95578 29.904038L89.87544 30.465188ZM88.772197 34.236635C88.59066 34.85679 88.40715 35.483476 88.221729 36.116479L86.302379 35.55426C86.48776 34.921365 86.67124 34.294794 86.852748 33.67475L88.772197 34.236635ZM87.6669 38.00997C87.48549 38.62889 87.30237 39.25345 87.117588 39.883478L85.198429 39.320604C85.38318 38.69068 85.56627 38.06623 85.74765 37.44741L87.6669 38.00997ZM86.56427 41.769487C86.38147 42.392358 86.19716 43.020235 86.01137 43.652948L84.092388 43.089456C84.27815 42.45684 84.46243 41.82907 84.6452 41.2063L86.56427 41.769487ZM85.45922 45.532739C85.2754 46.15838 85.09022 46.788469 84.903728 47.42286L82.984928 46.858774C83.17139 46.22448 83.35654 45.59449 83.54033 44.96894L85.45922 45.532739ZM84.35239 49.297784C84.1682 49.923967 83.9828 50.554086 83.796237 51.18801L81.8776 50.623346C82.06414 49.989519 82.249507 49.359498 82.43366 48.733407L84.35239 49.297784ZM83.24414 53.063447C83.059947 53.68898 82.874668 54.31801 82.688358 54.950395L80.76988 54.38517C80.95617 53.752878 81.14142 53.123949 81.325588 52.498506L83.24414 53.063447ZM82.13471 56.82905C81.95043 57.454179 81.7652 58.082414 81.579029 58.713624L79.66072 58.14785C79.84686 57.51673 80.032077 56.888589 80.216327 56.263544L82.13471 56.82905ZM81.024219 60.594247C80.839809 61.219194 80.654529 61.846895 80.46842 62.477235L78.55028 61.910905C78.73636 61.280656 78.92161 60.653055 79.105998 60.0282L81.024219 60.594247ZM79.91272 64.358898C79.72811 64.983829 79.54273 65.611209 79.35662 66.24093L77.43864 65.67405C77.624729 65.044429 77.810077 64.41714 77.99466 63.79229L79.91272 64.358898ZM78.800228 68.12297C78.61538 68.74803 78.429859 69.37527 78.24367 70.00456L76.32584 69.43714C76.51201 68.80794 76.69751 68.18079 76.88232 67.555828L78.800228 68.12297ZM77.68671 71.88651C77.50161 72.5118 77.315898 73.13901 77.12959 73.76802L75.21194 73.20005C75.39821 72.57113 75.58389 71.944019 75.76897 71.31882L77.68671 71.88651ZM76.57216 75.6496C76.47897 75.96405 76.38565 76.27892 76.2922 76.59421L74.374668 76.02582C74.4681 75.71058 74.56141 75.39575 74.65458 75.08135L76.57216 75.6496ZM76.29245 76.59336C76.19778 76.91378 76.10325 77.233798 76.00886 77.55338L74.09077 76.98689C74.18517 76.66723 74.279727 76.34715 74.37441 76.026668L76.29245 76.59336ZM75.44425 79.46583C75.25554 80.10528 75.06743 80.742938 74.87995 81.378688L72.96162 80.81299C73.14914 80.1771 73.33729 79.539318 73.52604 78.899738L75.44425 79.46583ZM74.31617 83.29125C74.127628 83.93113 73.93975 84.56895 73.752597 85.20461L71.83403 84.63972C72.021228 84.00392 72.20914 83.36597 72.39772 82.72596L74.31617 83.29125ZM73.18976 87.11694C73.001338 87.7574 72.813678 88.39552 72.62681 89.0312L70.708 88.46713C70.894908 87.831317 71.08261 87.193058 71.27107 86.55246L73.18976 87.11694ZM72.065097 90.942768C71.87674 91.584018 71.68924 92.22261 71.502628 92.858448L69.58357 92.29522C69.770229 91.65924 69.95776 91.0205 70.146167 90.37912L72.065097 90.942768ZM70.94227 94.76852C70.75392 95.4108 70.56653 96.050098 70.38013 96.686267L68.460819 96.12391C68.64726 95.48759 68.834697 94.848148 69.02309 94.20572L70.94227 94.76852ZM69.82145 98.593837C69.633029 99.23746 69.44568 99.8777 69.259449 100.514438L67.339878 99.95298C67.52615 99.3161 67.71355 98.675708 67.90201 98.03192L69.82145 98.593837ZM68.70217 102.42058C68.513828 103.06508 68.32669 103.705768 68.1408 104.34248L66.22095 103.781978C66.40688 103.145099 66.59407 102.50425 66.78246 101.85959L68.70217 102.42058ZM67.58338 106.252658C67.39574 106.895999 67.209438 107.53503 67.02453 108.1696L65.104389 107.61009C65.289348 106.97535 65.47569 106.33615 65.66338 105.69264L67.58338 106.252658ZM66.466678 110.08505C66.27998 110.72641 66.094799 111.36293 65.91117 111.99442L63.99071 111.43599C64.17439 110.804309 64.35963 110.16762 64.54638 109.52608L66.466678 110.08505ZM65.35261 113.9164C65.16626 114.55796 64.98162 115.194 64.79875 115.824329L62.877954 115.26706C63.060884 114.636539 63.24558 114.0003 63.43198 113.358539L65.35261 113.9164ZM64.24204 117.74436C64.054988 118.38991 63.869909 119.02902 63.68687 119.661518L61.7657 119.10554C61.948804 118.472827 62.133947 117.83348 62.321065 117.18773L64.24204 117.74436ZM63.136259 121.56543C62.948415 122.21541 62.762887 122.857837 62.579744 123.492488L60.658155 122.93796C60.841375 122.303058 61.026975 121.66037 61.214887 121.010158L63.136259 121.56543ZM62.027139 125.408908C61.84159 126.0529 61.6587 126.688198 61.478548 127.314517L59.556478 126.76166C59.736715 126.13504 59.91969 125.49946 60.10532 124.85519L62.027139 125.408908ZM60.925489 129.23905C60.738588 129.89005 60.554918 130.53043 60.374586 131.15984L58.451944 130.60898C58.63238 129.9792 58.816148 129.33847 59.003149 128.68714L60.925489 129.23905ZM59.82686 133.07366C59.64126 133.72292 59.45959 134.35923 59.281976 134.98217L57.358629 134.43376C57.536378 133.81037 57.718168 133.17363 57.903886 132.52396L59.82686 133.07366ZM58.7355 136.90149C58.54839 137.55966 58.366395 138.20092 58.189676 138.82469L56.265409 138.27954C56.442304 137.65514 56.624464 137.0133 56.81173 136.35459L58.7355 136.90149ZM57.646638 140.74535C57.45958 141.40836 57.279489 142.04827 57.106588 142.66428L55.181 142.1238C55.35416 141.50687 55.534498 140.86609 55.72178 140.20227L57.646638 140.74535ZM56.570394 144.58068C56.38303 145.25266 56.206277 145.88932 56.04051 146.48935L54.112726 145.95676C54.27896 145.35504 54.456144 144.71683 54.64387 144.04352L56.570394 144.58068ZM55.50916 148.42528C55.316259 149.13359 55.14527 149.76862 54.997156 150.32698L53.06401 149.8142C53.21352 149.25058 53.385694 148.61116 53.579446 147.89974L55.50916 148.42528ZM54.50109 152.25797C54.43765 152.51966 54.391809 152.72064 54.36242 152.86363 54.347646 152.93553 54.338594 152.98525 54.333654 153.0166 54.326368 153.06284 54.3334 153.03577 54.3334 152.97678H52.3334C52.3334 152.80612 52.375757 152.59537 52.403364 152.46103 52.43961 152.28466 52.49169 152.05776 52.557405 151.78673L54.50109 152.25797ZM39.583703 73.66913C39.251008 73.57095 38.915285 73.461399 38.577119 73.34115L39.2472 71.45674C39.553049 71.5655 39.854059 71.66365 40.14974 71.7509L39.583703 73.66913ZM36.633016 72.547359C36.01791 72.2654 35.396535 71.95273 34.771955 71.61255L35.72858 69.85617C36.316137 70.176189 36.896387 70.46798 37.46639 70.729259L36.633016 72.547359ZM32.983549 70.569858C32.409147 70.213428 31.833642 69.83599 31.259318 69.43978L32.395025 67.793529C32.944067 68.172298 33.492509 68.53191 34.038064 68.87044L32.983549 70.569858ZM29.593007 68.23551C29.052138 67.82688 28.513968 67.403018 27.980437 66.965747L29.248213 65.41889C29.761885 65.83989 30.279339 66.24742 30.798619 66.63973L29.593007 68.23551ZM26.419243 65.63634C25.909047 65.18531 25.404894 64.72302 24.908602 64.25117L26.286683 62.80172C26.765568 63.257036 27.251915 63.70298 27.743906 64.13792L26.419243 65.63634ZM23.449065 62.81257C22.97008 62.32309 22.500607 61.82553 22.042483 61.32154L23.522435 59.976274C23.963833 60.46187 24.416459 60.94158 24.878514 61.413759L23.449065 62.81257ZM20.692059 59.777757C20.247645 59.249315 19.816918 58.715639 19.401902 58.178506L20.984532 56.95569C21.382117 57.47026 21.795475 57.98246 22.222718 58.49048L20.692059 59.777757ZM18.179875 56.52133C17.778532 55.94967 17.396632 55.375749 17.036639 54.801668L18.731057 53.739145C19.071618 54.28224 19.434216 54.82727 19.816748 55.37214L18.179875 56.52133ZM15.98776 53.013124C15.819922 52.7051 15.659061 52.39746 15.505592 52.090524L17.294447 51.1961C17.43699 51.481187 17.586926 51.767976 17.74396 52.056169L15.98776 53.013124ZM15.509258 52.09778C15.371685 51.82814 15.22215 51.51274 15.062374 51.158197L16.885777 50.336488C17.036969 50.67199 17.172257 50.956537 17.290781 51.188844L15.509258 52.09778ZM14.255582 49.259424C14.022297 48.685686 13.773412 48.056436 13.511239 47.378847L15.376487 46.657144C15.635435 47.3264 15.88009 47.944879 16.108286 48.506105L14.255582 49.259424ZM12.786878 45.47474C12.559194 44.86718 12.324034 44.231935 12.082557 43.57254L13.960584 42.88478C14.20053 43.539995 14.433946 44.170518 14.65969 44.772905L12.786878 45.47474ZM11.393946 41.674654C11.17135 41.05581 10.94462 40.420595 10.714551 39.771409L12.599668 39.103326C12.828761 39.749757 13.054435 40.38202 13.275902 40.99772L11.393946 41.674654ZM10.043222 37.864755C9.823864 37.237848 9.602254 36.600809 9.379027 35.95558L11.269111 35.30168C11.491603 35.944787 11.712443 36.579614 11.930994 37.20421L10.043222 37.864755ZM8.721286 34.044435C8.504775 33.412118 8.28734 32.773988 8.069544 32.131753L9.963595 31.489434C10.180778 32.12986 10.397578 32.76613 10.613438 33.396547L8.721286 34.044435ZM7.423717 30.218506C7.20986 29.582055 6.996182 28.943253 6.783212 28.303727L8.680762 27.671822C8.893168 28.309655 9.106276 28.946747 9.319553 29.581475L7.423717 30.218506ZM6.147567 26.386414C5.935914 25.745133 5.7255 25.104737 5.51686 24.466828L7.417768 23.845093C7.625848 24.481293 7.835702 25.119996 8.046797 25.759568L6.147567 26.386414ZM4.891272 22.545182C4.681931 21.899079 4.475009 21.257309 4.271078 20.621598L6.175486 20.010682C6.378812 20.6445 6.585138 21.284424 6.793894 21.92871L4.891272 22.545182ZM3.656639 18.69603C3.449764 18.044129 3.246814 17.400834 3.048452 16.768174L4.956849 16.16983C5.154492 16.800202 5.356746 17.441285 5.562952 18.091065L3.656639 18.69603ZM2.447244 14.837631C2.24309 14.177368 2.045127 13.532013 1.854203 12.904144L3.767692 12.322281C3.957647 12.94696 4.154693 13.589325 4.357991 14.246826L2.447244 14.837631ZM1.271449 10.968353C1.071238 10.295944 .881355 9.649811 .703083 9.033813L2.624245 8.477814C2.800934 9.088333 2.989361 9.729538 3.188284 10.397629L1.271449 10.968353ZM.146216 7.070892C-.05154 6.357147-.227179 5.701508-.377596 5.11322L1.560068 4.617783C1.706435 5.190231 1.878485 5.832642 2.073603 6.536865L.146216 7.070892ZM-.84737 3.091522C-.935548 2.640778-1 2.222168-1 1.909927H1C1 2.010284 1.028103 2.261185 1.115425 2.70755L-.84737 3.091522ZM-1 1.909927C-1 1.047592-.388012 .527771 .211183 .243118L1.069405 2.049622C1.001073 2.082077 .959063 2.108276 .935784 2.125 .91273 2.141556 .913715 2.14473 .925635 2.130234 .93878 2.114243 .959929 2.083099 .976694 2.037231 .993652 1.990829 1 1.946091 1 1.909927H-1ZM2.54501-.34787C3.161162-.434402 3.880615-.506195 4.711389-.565689L4.854247 1.429199C4.052957 1.486588 3.381061 1.554352 2.82313 1.63269L2.54501-.34787ZM6.851853-.683044C7.506918-.710114 8.214607-.732819 8.97777-.751526L9.026798 1.247879C8.27276 1.266357 7.576435 1.288727 6.934442 1.315262L6.851853-.683044ZM11.105059-.791672C11.774847-.801041 12.480067-.808197 13.222114-.813324L13.235942 1.18663C12.497953 1.191727 11.797479 1.198837 11.133001 1.20813L11.105059-.791672ZM15.340081-.822418C15.686366-.82309 16.039643-.823425 16.40002-.823425V1.176575C16.040862 1.176575 15.688883 1.17691 15.343968 1.177582L15.340081-.822418ZM16.40002-.823425H17.425023V1.176575H16.40002V-.823425ZM19.475024-.823425H21.525027V1.176575H19.475024V-.823425ZM23.57503-.823425H25.62503V1.176575H23.57503V-.823425ZM27.675036-.823425H29.725037V1.176575H27.675036V-.823425ZM31.775042-.823425H32.80004V1.176575H31.775042V-.823425ZM33.76219-.095932 34.034414 .865173 32.11011 1.410202 31.837889 .449097 33.76219-.095932ZM34.578859 2.787399 35.123304 4.709625 33.199 5.254654 32.654558 3.332428 34.578859 2.787399ZM35.66775 6.631851 36.212198 8.554077 34.28789 9.099106 33.743448 7.17688 35.66775 6.631851ZM36.75664 10.476303 37.301088 12.398529 35.376787 12.943558 34.832338 11.021332 36.75664 10.476303ZM37.84553 14.320755 38.389978 16.242981 36.465677 16.78801 35.92123 14.865784 37.84553 14.320755ZM38.93442 18.165207 39.478868 20.087418 37.554567 20.632462 37.01012 18.710236 38.93442 18.165207ZM40.02331 22.009644 40.295537 22.970765 38.37123 23.515793 38.09901 22.554688 40.02331 22.009644ZM40.29607 22.972657C40.385179 23.289658 40.47377 23.604218 40.561857 23.916367L38.637029 24.459534C38.548757 24.146714 38.45998 23.831513 38.370698 23.5139L40.29607 22.972657ZM41.08613 25.766648C41.265939 26.398545 41.443647 27.020173 41.61935 27.63176L39.69711 28.184014C39.520914 27.570717 39.342744 26.947464 39.162496 26.314026L41.08613 25.766648ZM42.156885 29.49279C42.33948 30.12146 42.51993 30.739029 42.698358 31.345772L40.779603 31.910027C40.600515 31.301033 40.41944 30.681328 40.236257 30.050629L42.156885 29.49279ZM43.24521 33.19259C43.43229 33.819856 43.61718 34.434976 43.800039 35.038293L41.886018 35.6184C41.702257 35.0121 41.516515 34.394144 41.328638 33.7642L43.24521 33.19259ZM44.366144 36.889307C44.560079 37.51748 44.7518 38.132165 44.941499 38.733797L43.03407 39.33522C42.8431 38.72957 42.650194 38.11107 42.455144 37.479288L44.366144 36.889307ZM45.527997 40.572076C45.72998 41.19742 45.9298 41.807825 46.1277 42.403863L44.22959 43.03409C44.02988 42.432603 43.82837 41.817018 43.62481 41.1868L45.527997 40.572076ZM46.742887 44.228227C46.95585 44.849679 47.1668 45.4545 47.376077 46.043458L45.49151 46.713098C45.27958 46.116655 45.06615 45.504724 44.850896 44.876588L46.742887 44.228227ZM48.030088 47.847024C48.25866 48.464159 48.485559 49.06266 48.711225 49.64357L46.84695 50.367784C46.61724 49.776468 46.38661 49.16809 46.154596 48.541666L48.030088 47.847024ZM49.423074 51.42755C49.6721 52.0345 49.920145 52.620874 50.167814 53.188104L48.33491 53.988397C48.080945 53.40674 47.827104 52.806634 47.57276 52.18672L49.423074 51.42755ZM50.953256 54.925683C51.23103 55.518518 51.5091 56.089075 51.788328 56.63939L50.004774 57.544343C49.71559 56.974405 49.428369 56.385004 49.1422 55.774255L50.953256 54.925683ZM52.67686 58.31584C52.990869 58.882364 53.307439 59.426599 53.62775 59.951318L51.92068 60.993387C51.58525 60.4439 51.25464 59.87545 50.927595 59.285409L52.67686 58.31584ZM54.649484 61.541399C55.007768 62.07083 55.37218 62.580995 55.744276 63.07538L54.1463 64.278079C53.753896 63.7567 53.37002 63.21926 52.993116 62.662309L54.649484 61.541399ZM56.914999 64.55046C57.31905 65.03361 57.73355 65.504199 58.16032 65.966068L56.69139 67.32336C56.243066 66.838169 55.806745 66.34284 55.380796 65.83351L56.914999 64.55046ZM59.474958 67.325099C59.698335 67.54613 59.92521 67.766048 60.155805 67.9853L58.77768 69.43471C58.537839 69.20666 58.30141 68.977489 58.06821 68.746738L59.474958 67.325099ZM60.158647 67.988018 60.95865 68.754688 59.574838 70.19866 58.774835 69.43199 60.158647 67.988018ZM62.55865 70.28802 64.15865 71.82136 62.77484 73.265338 61.17484 71.731998 62.55865 70.28802ZM65.75866 73.35469 66.558658 74.12136 65.17485 75.56534 64.37485 74.79867 65.75866 73.35469ZM65.853427 75.84326 65.02009 75.832149 65.04675 73.83233 65.88009 73.84344 65.853427 75.84326ZM63.353418 75.80993 61.68675 75.787708 61.713415 73.78788 63.38008 73.810108 63.353418 75.80993ZM60.02008 75.76548 58.353414 75.74326 58.380075 73.74344 60.046747 73.76566 60.02008 75.76548ZM56.68674 75.72104 55.85341 75.70993 55.880075 73.710109 56.713407 73.721218 56.68674 75.72104ZM55.86674 75.710018C55.529058 75.710018 55.18539 75.70653 54.83702 75.69975L54.875925 73.70013C55.21211 73.706668 55.54278 73.710018 55.86674 73.710018V75.710018ZM52.785406 75.625659C52.110284 75.59079 51.426164 75.54575 50.74111 75.49172L50.898366 73.49791C51.566347 73.5506 52.2324 73.59443 52.888547 73.62831L52.785406 75.625659ZM48.70319 75.30509C48.016077 75.23351 47.335515 75.153858 46.669809 75.06731L46.927667 73.084C47.57624 73.16832 48.23992 73.24601 48.910425 73.31586L48.70319 75.30509ZM44.640676 74.77467C43.93213 74.66177 43.252275 74.54137 42.613416 74.41505L43.001344 72.45303C43.613065 72.57398 44.26832 72.69011 44.95539 72.79959L44.640676 74.77467ZM40.58397 73.95654C40.21904 73.8613 39.87671 73.76316 39.561944 73.66244L40.171499 71.75759C40.44551 71.845279 40.75228 71.93347 41.089056 72.02137L40.58397 73.95654Z" fill="#6e56cf"/>
</g>
</svg>
