<svg xmlns="http://www.w3.org/2000/svg" width="320" height="232" fill="none" viewBox="0 0 320 232"><g filter="url(#a)"><g clip-path="url(#b)"><rect width="216" height="108" x="52" y="62" fill="#fff" rx="12"/><mask id="c" fill="#fff"><path d="M52 62h108v36H52z"/></mask><path fill="#F4F0FE" d="M160 98v1h1v-1zm-1-36v36h2V62zm1 35H52v2h108z" mask="url(#c)"/><rect width="52" height="10" x="68" y="75" fill="#D4CAFE" rx="5"/><path fill="#D4CAFE" d="M135.392 78.94a.67.67 0 0 0 .608.393h8a.668.668 0 0 0 .5-1.108l-.001-.001-.134-.148a32 32 0 0 0-1.508-1.557 15 15 0 0 0-1.392-1.202 5 5 0 0 0-.691-.436c-.214-.108-.487-.214-.774-.214s-.56.106-.774.214a5 5 0 0 0-.691.436c-.458.338-.949.777-1.392 1.202a32 32 0 0 0-1.641 1.705h-.001a.67.67 0 0 0-.109.717" opacity=".4"/><path fill="#D4CAFE" d="M135.392 81.06a.67.67 0 0 1 .608-.393h8a.668.668 0 0 1 .5 1.108l-.001.001-.134.148a32 32 0 0 1-1.508 1.557c-.443.425-.934.864-1.392 1.202a5 5 0 0 1-.691.436c-.214.108-.487.214-.774.214s-.56-.106-.774-.214a5 5 0 0 1-.691-.436 15 15 0 0 1-1.392-1.202 32 32 0 0 1-1.641-1.705h-.001a.67.67 0 0 1-.109-.717"/><mask id="d" fill="#fff"><path d="M160 62h108v36H160z"/></mask><path fill="#F4F0FE" d="M268 97H160v2h108z" mask="url(#d)"/><rect width="52" height="10" x="176" y="75" fill="#D4CAFE" rx="5"/><path fill="#D4CAFE" d="M243.392 78.94a.67.67 0 0 0 .608.393h8a.668.668 0 0 0 .5-1.108l-.001-.001-.134-.148a32 32 0 0 0-1.508-1.557 15 15 0 0 0-1.392-1.202 5 5 0 0 0-.691-.436c-.214-.108-.487-.214-.774-.214s-.56.106-.774.214a5 5 0 0 0-.691.436c-.458.338-.949.777-1.392 1.202a32 32 0 0 0-1.641 1.705h-.001a.67.67 0 0 0-.109.717" opacity=".4"/><path fill="#D4CAFE" d="M243.392 81.06a.67.67 0 0 1 .608-.393h8a.668.668 0 0 1 .5 1.108l-.001.001-.134.148a32 32 0 0 1-1.508 1.557c-.443.425-.934.864-1.392 1.202a5 5 0 0 1-.691.436c-.214.108-.487.214-.774.214s-.56-.106-.774-.214a5 5 0 0 1-.691-.436 15 15 0 0 1-1.392-1.202 32 32 0 0 1-1.641-1.705h-.001a.67.67 0 0 1-.109-.717"/><mask id="e" fill="#fff"><path d="M52 98h108v36H52z"/></mask><path fill="#F4F0FE" d="M160 134v1h1v-1zm-1-36v36h2V98zm1 35H52v2h108z" mask="url(#e)"/><rect width="52" height="10" x="68" y="111" fill="#EBE4FF" rx="5"/><mask id="f" fill="#fff"><path d="M160 98h108v36H160z"/></mask><path fill="#F4F0FE" d="M268 133H160v2h108z" mask="url(#f)"/><rect width="52" height="10" x="176" y="111" fill="#EBE4FF" rx="5"/><mask id="g" fill="#fff"><path d="M52 134h108v36H52z"/></mask><path fill="#F4F0FE" d="M159 134v36h2v-36z" mask="url(#g)"/><rect width="52" height="10" x="68" y="147" fill="#EBE4FF" rx="5"/><rect width="52" height="10" x="176" y="147" fill="#EBE4FF" rx="5"/></g></g><defs><clipPath id="b"><rect width="216" height="108" x="52" y="62" fill="#fff" rx="12"/></clipPath><filter id="a" width="256" height="148" x="32" y="54" color-interpolation-filters="sRGB" filterUnits="userSpaceOnUse"><feFlood flood-opacity="0" result="BackgroundImageFix"/><feColorMatrix in="SourceAlpha" result="hardAlpha" values="0 0 0 0 0 0 0 0 0 0 0 0 0 0 0 0 0 0 127 0"/><feOffset dy="12"/><feGaussianBlur stdDeviation="10"/><feComposite in2="hardAlpha" operator="out"/><feColorMatrix values="0 0 0 0 0 0 0 0 0 0 0 0 0 0 0 0 0 0 0.03 0"/><feBlend in2="BackgroundImageFix" result="effect1_dropShadow_10060_19354"/><feColorMatrix in="SourceAlpha" result="hardAlpha" values="0 0 0 0 0 0 0 0 0 0 0 0 0 0 0 0 0 0 127 0"/><feOffset dy="2"/><feGaussianBlur stdDeviation="3"/><feComposite in2="hardAlpha" operator="out"/><feColorMatrix values="0 0 0 0 0 0 0 0 0 0 0 0 0 0 0 0 0 0 0.05 0"/><feBlend in2="effect1_dropShadow_10060_19354" result="effect2_dropShadow_10060_19354"/><feBlend in="SourceGraphic" in2="effect2_dropShadow_10060_19354" result="shape"/></filter></defs></svg>