<svg xmlns="http://www.w3.org/2000/svg" width="320" height="232" fill="none" viewBox="0 0 320 232"><g filter="url(#a)"><g clip-path="url(#b)"><rect width="216" height="108" x="52" y="62" fill="#fff" rx="12"/><mask id="c" fill="#fff"><path d="M52 62h72v36H52z"/></mask><path fill="#F4F0FE" d="M124 98v1h1v-1zm-1-36v36h2V62zm1 35H52v2h72z" mask="url(#c)"/><rect width="40" height="10" x="68" y="75" fill="#D4CAFE" rx="5"/><mask id="d" fill="#fff"><path d="M124 62h72v36h-72z"/></mask><path fill="#F4F0FE" d="M196 98v1h1v-1zm-1-36v36h2V62zm1 35h-72v2h72z" mask="url(#d)"/><rect width="40" height="10" x="140" y="75" fill="#D4CAFE" rx="5"/><mask id="e" fill="#fff"><path d="M196 62h72v36h-72z"/></mask><path fill="#F4F0FE" d="M268 97h-72v2h72z" mask="url(#e)"/><rect width="40" height="10" x="212" y="75" fill="#D4CAFE" rx="5"/><mask id="f" fill="#fff"><path d="M52 98h72v36H52z"/></mask><path fill="#F4F0FE" d="M124 134v1h1v-1zm-1-36v36h2V98zm1 35H52v2h72z" mask="url(#f)"/><rect width="40" height="10" x="68" y="111" fill="#EBE4FF" rx="5"/><mask id="g" fill="#fff"><path d="M124 98h72v36h-72z"/></mask><path fill="#F4F0FE" d="M196 134v1h1v-1zm-1-36v36h2V98zm1 35h-72v2h72z" mask="url(#g)"/><rect width="40" height="10" x="140" y="111" fill="#EBE4FF" rx="5"/><mask id="h" fill="#fff"><path d="M196 98h72v36h-72z"/></mask><path fill="#F4F0FE" d="M268 133h-72v2h72z" mask="url(#h)"/><rect width="40" height="10" x="212" y="111" fill="#EBE4FF" rx="5"/><mask id="i" fill="#fff"><path d="M52 134h72v36H52z"/></mask><path fill="#F4F0FE" d="M123 134v36h2v-36z" mask="url(#i)"/><rect width="40" height="10" x="68" y="147" fill="#EBE4FF" rx="5"/><mask id="j" fill="#fff"><path d="M124 134h72v36h-72z"/></mask><path fill="#F4F0FE" d="M195 134v36h2v-36z" mask="url(#j)"/><rect width="40" height="10" x="140" y="147" fill="#EBE4FF" rx="5"/><rect width="40" height="10" x="212" y="147" fill="#EBE4FF" rx="5"/></g></g><defs><clipPath id="b"><rect width="216" height="108" x="52" y="62" fill="#fff" rx="12"/></clipPath><filter id="a" width="256" height="148" x="32" y="54" color-interpolation-filters="sRGB" filterUnits="userSpaceOnUse"><feFlood flood-opacity="0" result="BackgroundImageFix"/><feColorMatrix in="SourceAlpha" result="hardAlpha" values="0 0 0 0 0 0 0 0 0 0 0 0 0 0 0 0 0 0 127 0"/><feOffset dy="12"/><feGaussianBlur stdDeviation="10"/><feComposite in2="hardAlpha" operator="out"/><feColorMatrix values="0 0 0 0 0 0 0 0 0 0 0 0 0 0 0 0 0 0 0.03 0"/><feBlend in2="BackgroundImageFix" result="effect1_dropShadow_10060_19683"/><feColorMatrix in="SourceAlpha" result="hardAlpha" values="0 0 0 0 0 0 0 0 0 0 0 0 0 0 0 0 0 0 127 0"/><feOffset dy="2"/><feGaussianBlur stdDeviation="3"/><feComposite in2="hardAlpha" operator="out"/><feColorMatrix values="0 0 0 0 0 0 0 0 0 0 0 0 0 0 0 0 0 0 0.05 0"/><feBlend in2="effect1_dropShadow_10060_19683" result="effect2_dropShadow_10060_19683"/><feBlend in="SourceGraphic" in2="effect2_dropShadow_10060_19683" result="shape"/></filter></defs></svg>