<svg xmlns="http://www.w3.org/2000/svg" width="80" height="78" fill="none" viewBox="0 0 80 78"><g filter="url(#a)"><path fill="url(#b)" d="M13 11a8 8 0 0 1 8-8h38a8 8 0 0 1 8 8v38a6 6 0 0 1-6 6H19a6 6 0 0 1-6-6z"/><path fill="url(#c)" d="M13 11a8 8 0 0 1 8-8h38a8 8 0 0 1 8 8v38a6 6 0 0 1-6 6H19a6 6 0 0 1-6-6z"/><g filter="url(#d)"><path fill="url(#e)" d="M31 37.5a1 1 0 0 1-1-1v-23a1 1 0 0 1 1-1h18a1 1 0 0 1 1 1v8a1 1 0 0 1-1 1h-4v-4a1 1 0 0 0-1-1h-8a1 1 0 0 0-1 1v3a1 1 0 0 0 1 1h9v5h-9a1 1 0 0 0-1 1v8a1 1 0 0 1-1 1zm15 0a1 1 0 0 1-1-1v-9h4a1 1 0 0 1 1 1v8a1 1 0 0 1-1 1z"/></g><path stroke="#20117E" stroke-opacity=".04" d="M13 11a8 8 0 0 1 8-8h38a8 8 0 0 1 8 8v38a6 6 0 0 1-6 6H19a6 6 0 0 1-6-6z"/></g><defs><radialGradient id="b" cx="0" cy="0" r="1" gradientTransform="matrix(0 52 -54 0 40 3)" gradientUnits="userSpaceOnUse"><stop stop-color="#fff" stop-opacity=".9"/><stop offset="1" stop-color="#4E3DB9" stop-opacity=".24"/></radialGradient><radialGradient id="c" cx="0" cy="0" r="1" gradientTransform="matrix(0 52 -54 0 40 3)" gradientUnits="userSpaceOnUse"><stop stop-color="#fff"/><stop offset="1" stop-color="#F7F7F7"/></radialGradient><radialGradient id="e" cx="0" cy="0" r="1" gradientTransform="matrix(0 24.9999 -20 0 40 12.5)" gradientUnits="userSpaceOnUse"><stop stop-color="#F5F3FF"/><stop stop-color="#fff"/><stop offset="1" stop-color="#E1DDF4"/></radialGradient><filter id="a" width="79" height="77" x=".5" y=".5" color-interpolation-filters="sRGB" filterUnits="userSpaceOnUse"><feFlood flood-opacity="0" result="BackgroundImageFix"/><feColorMatrix in="SourceAlpha" result="hardAlpha" values="0 0 0 0 0 0 0 0 0 0 0 0 0 0 0 0 0 0 127 0"/><feMorphology in="SourceAlpha" radius="4" result="effect1_dropShadow_449_2688"/><feOffset dy="10"/><feGaussianBlur stdDeviation="8"/><feColorMatrix values="0 0 0 0 0.0784314 0 0 0 0 0.0705882 0 0 0 0 0.231373 0 0 0 0.06 0"/><feBlend in2="BackgroundImageFix" result="effect1_dropShadow_449_2688"/><feColorMatrix in="SourceAlpha" result="hardAlpha" values="0 0 0 0 0 0 0 0 0 0 0 0 0 0 0 0 0 0 127 0"/><feMorphology in="SourceAlpha" radius="6" result="effect2_dropShadow_449_2688"/><feOffset dy="12"/><feGaussianBlur stdDeviation="3"/><feColorMatrix values="0 0 0 0 0.0784314 0 0 0 0 0.0705882 0 0 0 0 0.231373 0 0 0 0.1 0"/><feBlend in2="effect1_dropShadow_449_2688" result="effect2_dropShadow_449_2688"/><feColorMatrix in="SourceAlpha" result="hardAlpha" values="0 0 0 0 0 0 0 0 0 0 0 0 0 0 0 0 0 0 127 0"/><feMorphology in="SourceAlpha" radius="4" result="effect3_dropShadow_449_2688"/><feOffset dy="10"/><feGaussianBlur stdDeviation="3"/><feColorMatrix values="0 0 0 0 0.12549 0 0 0 0 0.0666667 0 0 0 0 0.494118 0 0 0 0.16 0"/><feBlend in2="effect2_dropShadow_449_2688" result="effect3_dropShadow_449_2688"/><feColorMatrix in="SourceAlpha" result="hardAlpha" values="0 0 0 0 0 0 0 0 0 0 0 0 0 0 0 0 0 0 127 0"/><feMorphology in="SourceAlpha" operator="dilate" radius="1" result="effect4_dropShadow_449_2688"/><feOffset dy="2"/><feGaussianBlur stdDeviation="1"/><feColorMatrix values="0 0 0 0 0.12549 0 0 0 0 0.0666667 0 0 0 0 0.494118 0 0 0 0.05 0"/><feBlend in2="effect3_dropShadow_449_2688" result="effect4_dropShadow_449_2688"/><feBlend in="SourceGraphic" in2="effect4_dropShadow_449_2688" result="shape"/><feColorMatrix in="SourceAlpha" result="hardAlpha" values="0 0 0 0 0 0 0 0 0 0 0 0 0 0 0 0 0 0 127 0"/><feOffset dy="-8"/><feComposite in2="hardAlpha" k2="-1" k3="1" operator="arithmetic"/><feColorMatrix values="0 0 0 0 0.678431 0 0 0 0 0.607843 0 0 0 0 0.972549 0 0 0 0.2 0"/><feBlend in2="shape" result="effect5_innerShadow_449_2688"/></filter><filter id="d" width="20" height="27" x="30" y="12.5" color-interpolation-filters="sRGB" filterUnits="userSpaceOnUse"><feFlood flood-opacity="0" result="BackgroundImageFix"/><feBlend in="SourceGraphic" in2="BackgroundImageFix" result="shape"/><feColorMatrix in="SourceAlpha" result="hardAlpha" values="0 0 0 0 0 0 0 0 0 0 0 0 0 0 0 0 0 0 127 0"/><feOffset dy="2"/><feGaussianBlur stdDeviation="1.5"/><feComposite in2="hardAlpha" k2="-1" k3="1" operator="arithmetic"/><feColorMatrix values="0 0 0 0 0.12549 0 0 0 0 0.0666667 0 0 0 0 0.494118 0 0 0 0.32 0"/><feBlend in2="shape" result="effect1_innerShadow_449_2688"/></filter></defs></svg>