<svg xmlns="http://www.w3.org/2000/svg" width="366" height="356" viewBox="0 0 366 356" fill="none"><g clip-path="url(#clip0_698_250)"><path d="M29.4539 87.4384L184.931 0L336.411 87.4384V263.938L182.932 356L29.4539 263.938V87.4384Z" fill="#142C3B"></path><path d="M271.362 286.47H366L346.686 251.688L366 220.823H271.362V286.47Z" fill="#AD413A"></path><path d="M321.578 263.934L271.362 286.47V263.934H321.578Z" fill="#843332"></path><path d="M94.6385 286.47H0L19.314 251.688L0 220.823H94.6385V286.47Z" fill="#AD413A"></path><path d="M44.4221 263.934L94.6385 286.47V263.934H44.4221Z" fill="#843332"></path><path d="M43.9392 203.862V263.934H321.578V206.007L43.9392 203.862Z" fill="#E45240"></path><path d="M181.614 68.2889C186.554 71.0956 191.498 73.9072 196.438 76.7091C198.63 77.9506 200.832 79.1776 203.019 80.424C204.047 81.0085 203.994 81.9795 203.009 82.651C202.222 83.1873 201.619 83.1389 200.788 82.6655C194.603 79.1245 188.384 75.6511 182.174 72.1488C181.73 71.8976 181.368 71.6995 180.808 72.0135C172.855 76.5255 164.888 81.0085 156.926 85.5012C156.863 85.5351 156.82 85.5979 156.747 85.6607C156.83 86.023 157.187 86.0761 157.443 86.2162C165.12 90.5543 172.807 94.8731 180.475 99.2257C181.16 99.6122 181.648 99.5977 182.324 99.216C190.996 94.2982 199.682 89.4094 208.369 84.5109C209.798 83.7042 210.807 84.279 210.807 85.8974C210.807 88.9601 210.783 92.0277 210.827 95.0905C210.836 95.8634 210.638 96.2982 209.928 96.6943C200.663 101.878 191.416 107.095 182.179 112.332C181.542 112.694 181.098 112.602 180.508 112.274C172.459 107.723 164.396 103.187 156.327 98.6605C155.994 98.4721 155.7 98.1726 155.144 98.2015C155.144 100.032 155.144 101.858 155.144 103.68C155.144 104.09 155.453 104.216 155.733 104.371C164.072 109.071 172.421 113.757 180.75 118.481C181.402 118.853 181.822 118.573 182.324 118.293C191.073 113.366 199.822 108.438 208.572 103.506C209.088 103.216 209.523 102.945 210.151 103.342C210.638 103.651 210.831 103.965 210.827 104.54C210.798 107.858 210.798 111.172 210.827 114.491C210.827 115.066 210.662 115.385 210.146 115.675C200.793 120.921 191.445 126.187 182.112 131.467C181.571 131.776 181.184 131.757 180.649 131.457C171.344 126.192 162.03 120.95 152.72 115.699C152.073 115.332 151.687 114.037 152.02 113.38C152.325 112.786 153.411 112.607 154.174 113.037C162.827 117.911 171.489 122.776 180.122 127.689C181.049 128.216 181.711 128.23 182.652 127.689C190.653 123.119 198.688 118.607 206.727 114.11C207.418 113.723 207.693 113.303 207.649 112.511C207.577 111.255 207.63 109.989 207.63 108.728C207.63 107.525 207.62 107.515 206.611 108.085C199.306 112.201 191.923 116.196 184.733 120.501C182.3 121.955 180.566 121.998 178.099 120.53C169.78 115.588 161.281 110.94 152.832 106.216C152.16 105.839 151.953 105.438 151.962 104.704C152.001 101.569 151.977 98.4334 151.977 95.2934C151.977 93.6799 152.822 93.1726 154.217 93.9552C163 98.8972 171.788 103.829 180.557 108.796C181.175 109.143 181.6 109.148 182.218 108.796C190.421 104.148 198.639 99.5252 206.872 94.9214C207.461 94.5929 207.674 94.2258 207.654 93.5688C207.606 92.2354 207.645 90.9021 207.64 89.5688C207.64 88.4191 207.625 88.4094 206.635 88.9698C201.493 91.8635 196.351 94.7668 191.208 97.6653C188.2 99.3609 185.178 101.037 182.184 102.762C181.614 103.09 181.199 103.086 180.62 102.762C171.349 97.5156 162.064 92.2886 152.774 87.0761C152.213 86.7621 151.953 86.4288 151.953 85.7476C151.953 85.0423 152.17 84.6655 152.788 84.3177C161.924 79.197 171.045 74.0521 180.166 68.8976C180.455 68.7333 180.875 68.7044 180.972 68.2744C181.189 68.2744 181.407 68.2744 181.619 68.2744L181.614 68.2889Z" fill="white"></path><path d="M283.915 175.162C283.172 177.027 282.143 178.631 280.27 179.602C275.876 181.882 270.14 180.259 267.962 176.099C267.634 175.476 267.595 175.066 268.344 174.8C268.643 174.694 268.918 174.505 269.203 174.355C269.874 174.008 270.526 173.438 271.221 173.38C272.061 173.307 272.071 174.413 272.564 174.921C273.882 176.273 275.789 176.853 277.489 176.259C278.445 175.921 279.077 175.317 279.184 174.249C279.29 173.172 278.783 172.447 277.88 171.974C276.697 171.351 275.383 171.07 274.128 170.64C273.278 170.351 272.438 170.051 271.646 169.616C269.604 168.491 268.372 166.843 268.344 164.442C268.31 161.964 269.377 160.061 271.477 158.786C275.321 156.452 280.777 157.8 283.196 161.602C283.602 162.244 283.573 162.558 282.848 162.877C282.027 163.235 281.24 163.679 280.482 164.153C279.927 164.5 279.681 164.399 279.333 163.834C278.396 162.322 277.059 161.452 275.181 161.713C274.007 161.877 273.182 162.525 273.003 163.5C272.8 164.621 273.37 165.375 274.302 165.863C274.934 166.196 275.61 166.442 276.282 166.694C276.919 166.93 277.576 167.128 278.223 167.336C280.859 168.172 283.017 169.544 283.911 172.351V175.162H283.915Z" fill="white"></path><path d="M176.1 164.345C176.1 159.442 176.114 154.543 176.085 149.64C176.085 148.911 176.23 148.606 177.022 148.664C178.026 148.737 179.04 148.737 180.045 148.664C180.842 148.606 180.977 148.925 180.967 149.64C180.928 153.099 180.943 156.563 180.953 160.021C180.953 160.316 180.793 160.712 181.204 160.872C181.537 161.002 181.706 160.707 181.909 160.505C186.303 156.258 193.096 156.814 196.882 161.727C201.334 167.5 199.451 176.49 193.14 179.586C189.344 181.451 184.975 180.804 181.933 177.92C181.725 177.722 181.571 177.422 181.228 177.533C180.793 177.673 180.962 178.074 180.953 178.369C180.895 180.103 180.904 180.103 179.185 180.103C178.466 180.103 177.742 180.055 177.022 180.118C176.264 180.185 176.047 179.925 176.056 179.161C176.09 174.799 176.076 170.437 176.076 166.075V164.345C176.076 164.345 176.095 164.345 176.105 164.345H176.1ZM194.39 169.176C194.39 165.181 191.401 162.055 187.568 162.05C183.719 162.05 180.726 165.162 180.73 169.152C180.735 173.142 183.753 176.248 187.601 176.224C191.397 176.2 194.39 173.089 194.39 169.171V169.176Z" fill="white"></path><path d="M105.729 164.442C105.729 169.345 105.715 174.244 105.744 179.147C105.744 179.872 105.609 180.176 104.812 180.118C103.774 180.045 102.721 180.065 101.678 180.118C101.06 180.147 100.886 179.949 100.882 179.335C100.877 178.683 101.263 177.741 100.606 177.442C99.9836 177.157 99.6407 178.128 99.1627 178.519C96.1015 181.045 91.413 181.379 87.8399 179.132C83.8081 176.596 82.263 172.732 82.5962 168.137C82.9003 163.906 84.8849 160.601 88.7815 158.664C92.538 156.799 96.8402 157.49 99.8773 160.345C100.099 160.553 100.283 160.939 100.669 160.717C101.007 160.524 100.901 160.142 100.901 159.828C100.901 156.442 100.935 153.051 100.882 149.664C100.867 148.848 101.084 148.601 101.896 148.659C102.9 148.732 103.914 148.727 104.918 148.659C105.623 148.616 105.744 148.877 105.739 149.519C105.715 154.495 105.725 159.466 105.725 164.442H105.729ZM87.4391 169.152C87.4488 173.137 90.4859 176.253 94.3439 176.229C98.1149 176.205 101.133 173.05 101.138 169.128C101.142 165.176 98.0425 162.012 94.2135 162.055C90.4038 162.094 87.4343 165.21 87.444 169.152H87.4391Z" fill="white"></path><path d="M172.425 169.143C172.425 172.457 172.406 175.771 172.44 179.085C172.45 179.848 172.314 180.201 171.45 180.123C170.484 180.036 169.504 180.051 168.538 180.123C167.742 180.181 167.568 179.872 167.597 179.143C167.616 178.558 167.925 177.713 167.389 177.432C166.728 177.089 166.457 178.022 166.018 178.384C162.957 180.896 159.557 181.225 155.989 179.829C151.861 178.21 149.2 173.824 149.258 169.056C149.321 164.191 151.986 159.94 156.149 158.394C159.987 156.969 163.57 157.418 166.641 160.355C166.848 160.553 167.013 160.853 167.346 160.732C167.693 160.607 167.597 160.259 167.611 159.983C167.703 158.22 167.703 158.196 169.466 158.23C170.422 158.249 171.696 157.8 172.247 158.433C172.72 158.974 172.411 160.215 172.416 161.148C172.425 163.814 172.416 166.476 172.416 169.143H172.425ZM167.833 169.143C167.833 165.181 164.874 162.08 161.064 162.056C157.22 162.032 154.15 165.177 154.154 169.138C154.154 173.065 157.162 176.205 160.948 176.23C164.806 176.254 167.829 173.138 167.833 169.143Z" fill="white"></path><path d="M131.504 169.099C131.504 172.452 131.48 175.805 131.523 179.157C131.533 179.906 131.345 180.167 130.572 180.119C129.529 180.051 128.481 180.075 127.438 180.114C126.888 180.133 126.632 179.993 126.695 179.399C126.738 178.969 126.714 178.534 126.695 178.104C126.685 177.834 126.801 177.486 126.439 177.355C126.096 177.23 125.932 177.534 125.739 177.737C124.503 179.066 123.006 179.95 121.239 180.355C115.802 181.607 110.539 178.341 108.863 172.698C107.178 167.003 109.698 160.916 114.71 158.588C118.462 156.844 122.74 157.53 125.715 160.351C125.917 160.544 126.086 160.858 126.42 160.737C126.83 160.588 126.68 160.191 126.69 159.892C126.743 158.22 126.738 158.22 128.409 158.22C129.167 158.22 129.925 158.269 130.678 158.206C131.359 158.148 131.518 158.385 131.514 159.046C131.48 162.399 131.499 165.752 131.499 169.104L131.504 169.099ZM126.922 169.172C126.931 165.177 123.962 162.071 120.104 162.046C116.318 162.027 113.281 165.133 113.262 169.042C113.243 173.051 116.198 176.186 120.031 176.22C123.875 176.254 126.912 173.148 126.922 169.167V169.172Z" fill="white"></path><path d="M267.136 158.486C264.355 161.239 261.598 164.017 258.769 166.722C257.991 167.466 257.996 167.911 258.682 168.718C261.642 172.205 264.529 175.751 267.431 179.283C267.605 179.49 267.88 179.65 267.866 180.089C266.079 180.089 264.297 180.075 262.52 180.099C262.018 180.104 261.859 179.727 261.622 179.432C259.401 176.688 257.199 173.935 254.964 171.205C254.684 170.862 254.491 170.099 253.848 170.476C253.298 170.8 252.748 171.205 252.772 172.065C252.83 174.37 252.752 176.679 252.815 178.983C252.839 179.843 252.675 180.21 251.724 180.123C250.686 180.027 249.638 180.085 248.59 180.109C248.127 180.118 247.919 179.969 247.967 179.495C247.987 179.316 247.967 179.133 247.967 178.954C247.967 169.225 247.982 159.495 247.948 149.766C247.948 148.858 248.185 148.583 249.078 148.66C250.005 148.742 250.956 148.732 251.883 148.66C252.675 148.597 252.81 148.916 252.805 149.631C252.776 154.819 252.786 160.007 252.796 165.196C252.796 165.539 252.636 165.988 253.028 166.186C253.515 166.433 253.708 165.911 253.964 165.66C256.263 163.37 258.542 161.065 260.826 158.766C261.13 158.457 261.415 158.191 261.922 158.201C263.612 158.235 265.302 158.215 266.992 158.215C267.045 158.302 267.093 158.389 267.146 158.481L267.136 158.486Z" fill="white"></path><path d="M236.736 180.572C230.435 180.572 225.954 176.799 225.124 170.968C224.284 165.075 227.427 159.819 232.869 158.215C237.287 156.915 241.328 157.79 244.964 160.611C245.466 160.997 245.534 161.282 245.003 161.65C244.974 161.669 244.95 161.698 244.925 161.727C243.607 163.316 242.444 164.195 240.116 162.823C237.287 161.157 233.612 162.191 231.647 164.471C229.696 166.736 229.407 170.224 230.952 172.847C232.627 175.693 236.224 176.886 239.657 175.722C240.512 175.432 241.328 175.055 242.072 174.543C242.429 174.297 242.675 174.297 242.979 174.645C243.598 175.35 244.245 176.026 244.911 176.688C245.234 177.012 245.297 177.219 244.872 177.514C242.357 179.253 239.778 180.809 236.741 180.572H236.736Z" fill="white"></path><path d="M137.887 168.539C137.887 166.737 137.858 164.935 137.902 163.138C137.921 162.38 137.655 162.143 136.902 162.148C135.985 162.158 134.575 162.578 134.251 161.969C133.788 161.095 134.097 159.81 134.063 158.699C134.049 158.303 134.261 158.216 134.599 158.22C135.212 158.23 135.825 158.22 136.434 158.22C137.4 158.22 137.882 157.753 137.882 156.819C137.882 155.341 137.916 153.863 137.868 152.39C137.844 151.675 137.993 151.351 138.795 151.409C139.799 151.481 140.813 151.477 141.818 151.409C142.561 151.361 142.711 151.641 142.692 152.322C142.643 153.979 142.706 155.636 142.663 157.293C142.643 158.018 142.923 158.249 143.604 158.225C144.72 158.191 145.84 158.23 146.95 158.187C147.583 158.158 147.873 158.303 147.815 159.013C147.733 160.013 148.124 161.307 147.626 161.94C147.095 162.617 145.743 162.133 144.753 162.153C142.672 162.191 142.672 162.162 142.672 164.288C142.672 166.665 142.672 169.042 142.672 171.418C142.672 171.959 142.672 172.505 142.745 173.037C143.078 175.447 143.884 176.128 146.308 176.08C147.789 176.051 148.529 176.793 148.529 178.307C148.529 180.278 148.529 180.297 146.496 180.341C145.347 180.365 144.179 180.438 143.044 180.283C139.973 179.858 138.114 177.631 137.931 174.153C137.834 172.283 137.911 170.409 137.911 168.534C137.897 168.534 137.882 168.534 137.868 168.534L137.887 168.539Z" fill="white"></path><path d="M201.947 169.094C201.947 165.746 201.966 162.394 201.932 159.046C201.928 158.399 202.063 158.162 202.753 158.2C203.791 158.263 204.844 158.268 205.882 158.2C206.635 158.147 206.809 158.447 206.742 159.113C206.693 159.577 206.742 160.051 206.732 160.519C206.732 160.809 206.708 161.138 207.036 161.249C207.393 161.37 207.524 161.036 207.683 160.804C209.035 158.877 210.904 157.906 213.241 157.756C214.018 157.708 214.443 157.829 214.361 158.775C214.269 159.886 214.337 161.007 214.337 162.123C214.337 162.49 214.39 162.761 213.786 162.737C209.842 162.606 207.307 164.824 206.915 168.751C206.582 172.089 206.775 175.447 206.8 178.794C206.809 179.915 206.505 180.239 205.433 180.113C204.617 180.021 203.772 180.026 202.951 180.113C202.043 180.21 201.908 179.828 201.918 179.031C201.957 175.717 201.937 172.403 201.937 169.089L201.947 169.094Z" fill="white"></path><path d="M222.26 169.22C222.26 172.534 222.236 175.843 222.28 179.157C222.289 179.906 222.101 180.166 221.328 180.118C220.252 180.05 219.17 180.079 218.089 180.113C217.548 180.128 217.33 179.993 217.335 179.398C217.355 172.558 217.355 165.717 217.335 158.877C217.335 158.341 217.509 158.196 218.016 158.21C219.165 158.239 220.324 158.268 221.468 158.201C222.188 158.157 222.275 158.447 222.27 159.07C222.241 162.452 222.256 165.838 222.256 169.22H222.26Z" fill="white"></path><path d="M216.814 151.568C216.857 149.911 218.151 148.679 219.817 148.703C221.493 148.732 222.777 150.104 222.709 151.795C222.642 153.409 221.275 154.665 219.639 154.612C218.006 154.558 216.77 153.23 216.814 151.568Z" fill="white"></path><path d="M105.667 245.384V223.123H115.3C117.289 223.123 119.008 223.447 120.452 224.094C121.89 224.741 123.006 225.669 123.788 226.877C124.57 228.084 124.966 229.529 124.966 231.2C124.966 232.872 124.575 234.287 123.788 235.495C123.006 236.703 121.89 237.63 120.452 238.277C119.008 238.925 117.294 239.248 115.3 239.248H108.53L110.819 236.925V245.384H105.667ZM110.819 237.495L108.53 235.046H115.015C116.603 235.046 117.791 234.707 118.573 234.026C119.356 233.35 119.751 232.403 119.751 231.195C119.751 229.988 119.36 229.012 118.573 228.336C117.791 227.659 116.603 227.316 115.015 227.316H108.53L110.819 224.867V237.495Z" fill="white"></path><path d="M124.58 245.384L134.498 223.123H139.582L149.534 245.384H144.131L135.995 225.727H138.027L129.858 245.384H124.58ZM129.539 240.611L130.905 236.698H142.349L143.749 240.611H129.539Z" fill="white"></path><path d="M151.851 245.384V223.123H161.484C163.474 223.123 165.192 223.447 166.636 224.094C168.075 224.741 169.19 225.669 169.973 226.877C170.755 228.084 171.151 229.529 171.151 231.2C171.151 232.872 170.76 234.282 169.973 235.476C169.19 236.674 168.075 237.591 166.636 238.229C165.192 238.867 163.478 239.181 161.484 239.181H154.715L157.003 236.925V245.384H151.851ZM157.003 237.495L154.715 235.079H161.199C162.788 235.079 163.976 234.736 164.758 234.046C165.54 233.355 165.936 232.408 165.936 231.2C165.936 229.993 165.545 229.017 164.758 228.34C163.976 227.664 162.788 227.321 161.199 227.321H154.715L157.003 224.872V237.5V237.495ZM165.999 245.384L160.436 237.306H165.936L171.561 245.384H165.999Z" fill="white"></path><path d="M179.509 245.384V227.321H172.387V223.123H191.778V227.321H184.656V245.384H179.504H179.509Z" fill="white"></path><path d="M194.545 245.384V223.123H198.804L211.932 239.152H209.866V223.123H214.95V245.384H210.72L197.563 229.355H199.629V245.384H194.545Z" fill="white"></path><path d="M225.346 241.253H237.456V245.388H220.228V223.128H237.045V227.263H225.346V241.258V241.253ZM224.964 232.094H235.679V236.099H224.964V232.094Z" fill="white"></path><path d="M241.56 245.384V223.123H251.193C253.182 223.123 254.901 223.447 256.345 224.094C257.784 224.741 258.899 225.669 259.681 226.877C260.464 228.084 260.86 229.529 260.86 231.2C260.86 232.872 260.468 234.282 259.681 235.476C258.899 236.674 257.784 237.591 256.345 238.229C254.901 238.867 253.187 239.181 251.193 239.181H244.423L246.712 236.925V245.384H241.56ZM246.712 237.495L244.423 235.079H250.908C252.497 235.079 253.684 234.736 254.467 234.046C255.249 233.355 255.645 232.408 255.645 231.2C255.645 229.993 255.254 229.017 254.467 228.34C253.684 227.664 252.497 227.321 250.908 227.321H244.423L246.712 224.872V237.5V237.495ZM255.708 245.384L250.145 237.306H255.645L261.27 245.384H255.708Z" fill="white"></path></g><defs><clipPath id="clip0_698_250"><rect width="366" height="356" fill="white"></rect></clipPath></defs></svg>