<svg xmlns="http://www.w3.org/2000/svg" width="569" height="544" fill="none" viewBox="0 0 569 544"><g filter="url(#a)" style="mix-blend-mode:color-dodge"><path stroke="#E3E1F6" stroke-opacity=".3" d="M14.5 66.389h540m-540 54.889h540m-540 54.889h540m-540 54.889h540m-540 54.888h540m-540 54.889h540m-540 54.889h540m-540 54.889h540M14.5 505.5h540m-44-491v515m-56-515v515m-56-515v515m-56-515v515m-56-515v515m-56-515v515m-56-515v515m-56-515v515m-56-515v515"/></g><defs><filter id="a" width="568" height="543" x=".5" y=".5" color-interpolation-filters="sRGB" filterUnits="userSpaceOnUse"><feFlood flood-opacity="0" result="BackgroundImageFix"/><feBlend in="SourceGraphic" in2="BackgroundImageFix" result="shape"/><feGaussianBlur result="effect1_foregroundBlur_3287_12346" stdDeviation="7"/></filter></defs></svg>