<svg width="471" height="52" viewBox="0 0 471 52" fill="none" xmlns="http://www.w3.org/2000/svg">
<path fill-rule="evenodd" clip-rule="evenodd" d="M469.369 22.9347L464.192 25.9353L469.369 28.9105C469.678 29.0905 469.95 29.3301 470.167 29.6156C470.385 29.901 470.544 30.2268 470.636 30.5743C470.729 30.9218 470.752 31.2842 470.705 31.6407C470.659 31.9973 470.542 32.3412 470.363 32.6526C470.185 32.964 469.946 33.2369 469.663 33.4557C469.379 33.6745 469.055 33.835 468.71 33.9279C468.364 34.0208 468.004 34.0444 467.65 33.9973C467.295 33.9502 466.953 33.8333 466.644 33.6533L457.369 28.2782C456.944 28.0308 456.593 27.6725 456.354 27.2412C456.114 26.8099 455.995 26.3216 456.008 25.8278C456.015 25.6138 456.048 25.4015 456.106 25.1954C456.295 24.5042 456.747 23.9152 457.363 23.5544L466.638 18.1983C466.948 18.0175 467.292 17.9002 467.648 17.8531C468.004 17.806 468.366 17.8299 468.712 17.9236C469.059 18.0173 469.384 18.1789 469.669 18.3991C469.954 18.6193 470.192 18.8938 470.371 19.2069C470.551 19.5173 470.668 19.8605 470.715 20.2167C470.762 20.5728 470.738 20.9348 470.645 21.2816C470.551 21.6284 470.391 21.9532 470.172 22.2369C469.952 22.5207 469.68 22.7579 469.369 22.9347ZM464.469 37.4791L455.197 32.1135C454.782 31.874 454.313 31.7479 453.834 31.7477C453.356 31.7475 452.886 31.8732 452.471 32.1123C452.056 32.3514 451.71 32.6956 451.469 33.1107C451.227 33.5259 451.097 33.9974 451.093 34.4785V45.1971C451.117 45.9093 451.415 46.5842 451.924 47.0795C452.433 47.5747 453.114 47.8516 453.822 47.8516C454.531 47.8516 455.211 47.5747 455.72 47.0795C456.23 46.5842 456.528 45.9093 456.552 45.1971V39.1896L461.741 42.1902C462.05 42.3704 462.392 42.4875 462.747 42.5348C463.101 42.5822 463.462 42.5588 463.807 42.466C464.153 42.3732 464.477 42.2129 464.761 41.9941C465.045 41.7754 465.283 41.5025 465.462 41.1911C465.641 40.8797 465.758 40.5358 465.805 40.1791C465.852 39.8225 465.828 39.46 465.736 39.1124C465.644 38.7647 465.485 38.4388 465.267 38.1531C465.05 37.8675 464.778 37.6277 464.469 37.4475V37.4791ZM453.783 26.9945L449.917 30.8361C449.785 30.9598 449.613 31.0326 449.433 31.0416H448.298C448.119 31.0308 447.948 30.9582 447.814 30.8361L443.971 26.9818C443.85 26.8498 443.779 26.68 443.77 26.5012V25.363C443.78 25.1834 443.851 25.0127 443.971 24.8792L447.814 21.0249C447.948 20.9037 448.119 20.8323 448.298 20.8226H449.433C449.613 20.831 449.784 20.9026 449.917 21.0249L453.77 24.8792C453.889 25.013 453.959 25.1837 453.968 25.363V26.5012C453.96 26.6797 453.89 26.8495 453.77 26.9818L453.783 26.9945ZM450.703 25.9258C450.688 25.7414 450.612 25.5676 450.486 25.4325L449.37 24.3227C449.237 24.2018 449.066 24.1304 448.886 24.1204H448.845C448.667 24.1298 448.497 24.2013 448.364 24.3227L447.249 25.4325C447.129 25.5683 447.059 25.7413 447.051 25.9226V25.9637C447.059 26.1423 447.129 26.3124 447.249 26.4443L448.371 27.551C448.503 27.6719 448.673 27.7434 448.852 27.7533H448.892C449.072 27.7433 449.243 27.6719 449.377 27.551L450.492 26.4348C450.613 26.3027 450.685 26.1332 450.697 25.9542L450.703 25.9258ZM433.263 14.3914L442.537 19.7412C442.953 19.9806 443.423 20.1066 443.902 20.1066C444.38 20.1066 444.851 19.9806 445.266 19.7412C445.681 19.5018 446.027 19.1573 446.269 18.7418C446.511 18.3264 446.641 17.8545 446.645 17.373V6.66392C446.621 5.95175 446.323 5.27682 445.814 4.78157C445.305 4.28632 444.624 4.00949 443.916 4.00949C443.207 4.00949 442.527 4.28632 442.017 4.78157C441.508 5.27682 441.21 5.95175 441.186 6.66392V12.6714L435.991 9.66766C435.681 9.48745 435.339 9.37035 434.985 9.32304C434.63 9.27572 434.27 9.29912 433.924 9.3919C433.579 9.48468 433.255 9.64502 432.971 9.86376C432.687 10.0825 432.449 10.3554 432.27 10.6668C432.09 10.9782 431.974 11.3221 431.927 11.6787C431.88 12.0354 431.903 12.3979 431.995 12.7455C432.088 13.0932 432.247 13.4191 432.464 13.7048C432.682 13.9904 432.953 14.2302 433.263 14.4104V14.3914ZM453.616 20.108C454.164 20.1516 454.712 20.027 455.188 19.7507L464.459 14.3756C464.769 14.1954 465.04 13.9556 465.258 13.67C465.475 13.3843 465.635 13.0584 465.727 12.7107C465.819 12.3631 465.842 12.0006 465.795 11.644C465.748 11.2873 465.632 10.9434 465.453 10.632C465.273 10.3206 465.035 10.0477 464.751 9.82899C464.467 9.61024 464.143 9.4499 463.798 9.35712C463.1 9.16974 462.357 9.26894 461.731 9.63288L456.542 12.6619V6.65443C456.518 5.94226 456.22 5.26734 455.711 4.77209C455.202 4.27684 454.521 4 453.813 4C453.104 4 452.424 4.27684 451.915 4.77209C451.405 5.26734 451.107 5.94226 451.083 6.65443V17.373C451.082 18.067 451.343 18.7354 451.814 19.2431C452.284 19.7508 452.928 20.0599 453.616 20.108ZM444.122 31.7562C443.574 31.7114 443.025 31.8361 442.55 32.1135L433.263 37.4664C432.638 37.8304 432.182 38.4293 431.995 39.1313C431.809 39.8334 431.908 40.5811 432.27 41.2101C432.631 41.839 433.227 42.2976 433.924 42.4849C434.622 42.6723 435.366 42.5731 435.991 42.2092L441.186 39.2086V45.2161C441.21 45.9283 441.508 46.6032 442.017 47.0984C442.527 47.5937 443.207 47.8705 443.916 47.8705C444.624 47.8705 445.305 47.5937 445.814 47.0984C446.323 46.6032 446.621 45.9283 446.645 45.2161V34.4785C446.644 33.7881 446.383 33.1237 445.915 32.6188C445.447 32.1138 444.806 31.8057 444.122 31.7562ZM441.607 26.7384C441.786 26.1461 441.759 25.5101 441.531 24.9353C441.302 24.3605 440.886 23.8812 440.35 23.5765L431.085 18.2046C430.459 17.844 429.717 17.7471 429.02 17.9348C428.324 18.1226 427.729 18.5799 427.367 19.2069C427.187 19.5172 427.07 19.8603 427.023 20.2162C426.977 20.5721 427 20.9339 427.093 21.2806C427.186 21.6272 427.346 21.9519 427.565 22.2358C427.783 22.5198 428.056 22.7573 428.366 22.9347L433.542 25.9353L428.366 28.9105C428.056 29.0901 427.785 29.3293 427.567 29.6144C427.35 29.8995 427.19 30.2249 427.097 30.5721C427.005 30.9192 426.981 31.2814 427.027 31.6378C427.074 31.9943 427.19 32.338 427.368 32.6494C427.547 32.9608 427.784 33.2338 428.068 33.4528C428.351 33.6718 428.675 33.8325 429.02 33.9257C429.365 34.0189 429.725 34.0428 430.079 33.9961C430.433 33.9494 430.775 33.8329 431.085 33.6533L440.35 28.2782C440.947 27.9431 441.395 27.3928 441.604 26.7384H441.607Z" fill="#29B5E8"/>
<path d="M362.429 45.8846L375.897 43.5032L376.022 43.475L369.095 35.2325C366.772 32.4835 364.461 29.7239 362.164 26.9537C362.164 26.9135 369.32 7.20611 369.36 7.13773C373.32 13.9162 377.254 20.7092 381.163 27.5169L393.03 48.0931L393.123 48.25L349.082 48.246L362.429 45.8846ZM336 43.3745C336 43.3624 339.262 37.6944 343.253 30.7793L350.51 18.2002L358.966 11.1041C363.616 7.20611 367.434 4 367.446 4C367.416 4.11901 367.371 4.23386 367.313 4.34193L358.125 24.0372L349.114 43.3785L342.557 43.3865C338.949 43.3905 336 43.3865 336 43.3745Z" fill="#0089D6"/>
<path d="M254 30.732L278 44.2065L299.544 32.1815V36.9698L278 49.101L255.229 36.1877L254.002 36.855V38.5233L278 52L302 38.5277V29.1742L300.881 28.5047L278 41.4223L256.569 29.1742V24.3858L278 36.4108L302 22.9385V13.6933L300.881 13.026L278 25.9437L257.686 14.4755L278 3.00733L294.854 12.4713L296.305 11.5808V10.3545L278 0L254 13.585V15.145L278 28.6152L299.544 16.5902V21.4868L278 33.6267L255.229 20.7133L254.002 21.3807L254 30.732Z" fill="#FF3621"/>
<g clip-path="url(#clip0_144_116)">
<path d="M202.247 16.8602L206.855 12.2151L207.162 10.2593C198.766 2.56247 185.421 3.4352 177.853 12.0803C175.751 14.4814 174.191 17.4749 173.359 20.5661L175.009 20.3317L184.223 18.7998L184.935 18.0663C189.033 13.5279 195.963 12.9173 200.696 16.7788L202.247 16.8602Z" fill="#EA4335"/>
<path d="M213.418 20.4295C212.359 16.4977 210.185 12.9632 207.162 10.2594L200.696 16.7787C203.426 19.0281 204.982 22.4167 204.915 25.9709V27.1281C208.093 27.1281 210.67 29.7259 210.67 32.9302C210.67 36.1348 208.093 38.6674 204.915 38.6674H193.389L192.258 39.906V46.8653L193.389 47.9573H204.915C213.182 48.0222 219.936 41.3833 220 33.0484C220.039 27.9963 217.568 23.26 213.418 20.4295Z" fill="#4285F4"/>
<path d="M181.879 47.9574H193.389V38.6673H181.879C181.059 38.6671 180.265 38.4895 179.519 38.1459L177.886 38.651L173.247 43.2961L172.843 44.877C175.445 46.8578 178.619 47.9716 181.879 47.9574Z" fill="#34A853"/>
<path d="M181.879 17.8219C173.612 17.8716 166.951 24.6689 167 33.0038C167.028 37.6582 169.184 42.0396 172.843 44.877L179.519 38.1458C176.623 36.8264 175.336 33.3895 176.644 30.4693C177.953 27.5491 181.362 26.2513 184.258 27.5706C185.534 28.1519 186.556 29.1826 187.133 30.4693L193.809 23.7381C190.969 19.994 186.555 17.805 181.879 17.8219Z" fill="#FBBC05"/>
</g>
<path d="M123.493 34.1595C125.29 33.9406 129.254 33.4695 129.96 34.3784C130.665 35.2706 129.17 39.0246 128.498 40.6909C128.297 41.1961 128.734 41.3979 129.187 41.0109C132.143 38.5194 132.916 33.3177 132.311 32.5602C131.706 31.8199 126.516 31.1799 123.358 33.4021C122.871 33.7554 122.955 34.2269 123.493 34.1595Z" fill="#FF9900"/>
<path d="M107.2 43.2664C114.104 43.2664 122.132 41.0946 127.658 37.0043C128.565 36.331 127.776 35.3043 126.852 35.725C120.654 38.3509 113.919 39.6305 107.788 39.6305C98.7011 39.6305 89.9165 37.1224 82.7952 32.9813C82.1732 32.611 81.7031 33.2506 82.2236 33.7221C88.8081 39.6809 97.5253 43.2664 107.2 43.2664Z" fill="#FF9900"/>
<path d="M96.2319 23.9921C96.2319 24.6151 96.299 25.1199 96.4164 25.4902C96.5658 25.9068 96.7455 26.3119 96.9543 26.7021C97.038 26.8369 97.0717 26.9717 97.0717 27.0895C97.0717 27.258 96.971 27.4265 96.7524 27.5947L95.6944 28.3017C95.5433 28.4024 95.3918 28.4532 95.2577 28.4532C95.0895 28.4532 94.9217 28.3687 94.7539 28.2173C94.5274 27.9735 94.3249 27.7086 94.149 27.4261C93.9612 27.1027 93.7874 26.7713 93.6282 26.4328C92.3183 27.9817 90.6721 28.7561 88.6902 28.7561C87.2792 28.7561 86.1542 28.3521 85.3311 27.5443C84.508 26.7361 84.0879 25.6584 84.0879 24.3121C84.0879 22.881 84.5917 21.7195 85.6163 20.8444C86.641 19.9688 88.0016 19.5314 89.7319 19.5314C90.3027 19.5314 90.8906 19.5818 91.5122 19.6659C92.1334 19.7503 92.7717 19.8848 93.4437 20.0362V18.8074C93.4437 17.5281 93.1747 16.6359 92.6539 16.1141C92.1168 15.5922 91.2096 15.34 89.9164 15.34C89.3285 15.34 88.7239 15.407 88.1023 15.5585C87.4848 15.706 86.8786 15.8974 86.2883 16.1311C86.0973 16.2167 85.9009 16.2899 85.7004 16.35C85.583 16.3833 85.4989 16.4003 85.4315 16.4003C85.1966 16.4003 85.0788 16.2322 85.0788 15.8785V15.0537C85.0788 14.7844 85.1129 14.5822 85.1966 14.4648C85.2803 14.3467 85.4315 14.2289 85.6667 14.1108C86.2546 13.8078 86.9603 13.5555 87.783 13.3533C88.6061 13.1348 89.48 13.0334 90.4035 13.0334C92.4024 13.0334 93.8634 13.4881 94.8039 14.397C95.7278 15.3059 96.1982 16.6866 96.1982 18.5381V23.9921H96.2319ZM89.4126 26.551C89.9667 26.551 90.5379 26.4499 91.1425 26.248C91.7471 26.0458 92.2846 25.6754 92.738 25.1706C93.0069 24.8506 93.2084 24.4973 93.3092 24.0932C93.41 23.6892 93.477 23.201 93.477 22.6288V21.9218C92.9677 21.7976 92.4519 21.7021 91.9319 21.6358C91.4083 21.569 90.881 21.5352 90.3531 21.5344C89.2277 21.5344 88.4046 21.7533 87.8504 22.2077C87.2962 22.6625 87.0273 23.3021 87.0273 24.1436C87.0273 24.9347 87.2288 25.5239 87.6489 25.928C88.0519 26.3488 88.6398 26.551 89.4122 26.551H89.4126ZM102.9 28.3687C102.598 28.3687 102.396 28.3184 102.262 28.2006C102.127 28.0995 102.01 27.8636 101.909 27.5439L97.9619 14.5318C97.8611 14.1948 97.8108 13.9763 97.8108 13.8585C97.8108 13.5892 97.9449 13.4378 98.2138 13.4378H99.8597C100.179 13.4378 100.398 13.4881 100.515 13.6059C100.649 13.707 100.75 13.9429 100.851 14.2626L103.673 25.4062L106.293 14.2626C106.377 13.9256 106.478 13.707 106.612 13.6059C106.746 13.5048 106.981 13.4378 107.284 13.4378H108.628C108.947 13.4378 109.165 13.4881 109.3 13.6059C109.434 13.707 109.551 13.9429 109.618 14.2626L112.272 25.541L115.178 14.2626C115.279 13.9256 115.396 13.707 115.514 13.6059C115.648 13.5048 115.867 13.4378 116.169 13.4378H117.731C118 13.4378 118.151 13.5722 118.151 13.8585C118.151 13.9426 118.134 14.0267 118.117 14.1278C118.091 14.2713 118.052 14.4121 118 14.5485L113.952 27.5613C113.851 27.898 113.734 28.1165 113.599 28.2176C113.465 28.3187 113.247 28.3861 112.961 28.3861H111.517C111.197 28.3861 110.979 28.3354 110.845 28.2176C110.711 28.0998 110.593 27.8809 110.526 27.5443L107.922 16.687L105.335 27.5276C105.251 27.8643 105.151 28.0831 105.016 28.2009C104.882 28.3187 104.647 28.3691 104.345 28.3691L102.9 28.3687ZM124.483 28.8235C123.61 28.8235 122.736 28.7224 121.897 28.5206C121.057 28.3184 120.402 28.0995 119.965 27.8469C119.696 27.6954 119.512 27.5269 119.444 27.3758C119.379 27.2271 119.345 27.0667 119.344 26.9043V26.0458C119.344 25.6925 119.478 25.5239 119.73 25.5239C119.831 25.5239 119.931 25.541 120.032 25.5743C120.133 25.6084 120.284 25.6754 120.452 25.7428C121.046 26.0042 121.665 26.2017 122.3 26.3317C122.972 26.4665 123.627 26.5339 124.299 26.5339C125.357 26.5339 126.18 26.3488 126.751 25.9784C127.322 25.608 127.624 25.0695 127.624 24.3792C127.624 23.908 127.473 23.521 127.171 23.201C126.869 22.881 126.297 22.5951 125.474 22.3258L123.039 21.5681C121.813 21.181 120.906 20.6088 120.352 19.8511C119.797 19.1103 119.512 18.2855 119.512 17.4103C119.512 16.7033 119.663 16.0804 119.965 15.5418C120.267 15.0033 120.671 14.5318 121.175 14.1615C121.678 13.7744 122.249 13.4881 122.921 13.2863C123.593 13.0841 124.299 13 125.038 13C125.407 13 125.794 13.017 126.163 13.0674C126.549 13.1178 126.902 13.1852 127.255 13.2526C127.591 13.3367 127.91 13.4207 128.212 13.5215C128.515 13.6229 128.75 13.7237 128.918 13.8248C129.153 13.9596 129.321 14.0941 129.422 14.2456C129.522 14.3804 129.573 14.5655 129.573 14.8011V15.5925C129.573 15.9462 129.438 16.1314 129.187 16.1314C129.052 16.1314 128.834 16.064 128.548 15.9292C127.591 15.4918 126.516 15.2729 125.323 15.2729C124.366 15.2729 123.61 15.4244 123.089 15.744C122.569 16.064 122.3 16.5522 122.3 17.2425C122.3 17.7136 122.468 18.1174 122.804 18.4373C123.14 18.7573 123.761 19.0773 124.651 19.3632L127.036 20.121C128.246 20.508 129.119 21.0469 129.64 21.7369C130.161 22.4269 130.413 23.218 130.413 24.0936C130.413 24.8173 130.262 25.4739 129.976 26.0461C129.674 26.6184 129.271 27.1235 128.75 27.5276C128.229 27.9483 127.608 28.2513 126.885 28.4702C126.13 28.7057 125.34 28.8235 124.483 28.8235Z" fill="#FF9900"/>
<path d="M24.0004 48V38.7062C33.8652 38.7062 41.49 28.9415 37.7254 18.572C36.3298 14.7318 33.2671 11.6674 29.4254 10.2734C19.0562 6.51028 9.29689 14.1354 9.29521 23.9972L9.29354 24.0005H0C0 8.28461 15.1826 -3.95136 31.6486 1.19066C38.8446 3.43579 44.5627 9.15418 46.8095 16.3503C51.9513 32.8185 39.7141 48 24.0004 48Z" fill="#0069FF"/>
<path fill-rule="evenodd" clip-rule="evenodd" d="M24.0216 38.7291H14.7549V29.4638L14.7566 29.4621H24.0199L24.0216 29.4638V38.7291Z" fill="#0069FF"/>
<path fill-rule="evenodd" clip-rule="evenodd" d="M14.7533 45.849H7.63449L7.63281 45.8473V38.7282H14.755V45.8473L14.7533 45.849Z" fill="#0069FF"/>
<path fill-rule="evenodd" clip-rule="evenodd" d="M7.63818 38.7291H1.67034L1.66699 38.7275V32.7628L1.67034 32.7577H7.63483L7.63818 32.7594V38.7291Z" fill="#0069FF"/>
<defs>
<clipPath id="clip0_144_116">
<rect width="53" height="43" fill="white" transform="translate(167 5)"/>
</clipPath>
</defs>
</svg>
