<svg width="389" height="52" viewBox="0 0 389 52" fill="none" xmlns="http://www.w3.org/2000/svg">
<path fill-rule="evenodd" clip-rule="evenodd" d="M387.369 22.9347L382.192 25.9353L387.369 28.9105C387.678 29.0905 387.95 29.3301 388.167 29.6156C388.385 29.901 388.544 30.2268 388.636 30.5743C388.729 30.9218 388.752 31.2842 388.705 31.6407C388.659 31.9973 388.542 32.3412 388.363 32.6526C388.185 32.964 387.946 33.2369 387.663 33.4557C387.379 33.6745 387.055 33.835 386.71 33.9279C386.364 34.0208 386.004 34.0444 385.65 33.9973C385.295 33.9502 384.953 33.8333 384.644 33.6533L375.369 28.2782C374.944 28.0308 374.593 27.6725 374.354 27.2412C374.114 26.8099 373.995 26.3216 374.008 25.8278C374.015 25.6138 374.048 25.4015 374.106 25.1954C374.295 24.5042 374.747 23.9152 375.363 23.5544L384.638 18.1983C384.948 18.0175 385.292 17.9002 385.648 17.8531C386.004 17.806 386.366 17.8299 386.712 17.9236C387.059 18.0173 387.384 18.1789 387.669 18.3991C387.954 18.6193 388.192 18.8938 388.371 19.2069C388.551 19.5173 388.668 19.8605 388.715 20.2167C388.762 20.5728 388.738 20.9348 388.645 21.2816C388.551 21.6284 388.391 21.9532 388.172 22.2369C387.952 22.5207 387.68 22.7579 387.369 22.9347ZM382.469 37.4791L373.197 32.1135C372.782 31.874 372.313 31.7479 371.834 31.7477C371.356 31.7474 370.886 31.8732 370.471 32.1123C370.056 32.3514 369.71 32.6956 369.469 33.1107C369.227 33.5259 369.097 33.9974 369.093 34.4785V45.1971C369.117 45.9093 369.415 46.5842 369.924 47.0795C370.433 47.5747 371.114 47.8516 371.822 47.8516C372.531 47.8516 373.211 47.5747 373.72 47.0795C374.23 46.5842 374.528 45.9093 374.552 45.1971V39.1896L379.741 42.1902C380.05 42.3704 380.392 42.4875 380.747 42.5348C381.101 42.5822 381.462 42.5588 381.807 42.466C382.153 42.3732 382.477 42.2129 382.761 41.9941C383.045 41.7754 383.283 41.5025 383.462 41.1911C383.641 40.8797 383.758 40.5358 383.805 40.1791C383.852 39.8225 383.828 39.46 383.736 39.1124C383.644 38.7647 383.485 38.4388 383.267 38.1531C383.05 37.8675 382.778 37.6277 382.469 37.4475V37.4791ZM371.783 26.9945L367.917 30.8361C367.785 30.9598 367.613 31.0326 367.433 31.0416H366.298C366.119 31.0308 365.948 30.9582 365.814 30.8361L361.971 26.9818C361.85 26.8498 361.779 26.68 361.77 26.5012V25.363C361.78 25.1834 361.851 25.0127 361.971 24.8792L365.814 21.0249C365.948 20.9037 366.119 20.8323 366.298 20.8226H367.433C367.613 20.831 367.784 20.9026 367.917 21.0249L371.77 24.8792C371.889 25.013 371.959 25.1837 371.968 25.363V26.5012C371.96 26.6797 371.89 26.8495 371.77 26.9818L371.783 26.9945ZM368.703 25.9258C368.688 25.7414 368.612 25.5676 368.486 25.4325L367.37 24.3227C367.237 24.2018 367.066 24.1304 366.886 24.1204H366.845C366.667 24.1298 366.497 24.2013 366.364 24.3227L365.249 25.4325C365.129 25.5683 365.059 25.7413 365.051 25.9226V25.9637C365.059 26.1423 365.129 26.3124 365.249 26.4443L366.371 27.551C366.503 27.6719 366.673 27.7434 366.852 27.7533H366.892C367.072 27.7433 367.243 27.6719 367.377 27.551L368.492 26.4348C368.613 26.3027 368.685 26.1332 368.697 25.9542L368.703 25.9258ZM351.263 14.3914L360.537 19.7412C360.953 19.9806 361.423 20.1066 361.902 20.1066C362.38 20.1066 362.851 19.9806 363.266 19.7412C363.681 19.5018 364.027 19.1573 364.269 18.7418C364.511 18.3264 364.641 17.8545 364.645 17.373V6.66392C364.621 5.95175 364.323 5.27682 363.814 4.78157C363.305 4.28632 362.624 4.00949 361.916 4.00949C361.207 4.00949 360.527 4.28632 360.017 4.78157C359.508 5.27682 359.21 5.95175 359.186 6.66392V12.6714L353.991 9.66766C353.681 9.48745 353.339 9.37035 352.985 9.32304C352.63 9.27572 352.27 9.29912 351.924 9.3919C351.579 9.48468 351.255 9.64502 350.971 9.86376C350.687 10.0825 350.449 10.3554 350.27 10.6668C350.09 10.9782 349.974 11.3221 349.927 11.6787C349.88 12.0354 349.903 12.3979 349.995 12.7455C350.088 13.0932 350.247 13.4191 350.464 13.7048C350.682 13.9904 350.953 14.2302 351.263 14.4104V14.3914ZM371.616 20.108C372.164 20.1516 372.712 20.027 373.188 19.7507L382.459 14.3756C382.769 14.1954 383.04 13.9556 383.258 13.67C383.475 13.3843 383.635 13.0584 383.727 12.7107C383.819 12.3631 383.842 12.0006 383.795 11.644C383.748 11.2873 383.632 10.9434 383.453 10.632C383.273 10.3206 383.035 10.0477 382.751 9.82899C382.467 9.61024 382.143 9.4499 381.798 9.35712C381.1 9.16974 380.357 9.26894 379.731 9.63288L374.542 12.6619V6.65443C374.518 5.94226 374.22 5.26734 373.711 4.77209C373.202 4.27684 372.521 4 371.813 4C371.104 4 370.424 4.27684 369.915 4.77209C369.405 5.26734 369.107 5.94226 369.083 6.65443V17.373C369.082 18.067 369.343 18.7354 369.814 19.2431C370.284 19.7508 370.928 20.0599 371.616 20.108ZM362.122 31.7562C361.574 31.7114 361.025 31.8361 360.55 32.1135L351.263 37.4664C350.638 37.8304 350.182 38.4293 349.995 39.1313C349.809 39.8334 349.908 40.5811 350.27 41.2101C350.631 41.839 351.227 42.2976 351.924 42.4849C352.622 42.6723 353.366 42.5731 353.991 42.2092L359.186 39.2086V45.2161C359.21 45.9283 359.508 46.6032 360.017 47.0984C360.527 47.5937 361.207 47.8705 361.916 47.8705C362.624 47.8705 363.305 47.5937 363.814 47.0984C364.323 46.6032 364.621 45.9283 364.645 45.2161V34.4785C364.644 33.7881 364.383 33.1237 363.915 32.6188C363.447 32.1138 362.806 31.8057 362.122 31.7562ZM359.607 26.7384C359.786 26.1461 359.759 25.5101 359.531 24.9353C359.302 24.3605 358.886 23.8812 358.35 23.5765L349.085 18.2046C348.459 17.844 347.717 17.7471 347.02 17.9348C346.324 18.1226 345.729 18.5799 345.367 19.2069C345.187 19.5172 345.07 19.8603 345.023 20.2162C344.977 20.5721 345 20.9339 345.093 21.2806C345.186 21.6272 345.346 21.9519 345.565 22.2358C345.783 22.5198 346.056 22.7573 346.366 22.9347L351.542 25.9353L346.366 28.9105C346.056 29.0901 345.785 29.3293 345.567 29.6144C345.35 29.8995 345.19 30.2249 345.097 30.5721C345.005 30.9192 344.981 31.2814 345.027 31.6378C345.074 31.9943 345.19 32.338 345.368 32.6494C345.547 32.9608 345.784 33.2338 346.068 33.4528C346.351 33.6718 346.675 33.8325 347.02 33.9257C347.365 34.0189 347.725 34.0428 348.079 33.9961C348.433 33.9494 348.775 33.8329 349.085 33.6533L358.35 28.2782C358.947 27.9431 359.395 27.3928 359.604 26.7384H359.607Z" fill="#29B5E8"/>
<path d="M280.429 45.8846L293.897 43.5032L294.022 43.475L287.095 35.2325C284.772 32.4835 282.461 29.7239 280.164 26.9537C280.164 26.9135 287.32 7.20611 287.36 7.13773C291.32 13.9162 295.254 20.7092 299.163 27.5169L311.03 48.0931L311.123 48.25L267.082 48.246L280.429 45.8846ZM254 43.3745C254 43.3624 257.262 37.6944 261.253 30.7793L268.51 18.2002L276.966 11.1041C281.616 7.20611 285.434 4 285.446 4C285.416 4.11901 285.371 4.23386 285.313 4.34193L276.125 24.0372L267.114 43.3785L260.557 43.3865C256.949 43.3905 254 43.3865 254 43.3745Z" fill="#0089D6"/>
<path d="M172 30.732L196 44.2065L217.544 32.1815V36.9698L196 49.101L173.229 36.1877L172.002 36.855V38.5233L196 52L220 38.5277V29.1742L218.881 28.5047L196 41.4223L174.569 29.1742V24.3858L196 36.4108L220 22.9385V13.6933L218.881 13.026L196 25.9437L175.686 14.4755L196 3.00733L212.854 12.4713L214.305 11.5808V10.3545L196 0L172 13.585V15.145L196 28.6152L217.544 16.5902V21.4868L196 33.6267L173.229 20.7133L172.002 21.3807L172 30.732Z" fill="#FF3621"/>
<g clip-path="url(#clip0_144_116)">
<path d="M120.247 16.8602L124.855 12.2151L125.162 10.2593C116.766 2.56247 103.421 3.4352 95.8528 12.0803C93.7506 14.4814 92.191 17.4749 91.3594 20.5661L93.0094 20.3317L102.223 18.7998L102.935 18.0663C107.033 13.5279 113.963 12.9173 118.696 16.7788L120.247 16.8602Z" fill="#EA4335"/>
<path d="M131.418 20.4295C130.359 16.4977 128.185 12.9632 125.162 10.2594L118.696 16.7787C121.426 19.0281 122.982 22.4167 122.915 25.9709V27.1281C126.093 27.1281 128.67 29.7259 128.67 32.9302C128.67 36.1348 126.093 38.6674 122.915 38.6674H111.389L110.258 39.906V46.8653L111.389 47.9573H122.915C131.182 48.0222 137.936 41.3833 138 33.0484C138.039 27.9963 135.568 23.26 131.418 20.4295Z" fill="#4285F4"/>
<path d="M99.8791 47.9574H111.389V38.6673H99.8791C99.059 38.6671 98.2648 38.4895 97.5191 38.1459L95.8863 38.651L91.2469 43.2961L90.8428 44.877C93.4445 46.8578 96.6189 47.9716 99.8791 47.9574Z" fill="#34A853"/>
<path d="M99.8794 17.8219C91.6124 17.8716 84.951 24.6689 85.0003 33.0038C85.0278 37.6582 87.1838 42.0396 90.8431 44.877L97.5195 38.1458C94.6229 36.8264 93.3358 33.3895 94.6444 30.4693C95.9528 27.5491 99.3618 26.2513 102.258 27.5706C103.534 28.1519 104.556 29.1826 105.133 30.4693L111.809 23.7381C108.969 19.994 104.555 17.805 99.8794 17.8219Z" fill="#FBBC05"/>
</g>
<path d="M41.4929 34.1595C43.2903 33.9406 47.254 33.4695 47.9597 34.3784C48.665 35.2706 47.1703 39.0246 46.4983 40.6909C46.2968 41.1961 46.7335 41.3979 47.1869 41.0109C50.143 38.5194 50.9158 33.3177 50.3112 32.5602C49.7063 31.8199 44.5164 31.1799 41.3585 33.4021C40.8713 33.7554 40.9554 34.2269 41.4929 34.1595Z" fill="#FF9900"/>
<path d="M25.2 43.2664C32.1035 43.2664 40.132 41.0946 45.6582 37.0043C46.5651 36.331 45.7757 35.3043 44.8518 35.725C38.654 38.3509 31.9187 39.6305 25.7879 39.6305C16.7011 39.6305 7.91651 37.1224 0.795171 32.9813C0.173246 32.611 -0.296858 33.2506 0.223626 33.7221C6.80814 39.6809 15.5253 43.2664 25.2 43.2664Z" fill="#FF9900"/>
<path d="M14.2319 23.9921C14.2319 24.6151 14.299 25.1199 14.4164 25.4902C14.5658 25.9068 14.7455 26.3119 14.9543 26.7021C15.038 26.8369 15.0717 26.9717 15.0717 27.0895C15.0717 27.258 14.971 27.4265 14.7524 27.5947L13.6944 28.3017C13.5433 28.4024 13.3918 28.4532 13.2577 28.4532C13.0895 28.4532 12.9217 28.3687 12.7539 28.2173C12.5274 27.9735 12.3249 27.7086 12.149 27.4261C11.9612 27.1027 11.7874 26.7713 11.6282 26.4328C10.3183 27.9817 8.67206 28.7561 6.69021 28.7561C5.27922 28.7561 4.15417 28.3521 3.33106 27.5443C2.50795 26.7361 2.08789 25.6584 2.08789 24.3121C2.08789 22.881 2.59169 21.7196 3.61632 20.8444C4.64095 19.9688 6.00156 19.5314 7.73186 19.5314C8.30272 19.5314 8.8906 19.5818 9.51219 19.6659C10.1334 19.7503 10.7717 19.8848 11.4437 20.0362V18.8074C11.4437 17.5281 11.1747 16.6359 10.6539 16.1141C10.1168 15.5922 9.20957 15.34 7.91636 15.34C7.32847 15.34 6.72391 15.407 6.10232 15.5585C5.48481 15.706 4.87859 15.8974 4.28829 16.1311C4.09729 16.2167 3.90092 16.2899 3.7004 16.35C3.58296 16.3833 3.49888 16.4003 3.43148 16.4003C3.1966 16.4003 3.07882 16.2322 3.07882 15.8785V15.0537C3.07882 14.7844 3.11286 14.5822 3.1966 14.4648C3.28034 14.3467 3.43148 14.2289 3.6667 14.1108C4.25459 13.8078 4.96025 13.5555 5.78302 13.3533C6.60613 13.1348 7.47995 13.0334 8.40348 13.0334C10.4024 13.0334 11.8634 13.4881 12.8039 14.397C13.7278 15.3059 14.1982 16.6866 14.1982 18.5381V23.9921H14.2319ZM7.41255 26.551C7.96674 26.551 8.53794 26.4499 9.14251 26.248C9.74707 26.0458 10.2846 25.6754 10.738 25.1706C11.0069 24.8506 11.2084 24.4973 11.3092 24.0932C11.41 23.6892 11.477 23.201 11.477 22.6288V21.9218C10.9677 21.7976 10.4519 21.7021 9.93191 21.6358C9.40828 21.569 8.88097 21.5352 8.3531 21.5344C7.22771 21.5344 6.4046 21.7533 5.85042 22.2077C5.29624 22.6625 5.02731 23.3021 5.02731 24.1436C5.02731 24.9347 5.22884 25.5239 5.6489 25.928C6.05194 26.3488 6.63983 26.551 7.41221 26.551H7.41255ZM20.8999 28.3687C20.5976 28.3687 20.3961 28.3184 20.2616 28.2006C20.1275 28.0995 20.0097 27.8636 19.9089 27.5439L15.9619 14.5318C15.8611 14.1948 15.8108 13.9763 15.8108 13.8585C15.8108 13.5892 15.9449 13.4378 16.2138 13.4378H17.8597C18.179 13.4378 18.3975 13.4881 18.515 13.6059C18.6494 13.707 18.7498 13.9429 18.8509 14.2626L21.6729 25.4062L24.293 14.2626C24.3768 13.9256 24.4775 13.707 24.612 13.6059C24.7465 13.5048 24.9813 13.4378 25.284 13.4378H26.6276C26.9469 13.4378 27.1651 13.4881 27.2995 13.6059C27.434 13.707 27.5514 13.9429 27.6185 14.2626L30.2723 25.541L33.1784 14.2626C33.2788 13.9256 33.3962 13.707 33.514 13.6059C33.6485 13.5048 33.8667 13.4378 34.1693 13.4378H35.7311C36 13.4378 36.1512 13.5722 36.1512 13.8585C36.1512 13.9426 36.1345 14.0267 36.1175 14.1278C36.0912 14.2713 36.0519 14.4121 36 14.5485L31.9522 27.5613C31.8511 27.898 31.7337 28.1165 31.5992 28.2176C31.4651 28.3187 31.2466 28.3861 30.961 28.3861H29.5166C29.1973 28.3861 28.9788 28.3354 28.8446 28.2176C28.7105 28.0998 28.5927 27.8809 28.5257 27.5443L25.9222 16.687L23.3355 27.5276C23.2514 27.8643 23.1506 28.0831 23.0162 28.2009C22.8821 28.3187 22.6468 28.3691 22.3445 28.3691L20.8999 28.3687ZM42.4834 28.8235C41.6099 28.8235 40.7365 28.7224 39.8967 28.5206C39.0569 28.3184 38.4019 28.0995 37.9652 27.8469C37.6963 27.6954 37.5118 27.5269 37.4444 27.3758C37.379 27.2271 37.3447 27.0667 37.3436 26.9043V26.0458C37.3436 25.6925 37.4781 25.5239 37.73 25.5239C37.8307 25.5239 37.9315 25.541 38.0323 25.5743C38.133 25.6084 38.2842 25.6754 38.4523 25.7428C39.0455 26.0042 39.665 26.2017 40.3 26.3317C40.9717 26.4665 41.627 26.5339 42.2986 26.5339C43.3569 26.5339 44.18 26.3488 44.7509 25.9784C45.3221 25.608 45.6244 25.0695 45.6244 24.3792C45.6244 23.908 45.4732 23.521 45.1709 23.201C44.8687 22.881 44.2975 22.5951 43.4744 22.3258L41.0391 21.5681C39.8129 21.181 38.9057 20.6088 38.3516 19.8511C37.7974 19.1103 37.5118 18.2855 37.5118 17.4103C37.5118 16.7033 37.6629 16.0804 37.9652 15.5418C38.2675 15.0033 38.6705 14.5318 39.1747 14.1615C39.6785 13.7744 40.2493 13.4881 40.9213 13.2863C41.5933 13.0841 42.2986 13 43.0376 13C43.4073 13 43.7937 13.017 44.163 13.0674C44.5494 13.1178 44.902 13.1852 45.2547 13.2526C45.5907 13.3367 45.91 13.4207 46.2123 13.5215C46.5145 13.6229 46.7498 13.7237 46.9176 13.8248C47.1528 13.9596 47.321 14.0941 47.4217 14.2456C47.5225 14.3804 47.5729 14.5655 47.5729 14.8011V15.5925C47.5729 15.9462 47.4384 16.1314 47.1865 16.1314C47.052 16.1314 46.8338 16.064 46.5482 15.9292C45.5907 15.4918 44.5157 15.2729 43.3232 15.2729C42.366 15.2729 41.6099 15.4244 41.0895 15.744C40.5686 16.064 40.3 16.5522 40.3 17.2425C40.3 17.7136 40.4679 18.1174 40.8039 18.4373C41.1398 18.7573 41.7611 19.0773 42.6512 19.3632L45.0365 20.121C46.246 20.508 47.1191 21.0469 47.6399 21.7369C48.1608 22.4269 48.4127 23.218 48.4127 24.0936C48.4127 24.8173 48.2615 25.4739 47.9759 26.0461C47.6736 26.6184 47.2706 27.1235 46.7498 27.5276C46.2289 27.9483 45.6077 28.2513 44.8853 28.4702C44.1296 28.7057 43.3399 28.8235 42.4834 28.8235Z" fill="#FF9900"/>
<defs>
<clipPath id="clip0_144_116">
<rect width="53" height="43" fill="white" transform="translate(85 5)"/>
</clipPath>
</defs>
</svg>
