<svg width="30" height="24" viewBox="0 0 30 24" fill="none" xmlns="http://www.w3.org/2000/svg">
<g filter="url(#filter0_dii_3287_15657)">
<path d="M27.0621 2.90093C27.3221 2.74379 27.41 2.3948 27.213 2.16008C26.6168 1.44975 25.7341 1 24.75 1H5.25C4.15846 1 3.19362 1.5529 2.60428 2.40096C2.44073 2.63631 2.53122 2.95475 2.7709 3.10633L13.6425 9.98154C14.1549 10.3056 14.7995 10.3122 15.3181 9.99878L27.0621 2.90093Z" fill="url(#paint0_linear_3287_15657)"/>
<path d="M28 6.53453C28 6.10406 27.5448 5.83653 27.1837 6.05478L15.4253 13.1617C14.8201 13.527 14.069 13.5194 13.4702 13.1416L2.82558 6.40965C2.46469 6.18141 2 6.4482 2 6.88365L2 17.6605C2 19.5047 3.45573 21 5.25 21H24.75C26.5443 21 28 19.5047 28 17.6605V6.53453Z" fill="url(#paint1_linear_3287_15657)"/>
</g>
<defs>
<filter id="filter0_dii_3287_15657" x="0" y="0" width="30" height="24" filterUnits="userSpaceOnUse" color-interpolation-filters="sRGB">
<feFlood flood-opacity="0" result="BackgroundImageFix"/>
<feColorMatrix in="SourceAlpha" type="matrix" values="0 0 0 0 0 0 0 0 0 0 0 0 0 0 0 0 0 0 127 0" result="hardAlpha"/>
<feOffset dy="1"/>
<feGaussianBlur stdDeviation="1"/>
<feComposite in2="hardAlpha" operator="out"/>
<feColorMatrix type="matrix" values="0 0 0 0 0.0823529 0 0 0 0 0.0784314 0 0 0 0 0.133333 0 0 0 0.7 0"/>
<feBlend mode="normal" in2="BackgroundImageFix" result="effect1_dropShadow_3287_15657"/>
<feBlend mode="normal" in="SourceGraphic" in2="effect1_dropShadow_3287_15657" result="shape"/>
<feColorMatrix in="SourceAlpha" type="matrix" values="0 0 0 0 0 0 0 0 0 0 0 0 0 0 0 0 0 0 127 0" result="hardAlpha"/>
<feOffset dy="1"/>
<feGaussianBlur stdDeviation="0.5"/>
<feComposite in2="hardAlpha" operator="arithmetic" k2="-1" k3="1"/>
<feColorMatrix type="matrix" values="0 0 0 0 1 0 0 0 0 1 0 0 0 0 1 0 0 0 0.45 0"/>
<feBlend mode="normal" in2="shape" result="effect2_innerShadow_3287_15657"/>
<feColorMatrix in="SourceAlpha" type="matrix" values="0 0 0 0 0 0 0 0 0 0 0 0 0 0 0 0 0 0 127 0" result="hardAlpha"/>
<feOffset dy="-1"/>
<feGaussianBlur stdDeviation="0.5"/>
<feComposite in2="hardAlpha" operator="arithmetic" k2="-1" k3="1"/>
<feColorMatrix type="matrix" values="0 0 0 0 1 0 0 0 0 1 0 0 0 0 1 0 0 0 0.45 0"/>
<feBlend mode="normal" in2="effect2_innerShadow_3287_15657" result="effect3_innerShadow_3287_15657"/>
</filter>
<linearGradient id="paint0_linear_3287_15657" x1="22.1724" y1="0.950751" x2="15.1397" y2="21.0489" gradientUnits="userSpaceOnUse">
<stop stop-color="#BDB7FF"/>
<stop offset="1" stop-color="#A59CFF"/>
</linearGradient>
<linearGradient id="paint1_linear_3287_15657" x1="22.1724" y1="0.950751" x2="15.1397" y2="21.0489" gradientUnits="userSpaceOnUse">
<stop stop-color="#BDB7FF"/>
<stop offset="1" stop-color="#A59CFF"/>
</linearGradient>
</defs>
</svg>
