<svg height="512" viewBox="0 0 60 60" width="512" xmlns="http://www.w3.org/2000/svg"><g id="Page-1" fill="none" fill-rule="evenodd"><g id="029---Map" fill="rgb(73, 67, 105)" fill-rule="nonzero"><path id="Shape" d="m60 8.466c.0035096-1.31111528-.8481166-2.47135458-2.1-2.861l-17.6-5.559c-.034-.01-.068-.012-.1-.019l-.053-.01c-.1335123-.01956331-.26961-.0117377-.4.023-.01 0-.02 0-.03 0l-19.71 5.914-16.107-5.086c-.91117059-.28654993-1.9043377-.12208067-2.67449441.44289839-.77015671.56497907-1.22524529 1.46293532-1.22550559 2.41810161v47.805c-.00570923 1.3129598.84634568 2.4758118 2.1 2.866l17.6 5.559c.1915711.0589261.3964289.0589261.588 0l19.706-5.912 16.1 5.086c.2949393.0937368.6025236.1416283.912.142 1.6519692-.0082402 2.9877232-1.3480135 2.991-3zm-58 43.068v-47.805c0-.55228475.44771525-1 1-1 .10344179.00036685.20624653.0162089.305.047l15.695 4.957v39.249c-.5445428-.0100773-.9957892.4199319-1.0119539.964328-.0161648.5443961.4087725 1.0004218.9529539 1.022672h.059v8.666l-16.3-5.147c-.41662347-.131022-.70002655-.5172599-.7-.954zm19 6.122v-8.7c.3958836-.0291547.790049-.0782168 1.181-.147.3513707-.0646651.6415522-.3118721.761236-.6485006.1196837-.3366285.0506869-.7115366-.181-.9835-.231687-.2719634-.5908653-.3996645-.942236-.3349994-.26.048-.537.079-.819.1v-39.198l18-5.4v9.688c-1.1193345.0478099-2.2281303.2369772-3.3.563-.3637362.0883727-.6476622.3724852-.7357959.7362794-.0881338.3637941.0342836.7463485.3172454.9913921.2829619.2450435.679083.311541 1.0265505.1723285.8772465-.2669486 1.7841176-.4244755 2.7-.469v38.23zm36.591-.578c-.2565388.1901523-.589046.2448875-.893.147l-15.698-4.958v-38.217c.8933834.0810711 1.7673666.3084352 2.587.673.5031314.2280936 1.0959064.0051314 1.324-.498s.0051314-1.0959064-.498-1.324c-1.0800522-.4787677-2.2346985-.7673447-3.413-.853v-9.684l16.3 5.148c.4166235.13102202.7000266.51725993.7.954v47.805c.0014116.3191288-.1507952.6194488-.409.807z"/><path id="Shape" d="m54.707 36.293c-.3904999-.3903819-1.0235001-.3903819-1.414 0l-3.293 3.293-3.293-3.293c-.3923789-.3789722-1.0160848-.3735524-1.4018186.0121814s-.3911536 1.0094397-.0121814 1.4018186l3.293 3.293-3.293 3.293c-.2599566.2510745-.3642126.6228779-.2726972.9725073.0915155.3496295.3645604.6226744.7141899.7141899.3496294.0915154.7214328-.0127406.9725073-.2726972l3.293-3.293 3.293 3.293c.3923789.3789722 1.0160848.3735524 1.4018186-.0121814s.3911536-1.0094397.0121814-1.4018186l-3.293-3.293 3.293-3.293c.3903819-.3904999.3903819-1.0235001 0-1.414z"/><path id="Shape" d="m9.982 32h.007c.5495626.0000135.9961531-.4434509 1-.993v-.289c.011-.574.011-1.149.011-1.718 0-.5522847-.4477153-1-1-1-.55228475 0-1 .4477153-1 1 0 .564 0 1.133-.009 1.7v.29c-.00266468.2653921.10028121.5209577.28616084.7104011s.43944435.2972236.70483916.2995989z"/><path id="Shape" d="m10.14 38c.264691-.0169609.5118013-.1383819.686963-.3375486.1751616-.1991667.2640244-.4597621.247037-.7244514-.041-.642-.066-1.3-.08-1.957-.011598-.5522847-.4687153-.990598-1.021-.979-.55228475.011598-.99059798.4687153-.979 1.021.016.692.041 1.374.084 2.043.03380548.5271451.47177312.9370828 1 .936.022-.002.04-.002.062-.002z"/><path id="Shape" d="m11.606 40.766c-.0722384-.3591015-.3350302-.6499706-.6849815-.7581666-.3499513-.1081959-.7310526-.0164021-.99336202.2392658-.26230938.255668-.36384429.6342904-.26465648.9869008.17276988.7379136.4069184 1.4600944.7 2.159.1328024.3397378.440058.5802124.8017523.6274938.3616942.0472814.7204398-.106132.9361098-.4003168.2156701-.2941848.2540459-.6824648.1001379-1.013177-.2480863-.5964582-.4470802-1.2121686-.595-1.841z"/><path id="Shape" d="m15.435 46.121c-.4899957-.2348351-.9480272-.5312282-1.363-.882-.4202887-.3589851-1.0520149-.3092887-1.411.111s-.3092887 1.0520149.111 1.411c.5447109.4617556 1.1462612.8519231 1.79 1.161.4938578.2219565 1.0746654.0105414 1.3102843-.4769459.2356189-.4874874.0404548-1.0739555-.4402843-1.3230541z"/><path id="Shape" d="m26.2 44.172c-.2944945.3916326-.6274913.75277-.994 1.078-.2863409.2306318-.4230275.5997925-.3559299.9612895.0670975.3614969.3271558.6570177.6771882.7695321.3500324.1125143.7335758.0238727.9987417-.2308216.4688831-.4136954.8944122-.8740709 1.27-1.374.2152525-.2858125.2616749-.6647499.1217803-.9940703s-.4448529-.5589921-.8-.6025c-.3551471-.043508-.7065278.1057578-.9217803.3915703z"/><path id="Shape" d="m29.543 38.02c-.5415148-.1085218-1.0684742.2424861-1.177.784-.1271641.6409032-.2863637 1.2750317-.477 1.9-.1050361.3415459-.0198809.7131834.2233885.9749203s.6076946.373809.956.294c.3483055-.079809.6275754-.3393744.7326115-.6809203.2108493-.6906223.3864098-1.391529.526-2.1.1054266-.5397908-.2448385-1.0634013-.784-1.172z"/><path id="Shape" d="m30.009 32h-.036c-.5389002-.0003302-.9811386.4264299-1 .965-.024.653-.057 1.308-.105 1.962-.0200905.2652195.0663062.5275156.2400823.7288782s.4206123.3251992.6859177.3441218h.074c.5249886.0014006.9616776-.4034101 1-.927.05-.678.085-1.36.109-2.038.0094385-.2657636-.0873689-.5243412-.2690191-.7185643-.1816501-.1942231-.4331806-.3080935-.6989809-.3164357z"/><path id="Shape" d="m30.019 30h.005c.2653917-.0013222.5193731-.1080872.7060013-.2967786.1866281-.1886914.2905944-.4438312.2889987-.7092214l-.015-2c-.0033046-.5515041-.4524904-.996216-1.004-.994-.2662593-.0000048-.5215268.1061753-.7092366.2950113-.1877098.1888361-.292361.4447342-.2907634.7109887l.015 2c.0033046.5515041.4524904.996216 1.004.994z"/><path id="Shape" d="m30.031 24h.083c.5217847.001757.9572164-.3979693 1-.918.056-.678.136-1.321.238-1.912.0938884-.5442766-.2712234-1.0616116-.8155-1.1555s-1.0616116.2712234-1.1555.8155c-.112.649-.2 1.351-.261 2.088-.0227197.2642976.0605053.5267929.2313594.7297173.170854.2029244.4153356.3296482.6796406.3522827z"/><path id="Shape" d="m31.2 17.869c.1497034.0859862.3193596.1311589.492.131.3608528.0007107.6940999-.1930464.872-.507.3063115-.5445764.6888415-1.0426063 1.136-1.479.2584462-.2479555.3645509-.6151953.2781709-.9627796-.08638-.3475844-.352053-.6224317-.6965057-.7205577s-.7150818-.0045453-.9716652.2453373c-.58409.5690995-1.0835111 1.2190541-1.483 1.93-.2729215.4794411-.1060172 1.0893352.373 1.363z"/><path id="Shape" d="m47.4 18.472c.2606784.4871151.8668849.6706784 1.354.41s.6706784-.8668849.41-1.354c-.41574-.7830373-.9189565-1.5163915-1.5-2.186-.3642219-.4124618-.9932409-.4531711-1.4075898-.0910974-.4143488.3620737-.458326.9908728-.0984102 1.4070974.4811666.5558304.8978227 1.1643765 1.242 1.814z"/><path id="Shape" d="m48.865 23.137c.0865508.6172887.1316518 1.2396821.135 1.863 0 .5522847.4477153 1 1 1s1-.4477153 1-1c-.0027327-.7150044-.0541852-1.4289917-.154-2.137-.0451009-.3572573-.278796-.6626783-.6118339-.7996186s-.713983-.0842502-.9973471.1379471c-.2833641.2221972-.4253835.5795849-.371819.9356715z"/><path id="Shape" d="m50 32c.5522847 0 1-.4477153 1-1v-2c0-.5522847-.4477153-1-1-1s-1 .4477153-1 1v2c0 .5522847.4477153 1 1 1z"/><path id="Shape" d="m50 34c-.5522847 0-1 .4477153-1 1v1c0 .5522847.4477153 1 1 1s1-.4477153 1-1v-1c0-.5522847-.4477153-1-1-1z"/><path id="Shape" d="m9.375 25.781c.3653328.2925003.8846672.2925003 1.25 0 .219-.176 5.375-4.363 5.375-9.781 0-3.3137085-2.6862915-6-6-6s-6 2.6862915-6 6c0 5.418 5.156 9.605 5.375 9.781zm.625-13.781c2.209139 0 4 1.790861 4 4 0 3.439-2.736 6.451-4 7.658-1.264-1.207-4-4.219-4-7.658 0-2.209139 1.790861-4 4-4z"/><circle id="Oval" cx="10" cy="16" r="1"/></g></g></svg>