<svg xmlns="http://www.w3.org/2000/svg" width="320" height="232" fill="none" viewBox="0 0 320 232"><g filter="url(#a)"><rect width="216" height="108" x="52" y="62" fill="#fff" rx="12"/><g clip-path="url(#b)"><path fill="#AA99EC" fill-rule="evenodd" d="M85.324 106.259a5.56 5.56 0 0 1 3.352 0c1.085.343 1.936 1.157 2.792 2.301.853 1.14 1.795 2.73 3.01 4.779l.047.08c1.215 2.05 2.157 3.64 2.745 4.929.59 1.295.884 2.414.65 3.488a5.22 5.22 0 0 1-1.667 2.81c-.846.741-1.997 1.054-3.448 1.205-1.441.149-3.328.149-5.755.149h-.1c-2.428 0-4.314 0-5.755-.149-1.45-.151-2.602-.464-3.448-1.205a5.22 5.22 0 0 1-1.666-2.81c-.235-1.074.06-2.193.65-3.488.587-1.289 1.529-2.879 2.744-4.929l.047-.08c1.215-2.049 2.157-3.639 3.01-4.779.856-1.144 1.707-1.958 2.792-2.301m.653 14.619c0-.539.456-.976 1.018-.976h.01c.562 0 1.018.437 1.018.976s-.456.976-1.018.976h-.01c-.562 0-1.018-.437-1.018-.976m0-3.902c0 .538.458.975 1.023.975s1.023-.437 1.023-.975v-3.903c0-.539-.458-.975-1.023-.975s-1.023.436-1.023.975z" clip-rule="evenodd"/></g><rect width="88" height="10" x="122" y="91" fill="#EBE4FF" rx="5"/><rect width="122" height="10" x="122" y="111" fill="#EBE4FF" rx="5"/><rect width="104" height="10" x="122" y="131" fill="#EBE4FF" rx="5"/></g><defs><clipPath id="b"><path fill="#fff" d="M76 106h22v20H76z"/></clipPath><filter id="a" width="256" height="148" x="32" y="54" color-interpolation-filters="sRGB" filterUnits="userSpaceOnUse"><feFlood flood-opacity="0" result="BackgroundImageFix"/><feColorMatrix in="SourceAlpha" result="hardAlpha" values="0 0 0 0 0 0 0 0 0 0 0 0 0 0 0 0 0 0 127 0"/><feOffset dy="12"/><feGaussianBlur stdDeviation="10"/><feComposite in2="hardAlpha" operator="out"/><feColorMatrix values="0 0 0 0 0 0 0 0 0 0 0 0 0 0 0 0 0 0 0.03 0"/><feBlend in2="BackgroundImageFix" result="effect1_dropShadow_10060_19209"/><feColorMatrix in="SourceAlpha" result="hardAlpha" values="0 0 0 0 0 0 0 0 0 0 0 0 0 0 0 0 0 0 127 0"/><feOffset dy="2"/><feGaussianBlur stdDeviation="3"/><feComposite in2="hardAlpha" operator="out"/><feColorMatrix values="0 0 0 0 0 0 0 0 0 0 0 0 0 0 0 0 0 0 0.05 0"/><feBlend in2="effect1_dropShadow_10060_19209" result="effect2_dropShadow_10060_19209"/><feBlend in="SourceGraphic" in2="effect2_dropShadow_10060_19209" result="shape"/></filter></defs></svg>