<svg xmlns="http://www.w3.org/2000/svg" width="320" height="232" fill="none" viewBox="0 0 320 232"><g filter="url(#a)"><rect width="102" height="24" x="109" y="104" fill="#AA99EC" rx="12"/><path fill="#FDFCFE" d="M193.8 121.14c-2.352 0-3.948-1.512-3.948-3.738 0-2.212 1.582-3.682 3.948-3.682 2.38 0 3.948 1.47 3.948 3.682 0 2.226-1.596 3.738-3.948 3.738m0-1.652c.98 0 1.764-.784 1.764-2.1 0-1.288-.77-2.016-1.764-2.016s-1.764.742-1.764 2.016c0 1.316.784 2.1 1.764 2.1m-8.889 4.522c-1.988 0-3.29-.896-3.514-2.338h1.988c.154.364.658.546 1.428.546 1.26 0 1.82-.476 1.82-1.498v-1.148c-.336.826-1.204 1.316-2.366 1.316-1.904 0-3.15-1.4-3.15-3.556 0-2.17 1.302-3.612 3.262-3.612 1.162 0 2.002.504 2.296 1.372v-1.232h2.058v6.832c0 2.058-1.456 3.318-3.822 3.318m.084-4.732c.98 0 1.666-.7 1.666-1.974s-.686-1.974-1.694-1.974c-.98 0-1.666.714-1.666 1.988s.686 1.96 1.694 1.96m-9.206 1.862c-1.414 0-2.324-.77-2.324-1.974 0-1.33 1.05-2.142 2.842-2.394l1.764-.252v-.364c0-.574-.392-.924-1.134-.924-.714 0-1.134.252-1.26.714h-2.002c.182-1.288 1.344-2.226 3.332-2.226 2.044 0 3.164.938 3.164 2.66v3.15c0 .476.056.924.21 1.47h-2.1c-.098-.336-.14-.7-.154-1.162-.448.854-1.26 1.302-2.338 1.302m-.224-2.254c0 .462.364.714.924.714.882 0 1.582-.56 1.582-1.19v-.658l-1.414.21c-.756.112-1.092.406-1.092.924m-8.615 2.254c-2.086 0-3.388-.882-3.5-2.366h1.876c.084.63.644.966 1.624.966.868 0 1.26-.252 1.26-.728 0-.35-.196-.532-.812-.658l-1.148-.238c-1.708-.35-2.478-1.05-2.478-2.198 0-1.386 1.12-2.198 3.024-2.198 1.89 0 3.066.798 3.178 2.142h-1.876c-.07-.49-.532-.742-1.344-.742-.742 0-1.106.224-1.106.616 0 .336.266.518.966.658l1.288.266c1.442.294 2.184 1.162 2.184 2.268 0 1.4-1.134 2.212-3.136 2.212m-8.38-.14v-7.14h2.058v1.316c.392-.952 1.12-1.456 2.114-1.456.154 0 .294.014.392.056v1.96a2 2 0 0 0-.504-.042c-1.344 0-1.96.42-1.96 1.582V121zm-6.248.14c-1.526 0-2.394-1.092-2.394-2.45v-4.83h2.1v4.424c0 .784.406 1.176 1.12 1.176.938 0 1.638-.714 1.638-1.764v-3.836h2.1V121h-2.058v-1.302c-.49.882-1.344 1.442-2.506 1.442m-7.371 0c-2.352 0-3.948-1.512-3.948-3.738 0-2.212 1.582-3.682 3.948-3.682 2.38 0 3.948 1.47 3.948 3.682 0 2.226-1.596 3.738-3.948 3.738m0-1.652c.98 0 1.764-.784 1.764-2.1 0-1.288-.77-2.016-1.764-2.016s-1.764.742-1.764 2.016c0 1.316.784 2.1 1.764 2.1M132.895 121v-10.08h2.1v4.172c.504-.84 1.344-1.372 2.52-1.372 1.582 0 2.45.952 2.45 2.45V121h-2.1v-4.424c0-.784-.406-1.176-1.176-1.176-.994 0-1.694.714-1.694 1.764V121zm-11.045 0v-1.68c3.696-3.01 4.83-4.2 4.83-5.586 0-.812-.462-1.302-1.246-1.302-.826 0-1.4.532-1.526 1.414h-2.156c.21-1.904 1.638-3.066 3.766-3.066 2.156 0 3.444 1.176 3.444 3.15 0 1.736-.924 3.024-3.92 5.418h4.116V121z"/></g><defs><filter id="a" width="142" height="64" x="89" y="96" color-interpolation-filters="sRGB" filterUnits="userSpaceOnUse"><feFlood flood-opacity="0" result="BackgroundImageFix"/><feColorMatrix in="SourceAlpha" result="hardAlpha" values="0 0 0 0 0 0 0 0 0 0 0 0 0 0 0 0 0 0 127 0"/><feOffset dy="12"/><feGaussianBlur stdDeviation="10"/><feComposite in2="hardAlpha" operator="out"/><feColorMatrix values="0 0 0 0 0 0 0 0 0 0 0 0 0 0 0 0 0 0 0.03 0"/><feBlend in2="BackgroundImageFix" result="effect1_dropShadow_10060_19502"/><feColorMatrix in="SourceAlpha" result="hardAlpha" values="0 0 0 0 0 0 0 0 0 0 0 0 0 0 0 0 0 0 127 0"/><feOffset dy="2"/><feGaussianBlur stdDeviation="3"/><feComposite in2="hardAlpha" operator="out"/><feColorMatrix values="0 0 0 0 0 0 0 0 0 0 0 0 0 0 0 0 0 0 0.05 0"/><feBlend in2="effect1_dropShadow_10060_19502" result="effect2_dropShadow_10060_19502"/><feBlend in="SourceGraphic" in2="effect2_dropShadow_10060_19502" result="shape"/></filter></defs></svg>