<svg width="320" height="232" viewBox="0 0 320 232" fill="none" xmlns="https://www.w3.org/2000/svg">
<g filter="url(#filter0_dd_10060_19637)">
<rect x="157" y="84" width="6" height="20" rx="3" fill="#AA99EC"/>
<rect opacity="0.56" x="128" y="119" width="6" height="20" rx="3" transform="rotate(-90 128 119)" fill="#AA99EC"/>
<rect opacity="0.72" x="157" y="128" width="6" height="20" rx="3" fill="#AA99EC"/>
<rect opacity="0.88" x="172" y="119" width="6" height="20" rx="3" transform="rotate(-90 172 119)" fill="#AA99EC"/>
<rect opacity="0.96" x="180.506" y="91.2512" width="6" height="20" rx="3" transform="rotate(45 180.506 91.2512)" fill="#AA99EC"/>
<rect opacity="0.48" x="135.251" y="95.4939" width="6" height="20" rx="3" transform="rotate(-45 135.251 95.4939)" fill="#AA99EC"/>
<rect opacity="0.64" x="149.393" y="122.364" width="6" height="20" rx="3" transform="rotate(45 149.393 122.364)" fill="#AA99EC"/>
<rect opacity="0.8" x="166.364" y="126.607" width="6" height="20" rx="3" transform="rotate(-45 166.364 126.607)" fill="#AA99EC"/>
</g>
<defs>
<filter id="filter0_dd_10060_19637" x="108" y="76" width="104" height="104" filterUnits="userSpaceOnUse" color-interpolation-filters="sRGB">
<feFlood flood-opacity="0" result="BackgroundImageFix"/>
<feColorMatrix in="SourceAlpha" type="matrix" values="0 0 0 0 0 0 0 0 0 0 0 0 0 0 0 0 0 0 127 0" result="hardAlpha"/>
<feOffset dy="12"/>
<feGaussianBlur stdDeviation="10"/>
<feComposite in2="hardAlpha" operator="out"/>
<feColorMatrix type="matrix" values="0 0 0 0 0 0 0 0 0 0 0 0 0 0 0 0 0 0 0.03 0"/>
<feBlend mode="normal" in2="BackgroundImageFix" result="effect1_dropShadow_10060_19637"/>
<feColorMatrix in="SourceAlpha" type="matrix" values="0 0 0 0 0 0 0 0 0 0 0 0 0 0 0 0 0 0 127 0" result="hardAlpha"/>
<feOffset dy="2"/>
<feGaussianBlur stdDeviation="3"/>
<feComposite in2="hardAlpha" operator="out"/>
<feColorMatrix type="matrix" values="0 0 0 0 0 0 0 0 0 0 0 0 0 0 0 0 0 0 0.05 0"/>
<feBlend mode="normal" in2="effect1_dropShadow_10060_19637" result="effect2_dropShadow_10060_19637"/>
<feBlend mode="normal" in="SourceGraphic" in2="effect2_dropShadow_10060_19637" result="shape"/>
</filter>
</defs>
</svg>
