<?xml version="1.0" encoding="UTF-8" standalone="no"?>
<svg
   width="320"
   height="232"
   stroke="#777777"
   fill-opacity="0.8"
   version="1.1"
   id="svg6"
   xmlns="http://www.w3.org/2000/svg"
   xmlns:svg="http://www.w3.org/2000/svg">
  <defs
     id="defs6" />
  <path
     fill="#ffffff"
     d="m 159.24138,68.241377 a 47.79288,47.79288 0 1 0 1.51724,0 z m 0,10.62064 a 37.17224,37.17224 0 1 0 1.51724,0 z m 0,10.62064 a 26.5516,26.5516 0 1 0 1.51724,0 z m 0,10.620643 a 15.93096,15.93096 0 1 0 1.51724,0 z m 0,10.62064 a 5.31032,5.31032 0 1 0 1.51724,0 z m 48.5515,5.31032 h -95.58576 m 81.93065,-34.137775 -68.27554,68.275545 m 68.27554,0 -68.27554,-68.275545 M 160,68.241377 v 95.585763"
     id="path1"
     style="stroke-width:0.758617" />
  <path
     fill="#ff6600"
     d="m 145.59062,77.296063 -15.17235,7.586172 51.58597,69.792775 7.58617,-7.58617 -33.37915,-27.31021 z"
     id="path2"
     style="stroke-width:0.758617" />
  <path
     fill="#ffcc00"
     d="m 141.69781,105.37936 v 21.24128 L 177.35281,116 Z"
     id="path3"
     style="stroke-width:0.758617" />
  <path
     fill="#77ff77"
     d="m 160,102.56659 4.5517,26.5516 h -9.1034 z"
     id="path4"
     style="stroke-width:0.758617" />
  <path
     fill="#ccff33"
     d="m 151.56847,131.34903 9.86203,-30.34468 6.82755,3.79308 z"
     id="path5"
     style="stroke-width:0.758617" />
  <path
     fill="#0044ff"
     d="m 164.22499,111.82519 10.62064,-4.5517 0.75862,3.03447 z m 0,0 -19.72405,9.86202 2.27586,3.03447 z"
     id="path6"
     style="stroke-width:0.758617" />
</svg>
