<svg xmlns="http://www.w3.org/2000/svg" width="320" height="232" fill="none" viewBox="0 0 320 232"><path fill="#5F43D0" fill-rule="evenodd" d="M165.118 103.222a1 1 0 0 0 .104 1.411l1.84 1.585c.366.316.587.508.728.657-.141.149-.362.341-.728.657l-1.84 1.586a1 1 0 0 0 1.306 1.515l1.84-1.586.043-.038c.349-.3.684-.589.923-.859.262-.296.541-.713.541-1.275s-.279-.979-.541-1.275c-.239-.27-.574-.558-.923-.859l-.043-.038-1.84-1.585a1 1 0 0 0-1.41.104m-2.486 0a1 1 0 0 1-.104 1.411l-1.84 1.585c-.366.316-.587.508-.728.657.141.149.362.341.728.657l1.84 1.586a1 1 0 0 1-1.306 1.515l-1.84-1.586-.043-.038c-.349-.3-.684-.589-.923-.859-.262-.296-.541-.713-.541-1.275s.279-.979.541-1.275c.239-.27.574-.558.923-.859l.043-.038 1.84-1.585a1 1 0 0 1 1.41.104" clip-rule="evenodd"/><path fill="#5F43D0" d="M154.812 110.522c.982.103.545.103 2.086.103a.978.978 0 0 0 0-1.955c-1.609 0-1.015-.001-1.885-.092-.854-.089-1.337-.256-1.695-.509a3 3 0 0 1-.632-.596c-.255-.323-.425-.755-.517-1.542-.095-.81-.097-1.867-.097-3.391v-2.9c0-.267 0-.906.281-1.378.173-.29.394-.534.622-.658a2.6 2.6 0 0 1 1.233-.312l1.041.036c.38.008.823-.004 1.251-.119a2.42 2.42 0 0 0 1.709-1.709c.115-.428.127-.871.119-1.251l-.036-1.04c0-.469.124-.876.341-1.254.127-.22.348-.423.653-.6.462-.269 1.015-.271 1.353-.273l.993-.002c1.834 0 2.501.014 3.005.19.872.308 1.538.95 1.848 1.735.078.197.133.455.162.903.03.457.031 1.04.031 1.88v5.113a.974.974 0 1 0 1.947 0v-5.146c0-.8 0-1.447-.035-1.975-.036-.545-.111-1.03-.294-1.495-.529-1.34-1.638-2.373-3.014-2.858-.859-.303-2.331-.303-3.886-.302-2.84 0-4.526 0-5.909.487-2.22.782-3.994 2.444-4.837 4.58-.281.712-.406 1.477-.466 2.394-.059.9-.059 2.013-.059 3.432v2.583c0 1.448 0 2.621.11 3.558.114.974.357 1.812.927 2.531.295.372.644.701 1.034.977.745.527 1.606.75 2.616.855" opacity=".4"/><path fill="#5F43D0" d="m114.342 137.104-7.168-3.376v-2l7.168-3.376v1.84l-4.64 2.144a8 8 0 0 1-.64.256 4 4 0 0 1-.48.128q.175.032.496.128.32.096.624.24l4.64 2.144zm1.801.896v-11.68h2v2.88l-.048 1.68h.544l-.544.464q0-1.088.624-1.696.64-.608 1.744-.608 1.296 0 2.064.864.784.864.784 2.32V138h-2v-5.568q0-.8-.416-1.232-.415-.432-1.168-.432-.735 0-1.168.448-.416.448-.416 1.28V138zm13.482 0q-1.264 0-1.984-.704-.704-.704-.704-1.936v-4.352h-2.384V129.2h2.384v-2.48h2.016v2.48h3.376v1.808h-3.376v4.352q0 .832.816.832h2.4V138zm4.026 0v-8.8h1.632v1.184h.336l-.272.288q0-.736.416-1.184.415-.448 1.072-.448.704 0 1.088.576.4.576.4 1.552l-.352-.784h.544l-.208.288q0-.736.416-1.184t1.104-.448q.816 0 1.296.608t.48 1.648V138h-1.76v-6.624q0-.432-.192-.672-.192-.256-.56-.256a.7.7 0 0 0-.56.24q-.192.24-.192.688V138h-1.44v-6.624q0-.448-.192-.688t-.56-.24-.56.24q-.176.24-.176.688V138zm14.265 0q-.863 0-1.52-.352a2.6 2.6 0 0 1-1.008-.992q-.368-.656-.368-1.504v-7.024h-2.816v-1.808h4.816v8.832q0 .48.272.768.288.272.768.272h2.656V138zm7.61.16q-.687 0-1.104-.4-.4-.4-.4-1.088t.4-1.088q.417-.416 1.104-.416.689 0 1.088.416.417.4.416 1.088 0 .688-.416 1.088-.4.4-1.088.4m8.97 0q-1.12 0-1.952-.432a3.2 3.2 0 0 1-1.296-1.2q-.448-.785-.448-1.824v-2.208q0-1.04.448-1.808a3.16 3.16 0 0 1 1.296-1.216q.832-.432 1.952-.432 1.104 0 1.92.432.832.432 1.28 1.216.464.768.464 1.808v1.584h-5.424v.624q0 .928.448 1.408.448.464 1.328.464.672 0 1.088-.224a1.07 1.07 0 0 0 .528-.688h1.968q-.224 1.136-1.216 1.824-.976.672-2.384.672m1.728-5.2v-.48q0-.912-.432-1.392-.432-.496-1.296-.496t-1.312.496-.448 1.408v.336l3.632-.032zm3.242 5.04v-8.8h1.632v1.184h.336l-.272.288q0-.736.416-1.184.415-.448 1.072-.448.704 0 1.088.576.4.576.4 1.552l-.352-.784h.544l-.208.288q0-.736.416-1.184.415-.448 1.104-.448.816 0 1.296.608t.48 1.648V138h-1.76v-6.624q0-.432-.192-.672-.192-.256-.56-.256a.7.7 0 0 0-.56.24q-.192.24-.192.688V138h-1.44v-6.624q0-.448-.192-.688t-.56-.24-.56.24q-.176.24-.176.688V138zm13.673.16q-1.087 0-1.728-.608-.64-.624-.64-1.696l.448.464h-.448V138h-1.952v-11.68h2v2.464l-.064 2.096h.464l-.448.464q0-1.072.64-1.68.64-.624 1.728-.624 1.329 0 2.128.912t.8 2.464v2.384q0 1.536-.8 2.448t-2.128.912m-.704-1.728q.768 0 1.2-.448t.432-1.28v-2.208q0-.832-.432-1.28t-1.2-.448q-.752 0-1.184.464-.432.448-.432 1.264v2.208q0 .816.432 1.28.432.448 1.184.448m8.922 1.728q-1.12 0-1.952-.432a3.2 3.2 0 0 1-1.296-1.2q-.448-.785-.448-1.824v-2.208q0-1.04.448-1.808.465-.784 1.296-1.216.833-.432 1.952-.432 1.104 0 1.92.432.833.432 1.28 1.216.465.768.464 1.808v1.584h-5.424v.624q0 .928.448 1.408.449.464 1.328.464.672 0 1.088-.224.417-.24.528-.688h1.968q-.223 1.136-1.216 1.824-.975.672-2.384.672m1.728-5.2v-.48q0-.912-.432-1.392-.432-.496-1.296-.496t-1.312.496q-.447.496-.448 1.408v.336l3.632-.032zm6.458 5.2q-1.312 0-2.128-.912-.8-.912-.8-2.448v-2.384q0-1.552.8-2.464t2.128-.912q1.087 0 1.728.624.64.608.64 1.68l-.448-.464h.464l-.064-2.096v-2.464h2V138h-1.952v-1.68h-.448l.448-.464q0 1.072-.64 1.696-.64.608-1.728.608m.704-1.728q.768 0 1.184-.448.432-.464.432-1.28v-2.208q0-.816-.432-1.264-.416-.464-1.184-.464t-1.2.448-.432 1.28v2.208q0 .832.432 1.28t1.2.448m5.418.672v-1.84l4.64-2.144q.32-.144.624-.24.32-.112.496-.144a8 8 0 0 1-.496-.112 4.4 4.4 0 0 1-.624-.24l-4.64-2.16v-1.872l7.168 3.376v2z"/></svg>