<svg xmlns="http://www.w3.org/2000/svg" width="76" height="88" viewBox="0 0 76 88" fill="none">
  <g filter="url(#filter0_b_10988_5614)">
    <path fill-rule="evenodd" clip-rule="evenodd" d="M32.4084 5.10012C35.4254 2.07084 36.9339 0.556172 38.7296 0.153151C39.6394 -0.0510504 40.5829 -0.0510504 41.4927 0.153151C43.2885 0.556172 44.7969 2.07084 47.8139 5.10012L52.7779 10.0843L47.8139 15.0685C44.7969 18.0978 43.2885 19.6125 41.4927 20.0155C40.5829 20.2197 39.6394 20.2197 38.7296 20.0155C36.9339 19.6125 35.4254 18.0978 32.4084 15.0685L27.4445 10.0843L32.4084 5.10012ZM15.919 13.1779C13.4048 15.7024 12.1477 16.9646 10.6513 17.3004C9.89313 17.4706 9.10689 17.4706 8.34872 17.3004C6.8523 16.9646 5.59522 15.7024 3.08105 13.1779L0 10.0843L3.08102 6.9907C5.59516 4.46627 6.85225 3.20406 8.34867 2.86819C9.10689 2.69807 9.89313 2.69807 10.6513 2.86819C12.1477 3.20406 13.4048 4.46627 15.919 6.9907L19 10.0843L15.919 13.1779ZM4.7785 41.3217C7.04128 39.0498 8.17265 37.9137 9.51939 37.6115C10.2018 37.4583 10.9094 37.4583 11.5918 37.6115C12.9385 37.9137 14.0699 39.0497 16.3326 41.3217L19 44L16.3327 46.6782C14.0699 48.9502 12.9386 50.0865 11.5918 50.3884C10.9094 50.5418 10.2018 50.5418 9.51939 50.3884C8.17265 50.0865 7.04128 48.9502 4.77852 46.6782L2.11111 44L4.7785 41.3217ZM10.6513 85.132C12.1477 84.796 13.4048 83.5337 15.919 81.0092L19 77.9155L15.919 74.8219C13.4048 72.2979 12.1477 71.0357 10.6513 70.6996C9.89313 70.5294 9.10689 70.5294 8.34867 70.6996C6.85225 71.0357 5.59516 72.2979 3.08102 74.8219L0 77.9155L3.08105 81.0092C5.59522 83.5337 6.8523 84.796 8.34872 85.132C9.10689 85.3022 9.89313 85.3022 10.6513 85.132ZM15.5195 32.0263C18.5365 35.0557 20.045 36.5703 21.8407 36.9734C22.7505 37.1775 23.694 37.1775 24.6038 36.9734C26.3996 36.5703 27.908 35.0557 30.925 32.0263L35.889 27.0421L30.925 22.058C27.9081 19.0287 26.3996 17.514 24.6038 17.111C23.694 16.9068 22.7505 16.9068 21.8407 17.111C20.045 17.514 18.5365 19.0287 15.5195 22.058L10.5555 27.0421L15.5195 32.0263ZM21.8407 70.8893C20.045 70.4861 18.5365 68.9713 15.5195 65.9421L10.5555 60.9581L15.5195 55.9735C18.5365 52.9444 20.045 51.4296 21.8407 51.0269C22.7505 50.8225 23.694 50.8225 24.6038 51.0269C26.3995 51.4296 27.908 52.9444 30.925 55.9735L35.889 60.9581L30.925 65.9421C27.908 68.9713 26.3996 70.4861 24.6038 70.8893C23.694 71.0931 22.7505 71.0931 21.8407 70.8893ZM32.4085 39.0158L27.4445 44L32.4084 48.9842C35.4254 52.0138 36.9339 53.5281 38.7296 53.9313C39.6394 54.1357 40.5829 54.1357 41.4927 53.9313C43.2885 53.5281 44.7969 52.0138 47.8139 48.9842L52.7779 44L47.8139 39.0158C44.7969 35.9865 43.2885 34.4719 41.4927 34.0688C40.5829 33.8646 39.6394 33.8646 38.7296 34.0688C36.9339 34.4719 35.4254 35.9865 32.4085 39.0158ZM32.4084 72.9315C35.4254 69.9024 36.9339 68.3875 38.7296 67.9849C39.6394 67.7805 40.5829 67.7805 41.4927 67.9849C43.2885 68.3875 44.7969 69.9024 47.8139 72.9315L52.7779 77.9155L47.8139 82.9001C44.7969 85.9292 43.2885 87.4441 41.4927 87.8468C40.5829 88.0511 39.6394 88.0511 38.7296 87.8468C36.9339 87.4441 35.4254 85.9292 32.4084 82.9001L27.4445 77.9155L32.4084 72.9315ZM51.1803 54.0831L44.3334 60.9581L51.1803 67.8326C54.6999 71.3668 56.4601 73.1342 58.555 73.6041C59.6162 73.8426 60.7173 73.8426 61.7785 73.6041C63.8734 73.1342 65.6336 71.3668 69.1535 67.8326L76 60.9581L69.1535 54.0831C65.6336 50.5489 63.8734 48.7818 61.7785 48.3116C60.7173 48.0734 59.6162 48.0734 58.555 48.3116C56.4601 48.7818 54.6999 50.5489 51.1803 54.0831ZM51.1802 20.1674C54.6999 16.6333 56.4601 14.8661 58.555 14.3959C59.6162 14.1577 60.7173 14.1577 61.7785 14.3959C63.8734 14.8661 65.6336 16.6332 69.1535 20.1674L76 27.0422L69.1535 33.9169C65.6336 37.4511 63.8734 39.2182 61.7785 39.6884C60.7173 39.9266 59.6162 39.9266 58.555 39.6884C56.4601 39.2182 54.6999 37.4511 51.1803 33.9169L44.3334 27.0421L51.1802 20.1674Z" fill="#F9F9FB" fill-opacity="0.48"/>
  </g>
  <g filter="url(#filter1_b_10988_5614)">
    <path fill-rule="evenodd" clip-rule="evenodd" d="M52.1574 10.7074L52.1549 10.7049L52.0694 10.79L51.4489 10.167L51.5318 10.0844L51.4489 10.0017L52.0694 9.3787L52.1549 9.46387L52.1574 9.46134L52.7777 10.0841L52.1574 10.7074ZM50.9164 8.21529L50.2079 8.92096L48.9669 7.67491L49.6754 6.96924L50.9164 8.21529ZM48.4344 5.72319L47.7259 6.42886L47.1054 5.80583M46.7425 4.73369L46.3888 5.08713C46.6178 5.31621 46.8561 5.55548 47.1054 5.80583M46.7425 4.73369L47.0962 4.38025C47.3257 4.60989 47.5644 4.84963 47.8135 5.09969L48.4344 5.72319M45.6499 2.95552L44.9575 3.67706C44.4144 3.15585 43.9409 2.72523 43.5084 2.37169L44.1414 1.5975C44.6028 1.97477 45.0977 2.42565 45.6499 2.95552ZM36.081 1.5975L36.7139 2.37169C36.2815 2.72523 35.808 3.15585 35.2648 3.67706L34.5725 2.95552C35.1246 2.42565 35.6195 1.97477 36.081 1.5975ZM33.1262 4.38025L33.8335 5.08713C33.6046 5.31621 33.3663 5.55548 33.1169 5.80583L32.4965 6.42886L31.7879 5.72319L32.4084 5.10016C32.6574 4.85011 32.8967 4.60989 33.1262 4.38025ZM30.5469 6.96924L31.2555 7.67491L30.0145 8.92096L29.3059 8.21529L30.5469 6.96924ZM28.0649 9.46134L28.0675 9.46387L28.153 9.3787L28.7735 10.0017L28.6905 10.0844L28.7735 10.167L28.153 10.79L28.0675 10.7049L28.0649 10.7074L27.4445 10.0844L28.0649 9.46134ZM29.3059 11.9534L30.0145 11.2478L31.2555 12.4938L30.5469 13.1995L29.3059 11.9534ZM31.7879 14.4455L32.4965 13.7399L33.1169 14.3629C33.3663 14.6133 33.6046 14.8525 33.8335 15.0816L33.1262 15.7885C32.8967 15.5589 32.6579 15.3191 32.4089 15.0691L31.7879 14.4455ZM34.5725 17.2132L35.2648 16.4917C35.808 17.0129 36.2815 17.4435 36.7139 17.797L36.081 18.5712C35.6195 18.194 35.1246 17.7431 34.5725 17.2132ZM37.772 19.685L38.1956 18.7792C38.4514 18.8988 38.6987 18.9837 38.9486 19.0398C39.1397 19.0827 39.3326 19.1149 39.5264 19.1364L39.4162 20.1303C39.1859 20.1048 38.9567 20.0665 38.7296 20.0155C38.4045 19.9426 38.0889 19.8332 37.772 19.685ZM40.8062 20.1303L40.696 19.1364C40.8897 19.1149 41.0826 19.0827 41.2737 19.0398C41.5237 18.9837 41.7709 18.8988 42.0267 18.7792L42.4503 19.685C42.1335 19.8332 41.8178 19.9426 41.4927 20.0155C41.2656 20.0665 41.0364 20.1048 40.8062 20.1303ZM44.1414 18.5712L43.5084 17.797C43.9409 17.4435 44.4144 17.0129 44.9575 16.4917L45.6499 17.2132C45.0977 17.7431 44.6028 18.194 44.1414 18.5712ZM47.0962 15.7885L46.3888 15.0816C46.6178 14.8525 46.8561 14.6133 47.1054 14.3629M48.0802 14.0927L47.7259 13.7399L47.1054 14.3629M48.0802 14.0927L48.4344 14.4455L47.8139 15.0686C47.5649 15.3186 47.3256 15.5589 47.0962 15.7885M49.6754 13.1995L48.9669 12.4938L50.2079 11.2478L50.9164 11.9534L49.6754 13.1995ZM37.772 0.483739L38.1956 1.38957C38.4514 1.26995 38.6987 1.18502 38.9486 1.12893C39.1397 1.08603 39.3326 1.05384 39.5263 1.03236L39.4162 0.0384524C39.1859 0.0639775 38.9567 0.102226 38.7296 0.153197C38.4045 0.226153 38.0889 0.335537 37.772 0.483739ZM40.8062 0.0384521L40.696 1.03236C40.8898 1.05384 41.0826 1.08603 41.2737 1.12892C41.5237 1.18502 41.7709 1.26995 42.0267 1.38957L42.4503 0.483738C42.1335 0.335537 41.8178 0.226153 41.4927 0.153197C41.2656 0.102226 41.0364 0.0639773 40.8062 0.0384521ZM18.3332 44.6696L18.3305 44.6669L18.2915 44.7057L17.6246 44.0361L17.6609 44L17.6246 43.964L18.2915 43.2944L18.3304 43.3332L18.3332 43.3305L19 44.0001L18.3332 44.6696ZM16.9995 41.9913L16.2909 42.697L15.6241 42.0274M15.4406 41.1352L15.087 41.4887C15.2585 41.6603 15.437 41.8396 15.6241 42.0274M15.4406 41.1352L15.7943 40.7818C15.9664 40.9541 16.1456 41.1339 16.3324 41.3215L16.9995 41.9913M14.7096 39.7132L14.0172 40.4348C13.6121 40.0461 13.2623 39.7282 12.9453 39.4689L13.5782 38.6948C13.9243 38.9777 14.2954 39.3159 14.7096 39.7132ZM7.53293 38.6948L8.16588 39.469C7.84882 39.7282 7.49904 40.0461 7.09391 40.4348L6.40155 39.7133C6.81569 39.3159 7.18683 38.9777 7.53293 38.6948ZM5.31685 40.7818L6.02417 41.4887C5.85345 41.6595 5.67573 41.838 5.48964 42.0248L5.48704 42.0274M4.46593 42.3442L4.8202 42.697L5.48704 42.0274M4.46593 42.3442L4.11165 41.9913L4.7785 41.3218C4.9652 41.1343 5.1448 40.954 5.31685 40.7818M2.77796 43.3304L2.78068 43.3332L2.81966 43.2943L3.48651 43.9639L3.45026 44L3.4865 44.0361L2.81966 44.7057L2.78069 44.6669L2.77797 44.6696L2.11111 44L2.77796 43.3304ZM4.11167 46.0087L4.82022 45.3031L5.49168 45.9773C5.67704 46.1634 5.85409 46.3411 6.0242 46.5114L5.31686 47.2182C5.14529 47.0466 4.96682 46.8674 4.78069 46.6805L4.11167 46.0087ZM6.40153 48.2868L7.09392 47.5653C7.49904 47.9541 7.8488 48.272 8.16585 48.5312L7.53288 49.3054C7.18679 49.0224 6.81566 48.6842 6.40153 48.2868ZM12.31 50.1407L11.8865 49.2348C11.7099 49.3174 11.5417 49.3749 11.373 49.4127C11.2387 49.4429 11.1026 49.4657 10.9665 49.4808L11.0768 50.4747C11.2495 50.4555 11.4214 50.4268 11.5918 50.3885C11.8356 50.3338 12.0723 50.2518 12.31 50.1407ZM13.5783 49.3054L12.9453 48.5312C13.2624 48.272 13.6121 47.9541 14.0173 47.5653L14.7097 48.2868C14.2955 48.6842 13.9244 49.0224 13.5783 49.3054ZM15.7943 47.2182L15.087 46.5114C15.2585 46.3397 15.4371 46.1604 15.6241 45.9726L16.291 45.3031L16.9995 46.0087L16.3305 46.6804C16.1444 46.8673 15.9659 47.0465 15.7943 47.2182ZM10.0343 50.4747L10.1446 49.4808C10.0085 49.4657 9.87299 49.443 9.73869 49.4128C9.57007 49.375 9.40125 49.3174 9.22471 49.2348L8.80114 50.1407C9.03883 50.2518 9.27558 50.3338 9.51939 50.3885C9.68972 50.4268 9.86162 50.4555 10.0343 50.4747ZM8.80119 37.8594L9.22484 38.7653C9.40141 38.6827 9.56971 38.6251 9.73838 38.5873C9.87273 38.5571 10.0083 38.5345 10.1445 38.5194L10.0343 37.5255C9.86162 37.5446 9.68972 37.5733 9.51939 37.6115C9.2756 37.6663 9.03886 37.7483 8.80119 37.8594ZM11.0768 37.5255L10.9666 38.5194C11.1028 38.5345 11.2384 38.5571 11.3728 38.5873C11.5414 38.6251 11.7097 38.6827 11.8863 38.7653L12.31 37.8594C12.0723 37.7483 11.8356 37.6663 11.5918 37.6115C11.4214 37.5733 11.2495 37.5446 11.0768 37.5255ZM18.2298 78.689L17.5212 77.9833L17.5887 77.9156L17.5212 77.8478L18.2298 77.1422L18.9997 77.9152L18.2298 78.689ZM16.6892 75.5954L15.9807 76.301L15.2105 75.5277L15.2076 75.5248C15.0008 75.3172 14.8033 75.1189 14.6135 74.929L15.3208 74.2221C15.5116 74.413 15.7101 74.6123 15.9172 74.8202L16.6892 75.5954ZM14.1155 73.0349L13.4232 73.7565C12.972 73.3236 12.581 72.9682 12.2255 72.6775L12.8584 71.9033C13.243 72.2177 13.6554 72.5934 14.1155 73.0349ZM11.4493 70.9752C11.1852 70.8517 10.9222 70.7605 10.6513 70.6997C10.4621 70.6572 10.271 70.6253 10.0792 70.604L9.96898 71.598C10.1243 71.6152 10.279 71.641 10.4322 71.6754C10.628 71.7193 10.8226 71.7861 11.0256 71.881L11.4493 70.9752ZM8.9208 70.604L9.031 71.598C8.87562 71.6152 8.72095 71.641 8.56767 71.6754C8.37193 71.7194 8.17734 71.7861 7.97439 71.881L7.76255 71.4281M8.9208 70.604C8.72893 70.6253 8.53793 70.6572 8.34867 70.6997C8.0778 70.7605 7.81477 70.8517 7.5507 70.9752M35.2685 27.6652L35.266 27.6627L35.1804 27.7479L34.56 27.1248L34.6429 27.0422L34.56 26.9595L35.1804 26.3365L35.266 26.4217L35.2685 26.4192L35.8888 27.0419L35.2685 27.6652ZM34.0275 25.1731L32.7865 23.9271L32.078 24.6328L33.319 25.8788L34.0275 25.1731ZM28.761 19.9134L28.0686 20.6349C27.5255 20.1137 27.052 19.6831 26.6195 19.3295L27.2525 18.5553C27.7139 18.9326 28.2088 19.3835 28.761 19.9134ZM25.5614 17.4416L25.1378 18.3474C24.882 18.2278 24.6348 18.1428 24.3849 18.0868L23.7959 17.9359L23.9173 16.9963C24.1475 17.0218 24.3767 17.0601 24.6038 17.111C24.9289 17.184 25.2445 17.2934 25.5614 17.4416ZM22.5273 16.9963C22.297 17.0218 22.0678 17.0601 21.8407 17.111C21.5156 17.184 21.2 17.2934 20.8831 17.4416M30.2073 21.3381L29.4999 22.045C29.7289 22.2741 29.9672 22.5133 30.2165 22.7637L30.837 23.3867L31.5455 22.6811L30.925 22.058C30.676 21.8079 30.4368 21.5678 30.2073 21.3381ZM24.6038 36.9734C24.9289 36.9004 25.2445 36.7911 25.5614 36.6428L25.1378 35.737C24.882 35.8566 24.6348 35.9416 24.3849 35.9977M27.2525 35.5291L26.6195 34.7549C27.052 34.4014 27.5254 33.9707 28.0686 33.4495L28.761 34.1711C28.2088 34.7009 27.7139 35.1518 27.2525 35.5291ZM30.2073 32.7463L29.4999 32.0394C29.7289 31.8104 29.9672 31.5711 30.2165 31.3207L30.837 30.6977L31.5455 31.4034L30.925 32.0264C30.6758 32.2766 30.4369 32.5165 30.2073 32.7463ZM32.7865 30.1573L32.078 29.4516L33.319 28.2056L34.0275 28.9113L32.7865 30.1573ZM20.8831 70.5587C21.2 70.707 21.5157 70.8164 21.8407 70.8894C22.0678 70.9402 22.297 70.9784 22.5273 71.0039L22.6372 70.0099C22.4434 69.9885 22.2505 69.9564 22.0593 69.9135C21.8095 69.8574 21.5624 69.7725 21.3068 69.6529L20.8831 70.5587ZM27.2524 69.4449L26.6194 68.6707C27.0519 68.3171 27.5254 67.8865 28.0686 67.3653L28.7609 68.0868C28.2087 68.6167 27.7139 69.0676 27.2524 69.4449ZM30.2072 66.6621L29.4999 65.9552C29.7266 65.7284 29.9625 65.4916 30.2091 65.2439L30.2165 65.2365M31.1913 64.9663L30.837 64.6135L30.2165 65.2365M30.2072 66.6621C30.4362 66.4329 30.6745 66.1938 30.9229 65.9443L30.925 65.9422L31.5455 65.3192L31.1913 64.9663M32.7865 64.0732L32.078 63.3675L33.319 62.1215L34.0275 62.8272L32.7865 64.0732ZM35.2685 61.5812L35.2659 61.5786L35.1804 61.6638L34.5599 61.0407L34.6429 60.9581L34.56 60.8755L35.1805 60.2525L35.2659 60.3376L35.2685 60.3351L35.889 60.9581L35.2685 61.5812ZM34.0275 59.0889L33.3189 59.7946L32.0779 58.5484L32.7865 57.8428L34.0275 59.0889ZM31.5455 56.5966L30.8369 57.3023L30.2165 56.6792C29.9673 56.4291 29.7287 56.1895 29.4999 55.9606L30.2072 55.2537C30.4364 55.483 30.6748 55.7223 30.9234 55.972L31.5455 56.5966ZM28.761 53.829L28.0686 54.5505C27.5254 54.0294 27.052 53.5987 26.6195 53.2452L27.2525 52.471C27.7139 52.8483 28.2088 53.2992 28.761 53.829ZM22.5273 50.9121C22.297 50.9376 22.0678 50.9759 21.8407 51.0269C21.5156 51.0998 21.2 51.2092 20.8831 51.3573L21.3066 52.2632C21.5624 52.1436 21.8096 52.0587 22.0595 52.0027C22.2506 51.9598 22.4438 51.9275 22.6375 51.906L22.5273 50.9121ZM19.192 52.471L19.825 53.2452C19.3925 53.5987 18.9191 54.0293 18.3759 54.5505L17.6835 53.829C18.2357 53.2991 18.7306 52.8483 19.192 52.471ZM16.2373 55.2537L16.9446 55.9606C16.7164 56.1889 16.4788 56.4274 16.2303 56.6769L16.2281 56.6792L15.6076 57.3023L14.899 56.5966L15.5211 55.972C15.7697 55.7223 16.0081 55.483 16.2373 55.2537ZM13.658 57.8428L14.3666 58.5484L13.1256 59.7946L12.417 59.0889L13.658 57.8428ZM11.176 60.3351L11.1786 60.3376L11.2641 60.2525L11.8846 60.8755L11.8016 60.9581L11.8846 61.0407L11.2641 61.6638L11.1786 61.5786L11.176 61.5812L10.5558 60.9584L11.176 60.3351ZM12.417 62.8272L13.1256 62.1215L14.3665 63.3675L13.658 64.0732L12.417 62.8272ZM14.899 65.3192L15.6075 64.6135L16.2338 65.2423C16.481 65.4905 16.7174 65.7279 16.9446 65.9552L16.2373 66.6621C16.0081 66.4328 15.7697 66.1934 15.5211 65.9438L15.5195 65.9422L14.899 65.3192ZM17.6836 68.0868L18.376 67.3653C18.9191 67.8865 19.3926 68.3171 19.8251 68.6707L19.1921 69.4449C18.7306 69.0676 18.2358 68.6167 17.6836 68.0868ZM23.9173 50.9121L23.807 51.906C24.0008 51.9275 24.1936 51.9597 24.3847 52.0026C24.6346 52.0587 24.8821 52.1436 25.1379 52.2632L25.5615 51.3573C25.2446 51.2092 24.9289 51.0998 24.6038 51.0269C24.3767 50.9759 24.1475 50.9376 23.9173 50.9121ZM25.5614 70.5587L25.1377 69.6529C24.8821 69.7725 24.635 69.8574 24.3853 69.9135C24.1941 69.9564 24.0011 69.9885 23.8073 70.0099L23.9173 71.0039C24.1475 70.9784 24.3767 70.9402 24.6038 70.8894C24.9289 70.8164 25.2445 70.707 25.5614 70.5587ZM28.065 43.377L27.4445 44L28.0649 44.623L28.0675 44.6205L28.153 44.7057L28.7735 44.0826L28.6905 44L28.7735 43.9174L28.153 43.2943L28.0675 43.3795L28.065 43.377ZM29.3059 45.8691L30.0145 45.1634L31.2555 46.4095L30.5469 47.1151L29.3059 45.8691ZM52.1574 44.623L52.1549 44.6205L52.0694 44.7057L51.4489 44.0827L51.5318 44L51.4489 43.9174L52.0694 43.2943L52.1549 43.3795L52.1574 43.377L52.7777 43.9998L52.1574 44.623ZM50.9164 42.1309L49.6754 40.8849L48.9669 41.5906L50.2079 42.8366L50.9164 42.1309ZM48.4344 39.6389L47.7259 40.3445L47.1054 39.7215C46.8561 39.4712 46.6178 39.2319 46.3888 39.0028L47.0962 38.2959C47.3258 38.5257 47.5647 38.7656 47.8139 39.0159L48.4344 39.6389ZM45.6499 36.8712C45.0977 36.3413 44.6028 35.8904 44.1414 35.5132L43.5084 36.2873C43.9409 36.6409 44.4144 37.0715 44.9575 37.5927L45.6499 36.8712ZM42.4503 34.3994L42.0267 35.3052C41.7709 35.1856 41.5237 35.1007 41.2738 35.0446L41.3832 34.5567C41.1741 34.5098 40.9631 34.4746 40.7511 34.4511L40.8062 33.9541C41.0364 33.9796 41.2656 34.0179 41.4927 34.0688C41.8178 34.1418 42.1335 34.2512 42.4503 34.3994ZM39.4162 33.9541L39.5263 34.948C39.3326 34.9695 39.1397 35.0017 38.9486 35.0446C38.6986 35.1007 38.4514 35.1856 38.1957 35.3052L37.9838 34.8523M39.4162 33.9541C39.1859 33.9796 38.9567 34.0179 38.7296 34.0688C38.4046 34.1418 38.0889 34.2512 37.772 34.3994M52.1574 78.5387L52.1549 78.5361L52.0694 78.6213L51.4489 77.9983L51.5318 77.9157L51.4488 77.833L52.0693 77.2099L52.1549 77.2951L52.1574 77.2926L52.7774 77.9151L52.1574 78.5387ZM50.9164 76.0466L50.2079 76.7523L48.9669 75.5062L49.6754 74.8006L50.9164 76.0466ZM48.4344 73.5546L47.7259 74.2602L47.1054 73.6372M46.7425 72.5651L46.3888 72.9186C46.615 73.1448 46.8503 73.3811 47.0963 73.6281L47.1054 73.6372M46.7425 72.5651L47.0962 72.2117C47.3252 72.4408 47.5634 72.68 47.8118 72.9294L47.8139 72.9315L48.4344 73.5546M38.1955 69.2212C38.4513 69.1016 38.6985 69.0167 38.9484 68.9607C39.1395 68.9178 39.3327 68.8855 39.5264 68.864L39.4162 67.8701C39.1859 67.8956 38.9567 67.9339 38.7296 67.9849C38.4045 68.0578 38.0889 68.1671 37.772 68.3153L38.1955 69.2212ZM36.0809 69.429C35.6195 69.8063 35.1246 70.2571 34.5724 70.787L35.2648 71.5085C35.808 70.9873 36.2815 70.5567 36.7139 70.2032L36.0809 69.429ZM40.8062 67.8701L40.6959 68.864C40.8897 68.8855 41.0825 68.9177 41.2736 68.9606C41.5235 69.0166 41.771 69.1016 42.0268 69.2212L42.4504 68.3153C42.1335 68.1671 41.8178 68.0578 41.4927 67.9849C41.2656 67.9339 41.0364 67.8956 40.8062 67.8701ZM28.0649 77.2926L27.4448 77.9152L28.0649 78.5387L28.0675 78.5361L28.153 78.6213L28.7735 77.9983L28.6905 77.9157L28.7735 77.833L28.153 77.2099L28.0675 77.2951L28.0649 77.2926ZM29.3059 79.7848L30.0145 79.0792L31.2555 80.3253L30.5469 81.031L29.3059 79.7848ZM31.7879 82.2771L32.4965 81.5715L33.1169 82.1945C33.3663 82.4448 33.6046 82.6841 33.8335 82.9131L33.1262 83.62C32.8972 83.3909 32.659 83.1517 32.4105 82.9023L31.7879 82.2771ZM34.5724 85.0447L35.2648 84.3232C35.808 84.8444 36.2815 85.275 36.7139 85.6285L36.0809 86.4027C35.6195 86.0254 35.1246 85.5746 34.5724 85.0447ZM44.1414 86.4027C44.6029 86.0254 45.0977 85.5746 45.6499 85.0447L44.9575 84.3232C44.4144 84.8444 43.9409 85.275 43.5085 85.6285L44.1414 86.4027ZM47.0962 83.62L46.3888 82.9131C46.6178 82.6841 46.856 82.4449 47.1054 82.1945L47.7259 81.5715L48.4344 82.2771L47.8118 82.9023C47.5634 83.1517 47.3252 83.3909 47.0962 83.62ZM49.6754 81.031L48.9669 80.3253L50.2078 79.0792L50.9164 79.7848L49.6754 81.031ZM42.4504 87.5164L42.0268 86.6105C41.771 86.7301 41.5238 86.815 41.2739 86.871C41.0828 86.9139 40.8897 86.9462 40.6959 86.9677L40.8062 87.9616C41.0364 87.9361 41.2656 87.8978 41.4927 87.8468C41.8178 87.7739 42.1335 87.6646 42.4504 87.5164ZM39.4162 87.9616L39.5264 86.9677C39.3327 86.9462 39.1398 86.914 38.9487 86.8711C38.6988 86.8151 38.4513 86.7301 38.1955 86.6105L37.772 87.5164C38.0889 87.6646 38.4045 87.7739 38.7296 87.8468C38.9567 87.8978 39.1859 87.9361 39.4162 87.9616ZM45.1893 60.0988L44.3334 60.9581L45.1893 61.8175L45.8978 61.1118L45.7448 60.9581L45.8978 60.8044L45.1893 60.0988ZM46.901 63.5361L47.6095 62.8304L49.3212 64.549L48.6127 65.2547L46.901 63.5361ZM50.3244 66.9733L51.1803 67.8326C51.471 68.1245 51.7497 68.4044 52.0177 68.6725L52.725 67.9657C52.4578 67.6983 52.1797 67.419 51.8888 67.127L51.0329 66.2676L50.3244 66.9733ZM53.7049 70.3348C54.3491 70.953 54.9265 71.479 55.4648 71.9192L56.0978 71.145C55.5884 70.7286 55.0325 70.2228 54.3973 69.6133L53.7049 70.3348ZM64.8687 71.9192C65.4071 71.479 65.9845 70.953 66.6287 70.3348L65.9363 69.6132C65.3011 70.2228 64.7451 70.7285 64.2358 71.145L64.8687 71.9192ZM68.316 68.6725L67.6087 67.9657C67.8759 67.6983 68.1541 67.419 68.4449 67.1269L69.3008 66.2676L70.0093 66.9733L69.1535 67.8326C68.8627 68.1245 68.584 68.4044 68.316 68.6725ZM71.7209 65.2547L71.0124 64.549L72.724 62.8304L73.4326 63.5361L71.7209 65.2547ZM75.1442 61.8175L74.4356 61.1118L74.2734 60.9577L74.4356 60.8044L75.1442 60.0988L75.9995 60.9577L75.1442 61.8175ZM70.0093 54.9425L69.3007 55.6482L68.4449 54.7888M67.9624 53.5967L67.6087 53.9501C67.8759 54.2175 68.1541 54.4967 68.4449 54.7888M67.9624 53.5967L68.316 53.2432C68.584 53.5113 68.8627 53.7912 69.1535 54.0831L70.0093 54.9425M66.6287 51.581C65.9844 50.9628 65.4071 50.4368 64.8687 49.9967L64.2357 50.7709C64.7451 51.1873 65.3011 51.6931 65.9363 52.3026L66.6287 51.581ZM62.8957 48.6973L62.4721 49.6031C62.1635 49.4588 61.8636 49.3556 61.5595 49.2873C61.3306 49.236 61.0995 49.1974 60.8674 49.1717L60.9776 48.1777C61.2462 48.2075 61.5136 48.2521 61.7785 48.3116C62.1577 48.3967 62.526 48.5244 62.8957 48.6973ZM59.3559 48.1777C59.0873 48.2075 58.8199 48.2521 58.555 48.3116C58.1757 48.3967 57.8075 48.5243 57.4378 48.6973L57.8614 49.6031C58.17 49.4588 58.4699 49.3556 58.774 49.2873C59.0029 49.236 59.2339 49.1974 59.4661 49.1717L59.3559 48.1777ZM55.4649 49.9966C54.9265 50.4368 54.3491 50.9628 53.7049 51.581L54.3973 52.3025C55.0325 51.693 55.5885 51.1872 56.0978 50.7708L55.4649 49.9966ZM46.901 58.38L47.6095 59.0857L49.3213 57.3669L48.6127 56.6613L46.901 58.38ZM50.3244 54.9425L51.033 55.6482L51.8888 54.7888C52.1797 54.4967 52.4578 54.2174 52.725 53.9501L52.0176 53.2432C51.7497 53.5113 51.471 53.7912 51.1803 54.0831L50.3244 54.9425ZM71.7209 56.6613L71.0124 57.3669L72.724 59.0857L73.4326 58.38L71.7209 56.6613ZM62.8958 73.2186L62.4722 72.3127C62.1636 72.457 61.8637 72.5602 61.5596 72.6284C61.3308 72.6798 61.0994 72.7185 60.8673 72.7442L60.9776 73.7382C61.2462 73.7083 61.5136 73.6637 61.7785 73.6041C62.1578 73.5191 62.526 73.3915 62.8958 73.2186ZM59.3559 73.7382L59.4662 72.7442C59.2341 72.7185 59.0031 72.6799 58.7742 72.6285C58.4701 72.5603 58.1699 72.4571 57.8613 72.3127L57.4377 73.2186C57.8074 73.3915 58.1757 73.5191 58.555 73.6041C58.8199 73.6637 59.0873 73.7083 59.3559 73.7382ZM75.1442 27.9016L74.4356 27.1959L74.5887 27.0422L74.4356 26.8885L75.1442 26.1829L75.9997 27.0419L75.1442 27.9016ZM70.0093 21.0268L69.3007 21.7325L68.4449 20.8731M67.9624 19.681L67.6087 20.0344C67.8753 20.3012 68.1528 20.5798 68.4429 20.8711L68.4449 20.8731M67.9624 19.681L68.316 19.3275C68.584 19.5956 68.8627 19.8755 69.1535 20.1675L70.0093 21.0268M66.6287 17.6653L65.9363 18.3869C65.3011 17.7774 64.7451 17.2716 64.2357 16.8552L64.8687 16.081C65.4071 16.5212 65.9844 17.0472 66.6287 17.6653ZM62.8957 14.7816L62.4721 15.6875C62.1635 15.5431 61.8636 15.44 61.5595 15.3717C61.3306 15.3203 61.0995 15.2817 60.8674 15.256L60.9776 14.2621C61.2462 14.2919 61.5136 14.3365 61.7785 14.396C62.1577 14.4811 62.526 14.6087 62.8957 14.7816ZM59.3559 14.2621C59.0873 14.2919 58.8199 14.3365 58.555 14.396C58.1757 14.4811 57.8075 14.6087 57.4377 14.7816L57.8614 15.6874C58.17 15.5431 58.4698 15.44 58.7739 15.3717C59.0028 15.3203 59.234 15.2817 59.4661 15.256L59.3559 14.2621ZM55.4649 16.081L56.0978 16.8552C55.5885 17.2716 55.0325 17.7774 54.3973 18.3869L53.7049 17.6653C54.3491 17.0472 54.9265 16.5211 55.4649 16.081ZM45.1893 26.1828L45.8978 26.8885L45.7448 27.0422L45.8978 27.1959L45.1893 27.9015L44.3334 27.0422L45.1893 26.1828ZM46.901 29.6202L47.6095 28.9146L49.3212 30.6333L48.6127 31.3389L46.901 29.6202ZM53.7049 36.4191L54.3973 35.6976C55.0325 36.3071 55.5885 36.8128 56.0978 37.2292L55.4649 38.0034C54.9265 37.5633 54.3491 37.0373 53.7049 36.4191ZM57.4378 39.3028C57.8075 39.4757 58.1757 39.6033 58.555 39.6884C58.8199 39.7479 59.0873 39.7925 59.3559 39.8223L59.4661 38.8284C59.234 38.8026 59.0029 38.7641 58.774 38.7127C58.4699 38.6444 58.17 38.5413 57.8614 38.3969L57.4378 39.3028ZM64.8687 38.0034L64.2357 37.2292C64.7451 36.8128 65.3011 36.307 65.9363 35.6975L66.6287 36.4191C65.9844 37.0372 65.4071 37.5633 64.8687 38.0034ZM62.8957 39.3028L62.4721 38.3969C62.1635 38.5413 61.8636 38.6444 61.5595 38.7127C61.3306 38.7641 61.0995 38.8026 60.8674 38.8284L60.9776 39.8223C61.2462 39.7925 61.5136 39.7479 61.7785 39.6884C62.1577 39.6033 62.526 39.4757 62.8957 39.3028ZM52.0176 34.7569L52.725 34.05C52.4578 33.7827 52.1797 33.5034 51.8888 33.2113L51.033 32.352L50.3244 33.0576L51.1803 33.917C51.471 34.2089 51.7497 34.4888 52.0176 34.7569ZM46.901 24.4642L47.6095 25.1698L49.3212 23.4511L48.6127 22.7455L46.901 24.4642ZM50.3244 21.0268L51.0329 21.7325L51.8888 20.8731C52.1796 20.5811 52.4578 20.3018 52.725 20.0344L52.0176 19.3275C51.7497 19.5956 51.471 19.8755 51.1802 20.1675L50.3244 21.0268ZM71.7209 22.7455L71.0124 23.4511L72.724 25.1698L73.4326 24.4642L71.7209 22.7455ZM16.6892 12.4046L15.919 13.178C15.7113 13.3865 15.5122 13.5864 15.3208 13.7779L14.6135 13.071C14.8039 12.8805 15.0021 12.6815 15.2097 12.4731L15.9807 11.6989L16.6892 12.4046ZM18.2298 10.8578L19 10.0844L18.2298 9.31096L17.5212 10.0166L17.5887 10.0844L17.5212 10.1521L18.2298 10.8578ZM16.6892 7.76415L15.919 6.99075C15.7113 6.78222 15.5122 6.58231 15.3208 6.39081L14.6135 7.09769C14.8042 7.28847 15.0026 7.48776 15.2104 7.69642L15.9807 8.46982L16.6892 7.76415ZM14.1156 5.20353C13.6554 4.76197 13.2431 4.38624 12.8585 4.07184L12.2256 4.84603C12.5811 5.13669 12.9721 5.49217 13.4232 5.92507L14.1156 5.20353ZM14.1156 14.9652C13.6555 15.4068 13.2431 15.7825 12.8585 16.0969L12.2256 15.3227C12.5811 15.032 12.9721 14.6766 13.4232 14.2437L14.1156 14.9652ZM11.4493 17.025C11.1852 17.1485 10.9222 17.2396 10.6513 17.3004C10.4621 17.3429 10.2711 17.3748 10.0792 17.3961L9.96899 16.4022C10.1244 16.3849 10.279 16.3591 10.4323 16.3247C10.6281 16.2808 10.8227 16.2141 11.0257 16.1192L11.4493 17.025ZM8.92084 17.3961C8.72897 17.3748 8.53797 17.3429 8.34872 17.3004C8.07784 17.2396 7.81479 17.1485 7.55071 17.025L7.97433 16.1192C8.17731 16.2141 8.37192 16.2808 8.56769 16.3247C8.72095 16.3591 8.87567 16.3849 9.03104 16.4022L8.92084 17.3961ZM6.14151 16.0969C5.75696 15.7825 5.34457 15.4068 4.88442 14.9652L5.57678 14.2437C6.02792 14.6766 6.41894 15.032 6.77446 15.3227L6.14151 16.0969ZM3.6792 13.7779C3.48783 13.5864 3.28873 13.3865 3.08105 13.178L2.31079 12.4046L3.01933 11.6989L3.79041 12.4731C3.99792 12.6815 4.19613 12.8805 4.38654 13.071L3.6792 13.7779ZM0.770263 10.8578L5.8507e-05 10.0844L0.770256 9.31096L1.4788 10.0166L1.41134 10.0844L1.47881 10.1521L0.770263 10.8578ZM2.31077 7.76415L3.01931 8.46982L3.78957 7.69641C3.99737 7.48776 4.19586 7.28847 4.38651 7.09769L3.67917 6.39081C3.4878 6.58231 3.2887 6.78222 3.08102 6.99075L2.31077 7.76415ZM4.88438 5.20352C5.34454 4.76197 5.75692 4.38623 6.14147 4.07183L6.77442 4.84602C6.4189 5.13669 6.02789 5.49216 5.57675 5.92506L4.88438 5.20352ZM7.55066 3.1437C7.81474 3.0202 8.07778 2.92904 8.34867 2.86824C8.53793 2.82578 8.72893 2.79391 8.9208 2.77264L9.03096 3.76656C8.8756 3.78378 8.72093 3.80958 8.56767 3.84397M7.55066 3.1437L7.9743 4.04953C8.17726 3.95461 8.37192 3.88791 8.56767 3.84397M10.0241 3.2696L10.0792 2.77264C10.271 2.79391 10.4621 2.82577 10.6513 2.86824C10.9222 2.92904 11.1852 3.0202 11.4493 3.1437L11.0257 4.04953C10.8227 3.95461 10.6281 3.88792 10.4324 3.84398M10.0792 85.2277L9.96899 84.2338C10.1243 84.2165 10.279 84.1907 10.4322 84.1563C10.628 84.1124 10.8226 84.0457 11.0256 83.9507L11.4493 84.8565C11.1852 84.98 10.9222 85.0712 10.6513 85.132C10.4621 85.1745 10.2711 85.2064 10.0792 85.2277ZM8.92084 85.2277C8.72897 85.2064 8.53797 85.1745 8.34872 85.132C8.07784 85.0712 7.81479 84.98 7.55071 84.8565L7.97442 83.9507C8.17741 84.0457 8.37204 84.1124 8.56782 84.1563C8.72106 84.1907 8.8757 84.2165 9.03104 84.2338L8.92084 85.2277ZM6.14153 83.9283L6.77451 83.1541C6.41898 82.8634 6.02796 82.5079 5.57682 82.075L4.88443 82.7965C5.34459 83.2381 5.75697 83.6138 6.14153 83.9283ZM3.6792 81.6092L4.38656 80.9023C4.1966 80.7122 3.99888 80.5137 3.7919 80.3058L3.78961 80.3036L3.01933 79.5301L2.31079 80.2358L3.08105 81.0092C3.28873 81.2177 3.48783 81.4177 3.6792 81.6092ZM0.770263 78.689L0 77.9156L0.770257 77.1422L1.4788 77.8478L1.41134 77.9156L1.47881 77.9833L0.770263 78.689ZM2.31077 75.5954L3.01932 76.301L3.78951 75.5277C3.99731 75.3191 4.19584 75.1198 4.38649 74.929L3.67921 74.2221C3.48835 74.4131 3.2898 74.6124 3.08272 74.8203L3.08102 74.822L2.31077 75.5954ZM12.8585 83.9283L12.2255 83.1541C12.581 82.8634 12.9721 82.5079 13.4232 82.075L14.1156 82.7965C13.6554 83.2381 13.2431 83.6138 12.8585 83.9283ZM16.6892 80.2358L15.9807 79.5301L15.2104 80.3035L15.2093 80.3047C15.0019 80.513 14.8038 80.7119 14.6135 80.9023L15.3208 81.6092C15.5122 81.4177 15.7113 81.2178 15.9189 81.0092L16.6892 80.2358ZM4.88446 73.0349C5.34462 72.5934 5.75701 72.2177 6.14156 71.9033L6.7745 72.6775C6.41896 72.9682 6.02794 73.3236 5.57679 73.7565L4.88446 73.0349ZM14.899 31.4034L15.6075 30.6977L16.228 31.3207C16.4774 31.5711 16.7157 31.8104 16.9446 32.0394L16.2373 32.7463C16.0076 32.5165 15.7687 32.2766 15.5195 32.0264L14.899 31.4034ZM17.6835 34.1711L18.3759 33.4495C18.9191 33.9707 19.3926 34.4014 19.825 34.7549L19.1921 35.5291C18.7306 35.1518 18.2357 34.7009 17.6835 34.1711ZM13.658 30.1573L12.417 28.9113L13.1256 28.2056L14.3666 29.4516L13.658 30.1573ZM11.8016 27.0422L11.8846 26.9595L11.2641 26.3365L11.1786 26.4217L11.176 26.4192L10.5555 27.0422L11.176 27.6652L11.1786 27.6627L11.2641 27.7479L11.8846 27.1248L11.8016 27.0422ZM12.417 25.1731L13.658 23.9271L14.3666 24.6328L13.1256 25.8788L12.417 25.1731ZM14.899 22.6811L15.6075 23.3867L16.228 22.7637C16.4774 22.5133 16.7157 22.2741 16.9446 22.045L16.2373 21.3381C16.0076 21.5679 15.7687 21.8078 15.5195 22.058L14.899 22.6811ZM17.6835 19.9134C18.2357 19.3835 18.7306 18.9326 19.192 18.5553L19.825 19.3295C19.3926 19.683 18.9191 20.1137 18.3759 20.6349L17.6835 19.9134ZM23.8622 36.5912L23.8071 36.0942C24.0009 36.0728 24.1938 36.0406 24.3849 35.9977M23.8622 36.5912L23.9173 37.0881C24.1475 37.0626 24.3767 37.0244 24.6038 36.9734M22.5273 37.0881L22.6374 36.0942C22.4437 36.0727 22.2508 36.0406 22.0597 35.9977M21.0949 36.1899L20.8831 36.6429C21.2 36.7911 21.5156 36.9004 21.8407 36.9734C22.0678 37.0244 22.297 37.0626 22.5273 37.0881M22.0597 35.9977C21.8097 35.9416 21.5625 35.8566 21.3067 35.737L21.0949 36.1899M33.1262 38.2959L33.8336 39.0028C33.6046 39.2318 33.3663 39.4711 33.117 39.7215L32.4965 40.3445L31.788 39.6388L32.4085 39.0158C32.6577 38.7656 32.8966 38.5257 33.1262 38.2959ZM30.547 40.8849L31.2555 41.5905L30.0145 42.8366L29.306 42.1309L30.547 40.8849ZM31.7879 48.3612L32.4084 48.9842C32.6576 49.2345 32.8965 49.4744 33.1262 49.7042L33.8335 48.9973C33.6046 48.7682 33.3663 48.529 33.117 48.2786L32.4965 47.6555L31.7879 48.3612ZM34.5724 51.129L35.2648 50.4074C35.808 50.9287 36.2814 51.3593 36.7139 51.7128L36.0809 52.487C35.6195 52.1097 35.1246 51.6589 34.5724 51.129ZM37.772 53.6008C38.0889 53.749 38.4046 53.8584 38.7296 53.9314C38.9567 53.9824 39.1859 54.0207 39.4162 54.0462L39.5264 53.0523C39.3327 53.0308 39.1398 52.9986 38.9487 52.9557C38.6988 52.8996 38.4515 52.8146 38.1957 52.695L37.772 53.6008ZM40.8062 54.0462C41.0364 54.0207 41.2656 53.9824 41.4927 53.9314C41.8178 53.8584 42.1335 53.749 42.4503 53.6008L42.0267 52.695C41.7709 52.8146 41.5236 52.8995 41.2736 52.9557C41.0826 52.9986 40.8897 53.0308 40.6959 53.0523L40.8062 54.0462ZM44.1414 52.487L43.5085 51.7128C43.9409 51.3593 44.4144 50.9287 44.9576 50.4074L45.6499 51.129C45.0977 51.6589 44.6029 52.1097 44.1414 52.487ZM47.0962 49.7042C47.3258 49.4744 47.5647 49.2345 47.8139 48.9842L48.4344 48.3612L47.7259 47.6555L47.1054 48.2785C46.8561 48.5289 46.6177 48.7682 46.3888 48.9973L47.0962 49.7042ZM49.6754 47.1151L48.9669 46.4095L50.2079 45.1634L50.9164 45.8691L49.6754 47.1151ZM36.081 35.5131C35.6195 35.8904 35.1247 36.3413 34.5725 36.8712L35.2649 37.5927C35.808 37.0715 36.2815 36.6409 36.7139 36.2873L36.081 35.5131ZM33.1262 72.2117C32.8972 72.4408 32.659 72.68 32.4105 72.9294L32.4084 72.9315L31.7879 73.5546L32.4964 74.2602L33.1169 73.6372L33.126 73.6281C33.3721 73.3811 33.6074 73.1448 33.8335 72.9186L33.1262 72.2117ZM33.1169 73.6372L32.7627 73.2844L33.1169 73.6372ZM29.3059 76.0466L30.5469 74.8006L31.2555 75.5062L30.0145 76.7523L29.3059 76.0466ZM45.6499 70.787L44.9575 71.5085C44.4144 70.9873 43.9409 70.5567 43.5085 70.2032L44.1414 69.429C44.6029 69.8063 45.0977 70.2571 45.6499 70.787ZM70.0093 33.0576C69.445 33.6242 68.8813 34.1913 68.316 34.7569L70.0093 33.0576ZM71.7209 31.3389L71.0124 30.6333L72.724 28.9146L73.4326 29.6203L71.7209 31.3389ZM10.4324 3.84398C10.2791 3.80959 10.1244 3.78378 9.96901 3.76656L10.0241 3.2696" fill="#6E56CF"/>
    <path d="M67.6087 34.05L68.316 34.7569C68.8813 34.1913 69.445 33.6242 70.0093 33.0576L69.3007 32.352C68.7369 32.9181 68.1736 33.4848 67.6087 34.05Z" fill="#6E56CF"/>
    <path d="M68.4449 20.8731L70.0093 21.0268L67.9624 19.681L68.4449 20.8731Z" fill="#6E56CF"/>
    <path d="M47.1054 14.3629L47.0962 15.7885L48.0802 14.0927L47.1054 14.3629Z" fill="#6E56CF"/>
    <path d="M47.1054 5.80583L48.4344 5.72319L46.7425 4.73369L47.1054 5.80583Z" fill="#6E56CF"/>
    <path d="M22.0597 18.0868C22.2508 18.0439 22.4437 18.0117 22.6374 17.9902L22.5273 16.9963C22.297 17.0218 22.0678 17.0601 21.8407 17.111C21.5156 17.184 21.2 17.2934 20.8831 17.4416L21.3067 18.3474C21.5625 18.2278 21.8097 18.1428 22.0597 18.0868Z" fill="#6E56CF"/>
    <path d="M22.5273 37.0881L22.0597 35.9977L21.0949 36.1899L22.5273 37.0881Z" fill="#6E56CF"/>
    <path d="M24.6038 36.9734L24.3849 35.9977L23.8622 36.5912L24.6038 36.9734Z" fill="#6E56CF"/>
    <path d="M15.6241 42.0274L16.9995 41.9913L15.4406 41.1352L15.6241 42.0274Z" fill="#6E56CF"/>
    <path d="M37.9838 34.8523L39.4162 33.9541L37.772 34.3994L37.9838 34.8523Z" fill="#6E56CF"/>
    <path d="M41.2738 35.0446L41.3832 34.5567C41.1741 34.5098 40.9631 34.4746 40.7511 34.4511L40.6953 34.948L41.2738 35.0446Z" fill="#6E56CF"/>
    <path d="M68.4449 54.7888L70.0093 54.9425L67.9624 53.5967L68.4449 54.7888Z" fill="#6E56CF"/>
    <path d="M47.1054 73.6372L48.4344 73.5546L46.7425 72.5651L47.1054 73.6372Z" fill="#6E56CF"/>
    <path d="M30.2165 65.2365L30.2072 66.6621L31.1913 64.9663L30.2165 65.2365Z" fill="#6E56CF"/>
  </g>
  <defs>
    <filter id="filter0_b_10988_5614" x="-12" y="-12" width="100" height="112" filterUnits="userSpaceOnUse" color-interpolation-filters="sRGB">
      <feFlood flood-opacity="0" result="BackgroundImageFix"/>
      <feGaussianBlur in="BackgroundImageFix" stdDeviation="6"/>
      <feComposite in2="SourceAlpha" operator="in" result="effect1_backgroundBlur_10988_5614"/>
      <feBlend mode="normal" in="SourceGraphic" in2="effect1_backgroundBlur_10988_5614" result="shape"/>
    </filter>
    <filter id="filter1_b_10988_5614" x="-12" y="-11.9615" width="100" height="111.923" filterUnits="userSpaceOnUse" color-interpolation-filters="sRGB">
      <feFlood flood-opacity="0" result="BackgroundImageFix"/>
      <feGaussianBlur in="BackgroundImageFix" stdDeviation="6"/>
      <feComposite in2="SourceAlpha" operator="in" result="effect1_backgroundBlur_10988_5614"/>
      <feBlend mode="normal" in="SourceGraphic" in2="effect1_backgroundBlur_10988_5614" result="shape"/>
    </filter>
  </defs>
</svg>