<?xml version="1.0" encoding="UTF-8" standalone="no"?>
<svg
   xmlns:dc="http://purl.org/dc/elements/1.1/"
   xmlns:cc="http://creativecommons.org/ns#"
   xmlns:rdf="http://www.w3.org/1999/02/22-rdf-syntax-ns#"
   xmlns:svg="http://www.w3.org/2000/svg"
   xmlns="http://www.w3.org/2000/svg"
   viewBox="0 0 117.33333 117.3335"
   height="117.3335"
   width="117.33333"
   xml:space="preserve"
   id="svg2"
   version="1.1"><metadata
     id="metadata8"><rdf:RDF><cc:Work
         rdf:about=""><dc:format>image/svg+xml</dc:format><dc:type
           rdf:resource="http://purl.org/dc/dcmitype/StillImage" /></cc:Work></rdf:RDF></metadata><defs
     id="defs6"><clipPath
       id="clipPath24"
       clipPathUnits="userSpaceOnUse"><path
         style="clip-rule:evenodd"
         id="path22"
         d="m 39.795097,56.223915 -8.019075,-8.019112 c -1.201363,-1.201362 -3.183613,-1.201362 -4.415009,0 L 0.901021,74.664856 c -1.201362,1.201363 -1.201362,3.183617 0,4.415016 l 8.049122,8.019104 c 1.201362,1.201363 3.183614,1.201363 4.415009,0 L 39.825161,60.638924 c 1.201363,-1.231396 1.201332,-3.183613 -0.03006,-4.415009 z" /></clipPath><clipPath
       id="clipPath42"
       clipPathUnits="userSpaceOnUse"><path
         style="clip-rule:evenodd"
         id="path40"
         d="M 87.098831,8.920074 79.07975,0.90097 c -1.201363,-1.201355 -3.183594,-1.201355 -4.414986,0 L 48.204731,27.361023 c -1.201359,1.201366 -1.201359,3.183617 0,4.415016 l 8.019115,8.019104 c 1.201363,1.201367 3.183594,1.201367 4.41499,0 L 87.098831,13.335098 c 1.201355,-1.231399 1.201355,-3.183624 0,-4.415024 z" /></clipPath><clipPath
       id="clipPath60"
       clipPathUnits="userSpaceOnUse"><path
         style="clip-rule:evenodd"
         id="path58"
         d="m 31.776016,39.795143 8.019074,-8.019104 c 1.201362,-1.201366 1.201362,-3.183617 0,-4.415016 L 13.335105,0.90097 c -1.201362,-1.201355 -3.183595,-1.201355 -4.41499,0 L 0.901021,8.920074 c -1.201361,1.201371 -1.201361,3.183625 0,4.415024 l 26.459987,26.460045 c 1.231395,1.201367 3.183611,1.201367 4.415008,0 z" /></clipPath><clipPath
       id="clipPath78"
       clipPathUnits="userSpaceOnUse"><path
         style="clip-rule:evenodd"
         id="path76"
         d="m 79.07975,87.099098 8.019081,-8.019104 c 1.201355,-1.20137 1.201355,-3.183616 0,-4.415016 L 60.638836,48.204926 c -1.201363,-1.201363 -3.183594,-1.201363 -4.41499,0 l -8.019115,8.019111 c -1.201359,1.201363 -1.201359,3.183613 0,4.415009 l 26.460033,26.460052 c 1.231392,1.201363 3.183594,1.201363 4.414986,0 z" /></clipPath></defs><g
     transform="matrix(1.3333333,0,0,-1.3333333,0,117.3335)"
     id="g10"><g
       id="g12"><g
         id="g14"><g
           transform="translate(0,46.703125)"
           id="g16"><path
             id="path18"
             style="fill:#1a1b1d;fill-opacity:0.47999998;fill-rule:nonzero;stroke:none"
             d="m 39.795097,9.520788 -8.019075,-8.01911 c -1.201363,-1.201362 -3.183613,-1.201362 -4.415009,0 L 0.901021,27.961731 c -1.201362,1.201363 -1.201362,3.183615 0,4.415012 l 8.049122,8.019108 c 1.201362,1.201367 3.183614,1.201367 4.415009,0 l 26.460009,-26.46005 c 1.201363,-1.231398 1.201332,-3.183615 -0.03006,-4.415013 z" /></g></g><g
         clip-path="url(#clipPath24)"
         id="g20"><g
           transform="translate(0,46.703125)"
           id="g26"><path
             id="path28"
             style="fill:#6e56cf;fill-opacity:1;fill-rule:nonzero;stroke:none"
             d="m 39.795097,9.520788 -0.353553,0.353554 v -2e-6 z m -8.019075,-8.01911 0.353552,-0.353553 v 4e-6 z m -4.415009,0 -0.353582,-0.35358 0.0044,-0.00431 0.349163,0.357891 z M 0.901021,27.961731 1.254575,28.315283 v 0 z m 0,4.415012 -0.352928,0.354252 -0.004963,-0.0051 0.357891,-0.349163 z m 8.049122,8.019108 0.352894,-0.354214 6.6e-4,6.6e-4 z m 4.415009,0 0.353581,0.353581 -0.0044,0.0043 -0.349162,-0.357891 z m 26.460009,-26.46005 0.357918,0.349189 -0.0044,0.0044 -0.353554,-0.353553 z M 39.441544,9.87434 38.773289,9.206081 39.480396,8.498978 40.148651,9.167236 Z M 37.436775,7.869564 36.100262,6.533047 36.807369,5.825939 38.143883,7.162457 Z M 34.763748,5.196526 33.427238,3.860008 34.134346,3.152905 35.47086,4.489422 Z M 32.090725,2.523491 31.422468,1.855232 32.129574,1.148129 32.797832,1.816387 Z M 31.422468,1.855232 C 31.173618,1.60638 30.885056,1.419327 30.575434,1.293629 l 0.376157,-0.926556 c 0.43011,0.174614 0.832043,0.435112 1.177983,0.781052 z M 28.566042,1.298618 C 28.255669,1.424923 27.964228,1.611713 27.710175,1.85957 L 27.01185,1.143787 C 27.360531,0.803612 27.761768,0.54628 28.189116,0.372375 Z m -0.851475,0.556614 -0.735,0.735001 -0.707108,-0.707104 0.735001,-0.735004 z m -2.205,2.205006 -1.469999,1.470001 -0.707108,-0.707104 1.47,-1.470005 z m -2.939998,2.940002 -1.47,1.470005 -0.707107,-0.707107 1.469999,-1.470001 z M 19.62957,9.940248 18.159569,11.41025 17.452461,10.703144 18.922462,9.233143 Z m -2.940001,2.940005 -1.469998,1.470003 -0.707107,-0.707106 1.469999,-1.470003 z m -2.939998,2.940006 -1.469999,1.470001 -0.707107,-0.707105 1.469998,-1.470002 z m -2.939999,2.940006 -1.469999,1.470002 -0.707108,-0.707106 1.47,-1.470003 z m -2.939999,2.940005 -1.47,1.470003 -0.707108,-0.707106 1.470001,-1.470003 z m -2.939999,2.940006 -1.47,1.470003 -0.707108,-0.707106 1.47,-1.470003 z m -2.939999,2.940004 -0.735,0.735003 -0.707107,-0.707106 0.735,-0.735002 z m -0.735,0.735003 c -0.24885,0.24885 -0.435904,0.537414 -0.561602,0.847036 l -0.926556,-0.376158 c 0.174613,-0.430109 0.43511,-0.832044 0.781051,-1.177984 z m -0.556612,2.856432 c 0.126303,0.310371 0.313094,0.601814 0.56095,0.855865 L 0.54313,32.725906 c -0.340176,-0.348682 -0.597506,-0.74992 -0.77141,-1.177267 z m 0.555951,0.850815 0.67076,0.668258 -0.705785,0.708428 -0.67076,-0.668259 z m 2.01228,2.004779 1.341521,1.336518 L 3.90193,36.07225 2.56041,34.735733 Z m 2.683041,2.673035 1.34152,1.336517 -0.705785,0.708428 -1.34152,-1.336517 z m 2.683041,2.673035 0.67076,0.668258 -0.705785,0.708428 -0.67076,-0.668259 z m 0.671421,0.668918 c 0.24885,0.248852 0.537413,0.435906 0.847035,0.561604 L 9.774573,41.530457 C 9.344464,41.355843 8.94253,41.095345 8.59659,40.749405 Z m 2.856427,0.556614 c 0.310372,-0.126304 0.601814,-0.313095 0.855866,-0.560951 l 0.698324,0.715782 c -0.34868,0.340176 -0.749918,0.597508 -1.177264,0.771412 z m 0.851475,-0.556614 0.735,-0.735 0.707108,0.707107 -0.735001,0.735001 z m 2.205,-2.205001 1.470001,-1.470006 0.707107,0.707108 -1.47,1.470001 z m 2.940002,-2.940007 1.470001,-1.470005 0.707108,0.707108 -1.470002,1.470001 z m 2.94,-2.940006 1.470002,-1.470005 0.707107,0.707108 -1.470001,1.470005 z m 2.940003,-2.940006 1.470001,-1.470003 0.707106,0.707105 -1.47,1.470003 z m 2.94,-2.940006 1.470002,-1.470004 0.707107,0.707106 -1.470001,1.470005 z m 2.940001,-2.940005 1.469999,-1.470001 0.707108,0.707106 -1.469999,1.470001 z m 2.940001,-2.940006 1.470001,-1.470001 0.707107,0.707105 -1.470001,1.470003 z m 2.939998,-2.940003 1.470001,-1.470003 0.707108,0.707108 -1.470001,1.470001 z m 2.940003,-2.940006 0.735,-0.735002 0.707108,0.707105 -0.735001,0.735003 z m 0.730663,-0.730612 c 0.249802,-0.256046 0.43705,-0.547704 0.562626,-0.856996 l 0.926544,0.376186 c -0.17379,0.428036 -0.432175,0.829392 -0.773388,1.179135 z m 0.549026,-2.862333 C 39.886921,10.41799 39.695995,10.128792 39.441544,9.874342 l 0.707107,-0.707106 c 0.346363,0.34636 0.609676,0.743771 0.788849,1.167998 z M 39.795097,9.520788 39.08799,10.227894 v 0 z m -8.019075,-8.01911 0.707106,-0.707103 h 3e-6 z m -4.415009,0 -0.707162,-0.707157 0.0088,-0.008625 0.698326,0.715782 z M 0.901021,27.961731 1.608129,28.668835 v 0 z m 0,4.415012 -0.705784,0.708428 -0.005035,-0.005 -0.004963,-0.0051 0.715782,-0.698323 z m 8.049122,8.019108 0.705787,-0.708427 0.00132,0.0013 -0.707107,0.707104 z m 4.415009,0 0.707161,0.707161 -0.0088,0.0086 -0.698325,-0.715782 z m 26.460009,-26.46005 0.715839,0.698377 -0.0087,0.0087 -0.707108,-0.707107 z M 39.08799,10.227894 38.419735,9.559635 39.83395,8.145424 40.502205,8.813683 Z M 37.083221,8.223118 35.746708,6.886597 37.160923,5.472389 38.497437,6.808907 Z M 34.410194,5.550079 33.073681,4.213562 34.4879,2.799351 35.824413,4.135868 Z M 31.737169,2.877045 31.068913,2.208786 32.483131,0.794575 33.151386,1.462833 Z M 31.068914,2.208786 C 30.868608,2.00848 30.636732,1.858147 30.387354,1.756908 l 0.752317,-1.853111 c 0.490353,0.19907 0.948971,0.496288 1.343457,0.890778 z M 28.754505,1.761742 c -0.251886,0.102501 -0.48843,0.254024 -0.695167,0.455719 L 26.662687,0.785896 c 0.395996,-0.386337 0.852131,-0.678936 1.337965,-0.87664 z m -0.686384,0.447044 -0.735001,0.735001 -1.414215,-1.414212 0.735001,-0.735 z m -2.205,2.205002 -1.469999,1.470005 -1.414215,-1.414211 1.469999,-1.470005 z M 22.923122,7.353794 21.453123,8.823799 20.038908,7.409584 21.508907,5.939583 Z m -2.939998,2.940006 -1.47,1.470003 -1.414217,-1.414211 1.470002,-1.470003 z m -2.940001,2.940007 -1.469998,1.470001 -1.414215,-1.414211 1.469999,-1.470004 z M 14.103125,16.173813 12.633126,17.643814 11.218911,16.229603 12.68891,14.7596 Z M 11.163126,19.113817 9.693127,20.58382 8.278912,19.169607 9.748911,17.699606 Z m -2.94,2.940006 -1.469999,1.470004 -1.414215,-1.414212 1.47,-1.470005 z m -2.939998,2.940005 -1.47,1.470005 -1.414215,-1.414213 1.47,-1.470003 z m -2.939999,2.940006 -0.735,0.735001 -1.414215,-1.414212 0.735,-0.735 z m -0.735,0.735001 C 1.407824,28.869141 1.257492,29.101021 1.15625,29.350399 l -1.853111,-0.752316 c 0.19907,-0.490352 0.49629,-0.948974 0.890775,-1.34346 z m -0.447044,2.314417 c 0.102503,0.251886 0.254023,0.488432 0.455719,0.695169 L 0.185239,33.075066 C -0.201098,32.67907 -0.493698,32.222935 -0.691402,31.737103 Z m 0.445721,0.685066 0.67076,0.66826 -1.411569,1.416851 -0.67076,-0.668258 z m 2.012281,2.004778 1.34152,1.336517 -1.41157,1.416851 -1.34152,-1.336517 z m 2.68304,2.673034 1.341521,1.336518 -1.41157,1.416855 -1.34152,-1.336522 z m 2.683041,2.673035 0.67076,0.668259 -1.411569,1.416855 -0.670761,-0.668259 z m 0.672082,0.669582 c 0.200306,0.200303 0.432183,0.350636 0.681561,0.451878 L 9.586493,41.993736 C 9.096141,41.794662 8.637522,41.497444 8.243036,41.102959 Z m 2.314411,0.447041 c 0.251885,-0.102501 0.488429,-0.254021 0.695167,-0.455719 l 1.396649,1.431564 c -0.395996,0.386338 -0.85213,0.678936 -1.337964,0.876644 z m 0.686384,-0.447044 0.735,-0.735001 1.414215,1.414215 -0.735,0.735001 z m 2.205001,-2.205002 1.47,-1.470005 1.414215,1.414215 -1.470001,1.470001 z m 2.940001,-2.940006 1.470001,-1.470006 1.414215,1.414216 -1.470001,1.470001 z m 2.940001,-2.940007 1.470001,-1.470003 1.414215,1.414213 -1.470001,1.470002 z m 2.940002,-2.940006 1.470001,-1.470001 1.414214,1.414211 -1.47,1.470001 z m 2.940001,-2.940004 1.470001,-1.470003 1.414215,1.414211 -1.470001,1.470005 z m 2.94,-2.940007 1.47,-1.470001 1.414215,1.414213 -1.47,1.470002 z m 2.940001,-2.940004 1.470001,-1.470003 1.414215,1.414213 -1.470001,1.470001 z m 2.939998,-2.940004 1.470002,-1.470002 1.414215,1.414212 -1.470002,1.470003 z m 2.940003,-2.940005 0.735,-0.735004 1.414216,1.414213 -0.735001,0.735003 z m 0.726326,-0.726221 c 0.204098,-0.2092 0.355774,-0.446007 0.457245,-0.695928 l 1.853088,0.752372 c -0.197895,0.487406 -0.491852,0.943613 -0.878769,1.340203 z m 0.446312,-2.318636 c -0.104473,-0.24736 -0.259205,-0.482454 -0.467701,-0.690948 l 1.414215,-1.414211 c 0.392319,0.392314 0.691826,0.843832 0.895901,1.327014 z" /></g></g></g><g
       id="g30"><g
         id="g32"><g
           transform="translate(47.303711,-0.600708)"
           id="g34"><path
             id="path36"
             style="fill:#1a1b1d;fill-opacity:0.47999998;fill-rule:nonzero;stroke:none"
             d="M 39.795116,9.520786 31.776039,1.501682 c -1.201361,-1.201362 -3.183594,-1.201362 -4.414989,0 L 0.901021,27.961731 c -1.201362,1.201366 -1.201362,3.183617 0,4.415016 l 8.019114,8.019104 c 1.201362,1.201367 3.183594,1.201367 4.414991,0 l 26.45999,-26.460047 c 1.201363,-1.231399 1.201363,-3.18362 0,-4.415018 z" /></g></g><g
         clip-path="url(#clipPath42)"
         id="g38"><g
           transform="translate(47.303711,-0.600708)"
           id="g44"><path
             id="path46"
             style="fill:#6e56cf;fill-opacity:1;fill-rule:nonzero;stroke:none"
             d="m 39.795116,9.520786 0.353581,-0.35358 0.0043,0.00442 -0.357892,0.349163 z m -8.019077,-8.019104 0.353554,-0.35355 v 0 z m -4.414989,0 -0.353581,-0.35358 0.0044,-0.00431 0.349163,0.357887 z M 0.901021,27.961731 0.547468,27.608179 v 0 z m 0,4.415016 -0.35358,0.353577 -0.004311,-0.0044 0.357891,-0.349159 z m 8.019114,8.019104 0.353553,-0.353554 v 0 z m 4.414991,0 0.35358,0.353581 -0.0044,0.0043 -0.349162,-0.357891 z m 26.45999,-26.460047 0.357918,0.349188 -0.0044,0.0044 L 39.79508,13.93584 Z M 39.441563,9.874338 38.773308,9.206081 39.480415,8.498974 40.14867,9.167233 Z M 37.436794,7.869564 36.100281,6.533047 36.807388,5.825939 38.143902,7.162457 Z M 34.763767,5.196529 33.427254,3.860012 34.134361,3.152908 35.470875,4.489422 Z M 32.090744,2.523495 31.422485,1.855236 32.129593,1.148132 32.797852,1.816391 Z M 31.422485,1.855236 c -0.24885,-0.248852 -0.53741,-0.435905 -0.84703,-0.561603 l 0.376161,-0.926552 c 0.430105,0.174614 0.832039,0.435108 1.177977,0.781051 z m -2.856411,-0.55661 c -0.310371,0.126301 -0.60181,0.313091 -0.855863,0.560947 L 27.011887,1.143795 c 0.34868,-0.340179 0.749916,-0.597507 1.177259,-0.771412 z m -0.851471,0.55661 -0.735,0.735001 -0.707108,-0.707104 0.735001,-0.735001 z M 25.5096,4.060242 24.039598,5.530243 23.332493,4.823135 24.802494,3.353134 Z m -2.940003,2.940006 -1.470001,1.470001 -0.707106,-0.707107 1.47,-1.470002 z m -2.940002,2.940002 -1.470001,1.470004 -0.707108,-0.707106 1.470001,-1.470005 z m -2.940003,2.940007 -1.470001,1.470001 -0.707107,-0.707106 1.470001,-1.470003 z m -2.940003,2.940004 -1.470002,1.470003 -0.707107,-0.707106 1.470002,-1.470003 z m -2.940004,2.940006 -1.470003,1.470005 -0.707106,-0.707107 1.470002,-1.470003 z M 7.86958,21.700275 6.399578,23.170279 5.692471,22.463171 7.162473,20.993168 Z M 4.929576,24.640282 3.459575,26.110283 2.752468,25.403177 4.222469,23.933174 Z m -2.940001,2.940002 -0.735,0.735001 -0.707107,-0.707106 0.734999,-0.735001 z m -0.735,0.735001 c -0.24885,0.248852 -0.435904,0.537414 -0.561602,0.847036 l -0.926556,-0.376158 c 0.174613,-0.430109 0.435111,-0.832042 0.781051,-1.177984 z m -0.556612,2.85643 c 0.126303,0.310373 0.313094,0.601816 0.56095,0.855869 L 0.54313,32.725906 c -0.340176,-0.348682 -0.597506,-0.74992 -0.77141,-1.177265 z m 0.556612,0.851478 0.668259,0.668259 -0.707106,0.707108 -0.66826,-0.668259 z m 2.004778,2.004776 1.336519,1.336518 -0.707106,0.707107 -1.336519,-1.336517 z m 2.673038,2.673035 1.336518,1.336517 -0.707106,0.707108 -1.336519,-1.336517 z m 2.673038,2.673035 0.668259,0.668258 -0.707106,0.707108 -0.66826,-0.668259 z m 0.668259,0.668258 c 0.248851,0.248852 0.537413,0.435906 0.847032,0.561604 L 9.744559,41.530457 C 9.314452,41.355843 8.91252,41.095345 8.566581,40.749405 Z m 2.856413,0.556614 c 0.31037,-0.126304 0.60181,-0.313095 0.855863,-0.560951 l 0.698324,0.715782 c -0.34868,0.340176 -0.749915,0.597508 -1.177258,0.771412 z m 0.851471,-0.556614 0.735,-0.735 0.707107,0.707107 -0.734999,0.735001 z m 2.204999,-2.205001 1.469999,-1.470006 0.707108,0.707108 -1.469999,1.470001 z m 2.939999,-2.940007 1.469999,-1.470001 0.707108,0.707104 -1.47,1.470005 z m 2.939998,-2.940006 1.47,-1.470001 0.707107,0.707105 -1.469999,1.470004 z m 2.939999,-2.940004 1.470001,-1.470003 0.707108,0.707107 -1.470001,1.470001 z m 2.940001,-2.940005 1.469999,-1.470003 0.707107,0.707106 -1.469999,1.470001 z m 2.939998,-2.940006 1.469999,-1.470001 0.707106,0.707105 -1.469997,1.470002 z m 2.939999,-2.940006 1.470001,-1.470003 0.707108,0.707105 -1.470002,1.470005 z m 2.939998,-2.940005 1.470002,-1.470003 0.707107,0.707106 -1.470001,1.470003 z m 2.939999,-2.940004 0.735001,-0.735002 0.707107,0.707105 -0.735,0.735003 z m 0.730663,-0.730612 c 0.249173,-0.255401 0.436241,-0.546377 0.562336,-0.855188 l 0.925797,0.378025 c -0.174141,0.426481 -0.431969,0.826595 -0.77235,1.175488 z m 0.562336,-2.861503 C 39.873466,10.416327 39.686398,10.125351 39.437225,9.869947 l 0.715783,-0.698324 c 0.340381,0.348892 0.598209,0.749008 0.77235,1.17549 z m -0.204445,-1.204352 0.707161,-0.707161 0.0086,0.00884 -0.715783,0.698322 z M 31.776039,1.501682 32.483147,0.794579 v 0 z m -4.414989,0 -0.707161,-0.707157 0.0088,-0.008621 0.698325,0.715778 z M 0.901021,27.961731 0.193914,27.254627 v -2e-6 z m 0,4.415016 -0.70716,0.707161 -0.008622,-0.0088 0.715782,-0.698322 z m 8.019114,8.019104 0.707106,-0.707107 1e-6,3e-6 z m 4.414991,0 0.707161,0.707161 -0.0088,0.0086 -0.698324,-0.715782 z m 26.45999,-26.460047 0.715836,0.698376 -0.0087,0.0087 -0.707108,-0.707106 z M 39.088009,10.227892 38.419754,9.559633 39.833969,8.14542 40.502224,8.813679 Z M 37.083241,8.223118 35.746727,6.8866 37.160942,5.472389 38.497456,6.808903 Z M 34.410213,5.550083 33.0737,4.213566 34.487919,2.799355 35.824429,4.135872 Z M 31.737188,2.877048 31.068932,2.20879 32.483147,0.794579 33.151405,1.462837 Z M 31.068932,2.20879 C 30.868628,2.008484 30.636751,1.85815 30.387375,1.756912 l 0.752321,-1.853111 c 0.490351,0.199074 0.948969,0.496292 1.343451,0.890778 z M 28.754538,1.761745 C 28.502655,1.86425 28.266111,2.01577 28.059374,2.217464 l -1.396649,-1.43156 c 0.395993,-0.386337 0.852126,-0.678936 1.337956,-0.876644 z m -0.686381,0.447045 -0.735002,0.735 -1.414214,-1.414211 0.735001,-0.735 z M 25.863153,4.413795 24.393152,5.883797 22.978939,4.469585 24.44894,2.99958 Z M 22.923151,7.353798 21.45315,8.823803 20.038937,7.409588 21.508938,5.939587 Z m -2.940002,2.940006 -1.470002,1.470003 -1.414215,-1.414213 1.470003,-1.470001 z m -2.940003,2.940005 -1.470002,1.470003 -1.414214,-1.414214 1.470002,-1.470001 z m -2.940003,2.940006 -1.470002,1.470003 -1.414215,-1.414213 1.470003,-1.470003 z M 11.163138,19.113821 9.693136,20.583824 8.278922,19.169611 9.748924,17.699608 Z M 8.223134,22.053827 6.753132,23.523832 5.338918,22.109619 6.80892,20.639614 Z m -2.940005,2.940008 -1.47,1.470002 -1.414214,-1.414214 1.47,-1.470001 z m -2.940001,2.940003 -0.734999,0.735001 -1.414215,-1.414214 0.735,-0.734998 z m -0.734999,0.735001 c -0.200305,0.200305 -0.350637,0.432182 -0.451879,0.68156 l -1.853111,-0.752316 c 0.199071,-0.490352 0.49629,-0.94897 0.890775,-1.343456 z m -0.447044,2.314414 c 0.102503,0.251885 0.254023,0.488431 0.455719,0.695168 l -1.431565,1.396648 c -0.386337,-0.395996 -0.678936,-0.85213 -0.876641,-1.337966 z m 0.447043,0.686387 0.668259,0.668258 -1.414212,1.414215 -0.66826,-0.668258 z m 2.004778,2.004776 1.336519,1.336517 -1.414213,1.414215 -1.336518,-1.336517 z M 6.285944,36.34745 7.622463,37.683968 6.20825,39.098183 4.871731,37.761665 Z m 2.673038,2.673035 0.668259,0.668259 -1.414212,1.414215 -0.66826,-0.668259 z m 0.66826,0.668262 c 0.200306,0.200306 0.432182,0.350636 0.681558,0.451878 L 9.556479,41.993732 C 9.066129,41.794662 8.607512,41.497444 8.213027,41.102959 Z m 2.314395,0.447041 c 0.251883,-0.102501 0.488425,-0.254021 0.695164,-0.455719 l 1.396649,1.431564 c -0.395993,0.386338 -0.852126,0.678936 -1.337956,0.876641 z m 0.686381,-0.447041 0.735,-0.735004 1.414215,1.414215 -0.735,0.735001 z m 2.204999,-2.205005 1.47,-1.470001 1.414215,1.414211 -1.47,1.470001 z m 2.939999,-2.940006 1.469999,-1.470002 1.414215,1.414212 -1.469999,1.470001 z m 2.939999,-2.940005 1.469999,-1.470003 1.414215,1.414211 -1.469999,1.470005 z m 2.939998,-2.940004 1.470001,-1.470003 1.414216,1.414211 -1.470002,1.470003 z m 2.940001,-2.940006 1.469999,-1.470004 1.414215,1.414214 -1.469999,1.470001 z m 2.939998,-2.940007 1.47,-1.470001 1.414213,1.414211 -1.469998,1.470003 z m 2.939999,-2.940004 1.470001,-1.470003 1.414215,1.414211 -1.470001,1.470003 z m 2.939999,-2.940006 1.470001,-1.470003 1.414215,1.414213 -1.470001,1.470003 z m 2.939998,-2.940005 0.735001,-0.735002 1.414215,1.414213 -0.735001,0.735001 z m 0.726326,-0.726219 c 0.203568,-0.208658 0.355259,-0.445064 0.457333,-0.69504 l 1.851589,0.756051 c -0.198166,0.485317 -0.491371,0.94 -0.877357,1.335636 z m 0.457333,-2.323332 c -0.102074,-0.249973 -0.253765,-0.486381 -0.457333,-0.695039 l 1.431565,-1.396645 c 0.385986,0.395634 0.679191,0.850319 0.877357,1.335636 z" /></g></g></g><g
       id="g48"><g
         id="g50"><g
           transform="translate(0,-0.600708)"
           id="g52"><path
             id="path54"
             style="fill:#1a1b1d;fill-opacity:0.47999998;fill-rule:nonzero;stroke:none"
             d="m 31.776016,40.395851 8.019074,-8.019104 c 1.201362,-1.201366 1.201362,-3.183617 0,-4.415016 L 13.335105,1.501682 c -1.201362,-1.201362 -3.183595,-1.201362 -4.41499,0 L 0.901021,9.520786 c -1.201361,1.201365 -1.201361,3.183619 0,4.415018 l 26.459987,26.460047 c 1.231395,1.201367 3.183611,1.201367 4.415008,0 z" /></g></g><g
         clip-path="url(#clipPath60)"
         id="g56"><g
           transform="translate(0,-0.600708)"
           id="g62"><path
             id="path64"
             style="fill:#6e56cf;fill-opacity:1;fill-rule:nonzero;stroke:none"
             d="m 31.776016,40.395851 0.353581,0.353581 -0.0044,0.0043 -0.349163,-0.357891 z m 8.019074,-8.019104 -0.353554,-0.353554 v 0 z m 0,-4.415016 0.35358,-0.353579 0.0043,0.0044 -0.357891,0.349159 z M 13.335105,1.501682 13.688659,1.148132 v 0 z m -4.41499,0 -0.353581,-0.353576 0.00442,-0.00431 0.349163,0.357887 z M 0.901021,9.520786 0.547468,9.167233 v 0 z m 0,4.415018 -0.35358,0.353579 -0.004311,-0.0044 0.357891,-0.349162 z m 26.459987,26.460047 -0.34919,0.357918 -0.0044,-0.0044 0.353554,-0.353554 z m 4.764171,0.357891 c -0.348892,0.340382 -0.749006,0.59821 -1.175487,0.772351 L 30.571667,40.6003 c 0.308809,-0.126095 0.599785,-0.313164 0.855186,-0.56234 z m -3.937849,0.772351 c -0.426481,-0.174141 -0.826595,-0.431969 -1.175485,-0.772351 l 0.698324,-0.715782 c 0.255403,0.249176 0.546377,0.436245 0.855186,0.56234 z m -1.179876,-0.776688 -0.735001,-0.735001 0.707108,-0.707107 0.735,0.735 z m -2.205,-2.205006 -1.469999,-1.470001 0.707107,-0.707104 1.47,1.470002 z m -2.939997,-2.940002 -1.470001,-1.470005 0.707108,-0.707104 1.470001,1.470001 z m -2.939998,-2.940006 -1.470002,-1.470005 0.707108,-0.707104 1.470001,1.470001 z m -2.94,-2.940007 -1.469998,-1.470001 0.707107,-0.707107 1.469998,1.470001 z m -2.939999,-2.940006 -1.469998,-1.470001 0.707108,-0.707106 1.469998,1.470003 z m -2.939998,-2.940004 -1.469999,-1.470003 0.707107,-0.707106 1.469999,1.470003 z m -2.939998,-2.940005 -1.47,-1.470005 0.707108,-0.707105 1.47,1.470003 z m -2.939998,-2.940006 -1.47,-1.470003 0.707108,-0.707106 1.47,1.470003 z m -2.939999,-2.940004 -0.734999,-0.735003 0.707107,-0.707105 0.735,0.735002 z M 0.54313,14.284966 c -0.340177,-0.348683 -0.597506,-0.74992 -0.771411,-1.177268 l 0.926244,-0.376924 c 0.126303,0.310373 0.313094,0.601814 0.56095,0.855867 z M -0.233584,10.345219 C -0.05897,9.91511 0.201527,9.513174 0.547468,9.167233 L 1.254575,9.874338 C 1.005725,10.12319 0.818671,10.411753 0.692972,10.721376 Z M 0.547468,9.167233 1.215726,8.498974 1.922833,9.206081 1.254575,9.874338 Z M 2.552241,7.162457 3.888757,5.825939 4.595864,6.533047 3.259348,7.869564 Z M 5.225272,4.489422 6.561788,3.152905 7.268895,3.860012 5.932379,5.196529 Z M 7.898304,1.816387 8.566562,1.148132 9.273668,1.855236 8.605411,2.523495 Z M 8.570952,1.143795 C 8.919632,0.803616 9.320868,0.546288 9.748212,0.372383 L 10.12514,1.298626 C 9.81477,1.424927 9.52333,1.611717 9.269278,1.859573 Z m 3.939729,-0.776714 c 0.430106,0.174614 0.832038,0.435112 1.177978,0.781051 L 12.981551,1.855236 C 12.7327,1.606384 12.444139,1.419331 12.134521,1.293633 Z m 1.177978,0.781051 0.734999,0.735001 -0.707107,0.707104 -0.735,-0.735001 z m 2.204998,2.205002 1.47,1.470005 -0.707108,0.707104 -1.47,-1.470001 z m 2.939999,2.940006 1.47,1.470002 -0.707108,0.707107 -1.469999,-1.470005 z m 2.939999,2.940007 1.469999,1.470003 -0.707107,0.707105 -1.47,-1.470003 z m 2.939999,2.940004 1.469997,1.470003 -0.707108,0.707106 -1.469997,-1.470003 z m 2.939998,2.940006 1.469998,1.470001 -0.707108,0.707106 -1.469997,-1.470001 z m 2.939997,2.940005 1.469999,1.470003 -0.707105,0.707105 -1.470002,-1.470003 z m 2.94,2.940006 1.469998,1.470003 -0.707108,0.707106 -1.469997,-1.470003 z m 2.939995,2.940004 1.470001,1.470003 -0.707107,0.707108 -1.470001,-1.470005 z m 2.939999,2.940005 0.735,0.735002 -0.707107,0.707106 -0.735001,-0.735001 z m 0.739338,0.739395 c 0.340175,0.34868 0.597507,0.749918 0.771412,1.177265 l -0.926243,0.376924 c -0.126305,-0.310373 -0.313095,-0.601816 -0.560951,-0.855867 z m 0.776714,3.939743 c -0.174614,0.430107 -0.435112,0.832042 -0.781052,1.177982 l -0.707107,-0.707104 c 0.248852,-0.248851 0.435905,-0.537414 0.561603,-0.847038 z m -0.781052,1.177982 -0.668254,0.668259 -0.707108,-0.707104 0.668255,-0.668259 z m -2.004768,2.004776 -1.336513,1.336521 -0.707108,-0.707107 1.336514,-1.336518 z m -2.673023,2.673039 -1.336514,1.336517 -0.707107,-0.707108 1.336513,-1.336517 z m -2.673027,2.673034 -0.668255,0.668259 -0.707109,-0.707108 0.668256,-0.668258 z m -1.021809,0.314705 0.707161,0.707161 -0.0088,0.0086 -0.698323,-0.715782 z M 39.79509,32.376747 39.087982,31.66964 v 0 z m 0,-4.415016 0.707161,-0.707159 0.0086,0.0088 -0.715782,0.698322 z M 13.335105,1.501682 14.042212,0.794579 v 0 z m -4.41499,0 L 8.212954,0.794525 8.22179,0.785904 Z M 0.901021,9.520786 0.193914,8.813679 v 0 z m 0,4.415018 -0.707161,0.707159 -0.008621,-0.0088 0.715782,-0.698323 z m 26.459987,26.460047 -0.698378,0.715836 -0.0087,-0.0087 0.707108,-0.707108 z m 5.113331,0.715782 c -0.395634,0.385987 -0.850317,0.679192 -1.335633,0.877358 l -0.756052,-1.851589 c 0.249973,-0.10207 0.486378,-0.253762 0.695036,-0.457333 z m -4.476023,0.877358 C 27.513,41.790825 27.058317,41.49762 26.662682,41.111633 l 1.39665,-1.431564 c 0.208658,0.203571 0.445063,0.355263 0.695036,0.457333 z m -1.344416,-0.886032 -0.735,-0.735001 1.414215,-1.414215 0.735,0.735004 z m -2.205,-2.205006 -1.469999,-1.470001 1.414215,-1.414211 1.469999,1.470001 z m -2.939996,-2.940006 -1.470002,-1.470001 1.414215,-1.414212 1.470002,1.470002 z m -2.939999,-2.940003 -1.470001,-1.470005 1.414215,-1.414211 1.470001,1.470003 z m -2.94,-2.940006 -1.469998,-1.470003 1.414215,-1.414211 1.469997,1.470001 z m -2.939998,-2.940006 -1.469999,-1.470001 1.414215,-1.414214 1.469999,1.470004 z m -2.939999,-2.940005 -1.469999,-1.470005 1.414215,-1.414211 1.47,1.470003 z m -2.939998,-2.940006 -1.47,-1.470003 1.414216,-1.414211 1.469999,1.470003 z m -2.939998,-2.940004 -1.47,-1.470003 1.414215,-1.414213 1.47,1.470003 z m -2.939998,-2.940006 -0.735,-0.735001 1.414215,-1.414213 0.735,0.735002 z M 0.185239,14.634127 C -0.201098,14.238131 -0.493698,13.781994 -0.691402,13.29616 l 1.852487,-0.753849 c 0.102503,0.251886 0.254023,0.488432 0.455719,0.695169 z m -0.882101,-4.476986 c 0.199071,-0.490355 0.49629,-0.948973 0.890776,-1.343462 l 1.414215,1.414213 C 1.407824,10.428198 1.257492,10.660076 1.15625,10.909454 Z M 0.193914,8.813679 0.862172,8.14542 2.276386,9.559633 1.608128,10.227892 Z M 2.198688,6.808903 3.535203,5.472385 4.949418,6.8866 3.612902,8.223118 Z M 4.871718,4.135872 6.208234,2.799355 7.622448,4.213566 6.285933,5.550083 Z M 7.54475,1.462837 8.213008,0.794579 9.627222,2.20879 8.958964,2.877048 Z M 8.22179,0.785904 C 8.617784,0.399567 9.073916,0.106968 9.559748,-0.09074 l 0.753856,1.852485 C 10.061721,1.864246 9.825178,2.01577 9.61844,2.217464 Z m 4.476972,-0.882103 c 0.49035,0.199074 0.948967,0.496292 1.34345,0.890778 L 12.627997,2.20879 C 12.427691,2.008484 12.195815,1.85815 11.946441,1.756912 Z m 1.34345,0.890778 0.735,0.735 -1.414215,1.414211 -0.735,-0.735 z m 2.204999,2.205001 1.47,1.470005 -1.414215,1.414212 -1.470001,-1.470002 z m 2.939999,2.940007 1.469999,1.470005 -1.414215,1.414211 -1.470001,-1.470005 z m 2.939999,2.940006 1.469999,1.470003 -1.414215,1.414211 -1.470001,-1.470003 z m 2.939998,2.940006 1.469998,1.470001 -1.414215,1.414212 -1.469998,-1.470002 z m 2.939999,2.940005 1.469997,1.470001 -1.414215,1.414213 -1.469997,-1.470003 z m 2.939997,2.940006 1.469999,1.470003 -1.414213,1.414211 -1.470001,-1.470003 z m 2.94,2.940004 1.469998,1.470003 -1.414215,1.414212 -1.469998,-1.470004 z m 2.939995,2.940004 1.470001,1.470005 -1.414215,1.414212 -1.470001,-1.470003 z m 2.939999,2.940007 0.735,0.735002 -1.414215,1.414212 -0.735,-0.735003 z m 0.743675,0.743784 c 0.386337,0.395996 0.678936,0.852131 0.87664,1.337965 l -1.852485,0.753851 c -0.102501,-0.251887 -0.254025,-0.48843 -0.455719,-0.69517 z m 0.882099,4.476984 c -0.19907,0.49035 -0.496288,0.948972 -0.890774,1.343458 L 39.087982,31.66964 c 0.200306,-0.200306 0.35064,-0.432185 0.451878,-0.681563 z m -0.890774,1.343458 -0.668255,0.668259 -1.414215,-1.414212 0.668255,-0.668258 z m -2.004768,2.004776 -1.336514,1.336517 -1.414215,-1.414211 1.336514,-1.336517 z m -2.673023,2.673035 -1.336514,1.336517 -1.414215,-1.414208 1.33651,-1.336521 z m -2.673027,2.673038 -0.668255,0.668259 -1.414217,-1.414212 0.668257,-0.668258 z" /></g></g></g><g
       id="g66"><g
         id="g68"><g
           transform="translate(47.303711,46.703247)"
           id="g70"><path
             id="path72"
             style="fill:#1a1b1d;fill-opacity:0.47999998;fill-rule:nonzero;stroke:none"
             d="m 31.776039,40.395851 8.019077,-8.019108 c 1.201363,-1.201362 1.201363,-3.183614 0,-4.415012 L 13.335126,1.501678 c -1.201363,-1.201362 -3.183595,-1.201362 -4.414991,0 l -8.019114,8.01911 c -1.201362,1.201365 -1.201362,3.183615 0,4.415013 l 26.460029,26.46005 c 1.231395,1.201367 3.183593,1.201367 4.414989,0 z" /></g></g><g
         clip-path="url(#clipPath78)"
         id="g74"><g
           transform="translate(47.303711,46.703247)"
           id="g80"><path
             id="path82"
             style="fill:#6e56cf;fill-opacity:1;fill-rule:nonzero;stroke:none"
             d="m 31.776039,40.395851 0.353581,0.353581 -0.0044,0.0043 -0.349163,-0.357891 z m 8.019077,-8.019108 -0.353553,-0.35355 v 0 z m 0,-4.415012 0.353581,-0.353581 0.0043,0.0044 -0.357892,0.349163 z M 13.335126,1.501678 13.68868,1.148125 v 0 z m -4.414991,0 -0.35358,-0.35358 0.00442,-0.00431 0.349163,0.357891 z M 0.901021,9.520788 0.547468,9.167236 v 0 z m 0,4.415013 -0.35358,0.35358 -0.004311,-0.0044 0.357891,-0.349163 z m 26.460029,26.46005 -0.34919,0.357918 -0.0044,-0.0044 0.353554,-0.353554 z m 4.764152,0.357891 c -0.34889,0.340382 -0.749,0.59821 -1.17548,0.772351 L 30.571695,40.6003 c 0.308806,-0.126095 0.599779,-0.313164 0.855183,-0.56234 z m -3.937836,0.772351 c -0.426477,-0.174141 -0.826589,-0.431969 -1.175479,-0.772351 l 0.698324,-0.715782 c 0.255403,0.249176 0.546377,0.436245 0.855184,0.56234 z m -1.17987,-0.776688 -0.735001,-0.735001 0.707108,-0.707107 0.735,0.735 z m -2.205002,-2.205006 -1.470003,-1.470001 0.707107,-0.707108 1.470002,1.470006 z m -2.940004,-2.940006 -1.470002,-1.470001 0.707108,-0.707108 1.470001,1.470005 z m -2.940003,-2.940002 -1.470001,-1.470005 0.707108,-0.707104 1.470001,1.470001 z m -2.940003,-2.940007 -1.470002,-1.470005 0.707107,-0.707103 1.470001,1.470001 z m -2.940004,-2.940006 -1.470002,-1.470003 0.707108,-0.707108 1.470002,1.470004 z m -2.940004,-2.940006 -1.470002,-1.470005 0.707107,-0.707106 1.470003,1.470003 z M 7.162473,20.904366 5.692471,19.434362 6.399578,18.727255 7.86958,20.19726 Z M 4.222469,17.964359 2.752468,16.494356 3.459575,15.787251 4.929576,17.257252 Z m -2.940002,-2.940004 -0.734999,-0.735001 0.707107,-0.707105 0.735,0.734998 z M 0.54313,14.284964 c -0.340176,-0.348683 -0.597506,-0.74992 -0.77141,-1.177267 l 0.926243,-0.376925 c 0.126303,0.310373 0.313094,0.601814 0.56095,0.855867 z M -0.233583,10.345221 C -0.05897,9.91511 0.201527,9.513176 0.547468,9.167236 l 0.707107,0.707106 c -0.24885,0.24885 -0.435904,0.537413 -0.561602,0.847034 z M 0.547468,9.167236 1.215728,8.498974 1.922834,9.206081 1.254575,9.874342 Z M 2.552247,7.162457 3.888766,5.825939 4.595872,6.533047 3.259353,7.869564 Z M 5.225284,4.489422 6.561803,3.152905 7.26891,3.860008 5.932391,5.196529 Z M 7.898322,1.816383 8.566582,1.148125 9.273688,1.855232 8.605429,2.523491 Z M 8.570972,1.143787 C 8.919653,0.803612 9.320888,0.546284 9.748232,0.372379 L 10.12516,1.298618 C 9.81479,1.424923 9.52335,1.611713 9.269298,1.85957 Z m 3.93973,-0.776714 c 0.430106,0.174614 0.832038,0.435112 1.177978,0.781052 L 12.981572,1.855232 C 12.732721,1.60638 12.44416,1.419327 12.134542,1.293629 Z m 1.177978,0.781052 0.734999,0.735004 -0.707107,0.707104 -0.735,-0.735001 z M 15.893679,3.35313 17.363678,4.823135 16.65657,5.530239 15.186571,4.060238 Z m 2.939998,2.940007 1.47,1.470001 L 19.596569,8.470245 18.12657,7.00024 Z m 2.939999,2.940006 1.469999,1.470001 -0.707107,0.707106 -1.47,-1.470002 z m 2.939999,2.940004 1.470001,1.470003 -0.707108,0.707106 -1.470001,-1.470003 z m 2.94,2.940006 1.469999,1.470002 -0.707107,0.707105 -1.469999,-1.470001 z m 2.939999,2.940005 1.469997,1.470003 -0.707106,0.707106 -1.469999,-1.470002 z m 2.939998,2.940006 1.470002,1.470003 -0.707108,0.707106 -1.470001,-1.470003 z m 2.939999,2.940006 1.470001,1.470003 -0.707107,0.707106 -1.470002,-1.470003 z m 2.939999,2.940005 0.735,0.735002 -0.707107,0.707106 -0.735001,-0.735003 z m 0.739338,0.739393 c 0.340175,0.348682 0.597507,0.74992 0.771411,1.177265 l -0.926242,0.376926 C 39.871872,28.856386 39.685081,28.564945 39.437225,28.31089 Z m 0.776714,3.939745 c -0.174614,0.430109 -0.435112,0.832044 -0.781052,1.177984 l -0.707107,-0.707104 c 0.248851,-0.248851 0.435905,-0.537416 0.561603,-0.847038 z m -0.781052,1.177984 -0.668255,0.668259 -0.707107,-0.707104 0.668255,-0.668259 z m -2.004768,2.004776 -1.336514,1.336517 -0.707107,-0.707103 1.336513,-1.336518 z m -2.673027,2.673035 -1.33651,1.336521 -0.707111,-0.707108 1.336513,-1.336517 z m -2.673023,2.673038 -0.668259,0.668259 -0.707108,-0.707108 0.668259,-0.668258 z m -1.021813,0.314705 0.707161,0.707161 -0.0088,0.0086 -0.698326,-0.715782 z m 8.019077,-8.019108 -0.707107,-0.707103 v -2e-6 z m 0,-4.415012 0.707161,-0.707161 0.0086,0.0088 -0.715783,0.698324 z M 13.335126,1.501678 14.042233,0.794575 v 0 z m -4.414991,0 -0.70716,-0.70716 0.00883,-0.008622 0.698325,0.715782 z M 0.901021,9.520788 0.193914,8.813683 h 1e-6 z m 0,4.415013 -0.70716,0.707161 -0.008622,-0.0088 0.715782,-0.698324 z m 26.460029,26.46005 -0.698378,0.715836 -0.0087,-0.0087 0.707108,-0.707108 z m 5.113315,0.715782 c -0.395633,0.385987 -0.850315,0.679188 -1.335628,0.877358 l -0.756056,-1.851589 c 0.249971,-0.10207 0.486376,-0.253762 0.695034,-0.457333 z m -4.476013,0.877358 c -0.485313,-0.19817 -0.939993,-0.491371 -1.335627,-0.877358 l 1.396649,-1.431564 c 0.208658,0.203571 0.445062,0.355263 0.695036,0.457333 z m -1.34441,-0.886032 -0.735001,-0.735001 1.414214,-1.414215 0.735002,0.735001 z m -2.205002,-2.205006 -1.470003,-1.470001 1.414215,-1.414215 1.470001,1.470005 z m -2.940004,-2.940006 -1.470001,-1.470001 1.414215,-1.414216 1.470001,1.470006 z m -2.940003,-2.940003 -1.470001,-1.470005 1.414215,-1.414211 1.470002,1.470001 z m -2.940003,-2.940006 -1.470001,-1.470005 1.414214,-1.414211 1.470001,1.470001 z m -2.940003,-2.940006 -1.470002,-1.470005 1.414214,-1.414211 1.470003,1.470003 z M 9.748922,24.197924 8.27892,22.727921 9.693134,21.313707 11.163136,22.78371 Z M 6.80892,21.257919 5.338918,19.787916 6.753132,18.373703 8.223134,19.843706 Z m -2.940005,-2.940008 -1.47,-1.470001 1.414214,-1.414213 1.470001,1.470001 z m -2.940001,-2.940002 -0.735,-0.735001 1.414215,-1.414213 0.734999,0.735001 z M 0.185239,14.634125 C -0.201098,14.238129 -0.493697,13.781992 -0.691402,13.29616 l 1.852487,-0.753851 c 0.102503,0.251886 0.254023,0.48843 0.455719,0.695169 z m -0.8821,-4.476984 C -0.49779,9.666788 -0.200571,9.208168 0.193914,8.813683 l 1.414215,1.414211 C 1.407823,10.4282 1.257491,10.660078 1.15625,10.909456 Z M 0.193915,8.813683 0.862174,8.145424 2.276387,9.559635 1.608128,10.227896 Z M 2.198693,6.808903 3.535212,5.472385 4.949426,6.8866 3.612906,8.223118 Z M 4.871731,4.135868 6.20825,2.799351 7.622463,4.213562 6.285944,5.550083 Z M 7.544769,1.462833 8.213028,0.794571 9.627241,2.208786 8.958982,2.877045 Z M 8.22181,0.785896 C 8.617805,0.399563 9.073937,0.10696 9.559768,-0.090744 l 0.753856,1.852486 C 10.061741,1.864243 9.825198,2.015762 9.61846,2.217461 Z m 4.476973,-0.882099 c 0.49035,0.199074 0.948966,0.496292 1.34345,0.890778 L 12.628018,2.208786 C 12.427712,2.00848 12.195836,1.858147 11.946461,1.756908 Z m 1.34345,0.890778 0.735,0.735 -1.414215,1.414212 -0.735,-0.735001 z m 2.204999,2.205002 1.47,1.470005 -1.414215,1.414211 -1.47,-1.470005 z m 2.939999,2.940006 1.469999,1.470001 -1.414215,1.414215 -1.469999,-1.470005 z m 2.939999,2.940006 1.469999,1.470003 -1.414215,1.414211 -1.469999,-1.470003 z m 2.939998,2.940004 1.470002,1.470004 -1.414216,1.414211 -1.470001,-1.470001 z m 2.940001,2.940007 1.469999,1.470003 -1.414215,1.414211 -1.469999,-1.470001 z m 2.939998,2.940006 1.469998,1.470001 -1.414213,1.414213 -1.47,-1.470003 z m 2.939999,2.940004 1.470001,1.470005 -1.414215,1.414212 -1.470001,-1.470004 z m 2.939999,2.940007 1.470001,1.470003 -1.414215,1.414213 -1.470001,-1.470005 z m 2.939998,2.940006 0.735001,0.735 -1.414215,1.414212 -0.735001,-0.735001 z m 0.743676,0.743784 c 0.386337,0.395996 0.678936,0.852133 0.87664,1.337965 l -1.852486,0.753851 c -0.102501,-0.251887 -0.254024,-0.488432 -0.455719,-0.69517 z m 0.882099,4.476984 c -0.19907,0.490352 -0.496289,0.948974 -0.890774,1.34346 l -1.414215,-1.414213 c 0.200306,-0.200304 0.350639,-0.432185 0.451877,-0.681563 z m -0.890774,1.34346 -0.668255,0.668259 -1.414215,-1.414212 0.668255,-0.668258 z m -2.004768,2.004776 -1.336514,1.336517 -1.414215,-1.414211 1.336514,-1.336517 z m -2.673027,2.673035 -1.33651,1.336517 -1.414219,-1.414211 1.336513,-1.336518 z m -2.673024,2.673034 -0.668258,0.668263 -1.414215,-1.414212 0.668256,-0.668258 z" /></g></g></g></g></svg>