<svg width="56" height="56" viewBox="0 0 56 56" fill="none" xmlns="http://www.w3.org/2000/svg">
<path d="M25.3242 20.2212L20.2212 25.3242C19.4567 26.0887 18.1952 26.0887 17.4116 25.3242L0.573379 8.48601C-0.191126 7.7215 -0.191126 6.46007 0.573379 5.67645L5.69556 0.573379C6.46007 -0.191126 7.7215 -0.191126 8.50512 0.573379L25.3434 17.4116C26.1079 18.1952 26.1078 19.4375 25.3242 20.2212Z" fill="#ECEDF0"/>
<path d="M55.4268 50.3236L50.3237 55.4266C49.5592 56.1912 48.2978 56.1912 47.5142 55.4266L30.6759 38.5884C29.9114 37.8239 29.9114 36.5625 30.6759 35.7789L35.779 30.6758C36.5435 29.9113 37.8049 29.9113 38.5886 30.6758L55.4268 47.514C56.1913 48.2976 56.1913 49.54 55.4268 50.3236Z" fill="#ECEDF0"/>
<path d="M20.2212 30.6758L25.3242 35.7789C26.0887 36.5434 26.0887 37.8048 25.3242 38.5884L8.486 55.4266C7.72149 56.1912 6.46007 56.1912 5.67645 55.4266L0.573379 50.3236C-0.191126 49.5591 -0.191126 48.2976 0.573379 47.514L17.4116 30.6758C18.1952 29.9113 19.4375 29.9113 20.2212 30.6758Z" fill="#ECEDF0"/>
<path d="M50.3237 0.573379L55.4268 5.67645C56.1913 6.44096 56.1913 7.70239 55.4268 8.48601L38.5886 25.3242C37.824 26.0887 36.5626 26.0887 35.779 25.3242L30.6759 20.2212C29.9114 19.4567 29.9114 18.1952 30.6759 17.4116L47.5142 0.573379C48.2978 -0.191126 49.5401 -0.191126 50.3237 0.573379Z" fill="#ECEDF0"/>
</svg>
