<svg xmlns="http://www.w3.org/2000/svg" width="326" height="240" fill="none" viewBox="0 0 326 240"><g clip-path="url(#a)"><g opacity=".8"><rect width="45" height="45" x="-3.5" y="-1.5" fill="#ACD8FC" rx="9.5"/><rect width="45" height="45" x="-3.5" y="-1.5" stroke="#FCFCFD" stroke-width="3" rx="9.5"/><rect width="45" height="45" x="44.5" y="-1.5" fill="#8EC8F6" rx="9.5"/><rect width="45" height="45" x="44.5" y="-1.5" stroke="#FCFCFD" stroke-width="3" rx="9.5"/><rect width="45" height="45" x="92.5" y="-1.5" fill="#5EB1EF" rx="9.5"/><rect width="45" height="45" x="92.5" y="-1.5" stroke="#FCFCFD" stroke-width="3" rx="9.5"/><rect width="45" height="45" x="140.5" y="-1.5" fill="#0090FF" rx="9.5"/><rect width="45" height="45" x="140.5" y="-1.5" stroke="#FCFCFD" stroke-width="3" rx="9.5"/><rect width="45" height="45" x="188.5" y="-1.5" fill="#0588F0" rx="9.5"/><rect width="45" height="45" x="188.5" y="-1.5" stroke="#FCFCFD" stroke-width="3" rx="9.5"/><rect width="45" height="45" x="236.5" y="-1.5" fill="#0D74CE" rx="9.5"/><rect width="45" height="45" x="236.5" y="-1.5" stroke="#FCFCFD" stroke-width="3" rx="9.5"/><rect width="45" height="45" x="284.5" y="-1.5" fill="#084982" rx="9.5"/><rect width="45" height="45" x="284.5" y="-1.5" stroke="#FCFCFD" stroke-width="3" rx="9.5"/><rect width="45" height="45" x="-3.5" y="46.5" fill="#A1DED2" rx="9.5"/><rect width="45" height="45" x="-3.5" y="46.5" stroke="#FCFCFD" stroke-width="3" rx="9.5"/><rect width="45" height="45" x="44.5" y="46.5" fill="#83CDC1" rx="9.5"/><rect width="45" height="45" x="44.5" y="46.5" stroke="#FCFCFD" stroke-width="3" rx="9.5"/><rect width="45" height="45" x="92.5" y="46.5" fill="#53B9AB" rx="9.5"/><rect width="45" height="45" x="92.5" y="46.5" stroke="#FCFCFD" stroke-width="3" rx="9.5"/><rect width="45" height="45" x="140.5" y="46.5" fill="#12A594" rx="9.5"/><rect width="45" height="45" x="140.5" y="46.5" stroke="#FCFCFD" stroke-width="3" rx="9.5"/><rect width="45" height="45" x="188.5" y="46.5" fill="#0D9B8A" rx="9.5"/><rect width="45" height="45" x="188.5" y="46.5" stroke="#FCFCFD" stroke-width="3" rx="9.5"/><rect width="45" height="45" x="236.5" y="46.5" fill="#008573" rx="9.5"/><rect width="45" height="45" x="236.5" y="46.5" stroke="#FCFCFD" stroke-width="3" rx="9.5"/><rect width="45" height="45" x="284.5" y="46.5" fill="#003D35" rx="9.5"/><rect width="45" height="45" x="284.5" y="46.5" stroke="#FCFCFD" stroke-width="3" rx="9.5"/><rect width="45" height="45" x="-3.5" y="94.5" fill="#FAF8FF" rx="9.5"/><rect width="45" height="45" x="-3.5" y="94.5" stroke="#FCFCFD" stroke-width="3" rx="9.5"/><rect width="45" height="45" x="44.5" y="94.5" fill="#C2B5F5" rx="9.5"/><rect width="45" height="45" x="44.5" y="94.5" stroke="#FCFCFD" stroke-width="3" rx="9.5"/><rect width="45" height="45" x="92.5" y="94.5" fill="#AA99EC" rx="9.5"/><rect width="45" height="45" x="92.5" y="94.5" stroke="#FCFCFD" stroke-width="3" rx="9.5"/><rect width="45" height="45" x="140.5" y="94.5" fill="#6E56CF" rx="9.5"/><rect width="45" height="45" x="140.5" y="94.5" stroke="#FCFCFD" stroke-width="3" rx="9.5"/><rect width="45" height="45" x="188.5" y="94.5" fill="#654DC4" rx="9.5"/><rect width="45" height="45" x="188.5" y="94.5" stroke="#FCFCFD" stroke-width="3" rx="9.5"/><rect width="45" height="45" x="236.5" y="94.5" fill="#6550B9" rx="9.5"/><rect width="45" height="45" x="236.5" y="94.5" stroke="#FCFCFD" stroke-width="3" rx="9.5"/><rect width="45" height="45" x="284.5" y="94.5" fill="#413182" rx="9.5"/><rect width="45" height="45" x="284.5" y="94.5" stroke="#FCFCFD" stroke-width="3" rx="9.5"/><rect width="45" height="45" x="-3.5" y="142.5" fill="#E0C4F4" rx="9.5"/><rect width="45" height="45" x="-3.5" y="142.5" stroke="#FCFCFD" stroke-width="3" rx="9.5"/><rect width="45" height="45" x="44.5" y="142.5" fill="#D1AFEC" rx="9.5"/><rect width="45" height="45" x="44.5" y="142.5" stroke="#FCFCFD" stroke-width="3" rx="9.5"/><rect width="45" height="45" x="92.5" y="142.5" fill="#BE93E4" rx="9.5"/><rect width="45" height="45" x="92.5" y="142.5" stroke="#FCFCFD" stroke-width="3" rx="9.5"/><rect width="45" height="45" x="140.5" y="142.5" fill="#8E4EC6" rx="9.5"/><rect width="45" height="45" x="140.5" y="142.5" stroke="#FCFCFD" stroke-width="3" rx="9.5"/><rect width="45" height="45" x="188.5" y="142.5" fill="#8347B9" rx="9.5"/><rect width="45" height="45" x="188.5" y="142.5" stroke="#FCFCFD" stroke-width="3" rx="9.5"/><rect width="45" height="45" x="236.5" y="142.5" fill="#8145B5" rx="9.5"/><rect width="45" height="45" x="236.5" y="142.5" stroke="#FCFCFD" stroke-width="3" rx="9.5"/><rect width="45" height="45" x="284.5" y="142.5" fill="#572E7A" rx="9.5"/><rect width="45" height="45" x="284.5" y="142.5" stroke="#FCFCFD" stroke-width="3" rx="9.5"/><rect width="45" height="45" x="-3.5" y="190.5" fill="#FFC182" rx="9.5"/><rect width="45" height="45" x="-3.5" y="190.5" stroke="#FCFCFD" stroke-width="3" rx="9.5"/><rect width="45" height="45" x="44.5" y="190.5" fill="#F5AE73" rx="9.5"/><rect width="45" height="45" x="44.5" y="190.5" stroke="#FCFCFD" stroke-width="3" rx="9.5"/><rect width="45" height="45" x="92.5" y="190.5" fill="#EC9455" rx="9.5"/><rect width="45" height="45" x="92.5" y="190.5" stroke="#FCFCFD" stroke-width="3" rx="9.5"/><rect width="45" height="45" x="140.5" y="190.5" fill="#F76B15" rx="9.5"/><rect width="45" height="45" x="140.5" y="190.5" stroke="#FCFCFD" stroke-width="3" rx="9.5"/><rect width="45" height="45" x="188.5" y="190.5" fill="#EF5F00" rx="9.5"/><rect width="45" height="45" x="188.5" y="190.5" stroke="#FCFCFD" stroke-width="3" rx="9.5"/><rect width="45" height="45" x="236.5" y="190.5" fill="#CC4E00" rx="9.5"/><rect width="45" height="45" x="236.5" y="190.5" stroke="#FCFCFD" stroke-width="3" rx="9.5"/><rect width="45" height="45" x="284.5" y="190.5" fill="#8A3500" rx="9.5"/><rect width="45" height="45" x="284.5" y="190.5" stroke="#FCFCFD" stroke-width="3" rx="9.5"/></g><path fill="url(#b)" d="M0 0h326v240H0z"/><path fill="url(#c)" d="M0 0h326v240H0z"/><rect width="42" height="42" x="142" y="96" fill="#6E56CF" rx="8"/><path fill="#FAF8FF" d="M164.677 113.586a.807.807 0 0 0-1.141-1.141l-7.048 7.047c-.632.631-1.105 1.104-1.36 1.718-.254.614-.254 1.283-.253 2.176v.932c0 .445.362.807.807.807h.932c.893.001 1.562.001 2.176-.253.614-.255 1.087-.728 1.718-1.36l7.047-7.048a.807.807 0 0 0-1.141-1.141l-1.97 1.969a.5.5 0 0 1-.154.127c-.046.019-.097.019-.199.019h-2.058c-.514 0-.771 0-.835-.154s.118-.336.481-.699zm.736-4.476a.803.803 0 1 0-1.136 1.136l5.477 5.477a.803.803 0 1 0 1.136-1.136l-.769-.768a.14.14 0 0 1 .001-.2l.024-.024.036-.036c.2-.2.351-.351.463-.508a2.29 2.29 0 0 0 0-2.653c-.112-.157-.263-.308-.463-.508l-.072-.072c-.2-.2-.351-.351-.508-.463a2.29 2.29 0 0 0-2.653 0c-.157.112-.308.263-.508.463l-.036.036-.024.024a.14.14 0 0 1-.2.001z"/></g><defs><radialGradient id="b" cx="0" cy="0" r="1" gradientTransform="matrix(313.5 0 0 219.738 163 120)" gradientUnits="userSpaceOnUse"><stop stop-color="#F9F9FB" stop-opacity="0"/><stop offset=".791" stop-color="#F9F9FB"/></radialGradient><linearGradient id="c" x1="163" x2="163" y1="-46" y2="240" gradientUnits="userSpaceOnUse"><stop stop-color="#F9F9FB" stop-opacity="0"/><stop offset=".98" stop-color="#F9F9FB"/></linearGradient><clipPath id="a"><path fill="#fff" d="M0 0h326v240H0z"/></clipPath></defs></svg>