<svg width="668" height="304" viewBox="0 0 668 304" fill="none" xmlns="http://www.w3.org/2000/svg">
<ellipse cx="334" cy="167" rx="194" ry="167" fill="url(#paint0_radial_10609_4215)"/>
<rect x="84" y="148" width="88" height="8" rx="4" fill="#303236"/>
<rect x="84" y="84" width="56" height="8" rx="4" fill="#303236"/>
<rect x="84" y="212" width="88" height="8" rx="4" fill="#303236"/>
<rect x="84" y="164" width="40" height="8" rx="4" fill="#303236"/>
<rect x="84" y="100" width="88" height="8" rx="4" fill="#303236"/>
<rect x="84" y="228" width="64" height="8" rx="4" fill="#303236"/>
<rect x="40" y="144" width="32" height="32" rx="16" fill="#222326"/>
<path d="M52.385 162.321C51.4419 162.883 48.9689 164.029 50.4751 165.464C51.2109 166.165 52.0303 166.667 53.0606 166.667H58.9394C59.9697 166.667 60.7891 166.165 61.5249 165.464C63.0311 164.029 60.5581 162.883 59.6149 162.321C57.4032 161.004 54.5968 161.004 52.385 162.321Z" fill="#4B4D53"/>
<path d="M59 156.333C59 157.99 57.6569 159.333 56 159.333C54.3431 159.333 53 157.99 53 156.333C53 154.676 54.3431 153.333 56 153.333C57.6569 153.333 59 154.676 59 156.333Z" fill="#4B4D53"/>
<rect x="40" y="80" width="32" height="32" rx="16" fill="#222326"/>
<path d="M52.385 98.3211C51.4419 98.8827 48.9689 100.029 50.4751 101.464C51.2109 102.165 52.0303 102.667 53.0606 102.667H58.9394C59.9697 102.667 60.7891 102.165 61.5249 101.464C63.0311 100.029 60.5581 98.8827 59.6149 98.3211C57.4032 97.0041 54.5968 97.0041 52.385 98.3211Z" fill="#4B4D53"/>
<path d="M59 92.3333C59 93.9902 57.6569 95.3333 56 95.3333C54.3431 95.3333 53 93.9902 53 92.3333C53 90.6765 54.3431 89.3333 56 89.3333C57.6569 89.3333 59 90.6765 59 92.3333Z" fill="#4B4D53"/>
<rect x="40" y="208" width="32" height="32" rx="16" fill="#222326"/>
<path d="M52.385 226.321C51.4419 226.883 48.9689 228.029 50.4751 229.464C51.2109 230.165 52.0303 230.667 53.0606 230.667H58.9394C59.9697 230.667 60.7891 230.165 61.5249 229.464C63.0311 228.029 60.5581 226.883 59.6149 226.321C57.4032 225.004 54.5968 225.004 52.385 226.321Z" fill="#4B4D53"/>
<path d="M59 220.333C59 221.99 57.6569 223.333 56 223.333C54.3431 223.333 53 221.99 53 220.333C53 218.676 54.3431 217.333 56 217.333C57.6569 217.333 59 218.676 59 220.333Z" fill="#4B4D53"/>
<rect x="588" y="150" width="40" height="20" rx="10" fill="#222326"/>
<rect x="591" y="153" width="14" height="14" rx="7" fill="#4B4D53"/>
<rect x="588" y="86" width="40" height="20" rx="10" fill="#222326"/>
<rect x="611" y="89" width="14" height="14" rx="7" fill="#6E56CF"/>
<rect x="588" y="214" width="40" height="20" rx="10" fill="#222326"/>
<rect x="591" y="217" width="14" height="14" rx="7" fill="#4B4D53"/>
<line x1="40" y1="127.5" x2="628" y2="127.5" stroke="url(#paint1_linear_10609_4215)"/>
<line x1="40" y1="191.5" x2="628" y2="191.5" stroke="url(#paint2_linear_10609_4215)"/>
<rect x="500" y="144" width="32" height="32" rx="8" fill="#222326"/>
<path fill-rule="evenodd" clip-rule="evenodd" d="M514.882 153.506C515.609 153.276 516.391 153.276 517.117 153.506C517.84 153.735 518.408 154.277 518.979 155.04C519.547 155.8 520.175 156.86 520.985 158.226L521.017 158.28C521.827 159.646 522.455 160.706 522.846 161.565C523.24 162.429 523.436 163.174 523.279 163.891C523.122 164.612 522.734 165.268 522.169 165.764C521.605 166.258 520.837 166.467 519.87 166.567C518.909 166.667 517.651 166.667 516.033 166.667H515.967C514.348 166.667 513.091 166.667 512.129 166.567C511.163 166.467 510.395 166.258 509.831 165.764C509.266 165.268 508.878 164.612 508.72 163.891C508.564 163.174 508.76 162.429 509.153 161.565C509.545 160.706 510.173 159.646 510.983 158.28L511.015 158.226C511.824 156.86 512.453 155.8 513.021 155.04C513.592 154.277 514.159 153.735 514.882 153.506Z" fill="#6E56CF"/>
<path fill-rule="evenodd" clip-rule="evenodd" d="M515.318 163.252C515.318 162.893 515.622 162.602 515.997 162.602H516.003C516.378 162.602 516.682 162.893 516.682 163.252C516.682 163.611 516.378 163.902 516.003 163.902H515.997C515.622 163.902 515.318 163.611 515.318 163.252ZM515.318 160.65C515.318 161.01 515.623 161.301 516 161.301C516.377 161.301 516.682 161.01 516.682 160.65V158.049C516.682 157.69 516.377 157.398 516 157.398C515.623 157.398 515.318 157.69 515.318 158.049V160.65Z" fill="#C2B5F5"/>
<rect x="500" y="80" width="32" height="32" rx="8" fill="#222326"/>
<path fill-rule="evenodd" clip-rule="evenodd" d="M516 88.8333C515.739 88.8333 515.48 88.9135 515.237 89.0053C514.99 89.0986 514.684 89.2349 514.31 89.4013C513.761 89.6457 513.025 89.93 512.248 90.1513C511.681 90.3129 511.211 90.4467 510.853 90.5859C510.492 90.726 510.137 90.9097 509.894 91.2326C509.66 91.5435 509.575 91.901 509.536 92.2623C509.5 92.6076 509.5 93.0373 509.5 93.5422V95.4679C509.5 97.5117 510.421 99.1281 511.523 100.325C512.621 101.517 513.974 102.351 514.831 102.804C515.187 102.993 515.515 103.167 516 103.167C516.485 103.167 516.813 102.993 517.169 102.804C518.026 102.351 519.379 101.517 520.477 100.325C521.579 99.1281 522.5 97.5117 522.5 95.4679V93.5422C522.5 93.0373 522.5 92.6076 522.464 92.2623C522.425 91.901 522.34 91.5435 522.106 91.2326C521.863 90.9097 521.508 90.726 521.147 90.5859C520.789 90.4467 520.319 90.3129 519.752 90.1513C518.975 89.93 518.239 89.6457 517.69 89.4013C517.316 89.2349 517.01 89.0986 516.763 89.0053C516.52 88.9135 516.261 88.8333 516 88.8333ZM514.819 90.6005C515.216 90.4239 515.488 90.303 515.696 90.2245C515.912 90.143 515.986 90.1364 516 90.1364C516.014 90.1364 516.088 90.143 516.304 90.2245C516.512 90.303 516.784 90.4239 517.181 90.6005C517.775 90.8647 518.519 91.1547 519.365 91.3958L519.606 91.4645L512.096 98.9939C511.337 98.034 510.8 96.8644 510.8 95.4679V93.5766C510.8 93.0279 510.801 92.6679 510.829 92.3996C510.857 92.1395 510.903 92.0557 510.931 92.018C510.951 91.9923 511.024 91.9171 511.323 91.8008C511.618 91.6863 512.028 91.5686 512.635 91.3958C513.481 91.1547 514.225 90.8647 514.819 90.6005Z" fill="#4B4D53"/>
<rect x="500" y="208" width="32" height="32" rx="8" fill="#222326"/>
<path fill-rule="evenodd" clip-rule="evenodd" d="M516 216.833C515.739 216.833 515.48 216.913 515.237 217.005C514.99 217.099 514.684 217.235 514.31 217.401C513.761 217.646 513.025 217.93 512.248 218.151C511.681 218.313 511.211 218.447 510.853 218.586C510.492 218.726 510.137 218.91 509.894 219.233C509.66 219.543 509.575 219.901 509.536 220.262C509.5 220.608 509.5 221.037 509.5 221.542V223.468C509.5 225.512 510.421 227.128 511.523 228.325C512.621 229.517 513.974 230.351 514.831 230.804C515.187 230.993 515.515 231.167 516 231.167C516.485 231.167 516.813 230.993 517.169 230.804C518.026 230.351 519.379 229.517 520.477 228.325C521.579 227.128 522.5 225.512 522.5 223.468V221.542C522.5 221.037 522.5 220.608 522.464 220.262C522.425 219.901 522.34 219.543 522.106 219.233C521.863 218.91 521.508 218.726 521.147 218.586C520.789 218.447 520.319 218.313 519.752 218.151C518.975 217.93 518.239 217.646 517.69 217.401C517.316 217.235 517.01 217.099 516.763 217.005C516.52 216.913 516.261 216.833 516 216.833ZM514.819 218.6C515.216 218.424 515.488 218.303 515.696 218.224C515.912 218.143 515.986 218.136 516 218.136C516.014 218.136 516.088 218.143 516.304 218.224C516.512 218.303 516.784 218.424 517.181 218.6C517.775 218.865 518.519 219.155 519.365 219.396L519.606 219.464L512.096 226.994C511.337 226.034 510.8 224.864 510.8 223.468V221.577C510.8 221.028 510.801 220.668 510.829 220.4C510.857 220.14 510.903 220.056 510.931 220.018C510.951 219.992 511.024 219.917 511.323 219.801C511.618 219.686 512.028 219.569 512.635 219.396C513.481 219.155 514.225 218.865 514.819 218.6Z" fill="#4B4D53"/>
<g filter="url(#filter0_b_10609_4215)">
<g clip-path="url(#clip0_10609_4215)">
<rect x="228" y="64" width="216" height="192" rx="10" fill="#1A1B1D" fill-opacity="0.48"/>
<mask id="path-31-inside-1_10609_4215" fill="white">
<path d="M228 64H444V96H228V64Z"/>
</mask>
<path d="M228 64H444V96H228V64Z" fill="#1A1B1D"/>
<path d="M444 95H228V97H444V95Z" fill="#27282B" mask="url(#path-31-inside-1_10609_4215)"/>
<g clip-path="url(#clip1_10609_4215)">
<path d="M247.21 83.2087L249.835 85.8337M248.668 79.417C248.668 76.5175 246.317 74.167 243.418 74.167C240.518 74.167 238.168 76.5175 238.168 79.417C238.168 82.3165 240.518 84.667 243.418 84.667C246.317 84.667 248.668 82.3165 248.668 79.417Z" stroke="#4B4D53" stroke-width="1.5" stroke-linecap="round" stroke-linejoin="round"/>
</g>
<path d="M265.474 85.14C264.755 85.14 264.093 85.014 263.486 84.762C262.889 84.5007 262.366 84.1367 261.918 83.67C261.47 83.2033 261.125 82.6527 260.882 82.018C260.639 81.3833 260.518 80.688 260.518 79.932C260.518 79.176 260.639 78.4853 260.882 77.86C261.125 77.2347 261.465 76.6933 261.904 76.236C262.352 75.7693 262.875 75.41 263.472 75.158C264.079 74.906 264.746 74.78 265.474 74.78C266.277 74.78 267 74.9387 267.644 75.256C268.288 75.5733 268.815 76.0213 269.226 76.6C269.646 77.1693 269.903 77.8413 269.996 78.616H268.204C268.092 77.86 267.789 77.2813 267.294 76.88C266.799 76.4693 266.197 76.264 265.488 76.264C264.863 76.264 264.317 76.4133 263.85 76.712C263.383 77.0107 263.019 77.4353 262.758 77.986C262.497 78.5273 262.366 79.1713 262.366 79.918C262.366 80.6833 262.497 81.346 262.758 81.906C263.019 82.4567 263.388 82.886 263.864 83.194C264.34 83.502 264.886 83.656 265.502 83.656C266.193 83.656 266.785 83.4553 267.28 83.054C267.775 82.6433 268.087 82.0647 268.218 81.318H270.024C269.912 82.0833 269.646 82.7553 269.226 83.334C268.815 83.9127 268.288 84.3607 267.644 84.678C267 84.986 266.277 85.14 265.474 85.14ZM274.443 85.14C273.687 85.14 273.019 84.9813 272.441 84.664C271.871 84.3467 271.428 83.908 271.111 83.348C270.793 82.7787 270.635 82.13 270.635 81.402C270.635 80.674 270.793 80.0347 271.111 79.484C271.428 78.9333 271.871 78.504 272.441 78.196C273.019 77.8787 273.687 77.72 274.443 77.72C275.208 77.72 275.875 77.8787 276.445 78.196C277.014 78.504 277.457 78.9333 277.775 79.484C278.092 80.0347 278.251 80.674 278.251 81.402C278.251 82.13 278.087 82.7787 277.761 83.348C277.443 83.908 277 84.3467 276.431 84.664C275.861 84.9813 275.199 85.14 274.443 85.14ZM274.443 83.726C274.816 83.726 275.152 83.6327 275.451 83.446C275.749 83.25 275.983 82.9793 276.151 82.634C276.319 82.2793 276.403 81.864 276.403 81.388C276.403 80.688 276.216 80.1373 275.843 79.736C275.479 79.3347 275.012 79.134 274.443 79.134C273.873 79.134 273.402 79.3347 273.029 79.736C272.655 80.1373 272.469 80.688 272.469 81.388C272.469 81.864 272.553 82.2793 272.721 82.634C272.898 82.9793 273.131 83.25 273.421 83.446C273.719 83.6327 274.06 83.726 274.443 83.726ZM279.373 85V77.86H281.095V79.54H281.137V85H279.373ZM284.175 85V80.394C284.175 79.974 284.068 79.666 283.853 79.47C283.648 79.2647 283.354 79.162 282.971 79.162C282.635 79.162 282.327 79.2413 282.047 79.4C281.767 79.5587 281.543 79.7827 281.375 80.072C281.216 80.3613 281.137 80.6973 281.137 81.08L280.955 79.442C281.198 78.9193 281.548 78.504 282.005 78.196C282.462 77.8787 282.994 77.72 283.601 77.72C284.329 77.72 284.903 77.93 285.323 78.35C285.743 78.7607 285.953 79.2927 285.953 79.946V85H284.175ZM288.977 85V80.394C288.977 79.974 288.874 79.666 288.669 79.47C288.464 79.2647 288.17 79.162 287.787 79.162C287.442 79.162 287.129 79.2413 286.849 79.4C286.569 79.5587 286.35 79.7827 286.191 80.072C286.032 80.3613 285.953 80.6973 285.953 81.08L285.645 79.442C285.878 78.9193 286.233 78.504 286.709 78.196C287.185 77.8787 287.736 77.72 288.361 77.72C289.108 77.72 289.691 77.9347 290.111 78.364C290.54 78.784 290.755 79.344 290.755 80.044V85H288.977ZM296.452 85.14C295.771 85.14 295.215 84.9813 294.786 84.664C294.366 84.3373 294.105 83.8893 294.002 83.32L294.142 83.306V87.87H292.378V77.86H294.1V79.47L293.96 79.442C294.091 78.91 294.389 78.49 294.856 78.182C295.323 77.874 295.892 77.72 296.564 77.72C297.199 77.72 297.749 77.874 298.216 78.182C298.692 78.4807 299.061 78.9053 299.322 79.456C299.583 80.0067 299.714 80.6553 299.714 81.402C299.714 82.158 299.579 82.816 299.308 83.376C299.037 83.936 298.659 84.37 298.174 84.678C297.689 84.986 297.115 85.14 296.452 85.14ZM296.004 83.684C296.573 83.684 297.026 83.488 297.362 83.096C297.698 82.6947 297.866 82.1347 297.866 81.416C297.866 80.6973 297.693 80.142 297.348 79.75C297.012 79.358 296.559 79.162 295.99 79.162C295.43 79.162 294.977 79.3627 294.632 79.764C294.287 80.156 294.114 80.7113 294.114 81.43C294.114 82.1487 294.287 82.704 294.632 83.096C294.977 83.488 295.435 83.684 296.004 83.684ZM304.242 85.14C303.486 85.14 302.819 84.9813 302.24 84.664C301.671 84.3467 301.227 83.908 300.91 83.348C300.593 82.7787 300.434 82.13 300.434 81.402C300.434 80.674 300.593 80.0347 300.91 79.484C301.227 78.9333 301.671 78.504 302.24 78.196C302.819 77.8787 303.486 77.72 304.242 77.72C305.007 77.72 305.675 77.8787 306.244 78.196C306.813 78.504 307.257 78.9333 307.574 79.484C307.891 80.0347 308.05 80.674 308.05 81.402C308.05 82.13 307.887 82.7787 307.56 83.348C307.243 83.908 306.799 84.3467 306.23 84.664C305.661 84.9813 304.998 85.14 304.242 85.14ZM304.242 83.726C304.615 83.726 304.951 83.6327 305.25 83.446C305.549 83.25 305.782 82.9793 305.95 82.634C306.118 82.2793 306.202 81.864 306.202 81.388C306.202 80.688 306.015 80.1373 305.642 79.736C305.278 79.3347 304.811 79.134 304.242 79.134C303.673 79.134 303.201 79.3347 302.828 79.736C302.455 80.1373 302.268 80.688 302.268 81.388C302.268 81.864 302.352 82.2793 302.52 82.634C302.697 82.9793 302.931 83.25 303.22 83.446C303.519 83.6327 303.859 83.726 304.242 83.726ZM309.172 85V77.86H310.894V79.54H310.936V85H309.172ZM314.184 85V80.492C314.184 80.0533 314.072 79.722 313.848 79.498C313.624 79.274 313.298 79.162 312.868 79.162C312.495 79.162 312.159 79.246 311.86 79.414C311.571 79.582 311.342 79.8153 311.174 80.114C311.016 80.4127 310.936 80.758 310.936 81.15L310.754 79.442C310.997 78.9193 311.352 78.504 311.818 78.196C312.285 77.8787 312.845 77.72 313.498 77.72C314.273 77.72 314.875 77.9393 315.304 78.378C315.743 78.8167 315.962 79.4 315.962 80.128V85H314.184ZM320.776 85.14C320.02 85.14 319.357 84.9813 318.788 84.664C318.228 84.3467 317.789 83.908 317.472 83.348C317.164 82.788 317.01 82.144 317.01 81.416C317.01 80.688 317.164 80.0487 317.472 79.498C317.789 78.938 318.228 78.504 318.788 78.196C319.348 77.8787 320.001 77.72 320.748 77.72C321.457 77.72 322.073 77.8693 322.596 78.168C323.118 78.4573 323.524 78.868 323.814 79.4C324.103 79.932 324.248 80.5527 324.248 81.262C324.248 81.3927 324.243 81.514 324.234 81.626C324.224 81.738 324.21 81.85 324.192 81.962H318.102V80.73H322.834L322.47 81.066C322.47 80.394 322.316 79.89 322.008 79.554C321.7 79.218 321.27 79.05 320.72 79.05C320.122 79.05 319.646 79.2553 319.292 79.666C318.946 80.0767 318.774 80.6693 318.774 81.444C318.774 82.2093 318.946 82.7973 319.292 83.208C319.646 83.6093 320.146 83.81 320.79 83.81C321.163 83.81 321.49 83.74 321.77 83.6C322.05 83.46 322.255 83.2453 322.386 82.956H324.052C323.818 83.628 323.422 84.16 322.862 84.552C322.311 84.944 321.616 85.14 320.776 85.14ZM325.393 85V77.86H327.115V79.54H327.157V85H325.393ZM330.405 85V80.492C330.405 80.0533 330.293 79.722 330.069 79.498C329.845 79.274 329.518 79.162 329.089 79.162C328.715 79.162 328.379 79.246 328.081 79.414C327.791 79.582 327.563 79.8153 327.395 80.114C327.236 80.4127 327.157 80.758 327.157 81.15L326.975 79.442C327.217 78.9193 327.572 78.504 328.039 78.196C328.505 77.8787 329.065 77.72 329.719 77.72C330.493 77.72 331.095 77.9393 331.525 78.378C331.963 78.8167 332.183 79.4 332.183 80.128V85H330.405ZM336.736 85.14C335.859 85.14 335.21 84.9347 334.79 84.524C334.38 84.104 334.174 83.4787 334.174 82.648V76.236L335.952 75.578V82.69C335.952 83.0353 336.046 83.292 336.232 83.46C336.419 83.628 336.713 83.712 337.114 83.712C337.273 83.712 337.413 83.7027 337.534 83.684C337.665 83.656 337.786 83.6233 337.898 83.586V84.958C337.786 85.014 337.628 85.056 337.422 85.084C337.217 85.1213 336.988 85.14 336.736 85.14ZM332.802 79.246V77.86H337.898V79.246H332.802ZM341.704 85.14C340.715 85.14 339.926 84.9347 339.338 84.524C338.75 84.104 338.428 83.5253 338.372 82.788H339.982C340.029 83.152 340.202 83.4273 340.5 83.614C340.799 83.8007 341.2 83.894 341.704 83.894C342.162 83.894 342.502 83.824 342.726 83.684C342.96 83.5347 343.076 83.3247 343.076 83.054C343.076 82.858 343.011 82.6993 342.88 82.578C342.75 82.4473 342.502 82.34 342.138 82.256L340.99 81.99C340.206 81.822 339.623 81.5607 339.24 81.206C338.867 80.842 338.68 80.3893 338.68 79.848C338.68 79.1853 338.932 78.6673 339.436 78.294C339.95 77.9113 340.654 77.72 341.55 77.72C342.437 77.72 343.146 77.9113 343.678 78.294C344.22 78.6673 344.518 79.1853 344.574 79.848H342.964C342.918 79.5587 342.768 79.3393 342.516 79.19C342.274 79.0407 341.938 78.966 341.508 78.966C341.107 78.966 340.804 79.0313 340.598 79.162C340.393 79.2833 340.29 79.4653 340.29 79.708C340.29 79.8947 340.37 80.0533 340.528 80.184C340.687 80.3053 340.953 80.4127 341.326 80.506L342.558 80.786C343.258 80.9447 343.786 81.22 344.14 81.612C344.504 82.004 344.686 82.466 344.686 82.998C344.686 83.6793 344.425 84.2067 343.902 84.58C343.38 84.9533 342.647 85.14 341.704 85.14Z" fill="#4B4D53"/>
<mask id="path-35-inside-2_10609_4215" fill="white">
<path d="M228 96H444V128H228V96Z"/>
</mask>
<path d="M444 127H228V129H444V127Z" fill="#27282B" mask="url(#path-35-inside-2_10609_4215)"/>
<path d="M242.5 109L245.5 112L242.5 115" stroke="#4B4D53" stroke-width="1.5" stroke-linecap="round" stroke-linejoin="round"/>
<path d="M260.392 117L264.102 106.92H265.67L262.184 117H260.392ZM267.994 117L264.522 106.92H266.174L269.87 117H267.994ZM262.31 113.038H267.826V114.494H262.31V113.038ZM272.007 117L269.151 109.86H271.055L273.337 116.426H272.399L274.681 109.86H276.529L273.659 117H272.007ZM281.46 117C281.413 116.813 281.376 116.608 281.348 116.384C281.329 116.16 281.32 115.889 281.32 115.572H281.264V112.184C281.264 111.811 281.157 111.531 280.942 111.344C280.737 111.148 280.419 111.05 279.99 111.05C279.57 111.05 279.234 111.129 278.982 111.288C278.739 111.437 278.59 111.657 278.534 111.946H276.84C276.915 111.283 277.232 110.747 277.792 110.336C278.352 109.925 279.103 109.72 280.046 109.72C281.026 109.72 281.768 109.944 282.272 110.392C282.776 110.831 283.028 111.479 283.028 112.338V115.572C283.028 115.796 283.042 116.025 283.07 116.258C283.107 116.491 283.159 116.739 283.224 117H281.46ZM278.982 117.14C278.263 117.14 277.689 116.963 277.26 116.608C276.84 116.244 276.63 115.759 276.63 115.152C276.63 114.499 276.868 113.981 277.344 113.598C277.82 113.215 278.492 112.959 279.36 112.828L281.586 112.492V113.612L279.654 113.906C279.234 113.971 278.917 114.088 278.702 114.256C278.497 114.424 278.394 114.657 278.394 114.956C278.394 115.227 278.492 115.437 278.688 115.586C278.884 115.726 279.155 115.796 279.5 115.796C280.004 115.796 280.424 115.67 280.76 115.418C281.096 115.166 281.264 114.858 281.264 114.494L281.46 115.572C281.273 116.085 280.965 116.477 280.536 116.748C280.116 117.009 279.598 117.14 278.982 117.14ZM287.463 117.14C286.585 117.14 285.937 116.935 285.517 116.524C285.106 116.104 284.901 115.479 284.901 114.648V108.236L286.679 107.578V114.69C286.679 115.035 286.772 115.292 286.959 115.46C287.145 115.628 287.439 115.712 287.841 115.712C287.999 115.712 288.139 115.703 288.261 115.684C288.391 115.656 288.513 115.623 288.625 115.586V116.958C288.513 117.014 288.354 117.056 288.149 117.084C287.943 117.121 287.715 117.14 287.463 117.14ZM283.529 111.246V109.86H288.625V111.246H283.529ZM294.126 117C294.079 116.813 294.042 116.608 294.014 116.384C293.995 116.16 293.986 115.889 293.986 115.572H293.93V112.184C293.93 111.811 293.822 111.531 293.608 111.344C293.402 111.148 293.085 111.05 292.656 111.05C292.236 111.05 291.9 111.129 291.648 111.288C291.405 111.437 291.256 111.657 291.2 111.946H289.506C289.58 111.283 289.898 110.747 290.458 110.336C291.018 109.925 291.769 109.72 292.712 109.72C293.692 109.72 294.434 109.944 294.938 110.392C295.442 110.831 295.694 111.479 295.694 112.338V115.572C295.694 115.796 295.708 116.025 295.736 116.258C295.773 116.491 295.824 116.739 295.89 117H294.126ZM291.648 117.14C290.929 117.14 290.355 116.963 289.926 116.608C289.506 116.244 289.296 115.759 289.296 115.152C289.296 114.499 289.534 113.981 290.01 113.598C290.486 113.215 291.158 112.959 292.026 112.828L294.252 112.492V113.612L292.32 113.906C291.9 113.971 291.582 114.088 291.368 114.256C291.162 114.424 291.06 114.657 291.06 114.956C291.06 115.227 291.158 115.437 291.354 115.586C291.55 115.726 291.82 115.796 292.166 115.796C292.67 115.796 293.09 115.67 293.426 115.418C293.762 115.166 293.93 114.858 293.93 114.494L294.126 115.572C293.939 116.085 293.631 116.477 293.202 116.748C292.782 117.009 292.264 117.14 291.648 117.14ZM297.305 117V109.86H299.027V111.582H299.069V117H297.305ZM299.069 113.276L298.887 111.582C299.055 110.975 299.34 110.513 299.741 110.196C300.143 109.879 300.623 109.72 301.183 109.72C301.379 109.72 301.519 109.739 301.603 109.776V111.442C301.557 111.423 301.491 111.414 301.407 111.414C301.323 111.405 301.221 111.4 301.099 111.4C300.418 111.4 299.909 111.549 299.573 111.848C299.237 112.147 299.069 112.623 299.069 113.276Z" fill="#6E7287"/>
<mask id="path-39-inside-3_10609_4215" fill="white">
<path d="M228 128H444V160H228V128Z"/>
</mask>
<path d="M444 159H228V161H444V159Z" fill="#27282B" mask="url(#path-39-inside-3_10609_4215)"/>
<path d="M242.5 141L245.5 144L242.5 147" stroke="#4B4D53" stroke-width="1.5" stroke-linecap="round" stroke-linejoin="round"/>
<path d="M262.296 149V147.656H265.11C265.623 147.656 266.02 147.516 266.3 147.236C266.58 146.947 266.72 146.555 266.72 146.06C266.72 145.547 266.571 145.141 266.272 144.842C265.973 144.543 265.558 144.394 265.026 144.394H262.296V143.05H264.9C265.404 143.05 265.791 142.929 266.062 142.686C266.333 142.443 266.468 142.093 266.468 141.636C266.468 141.188 266.337 140.847 266.076 140.614C265.824 140.381 265.451 140.264 264.956 140.264H262.296V138.92H265.292C266.197 138.92 266.921 139.149 267.462 139.606C268.013 140.054 268.288 140.665 268.288 141.44C268.288 141.925 268.171 142.35 267.938 142.714C267.714 143.069 267.411 143.344 267.028 143.54C266.645 143.736 266.211 143.834 265.726 143.834L265.796 143.54C266.309 143.54 266.776 143.657 267.196 143.89C267.616 144.114 267.947 144.431 268.19 144.842C268.442 145.253 268.568 145.729 268.568 146.27C268.568 146.821 268.437 147.301 268.176 147.712C267.924 148.123 267.565 148.44 267.098 148.664C266.641 148.888 266.099 149 265.474 149H262.296ZM260.868 149V138.92H262.688V149H260.868ZM272.042 149.14C271.547 149.14 271.118 149.037 270.754 148.832C270.399 148.617 270.124 148.328 269.928 147.964C269.741 147.6 269.648 147.189 269.648 146.732V141.86H271.412V146.368C271.412 146.807 271.519 147.138 271.734 147.362C271.958 147.586 272.27 147.698 272.672 147.698C273.036 147.698 273.353 147.614 273.624 147.446C273.904 147.278 274.123 147.045 274.282 146.746C274.45 146.438 274.534 146.093 274.534 145.71L274.716 147.418C274.482 147.941 274.132 148.361 273.666 148.678C273.208 148.986 272.667 149.14 272.042 149.14ZM274.59 149V147.32H274.534V141.86H276.312V149H274.59ZM281.103 149.14C280.225 149.14 279.577 148.935 279.157 148.524C278.746 148.104 278.541 147.479 278.541 146.648V140.236L280.319 139.578V146.69C280.319 147.035 280.412 147.292 280.599 147.46C280.785 147.628 281.079 147.712 281.481 147.712C281.639 147.712 281.779 147.703 281.901 147.684C282.031 147.656 282.153 147.623 282.265 147.586V148.958C282.153 149.014 281.994 149.056 281.789 149.084C281.583 149.121 281.355 149.14 281.103 149.14ZM277.169 143.246V141.86H282.265V143.246H277.169ZM286.711 149.14C285.833 149.14 285.185 148.935 284.765 148.524C284.354 148.104 284.149 147.479 284.149 146.648V140.236L285.927 139.578V146.69C285.927 147.035 286.02 147.292 286.207 147.46C286.393 147.628 286.687 147.712 287.089 147.712C287.247 147.712 287.387 147.703 287.509 147.684C287.639 147.656 287.761 147.623 287.873 147.586V148.958C287.761 149.014 287.602 149.056 287.397 149.084C287.191 149.121 286.963 149.14 286.711 149.14ZM282.777 143.246V141.86H287.873V143.246H282.777ZM292.047 149.14C291.291 149.14 290.623 148.981 290.045 148.664C289.475 148.347 289.032 147.908 288.715 147.348C288.397 146.779 288.239 146.13 288.239 145.402C288.239 144.674 288.397 144.035 288.715 143.484C289.032 142.933 289.475 142.504 290.045 142.196C290.623 141.879 291.291 141.72 292.047 141.72C292.812 141.72 293.479 141.879 294.049 142.196C294.618 142.504 295.061 142.933 295.379 143.484C295.696 144.035 295.855 144.674 295.855 145.402C295.855 146.13 295.691 146.779 295.365 147.348C295.047 147.908 294.604 148.347 294.035 148.664C293.465 148.981 292.803 149.14 292.047 149.14ZM292.047 147.726C292.42 147.726 292.756 147.633 293.055 147.446C293.353 147.25 293.587 146.979 293.755 146.634C293.923 146.279 294.007 145.864 294.007 145.388C294.007 144.688 293.82 144.137 293.447 143.736C293.083 143.335 292.616 143.134 292.047 143.134C291.477 143.134 291.006 143.335 290.633 143.736C290.259 144.137 290.073 144.688 290.073 145.388C290.073 145.864 290.157 146.279 290.325 146.634C290.502 146.979 290.735 147.25 291.025 147.446C291.323 147.633 291.664 147.726 292.047 147.726ZM296.977 149V141.86H298.699V143.54H298.741V149H296.977ZM301.989 149V144.492C301.989 144.053 301.877 143.722 301.653 143.498C301.429 143.274 301.102 143.162 300.673 143.162C300.3 143.162 299.964 143.246 299.665 143.414C299.376 143.582 299.147 143.815 298.979 144.114C298.82 144.413 298.741 144.758 298.741 145.15L298.559 143.442C298.802 142.919 299.156 142.504 299.623 142.196C300.09 141.879 300.65 141.72 301.303 141.72C302.078 141.72 302.68 141.939 303.109 142.378C303.548 142.817 303.767 143.4 303.767 144.128V149H301.989Z" fill="#6E7287"/>
<mask id="path-43-inside-4_10609_4215" fill="white">
<path d="M228 160H444V192H228V160Z"/>
</mask>
<path d="M444 191H228V193H444V191Z" fill="#27282B" mask="url(#path-43-inside-4_10609_4215)"/>
<path d="M242.5 173L245.5 176L242.5 179" stroke="#4B4D53" stroke-width="1.5" stroke-linecap="round" stroke-linejoin="round"/>
<path d="M265.474 181.14C264.755 181.14 264.093 181.014 263.486 180.762C262.889 180.501 262.366 180.137 261.918 179.67C261.47 179.203 261.125 178.653 260.882 178.018C260.639 177.383 260.518 176.688 260.518 175.932C260.518 175.176 260.639 174.485 260.882 173.86C261.125 173.235 261.465 172.693 261.904 172.236C262.352 171.769 262.875 171.41 263.472 171.158C264.079 170.906 264.746 170.78 265.474 170.78C266.277 170.78 267 170.939 267.644 171.256C268.288 171.573 268.815 172.021 269.226 172.6C269.646 173.169 269.903 173.841 269.996 174.616H268.204C268.092 173.86 267.789 173.281 267.294 172.88C266.799 172.469 266.197 172.264 265.488 172.264C264.863 172.264 264.317 172.413 263.85 172.712C263.383 173.011 263.019 173.435 262.758 173.986C262.497 174.527 262.366 175.171 262.366 175.918C262.366 176.683 262.497 177.346 262.758 177.906C263.019 178.457 263.388 178.886 263.864 179.194C264.34 179.502 264.886 179.656 265.502 179.656C266.193 179.656 266.785 179.455 267.28 179.054C267.775 178.643 268.087 178.065 268.218 177.318H270.024C269.912 178.083 269.646 178.755 269.226 179.334C268.815 179.913 268.288 180.361 267.644 180.678C267 180.986 266.277 181.14 265.474 181.14ZM275.414 181C275.368 180.813 275.33 180.608 275.302 180.384C275.284 180.16 275.274 179.889 275.274 179.572H275.218V176.184C275.218 175.811 275.111 175.531 274.896 175.344C274.691 175.148 274.374 175.05 273.944 175.05C273.524 175.05 273.188 175.129 272.936 175.288C272.694 175.437 272.544 175.657 272.488 175.946H270.794C270.869 175.283 271.186 174.747 271.746 174.336C272.306 173.925 273.058 173.72 274 173.72C274.98 173.72 275.722 173.944 276.226 174.392C276.73 174.831 276.982 175.479 276.982 176.338V179.572C276.982 179.796 276.996 180.025 277.024 180.258C277.062 180.491 277.113 180.739 277.178 181H275.414ZM272.936 181.14C272.218 181.14 271.644 180.963 271.214 180.608C270.794 180.244 270.584 179.759 270.584 179.152C270.584 178.499 270.822 177.981 271.298 177.598C271.774 177.215 272.446 176.959 273.314 176.828L275.54 176.492V177.612L273.608 177.906C273.188 177.971 272.871 178.088 272.656 178.256C272.451 178.424 272.348 178.657 272.348 178.956C272.348 179.227 272.446 179.437 272.642 179.586C272.838 179.726 273.109 179.796 273.454 179.796C273.958 179.796 274.378 179.67 274.714 179.418C275.05 179.166 275.218 178.858 275.218 178.494L275.414 179.572C275.228 180.085 274.92 180.477 274.49 180.748C274.07 181.009 273.552 181.14 272.936 181.14ZM278.594 181V170.92H280.358V181H278.594ZM282.056 181V170.92H283.82V181H282.056ZM288.765 181.14C288.009 181.14 287.342 180.981 286.763 180.664C286.194 180.347 285.751 179.908 285.433 179.348C285.116 178.779 284.957 178.13 284.957 177.402C284.957 176.674 285.116 176.035 285.433 175.484C285.751 174.933 286.194 174.504 286.763 174.196C287.342 173.879 288.009 173.72 288.765 173.72C289.531 173.72 290.198 173.879 290.767 174.196C291.337 174.504 291.78 174.933 292.097 175.484C292.415 176.035 292.573 176.674 292.573 177.402C292.573 178.13 292.41 178.779 292.083 179.348C291.766 179.908 291.323 180.347 290.753 180.664C290.184 180.981 289.521 181.14 288.765 181.14ZM288.765 179.726C289.139 179.726 289.475 179.633 289.773 179.446C290.072 179.25 290.305 178.979 290.473 178.634C290.641 178.279 290.725 177.864 290.725 177.388C290.725 176.688 290.539 176.137 290.165 175.736C289.801 175.335 289.335 175.134 288.765 175.134C288.196 175.134 287.725 175.335 287.351 175.736C286.978 176.137 286.791 176.688 286.791 177.388C286.791 177.864 286.875 178.279 287.043 178.634C287.221 178.979 287.454 179.25 287.743 179.446C288.042 179.633 288.383 179.726 288.765 179.726ZM296.006 181.14C295.511 181.14 295.082 181.037 294.718 180.832C294.363 180.617 294.088 180.328 293.892 179.964C293.705 179.6 293.612 179.189 293.612 178.732V173.86H295.376V178.368C295.376 178.807 295.483 179.138 295.698 179.362C295.922 179.586 296.234 179.698 296.636 179.698C297 179.698 297.317 179.614 297.588 179.446C297.868 179.278 298.087 179.045 298.246 178.746C298.414 178.438 298.498 178.093 298.498 177.71L298.68 179.418C298.446 179.941 298.096 180.361 297.63 180.678C297.172 180.986 296.631 181.14 296.006 181.14ZM298.554 181V179.32H298.498V173.86H300.276V181H298.554ZM305.067 181.14C304.189 181.14 303.541 180.935 303.121 180.524C302.71 180.104 302.505 179.479 302.505 178.648V172.236L304.283 171.578V178.69C304.283 179.035 304.376 179.292 304.563 179.46C304.749 179.628 305.043 179.712 305.445 179.712C305.603 179.712 305.743 179.703 305.865 179.684C305.995 179.656 306.117 179.623 306.229 179.586V180.958C306.117 181.014 305.958 181.056 305.753 181.084C305.547 181.121 305.319 181.14 305.067 181.14ZM301.133 175.246V173.86H306.229V175.246H301.133Z" fill="#6E7287"/>
<mask id="path-47-inside-5_10609_4215" fill="white">
<path d="M228 192H444V224H228V192Z"/>
</mask>
<path d="M444 223H228V225H444V223Z" fill="#27282B" mask="url(#path-47-inside-5_10609_4215)"/>
<path d="M242.5 205L245.5 208L242.5 211" stroke="#4B4D53" stroke-width="1.5" stroke-linecap="round" stroke-linejoin="round"/>
<path d="M261.974 213V211.544H264.578C265.343 211.544 265.997 211.39 266.538 211.082C267.079 210.774 267.49 210.345 267.77 209.794C268.059 209.243 268.204 208.613 268.204 207.904C268.204 207.204 268.059 206.588 267.77 206.056C267.49 205.524 267.079 205.113 266.538 204.824C266.006 204.525 265.353 204.376 264.578 204.376H262.002V202.92H264.578C265.679 202.92 266.641 203.125 267.462 203.536C268.283 203.947 268.918 204.53 269.366 205.286C269.823 206.033 270.052 206.915 270.052 207.932C270.052 208.949 269.823 209.841 269.366 210.606C268.909 211.362 268.269 211.95 267.448 212.37C266.636 212.79 265.684 213 264.592 213H261.974ZM260.868 213V202.92H262.688V213H260.868ZM275.619 213C275.573 212.813 275.535 212.608 275.507 212.384C275.489 212.16 275.479 211.889 275.479 211.572H275.423V208.184C275.423 207.811 275.316 207.531 275.101 207.344C274.896 207.148 274.579 207.05 274.149 207.05C273.729 207.05 273.393 207.129 273.141 207.288C272.899 207.437 272.749 207.657 272.693 207.946H270.999C271.074 207.283 271.391 206.747 271.951 206.336C272.511 205.925 273.263 205.72 274.205 205.72C275.185 205.72 275.927 205.944 276.431 206.392C276.935 206.831 277.187 207.479 277.187 208.338V211.572C277.187 211.796 277.201 212.025 277.229 212.258C277.267 212.491 277.318 212.739 277.383 213H275.619ZM273.141 213.14C272.423 213.14 271.849 212.963 271.419 212.608C270.999 212.244 270.789 211.759 270.789 211.152C270.789 210.499 271.027 209.981 271.503 209.598C271.979 209.215 272.651 208.959 273.519 208.828L275.745 208.492V209.612L273.813 209.906C273.393 209.971 273.076 210.088 272.861 210.256C272.656 210.424 272.553 210.657 272.553 210.956C272.553 211.227 272.651 211.437 272.847 211.586C273.043 211.726 273.314 211.796 273.659 211.796C274.163 211.796 274.583 211.67 274.919 211.418C275.255 211.166 275.423 210.858 275.423 210.494L275.619 211.572C275.433 212.085 275.125 212.477 274.695 212.748C274.275 213.009 273.757 213.14 273.141 213.14ZM281.622 213.14C280.745 213.14 280.096 212.935 279.676 212.524C279.265 212.104 279.06 211.479 279.06 210.648V204.236L280.838 203.578V210.69C280.838 211.035 280.931 211.292 281.118 211.46C281.305 211.628 281.599 211.712 282 211.712C282.159 211.712 282.299 211.703 282.42 211.684C282.551 211.656 282.672 211.623 282.784 211.586V212.958C282.672 213.014 282.513 213.056 282.308 213.084C282.103 213.121 281.874 213.14 281.622 213.14ZM277.688 207.246V205.86H282.784V207.246H277.688ZM288.285 213C288.238 212.813 288.201 212.608 288.173 212.384C288.154 212.16 288.145 211.889 288.145 211.572H288.089V208.184C288.089 207.811 287.982 207.531 287.767 207.344C287.562 207.148 287.244 207.05 286.815 207.05C286.395 207.05 286.059 207.129 285.807 207.288C285.564 207.437 285.415 207.657 285.359 207.946H283.665C283.74 207.283 284.057 206.747 284.617 206.336C285.177 205.925 285.928 205.72 286.871 205.72C287.851 205.72 288.593 205.944 289.097 206.392C289.601 206.831 289.853 207.479 289.853 208.338V211.572C289.853 211.796 289.867 212.025 289.895 212.258C289.932 212.491 289.984 212.739 290.049 213H288.285ZM285.807 213.14C285.088 213.14 284.514 212.963 284.085 212.608C283.665 212.244 283.455 211.759 283.455 211.152C283.455 210.499 283.693 209.981 284.169 209.598C284.645 209.215 285.317 208.959 286.185 208.828L288.411 208.492V209.612L286.479 209.906C286.059 209.971 285.742 210.088 285.527 210.256C285.322 210.424 285.219 210.657 285.219 210.956C285.219 211.227 285.317 211.437 285.513 211.586C285.709 211.726 285.98 211.796 286.325 211.796C286.829 211.796 287.249 211.67 287.585 211.418C287.921 211.166 288.089 210.858 288.089 210.494L288.285 211.572C288.098 212.085 287.79 212.477 287.361 212.748C286.941 213.009 286.423 213.14 285.807 213.14ZM294.288 213.14C293.41 213.14 292.762 212.935 292.342 212.524C291.931 212.104 291.726 211.479 291.726 210.648V204.236L293.504 203.578V210.69C293.504 211.035 293.597 211.292 293.784 211.46C293.97 211.628 294.264 211.712 294.666 211.712C294.824 211.712 294.964 211.703 295.086 211.684C295.216 211.656 295.338 211.623 295.45 211.586V212.958C295.338 213.014 295.179 213.056 294.974 213.084C294.768 213.121 294.54 213.14 294.288 213.14ZM290.354 207.246V205.86H295.45V207.246H290.354ZM300.951 213C300.904 212.813 300.867 212.608 300.839 212.384C300.82 212.16 300.811 211.889 300.811 211.572H300.755V208.184C300.755 207.811 300.647 207.531 300.433 207.344C300.227 207.148 299.91 207.05 299.481 207.05C299.061 207.05 298.725 207.129 298.473 207.288C298.23 207.437 298.081 207.657 298.025 207.946H296.331C296.405 207.283 296.723 206.747 297.283 206.336C297.843 205.925 298.594 205.72 299.537 205.72C300.517 205.72 301.259 205.944 301.763 206.392C302.267 206.831 302.519 207.479 302.519 208.338V211.572C302.519 211.796 302.533 212.025 302.561 212.258C302.598 212.491 302.649 212.739 302.715 213H300.951ZM298.473 213.14C297.754 213.14 297.18 212.963 296.751 212.608C296.331 212.244 296.121 211.759 296.121 211.152C296.121 210.499 296.359 209.981 296.835 209.598C297.311 209.215 297.983 208.959 298.851 208.828L301.077 208.492V209.612L299.145 209.906C298.725 209.971 298.407 210.088 298.193 210.256C297.987 210.424 297.885 210.657 297.885 210.956C297.885 211.227 297.983 211.437 298.179 211.586C298.375 211.726 298.645 211.796 298.991 211.796C299.495 211.796 299.915 211.67 300.251 211.418C300.587 211.166 300.755 210.858 300.755 210.494L300.951 211.572C300.764 212.085 300.456 212.477 300.027 212.748C299.607 213.009 299.089 213.14 298.473 213.14ZM308.204 213.14C307.523 213.14 306.963 212.981 306.524 212.664C306.095 212.337 305.829 211.889 305.726 211.32L305.852 211.306V213H304.13V202.92H305.894V207.47L305.768 207.442C305.89 206.91 306.174 206.49 306.622 206.182C307.08 205.874 307.644 205.72 308.316 205.72C308.951 205.72 309.502 205.874 309.968 206.182C310.444 206.481 310.813 206.905 311.074 207.456C311.336 208.007 311.466 208.655 311.466 209.402C311.466 210.158 311.331 210.816 311.06 211.376C310.79 211.936 310.412 212.37 309.926 212.678C309.441 212.986 308.867 213.14 308.204 213.14ZM307.756 211.684C308.326 211.684 308.778 211.488 309.114 211.096C309.45 210.695 309.618 210.135 309.618 209.416C309.618 208.697 309.446 208.142 309.1 207.75C308.764 207.358 308.312 207.162 307.742 207.162C307.182 207.162 306.73 207.363 306.384 207.764C306.039 208.156 305.866 208.711 305.866 209.43C305.866 210.149 306.039 210.704 306.384 211.096C306.73 211.488 307.187 211.684 307.756 211.684ZM312.651 213V202.92H314.415V213H312.651ZM319.318 213.14C318.562 213.14 317.9 212.981 317.33 212.664C316.77 212.347 316.332 211.908 316.014 211.348C315.706 210.788 315.552 210.144 315.552 209.416C315.552 208.688 315.706 208.049 316.014 207.498C316.332 206.938 316.77 206.504 317.33 206.196C317.89 205.879 318.544 205.72 319.29 205.72C320 205.72 320.616 205.869 321.138 206.168C321.661 206.457 322.067 206.868 322.356 207.4C322.646 207.932 322.79 208.553 322.79 209.262C322.79 209.393 322.786 209.514 322.776 209.626C322.767 209.738 322.753 209.85 322.734 209.962H316.644V208.73H321.376L321.012 209.066C321.012 208.394 320.858 207.89 320.55 207.554C320.242 207.218 319.813 207.05 319.262 207.05C318.665 207.05 318.189 207.255 317.834 207.666C317.489 208.077 317.316 208.669 317.316 209.444C317.316 210.209 317.489 210.797 317.834 211.208C318.189 211.609 318.688 211.81 319.332 211.81C319.706 211.81 320.032 211.74 320.312 211.6C320.592 211.46 320.798 211.245 320.928 210.956H322.594C322.361 211.628 321.964 212.16 321.404 212.552C320.854 212.944 320.158 213.14 319.318 213.14Z" fill="#6E7287"/>
<mask id="path-51-inside-6_10609_4215" fill="white">
<path d="M228 224H444V256H228V224Z"/>
</mask>
<path d="M444 255H228V257H444V255Z" fill="#27282B" mask="url(#path-51-inside-6_10609_4215)"/>
<path d="M242.5 237L245.5 240L242.5 243" stroke="#4B4D53" stroke-width="1.5" stroke-linecap="round" stroke-linejoin="round"/>
<path d="M260.868 245V234.92H262.688V245H260.868ZM261.736 240.954V239.512H267.406V240.954H261.736ZM261.736 236.362V234.92H267.742V236.362H261.736ZM272.036 245.14C271.28 245.14 270.613 244.981 270.034 244.664C269.465 244.347 269.022 243.908 268.704 243.348C268.387 242.779 268.228 242.13 268.228 241.402C268.228 240.674 268.387 240.035 268.704 239.484C269.022 238.933 269.465 238.504 270.034 238.196C270.613 237.879 271.28 237.72 272.036 237.72C272.802 237.72 273.469 237.879 274.038 238.196C274.608 238.504 275.051 238.933 275.368 239.484C275.686 240.035 275.844 240.674 275.844 241.402C275.844 242.13 275.681 242.779 275.354 243.348C275.037 243.908 274.594 244.347 274.024 244.664C273.455 244.981 272.792 245.14 272.036 245.14ZM272.036 243.726C272.41 243.726 272.746 243.633 273.044 243.446C273.343 243.25 273.576 242.979 273.744 242.634C273.912 242.279 273.996 241.864 273.996 241.388C273.996 240.688 273.81 240.137 273.436 239.736C273.072 239.335 272.606 239.134 272.036 239.134C271.467 239.134 270.996 239.335 270.622 239.736C270.249 240.137 270.062 240.688 270.062 241.388C270.062 241.864 270.146 242.279 270.314 242.634C270.492 242.979 270.725 243.25 271.014 243.446C271.313 243.633 271.654 243.726 272.036 243.726ZM276.967 245V237.86H278.689V239.582H278.731V245H276.967ZM278.731 241.276L278.549 239.582C278.717 238.975 279.002 238.513 279.403 238.196C279.804 237.879 280.285 237.72 280.845 237.72C281.041 237.72 281.181 237.739 281.265 237.776V239.442C281.218 239.423 281.153 239.414 281.069 239.414C280.985 239.405 280.882 239.4 280.761 239.4C280.08 239.4 279.571 239.549 279.235 239.848C278.899 240.147 278.731 240.623 278.731 241.276ZM282.247 245V237.86H283.969V239.54H284.011V245H282.247ZM287.049 245V240.394C287.049 239.974 286.942 239.666 286.727 239.47C286.522 239.265 286.228 239.162 285.845 239.162C285.509 239.162 285.201 239.241 284.921 239.4C284.641 239.559 284.417 239.783 284.249 240.072C284.09 240.361 284.011 240.697 284.011 241.08L283.829 239.442C284.072 238.919 284.422 238.504 284.879 238.196C285.336 237.879 285.868 237.72 286.475 237.72C287.203 237.72 287.777 237.93 288.197 238.35C288.617 238.761 288.827 239.293 288.827 239.946V245H287.049ZM291.851 245V240.394C291.851 239.974 291.748 239.666 291.543 239.47C291.338 239.265 291.044 239.162 290.661 239.162C290.316 239.162 290.003 239.241 289.723 239.4C289.443 239.559 289.224 239.783 289.065 240.072C288.906 240.361 288.827 240.697 288.827 241.08L288.519 239.442C288.752 238.919 289.107 238.504 289.583 238.196C290.059 237.879 290.61 237.72 291.235 237.72C291.982 237.72 292.565 237.935 292.985 238.364C293.414 238.784 293.629 239.344 293.629 240.044V245H291.851Z" fill="#6E7287"/>
</g>
<rect x="228.5" y="64.5" width="215" height="191" rx="9.5" stroke="#27282B"/>
</g>
<rect width="668" height="140" transform="translate(0 164)" fill="url(#paint3_linear_10609_4215)"/>
<defs>
<filter id="filter0_b_10609_4215" x="216" y="52" width="240" height="216" filterUnits="userSpaceOnUse" color-interpolation-filters="sRGB">
<feFlood flood-opacity="0" result="BackgroundImageFix"/>
<feGaussianBlur in="BackgroundImageFix" stdDeviation="6"/>
<feComposite in2="SourceAlpha" operator="in" result="effect1_backgroundBlur_10609_4215"/>
<feBlend mode="normal" in="SourceGraphic" in2="effect1_backgroundBlur_10609_4215" result="shape"/>
</filter>
<radialGradient id="paint0_radial_10609_4215" cx="0" cy="0" r="1" gradientUnits="userSpaceOnUse" gradientTransform="translate(334 167) rotate(90) scale(167 194)">
<stop stop-color="#261958"/>
<stop offset="1" stop-color="#1A1B1D" stop-opacity="0"/>
</radialGradient>
<linearGradient id="paint1_linear_10609_4215" x1="40" y1="128.5" x2="628" y2="128.5" gradientUnits="userSpaceOnUse">
<stop stop-color="#1A1B1D"/>
<stop offset="0.2" stop-color="#222326"/>
<stop offset="0.8" stop-color="#222326"/>
<stop offset="1" stop-color="#1A1B1D"/>
</linearGradient>
<linearGradient id="paint2_linear_10609_4215" x1="40" y1="192.5" x2="628" y2="192.5" gradientUnits="userSpaceOnUse">
<stop stop-color="#1A1B1D"/>
<stop offset="0.2" stop-color="#222326"/>
<stop offset="0.8" stop-color="#222326"/>
<stop offset="1" stop-color="#1A1B1D"/>
</linearGradient>
<linearGradient id="paint3_linear_10609_4215" x1="334" y1="0" x2="334" y2="140" gradientUnits="userSpaceOnUse">
<stop stop-color="#1A1B1D" stop-opacity="0"/>
<stop offset="0.638983" stop-color="#1A1B1D"/>
</linearGradient>
<clipPath id="clip0_10609_4215">
<rect x="228" y="64" width="216" height="192" rx="10" fill="white"/>
</clipPath>
<clipPath id="clip1_10609_4215">
<rect width="14" height="14" fill="white" transform="translate(237 73)"/>
</clipPath>
</defs>
</svg>
