<svg width="668" height="280" viewBox="0 0 668 280" fill="none" xmlns="http://www.w3.org/2000/svg">
<g clip-path="url(#clip0_10763_2131)">
<ellipse cx="334" cy="143" rx="194" ry="167" fill="url(#paint0_radial_10763_2131)"/>
<rect x="84" y="124" width="88" height="8" rx="4" fill="#E0E1E6"/>
<rect x="84" y="60" width="56" height="8" rx="4" fill="#E0E1E6"/>
<rect x="84" y="188" width="88" height="8" rx="4" fill="#E0E1E6"/>
<rect x="84" y="140" width="40" height="8" rx="4" fill="#E0E1E6"/>
<rect x="84" y="76" width="88" height="8" rx="4" fill="#E0E1E6"/>
<rect x="84" y="204" width="64" height="8" rx="4" fill="#E0E1E6"/>
<rect x="40" y="120" width="32" height="32" rx="16" fill="#F0F0F3"/>
<path d="M52.385 138.321C51.4419 138.883 48.9689 140.029 50.4751 141.464C51.2109 142.165 52.0303 142.667 53.0606 142.667H58.9394C59.9697 142.667 60.7891 142.165 61.5249 141.464C63.0311 140.029 60.5581 138.883 59.6149 138.321C57.4032 137.004 54.5968 137.004 52.385 138.321Z" fill="#D9D9E0"/>
<path d="M59 132.333C59 133.99 57.6569 135.333 56 135.333C54.3431 135.333 53 133.99 53 132.333C53 130.676 54.3431 129.333 56 129.333C57.6569 129.333 59 130.676 59 132.333Z" fill="#D9D9E0"/>
<rect x="40" y="56" width="32" height="32" rx="16" fill="#F0F0F3"/>
<path d="M52.385 74.3211C51.4419 74.8827 48.9689 76.0294 50.4751 77.4644C51.2109 78.1653 52.0303 78.6667 53.0606 78.6667H58.9394C59.9697 78.6667 60.7891 78.1653 61.5249 77.4644C63.0311 76.0294 60.5581 74.8827 59.6149 74.3211C57.4032 73.0041 54.5968 73.0041 52.385 74.3211Z" fill="#D9D9E0"/>
<path d="M59 68.3333C59 69.9902 57.6569 71.3333 56 71.3333C54.3431 71.3333 53 69.9902 53 68.3333C53 66.6765 54.3431 65.3333 56 65.3333C57.6569 65.3333 59 66.6765 59 68.3333Z" fill="#D9D9E0"/>
<rect x="40" y="184" width="32" height="32" rx="16" fill="#F0F0F3"/>
<path d="M52.385 202.321C51.4419 202.883 48.9689 204.029 50.4751 205.464C51.2109 206.165 52.0303 206.667 53.0606 206.667H58.9394C59.9697 206.667 60.7891 206.165 61.5249 205.464C63.0311 204.029 60.5581 202.883 59.6149 202.321C57.4032 201.004 54.5968 201.004 52.385 202.321Z" fill="#D9D9E0"/>
<path d="M59 196.333C59 197.99 57.6569 199.333 56 199.333C54.3431 199.333 53 197.99 53 196.333C53 194.676 54.3431 193.333 56 193.333C57.6569 193.333 59 194.676 59 196.333Z" fill="#D9D9E0"/>
<rect x="588" y="126" width="40" height="20" rx="10" fill="#F0F0F3"/>
<rect x="591" y="129" width="14" height="14" rx="7" fill="#D9D9E0"/>
<rect x="588" y="62" width="40" height="20" rx="10" fill="#F0F0F3"/>
<rect x="611" y="65" width="14" height="14" rx="7" fill="#6E56CF"/>
<rect x="588" y="190" width="40" height="20" rx="10" fill="#F0F0F3"/>
<rect x="591" y="193" width="14" height="14" rx="7" fill="#D9D9E0"/>
<line x1="40" y1="103.5" x2="628" y2="103.5" stroke="url(#paint1_linear_10763_2131)"/>
<line x1="40" y1="167.5" x2="628" y2="167.5" stroke="url(#paint2_linear_10763_2131)"/>
<rect x="500" y="120" width="32" height="32" rx="8" fill="#F0F0F3"/>
<path fill-rule="evenodd" clip-rule="evenodd" d="M514.882 129.506C515.609 129.276 516.391 129.276 517.117 129.506C517.84 129.735 518.408 130.277 518.979 131.04C519.547 131.8 520.175 132.86 520.985 134.226L521.017 134.28C521.827 135.646 522.455 136.706 522.846 137.565C523.24 138.429 523.436 139.174 523.279 139.891C523.122 140.612 522.734 141.268 522.169 141.764C521.605 142.258 520.837 142.467 519.87 142.567C518.909 142.667 517.651 142.667 516.033 142.667H515.967C514.348 142.667 513.091 142.667 512.129 142.567C511.163 142.467 510.395 142.258 509.831 141.764C509.266 141.268 508.878 140.612 508.72 139.891C508.564 139.174 508.76 138.429 509.153 137.565C509.545 136.706 510.173 135.646 510.983 134.28L511.015 134.226C511.824 132.86 512.453 131.8 513.021 131.04C513.592 130.277 514.159 129.735 514.882 129.506Z" fill="#6E56CF"/>
<path fill-rule="evenodd" clip-rule="evenodd" d="M515.318 139.252C515.318 138.893 515.622 138.602 515.997 138.602H516.003C516.378 138.602 516.682 138.893 516.682 139.252C516.682 139.611 516.378 139.902 516.003 139.902H515.997C515.622 139.902 515.318 139.611 515.318 139.252ZM515.318 136.65C515.318 137.01 515.623 137.301 516 137.301C516.377 137.301 516.682 137.01 516.682 136.65V134.049C516.682 133.69 516.377 133.398 516 133.398C515.623 133.398 515.318 133.69 515.318 134.049V136.65Z" fill="#C2B5F5"/>
<rect x="500" y="56" width="32" height="32" rx="8" fill="#F0F0F3"/>
<path fill-rule="evenodd" clip-rule="evenodd" d="M516 64.8333C515.739 64.8333 515.48 64.9135 515.237 65.0053C514.99 65.0986 514.684 65.2349 514.31 65.4013C513.761 65.6457 513.025 65.93 512.248 66.1513C511.681 66.3129 511.211 66.4467 510.853 66.5859C510.492 66.726 510.137 66.9097 509.894 67.2326C509.66 67.5435 509.575 67.901 509.536 68.2623C509.5 68.6076 509.5 69.0373 509.5 69.5422V71.4679C509.5 73.5117 510.421 75.1281 511.523 76.3249C512.621 77.5167 513.974 78.3505 514.831 78.8038C515.187 78.9929 515.515 79.1667 516 79.1667C516.485 79.1667 516.813 78.9929 517.169 78.8038C518.026 78.3505 519.379 77.5167 520.477 76.3249C521.579 75.1281 522.5 73.5117 522.5 71.4679V69.5422C522.5 69.0373 522.5 68.6076 522.464 68.2623C522.425 67.901 522.34 67.5435 522.106 67.2326C521.863 66.9097 521.508 66.726 521.147 66.5859C520.789 66.4467 520.319 66.3129 519.752 66.1513C518.975 65.93 518.239 65.6457 517.69 65.4013C517.316 65.2349 517.01 65.0986 516.763 65.0053C516.52 64.9135 516.261 64.8333 516 64.8333ZM514.819 66.6005C515.216 66.4239 515.488 66.303 515.696 66.2245C515.912 66.143 515.986 66.1364 516 66.1364C516.014 66.1364 516.088 66.143 516.304 66.2245C516.512 66.303 516.784 66.4239 517.181 66.6005C517.775 66.8647 518.519 67.1547 519.365 67.3958L519.606 67.4645L512.096 74.9939C511.337 74.034 510.8 72.8644 510.8 71.4679V69.5766C510.8 69.0279 510.801 68.6679 510.829 68.3996C510.857 68.1395 510.903 68.0557 510.931 68.018C510.951 67.9923 511.024 67.9171 511.323 67.8008C511.618 67.6863 512.028 67.5686 512.635 67.3958C513.481 67.1547 514.225 66.8647 514.819 66.6005Z" fill="#D9D9E0"/>
<rect x="500" y="184" width="32" height="32" rx="8" fill="#F0F0F3"/>
<path fill-rule="evenodd" clip-rule="evenodd" d="M516 192.833C515.739 192.833 515.48 192.913 515.237 193.005C514.99 193.099 514.684 193.235 514.31 193.401C513.761 193.646 513.025 193.93 512.248 194.151C511.681 194.313 511.211 194.447 510.853 194.586C510.492 194.726 510.137 194.91 509.894 195.233C509.66 195.543 509.575 195.901 509.536 196.262C509.5 196.608 509.5 197.037 509.5 197.542V199.468C509.5 201.512 510.421 203.128 511.523 204.325C512.621 205.517 513.974 206.351 514.831 206.804C515.187 206.993 515.515 207.167 516 207.167C516.485 207.167 516.813 206.993 517.169 206.804C518.026 206.351 519.379 205.517 520.477 204.325C521.579 203.128 522.5 201.512 522.5 199.468V197.542C522.5 197.037 522.5 196.608 522.464 196.262C522.425 195.901 522.34 195.543 522.106 195.233C521.863 194.91 521.508 194.726 521.147 194.586C520.789 194.447 520.319 194.313 519.752 194.151C518.975 193.93 518.239 193.646 517.69 193.401C517.316 193.235 517.01 193.099 516.763 193.005C516.52 192.913 516.261 192.833 516 192.833ZM514.819 194.6C515.216 194.424 515.488 194.303 515.696 194.224C515.912 194.143 515.986 194.136 516 194.136C516.014 194.136 516.088 194.143 516.304 194.224C516.512 194.303 516.784 194.424 517.181 194.6C517.775 194.865 518.519 195.155 519.365 195.396L519.606 195.464L512.096 202.994C511.337 202.034 510.8 200.864 510.8 199.468V197.577C510.8 197.028 510.801 196.668 510.829 196.4C510.857 196.14 510.903 196.056 510.931 196.018C510.951 195.992 511.024 195.917 511.323 195.801C511.618 195.686 512.028 195.569 512.635 195.396C513.481 195.155 514.225 194.865 514.819 194.6Z" fill="#D9D9E0"/>
<g filter="url(#filter0_b_10763_2131)">
<g clip-path="url(#clip1_10763_2131)">
<rect x="228" y="40" width="216" height="192" rx="10" fill="#F9F9FB" fill-opacity="0.48"/>
<mask id="path-31-inside-1_10763_2131" fill="white">
<path d="M228 40H444V72H228V40Z"/>
</mask>
<path d="M228 40H444V72H228V40Z" fill="#F9F9FB"/>
<path d="M444 71H228V73H444V71Z" fill="#E8E8EC" mask="url(#path-31-inside-1_10763_2131)"/>
<g clip-path="url(#clip2_10763_2131)">
<path d="M247.21 59.2087L249.835 61.8337M248.668 55.417C248.668 52.5175 246.317 50.167 243.418 50.167C240.518 50.167 238.168 52.5175 238.168 55.417C238.168 58.3165 240.518 60.667 243.418 60.667C246.317 60.667 248.668 58.3165 248.668 55.417Z" stroke="#D9D9E0" stroke-width="1.5" stroke-linecap="round" stroke-linejoin="round"/>
</g>
<path d="M265.474 61.14C262.604 61.14 260.518 58.956 260.518 55.932C260.518 52.908 262.576 50.78 265.474 50.78C267.882 50.78 269.702 52.306 269.996 54.616H268.204C267.98 53.104 266.902 52.264 265.488 52.264C263.626 52.264 262.366 53.664 262.366 55.918C262.366 58.214 263.64 59.656 265.502 59.656C266.888 59.656 267.966 58.83 268.218 57.318H270.024C269.674 59.628 267.882 61.14 265.474 61.14ZM274.443 61.14C272.161 61.14 270.635 59.6 270.635 57.402C270.635 55.218 272.161 53.72 274.443 53.72C276.725 53.72 278.251 55.218 278.251 57.402C278.251 59.6 276.711 61.14 274.443 61.14ZM274.443 59.726C275.577 59.726 276.403 58.816 276.403 57.388C276.403 55.988 275.577 55.134 274.443 55.134C273.295 55.134 272.469 55.988 272.469 57.388C272.469 58.816 273.309 59.726 274.443 59.726ZM279.373 61V53.86H281.095V55.176C281.599 54.28 282.495 53.72 283.601 53.72C284.721 53.72 285.505 54.266 285.813 55.12C286.331 54.252 287.241 53.72 288.361 53.72C289.845 53.72 290.755 54.644 290.755 56.044V61H288.977V56.394C288.977 55.554 288.543 55.162 287.787 55.162C286.737 55.162 285.953 55.932 285.953 57.08V61H284.175V56.394C284.175 55.554 283.741 55.162 282.971 55.162C281.935 55.162 281.137 55.932 281.137 57.08V61H279.373ZM296.452 61.14C295.304 61.14 294.506 60.65 294.142 59.824V63.87H292.378V53.86H294.1V55.05C294.478 54.224 295.402 53.72 296.564 53.72C298.468 53.72 299.714 55.176 299.714 57.402C299.714 59.656 298.426 61.14 296.452 61.14ZM296.004 59.684C297.124 59.684 297.866 58.844 297.866 57.416C297.866 55.988 297.124 55.162 295.99 55.162C294.856 55.162 294.114 56.002 294.114 57.43C294.114 58.858 294.856 59.684 296.004 59.684ZM304.242 61.14C301.96 61.14 300.434 59.6 300.434 57.402C300.434 55.218 301.96 53.72 304.242 53.72C306.524 53.72 308.05 55.218 308.05 57.402C308.05 59.6 306.51 61.14 304.242 61.14ZM304.242 59.726C305.376 59.726 306.202 58.816 306.202 57.388C306.202 55.988 305.376 55.134 304.242 55.134C303.094 55.134 302.268 55.988 302.268 57.388C302.268 58.816 303.108 59.726 304.242 59.726ZM309.172 61V53.86H310.894V55.176C311.398 54.28 312.294 53.72 313.498 53.72C315.052 53.72 315.962 54.658 315.962 56.128V61H314.184V56.492C314.184 55.61 313.736 55.162 312.868 55.162C311.734 55.162 310.936 55.974 310.936 57.15V61H309.172ZM320.776 61.14C318.508 61.14 317.01 59.614 317.01 57.416C317.01 55.218 318.522 53.72 320.748 53.72C322.876 53.72 324.248 55.134 324.248 57.262C324.248 57.542 324.22 57.752 324.192 57.962H318.802C318.956 59.166 319.642 59.81 320.79 59.81C321.546 59.81 322.106 59.53 322.386 58.956H324.052C323.59 60.314 322.456 61.14 320.776 61.14ZM320.72 55.05C319.712 55.05 319.04 55.638 318.844 56.73H322.456C322.358 55.61 321.728 55.05 320.72 55.05ZM325.393 61V53.86H327.115V55.176C327.619 54.28 328.515 53.72 329.719 53.72C331.273 53.72 332.183 54.658 332.183 56.128V61H330.405V56.492C330.405 55.61 329.957 55.162 329.089 55.162C327.955 55.162 327.157 55.974 327.157 57.15V61H325.393ZM336.736 61.14C334.986 61.14 334.174 60.328 334.174 58.648V55.246H332.802V53.86H334.174V52.236L335.952 51.578V53.86H337.898V55.246H335.952V58.69C335.952 59.39 336.316 59.712 337.114 59.712C337.422 59.712 337.674 59.656 337.898 59.586V60.958C337.66 61.084 337.24 61.14 336.736 61.14ZM341.704 61.14C339.73 61.14 338.484 60.272 338.372 58.788H339.982C340.08 59.516 340.682 59.894 341.704 59.894C342.614 59.894 343.076 59.6 343.076 59.054C343.076 58.662 342.866 58.41 342.138 58.256L340.99 57.99C339.408 57.654 338.68 56.94 338.68 55.848C338.68 54.518 339.758 53.72 341.55 53.72C343.328 53.72 344.448 54.518 344.574 55.848H342.964C342.88 55.274 342.362 54.966 341.508 54.966C340.71 54.966 340.29 55.232 340.29 55.708C340.29 56.086 340.57 56.324 341.326 56.506L342.558 56.786C343.972 57.094 344.686 57.92 344.686 58.998C344.686 60.356 343.594 61.14 341.704 61.14Z" fill="#D9D9E0"/>
<mask id="path-35-inside-2_10763_2131" fill="white">
<path d="M228 72H444V104H228V72Z"/>
</mask>
<path d="M444 103H228V105H444V103Z" fill="#E8E8EC" mask="url(#path-35-inside-2_10763_2131)"/>
<path d="M242.5 85L245.5 88L242.5 91" stroke="#D9D9E0" stroke-width="1.5" stroke-linecap="round" stroke-linejoin="round"/>
<path d="M260.392 93L264.102 82.92H266.174L269.87 93H267.994L267.126 90.494H263.052L262.184 93H260.392ZM263.556 89.038H266.622L265.096 84.586L263.556 89.038ZM272.007 93L269.151 85.86H271.055L272.875 91.082L274.681 85.86H276.529L273.659 93H272.007ZM278.968 93.14C277.526 93.14 276.616 92.37 276.616 91.152C276.616 89.85 277.61 89.094 279.346 88.828L281.25 88.534V88.184C281.25 87.442 280.83 87.05 279.976 87.05C279.136 87.05 278.632 87.372 278.52 87.946H276.826C276.98 86.63 278.128 85.72 280.032 85.72C281.978 85.72 283.014 86.63 283.014 88.338V91.572C283.014 92.034 283.07 92.468 283.21 93H281.446C281.362 92.678 281.32 92.328 281.32 91.866C280.886 92.692 280.06 93.14 278.968 93.14ZM278.38 90.956C278.38 91.502 278.786 91.796 279.486 91.796C280.494 91.796 281.25 91.208 281.25 90.494V89.668L279.64 89.906C278.786 90.046 278.38 90.354 278.38 90.956ZM287.435 93.14C285.685 93.14 284.873 92.328 284.873 90.648V87.246H283.501V85.86H284.873V84.236L286.651 83.578V85.86H288.597V87.246H286.651V90.69C286.651 91.39 287.015 91.712 287.813 91.712C288.121 91.712 288.373 91.656 288.597 91.586V92.958C288.359 93.084 287.939 93.14 287.435 93.14ZM291.62 93.14C290.178 93.14 289.268 92.37 289.268 91.152C289.268 89.85 290.262 89.094 291.998 88.828L293.902 88.534V88.184C293.902 87.442 293.482 87.05 292.628 87.05C291.788 87.05 291.284 87.372 291.172 87.946H289.478C289.632 86.63 290.78 85.72 292.684 85.72C294.63 85.72 295.666 86.63 295.666 88.338V91.572C295.666 92.034 295.722 92.468 295.862 93H294.098C294.014 92.678 293.972 92.328 293.972 91.866C293.538 92.692 292.712 93.14 291.62 93.14ZM291.032 90.956C291.032 91.502 291.438 91.796 292.138 91.796C293.146 91.796 293.902 91.208 293.902 90.494V89.668L292.292 89.906C291.438 90.046 291.032 90.354 291.032 90.956ZM297.278 93V85.86H299V87.204C299.392 86.238 300.162 85.72 301.156 85.72C301.338 85.72 301.478 85.734 301.576 85.776V87.442C301.478 87.414 301.31 87.4 301.072 87.4C299.714 87.4 299.042 87.974 299.042 89.276V93H297.278Z" fill="#B9BBC6"/>
<mask id="path-39-inside-3_10763_2131" fill="white">
<path d="M228 104H444V136H228V104Z"/>
</mask>
<path d="M444 135H228V137H444V135Z" fill="#E8E8EC" mask="url(#path-39-inside-3_10763_2131)"/>
<path d="M242.5 117L245.5 120L242.5 123" stroke="#D9D9E0" stroke-width="1.5" stroke-linecap="round" stroke-linejoin="round"/>
<path d="M260.868 125V114.92H265.292C267.098 114.92 268.288 115.886 268.288 117.44C268.288 118.546 267.644 119.358 266.706 119.68C267.798 120.016 268.568 120.982 268.568 122.27C268.568 123.922 267.336 125 265.474 125H260.868ZM264.956 116.264H262.688V119.05H264.9C265.908 119.05 266.468 118.56 266.468 117.636C266.468 116.74 265.936 116.264 264.956 116.264ZM265.026 120.394H262.688V123.656H265.11C266.132 123.656 266.72 123.054 266.72 122.06C266.72 121.038 266.09 120.394 265.026 120.394ZM272.055 125.14C270.571 125.14 269.661 124.104 269.661 122.732V117.86H271.425V122.368C271.425 123.25 271.887 123.698 272.685 123.698C273.763 123.698 274.547 122.886 274.547 121.71V117.86H276.325V125H274.603V123.684C274.099 124.58 273.203 125.14 272.055 125.14ZM281.116 125.14C279.366 125.14 278.554 124.328 278.554 122.648V119.246H277.182V117.86H278.554V116.236L280.332 115.578V117.86H282.278V119.246H280.332V122.69C280.332 123.39 280.696 123.712 281.494 123.712C281.802 123.712 282.054 123.656 282.278 123.586V124.958C282.04 125.084 281.62 125.14 281.116 125.14ZM286.724 125.14C284.974 125.14 284.162 124.328 284.162 122.648V119.246H282.79V117.86H284.162V116.236L285.94 115.578V117.86H287.886V119.246H285.94V122.69C285.94 123.39 286.304 123.712 287.102 123.712C287.41 123.712 287.662 123.656 287.886 123.586V124.958C287.648 125.084 287.228 125.14 286.724 125.14ZM292.06 125.14C289.778 125.14 288.252 123.6 288.252 121.402C288.252 119.218 289.778 117.72 292.06 117.72C294.342 117.72 295.868 119.218 295.868 121.402C295.868 123.6 294.328 125.14 292.06 125.14ZM292.06 123.726C293.194 123.726 294.02 122.816 294.02 121.388C294.02 119.988 293.194 119.134 292.06 119.134C290.912 119.134 290.086 119.988 290.086 121.388C290.086 122.816 290.926 123.726 292.06 123.726ZM296.991 125V117.86H298.713V119.176C299.217 118.28 300.113 117.72 301.317 117.72C302.871 117.72 303.781 118.658 303.781 120.128V125H302.003V120.492C302.003 119.61 301.555 119.162 300.687 119.162C299.553 119.162 298.755 119.974 298.755 121.15V125H296.991Z" fill="#B9BBC6"/>
<mask id="path-43-inside-4_10763_2131" fill="white">
<path d="M228 136H444V168H228V136Z"/>
</mask>
<path d="M444 167H228V169H444V167Z" fill="#E8E8EC" mask="url(#path-43-inside-4_10763_2131)"/>
<path d="M242.5 149L245.5 152L242.5 155" stroke="#D9D9E0" stroke-width="1.5" stroke-linecap="round" stroke-linejoin="round"/>
<path d="M265.474 157.14C262.604 157.14 260.518 154.956 260.518 151.932C260.518 148.908 262.576 146.78 265.474 146.78C267.882 146.78 269.702 148.306 269.996 150.616H268.204C267.98 149.104 266.902 148.264 265.488 148.264C263.626 148.264 262.366 149.664 262.366 151.918C262.366 154.214 263.64 155.656 265.502 155.656C266.888 155.656 267.966 154.83 268.218 153.318H270.024C269.674 155.628 267.882 157.14 265.474 157.14ZM272.936 157.14C271.494 157.14 270.584 156.37 270.584 155.152C270.584 153.85 271.578 153.094 273.314 152.828L275.218 152.534V152.184C275.218 151.442 274.798 151.05 273.944 151.05C273.104 151.05 272.6 151.372 272.488 151.946H270.794C270.948 150.63 272.096 149.72 274 149.72C275.946 149.72 276.982 150.63 276.982 152.338V155.572C276.982 156.034 277.038 156.468 277.178 157H275.414C275.33 156.678 275.288 156.328 275.288 155.866C274.854 156.692 274.028 157.14 272.936 157.14ZM272.348 154.956C272.348 155.502 272.754 155.796 273.454 155.796C274.462 155.796 275.218 155.208 275.218 154.494V153.668L273.608 153.906C272.754 154.046 272.348 154.354 272.348 154.956ZM278.594 157V146.92H280.358V157H278.594ZM282.056 157V146.92H283.82V157H282.056ZM288.765 157.14C286.483 157.14 284.957 155.6 284.957 153.402C284.957 151.218 286.483 149.72 288.765 149.72C291.047 149.72 292.573 151.218 292.573 153.402C292.573 155.6 291.033 157.14 288.765 157.14ZM288.765 155.726C289.899 155.726 290.725 154.816 290.725 153.388C290.725 151.988 289.899 151.134 288.765 151.134C287.617 151.134 286.791 151.988 286.791 153.388C286.791 154.816 287.631 155.726 288.765 155.726ZM296.006 157.14C294.522 157.14 293.612 156.104 293.612 154.732V149.86H295.376V154.368C295.376 155.25 295.838 155.698 296.636 155.698C297.714 155.698 298.498 154.886 298.498 153.71V149.86H300.276V157H298.554V155.684C298.05 156.58 297.154 157.14 296.006 157.14ZM305.067 157.14C303.317 157.14 302.505 156.328 302.505 154.648V151.246H301.133V149.86H302.505V148.236L304.283 147.578V149.86H306.229V151.246H304.283V154.69C304.283 155.39 304.647 155.712 305.445 155.712C305.753 155.712 306.005 155.656 306.229 155.586V156.958C305.991 157.084 305.571 157.14 305.067 157.14Z" fill="#B9BBC6"/>
<mask id="path-47-inside-5_10763_2131" fill="white">
<path d="M228 168H444V200H228V168Z"/>
</mask>
<path d="M444 199H228V201H444V199Z" fill="#E8E8EC" mask="url(#path-47-inside-5_10763_2131)"/>
<path d="M242.5 181L245.5 184L242.5 187" stroke="#D9D9E0" stroke-width="1.5" stroke-linecap="round" stroke-linejoin="round"/>
<path d="M260.868 189V178.92H264.578C267.882 178.92 270.052 180.88 270.052 183.932C270.052 186.984 267.854 189 264.592 189H260.868ZM264.578 180.376H262.688V187.544H264.578C266.86 187.544 268.204 186.046 268.204 183.904C268.204 181.79 266.888 180.376 264.578 180.376ZM273.141 189.14C271.699 189.14 270.789 188.37 270.789 187.152C270.789 185.85 271.783 185.094 273.519 184.828L275.423 184.534V184.184C275.423 183.442 275.003 183.05 274.149 183.05C273.309 183.05 272.805 183.372 272.693 183.946H270.999C271.153 182.63 272.301 181.72 274.205 181.72C276.151 181.72 277.187 182.63 277.187 184.338V187.572C277.187 188.034 277.243 188.468 277.383 189H275.619C275.535 188.678 275.493 188.328 275.493 187.866C275.059 188.692 274.233 189.14 273.141 189.14ZM272.553 186.956C272.553 187.502 272.959 187.796 273.659 187.796C274.667 187.796 275.423 187.208 275.423 186.494V185.668L273.813 185.906C272.959 186.046 272.553 186.354 272.553 186.956ZM281.608 189.14C279.858 189.14 279.046 188.328 279.046 186.648V183.246H277.674V181.86H279.046V180.236L280.824 179.578V181.86H282.77V183.246H280.824V186.69C280.824 187.39 281.188 187.712 281.986 187.712C282.294 187.712 282.546 187.656 282.77 187.586V188.958C282.532 189.084 282.112 189.14 281.608 189.14ZM285.793 189.14C284.351 189.14 283.441 188.37 283.441 187.152C283.441 185.85 284.435 185.094 286.171 184.828L288.075 184.534V184.184C288.075 183.442 287.655 183.05 286.801 183.05C285.961 183.05 285.457 183.372 285.345 183.946H283.651C283.805 182.63 284.953 181.72 286.857 181.72C288.803 181.72 289.839 182.63 289.839 184.338V187.572C289.839 188.034 289.895 188.468 290.035 189H288.271C288.187 188.678 288.145 188.328 288.145 187.866C287.711 188.692 286.885 189.14 285.793 189.14ZM285.205 186.956C285.205 187.502 285.611 187.796 286.311 187.796C287.319 187.796 288.075 187.208 288.075 186.494V185.668L286.465 185.906C285.611 186.046 285.205 186.354 285.205 186.956ZM294.26 189.14C292.51 189.14 291.698 188.328 291.698 186.648V183.246H290.326V181.86H291.698V180.236L293.476 179.578V181.86H295.422V183.246H293.476V186.69C293.476 187.39 293.84 187.712 294.638 187.712C294.946 187.712 295.198 187.656 295.422 187.586V188.958C295.184 189.084 294.764 189.14 294.26 189.14ZM298.445 189.14C297.003 189.14 296.093 188.37 296.093 187.152C296.093 185.85 297.087 185.094 298.823 184.828L300.727 184.534V184.184C300.727 183.442 300.307 183.05 299.453 183.05C298.613 183.05 298.109 183.372 297.997 183.946H296.303C296.457 182.63 297.605 181.72 299.509 181.72C301.455 181.72 302.491 182.63 302.491 184.338V187.572C302.491 188.034 302.547 188.468 302.687 189H300.923C300.839 188.678 300.797 188.328 300.797 187.866C300.363 188.692 299.537 189.14 298.445 189.14ZM297.857 186.956C297.857 187.502 298.263 187.796 298.963 187.796C299.971 187.796 300.727 187.208 300.727 186.494V185.668L299.117 185.906C298.263 186.046 297.857 186.354 297.857 186.956ZM308.177 189.14C307.001 189.14 306.161 188.636 305.825 187.768V189H304.103V178.92H305.867V183.036C306.245 182.224 307.127 181.72 308.289 181.72C310.193 181.72 311.439 183.176 311.439 185.402C311.439 187.656 310.151 189.14 308.177 189.14ZM307.729 187.684C308.849 187.684 309.591 186.844 309.591 185.416C309.591 183.988 308.849 183.162 307.715 183.162C306.581 183.162 305.839 184.002 305.839 185.43C305.839 186.858 306.581 187.684 307.729 187.684ZM312.623 189V178.92H314.387V189H312.623ZM319.291 189.14C317.023 189.14 315.525 187.614 315.525 185.416C315.525 183.218 317.037 181.72 319.263 181.72C321.391 181.72 322.763 183.134 322.763 185.262C322.763 185.542 322.735 185.752 322.707 185.962H317.317C317.471 187.166 318.157 187.81 319.305 187.81C320.061 187.81 320.621 187.53 320.901 186.956H322.567C322.105 188.314 320.971 189.14 319.291 189.14ZM319.235 183.05C318.227 183.05 317.555 183.638 317.359 184.73H320.971C320.873 183.61 320.243 183.05 319.235 183.05Z" fill="#B9BBC6"/>
<mask id="path-51-inside-6_10763_2131" fill="white">
<path d="M228 200H444V232H228V200Z"/>
</mask>
<path d="M444 231H228V233H444V231Z" fill="#E8E8EC" mask="url(#path-51-inside-6_10763_2131)"/>
<path d="M242.5 213L245.5 216L242.5 219" stroke="#D9D9E0" stroke-width="1.5" stroke-linecap="round" stroke-linejoin="round"/>
<path d="M260.868 221V210.92H267.742V212.362H262.688V215.512H267.406V216.954H262.688V221H260.868ZM272.023 221.14C269.741 221.14 268.215 219.6 268.215 217.402C268.215 215.218 269.741 213.72 272.023 213.72C274.305 213.72 275.831 215.218 275.831 217.402C275.831 219.6 274.291 221.14 272.023 221.14ZM272.023 219.726C273.157 219.726 273.983 218.816 273.983 217.388C273.983 215.988 273.157 215.134 272.023 215.134C270.875 215.134 270.049 215.988 270.049 217.388C270.049 218.816 270.889 219.726 272.023 219.726ZM276.953 221V213.86H278.675V215.204C279.067 214.238 279.837 213.72 280.831 213.72C281.013 213.72 281.153 213.734 281.251 213.776V215.442C281.153 215.414 280.985 215.4 280.747 215.4C279.389 215.4 278.717 215.974 278.717 217.276V221H276.953ZM282.233 221V213.86H283.955V215.176C284.459 214.28 285.355 213.72 286.461 213.72C287.581 213.72 288.365 214.266 288.673 215.12C289.191 214.252 290.101 213.72 291.221 213.72C292.705 213.72 293.615 214.644 293.615 216.044V221H291.837V216.394C291.837 215.554 291.403 215.162 290.647 215.162C289.597 215.162 288.813 215.932 288.813 217.08V221H287.035V216.394C287.035 215.554 286.601 215.162 285.831 215.162C284.795 215.162 283.997 215.932 283.997 217.08V221H282.233Z" fill="#B9BBC6"/>
</g>
<rect x="228.5" y="40.5" width="215" height="191" rx="9.5" stroke="#E8E8EC"/>
</g>
<rect width="668" height="140" transform="translate(0 140)" fill="url(#paint3_linear_10763_2131)"/>
</g>
<defs>
<filter id="filter0_b_10763_2131" x="216" y="28" width="240" height="216" filterUnits="userSpaceOnUse" color-interpolation-filters="sRGB">
<feFlood flood-opacity="0" result="BackgroundImageFix"/>
<feGaussianBlur in="BackgroundImageFix" stdDeviation="6"/>
<feComposite in2="SourceAlpha" operator="in" result="effect1_backgroundBlur_10763_2131"/>
<feBlend mode="normal" in="SourceGraphic" in2="effect1_backgroundBlur_10763_2131" result="shape"/>
</filter>
<radialGradient id="paint0_radial_10763_2131" cx="0" cy="0" r="1" gradientUnits="userSpaceOnUse" gradientTransform="translate(334 143) rotate(90) scale(167 194)">
<stop stop-color="#F4F0FE"/>
<stop offset="1" stop-color="#F9F9FB" stop-opacity="0"/>
</radialGradient>
<linearGradient id="paint1_linear_10763_2131" x1="40" y1="104.5" x2="628" y2="104.5" gradientUnits="userSpaceOnUse">
<stop stop-color="#F9F9FB"/>
<stop offset="0.2" stop-color="#F0F0F3"/>
<stop offset="0.8" stop-color="#F0F0F3"/>
<stop offset="1" stop-color="#F9F9FB"/>
</linearGradient>
<linearGradient id="paint2_linear_10763_2131" x1="40" y1="168.5" x2="628" y2="168.5" gradientUnits="userSpaceOnUse">
<stop stop-color="#F9F9FB"/>
<stop offset="0.2" stop-color="#F0F0F3"/>
<stop offset="0.8" stop-color="#F0F0F3"/>
<stop offset="1" stop-color="#F9F9FB"/>
</linearGradient>
<linearGradient id="paint3_linear_10763_2131" x1="334" y1="0" x2="334" y2="140" gradientUnits="userSpaceOnUse">
<stop stop-color="#F9F9FB" stop-opacity="0"/>
<stop offset="0.638983" stop-color="#F9F9FB"/>
</linearGradient>
<clipPath id="clip0_10763_2131">
<rect width="668" height="280" fill="white"/>
</clipPath>
<clipPath id="clip1_10763_2131">
<rect x="228" y="40" width="216" height="192" rx="10" fill="white"/>
</clipPath>
<clipPath id="clip2_10763_2131">
<rect width="14" height="14" fill="white" transform="translate(237 49)"/>
</clipPath>
</defs>
</svg>
