<svg xmlns="http://www.w3.org/2000/svg" width="668" height="280" fill="none" viewBox="0 0 668 280"><g clip-path="url(#a)"><ellipse cx="334" cy="143" fill="url(#b)" rx="194" ry="167"/><rect width="88" height="8" x="84" y="124" fill="#E0E1E6" rx="4"/><rect width="56" height="8" x="84" y="60" fill="#E0E1E6" rx="4"/><rect width="88" height="8" x="84" y="188" fill="#E0E1E6" rx="4"/><rect width="40" height="8" x="84" y="140" fill="#E0E1E6" rx="4"/><rect width="88" height="8" x="84" y="76" fill="#E0E1E6" rx="4"/><rect width="64" height="8" x="84" y="204" fill="#E0E1E6" rx="4"/><rect width="32" height="32" x="40" y="120" fill="#F0F0F3" rx="16"/><path fill="#D9D9E0" d="M52.385 138.321c-.943.562-3.416 1.708-1.91 3.143.736.701 1.555 1.203 2.586 1.203h5.878c1.03 0 1.85-.502 2.586-1.203 1.506-1.435-.967-2.581-1.91-3.143a7.11 7.11 0 0 0-7.23 0M59 132.333a3 3 0 1 1-6 0 3 3 0 0 1 6 0"/><rect width="32" height="32" x="40" y="56" fill="#F0F0F3" rx="16"/><path fill="#D9D9E0" d="M52.385 74.321c-.943.562-3.416 1.708-1.91 3.143.736.701 1.555 1.203 2.586 1.203h5.878c1.03 0 1.85-.502 2.586-1.203 1.506-1.435-.967-2.581-1.91-3.143a7.11 7.11 0 0 0-7.23 0M59 68.333a3 3 0 1 1-6 0 3 3 0 0 1 6 0"/><rect width="32" height="32" x="40" y="184" fill="#F0F0F3" rx="16"/><path fill="#D9D9E0" d="M52.385 202.321c-.943.562-3.416 1.708-1.91 3.143.736.701 1.555 1.203 2.586 1.203h5.878c1.03 0 1.85-.502 2.586-1.203 1.506-1.435-.967-2.581-1.91-3.143a7.11 7.11 0 0 0-7.23 0M59 196.333a3 3 0 1 1-6 0 3 3 0 0 1 6 0"/><rect width="40" height="20" x="588" y="126" fill="#F0F0F3" rx="10"/><rect width="14" height="14" x="591" y="129" fill="#D9D9E0" rx="7"/><rect width="40" height="20" x="588" y="62" fill="#F0F0F3" rx="10"/><rect width="14" height="14" x="611" y="65" fill="#6E56CF" rx="7"/><rect width="40" height="20" x="588" y="190" fill="#F0F0F3" rx="10"/><rect width="14" height="14" x="591" y="193" fill="#D9D9E0" rx="7"/><path stroke="url(#c)" d="M40 103.5h588"/><path stroke="url(#d)" d="M40 167.5h588"/><rect width="32" height="32" x="500" y="120" fill="#F0F0F3" rx="8"/><path fill="#6E56CF" fill-rule="evenodd" d="M514.882 129.506a3.7 3.7 0 0 1 2.235 0c.723.229 1.291.771 1.862 1.534.568.76 1.196 1.82 2.006 3.186l.032.054c.81 1.366 1.438 2.426 1.829 3.285.394.864.59 1.609.433 2.326a3.48 3.48 0 0 1-1.11 1.873c-.564.494-1.332.703-2.299.803-.961.1-2.219.1-3.837.1h-.066c-1.619 0-2.876 0-3.838-.1-.966-.1-1.734-.309-2.298-.803a3.5 3.5 0 0 1-1.111-1.873c-.156-.717.04-1.462.433-2.326.392-.859 1.02-1.919 1.83-3.285l.032-.054c.809-1.366 1.438-2.426 2.006-3.186.571-.763 1.138-1.305 1.861-1.534" clip-rule="evenodd"/><path fill="#C2B5F5" fill-rule="evenodd" d="M515.318 139.252c0-.359.304-.65.679-.65h.006c.375 0 .679.291.679.65s-.304.65-.679.65h-.006c-.375 0-.679-.291-.679-.65m0-2.602c0 .36.305.651.682.651s.682-.291.682-.651v-2.601c0-.359-.305-.651-.682-.651s-.682.292-.682.651z" clip-rule="evenodd"/><rect width="32" height="32" x="500" y="56" fill="#F0F0F3" rx="8"/><path fill="#D9D9E0" fill-rule="evenodd" d="M516 64.833c-.261 0-.52.08-.763.172-.247.094-.553.23-.927.396a16 16 0 0 1-2.062.75c-.567.162-1.037.296-1.395.435-.361.14-.716.324-.959.647-.234.31-.319.668-.358 1.03-.036.345-.036.774-.036 1.28v1.925c0 2.044.921 3.66 2.023 4.857 1.098 1.192 2.451 2.025 3.308 2.479.356.189.684.363 1.169.363s.813-.174 1.169-.363c.857-.454 2.21-1.287 3.308-2.48 1.102-1.196 2.023-2.812 2.023-4.856v-1.926c0-.505 0-.934-.036-1.28-.039-.361-.124-.719-.358-1.03-.243-.322-.598-.506-.959-.646-.358-.14-.828-.273-1.395-.435a16 16 0 0 1-2.062-.75c-.374-.166-.68-.302-.927-.396-.243-.091-.502-.172-.763-.172m-1.181 1.767c.397-.176.669-.297.877-.375.216-.082.29-.089.304-.089s.088.007.304.089c.208.078.48.199.877.376.594.264 1.338.554 2.184.795l.241.069-7.51 7.529c-.759-.96-1.296-2.13-1.296-3.526v-1.891c0-.55.001-.91.029-1.177.028-.26.074-.344.102-.382.02-.026.093-.1.392-.217.295-.115.705-.232 1.312-.405.846-.241 1.59-.531 2.184-.796" clip-rule="evenodd"/><rect width="32" height="32" x="500" y="184" fill="#F0F0F3" rx="8"/><path fill="#D9D9E0" fill-rule="evenodd" d="M516 192.833c-.261 0-.52.08-.763.172-.247.094-.553.23-.927.396a16 16 0 0 1-2.062.75c-.567.162-1.037.296-1.395.435-.361.14-.716.324-.959.647-.234.31-.319.668-.358 1.029-.036.346-.036.775-.036 1.28v1.926c0 2.044.921 3.66 2.023 4.857 1.098 1.192 2.451 2.026 3.308 2.479.356.189.684.363 1.169.363s.813-.174 1.169-.363c.857-.453 2.21-1.287 3.308-2.479 1.102-1.197 2.023-2.813 2.023-4.857v-1.926c0-.505 0-.934-.036-1.28-.039-.361-.124-.719-.358-1.029-.243-.323-.598-.507-.959-.647-.358-.139-.828-.273-1.395-.435a16 16 0 0 1-2.062-.75c-.374-.166-.68-.302-.927-.396-.243-.092-.502-.172-.763-.172m-1.181 1.767c.397-.176.669-.297.877-.376.216-.081.29-.088.304-.088s.088.007.304.088c.208.079.48.2.877.376.594.265 1.338.555 2.184.796l.241.068-7.51 7.53c-.759-.96-1.296-2.13-1.296-3.526v-1.891c0-.549.001-.909.029-1.177.028-.26.074-.344.102-.382.02-.026.093-.101.392-.217.295-.115.705-.232 1.312-.405.846-.241 1.59-.531 2.184-.796" clip-rule="evenodd"/><g filter="url(#e)"><g clip-path="url(#f)"><rect width="216" height="192" x="228" y="40" fill="#F9F9FB" fill-opacity=".48" rx="10"/><mask id="g" fill="#fff"><path d="M228 40h216v32H228z"/></mask><path fill="#F9F9FB" d="M228 40h216v32H228z"/><path fill="#E8E8EC" d="M444 71H228v2h216z" mask="url(#g)"/><g clip-path="url(#h)"><path stroke="#D9D9E0" stroke-linecap="round" stroke-linejoin="round" stroke-width="1.5" d="m247.21 59.209 2.625 2.625m-1.167-6.417a5.25 5.25 0 1 0-10.5 0 5.25 5.25 0 0 0 10.5 0"/></g><path fill="#D9D9E0" d="M265.474 61.14c-2.87 0-4.956-2.184-4.956-5.208s2.058-5.152 4.956-5.152c2.408 0 4.228 1.526 4.522 3.836h-1.792c-.224-1.512-1.302-2.352-2.716-2.352-1.862 0-3.122 1.4-3.122 3.654 0 2.296 1.274 3.738 3.136 3.738 1.386 0 2.464-.826 2.716-2.338h1.806c-.35 2.31-2.142 3.822-4.55 3.822m8.969 0c-2.282 0-3.808-1.54-3.808-3.738 0-2.184 1.526-3.682 3.808-3.682s3.808 1.498 3.808 3.682c0 2.198-1.54 3.738-3.808 3.738m0-1.414c1.134 0 1.96-.91 1.96-2.338 0-1.4-.826-2.254-1.96-2.254-1.148 0-1.974.854-1.974 2.254 0 1.428.84 2.338 1.974 2.338m4.93 1.274v-7.14h1.722v1.316c.504-.896 1.4-1.456 2.506-1.456 1.12 0 1.904.546 2.212 1.4.518-.868 1.428-1.4 2.548-1.4 1.484 0 2.394.924 2.394 2.324V61h-1.778v-4.606c0-.84-.434-1.232-1.19-1.232-1.05 0-1.834.77-1.834 1.918V61h-1.778v-4.606c0-.84-.434-1.232-1.204-1.232-1.036 0-1.834.77-1.834 1.918V61zm17.079.14c-1.148 0-1.946-.49-2.31-1.316v4.046h-1.764V53.86h1.722v1.19c.378-.826 1.302-1.33 2.464-1.33 1.904 0 3.15 1.456 3.15 3.682 0 2.254-1.288 3.738-3.262 3.738m-.448-1.456c1.12 0 1.862-.84 1.862-2.268s-.742-2.254-1.876-2.254-1.876.84-1.876 2.268.742 2.254 1.89 2.254m8.238 1.456c-2.282 0-3.808-1.54-3.808-3.738 0-2.184 1.526-3.682 3.808-3.682s3.808 1.498 3.808 3.682c0 2.198-1.54 3.738-3.808 3.738m0-1.414c1.134 0 1.96-.91 1.96-2.338 0-1.4-.826-2.254-1.96-2.254-1.148 0-1.974.854-1.974 2.254 0 1.428.84 2.338 1.974 2.338m4.93 1.274v-7.14h1.722v1.316c.504-.896 1.4-1.456 2.604-1.456 1.554 0 2.464.938 2.464 2.408V61h-1.778v-4.508c0-.882-.448-1.33-1.316-1.33-1.134 0-1.932.812-1.932 1.988V61zm11.604.14c-2.268 0-3.766-1.526-3.766-3.724s1.512-3.696 3.738-3.696c2.128 0 3.5 1.414 3.5 3.542 0 .28-.028.49-.056.7h-5.39c.154 1.204.84 1.848 1.988 1.848.756 0 1.316-.28 1.596-.854h1.666c-.462 1.358-1.596 2.184-3.276 2.184m-.056-6.09c-1.008 0-1.68.588-1.876 1.68h3.612c-.098-1.12-.728-1.68-1.736-1.68m4.673 5.95v-7.14h1.722v1.316c.504-.896 1.4-1.456 2.604-1.456 1.554 0 2.464.938 2.464 2.408V61h-1.778v-4.508c0-.882-.448-1.33-1.316-1.33-1.134 0-1.932.812-1.932 1.988V61zm11.343.14c-1.75 0-2.562-.812-2.562-2.492v-3.402h-1.372V53.86h1.372v-1.624l1.778-.658v2.282h1.946v1.386h-1.946v3.444c0 .7.364 1.022 1.162 1.022.308 0 .56-.056.784-.126v1.372c-.238.126-.658.182-1.162.182m4.968 0c-1.974 0-3.22-.868-3.332-2.352h1.61c.098.728.7 1.106 1.722 1.106.91 0 1.372-.294 1.372-.84 0-.392-.21-.644-.938-.798l-1.148-.266c-1.582-.336-2.31-1.05-2.31-2.142 0-1.33 1.078-2.128 2.87-2.128 1.778 0 2.898.798 3.024 2.128h-1.61c-.084-.574-.602-.882-1.456-.882-.798 0-1.218.266-1.218.742 0 .378.28.616 1.036.798l1.232.28c1.414.308 2.128 1.134 2.128 2.212 0 1.358-1.092 2.142-2.982 2.142"/><mask id="i" fill="#fff"><path d="M228 72h216v32H228z"/></mask><path fill="#E8E8EC" d="M444 103H228v2h216z" mask="url(#i)"/><path stroke="#D9D9E0" stroke-linecap="round" stroke-linejoin="round" stroke-width="1.5" d="m242.5 85 3 3-3 3"/><path fill="#B9BBC6" d="m260.392 93 3.71-10.08h2.072L269.87 93h-1.876l-.868-2.506h-4.074L262.184 93zm3.164-3.962h3.066l-1.526-4.452zM272.007 93l-2.856-7.14h1.904l1.82 5.222 1.806-5.222h1.848l-2.87 7.14zm6.961.14c-1.442 0-2.352-.77-2.352-1.988 0-1.302.994-2.058 2.73-2.324l1.904-.294v-.35c0-.742-.42-1.134-1.274-1.134-.84 0-1.344.322-1.456.896h-1.694c.154-1.316 1.302-2.226 3.206-2.226 1.946 0 2.982.91 2.982 2.618v3.234c0 .462.056.896.196 1.428h-1.764a4.4 4.4 0 0 1-.126-1.134c-.434.826-1.26 1.274-2.352 1.274m-.588-2.184c0 .546.406.84 1.106.84 1.008 0 1.764-.588 1.764-1.302v-.826l-1.61.238c-.854.14-1.26.448-1.26 1.05m9.055 2.184c-1.75 0-2.562-.812-2.562-2.492v-3.402h-1.372V85.86h1.372v-1.624l1.778-.658v2.282h1.946v1.386h-1.946v3.444c0 .7.364 1.022 1.162 1.022.308 0 .56-.056.784-.126v1.372c-.238.126-.658.182-1.162.182m4.185 0c-1.442 0-2.352-.77-2.352-1.988 0-1.302.994-2.058 2.73-2.324l1.904-.294v-.35c0-.742-.42-1.134-1.274-1.134-.84 0-1.344.322-1.456.896h-1.694c.154-1.316 1.302-2.226 3.206-2.226 1.946 0 2.982.91 2.982 2.618v3.234c0 .462.056.896.196 1.428h-1.764a4.4 4.4 0 0 1-.126-1.134c-.434.826-1.26 1.274-2.352 1.274m-.588-2.184c0 .546.406.84 1.106.84 1.008 0 1.764-.588 1.764-1.302v-.826l-1.61.238c-.854.14-1.26.448-1.26 1.05M297.278 93v-7.14H299v1.344c.392-.966 1.162-1.484 2.156-1.484.182 0 .322.014.42.056v1.666a2 2 0 0 0-.504-.042c-1.358 0-2.03.574-2.03 1.876V93z"/><mask id="j" fill="#fff"><path d="M228 104h216v32H228z"/></mask><path fill="#E8E8EC" d="M444 135H228v2h216z" mask="url(#j)"/><path stroke="#D9D9E0" stroke-linecap="round" stroke-linejoin="round" stroke-width="1.5" d="m242.5 117 3 3-3 3"/><path fill="#B9BBC6" d="M260.868 125v-10.08h4.424c1.806 0 2.996.966 2.996 2.52 0 1.106-.644 1.918-1.582 2.24 1.092.336 1.862 1.302 1.862 2.59 0 1.652-1.232 2.73-3.094 2.73zm4.088-8.736h-2.268v2.786h2.212c1.008 0 1.568-.49 1.568-1.414 0-.896-.532-1.372-1.512-1.372m.07 4.13h-2.338v3.262h2.422c1.022 0 1.61-.602 1.61-1.596 0-1.022-.63-1.666-1.694-1.666m7.029 4.746c-1.484 0-2.394-1.036-2.394-2.408v-4.872h1.764v4.508c0 .882.462 1.33 1.26 1.33 1.078 0 1.862-.812 1.862-1.988v-3.85h1.778V125h-1.722v-1.316c-.504.896-1.4 1.456-2.548 1.456m9.061 0c-1.75 0-2.562-.812-2.562-2.492v-3.402h-1.372v-1.386h1.372v-1.624l1.778-.658v2.282h1.946v1.386h-1.946v3.444c0 .7.364 1.022 1.162 1.022.308 0 .56-.056.784-.126v1.372c-.238.126-.658.182-1.162.182m5.608 0c-1.75 0-2.562-.812-2.562-2.492v-3.402h-1.372v-1.386h1.372v-1.624l1.778-.658v2.282h1.946v1.386h-1.946v3.444c0 .7.364 1.022 1.162 1.022.308 0 .56-.056.784-.126v1.372c-.238.126-.658.182-1.162.182m5.336 0c-2.282 0-3.808-1.54-3.808-3.738 0-2.184 1.526-3.682 3.808-3.682s3.808 1.498 3.808 3.682c0 2.198-1.54 3.738-3.808 3.738m0-1.414c1.134 0 1.96-.91 1.96-2.338 0-1.4-.826-2.254-1.96-2.254-1.148 0-1.974.854-1.974 2.254 0 1.428.84 2.338 1.974 2.338m4.931 1.274v-7.14h1.722v1.316c.504-.896 1.4-1.456 2.604-1.456 1.554 0 2.464.938 2.464 2.408V125h-1.778v-4.508c0-.882-.448-1.33-1.316-1.33-1.134 0-1.932.812-1.932 1.988V125z"/><mask id="k" fill="#fff"><path d="M228 136h216v32H228z"/></mask><path fill="#E8E8EC" d="M444 167H228v2h216z" mask="url(#k)"/><path stroke="#D9D9E0" stroke-linecap="round" stroke-linejoin="round" stroke-width="1.5" d="m242.5 149 3 3-3 3"/><path fill="#B9BBC6" d="M265.474 157.14c-2.87 0-4.956-2.184-4.956-5.208s2.058-5.152 4.956-5.152c2.408 0 4.228 1.526 4.522 3.836h-1.792c-.224-1.512-1.302-2.352-2.716-2.352-1.862 0-3.122 1.4-3.122 3.654 0 2.296 1.274 3.738 3.136 3.738 1.386 0 2.464-.826 2.716-2.338h1.806c-.35 2.31-2.142 3.822-4.55 3.822m7.462 0c-1.442 0-2.352-.77-2.352-1.988 0-1.302.994-2.058 2.73-2.324l1.904-.294v-.35c0-.742-.42-1.134-1.274-1.134-.84 0-1.344.322-1.456.896h-1.694c.154-1.316 1.302-2.226 3.206-2.226 1.946 0 2.982.91 2.982 2.618v3.234c0 .462.056.896.196 1.428h-1.764a4.4 4.4 0 0 1-.126-1.134c-.434.826-1.26 1.274-2.352 1.274m-.588-2.184c0 .546.406.84 1.106.84 1.008 0 1.764-.588 1.764-1.302v-.826l-1.61.238c-.854.14-1.26.448-1.26 1.05m6.246 2.044v-10.08h1.764V157zm3.462 0v-10.08h1.764V157zm6.709.14c-2.282 0-3.808-1.54-3.808-3.738 0-2.184 1.526-3.682 3.808-3.682s3.808 1.498 3.808 3.682c0 2.198-1.54 3.738-3.808 3.738m0-1.414c1.134 0 1.96-.91 1.96-2.338 0-1.4-.826-2.254-1.96-2.254-1.148 0-1.974.854-1.974 2.254 0 1.428.84 2.338 1.974 2.338m7.241 1.414c-1.484 0-2.394-1.036-2.394-2.408v-4.872h1.764v4.508c0 .882.462 1.33 1.26 1.33 1.078 0 1.862-.812 1.862-1.988v-3.85h1.778V157h-1.722v-1.316c-.504.896-1.4 1.456-2.548 1.456m9.061 0c-1.75 0-2.562-.812-2.562-2.492v-3.402h-1.372v-1.386h1.372v-1.624l1.778-.658v2.282h1.946v1.386h-1.946v3.444c0 .7.364 1.022 1.162 1.022.308 0 .56-.056.784-.126v1.372c-.238.126-.658.182-1.162.182"/><mask id="l" fill="#fff"><path d="M228 168h216v32H228z"/></mask><path fill="#E8E8EC" d="M444 199H228v2h216z" mask="url(#l)"/><path stroke="#D9D9E0" stroke-linecap="round" stroke-linejoin="round" stroke-width="1.5" d="m242.5 181 3 3-3 3"/><path fill="#B9BBC6" d="M260.868 189v-10.08h3.71c3.304 0 5.474 1.96 5.474 5.012s-2.198 5.068-5.46 5.068zm3.71-8.624h-1.89v7.168h1.89c2.282 0 3.626-1.498 3.626-3.64 0-2.114-1.316-3.528-3.626-3.528m8.563 8.764c-1.442 0-2.352-.77-2.352-1.988 0-1.302.994-2.058 2.73-2.324l1.904-.294v-.35c0-.742-.42-1.134-1.274-1.134-.84 0-1.344.322-1.456.896h-1.694c.154-1.316 1.302-2.226 3.206-2.226 1.946 0 2.982.91 2.982 2.618v3.234c0 .462.056.896.196 1.428h-1.764a4.4 4.4 0 0 1-.126-1.134c-.434.826-1.26 1.274-2.352 1.274m-.588-2.184c0 .546.406.84 1.106.84 1.008 0 1.764-.588 1.764-1.302v-.826l-1.61.238c-.854.14-1.26.448-1.26 1.05m9.055 2.184c-1.75 0-2.562-.812-2.562-2.492v-3.402h-1.372v-1.386h1.372v-1.624l1.778-.658v2.282h1.946v1.386h-1.946v3.444c0 .7.364 1.022 1.162 1.022.308 0 .56-.056.784-.126v1.372c-.238.126-.658.182-1.162.182m4.185 0c-1.442 0-2.352-.77-2.352-1.988 0-1.302.994-2.058 2.73-2.324l1.904-.294v-.35c0-.742-.42-1.134-1.274-1.134-.84 0-1.344.322-1.456.896h-1.694c.154-1.316 1.302-2.226 3.206-2.226 1.946 0 2.982.91 2.982 2.618v3.234c0 .462.056.896.196 1.428h-1.764a4.4 4.4 0 0 1-.126-1.134c-.434.826-1.26 1.274-2.352 1.274m-.588-2.184c0 .546.406.84 1.106.84 1.008 0 1.764-.588 1.764-1.302v-.826l-1.61.238c-.854.14-1.26.448-1.26 1.05m9.055 2.184c-1.75 0-2.562-.812-2.562-2.492v-3.402h-1.372v-1.386h1.372v-1.624l1.778-.658v2.282h1.946v1.386h-1.946v3.444c0 .7.364 1.022 1.162 1.022.308 0 .56-.056.784-.126v1.372c-.238.126-.658.182-1.162.182m4.185 0c-1.442 0-2.352-.77-2.352-1.988 0-1.302.994-2.058 2.73-2.324l1.904-.294v-.35c0-.742-.42-1.134-1.274-1.134-.84 0-1.344.322-1.456.896h-1.694c.154-1.316 1.302-2.226 3.206-2.226 1.946 0 2.982.91 2.982 2.618v3.234c0 .462.056.896.196 1.428h-1.764a4.4 4.4 0 0 1-.126-1.134c-.434.826-1.26 1.274-2.352 1.274m-.588-2.184c0 .546.406.84 1.106.84 1.008 0 1.764-.588 1.764-1.302v-.826l-1.61.238c-.854.14-1.26.448-1.26 1.05m10.32 2.184c-1.176 0-2.016-.504-2.352-1.372V189h-1.722v-10.08h1.764v4.116c.378-.812 1.26-1.316 2.422-1.316 1.904 0 3.15 1.456 3.15 3.682 0 2.254-1.288 3.738-3.262 3.738m-.448-1.456c1.12 0 1.862-.84 1.862-2.268s-.742-2.254-1.876-2.254-1.876.84-1.876 2.268.742 2.254 1.89 2.254m4.894 1.316v-10.08h1.764V189zm6.668.14c-2.268 0-3.766-1.526-3.766-3.724s1.512-3.696 3.738-3.696c2.128 0 3.5 1.414 3.5 3.542 0 .28-.028.49-.056.7h-5.39c.154 1.204.84 1.848 1.988 1.848.756 0 1.316-.28 1.596-.854h1.666c-.462 1.358-1.596 2.184-3.276 2.184m-.056-6.09c-1.008 0-1.68.588-1.876 1.68h3.612c-.098-1.12-.728-1.68-1.736-1.68"/><mask id="m" fill="#fff"><path d="M228 200h216v32H228z"/></mask><path fill="#E8E8EC" d="M444 231H228v2h216z" mask="url(#m)"/><path stroke="#D9D9E0" stroke-linecap="round" stroke-linejoin="round" stroke-width="1.5" d="m242.5 213 3 3-3 3"/><path fill="#B9BBC6" d="M260.868 221v-10.08h6.874v1.442h-5.054v3.15h4.718v1.442h-4.718V221zm11.155.14c-2.282 0-3.808-1.54-3.808-3.738 0-2.184 1.526-3.682 3.808-3.682s3.808 1.498 3.808 3.682c0 2.198-1.54 3.738-3.808 3.738m0-1.414c1.134 0 1.96-.91 1.96-2.338 0-1.4-.826-2.254-1.96-2.254-1.148 0-1.974.854-1.974 2.254 0 1.428.84 2.338 1.974 2.338m4.93 1.274v-7.14h1.722v1.344c.392-.966 1.162-1.484 2.156-1.484.182 0 .322.014.42.056v1.666a2 2 0 0 0-.504-.042c-1.358 0-2.03.574-2.03 1.876V221zm5.28 0v-7.14h1.722v1.316c.504-.896 1.4-1.456 2.506-1.456 1.12 0 1.904.546 2.212 1.4.518-.868 1.428-1.4 2.548-1.4 1.484 0 2.394.924 2.394 2.324V221h-1.778v-4.606c0-.84-.434-1.232-1.19-1.232-1.05 0-1.834.77-1.834 1.918V221h-1.778v-4.606c0-.84-.434-1.232-1.204-1.232-1.036 0-1.834.77-1.834 1.918V221z"/></g><rect width="215" height="191" x="228.5" y="40.5" stroke="#E8E8EC" rx="9.5"/></g><path fill="url(#n)" d="M0 0h668v140H0z" transform="translate(0 140)"/></g><defs><linearGradient id="c" x1="40" x2="628" y1="104.5" y2="104.5" gradientUnits="userSpaceOnUse"><stop stop-color="#F9F9FB"/><stop offset=".2" stop-color="#F0F0F3"/><stop offset=".8" stop-color="#F0F0F3"/><stop offset="1" stop-color="#F9F9FB"/></linearGradient><linearGradient id="d" x1="40" x2="628" y1="168.5" y2="168.5" gradientUnits="userSpaceOnUse"><stop stop-color="#F9F9FB"/><stop offset=".2" stop-color="#F0F0F3"/><stop offset=".8" stop-color="#F0F0F3"/><stop offset="1" stop-color="#F9F9FB"/></linearGradient><linearGradient id="n" x1="334" x2="334" y1="0" y2="140" gradientUnits="userSpaceOnUse"><stop stop-color="#F9F9FB" stop-opacity="0"/><stop offset=".639" stop-color="#F9F9FB"/></linearGradient><clipPath id="a"><path fill="#fff" d="M0 0h668v280H0z"/></clipPath><clipPath id="f"><rect width="216" height="192" x="228" y="40" fill="#fff" rx="10"/></clipPath><clipPath id="h"><path fill="#fff" d="M237 49h14v14h-14z"/></clipPath><radialGradient id="b" cx="0" cy="0" r="1" gradientTransform="matrix(0 167 -194 0 334 143)" gradientUnits="userSpaceOnUse"><stop stop-color="#F4F0FE"/><stop offset="1" stop-color="#F9F9FB" stop-opacity="0"/></radialGradient><filter id="e" width="240" height="216" x="216" y="28" color-interpolation-filters="sRGB" filterUnits="userSpaceOnUse"><feFlood flood-opacity="0" result="BackgroundImageFix"/><feGaussianBlur in="BackgroundImageFix" stdDeviation="6"/><feComposite in2="SourceAlpha" operator="in" result="effect1_backgroundBlur_10763_2131"/><feBlend in="SourceGraphic" in2="effect1_backgroundBlur_10763_2131" result="shape"/></filter></defs></svg>