<svg xmlns="http://www.w3.org/2000/svg" width="668" height="320" fill="none" viewBox="0 0 668 320"><g clip-path="url(#a)"><ellipse cx="334" cy="167" fill="url(#b)" rx="194" ry="167"/><g filter="url(#c)"><rect width="323" height="224" x="40" y="104" fill="#F9F9FB" fill-opacity=".48" rx="10"/><rect width="322" height="223" x="40.5" y="104.5" stroke="#E8E8EC" rx="9.5"/><path fill="#B9BBC6" d="M67.25 141.13q-1.04 0-1.69-.741-.637-.741-.637-1.989v-1.937q0-1.261.637-2.002.65-.741 1.69-.741.962 0 1.521.611.56.598.559 1.638l-.481-.676h.377l-.052-1.781v-2.002h1.625V141h-1.586v-1.443h-.364l.468-.676q0 1.04-.559 1.651-.546.598-1.508.598m.611-1.404q.624 0 .962-.377.351-.377.351-1.066v-1.716q0-.689-.351-1.066-.338-.377-.962-.377t-.975.338q-.338.338-.338 1.04v1.846q0 .689.338 1.04.351.338.975.338m7.652 1.404q-.91 0-1.586-.351a2.57 2.57 0 0 1-1.053-.988q-.364-.65-.364-1.521v-1.69q0-.871.364-1.508a2.55 2.55 0 0 1 1.053-1.001q.676-.351 1.586-.351.897 0 1.56.351.675.35 1.04.988.377.624.377 1.469v1.3h-4.42v.494q0 .728.377 1.105.377.364 1.066.364.507 0 .858-.169.364-.182.429-.52h1.612q-.169.923-.962 1.482-.793.546-1.937.546m1.417-4.225v-.39q0-.74-.364-1.144-.351-.403-1.053-.403t-1.08.416q-.363.403-.363 1.144v.247l2.977-.013zM81.8 141v-4.706h-1.963v-1.469H81.8v-1.261q0-.936.624-1.495.624-.56 1.65-.559h2.094v1.43h-2.054a.72.72 0 0 0-.507.182q-.182.17-.182.468v1.235h2.743v1.469h-2.743V141zm16.617.13q-.924 0-1.612-.338a2.6 2.6 0 0 1-1.053-.975q-.377-.637-.377-1.495v-1.794q0-.871.377-1.495a2.5 2.5 0 0 1 1.053-.962q.688-.351 1.612-.351 1.338 0 2.145.702.805.689.858 1.885h-1.6q-.038-.56-.415-.858-.378-.312-.988-.312-.663 0-1.04.364-.377.351-.377 1.014v1.807q0 .663.377 1.027t1.04.364q.61 0 .988-.299.377-.312.416-.871h1.599q-.052 1.196-.858 1.898-.807.689-2.145.689m7.483-.013q-.91 0-1.586-.351a2.5 2.5 0 0 1-1.04-.988q-.364-.65-.364-1.521v-1.664q0-.883.364-1.521a2.5 2.5 0 0 1 1.04-.988q.675-.351 1.586-.351.923 0 1.586.351.675.35 1.04.988.364.637.364 1.521v1.664q0 .871-.364 1.521-.365.637-1.04.988-.663.351-1.586.351m0-1.417q.65 0 1.001-.351.364-.364.364-1.04v-1.768q0-.689-.364-1.04-.351-.351-1.001-.351-.638 0-1.001.351-.364.351-.364 1.04v1.768q0 .676.364 1.04.363.351 1.001.351m4.311 1.3v-7.15h1.352v1.04h.273l-.247.182q0-.599.325-.975.325-.377.871-.377.585 0 .949.455.377.442.377 1.157l-.312-.468h.442l-.208.208q.012-.624.351-.988.337-.364.897-.364.662 0 1.079.507.429.507.429 1.326V141h-1.43v-5.33q0-.351-.169-.546-.156-.208-.455-.208a.52.52 0 0 0-.442.208q-.143.195-.143.546V141h-1.3v-5.33q0-.351-.156-.546-.144-.208-.429-.208-.3 0-.468.208-.156.195-.156.546V141zm7.989 2.34v-9.49h1.586v1.443h.364l-.468.676q0-1.04.559-1.638.56-.61 1.508-.611.69 0 1.209.351.534.338.819.949.3.61.299 1.43v1.937q0 .819-.299 1.443-.285.61-.806.962-.52.338-1.222.338-.948 0-1.508-.611-.559-.61-.559-1.638l.468.689h-.377l.052 1.768v2.002zm2.938-3.614q.624 0 .962-.338.351-.351.351-1.04v-1.846q0-.702-.351-1.04-.338-.338-.962-.338t-.975.377q-.338.377-.338 1.066v1.716q0 .689.338 1.066.351.377.975.377m7.561 1.391q-.91 0-1.586-.351a2.5 2.5 0 0 1-1.04-.988q-.364-.65-.364-1.521v-1.664q0-.883.364-1.521.365-.637 1.04-.988.677-.351 1.586-.351.923 0 1.586.351.677.35 1.04.988.364.637.364 1.521v1.664q0 .871-.364 1.521a2.5 2.5 0 0 1-1.04.988q-.662.351-1.586.351m0-1.417q.65 0 1.001-.351.364-.364.364-1.04v-1.768q0-.689-.364-1.04-.35-.351-1.001-.351-.636 0-1.001.351t-.364 1.04v1.768q0 .676.364 1.04.365.351 1.001.351m4.701 1.3v-7.15h1.586v1.365h.442l-.481.377q.013-.858.546-1.365.534-.507 1.417-.507 1.053 0 1.677.702.637.702.637 1.885V141h-1.625v-4.498q0-.663-.338-1.014-.338-.364-.936-.364-.61 0-.962.364-.338.364-.338 1.04V141zm10.512.13q-.91 0-1.586-.351a2.6 2.6 0 0 1-1.053-.988q-.363-.65-.364-1.521v-1.69q0-.871.364-1.508a2.56 2.56 0 0 1 1.053-1.001q.677-.351 1.586-.351.897 0 1.56.351.677.35 1.04.988.377.624.377 1.469v1.3h-4.42v.494q0 .728.377 1.105.378.364 1.066.364.507 0 .858-.169.364-.182.429-.52h1.612q-.168.923-.962 1.482-.792.546-1.937.546m1.417-4.225v-.39q0-.74-.364-1.144-.351-.403-1.053-.403-.701 0-1.079.416-.363.403-.364 1.144v.247l2.977-.013zM148.6 141v-7.15h1.586v1.365h.442l-.481.377q.014-.858.546-1.365.533-.507 1.417-.507 1.053 0 1.677.702.637.702.637 1.885V141h-1.625v-4.498q0-.663-.338-1.014-.337-.364-.936-.364-.61 0-.962.364-.338.364-.338 1.04V141zm11.214 0q-1 0-1.599-.572-.585-.585-.585-1.573v-3.536h-1.976v-1.469h1.976v-2.015h1.638v2.015h2.847v1.469h-2.847v3.497q0 .312.169.52.182.195.494.195h2.119V141zm9.29 1.56q-1.963-.454-3.055-1.794-1.079-1.34-1.079-3.289v-2.327q0-1.95 1.079-3.276 1.092-1.326 3.055-1.794v1.612a3.2 3.2 0 0 0-1.339.663 3.15 3.15 0 0 0-.858 1.196 4.1 4.1 0 0 0-.299 1.599v2.327q0 .871.299 1.599.299.715.858 1.196.572.482 1.339.663zm2.79 0v-1.625q.78-.181 1.339-.663.56-.481.858-1.196a4.2 4.2 0 0 0 .299-1.599v-2.327q0-.884-.299-1.599a3.15 3.15 0 0 0-.858-1.196 3.1 3.1 0 0 0-1.339-.663v-1.612q1.976.468 3.055 1.794t1.079 3.276v2.327q0 1.95-1.079 3.289t-3.055 1.794m10.005-6.669q-.56 0-.884-.299-.325-.299-.325-.793t.325-.78q.324-.299.884-.299.558 0 .884.299.325.286.325.78t-.325.793-.884.299m0 5.239q-.56 0-.884-.299-.325-.299-.325-.78 0-.494.325-.793.324-.299.884-.299.558 0 .884.299t.325.793q0 .481-.325.78-.326.299-.884.299M95.661 165v-7.15h1.586v1.443h.442l-.481.39q0-.91.533-1.43.546-.533 1.482-.533 1.091 0 1.703.702.61.702.611 1.963v.676h-1.625v-.598q0-.663-.338-1.001-.339-.338-.962-.338-.637 0-.988.39-.338.39-.338 1.105V165zm10.252.13q-.91 0-1.586-.351a2.57 2.57 0 0 1-1.053-.988q-.364-.65-.364-1.521v-1.69q0-.871.364-1.508a2.55 2.55 0 0 1 1.053-1.001q.675-.351 1.586-.351.897 0 1.56.351.675.35 1.04.988.377.624.377 1.469v1.3h-4.42v.494q0 .728.377 1.105.376.364 1.066.364.507 0 .858-.169.363-.182.429-.52h1.612q-.17.923-.962 1.482-.794.546-1.937.546m1.417-4.225v-.39q0-.74-.364-1.144-.351-.403-1.053-.403t-1.079.416q-.364.403-.364 1.144v.247l2.977-.013zm6.885 4.095q-1.002 0-1.599-.572-.585-.585-.585-1.573v-3.536h-1.976v-1.469h1.976v-2.015h1.638v2.015h2.847v1.469h-2.847v3.497q0 .312.169.52.182.195.494.195h2.119V165zm6.884.13q-1.365 0-2.145-.754-.78-.767-.78-2.08v-4.446h1.625v4.433q0 .677.338 1.053.339.377.962.377.612 0 .949-.377.351-.377.351-1.053v-4.433h1.625v4.446q0 1.313-.793 2.08-.792.754-2.132.754m4.961-.13v-7.15h1.586v1.443h.442l-.481.39q0-.91.533-1.43.546-.533 1.482-.533 1.092 0 1.703.702t.611 1.963v.676h-1.625v-.598q0-.663-.338-1.001t-.962-.338q-.636 0-.988.39-.338.39-.338 1.105V165zm7.34 0v-7.15h1.586v1.365h.442l-.481.377q.013-.858.546-1.365.534-.507 1.417-.507 1.053 0 1.677.702.637.702.637 1.885V165h-1.625v-4.498q0-.663-.338-1.014-.338-.364-.936-.364-.61 0-.962.364-.338.364-.338 1.04V165zm15.46 0v-7.15h1.586v1.443h.442l-.481.39q0-.91.533-1.43.546-.533 1.482-.533 1.092 0 1.703.702.61.702.611 1.963v.676h-1.625v-.598q0-.663-.338-1.001t-.962-.338q-.637 0-.988.39-.338.39-.338 1.105V165zm6.807 0 2.496-3.692-2.327-3.458h1.833l1.105 1.755q.104.156.182.351.091.195.143.312.052-.117.143-.312t.182-.351l1.105-1.755h1.846l-2.327 3.458 2.483 3.692h-1.846l-1.235-1.963a4 4 0 0 1-.195-.364 6 6 0 0 0-.156-.312q-.052.117-.143.312a4 4 0 0 1-.195.364L157.513 165zm11.032.13q-.546 0-.884-.325-.325-.338-.325-.871 0-.546.325-.871.338-.338.884-.338t.871.338q.338.325.338.871 0 .533-.338.871-.325.325-.871.325m7.717 0q-.923 0-1.612-.338a2.6 2.6 0 0 1-1.053-.975q-.377-.637-.377-1.495v-1.794q0-.871.377-1.495a2.5 2.5 0 0 1 1.053-.962q.689-.351 1.612-.351 1.34 0 2.145.702.806.689.858 1.885h-1.599q-.04-.56-.416-.858-.377-.312-.988-.312-.663 0-1.04.364-.377.351-.377 1.014v1.807q0 .663.377 1.027t1.04.364q.611 0 .988-.299.377-.312.416-.871h1.599q-.052 1.196-.858 1.898-.806.689-2.145.689m7.483-.013q-.91 0-1.586-.351a2.5 2.5 0 0 1-1.04-.988q-.364-.65-.364-1.521v-1.664q0-.883.364-1.521a2.5 2.5 0 0 1 1.04-.988q.675-.351 1.586-.351.923 0 1.586.351.675.35 1.04.988.363.637.364 1.521v1.664q0 .871-.364 1.521-.365.637-1.04.988-.663.351-1.586.351m0-1.417q.65 0 1.001-.351.363-.364.364-1.04v-1.768q0-.689-.364-1.04-.351-.351-1.001-.351-.638 0-1.001.351-.364.351-.364 1.04v1.768q0 .676.364 1.04.363.351 1.001.351m4.701 1.3v-7.15h1.586v1.365h.442l-.481.377q.012-.858.546-1.365.532-.507 1.417-.507 1.053 0 1.677.702.637.702.637 1.885V165h-1.625v-4.498q0-.663-.338-1.014-.339-.364-.936-.364-.611 0-.962.364-.339.364-.338 1.04V165zm11.214 0q-1.002 0-1.599-.572-.585-.585-.585-1.573v-3.536h-1.976v-1.469h1.976v-2.015h1.638v2.015h2.847v1.469h-2.847v3.497q0 .312.169.52.182.195.494.195h2.119V165zm6.092.13q-1.093 0-1.729-.611-.624-.624-.624-1.625 0-.702.325-1.209.324-.507.923-.78.61-.286 1.43-.286h1.742v-.507q0-.52-.325-.793-.312-.286-.936-.286-.572 0-.923.221a.76.76 0 0 0-.364.624h-1.56q.051-.975.806-1.56.767-.598 2.054-.598 1.365 0 2.119.637.754.638.754 1.794V165h-1.586v-1.365h-.26l.286-.234q0 .533-.26.923a1.8 1.8 0 0 1-.741.598q-.482.208-1.131.208m.52-1.326q.714 0 1.131-.351.416-.351.416-.936v-.845h-1.664q-.533 0-.845.299-.312.286-.312.767t.325.78q.337.286.949.286m4.961 1.196v-1.469h2.444v-4.212h-2.184v-1.469h3.809v5.681h2.197V165zm3.146-8.346q-.495 0-.78-.247-.286-.26-.286-.689t.286-.676q.285-.26.78-.26.494 0 .78.26.286.247.286.676t-.286.689q-.286.247-.78.247m4.466 8.346v-7.15h1.586v1.365h.442l-.481.377q.014-.858.546-1.365.534-.507 1.417-.507 1.053 0 1.677.702.637.702.637 1.885V165h-1.625v-4.498q0-.663-.338-1.014-.337-.364-.936-.364-.61 0-.962.364-.338.364-.338 1.04V165zm10.512.13q-.91 0-1.586-.351a2.6 2.6 0 0 1-1.053-.988q-.363-.65-.364-1.521v-1.69q0-.871.364-1.508a2.56 2.56 0 0 1 1.053-1.001q.677-.351 1.586-.351.897 0 1.56.351.677.35 1.04.988.377.624.377 1.469v1.3h-4.42v.494q0 .728.377 1.105.378.364 1.066.364.507 0 .858-.169.364-.182.429-.52h1.612q-.168.923-.962 1.482-.792.546-1.937.546m1.417-4.225v-.39q0-.74-.364-1.144-.351-.403-1.053-.403-.701 0-1.079.416-.364.403-.364 1.144v.247l2.977-.013zm3.531 4.095v-7.15h1.586v1.443h.442l-.481.39q0-.91.533-1.43.546-.533 1.482-.533 1.092 0 1.703.702t.611 1.963v.676h-1.625v-.598q0-.663-.338-1.001t-.962-.338q-.636 0-.988.39-.338.39-.338 1.105V165zm12.644 1.56q-1.963-.454-3.055-1.794-1.079-1.34-1.079-3.289v-2.327q0-1.95 1.079-3.276 1.092-1.326 3.055-1.794v1.612a3.2 3.2 0 0 0-1.339.663 3.2 3.2 0 0 0-.858 1.196 4.1 4.1 0 0 0-.299 1.599v2.327q0 .871.299 1.599.3.715.858 1.196a3.2 3.2 0 0 0 1.339.663z"/></g><g filter="url(#d)"><rect width="111" height="20" x="117" y="184" fill="#F9F9FB" fill-opacity=".48" rx="6"/><rect width="110" height="19" x="117.5" y="184.5" stroke="#E8E8EC" rx="5.5"/><path fill="#8B8D98" d="M127.017 199.13q-.923 0-1.612-.338a2.6 2.6 0 0 1-1.053-.975q-.377-.637-.377-1.495v-1.794q0-.871.377-1.495a2.5 2.5 0 0 1 1.053-.962q.689-.351 1.612-.351 1.34 0 2.145.702.806.689.858 1.885h-1.599q-.04-.56-.416-.858-.377-.312-.988-.312-.663 0-1.04.364-.377.351-.377 1.014v1.807q0 .663.377 1.027t1.04.364q.611 0 .988-.299.377-.312.416-.871h1.599q-.052 1.196-.858 1.898-.806.689-2.145.689m7.483-.013q-.91 0-1.586-.351a2.5 2.5 0 0 1-1.04-.988q-.364-.65-.364-1.521v-1.664q0-.883.364-1.521a2.5 2.5 0 0 1 1.04-.988q.676-.351 1.586-.351.923 0 1.586.351.676.35 1.04.988.364.637.364 1.521v1.664q0 .871-.364 1.521a2.5 2.5 0 0 1-1.04.988q-.663.351-1.586.351m0-1.417q.65 0 1.001-.351.364-.364.364-1.04v-1.768q0-.689-.364-1.04-.351-.351-1.001-.351-.637 0-1.001.351t-.364 1.04v1.768q0 .676.364 1.04.364.351 1.001.351m4.311 1.3v-7.15h1.352v1.04h.273l-.247.182q0-.598.325-.975t.871-.377q.585 0 .949.455.377.442.377 1.157l-.312-.468h.442l-.208.208q.013-.624.351-.988t.897-.364q.663 0 1.079.507.429.507.429 1.326V199h-1.43v-5.33q0-.351-.169-.546-.156-.208-.455-.208a.52.52 0 0 0-.442.208q-.143.195-.143.546V199h-1.3v-5.33q0-.351-.156-.546-.143-.208-.429-.208a.57.57 0 0 0-.468.208q-.156.195-.156.546V199zm7.99 2.34v-9.49h1.586v1.443h.364l-.468.676q0-1.04.559-1.638.558-.61 1.508-.611.689 0 1.209.351a2.2 2.2 0 0 1 .819.949q.299.61.299 1.43v1.937q0 .819-.299 1.443-.287.61-.806.962-.52.338-1.222.338-.95 0-1.508-.611-.56-.61-.559-1.638l.468.689h-.377l.052 1.768v2.002zm2.938-3.614q.623 0 .962-.338.351-.351.351-1.04v-1.846q0-.702-.351-1.04-.339-.338-.962-.338-.624 0-.975.377-.339.377-.338 1.066v1.716q0 .689.338 1.066.351.377.975.377m7.561 1.391q-.91 0-1.586-.351a2.5 2.5 0 0 1-1.04-.988q-.364-.65-.364-1.521v-1.664q0-.883.364-1.521a2.5 2.5 0 0 1 1.04-.988q.675-.351 1.586-.351.923 0 1.586.351.675.35 1.04.988.363.637.364 1.521v1.664q0 .871-.364 1.521-.365.637-1.04.988-.663.351-1.586.351m0-1.417q.65 0 1.001-.351.363-.364.364-1.04v-1.768q0-.689-.364-1.04-.351-.351-1.001-.351-.638 0-1.001.351-.364.351-.364 1.04v1.768q0 .676.364 1.04.363.351 1.001.351m4.701 1.3v-7.15h1.586v1.365h.442l-.481.377q.012-.858.546-1.365.532-.507 1.417-.507 1.053 0 1.677.702.637.702.637 1.885V199H166.2v-4.498q0-.663-.338-1.014-.339-.364-.936-.364-.612 0-.962.364-.338.364-.338 1.04V199zm10.512.13q-.91 0-1.586-.351a2.57 2.57 0 0 1-1.053-.988q-.364-.65-.364-1.521v-1.69q0-.871.364-1.508a2.55 2.55 0 0 1 1.053-1.001q.675-.351 1.586-.351.897 0 1.56.351.675.35 1.04.988.377.624.377 1.469v1.3h-4.42v.494q0 .728.377 1.105.376.364 1.066.364.507 0 .858-.169.363-.182.429-.52h1.612q-.17.923-.962 1.482-.794.546-1.937.546m1.417-4.225v-.39q0-.74-.364-1.144-.351-.403-1.053-.403t-1.079.416q-.364.403-.364 1.144v.247l2.977-.013zM177.2 199v-7.15h1.586v1.365h.442l-.481.377q.014-.858.546-1.365.534-.507 1.417-.507 1.053 0 1.677.702.637.702.637 1.885V199h-1.625v-4.498q0-.663-.338-1.014-.338-.364-.936-.364-.61 0-.962.364-.338.364-.338 1.04V199zm11.214 0q-1 0-1.599-.572-.585-.585-.585-1.573v-3.536h-1.976v-1.469h1.976v-2.015h1.638v2.015h2.847v1.469h-2.847v3.497q0 .312.169.52.183.195.494.195h2.119V199zm4.077 0v-1.469h2.47v-6.448l-2.483 1.82v-1.82l2.184-1.573h1.924v8.021h1.989V199zm12.813 1.56q-1.962-.454-3.055-1.794-1.079-1.34-1.079-3.289v-2.327q0-1.95 1.079-3.276 1.093-1.326 3.055-1.794v1.612a3.2 3.2 0 0 0-1.339.663 3.2 3.2 0 0 0-.858 1.196 4.1 4.1 0 0 0-.299 1.599v2.327q0 .871.299 1.599.3.715.858 1.196a3.2 3.2 0 0 0 1.339.663zm2.79 0v-1.625q.78-.181 1.339-.663.56-.481.858-1.196a4.2 4.2 0 0 0 .299-1.599v-2.327q0-.884-.299-1.599a3.15 3.15 0 0 0-.858-1.196 3.1 3.1 0 0 0-1.339-.663v-1.612q1.976.468 3.055 1.794t1.079 3.276v2.327q0 1.95-1.079 3.289t-3.055 1.794m8.575.52.689-3.978h1.859l-.988 3.978z"/></g><g filter="url(#e)"><rect width="111" height="20" x="117" y="210" fill="#F9F9FB" fill-opacity=".48" rx="6"/><rect width="110" height="19" x="117.5" y="210.5" stroke="#E8E8EC" rx="5.5"/><path fill="#8B8D98" d="M127.017 225.13q-.923 0-1.612-.338a2.6 2.6 0 0 1-1.053-.975q-.377-.637-.377-1.495v-1.794q0-.871.377-1.495a2.5 2.5 0 0 1 1.053-.962q.689-.351 1.612-.351 1.34 0 2.145.702.806.689.858 1.885h-1.599q-.04-.56-.416-.858-.377-.312-.988-.312-.663 0-1.04.364-.377.351-.377 1.014v1.807q0 .663.377 1.027t1.04.364q.611 0 .988-.299.377-.312.416-.871h1.599q-.052 1.196-.858 1.898-.806.689-2.145.689m7.483-.013q-.91 0-1.586-.351a2.5 2.5 0 0 1-1.04-.988q-.364-.65-.364-1.521v-1.664q0-.883.364-1.521a2.5 2.5 0 0 1 1.04-.988q.676-.351 1.586-.351.923 0 1.586.351.676.35 1.04.988.364.637.364 1.521v1.664q0 .871-.364 1.521a2.5 2.5 0 0 1-1.04.988q-.663.351-1.586.351m0-1.417q.65 0 1.001-.351.364-.364.364-1.04v-1.768q0-.689-.364-1.04-.351-.351-1.001-.351-.637 0-1.001.351t-.364 1.04v1.768q0 .676.364 1.04.364.351 1.001.351m4.311 1.3v-7.15h1.352v1.04h.273l-.247.182q0-.598.325-.975t.871-.377q.585 0 .949.455.377.442.377 1.157l-.312-.468h.442l-.208.208q.013-.624.351-.988t.897-.364q.663 0 1.079.507.429.507.429 1.326V225h-1.43v-5.33q0-.351-.169-.546-.156-.208-.455-.208a.52.52 0 0 0-.442.208q-.143.195-.143.546V225h-1.3v-5.33q0-.351-.156-.546-.143-.208-.429-.208a.57.57 0 0 0-.468.208q-.156.195-.156.546V225zm7.99 2.34v-9.49h1.586v1.443h.364l-.468.676q0-1.04.559-1.638.558-.61 1.508-.611.689 0 1.209.351a2.2 2.2 0 0 1 .819.949q.299.61.299 1.43v1.937q0 .819-.299 1.443-.287.61-.806.962-.52.338-1.222.338-.95 0-1.508-.611-.56-.61-.559-1.638l.468.689h-.377l.052 1.768v2.002zm2.938-3.614q.623 0 .962-.338.351-.351.351-1.04v-1.846q0-.702-.351-1.04-.339-.338-.962-.338-.624 0-.975.377-.339.377-.338 1.066v1.716q0 .689.338 1.066.351.377.975.377m7.561 1.391q-.91 0-1.586-.351a2.5 2.5 0 0 1-1.04-.988q-.364-.65-.364-1.521v-1.664q0-.883.364-1.521a2.5 2.5 0 0 1 1.04-.988q.675-.351 1.586-.351.923 0 1.586.351.675.35 1.04.988.363.637.364 1.521v1.664q0 .871-.364 1.521-.365.637-1.04.988-.663.351-1.586.351m0-1.417q.65 0 1.001-.351.363-.364.364-1.04v-1.768q0-.689-.364-1.04-.351-.351-1.001-.351-.638 0-1.001.351-.364.351-.364 1.04v1.768q0 .676.364 1.04.363.351 1.001.351m4.701 1.3v-7.15h1.586v1.365h.442l-.481.377q.012-.858.546-1.365.532-.507 1.417-.507 1.053 0 1.677.702.637.702.637 1.885V225H166.2v-4.498q0-.663-.338-1.014-.339-.364-.936-.364-.612 0-.962.364-.338.364-.338 1.04V225zm10.512.13q-.91 0-1.586-.351a2.57 2.57 0 0 1-1.053-.988q-.364-.65-.364-1.521v-1.69q0-.871.364-1.508a2.55 2.55 0 0 1 1.053-1.001q.675-.351 1.586-.351.897 0 1.56.351.675.35 1.04.988.377.624.377 1.469v1.3h-4.42v.494q0 .728.377 1.105.376.364 1.066.364.507 0 .858-.169.363-.182.429-.52h1.612q-.17.923-.962 1.482-.794.546-1.937.546m1.417-4.225v-.39q0-.74-.364-1.144-.351-.403-1.053-.403t-1.079.416q-.364.403-.364 1.144v.247l2.977-.013zM177.2 225v-7.15h1.586v1.365h.442l-.481.377q.014-.858.546-1.365.534-.507 1.417-.507 1.053 0 1.677.702.637.702.637 1.885V225h-1.625v-4.498q0-.663-.338-1.014-.338-.364-.936-.364-.61 0-.962.364-.338.364-.338 1.04V225zm11.214 0q-1 0-1.599-.572-.585-.585-.585-1.573v-3.536h-1.976v-1.469h1.976v-2.015h1.638v2.015h2.847v1.469h-2.847v3.497q0 .312.169.52.183.195.494.195h2.119V225zm3.947 0v-1.469l3.419-3.497q.429-.455.624-.884.208-.442.208-.884 0-.637-.377-1.027-.363-.403-.988-.403-.637 0-1.027.416-.377.403-.377 1.079h-1.625q0-.897.39-1.547.39-.663 1.079-1.027.69-.377 1.599-.377.91 0 1.573.351.677.35 1.04.988.377.624.377 1.469 0 .728-.351 1.456-.337.728-1.131 1.508l-2.392 2.379h3.991V225zm12.943 1.56q-1.962-.454-3.055-1.794-1.079-1.34-1.079-3.289v-2.327q0-1.95 1.079-3.276 1.093-1.326 3.055-1.794v1.612a3.2 3.2 0 0 0-1.339.663 3.2 3.2 0 0 0-.858 1.196 4.1 4.1 0 0 0-.299 1.599v2.327q0 .871.299 1.599.3.715.858 1.196a3.2 3.2 0 0 0 1.339.663zm2.79 0v-1.625q.78-.181 1.339-.663.56-.481.858-1.196a4.2 4.2 0 0 0 .299-1.599v-2.327q0-.884-.299-1.599a3.15 3.15 0 0 0-.858-1.196 3.1 3.1 0 0 0-1.339-.663v-1.612q1.976.468 3.055 1.794t1.079 3.276v2.327q0 1.95-1.079 3.289t-3.055 1.794m8.575.52.689-3.978h1.859l-.988 3.978z"/></g><g filter="url(#f)"><rect width="111" height="20" x="117" y="236" fill="#F9F9FB" fill-opacity=".48" rx="6"/><rect width="110" height="19" x="117.5" y="236.5" stroke="#E8E8EC" rx="5.5"/><path fill="#8B8D98" d="M127.017 251.13q-.923 0-1.612-.338a2.6 2.6 0 0 1-1.053-.975q-.377-.637-.377-1.495v-1.794q0-.871.377-1.495a2.5 2.5 0 0 1 1.053-.962q.689-.351 1.612-.351 1.34 0 2.145.702.806.689.858 1.885h-1.599q-.04-.56-.416-.858-.377-.312-.988-.312-.663 0-1.04.364-.377.351-.377 1.014v1.807q0 .663.377 1.027t1.04.364q.611 0 .988-.299.377-.312.416-.871h1.599q-.052 1.196-.858 1.898-.806.689-2.145.689m7.483-.013q-.91 0-1.586-.351a2.5 2.5 0 0 1-1.04-.988q-.364-.65-.364-1.521v-1.664q0-.883.364-1.521a2.5 2.5 0 0 1 1.04-.988q.676-.351 1.586-.351.923 0 1.586.351.676.35 1.04.988.364.637.364 1.521v1.664q0 .871-.364 1.521a2.5 2.5 0 0 1-1.04.988q-.663.351-1.586.351m0-1.417q.65 0 1.001-.351.364-.364.364-1.04v-1.768q0-.689-.364-1.04-.351-.351-1.001-.351-.637 0-1.001.351t-.364 1.04v1.768q0 .676.364 1.04.364.351 1.001.351m4.311 1.3v-7.15h1.352v1.04h.273l-.247.182q0-.598.325-.975t.871-.377q.585 0 .949.455.377.442.377 1.157l-.312-.468h.442l-.208.208q.013-.624.351-.988t.897-.364q.663 0 1.079.507.429.507.429 1.326V251h-1.43v-5.33q0-.351-.169-.546-.156-.208-.455-.208a.52.52 0 0 0-.442.208q-.143.195-.143.546V251h-1.3v-5.33q0-.351-.156-.546-.143-.208-.429-.208a.57.57 0 0 0-.468.208q-.156.195-.156.546V251zm7.99 2.34v-9.49h1.586v1.443h.364l-.468.676q0-1.04.559-1.638.558-.61 1.508-.611.689 0 1.209.351a2.2 2.2 0 0 1 .819.949q.299.61.299 1.43v1.937q0 .819-.299 1.443-.287.61-.806.962-.52.338-1.222.338-.95 0-1.508-.611-.56-.61-.559-1.638l.468.689h-.377l.052 1.768v2.002zm2.938-3.614q.623 0 .962-.338.351-.351.351-1.04v-1.846q0-.702-.351-1.04-.339-.338-.962-.338-.624 0-.975.377-.339.377-.338 1.066v1.716q0 .689.338 1.066.351.377.975.377m7.561 1.391q-.91 0-1.586-.351a2.5 2.5 0 0 1-1.04-.988q-.364-.65-.364-1.521v-1.664q0-.883.364-1.521a2.5 2.5 0 0 1 1.04-.988q.675-.351 1.586-.351.923 0 1.586.351.675.35 1.04.988.363.637.364 1.521v1.664q0 .871-.364 1.521-.365.637-1.04.988-.663.351-1.586.351m0-1.417q.65 0 1.001-.351.363-.364.364-1.04v-1.768q0-.689-.364-1.04-.351-.351-1.001-.351-.638 0-1.001.351-.364.351-.364 1.04v1.768q0 .676.364 1.04.363.351 1.001.351m4.701 1.3v-7.15h1.586v1.365h.442l-.481.377q.012-.858.546-1.365.532-.507 1.417-.507 1.053 0 1.677.702.637.702.637 1.885V251H166.2v-4.498q0-.663-.338-1.014-.339-.364-.936-.364-.612 0-.962.364-.338.364-.338 1.04V251zm10.512.13q-.91 0-1.586-.351a2.57 2.57 0 0 1-1.053-.988q-.364-.65-.364-1.521v-1.69q0-.871.364-1.508a2.55 2.55 0 0 1 1.053-1.001q.675-.351 1.586-.351.897 0 1.56.351.675.35 1.04.988.377.624.377 1.469v1.3h-4.42v.494q0 .728.377 1.105.376.364 1.066.364.507 0 .858-.169.363-.182.429-.52h1.612q-.17.923-.962 1.482-.794.546-1.937.546m1.417-4.225v-.39q0-.74-.364-1.144-.351-.403-1.053-.403t-1.079.416q-.364.403-.364 1.144v.247l2.977-.013zM177.2 251v-7.15h1.586v1.365h.442l-.481.377q.014-.858.546-1.365.534-.507 1.417-.507 1.053 0 1.677.702.637.702.637 1.885V251h-1.625v-4.498q0-.663-.338-1.014-.338-.364-.936-.364-.61 0-.962.364-.338.364-.338 1.04V251zm11.214 0q-1 0-1.599-.572-.585-.585-.585-1.573v-3.536h-1.976v-1.469h1.976v-2.015h1.638v2.015h2.847v1.469h-2.847v3.497q0 .312.169.52.183.195.494.195h2.119V251zm6.794.13q-1.39 0-2.223-.728-.819-.74-.819-2.002h1.638q0 .61.377.962.378.351 1.04.351.65 0 1.027-.351t.377-.962v-.715q0-.637-.377-.988-.363-.364-1.027-.364h-1.196v-1.3l2.184-2.093h-3.705v-1.43h5.486v1.378l-2.847 2.73.078-.676q1.404 0 2.223.741.819.728.819 2.002v.715q0 1.261-.819 2.002-.819.728-2.236.728m10.096 1.43q-1.962-.454-3.055-1.794-1.079-1.34-1.079-3.289v-2.327q0-1.95 1.079-3.276 1.093-1.326 3.055-1.794v1.612a3.2 3.2 0 0 0-1.339.663 3.2 3.2 0 0 0-.858 1.196 4.1 4.1 0 0 0-.299 1.599v2.327q0 .871.299 1.599.3.715.858 1.196a3.2 3.2 0 0 0 1.339.663zm2.79 0v-1.625q.78-.181 1.339-.663.56-.481.858-1.196a4.2 4.2 0 0 0 .299-1.599v-2.327q0-.884-.299-1.599a3.15 3.15 0 0 0-.858-1.196 3.1 3.1 0 0 0-1.339-.663v-1.612q1.976.468 3.055 1.794t1.079 3.276v2.327q0 1.95-1.079 3.289t-3.055 1.794m8.575.52.689-3.978h1.859l-.988 3.978z"/></g><g filter="url(#g)"><rect width="111" height="20" x="117" y="262" fill="#F9F9FB" fill-opacity=".48" rx="6"/><rect width="110" height="19" x="117.5" y="262.5" stroke="#E8E8EC" rx="5.5"/><path fill="#8B8D98" d="M127.017 277.13q-.923 0-1.612-.338a2.6 2.6 0 0 1-1.053-.975q-.377-.637-.377-1.495v-1.794q0-.871.377-1.495a2.5 2.5 0 0 1 1.053-.962q.689-.351 1.612-.351 1.34 0 2.145.702.806.689.858 1.885h-1.599q-.04-.56-.416-.858-.377-.312-.988-.312-.663 0-1.04.364-.377.351-.377 1.014v1.807q0 .663.377 1.027t1.04.364q.611 0 .988-.299.377-.312.416-.871h1.599q-.052 1.196-.858 1.898-.806.689-2.145.689m7.483-.013q-.91 0-1.586-.351a2.5 2.5 0 0 1-1.04-.988q-.364-.65-.364-1.521v-1.664q0-.883.364-1.521a2.5 2.5 0 0 1 1.04-.988q.676-.351 1.586-.351.923 0 1.586.351.676.35 1.04.988t.364 1.521v1.664q0 .872-.364 1.521a2.5 2.5 0 0 1-1.04.988q-.663.351-1.586.351m0-1.417q.65 0 1.001-.351.364-.364.364-1.04v-1.768q0-.689-.364-1.04-.351-.351-1.001-.351-.637 0-1.001.351t-.364 1.04v1.768q0 .676.364 1.04.364.351 1.001.351m4.311 1.3v-7.15h1.352v1.04h.273l-.247.182q0-.598.325-.975t.871-.377q.585 0 .949.455.377.442.377 1.157l-.312-.468h.442l-.208.208q.013-.624.351-.988t.897-.364q.663 0 1.079.507.429.507.429 1.326V277h-1.43v-5.33q0-.351-.169-.546-.156-.208-.455-.208a.52.52 0 0 0-.442.208q-.143.195-.143.546V277h-1.3v-5.33q0-.351-.156-.546-.143-.208-.429-.208a.57.57 0 0 0-.468.208q-.156.195-.156.546V277zm7.99 2.34v-9.49h1.586v1.443h.364l-.468.676q0-1.04.559-1.638.558-.61 1.508-.611.689 0 1.209.351a2.2 2.2 0 0 1 .819.949q.299.61.299 1.43v1.937q0 .819-.299 1.443-.287.61-.806.962-.52.338-1.222.338-.95 0-1.508-.611-.56-.61-.559-1.638l.468.689h-.377l.052 1.768v2.002zm2.938-3.614q.623 0 .962-.338.351-.351.351-1.04v-1.846q0-.702-.351-1.04-.339-.338-.962-.338-.624 0-.975.377-.339.377-.338 1.066v1.716q0 .689.338 1.066.351.377.975.377m7.561 1.391q-.91 0-1.586-.351a2.5 2.5 0 0 1-1.04-.988q-.364-.65-.364-1.521v-1.664q0-.883.364-1.521a2.5 2.5 0 0 1 1.04-.988q.675-.351 1.586-.351.923 0 1.586.351.675.35 1.04.988.363.638.364 1.521v1.664q0 .872-.364 1.521-.365.637-1.04.988-.663.351-1.586.351m0-1.417q.65 0 1.001-.351.363-.364.364-1.04v-1.768q0-.689-.364-1.04-.351-.351-1.001-.351-.638 0-1.001.351-.364.351-.364 1.04v1.768q0 .676.364 1.04.363.351 1.001.351m4.701 1.3v-7.15h1.586v1.365h.442l-.481.377q.012-.858.546-1.365.532-.507 1.417-.507 1.053 0 1.677.702.637.702.637 1.885V277H166.2v-4.498q0-.663-.338-1.014-.339-.364-.936-.364-.612 0-.962.364-.338.364-.338 1.04V277zm10.512.13q-.91 0-1.586-.351a2.57 2.57 0 0 1-1.053-.988q-.364-.65-.364-1.521v-1.69q0-.871.364-1.508a2.55 2.55 0 0 1 1.053-1.001q.675-.351 1.586-.351.897 0 1.56.351.675.35 1.04.988.377.624.377 1.469v1.3h-4.42v.494q0 .728.377 1.105.376.364 1.066.364.507 0 .858-.169.363-.182.429-.52h1.612q-.17.922-.962 1.482-.794.546-1.937.546m1.417-4.225v-.39q0-.74-.364-1.144-.351-.403-1.053-.403t-1.079.416q-.364.403-.364 1.144v.247l2.977-.013zM177.2 277v-7.15h1.586v1.365h.442l-.481.377q.014-.858.546-1.365.534-.507 1.417-.507 1.053 0 1.677.702.637.702.637 1.885V277h-1.625v-4.498q0-.663-.338-1.014-.338-.364-.936-.364-.61 0-.962.364-.338.364-.338 1.04V277zm11.214 0q-1 0-1.599-.572-.585-.585-.585-1.573v-3.536h-1.976v-1.469h1.976v-2.015h1.638v2.015h2.847v1.469h-2.847v3.497q0 .312.169.52.183.195.494.195h2.119V277zm7.951 0v-1.885h-4.199v-2.353l3.51-5.252h1.807l-3.757 5.681v.494h2.639v-2.145h1.638V277zm8.939 1.56q-1.962-.454-3.055-1.794-1.079-1.34-1.079-3.289v-2.327q0-1.95 1.079-3.276 1.093-1.326 3.055-1.794v1.612a3.2 3.2 0 0 0-1.339.663 3.2 3.2 0 0 0-.858 1.196 4.1 4.1 0 0 0-.299 1.599v2.327q0 .871.299 1.599.3.715.858 1.196a3.2 3.2 0 0 0 1.339.663zm2.79 0v-1.625q.78-.181 1.339-.663.56-.481.858-1.196a4.2 4.2 0 0 0 .299-1.599v-2.327q0-.884-.299-1.599a3.15 3.15 0 0 0-.858-1.196 3.1 3.1 0 0 0-1.339-.663v-1.612q1.976.468 3.055 1.794t1.079 3.276v2.327q0 1.95-1.079 3.289t-3.055 1.794m8.575.52.689-3.978h1.859l-.988 3.978z"/></g><g filter="url(#h)"><rect width="335" height="88" x="315" y="80" fill="#F9F9FB" fill-opacity=".48" rx="10"/><rect width="334" height="87" x="315.5" y="80.5" stroke="#E8E8EC" rx="9.5"/><path fill="#B9BBC6" d="M342.25 117.13q-1.04 0-1.69-.741-.637-.741-.637-1.989v-1.937q0-1.261.637-2.002.65-.741 1.69-.741.962 0 1.521.611.56.598.559 1.638l-.481-.676h.377l-.052-1.781v-2.002h1.625V117h-1.586v-1.443h-.364l.468-.676q0 1.04-.559 1.651-.546.598-1.508.598m.611-1.404q.624 0 .962-.377.351-.377.351-1.066v-1.716q0-.689-.351-1.066-.338-.377-.962-.377t-.975.338q-.338.338-.338 1.04v1.846q0 .689.338 1.04.351.338.975.338m7.652 1.404q-.91 0-1.586-.351a2.57 2.57 0 0 1-1.053-.988q-.364-.65-.364-1.521v-1.69q0-.871.364-1.508a2.55 2.55 0 0 1 1.053-1.001q.676-.351 1.586-.351.897 0 1.56.351.676.35 1.04.988.377.624.377 1.469v1.3h-4.42v.494q0 .728.377 1.105.377.364 1.066.364.507 0 .858-.169.365-.182.429-.52h1.612q-.169.922-.962 1.482-.793.546-1.937.546m1.417-4.225v-.39q0-.74-.364-1.144-.351-.403-1.053-.403t-1.079.416q-.364.403-.364 1.144v.247l2.977-.013zM356.8 117v-4.706h-1.963v-1.469h1.963v-1.261q0-.936.624-1.495.624-.56 1.651-.559h2.093v1.43h-2.054a.72.72 0 0 0-.507.182q-.182.17-.182.468v1.235h2.743v1.469h-2.743V117zm13.861 24v-7.15h1.586v1.443h.442l-.481.39q0-.91.533-1.43.546-.533 1.482-.533 1.092 0 1.703.702.61.702.611 1.963v.676h-1.625v-.598q0-.663-.338-1.001-.339-.338-.962-.338-.637 0-.988.39-.339.39-.338 1.105V141zm10.252.13q-.91 0-1.586-.351a2.57 2.57 0 0 1-1.053-.988q-.364-.65-.364-1.521v-1.69q0-.871.364-1.508a2.55 2.55 0 0 1 1.053-1.001q.675-.351 1.586-.351.897 0 1.56.351.675.35 1.04.988.377.624.377 1.469v1.3h-4.42v.494q0 .728.377 1.105.376.364 1.066.364.507 0 .858-.169.363-.182.429-.52h1.612q-.17.923-.962 1.482-.794.546-1.937.546m1.417-4.225v-.39q0-.74-.364-1.144-.351-.403-1.053-.403t-1.079.416q-.364.403-.364 1.144v.247l2.977-.013zm6.885 4.095q-1.002 0-1.599-.572-.585-.585-.585-1.573v-3.536h-1.976v-1.469h1.976v-2.015h1.638v2.015h2.847v1.469h-2.847v3.497q0 .312.169.52.182.195.494.195h2.119V141zm6.884.13q-1.365 0-2.145-.754-.78-.767-.78-2.08v-4.446h1.625v4.433q0 .677.338 1.053.339.377.962.377.612 0 .949-.377.351-.377.351-1.053v-4.433h1.625v4.446q0 1.313-.793 2.08-.792.754-2.132.754m4.961-.13v-7.15h1.586v1.443h.442l-.481.39q0-.91.533-1.43.546-.533 1.482-.533 1.092 0 1.703.702.612.702.611 1.963v.676h-1.625v-.598q0-.663-.338-1.001t-.962-.338q-.637 0-.988.39-.338.39-.338 1.105V141zm7.34 0v-7.15h1.586v1.365h.442l-.481.377q.014-.858.546-1.365.534-.507 1.417-.507 1.053 0 1.677.702.637.702.637 1.885V141h-1.625v-4.498q0-.663-.338-1.014-.338-.364-.936-.364-.61 0-.962.364-.338.364-.338 1.04V141zm15.46 0v-7.15h1.586v1.443h.442l-.481.39q0-.91.533-1.43.546-.533 1.482-.533 1.092 0 1.703.702.61.702.611 1.963v.676h-1.625v-.598q0-.663-.338-1.001t-.962-.338q-.637 0-.988.39-.338.39-.338 1.105V141zm6.807 0 2.496-3.692-2.327-3.458h1.833l1.105 1.755q.104.156.182.351.091.195.143.312.052-.117.143-.312t.182-.351l1.105-1.755h1.846l-2.327 3.458 2.483 3.692h-1.846l-1.235-1.963a4 4 0 0 1-.195-.364 6 6 0 0 0-.156-.312q-.052.117-.143.312a4 4 0 0 1-.195.364L432.513 141zm11.032.13q-.546 0-.884-.325-.325-.338-.325-.871 0-.546.325-.871.338-.338.884-.338t.871.338q.338.325.338.871 0 .533-.338.871-.325.325-.871.325m8.25 0q-.949 0-1.508-.598-.56-.611-.559-1.651l.468.676h-.364V141H446.4v-9.49h1.625v2.002l-.052 1.781h.377l-.481.676q0-1.04.559-1.638.571-.61 1.521-.611 1.053 0 1.69.741.637.74.637 2.002v1.937q0 1.248-.637 1.989t-1.69.741m-.611-1.404q.624 0 .962-.338.351-.351.351-1.04v-1.846q0-.702-.351-1.04-.338-.338-.962-.338t-.975.377q-.338.377-.338 1.066v1.716q0 .689.338 1.066.351.377.975.377m7.561 1.404q-1.365 0-2.145-.754-.78-.767-.78-2.08v-4.446h1.625v4.433q0 .677.338 1.053.338.377.962.377.61 0 .949-.377.351-.377.351-1.053v-4.433h1.625v4.446q0 1.313-.793 2.08-.794.754-2.132.754m8.315-.13q-1.002 0-1.599-.572-.585-.585-.585-1.573v-3.536h-1.976v-1.469h1.976v-2.015h1.638v2.015h2.847v1.469h-2.847v3.497q0 .312.169.52.182.195.494.195h2.119V141zm7.6 0q-1.002 0-1.599-.572-.585-.585-.585-1.573v-3.536h-1.976v-1.469h1.976v-2.015h1.638v2.015h2.847v1.469h-2.847v3.497q0 .312.169.52.182.195.494.195h2.119V141zm6.885.117q-.91 0-1.586-.351a2.5 2.5 0 0 1-1.04-.988q-.364-.65-.364-1.521v-1.664q0-.883.364-1.521a2.5 2.5 0 0 1 1.04-.988q.675-.351 1.586-.351.923 0 1.586.351.675.35 1.04.988.363.637.364 1.521v1.664q0 .871-.364 1.521-.365.637-1.04.988-.663.351-1.586.351m0-1.417q.65 0 1.001-.351.363-.364.364-1.04v-1.768q0-.689-.364-1.04-.351-.351-1.001-.351-.638 0-1.001.351-.364.351-.364 1.04v1.768q0 .676.364 1.04.363.351 1.001.351m4.701 1.3v-7.15h1.586v1.365h.442l-.481.377q.012-.858.546-1.365.532-.507 1.417-.507 1.053 0 1.677.702.637.702.637 1.885V141h-1.625v-4.498q0-.663-.338-1.014-.339-.364-.936-.364-.612 0-.962.364-.339.364-.338 1.04V141zm12.903 1.56q-1.962-.454-3.055-1.794-1.079-1.34-1.079-3.289v-2.327q0-1.95 1.079-3.276 1.093-1.326 3.055-1.794v1.612a3.2 3.2 0 0 0-1.339.663 3.2 3.2 0 0 0-.858 1.196 4.1 4.1 0 0 0-.299 1.599v2.327q0 .871.299 1.599.3.715.858 1.196a3.2 3.2 0 0 0 1.339.663zm5.952-1.43q-.546 0-.871-.325-.338-.338-.338-.871 0-.546.338-.871.325-.338.871-.338t.884.338q.325.325.325.871 0 .533-.325.871-.338.325-.884.325m6.643 0q-.546 0-.871-.325-.338-.338-.338-.871 0-.546.338-.871.325-.338.871-.338t.884.338q.325.325.325.871 0 .533-.325.871-.338.325-.884.325m6.656 0q-.546 0-.884-.325-.324-.338-.325-.871 0-.546.325-.871.338-.338.884-.338.547 0 .871.338.339.325.338.871 0 .533-.338.871-.324.325-.871.325m6.339 1.43v-1.625q.78-.181 1.339-.663.56-.481.858-1.196a4.2 4.2 0 0 0 .299-1.599v-2.327q0-.884-.299-1.599a3.15 3.15 0 0 0-.858-1.196 3.1 3.1 0 0 0-1.339-.663v-1.612q1.976.468 3.055 1.794t1.079 3.276v2.327q0 1.95-1.079 3.289t-3.055 1.794"/></g><g filter="url(#i)"><rect width="377" height="88" x="291" y="192" fill="#F9F9FB" fill-opacity=".48" rx="10"/><rect width="376" height="87" x="291.5" y="192.5" stroke="#E8E8EC" rx="9.5"/><path fill="#B9BBC6" d="M318.25 229.13q-1.04 0-1.69-.741-.637-.741-.637-1.989v-1.937q0-1.261.637-2.002.65-.741 1.69-.741.962 0 1.521.611.56.598.559 1.638l-.481-.676h.377l-.052-1.781v-2.002h1.625V229h-1.586v-1.443h-.364l.468-.676q0 1.04-.559 1.651-.546.598-1.508.598m.611-1.404q.624 0 .962-.377.351-.377.351-1.066v-1.716q0-.689-.351-1.066-.338-.377-.962-.377t-.975.338q-.338.338-.338 1.04v1.846q0 .689.338 1.04.351.338.975.338m7.652 1.404q-.91 0-1.586-.351a2.57 2.57 0 0 1-1.053-.988q-.364-.65-.364-1.521v-1.69q0-.871.364-1.508a2.55 2.55 0 0 1 1.053-1.001q.676-.351 1.586-.351.897 0 1.56.351.676.35 1.04.988.377.624.377 1.469v1.3h-4.42v.494q0 .728.377 1.105.377.364 1.066.364.507 0 .858-.169.365-.182.429-.52h1.612q-.169.923-.962 1.482-.793.546-1.937.546m1.417-4.225v-.39q0-.74-.364-1.144-.351-.403-1.053-.403t-1.079.416q-.364.403-.364 1.144v.247l2.977-.013zM332.8 229v-4.706h-1.963v-1.469h1.963v-1.261q0-.936.624-1.495.624-.56 1.651-.559h2.093v1.43h-2.054a.72.72 0 0 0-.507.182q-.182.17-.182.468v1.235h2.743v1.469h-2.743V229zm13.861 24v-7.15h1.586v1.443h.442l-.481.39q0-.91.533-1.43.546-.533 1.482-.533 1.092 0 1.703.702.61.702.611 1.963v.676h-1.625v-.598q0-.663-.338-1.001-.339-.338-.962-.338-.637 0-.988.39-.339.39-.338 1.105V253zm10.252.13q-.91 0-1.586-.351a2.57 2.57 0 0 1-1.053-.988q-.364-.65-.364-1.521v-1.69q0-.871.364-1.508a2.55 2.55 0 0 1 1.053-1.001q.675-.351 1.586-.351.897 0 1.56.351.675.35 1.04.988.377.624.377 1.469v1.3h-4.42v.494q0 .728.377 1.105.376.364 1.066.364.507 0 .858-.169.363-.182.429-.52h1.612q-.17.923-.962 1.482-.794.546-1.937.546m1.417-4.225v-.39q0-.74-.364-1.144-.351-.403-1.053-.403t-1.079.416q-.364.403-.364 1.144v.247l2.977-.013zm6.885 4.095q-1.002 0-1.599-.572-.585-.585-.585-1.573v-3.536h-1.976v-1.469h1.976v-2.015h1.638v2.015h2.847v1.469h-2.847v3.497q0 .312.169.52.182.195.494.195h2.119V253zm6.884.13q-1.365 0-2.145-.754-.78-.767-.78-2.08v-4.446h1.625v4.433q0 .676.338 1.053.339.377.962.377.612 0 .949-.377.351-.377.351-1.053v-4.433h1.625v4.446q0 1.313-.793 2.08-.792.754-2.132.754m4.961-.13v-7.15h1.586v1.443h.442l-.481.39q0-.91.533-1.43.546-.533 1.482-.533 1.092 0 1.703.702.612.702.611 1.963v.676h-1.625v-.598q0-.663-.338-1.001t-.962-.338q-.637 0-.988.39-.338.39-.338 1.105V253zm7.34 0v-7.15h1.586v1.365h.442l-.481.377q.014-.858.546-1.365.534-.507 1.417-.507 1.053 0 1.677.702.637.702.637 1.885V253h-1.625v-4.498q0-.663-.338-1.014-.338-.364-.936-.364-.61 0-.962.364-.338.364-.338 1.04V253zm15.46 0v-7.15h1.586v1.443h.442l-.481.39q0-.91.533-1.43.546-.533 1.482-.533 1.092 0 1.703.702.61.702.611 1.963v.676h-1.625v-.598q0-.663-.338-1.001t-.962-.338q-.637 0-.988.39-.338.39-.338 1.105V253zm6.807 0 2.496-3.692-2.327-3.458h1.833l1.105 1.755q.104.156.182.351.091.195.143.312.052-.117.143-.312t.182-.351l1.105-1.755h1.846l-2.327 3.458 2.483 3.692h-1.846l-1.235-1.963a4 4 0 0 1-.195-.364 6 6 0 0 0-.156-.312q-.052.117-.143.312a4 4 0 0 1-.195.364L408.513 253zm11.032.13q-.546 0-.884-.325-.325-.338-.325-.871 0-.546.325-.871.338-.338.884-.338t.871.338q.338.325.338.871 0 .533-.338.871-.325.325-.871.325m6.3-.13v-4.706h-1.963v-1.469h1.963v-1.261q0-.936.624-1.495.624-.56 1.651-.559h2.093v1.43h-2.054a.72.72 0 0 0-.507.182q-.182.17-.182.468v1.235h2.743v1.469h-2.743V253zm8.9.117q-.91 0-1.586-.351a2.5 2.5 0 0 1-1.04-.988q-.364-.65-.364-1.521v-1.664q0-.883.364-1.521a2.5 2.5 0 0 1 1.04-.988q.675-.351 1.586-.351.923 0 1.586.351.675.35 1.04.988.364.637.364 1.521v1.664q0 .871-.364 1.521-.365.637-1.04.988-.663.351-1.586.351m0-1.417q.65 0 1.001-.351.364-.364.364-1.04v-1.768q0-.689-.364-1.04-.351-.351-1.001-.351-.638 0-1.001.351-.364.351-.364 1.04v1.768q0 .676.364 1.04.363.351 1.001.351m4.961 1.3v-7.15h1.586v1.443h.442l-.481.39q0-.91.533-1.43.546-.533 1.482-.533 1.091 0 1.703.702.61.702.611 1.963v.676h-1.625v-.598q0-.663-.338-1.001-.339-.338-.962-.338-.637 0-.988.39-.338.39-.338 1.105V253zm6.95 0v-7.15h1.352v1.04h.273l-.247.182q0-.598.325-.975t.871-.377q.585 0 .949.455.377.442.377 1.157l-.312-.468h.442l-.208.208q.012-.624.351-.988t.897-.364q.662 0 1.079.507.429.507.429 1.326V253h-1.43v-5.33q0-.351-.169-.546-.156-.208-.455-.208a.52.52 0 0 0-.442.208q-.144.195-.143.546V253h-1.3v-5.33q0-.351-.156-.546-.144-.208-.429-.208-.3 0-.468.208-.156.195-.156.546V253zm13.294 1.56q-1.963-.454-3.055-1.794-1.08-1.34-1.079-3.289v-2.327q0-1.95 1.079-3.276 1.092-1.326 3.055-1.794v1.612a3.2 3.2 0 0 0-1.339.663 3.15 3.15 0 0 0-.858 1.196q-.3.716-.299 1.599v2.327q0 .871.299 1.599.299.715.858 1.196.571.482 1.339.663zm5.951-1.43q-.546 0-.871-.325-.338-.338-.338-.871 0-.546.338-.871.325-.338.871-.338t.884.338q.325.325.325.871 0 .533-.325.871-.338.325-.884.325m6.643 0q-.546 0-.871-.325-.338-.338-.338-.871 0-.546.338-.871.325-.338.871-.338t.884.338q.325.325.325.871 0 .533-.325.871-.338.325-.884.325m6.656 0q-.546 0-.884-.325-.324-.338-.325-.871 0-.546.325-.871.339-.338.884-.338.546 0 .871.338.338.325.338.871 0 .533-.338.871-.325.325-.871.325m6.339 1.43v-1.625q.78-.181 1.339-.663.56-.481.858-1.196.3-.728.299-1.599v-2.327q0-.884-.299-1.599a3.15 3.15 0 0 0-.858-1.196 3.1 3.1 0 0 0-1.339-.663v-1.612q1.977.468 3.055 1.794 1.08 1.326 1.079 3.276v2.327q0 1.95-1.079 3.289t-3.055 1.794"/><g filter="url(#j)"><rect width="111" height="20" x="346" y="214" fill="#6E56CF" rx="6"/><path fill="#D4CAFE" d="M356.017 229.13q-.923 0-1.612-.338a2.6 2.6 0 0 1-1.053-.975q-.377-.637-.377-1.495v-1.794q0-.871.377-1.495a2.5 2.5 0 0 1 1.053-.962q.689-.351 1.612-.351 1.34 0 2.145.702.805.689.858 1.885h-1.599q-.04-.56-.416-.858-.377-.312-.988-.312-.663 0-1.04.364-.377.351-.377 1.014v1.807q0 .663.377 1.027t1.04.364q.611 0 .988-.299.377-.312.416-.871h1.599q-.053 1.196-.858 1.898-.805.689-2.145.689m7.483-.013q-.91 0-1.586-.351a2.5 2.5 0 0 1-1.04-.988q-.364-.65-.364-1.521v-1.664q0-.883.364-1.521a2.5 2.5 0 0 1 1.04-.988q.676-.351 1.586-.351.923 0 1.586.351.676.35 1.04.988.364.637.364 1.521v1.664q0 .871-.364 1.521a2.5 2.5 0 0 1-1.04.988q-.663.351-1.586.351m0-1.417q.65 0 1.001-.351.364-.364.364-1.04v-1.768q0-.689-.364-1.04-.351-.351-1.001-.351-.637 0-1.001.351t-.364 1.04v1.768q0 .676.364 1.04.364.351 1.001.351m4.311 1.3v-7.15h1.352v1.04h.273l-.247.182q0-.598.325-.975t.871-.377q.585 0 .949.455.377.442.377 1.157l-.312-.468h.442l-.208.208q.013-.624.351-.988t.897-.364q.663 0 1.079.507.429.507.429 1.326V229h-1.43v-5.33q0-.351-.169-.546-.156-.208-.455-.208a.52.52 0 0 0-.442.208q-.143.195-.143.546V229h-1.3v-5.33q0-.351-.156-.546-.143-.208-.429-.208a.57.57 0 0 0-.468.208q-.156.195-.156.546V229zm7.99 2.34v-9.49h1.586v1.443h.364l-.468.676q0-1.04.559-1.638.558-.61 1.508-.611.689 0 1.209.351a2.2 2.2 0 0 1 .819.949q.299.61.299 1.43v1.937q0 .819-.299 1.443-.287.61-.806.962-.52.338-1.222.338-.95 0-1.508-.611-.56-.61-.559-1.638l.468.689h-.377l.052 1.768v2.002zm2.938-3.614q.623 0 .962-.338.351-.351.351-1.04v-1.846q0-.702-.351-1.04-.338-.338-.962-.338t-.975.377q-.338.377-.338 1.066v1.716q0 .689.338 1.066.351.377.975.377m7.561 1.391q-.91 0-1.586-.351a2.5 2.5 0 0 1-1.04-.988q-.364-.65-.364-1.521v-1.664q0-.883.364-1.521a2.5 2.5 0 0 1 1.04-.988q.675-.351 1.586-.351.923 0 1.586.351.675.35 1.04.988.363.637.364 1.521v1.664q0 .871-.364 1.521-.365.637-1.04.988-.663.351-1.586.351m0-1.417q.65 0 1.001-.351.363-.364.364-1.04v-1.768q0-.689-.364-1.04-.351-.351-1.001-.351-.638 0-1.001.351-.364.351-.364 1.04v1.768q0 .676.364 1.04.363.351 1.001.351m4.701 1.3v-7.15h1.586v1.365h.442l-.481.377q.012-.858.546-1.365.532-.507 1.417-.507 1.053 0 1.677.702.636.702.637 1.885V229H395.2v-4.498q0-.663-.338-1.014-.339-.364-.936-.364-.611 0-.962.364-.339.364-.338 1.04V229zm10.512.13q-.91 0-1.586-.351a2.57 2.57 0 0 1-1.053-.988q-.364-.65-.364-1.521v-1.69q0-.871.364-1.508a2.55 2.55 0 0 1 1.053-1.001q.675-.351 1.586-.351.897 0 1.56.351.675.35 1.04.988.377.624.377 1.469v1.3h-4.42v.494q0 .728.377 1.105.376.364 1.066.364.507 0 .858-.169.363-.182.429-.52h1.612q-.17.923-.962 1.482-.794.546-1.937.546m1.417-4.225v-.39q0-.74-.364-1.144-.351-.403-1.053-.403t-1.079.416q-.364.403-.364 1.144v.247l2.977-.013zM406.2 229v-7.15h1.586v1.365h.442l-.481.377q.013-.858.546-1.365.534-.507 1.417-.507 1.053 0 1.677.702.637.702.637 1.885V229h-1.625v-4.498q0-.663-.338-1.014-.337-.364-.936-.364-.61 0-.962.364-.338.364-.338 1.04V229zm11.214 0q-1 0-1.599-.572-.585-.585-.585-1.573v-3.536h-1.976v-1.469h1.976v-2.015h1.638v2.015h2.847v1.469h-2.847v3.497q0 .312.169.52.183.195.494.195h2.119V229zm3.947 0v-1.469l3.419-3.497q.429-.455.624-.884.208-.442.208-.884 0-.637-.377-1.027-.364-.403-.988-.403-.637 0-1.027.416-.377.403-.377 1.079h-1.625q0-.897.39-1.547.39-.663 1.079-1.027.69-.377 1.599-.377.91 0 1.573.351.677.35 1.04.988.377.624.377 1.469 0 .728-.351 1.456-.338.728-1.131 1.508l-2.392 2.379h3.991V229zm12.943 1.56q-1.962-.454-3.055-1.794-1.079-1.34-1.079-3.289v-2.327q0-1.95 1.079-3.276 1.092-1.326 3.055-1.794v1.612a3.2 3.2 0 0 0-1.339.663 3.2 3.2 0 0 0-.858 1.196 4.1 4.1 0 0 0-.299 1.599v2.327q0 .871.299 1.599.3.715.858 1.196a3.2 3.2 0 0 0 1.339.663zm2.79 0v-1.625q.78-.181 1.339-.663.56-.481.858-1.196a4.2 4.2 0 0 0 .299-1.599v-2.327q0-.884-.299-1.599a3.15 3.15 0 0 0-.858-1.196 3.1 3.1 0 0 0-1.339-.663v-1.612q1.976.468 3.055 1.794t1.079 3.276v2.327q0 1.95-1.079 3.289t-3.055 1.794m10.005-6.669q-.559 0-.884-.299t-.325-.793.325-.78q.325-.299.884-.299t.884.299q.325.286.325.78t-.325.793-.884.299m0 5.239q-.559 0-.884-.299t-.325-.78q0-.494.325-.793t.884-.299.884.299.325.793q0 .481-.325.78t-.884.299"/></g></g><path fill="#6E56CF" d="M224.833 194.5a2.667 2.667 0 1 0 5.334 0 2.667 2.667 0 0 0-5.334 0m88-67a2.667 2.667 0 1 0 5.334 0 2.667 2.667 0 0 0-5.334 0M227.5 195h1.036v-1H227.5zm3.107 0h2.072v-1h-2.072zm4.143 0h2.071v-1h-2.071zm4.143 0h2.071v-1h-2.071zm4.143 0h2.071v-1h-2.071zm4.143 0h2.071v-1h-2.071zm4.142 0h2.072v-1h-2.072zm4.143 0h1.036v-1h-1.036zm1.036 0q.52 0 1.029-.05l-.097-.995q-.46.045-.932.045zm3.049-.45a10.4 10.4 0 0 0 1.902-.788l-.472-.882a9.4 9.4 0 0 1-1.72.713zm3.612-1.933a10.6 10.6 0 0 0 1.456-1.456l-.773-.634a9.5 9.5 0 0 1-1.317 1.317zm2.601-3.166c.322-.601.587-1.238.788-1.902l-.957-.29a9.4 9.4 0 0 1-.713 1.72zm1.188-3.922q.05-.508.05-1.029h-1q0 .473-.045.932zm.05-1.029v-.979h-1v.979zm0-2.938v-1.958h-1v1.958zm0-3.916v-1.958h-1v1.958zm0-3.917v-1.958h-1v1.958zm0-3.917v-1.958h-1v1.958zm0-3.916v-1.958h-1v1.958zm0-3.917v-1.958h-1v1.958zm0-3.917v-1.958h-1v1.958zm0-3.916v-1.959h-1v1.959zm0-3.917v-1.958h-1v1.958zm0-3.917v-1.958h-1v1.958zm0-3.916v-1.958h-1v1.958zm0-3.917v-.979h-1v.979zm0-.979q0-.473.045-.932l-.995-.097q-.05.508-.05 1.029zm.407-2.759q.274-.902.713-1.72l-.882-.472a10.4 10.4 0 0 0-.788 1.902zm1.749-3.268a9.5 9.5 0 0 1 1.317-1.317l-.634-.773q-.8.657-1.456 1.456zm2.865-2.353a9.4 9.4 0 0 1 1.72-.713l-.29-.957c-.664.201-1.301.466-1.902.788zm3.547-1.075q.46-.045.932-.045v-1q-.52 0-1.029.05zm.932-.045h.975v-1h-.975zm2.925 0h1.95v-1h-1.95zm3.9 0h1.95v-1h-1.95zm3.9 0h1.95v-1h-1.95zm3.9 0h1.95v-1h-1.95zm3.9 0h1.95v-1h-1.95zm3.9 0h1.95v-1h-1.95zm3.9 0h1.95v-1h-1.95zm3.9 0h1.95v-1h-1.95zm3.9 0h1.95v-1h-1.95zm3.9 0h.975v-1h-.975zm-89.192 92.5a2.667 2.667 0 1 0 5.334 0 2.667 2.667 0 0 0-5.334 0m63 0a2.667 2.667 0 1 0 5.334 0 2.667 2.667 0 0 0-5.334 0M228 221h.984v-1H228zm2.953 0h1.969v-1h-1.969zm3.938 0h1.968v-1h-1.968zm3.937 0h1.969v-1h-1.969zm3.938 0h1.968v-1h-1.968zm3.937 0h1.969v-1h-1.969zm3.938 0h1.968v-1h-1.968zm3.937 0h1.969v-1h-1.969zm3.938 0h1.968v-1h-1.968zm3.937 0h1.969v-1h-1.969zm3.938 0h1.968v-1h-1.968zm3.937 0h1.969v-1h-1.969zm3.938 0h1.968v-1h-1.968zm3.937 0h1.969v-1h-1.969zm3.938 0h1.968v-1h-1.968zm3.937 0h1.969v-1h-1.969zm3.938 0H291v-1h-.984z" opacity=".72"/><path fill="url(#k)" d="M0 0h280v178H0z" transform="rotate(-90 405 -85)"/><g filter="url(#l)"><rect width="111" height="20" x="370" y="102" fill="#6E56CF" rx="6"/><path fill="#D4CAFE" d="M380.017 117.13q-.923 0-1.612-.338a2.6 2.6 0 0 1-1.053-.975q-.377-.637-.377-1.495v-1.794q0-.871.377-1.495a2.5 2.5 0 0 1 1.053-.962q.689-.351 1.612-.351 1.34 0 2.145.702.805.689.858 1.885h-1.599q-.04-.56-.416-.858-.377-.312-.988-.312-.663 0-1.04.364-.377.351-.377 1.014v1.807q0 .663.377 1.027t1.04.364q.611 0 .988-.299.377-.312.416-.871h1.599q-.053 1.196-.858 1.898-.805.689-2.145.689m7.483-.013q-.91 0-1.586-.351a2.5 2.5 0 0 1-1.04-.988q-.364-.65-.364-1.521v-1.664q0-.884.364-1.521a2.5 2.5 0 0 1 1.04-.988q.676-.351 1.586-.351.923 0 1.586.351.676.35 1.04.988.364.637.364 1.521v1.664q0 .871-.364 1.521a2.5 2.5 0 0 1-1.04.988q-.663.351-1.586.351m0-1.417q.65 0 1.001-.351.364-.364.364-1.04v-1.768q0-.689-.364-1.04-.351-.351-1.001-.351-.637 0-1.001.351t-.364 1.04v1.768q0 .676.364 1.04.364.351 1.001.351m4.311 1.3v-7.15h1.352v1.04h.273l-.247.182q0-.599.325-.975.325-.377.871-.377.585 0 .949.455.377.442.377 1.157l-.312-.468h.442l-.208.208q.013-.624.351-.988t.897-.364q.663 0 1.079.507.429.507.429 1.326V117h-1.43v-5.33q0-.351-.169-.546-.156-.208-.455-.208a.52.52 0 0 0-.442.208q-.143.195-.143.546V117h-1.3v-5.33q0-.351-.156-.546-.143-.208-.429-.208a.57.57 0 0 0-.468.208q-.156.195-.156.546V117zm7.99 2.34v-9.49h1.586v1.443h.364l-.468.676q0-1.04.559-1.638.558-.61 1.508-.611.689 0 1.209.351a2.2 2.2 0 0 1 .819.949q.299.61.299 1.43v1.937q0 .819-.299 1.443-.287.61-.806.962-.52.338-1.222.338-.95 0-1.508-.611-.56-.61-.559-1.638l.468.689h-.377l.052 1.768v2.002zm2.938-3.614q.623 0 .962-.338.351-.351.351-1.04v-1.846q0-.702-.351-1.04-.338-.338-.962-.338t-.975.377q-.338.377-.338 1.066v1.716q0 .689.338 1.066.351.377.975.377m7.561 1.391q-.91 0-1.586-.351a2.5 2.5 0 0 1-1.04-.988q-.364-.65-.364-1.521v-1.664q0-.884.364-1.521a2.5 2.5 0 0 1 1.04-.988q.675-.351 1.586-.351.923 0 1.586.351.675.35 1.04.988.363.637.364 1.521v1.664q0 .871-.364 1.521-.365.637-1.04.988-.663.351-1.586.351m0-1.417q.65 0 1.001-.351.363-.364.364-1.04v-1.768q0-.689-.364-1.04-.351-.351-1.001-.351-.638 0-1.001.351-.364.351-.364 1.04v1.768q0 .676.364 1.04.363.351 1.001.351m4.701 1.3v-7.15h1.586v1.365h.442l-.481.377q.012-.858.546-1.365.532-.507 1.417-.507 1.053 0 1.677.702.636.702.637 1.885V117H419.2v-4.498q0-.663-.338-1.014-.339-.364-.936-.364-.611 0-.962.364-.339.364-.338 1.04V117zm10.512.13q-.91 0-1.586-.351a2.57 2.57 0 0 1-1.053-.988q-.364-.65-.364-1.521v-1.69q0-.871.364-1.508a2.55 2.55 0 0 1 1.053-1.001q.675-.351 1.586-.351.897 0 1.56.351.675.35 1.04.988.377.624.377 1.469v1.3h-4.42v.494q0 .728.377 1.105.376.364 1.066.364.507 0 .858-.169.363-.182.429-.52h1.612q-.17.922-.962 1.482-.794.546-1.937.546m1.417-4.225v-.39q0-.74-.364-1.144-.351-.403-1.053-.403t-1.079.416q-.364.403-.364 1.144v.247l2.977-.013zM430.2 117v-7.15h1.586v1.365h.442l-.481.377q.013-.858.546-1.365.534-.507 1.417-.507 1.053 0 1.677.702.637.702.637 1.885V117h-1.625v-4.498q0-.663-.338-1.014-.337-.364-.936-.364-.61 0-.962.364-.338.364-.338 1.04V117zm11.214 0q-1 0-1.599-.572-.585-.585-.585-1.573v-3.536h-1.976v-1.469h1.976v-2.015h1.638v2.015h2.847v1.469h-2.847v3.497q0 .312.169.52.183.195.494.195h2.119V117zm4.077 0v-1.469h2.47v-6.448l-2.483 1.82v-1.82l2.184-1.573h1.924v8.021h1.989V117zm12.813 1.56q-1.962-.454-3.055-1.794-1.079-1.34-1.079-3.289v-2.327q0-1.95 1.079-3.276 1.092-1.326 3.055-1.794v1.612a3.2 3.2 0 0 0-1.339.663 3.2 3.2 0 0 0-.858 1.196 4.1 4.1 0 0 0-.299 1.599v2.327q0 .871.299 1.599.3.715.858 1.196a3.2 3.2 0 0 0 1.339.663zm2.79 0v-1.625q.78-.181 1.339-.663.56-.481.858-1.196a4.2 4.2 0 0 0 .299-1.599v-2.327q0-.883-.299-1.599a3.15 3.15 0 0 0-.858-1.196 3.1 3.1 0 0 0-1.339-.663v-1.612q1.976.468 3.055 1.794t1.079 3.276v2.327q0 1.95-1.079 3.289t-3.055 1.794m10.005-6.669q-.559 0-.884-.299t-.325-.793.325-.78q.325-.299.884-.299t.884.299q.325.286.325.78t-.325.793-.884.299m0 5.239q-.559 0-.884-.299t-.325-.78q0-.494.325-.793t.884-.299.884.299.325.793q0 .481-.325.78t-.884.299"/></g><path fill="url(#m)" d="M0 0h668v140H0z" transform="translate(0 180)"/></g><defs><filter id="c" width="347" height="248" x="28" y="92" color-interpolation-filters="sRGB" filterUnits="userSpaceOnUse"><feFlood flood-opacity="0" result="BackgroundImageFix"/><feGaussianBlur in="BackgroundImageFix" stdDeviation="6"/><feComposite in2="SourceAlpha" operator="in" result="effect1_backgroundBlur_10763_1742"/><feBlend in="SourceGraphic" in2="effect1_backgroundBlur_10763_1742" result="shape"/></filter><filter id="d" width="135" height="44" x="105" y="172" color-interpolation-filters="sRGB" filterUnits="userSpaceOnUse"><feFlood flood-opacity="0" result="BackgroundImageFix"/><feGaussianBlur in="BackgroundImageFix" stdDeviation="6"/><feComposite in2="SourceAlpha" operator="in" result="effect1_backgroundBlur_10763_1742"/><feBlend in="SourceGraphic" in2="effect1_backgroundBlur_10763_1742" result="shape"/></filter><filter id="e" width="135" height="44" x="105" y="198" color-interpolation-filters="sRGB" filterUnits="userSpaceOnUse"><feFlood flood-opacity="0" result="BackgroundImageFix"/><feGaussianBlur in="BackgroundImageFix" stdDeviation="6"/><feComposite in2="SourceAlpha" operator="in" result="effect1_backgroundBlur_10763_1742"/><feBlend in="SourceGraphic" in2="effect1_backgroundBlur_10763_1742" result="shape"/></filter><filter id="f" width="135" height="44" x="105" y="224" color-interpolation-filters="sRGB" filterUnits="userSpaceOnUse"><feFlood flood-opacity="0" result="BackgroundImageFix"/><feGaussianBlur in="BackgroundImageFix" stdDeviation="6"/><feComposite in2="SourceAlpha" operator="in" result="effect1_backgroundBlur_10763_1742"/><feBlend in="SourceGraphic" in2="effect1_backgroundBlur_10763_1742" result="shape"/></filter><filter id="g" width="135" height="44" x="105" y="250" color-interpolation-filters="sRGB" filterUnits="userSpaceOnUse"><feFlood flood-opacity="0" result="BackgroundImageFix"/><feGaussianBlur in="BackgroundImageFix" stdDeviation="6"/><feComposite in2="SourceAlpha" operator="in" result="effect1_backgroundBlur_10763_1742"/><feBlend in="SourceGraphic" in2="effect1_backgroundBlur_10763_1742" result="shape"/></filter><filter id="h" width="359" height="112" x="303" y="68" color-interpolation-filters="sRGB" filterUnits="userSpaceOnUse"><feFlood flood-opacity="0" result="BackgroundImageFix"/><feGaussianBlur in="BackgroundImageFix" stdDeviation="6"/><feComposite in2="SourceAlpha" operator="in" result="effect1_backgroundBlur_10763_1742"/><feBlend in="SourceGraphic" in2="effect1_backgroundBlur_10763_1742" result="shape"/></filter><filter id="i" width="401" height="112" x="279" y="180" color-interpolation-filters="sRGB" filterUnits="userSpaceOnUse"><feFlood flood-opacity="0" result="BackgroundImageFix"/><feGaussianBlur in="BackgroundImageFix" stdDeviation="6"/><feComposite in2="SourceAlpha" operator="in" result="effect1_backgroundBlur_10763_1742"/><feBlend in="SourceGraphic" in2="effect1_backgroundBlur_10763_1742" result="shape"/></filter><filter id="j" width="135" height="44" x="334" y="202" color-interpolation-filters="sRGB" filterUnits="userSpaceOnUse"><feFlood flood-opacity="0" result="BackgroundImageFix"/><feGaussianBlur in="BackgroundImageFix" stdDeviation="6"/><feComposite in2="SourceAlpha" operator="in" result="effect1_backgroundBlur_10763_1742"/><feBlend in="SourceGraphic" in2="effect1_backgroundBlur_10763_1742" result="shape"/></filter><filter id="l" width="135" height="44" x="358" y="90" color-interpolation-filters="sRGB" filterUnits="userSpaceOnUse"><feFlood flood-opacity="0" result="BackgroundImageFix"/><feGaussianBlur in="BackgroundImageFix" stdDeviation="6"/><feComposite in2="SourceAlpha" operator="in" result="effect1_backgroundBlur_10763_1742"/><feBlend in="SourceGraphic" in2="effect1_backgroundBlur_10763_1742" result="shape"/></filter><linearGradient id="k" x1="140" x2="140" y1="-34.117" y2="178" gradientUnits="userSpaceOnUse"><stop offset=".41" stop-color="#F9F9FB" stop-opacity="0"/><stop offset=".948" stop-color="#F9F9FB"/></linearGradient><linearGradient id="m" x1="334" x2="334" y1="0" y2="140" gradientUnits="userSpaceOnUse"><stop stop-color="#F9F9FB" stop-opacity="0"/><stop offset=".639" stop-color="#F9F9FB"/></linearGradient><radialGradient id="b" cx="0" cy="0" r="1" gradientTransform="matrix(0 167 -194 0 334 167)" gradientUnits="userSpaceOnUse"><stop stop-color="#F4F0FE"/><stop offset="1" stop-color="#F9F9FB" stop-opacity="0"/></radialGradient><clipPath id="a"><path fill="#fff" d="M0 0h668v320H0z"/></clipPath></defs></svg>