<svg xmlns="http://www.w3.org/2000/svg" width="160" height="42" viewBox="0 0 160 42" fill="none">
  <g clip-path="url(#clip0_13808_18064)">
    <path d="M92.6877 11.6957L101.849 8.28445L92.6877 4.77574V0L108.38 6.33517V10.2337L92.6877 16.5689V11.6957Z" fill="#baa7ff"/>
    <path d="M6.04277 41.9084C2.729 41.9084 0 40.2515 0 36.5477V36.3529C0 31.8696 3.89855 30.3101 8.67429 30.3101H10.916V29.433C10.916 27.5812 10.1363 26.5089 8.18699 26.5089C6.43263 26.5089 5.55545 27.4835 5.45799 28.8481H0.584785C0.97464 24.7546 4.19096 22.8054 8.47937 22.8054C12.8652 22.8054 16.0816 24.6572 16.0816 29.2381V41.5184H11.1109V39.3743C10.1363 40.7387 8.47937 41.9084 6.04277 41.9084ZM10.916 35.4757V33.7214H8.86924C6.33517 33.7214 5.06812 34.4037 5.06812 36.0605V36.2554C5.06812 37.5224 5.84785 38.3995 7.6022 38.3995C9.35656 38.3021 10.916 37.3275 10.916 35.4757ZM27.6798 41.9084C22.6117 41.9084 18.908 38.7895 18.908 32.5517V32.2594C18.908 26.0217 22.8066 22.708 27.6798 22.708C31.8708 22.708 35.282 24.852 35.6719 29.6279H30.7987C30.5062 27.8735 29.5316 26.7038 27.7772 26.7038C25.6331 26.7038 24.0737 28.4584 24.0737 32.0645V32.6493C24.0737 36.3529 25.4381 38.0098 27.7772 38.0098C29.5316 38.0098 30.7987 36.7426 31.091 34.696H35.7694C35.4769 38.9844 32.6505 41.9084 27.6798 41.9084ZM46.7828 41.9084C41.7147 41.9084 38.0109 38.7895 38.0109 32.5517V32.2594C38.0109 26.0217 41.9096 22.708 46.7828 22.708C50.9738 22.708 54.385 24.852 54.7747 29.6279H49.9017C49.6092 27.8735 48.6346 26.7038 46.8802 26.7038C44.7359 26.7038 43.1767 28.4584 43.1767 32.0645V32.6493C43.1767 36.3529 44.5411 38.0098 46.8802 38.0098C48.6346 38.0098 49.9017 36.7426 50.194 34.696H54.8722C54.5799 38.9844 51.7535 41.9084 46.7828 41.9084ZM65.9832 41.9084C60.72 41.9084 57.1139 38.7895 57.1139 32.6493V32.2594C57.1139 26.1192 60.9151 22.708 65.8858 22.708C70.4665 22.708 74.2677 25.242 74.2677 31.3822V33.6239H62.2795C62.4746 36.9377 63.9364 38.2046 66.0807 38.2046C68.0299 38.2046 69.1019 37.1326 69.4919 35.8655H74.2677C73.6829 39.2767 70.7588 41.9084 65.9832 41.9084ZM62.3769 30.2127H69.1996C69.1019 27.4836 67.835 26.3141 65.7882 26.3141C64.2289 26.4115 62.7669 27.2887 62.3769 30.2127ZM77.3864 23.1952H82.552V25.9243C83.4294 24.1698 85.2811 22.8054 88.1075 22.8054C91.4213 22.8054 93.663 24.852 93.663 29.2381V41.5184H88.4975V30.0176C88.4975 27.8735 87.6203 26.8989 85.7683 26.8989C84.014 26.8989 82.552 27.971 82.552 30.3101V41.5184H77.3864V23.1952ZM103.117 17.6398V23.1952H106.626V26.9964H103.117V35.6706C103.117 37.0352 103.702 37.7174 104.969 37.7174C105.748 37.7174 106.236 37.62 106.723 37.4249V41.421C106.138 41.6159 105.066 41.811 103.799 41.811C99.8032 41.811 97.9514 39.959 97.9514 36.2554V26.9964H95.8071V23.1952H97.9514V19.784L103.117 17.6398ZM125.924 41.5184H120.855V38.7895C119.978 40.5438 118.224 41.9084 115.495 41.9084C112.181 41.9084 109.745 39.8615 109.745 35.5731V23.1952H114.91V34.8909C114.91 37.0352 115.787 38.0098 117.542 38.0098C119.296 38.0098 120.758 36.8403 120.758 34.5985V23.1952H125.924V41.5184ZM129.725 23.1952H134.89V26.6064C135.962 24.1698 137.717 23.0003 140.446 23.0003V28.0684C136.937 28.0684 134.89 29.1404 134.89 32.1619V41.6159H129.725V23.1952ZM150.874 41.9084C145.611 41.9084 142.005 38.7895 142.005 32.6493V32.2594C142.005 26.1192 145.806 22.708 150.777 22.708C155.358 22.708 159.159 25.242 159.159 31.3822V33.6239H147.268C147.463 36.9377 148.925 38.2046 151.069 38.2046C153.019 38.2046 154.091 37.1326 154.481 35.8655H159.256C158.477 39.2767 155.65 41.9084 150.874 41.9084ZM147.171 30.2127H154.091C153.993 27.4836 152.726 26.3141 150.68 26.3141C149.12 26.4115 147.658 27.2887 147.171 30.2127Z" fill="#baa7ff"/>
  </g>
  <defs>
    <clipPath id="clip0_13808_18064">
      <rect width="159.256" height="41.9096" fill="white"/>
    </clipPath>
  </defs>
</svg>