<svg xmlns="http://www.w3.org/2000/svg" width="197" height="20" viewBox="0 0 197 20" fill="none">
  <path d="M196.364 0.522514H190.55L183.587 8.24223V0.522514H178.706L178.73 19.5256H183.587V12.3044L190.191 19.5256H196.364L187.464 10.1433L196.364 0.522514ZM170.836 8.33735L166.385 7.83891C163.777 7.55358 163.132 6.91187 163.132 6.03299C163.132 5.05899 164.472 4.18011 167.079 4.18011C169.592 4.18011 170.907 5.10715 171.146 6.50855H175.931C175.689 2.49338 172.293 0 167.342 0C161.457 0 158.49 2.32723 158.49 6.43631C158.49 9.7857 160.452 11.3544 164.519 11.7818L169.041 12.2562C170.764 12.4464 171.554 13.1122 171.554 13.967C171.554 14.941 170.405 15.8199 167.629 15.8199C164.423 15.8199 163.132 15.012 162.916 13.3963H158.226C158.442 17.7679 161.313 20 167.462 20C173.084 20 176.219 17.5536 176.219 13.8719C176.219 10.6646 174.353 8.74067 170.836 8.33735ZM140.665 19.5256H156.073V15.4166H145.546V11.9721H154.015V7.83891H145.546V4.63159H156.073V0.522514H140.665V19.5256ZM129.181 0.522514H120.232V19.5256H129.181C136.048 19.5256 137.937 16.9841 137.937 9.88081C137.937 3.20612 136.12 0.522514 129.181 0.522514ZM128.984 15.4178H125.104V4.63159H128.984C132.047 4.63159 132.956 5.46352 132.956 9.88081C132.961 13.9189 131.932 15.4178 128.984 15.4178ZM106.978 0C100.015 0 96.4022 4.25114 96.4022 9.97592C96.4022 15.7248 100.015 20 106.978 20C113.964 20 117.577 15.7248 117.577 9.97592C117.577 4.25114 113.964 0 106.978 0ZM106.978 15.7248C103.365 15.7248 101.379 13.5396 101.379 9.97592C101.379 6.48447 103.365 4.27522 106.978 4.27522C110.616 4.27522 112.577 6.48447 112.577 9.97592C112.577 13.5396 110.615 15.7248 106.978 15.7248ZM78.4099 4.63159H84.5824V19.5256H89.4633V4.63159H95.6128V0.522514H78.4099V4.63159ZM71.3049 12.2562C71.3049 14.7267 69.7733 15.7248 67.1648 15.7248C64.6291 15.7248 62.9787 14.6798 62.9787 12.2562V0.522514H58.0977V12.8028C58.0977 18.2904 63.026 20 67.1648 20C71.2806 20 76.1846 18.2904 76.1846 12.8028V0.522514H71.3049V12.2562ZM43.8137 0.522514L36.4686 19.5256H41.5169L42.7987 15.962H50.9987L52.2599 19.5256H57.4744L50.0395 0.522514H43.8137ZM44.2515 11.9239L46.9327 4.47508L49.569 11.9263L44.2515 11.9239ZM0.150371 19.5268L17.2902 8.94173H26.1815C26.2498 8.94173 26.3173 8.9551 26.3804 8.98107C26.4434 9.00704 26.5007 9.0451 26.5489 9.09308C26.5971 9.14106 26.6353 9.198 26.6614 9.26066C26.6874 9.32332 26.7007 9.39045 26.7005 9.45822C26.7076 9.54615 26.6883 9.63419 26.6452 9.71129C26.602 9.7884 26.5369 9.85114 26.458 9.89165L18.0396 14.9025C17.4927 15.2275 17.3011 15.8801 17.3011 16.3689L17.2926 19.5268H27.9908V1.17385C27.991 1.08583 27.9733 0.998681 27.9387 0.917655C27.9041 0.836629 27.8533 0.763412 27.7893 0.702425C27.7254 0.641437 27.6497 0.593945 27.5668 0.562816C27.4838 0.531687 27.3954 0.517568 27.3069 0.52131H17.0986L0 11.0607V19.5268H0.150371Z" fill="#baa7ff"/>
</svg>