<svg xmlns="http://www.w3.org/2000/svg" width="97" height="32" viewBox="0 0 97 32" fill="none">
  <path d="M96.5923 24.4889V30.0889H78.2002V1.91111H84.6756V24.4889H96.5923ZM11.5569 30.0889C18.1912 30.0889 23.7673 25.6089 25.3562 19.5467L41.4849 32L57.6046 19.5526V30.0889H75.9967V24.4889H64.0801V1.91111H57.6046V12.4474L42.1445 24.3852L38.6879 21.7156L46.0867 16L54.145 9.77778L49.5463 6.22222L34.0831 18.163L30.6265 15.4933L46.0867 3.55556L41.4849 0L25.3562 12.4533C23.7673 6.39111 18.1912 1.91111 11.5569 1.91111H0V30.0889H11.5569ZM6.47546 24.4889V7.51111H11.5569C15.8529 7.51111 19.3364 11.3126 19.3364 16C19.3364 20.6874 15.8529 24.4889 11.5569 24.4889H6.47546Z" fill="#baa7ff"/>
</svg>