<svg width="1000" height="345" viewBox="0 0 1000 345" fill="none" xmlns="http://www.w3.org/2000/svg">
<g clip-path="url(#clip0_18012_6908)">
<path d="M708.761 214.039C708.697 213.882 708.66 213.714 708.652 213.531C708.659 213.58 708.659 213.594 708.659 213.623C708.825 215.367 709.285 218.648 709.658 221.101C710.24 220.001 710.816 218.832 711.426 217.593C711.886 216.653 711.656 216.361 711.253 216.212C710.098 215.8 708.919 214.935 708.761 214.039Z" fill="#baa7ff"/>
<path d="M728.825 187.614C728.99 189.485 730.424 189.712 731.596 188.069C731.905 187.614 732.256 187.058 732.674 186.43C732.342 185.989 732.006 185.561 731.653 185.124C730.017 183.206 726.13 179.065 722.367 175.817C726.109 179.349 728.394 183.661 728.825 187.614Z" fill="#baa7ff"/>
<path d="M653.777 58.7979C653.95 59.0385 654.101 59.2951 654.252 59.5702C654.101 59.275 653.95 59.0037 653.777 58.7979Z" fill="#baa7ff"/>
<path d="M500.017 -0.000366211C223.862 -0.000366211 0 77.132 0 172.311C0 267.474 223.86 344.619 500.017 344.619C776.147 344.619 1000 267.474 1000 172.311C1000 77.132 776.147 -0.000366211 500.017 -0.000366211ZM500.017 14.9244C766.469 14.9244 982.437 85.3729 982.437 172.309C982.437 259.246 766.469 329.708 500.017 329.708C233.563 329.708 17.583 259.246 17.583 172.309C17.583 85.3729 233.563 14.9244 500.017 14.9244ZM369.562 42.9169C362.466 42.9391 355.335 43.2154 348.155 43.8029C300.463 47.7778 255.07 74.3668 254.985 114.731C254.937 135.197 269.631 151.785 292.402 151.052C319.161 150.16 341.13 128.932 352.628 102.17C356.996 92.0163 348.909 87.7986 345.065 93.6443C338.201 104.177 328.525 112.353 318.062 117.43C305.469 123.532 292.014 121.885 287.937 111.758C282.201 97.4803 294.125 76.1127 321.335 66.0554C360.635 51.6497 401.759 61.1778 441.328 68.5391C441.892 68.5391 443.998 69.6961 442.133 70.6579C435.046 74.4798 428.075 77.5946 417.202 86.854C409.412 93.463 399.211 102.26 391.32 111.842C383.49 121.285 377.937 129.709 370.59 139.045C369.567 140.393 368.307 140.333 368.322 140.333C350.42 143.326 332.893 145.331 316.848 156.381C313.531 158.647 312.09 162.67 314.103 165.754C315.913 168.483 320.045 168.774 322.918 166.703C332.89 159.32 343.154 155.844 354.923 155.523C355.437 155.554 355.682 155.641 355.828 155.951C355.919 156.129 355.863 156.499 355.651 156.776C338.019 180.995 333.608 186.466 320.343 201.484C313.56 209.2 306.882 215.715 299.425 222.493C269.308 250.199 236.918 249.72 225.296 232.347C218.352 221.926 219.268 210.983 223.818 201.904C229.42 190.782 240.747 182.637 250.16 177.877C253.653 176.11 254.663 171.683 251.163 167.652C248.935 165.022 243.541 164.557 239.525 165.286C227.188 167.541 212.612 176.773 203.998 187.885C194.293 200.354 189.444 215.494 191.071 232.479C193.994 263.132 219.486 280.841 248.424 280.635C271.453 280.457 293.15 273.552 319.251 247.315C343.582 222.846 365.744 186.299 386.499 152.407C387.148 151.325 387.615 150.741 390.767 150.353C403.787 148.741 423.005 146.903 435.328 146.198C438.068 146.053 438.62 146.082 439.72 147.437C442.932 151.447 447.75 154.847 451.613 156.918C453.494 157.929 454.392 158.434 455.869 158.463C457.694 158.5 459.114 157.527 460.03 156.496C461.338 155.077 461.701 153.223 460.993 152.028C460.257 150.773 451.661 146.054 451.409 144.147C451.217 142.957 452.536 142.671 452.536 142.671C458.85 140.709 465.422 136.675 469.403 129.124C473.316 121.685 473.951 111.763 466.796 106.245C460.511 101.4 451.021 102.166 443.446 108.893C436.043 115.43 433.589 124.928 434.592 133.261C434.769 134.702 434.693 135.193 432.706 135.357C421.318 136.259 410.345 136.569 398.147 137.21C397.328 137.269 397.07 136.736 397.545 136.176C411.595 112.005 432.573 94.796 455.778 77.8456C457.316 76.7034 456.846 74.5323 456.786 72.7179C498.681 81.7314 539.167 98.5064 582.632 98.1495C600.605 98.0037 617.814 95.2946 634.264 86.3613C648.73 78.5482 654.597 71.3219 655.028 63.8149C655.366 58.6232 651.722 55.3441 646.53 56.4589C602.613 66.4525 560.721 66.3392 517.026 61.102C467.124 55.1071 419.235 42.7612 369.562 42.9169ZM457.22 112.959C458.246 113.014 459.206 113.354 459.983 114.013C462.298 115.97 461.204 120.855 458.866 124.238C456.311 127.967 451.979 131.19 448.027 131.973C447.234 132.119 446.548 131.785 446.22 130.045C445.576 125.443 447.092 119.277 452.055 114.936C453.612 113.573 455.509 112.867 457.22 112.959ZM809.777 113.851C801.792 113.851 791.318 113.869 782.999 113.869C781.016 113.869 779.99 114.11 779.055 115.931C775.987 121.759 738.562 177.287 731.594 188.072C730.422 189.715 728.99 189.486 728.825 187.615C728.12 181.21 722.531 173.85 713.732 170.328C707.024 167.632 700.465 167.145 693.649 168.041C681.342 169.677 670.376 176.111 660.733 183.358C646.203 194.298 633.668 208.473 617.484 218.947C608.647 224.647 596.552 229.619 588.457 222.197C581.131 215.474 581.957 200.533 593.165 188.982C594.348 187.772 595.764 188.782 595.541 189.87C594.485 195.096 595.786 200.292 599.789 203.935C604.679 208.272 611.676 208.766 617.666 205.871C624.735 202.403 628.888 195.708 630.099 188.108C631.976 176.317 622.809 165.916 611.34 165.083C602.023 164.436 593.09 167.646 584.384 174.763C580.022 178.346 577.537 180.996 573.766 186.312C572.846 187.618 571.432 187.752 571.476 185.819C571.914 170.723 565.605 162.231 552.999 161.953C543.219 161.725 532.766 166.976 524.62 173.408C515.689 180.509 507.882 189.921 499.514 198.763C498.473 199.852 497.563 199.801 497.272 197.688C497.02 187.687 494.477 177.998 489.802 171.121C488.148 168.728 484.67 167.541 481.745 169.161C480.395 169.893 475.691 172.032 472.274 174.761C470.574 176.145 469.917 178.147 470.66 180.718C475.177 195.657 474.182 212.645 468.063 226.995C462.442 240.134 451.515 251.989 438.676 255.999C430.216 258.653 421.419 257.353 415.979 249.928C408.504 239.678 411.522 221.857 422.66 207.056C432.495 194.027 446.713 185.748 460.9 180.418C462.57 179.78 462.914 178.72 462.443 177.315C461.67 175.002 460.445 171.863 459.939 170.426C458.638 166.999 454.992 166.439 450.547 166.92C440.24 168.108 430.944 171.604 421.76 176.472C397.712 189.223 385.653 213.907 380.365 227.11C377.823 233.449 375.646 237.409 372.833 240.918C369.041 245.636 364.286 249.928 355.58 257.497C354.795 258.191 354.208 259.64 354.869 260.984C355.757 262.806 360.283 269.132 361.56 269.697C362.978 270.387 364.623 269.425 365.28 268.955C371.372 264.867 378.655 258.391 382.222 253.997C383.472 252.493 384.756 253.124 385.418 255.409C388.746 267.164 397.46 276.76 409.507 280.773C431.559 288.138 454.436 277.478 471.698 258.924C482.673 247.133 486.632 239.548 490.834 234.393C497.96 225.647 512.02 206.086 528.764 193.526C534.905 188.897 542.174 185.364 545.828 187.709C548.76 189.587 549.709 193.965 545.003 202.439C527.931 233.307 502.809 269.576 498.203 278.373C497.362 279.899 498.093 281.098 499.707 281.098C508.639 281.056 517.497 281.076 525.607 281.076C526.957 281.012 527.564 280.403 528.239 279.46C541.34 259.152 553.671 239.821 566.888 219.839C567.628 218.662 568.31 219.573 568.34 220.089C568.612 224.725 569.763 231.068 572.541 235.233C577.536 242.933 584.617 246.24 592.47 246.289C598.718 246.36 601.876 245.419 608.613 242.929C614.096 240.916 618.497 238.271 621.875 235.881C623.848 234.526 624.194 236.797 624.142 237.144C621.114 253.266 624.855 272.368 641.04 280.289C660.403 289.741 681.681 276.455 693.922 264.46C695.118 263.303 696.406 263.425 696.528 265.915C696.787 270.495 698.877 275.932 702.704 279.735C712.962 289.929 733.664 285.89 754.437 269.969C767.775 259.775 781.731 245.374 794.339 230.121C794.806 229.534 795.153 228.579 794.252 227.623C792.333 225.634 789.553 223.356 787.652 221.601C786.782 220.873 785.509 221.083 784.775 221.632C771.854 233.8 760.223 247.675 743.411 259.154C737.741 263.07 728.706 266.231 724.646 260.794C723.066 258.684 723.244 255.758 724.804 251.927C729.711 239.819 807.315 122.833 811.344 115.931C812.034 114.733 811.307 113.851 809.777 113.851ZM701.035 186.993C703.067 186.975 704.97 187.362 706.702 188.187C716.26 192.703 713.21 203.661 708.934 212.264C708.614 212.929 708.593 213.494 708.762 214.038C708.92 214.935 710.099 215.8 711.254 216.212C711.657 216.362 711.886 216.653 711.426 217.593C708.124 224.595 705.094 228.633 700.958 234.715C697.157 240.337 692.87 244.724 687.68 248.941C679.853 255.355 668.983 262.337 659.995 257.643C656.003 255.59 654.28 250.063 654.359 245.583C654.566 232.992 660.206 220.064 670.65 207.36C680.997 194.748 692.23 187.069 701.035 186.993Z" fill="#baa7ff"/>
</g>
<defs>
<clipPath id="clip0_18012_6908">
<rect width="1000" height="344.619" fill="white"/>
</clipPath>
</defs>
</svg>
