<svg xmlns="http://www.w3.org/2000/svg" width="188" height="40" viewBox="0 0 188 40" fill="none">
  <g opacity="0.9" clip-path="url(#clip0_13808_18068)">
    <path d="M78.1849 7.99995V31.9999H74.0083V13.1666H73.9527L66.4906 31.9999H63.7062L56.0771 13.1666H56.0214V31.9999H52.179V7.99995H58.1932L65.0984 25.7777H65.2098L72.5048 7.99995H78.1849ZM81.6375 9.83328C81.6375 9.16661 81.8602 8.61106 82.3614 8.16661C82.8626 7.72217 83.4195 7.49995 84.0877 7.49995C84.8117 7.49995 85.4242 7.72217 85.8697 8.16661C86.3152 8.61106 86.5936 9.16661 86.5936 9.83328C86.5936 10.4999 86.3709 11.0555 85.8697 11.4999C85.3685 11.9444 84.8117 12.1666 84.0877 12.1666C83.3638 12.1666 82.8069 11.9444 82.3614 11.4999C81.9159 10.9999 81.6375 10.4444 81.6375 9.83328ZM86.1481 14.7777V31.9999H82.083V14.7777H86.1481ZM98.455 29.0555C99.0676 29.0555 99.7358 28.9444 100.46 28.6111C101.184 28.3333 101.852 27.9444 102.465 27.4999V31.2777C101.796 31.6666 101.072 31.9444 100.237 32.1111C99.4017 32.2777 98.5107 32.3888 97.5083 32.3888C94.9467 32.3888 92.8863 31.6111 91.3271 29.9999C89.7121 28.3888 88.9325 26.3333 88.9325 23.8888C88.9325 21.1111 89.7678 18.8333 91.3828 17.0555C92.9977 15.2777 95.2808 14.3888 98.288 14.3888C99.0676 14.3888 99.8472 14.4999 100.571 14.6666C101.351 14.8333 101.963 15.1111 102.409 15.3333V19.2222C101.796 18.7777 101.128 18.3888 100.515 18.1666C99.8472 17.9444 99.179 17.7777 98.5107 17.7777C96.8958 17.7777 95.615 18.2777 94.6126 19.3333C93.6102 20.3888 93.1647 21.7777 93.1647 23.5555C93.1647 25.2777 93.6659 26.6666 94.6126 27.6111C95.5593 28.5555 96.8401 29.0555 98.455 29.0555ZM113.992 14.4999C114.326 14.4999 114.604 14.4999 114.883 14.5555C115.161 14.6111 115.384 14.6666 115.551 14.7222V18.8333C115.328 18.6666 115.05 18.4999 114.604 18.3888C114.159 18.2777 113.713 18.1666 113.101 18.1666C112.098 18.1666 111.263 18.6111 110.595 19.4444C109.927 20.2777 109.537 21.5555 109.537 23.3333V31.9999H105.472V14.7777H109.537V17.4999H109.592C109.982 16.5555 110.539 15.8333 111.263 15.2777C112.043 14.7777 112.934 14.4999 113.992 14.4999ZM115.774 23.6666C115.774 20.8333 116.609 18.5555 118.168 16.8888C119.783 15.2222 122.011 14.3888 124.851 14.3888C127.524 14.3888 129.64 15.1666 131.143 16.7777C132.647 18.3888 133.427 20.5555 133.427 23.2777C133.427 26.0555 132.591 28.2777 131.032 29.9444C129.417 31.6111 127.245 32.4444 124.461 32.4444C121.788 32.4444 119.672 31.6666 118.113 30.1111C116.553 28.4999 115.774 26.3333 115.774 23.6666ZM120.006 23.4999C120.006 25.2777 120.396 26.6666 121.231 27.6111C122.066 28.5555 123.236 29.0555 124.739 29.0555C126.187 29.0555 127.357 28.6111 128.136 27.6111C128.916 26.6666 129.306 25.2777 129.306 23.3888C129.306 21.5555 128.916 20.1666 128.136 19.1666C127.357 18.2222 126.187 17.7222 124.795 17.7222C123.292 17.7222 122.178 18.2222 121.342 19.2222C120.396 20.2777 120.006 21.6666 120.006 23.4999ZM139.496 19.3333C139.496 19.8888 139.664 20.3888 140.053 20.7222C140.443 21.0555 141.223 21.4444 142.504 21.9444C144.119 22.6111 145.288 23.3333 145.901 24.1111C146.569 24.9444 146.903 25.8888 146.903 27.0555C146.903 28.6666 146.29 29.9444 145.01 30.9444C143.784 31.9444 142.058 32.3888 139.942 32.3888C139.218 32.3888 138.438 32.2777 137.547 32.1111C136.656 31.9444 135.933 31.7222 135.32 31.4444V27.4444C136.044 27.9444 136.879 28.3888 137.715 28.6666C138.55 28.9444 139.329 29.1111 140.053 29.1111C140.944 29.1111 141.668 28.9999 142.058 28.7222C142.504 28.4444 142.726 28.0555 142.726 27.4444C142.726 26.8888 142.504 26.4444 142.058 25.9999C141.613 25.6111 140.722 25.1666 139.496 24.6666C137.993 24.0555 136.935 23.3333 136.322 22.5555C135.71 21.7777 135.376 20.7777 135.376 19.5555C135.376 17.9999 135.988 16.7222 137.213 15.7222C138.438 14.7222 140.053 14.2222 142.002 14.2222C142.615 14.2222 143.283 14.2777 144.007 14.4444C144.731 14.6111 145.399 14.7777 145.901 14.9444V18.8888C145.344 18.5555 144.731 18.2222 144.007 17.9444C143.283 17.6666 142.559 17.5555 141.891 17.5555C141.111 17.5555 140.499 17.7222 140.109 17.9999C139.719 18.3888 139.496 18.7777 139.496 19.3333ZM148.629 23.6666C148.629 20.8333 149.465 18.5555 151.024 16.8888C152.639 15.2222 154.866 14.3888 157.706 14.3888C160.379 14.3888 162.495 15.1666 163.999 16.7777C165.502 18.3888 166.282 20.5555 166.282 23.2777C166.282 26.0555 165.447 28.2777 163.887 29.9444C162.273 31.6111 160.101 32.4444 157.316 32.4444C154.643 32.4444 152.527 31.6666 150.968 30.1111C149.465 28.4999 148.629 26.3333 148.629 23.6666ZM152.861 23.4999C152.861 25.2777 153.251 26.6666 154.087 27.6111C154.922 28.5555 156.091 29.0555 157.595 29.0555C159.043 29.0555 160.212 28.6111 160.992 27.6111C161.771 26.6666 162.161 25.2777 162.161 23.3888C162.161 21.5555 161.771 20.1666 160.992 19.1666C160.212 18.2222 159.043 17.7222 157.651 17.7222C156.147 17.7222 155.033 18.2222 154.198 19.2222C153.307 20.2777 152.861 21.6666 152.861 23.4999ZM179.814 18.1111H173.744V31.9999H169.623V18.1111H166.728V14.7777H169.623V12.3888C169.623 10.6111 170.236 9.11106 171.405 7.94439C172.575 6.77772 174.078 6.22217 175.916 6.22217C176.417 6.22217 176.863 6.27772 177.252 6.27772C177.642 6.27772 177.976 6.38883 178.255 6.49995V9.99995C178.143 9.94439 177.865 9.83328 177.531 9.72217C177.197 9.61106 176.807 9.5555 176.361 9.5555C175.526 9.5555 174.858 9.83328 174.412 10.3333C173.967 10.8333 173.744 11.6666 173.744 12.6666V14.7222H179.814V10.8333L183.879 9.61106V14.7222H188V18.0555H183.879V26.1111C183.879 27.1666 184.102 27.8888 184.436 28.3333C184.826 28.7777 185.438 28.9999 186.274 28.9999C186.496 28.9999 186.775 28.9444 187.109 28.8333C187.443 28.7222 187.722 28.6111 187.944 28.4444V31.7777C187.666 31.9444 187.276 32.0555 186.664 32.1666C186.051 32.2777 185.494 32.3333 184.882 32.3333C183.155 32.3333 181.874 31.8888 181.039 30.9999C180.204 30.1111 179.758 28.7222 179.758 26.8888L179.814 18.1111Z" fill="#baa7ff"/>
    <path d="M19.045 0H0V19H19.045V0Z" fill="#baa7ff"/>
    <path d="M40.0948 0H21.0498V19H40.0948V0Z" fill="#baa7ff"/>
    <path d="M19.045 21H0V40H19.045V21Z" fill="#baa7ff"/>
    <path d="M40.0948 21H21.0498V40H40.0948V21Z" fill="#baa7ff"/>
  </g>
  <defs>
    <clipPath id="clip0_13808_18068">
      <rect width="188" height="40" fill="white"/>
    </clipPath>
  </defs>
</svg>