<svg xmlns="http://www.w3.org/2000/svg" width="101" height="42" viewBox="0 0 101 42" fill="none">
  <g clip-path="url(#clip0_13808_18060)">
    <path fill-rule="evenodd" clip-rule="evenodd" d="M78.0327 16.2135C77.8935 16.9694 77.6735 17.8422 77.3784 18.8041C77.0819 19.7661 76.7018 20.7809 76.2536 21.8095C75.7664 22.8468 75.261 23.817 74.7543 24.6912C74.2533 25.5571 73.752 26.3018 73.2717 26.9047C72.8026 27.492 72.3669 27.9264 71.9799 28.1965C71.6876 28.3996 71.5247 28.422 71.469 28.422C71.4428 28.422 71.4216 28.4178 71.3994 28.4078C71.3504 28.3856 71.1878 28.277 71.1168 27.7605C71.0499 27.2871 71.0864 26.665 71.2213 25.9118C71.3604 25.1363 71.579 24.2552 71.8755 23.2988C72.1678 22.3424 72.548 21.3276 73.0031 20.285C73.4543 19.2507 73.9469 18.286 74.4704 17.4159C74.9909 16.5473 75.4978 15.8109 75.978 15.2262C76.4443 14.6555 76.8799 14.2281 77.2726 13.9538C77.5664 13.7506 77.7278 13.7284 77.7835 13.7284C77.8116 13.7284 77.8323 13.7325 77.8516 13.7425C77.9006 13.7636 78.0633 13.8734 78.1356 14.3899C78.2009 14.8632 78.1661 15.4757 78.0327 16.2135ZM58.4907 16.2135C58.3515 16.9694 58.1315 17.8422 57.8364 18.8041C57.5385 19.7716 57.1586 20.785 56.7116 21.8095C56.2229 22.8495 55.7177 23.8197 55.2123 24.6912C54.7098 25.5585 54.21 26.3033 53.7297 26.9047C53.2608 27.492 52.8264 27.9264 52.4366 28.1965C52.1443 28.3996 51.9827 28.422 51.927 28.422C51.9008 28.422 51.8796 28.4178 51.8574 28.4082C51.8084 28.3862 51.6458 28.2774 51.5747 27.7609C51.5081 27.289 51.5429 26.6681 51.6793 25.9123C51.817 25.1382 52.037 24.26 52.3335 23.2994C52.6258 22.3416 53.006 21.3282 53.4611 20.2855C53.9135 19.2484 54.4076 18.2837 54.9269 17.4164C55.4503 16.5464 55.957 15.81 56.436 15.2267C56.9037 14.656 57.3409 14.2272 57.7306 13.9544C58.0229 13.7511 58.1858 13.7289 58.2415 13.7289C58.2696 13.7289 58.2903 13.733 58.3096 13.7425C58.3586 13.7636 58.5227 13.8734 58.5938 14.3899C58.6591 14.8632 58.6241 15.4757 58.4907 16.2135ZM37.3173 16.0186C37.231 16.787 37.064 17.664 36.8203 18.6273C36.5753 19.5879 36.2411 20.5985 35.8249 21.6341C35.41 22.6643 34.9687 23.6332 34.5108 24.5131C34.0626 25.3733 33.6102 26.1069 33.1632 26.6945C32.7289 27.2651 32.3211 27.6911 31.9493 27.9598C31.6752 28.1588 31.5221 28.1812 31.4705 28.1812C31.4468 28.1812 31.4259 28.1771 31.4037 28.167C31.3536 28.1448 31.1809 28.0318 31.0919 27.5071C31.0083 27.0268 31.0013 26.4074 31.0682 25.6639C31.1378 24.9096 31.2951 24.0423 31.5374 23.0873C31.7796 22.131 32.1149 21.1189 32.5325 20.0804C32.9531 19.0363 33.3956 18.0689 33.848 17.2002C34.2935 16.3413 34.7474 15.5993 35.1971 14.9938C35.6286 14.4091 36.0378 13.9775 36.4081 13.7089C36.6824 13.5098 36.8356 13.4875 36.8884 13.4875C36.9121 13.4875 36.933 13.4917 36.9525 13.5017C37.0053 13.5238 37.1849 13.641 37.2949 14.1727C37.3923 14.646 37.4005 15.2655 37.3173 16.0186ZM80.1319 9.63455C81.1551 9.63455 82.0348 9.94776 82.7477 10.5672C83.4354 11.1644 83.9268 12.0178 84.2066 13.1022C84.4779 14.1532 84.5337 15.4242 84.3736 16.8817C84.2135 18.3211 83.7931 19.9637 83.1207 21.7636C82.4872 23.4647 81.7607 24.9613 80.9644 26.21C80.5789 26.8169 80.182 27.385 79.7797 27.9097C79.7281 27.9765 79.8052 28.0643 79.8786 28.0239C80.1124 27.8971 80.3448 27.7594 80.5747 27.609C81.0979 27.2708 81.6006 26.9059 82.078 26.5204C83.4103 25.4416 84.3778 23.9827 84.8482 22.3428C85.1294 21.3559 85.4412 20.3772 85.7809 19.4125C86.3377 17.8241 86.9322 16.3416 87.5489 15.0052C88.1614 13.673 88.671 12.6762 89.0635 12.04C89.509 11.3162 90.1326 10.8651 90.9219 10.6981C91.6598 10.5422 92.3655 10.5533 93.0141 10.7286C93.6781 10.9096 94.2211 11.2381 94.6261 11.7086C95.0674 12.2223 95.1636 12.807 94.9019 13.4C94.8239 13.6046 94.6192 14.0723 94.2936 14.7921C93.9663 15.5159 93.5989 16.3609 93.1714 17.3799C92.7607 18.3586 92.3391 19.4179 91.9186 20.526C91.508 21.6146 91.1864 22.6307 90.9636 23.5469C90.7466 24.4377 90.6615 25.1784 90.7103 25.7478C90.7577 26.292 90.9651 26.292 91.0779 26.292C91.2365 26.292 91.5177 26.2167 91.9548 25.8605C92.3752 25.5124 92.8192 25.0933 93.2773 24.6089C93.7353 24.1231 94.1752 23.5997 94.5817 23.054C94.9534 22.557 95.2722 22.1171 95.5309 21.7454C95.7566 21.421 96.1158 21.236 96.5152 21.236C96.937 21.236 97.3463 21.4476 97.5594 21.7747C97.7668 22.0949 97.7612 22.4763 97.5411 22.8187C97.2656 23.2489 96.7838 23.97 96.0684 25.0265C95.3597 26.0707 94.5121 27.1467 93.5486 28.2269C92.5688 29.3224 91.4982 30.2956 90.3637 31.1183C89.1705 31.9856 87.965 32.424 86.7832 32.424C85.7141 32.424 84.9165 32.0537 84.4111 31.3215C83.9518 30.6533 83.7179 29.7568 83.7179 28.6571V28.4817C83.7208 28.3508 83.5677 28.277 83.466 28.3591C83.2418 28.5387 83.0109 28.7171 82.7756 28.8924C81.386 29.9268 79.7824 30.8037 78.006 31.5011C76.4206 32.1247 74.6734 32.4407 72.8137 32.4407L72.435 32.4365L72.0549 32.424C70.7882 32.4212 69.8486 32.0243 69.2597 31.2406C69.1554 31.103 69.0592 30.9609 68.9743 30.8146C68.9062 30.6977 68.7294 30.7172 68.6904 30.8479C68.4997 31.4841 68.3187 32.0979 68.1516 32.6855C67.7898 33.948 67.4807 35.0408 67.2091 36.0263C66.9363 37.0147 66.6997 37.9154 66.5048 38.7075C66.3168 39.4704 66.1861 40.0884 66.1192 40.5464L66.1151 40.5634C65.9438 41.4307 65.3577 41.7356 64.894 41.84C64.688 41.8857 64.4737 41.9096 64.2566 41.9096C63.8641 41.9096 63.4492 41.8331 63.0246 41.6841C62.3786 41.4557 61.7982 41.0617 61.2969 40.5119C60.7777 39.9413 60.5147 39.2271 60.5147 38.3889C60.5147 38.2192 60.5578 37.8475 60.8906 36.4791C61.1398 35.4699 61.4752 34.2141 61.8914 32.7456C62.1726 31.7503 62.4928 30.6671 62.8478 29.5089C62.8893 29.3698 62.7309 29.2541 62.6112 29.3363C61.3736 30.1787 59.9858 30.9066 58.4712 31.5011C56.884 32.1247 55.1385 32.4407 53.2786 32.4407C53.0282 32.4407 52.7719 32.4349 52.5185 32.4237C51.2533 32.421 50.3135 32.0243 49.7234 31.2406C49.619 31.1028 49.5243 30.9622 49.4394 30.8146C49.3699 30.6977 49.1943 30.7184 49.1553 30.8477C48.9634 31.4854 48.7823 32.1006 48.6153 32.6853C48.2519 33.952 47.9429 35.0462 47.6742 36.0263C47.4014 37.0147 47.1633 37.9154 46.9685 38.7075C46.7805 39.4717 46.651 40.0896 46.5829 40.5462L46.58 40.5632C46.4088 41.4305 45.8214 41.7354 45.3579 41.8398C45.1517 41.8857 44.9388 41.9093 44.7217 41.9093C44.329 41.9093 43.9143 41.8329 43.4883 41.6839C42.8423 41.4557 42.2633 41.0617 41.762 40.5119C41.2428 39.9411 40.9798 39.2269 40.9798 38.3889C40.9798 38.2177 41.0213 37.846 41.3555 36.4789C41.6061 35.4599 41.9416 34.2043 42.3551 32.7454C42.6002 31.8781 42.8716 30.9538 43.1765 29.9557C43.2211 29.8052 43.0371 29.6912 42.9204 29.7983C42.4012 30.2717 41.8666 30.713 41.318 31.1166C40.1418 31.9839 38.9445 32.4237 37.7613 32.4237C36.6922 32.4237 35.893 32.0535 35.3893 31.3213C35.186 31.0261 35.0274 30.6849 34.9117 30.3021C34.8103 29.9611 34.373 29.8566 34.1253 30.1141C33.7772 30.4762 33.3944 30.806 32.9839 31.0969C32.4493 31.4755 31.8521 31.793 31.2061 32.0409C30.5408 32.294 29.821 32.4235 29.0666 32.4235C28.0461 32.4235 27.1509 32.1132 26.4076 31.4992C25.6836 30.9062 25.1478 30.0655 24.8123 28.9976C24.4865 27.9635 24.3668 26.6924 24.4559 25.2182C24.545 23.7621 24.8763 22.1278 25.4416 20.3585C26.6457 16.689 28.216 13.9647 30.1105 12.2567C32.0401 10.5166 33.9972 9.63398 35.928 9.63398C36.7453 9.63398 37.437 9.79824 37.9814 10.1212C38.5172 10.4413 38.9308 10.8645 39.2106 11.3796C39.3971 11.7263 39.5335 12.0979 39.6171 12.4933C39.632 12.5629 39.7269 12.5768 39.7619 12.5143C39.8593 12.3389 39.9526 12.1817 40.0402 12.0382C40.4857 11.3172 41.1009 10.8661 41.8708 10.6977C42.5906 10.5418 43.2949 10.5515 43.9617 10.7271C44.6452 10.9081 45.1978 11.238 45.6043 11.7085C46.0456 12.2222 46.1418 12.8069 45.8786 13.3999C45.8021 13.6017 45.6043 14.0584 45.2715 14.792C44.9474 15.5103 44.5687 16.3803 44.1496 17.3798C43.7347 18.3696 43.3129 19.429 42.8967 20.5259C42.4848 21.6144 42.1631 22.6322 41.9418 23.5467C41.7247 24.4391 41.6397 25.1797 41.6885 25.7476C41.7358 26.292 41.9433 26.292 42.0546 26.292C42.2149 26.292 42.4959 26.2167 42.9317 25.8603C43.1725 25.6612 43.4231 25.4372 43.6792 25.1908C44.6718 24.2344 45.3371 23.1904 45.7812 21.8917C46.3715 20.1682 46.9923 18.4671 47.6298 16.8272C48.3106 15.0829 48.9747 13.5169 49.6039 12.1721C49.9323 11.4761 50.453 11.0069 51.1462 10.7814C51.7964 10.5698 52.4632 10.5253 53.1189 10.6492C53.7731 10.7745 54.3466 11.0348 54.8227 11.4246C55.0344 11.5972 55.2026 11.7837 55.3279 11.98C55.3613 12.0329 55.4005 12.0385 55.4463 11.9953C56.0088 11.4761 56.6297 11 57.2992 10.5754C58.2792 9.95033 59.3888 9.63434 60.597 9.63434C61.6188 9.63434 62.4999 9.94755 63.2113 10.567C63.9003 11.1656 64.3917 12.0176 64.6717 13.102C64.943 14.1516 64.9988 15.424 64.8387 16.8815C64.6786 18.3195 64.2568 19.9635 63.5858 21.7634C62.9511 23.466 62.2244 24.9624 61.4281 26.2098C61.0425 26.8167 60.6456 27.3848 60.2435 27.9095C60.1918 27.9763 60.2697 28.0641 60.3437 28.0237C60.5761 27.8969 60.8087 27.7592 61.0398 27.6088C61.4143 27.3665 61.7774 27.1105 62.1284 26.8431C63.462 25.8297 64.4573 24.4431 64.9877 22.8646L65.1964 22.2479C65.8229 20.3965 66.4855 18.5728 67.1649 16.8272C67.847 15.0801 68.511 13.5141 69.1401 12.1721C69.4674 11.4761 69.9866 11.0083 70.6826 10.7814C71.3328 10.5698 71.9996 10.5253 72.6553 10.6492C73.3095 10.7745 73.8815 11.0348 74.3576 11.4232C74.5693 11.5972 74.7377 11.7838 74.863 11.98C74.8966 12.0329 74.9353 12.0385 74.9812 11.9953C75.5436 11.4761 76.1645 11 76.8343 10.5754C77.8156 9.95027 78.9249 9.63455 80.1319 9.63455ZM16.1049 0.963316C17.5721 0.963316 19.0422 1.13315 20.476 1.46583C21.9195 1.80272 23.2296 2.315 24.3668 2.98876C25.5181 3.67088 26.4634 4.52699 27.176 5.53347C27.9028 6.55803 28.2703 7.75939 28.2703 9.10414C28.2703 10.5519 27.9474 11.9105 27.3097 13.1412C26.6777 14.3592 25.8077 15.4715 24.726 16.4473C23.6542 17.4162 22.3831 18.271 20.9479 18.9865C19.7647 19.5767 18.5076 20.0806 17.2018 20.4857C17.1183 20.512 17.0891 20.5553 17.0933 20.6388C17.1211 21.2792 17.167 21.9126 17.2325 22.5224C17.3062 23.2225 17.4037 23.9046 17.5234 24.5519C17.6403 25.1881 17.7823 25.8077 17.9424 26.3936C18.0677 26.8475 18.2069 27.2888 18.3559 27.7079C18.4505 27.975 18.5508 28.2368 18.6524 28.4817C18.857 28.9761 19.0826 29.4492 19.322 29.8878C19.5572 30.3193 19.812 30.7285 20.0793 31.1044C20.3396 31.4705 20.6194 31.8144 20.9104 32.1289C21.1943 32.4353 21.495 32.7165 21.8041 32.9671C22.1048 33.2106 22.4222 33.4321 22.7464 33.6213C23.0624 33.8078 23.3939 33.9694 23.7321 34.1031C24.0649 34.2338 24.4085 34.3396 24.7553 34.4161C25.1034 34.4928 25.4611 34.5414 25.823 34.5651C26.1836 34.5873 26.5593 34.5831 26.9338 34.5498C27.3154 34.5167 27.7052 34.4553 28.092 34.3648C28.4889 34.2728 28.8924 34.1517 29.2948 34.0029C29.707 33.8497 30.1231 33.6632 30.5338 33.4528C30.691 33.3722 30.8498 33.2858 31.007 33.1968C31.5193 32.9044 32.1735 33.0438 32.5174 33.517C32.8628 33.9903 32.7863 34.6445 32.3408 35.0288C32.1222 35.2166 31.9022 35.4004 31.6851 35.5758C31.1574 36.0018 30.6286 36.3972 30.112 36.7494C29.6221 37.0835 29.1236 37.3953 28.6307 37.6723C28.3845 37.8116 28.1255 37.9481 27.8623 38.0788C27.3571 38.3322 26.8462 38.5549 26.3408 38.7414C25.8383 38.9266 25.3331 39.0811 24.8402 39.198C24.3488 39.3149 23.8532 39.3998 23.3702 39.4486C23.0249 39.4832 22.6798 39.5014 22.3428 39.5014C22.2064 39.5014 22.07 39.4987 21.9336 39.4918C21.4659 39.4721 21.0009 39.418 20.5498 39.3302C20.3271 39.2873 20.1016 39.2343 19.8816 39.1731C19.6686 39.1159 19.4501 39.0478 19.2315 38.9683C18.8125 38.8181 18.3963 38.6331 17.9981 38.4172C17.6084 38.2058 17.2241 37.9621 16.8594 37.692C16.5643 37.4734 16.2748 37.2327 16.0005 36.9778C15.6706 36.6717 15.349 36.3306 15.0442 35.9687C14.7435 35.611 14.4553 35.2239 14.188 34.8189C13.9194 34.4151 13.666 33.9836 13.4321 33.5381C13.1996 33.0926 12.9783 32.6193 12.7779 32.1321C12.5788 31.649 12.3936 31.1367 12.2252 30.6063C12.0595 30.0858 11.9078 29.5345 11.7742 28.9664C11.6419 28.4 11.5263 27.8124 11.4303 27.2194C11.344 26.6947 11.2716 26.1503 11.2146 25.5977C11.1977 25.4307 10.957 25.4085 10.9083 25.5713C10.6995 26.2924 10.5102 26.9912 10.3431 27.6595C10.1329 28.4975 9.9394 29.2604 9.764 29.9452C9.5928 30.6162 9.47169 31.1564 9.40207 31.5504C9.26285 32.2492 8.79931 32.6905 8.05594 32.8338C7.41696 32.9591 6.73067 32.9063 6.02351 32.6807C5.32469 32.4566 4.68991 32.0681 4.13446 31.524C3.55257 30.9531 3.25746 30.2363 3.25746 29.3912C3.25746 28.7036 3.43287 27.6163 3.79202 26.0698C4.1428 24.5594 4.64815 22.7693 5.29684 20.7465C5.93999 18.7405 6.72093 16.5285 7.61603 14.1759C8.38447 12.1546 9.24755 10.1194 10.183 8.11203C10.4893 7.45498 11.1227 7.00254 11.8535 6.91902C13.5059 6.72971 14.9397 6.77703 16.155 7.05824C16.8872 7.22808 17.2798 8.01181 16.9736 8.68697C16.1898 10.4104 15.4673 12.1296 14.8214 13.8028C14.2994 15.1573 13.7982 16.4979 13.3249 17.8023C13.2791 17.9317 13.4126 18.0515 13.5379 17.9943C14.1685 17.709 14.7908 17.3721 15.3991 16.9879C16.3958 16.3573 17.3035 15.6042 18.0983 14.7508C18.8891 13.8975 19.5378 12.9356 20.0264 11.8901C20.508 10.8544 20.753 9.72962 20.753 8.54356C20.753 7.01924 20.3243 5.89307 19.4793 5.19842C18.6232 4.49541 17.4176 4.13765 15.8947 4.13765C14.2729 4.13765 12.7904 4.51632 11.4888 5.26384C10.1524 6.02949 8.99698 6.97052 8.05453 8.06191C7.10514 9.16164 6.35621 10.3366 5.8314 11.5546C5.31078 12.7615 5.04627 13.8195 5.04627 14.7007C5.04627 15.3313 4.70801 15.7865 4.09408 15.9828C3.55536 16.1554 2.96095 16.1304 2.35121 15.9063C1.76515 15.6919 1.22224 15.2673 0.736403 14.6464C0.24778 14.0228 0 13.1778 0 12.1351C0 11.2247 0.350779 10.1528 1.0719 8.85819C1.7735 7.59558 2.81198 6.36638 4.15533 5.20399C5.4973 4.0444 7.19007 3.03792 9.19186 2.21383C11.2048 1.38414 13.531 0.963316 16.1049 0.963316ZM95.9641 0C98.2094 0 100.029 1.79578 100.029 4.00917C100.029 6.22256 98.2094 8.01835 95.9641 8.01835C93.7186 8.01835 91.8991 6.22256 91.8991 4.00917C91.8991 1.79578 93.7186 0 95.9641 0Z" fill="#baa7ff"/>
  </g>
  <defs>
    <clipPath id="clip0_13808_18060">
      <rect width="100.583" height="41.9096" fill="white"/>
    </clipPath>
  </defs>
</svg>