<svg xmlns="http://www.w3.org/2000/svg" width="28" height="18" viewBox="0 0 28 18" fill="none">
  <g clip-path="url(#clip0_18320_122319)">
    <path d="M7.92162 6.69747L8.10583 7.52642C8.10583 7.80273 8.19793 7.98694 8.38214 8.26326V8.44747L8.29004 8.72379L7.6453 9.09221L7.46109 9.18431L7.18477 9.09221L6.81635 8.63168L6.54004 8.07905C5.8032 8.908 4.88214 9.36852 3.86899 9.36852C3.04004 9.36852 2.3953 9.09221 2.02688 8.63168C1.56635 8.26326 1.29004 7.61852 1.29004 6.88168C1.29004 6.14484 1.56635 5.5001 2.11899 5.03958C2.67162 4.48694 3.40846 4.30273 4.42162 4.30273C5.1067 4.29899 5.78887 4.39201 6.44793 4.57905V3.93431C6.44793 3.19747 6.26372 2.73694 5.98741 2.46063C5.71109 2.09221 5.25056 2.0001 4.51372 2.0001L3.50056 2.09221C3.05738 2.20536 2.62569 2.35954 2.21109 2.55273H2.02688C1.93478 2.55273 1.84267 2.46063 1.84267 2.27642V1.81589L1.93478 1.53958C1.93478 1.44747 2.02688 1.35537 2.21109 1.35537L3.31635 0.89484L4.79004 0.710629C5.8953 0.710629 6.63214 0.986945 7.18477 1.44747C7.6453 2.0001 7.92162 2.73694 7.92162 3.7501V6.69747ZM4.23741 8.17115L5.15846 7.98694C5.52688 7.89484 5.8032 7.61852 6.07951 7.34221L6.35583 6.78958L6.44793 5.96063V5.59221C5.8735 5.46445 5.28637 5.40265 4.69793 5.408C4.1453 5.408 3.68478 5.5001 3.31635 5.77642C3.04004 5.96063 2.94793 6.32905 2.94793 6.78958C2.94793 7.2501 3.04004 7.52642 3.22425 7.80273C3.50056 7.98694 3.77688 8.17115 4.23741 8.17115ZM11.6058 9.09221L11.2374 9.0001L11.0532 8.72379L8.93477 1.53958L8.84267 1.17116L9.02688 0.986945H9.94793L10.3164 1.07905L10.5006 1.44747L12.0664 7.52642L13.4479 1.44747L13.6321 1.07905L14.0006 0.986945H14.7374L15.1058 1.07905L15.29 1.44747L16.7637 7.61852L18.3295 1.44747L18.5137 1.07905L18.8821 0.986945H19.7111C19.8953 0.986945 19.9874 1.07905 19.9874 1.17116V1.35537L19.8953 1.53958L17.6848 8.72379L17.5006 9.09221L17.1321 9.18431H16.3032L15.9348 9.09221L15.8427 8.72379L14.369 2.73694L12.9874 8.63168L12.8032 9.0001L12.4348 9.09221H11.6058ZM23.4874 9.36852C22.6287 9.36202 21.7812 9.17368 21.0006 8.81589L20.7242 8.53958L20.6321 8.35536V7.89484C20.6321 7.71063 20.7242 7.61852 20.8163 7.61852H21.0006L21.2769 7.71063C21.9406 8.01804 22.6639 8.17528 23.3953 8.17115C23.9479 8.17115 24.4085 7.98694 24.6848 7.80273C25.0532 7.61852 25.1453 7.34221 25.1453 6.97379L24.9611 6.32905L24.04 5.86852L22.6585 5.408C22.0137 5.22379 21.4611 4.85537 21.1848 4.48694C21.0058 4.25247 20.8756 3.98455 20.8017 3.69897C20.7279 3.41338 20.712 3.11591 20.7549 2.82407C20.7978 2.53224 20.8987 2.25195 21.0516 1.99971C21.2045 1.74747 21.4064 1.52838 21.6453 1.35537L22.5663 0.89484C23.1579 0.692131 23.7884 0.629082 24.4085 0.710629C24.7818 0.781931 25.1508 0.874182 25.5137 0.986945L25.8821 1.17116L26.1585 1.35537L26.2506 1.72379V2.09221C26.2506 2.36852 26.1585 2.46063 26.0663 2.46063L25.6979 2.27642C25.1453 2.09221 24.5927 2.0001 23.9479 2.0001C23.3953 2.0001 22.9348 2.0001 22.6585 2.18431C22.3821 2.36852 22.29 2.64484 22.29 3.01326C22.29 3.28958 22.3821 3.47379 22.5663 3.658C22.7506 3.84221 23.0269 4.02642 23.5795 4.21063L24.869 4.57905C25.5137 4.85537 25.9742 5.13168 26.2506 5.5001C26.5269 5.86852 26.7111 6.32905 26.7111 6.78958L26.4348 7.89484L25.79 8.63168C25.5137 8.908 25.1453 9.09221 24.7769 9.18431L23.4874 9.36852Z" fill="white"/>
    <path d="M25.2374 13.8815C21.4802 16.3909 16.9921 17.5726 12.4863 17.2389C7.98045 16.9051 3.71544 15.075 0.368978 12.0394C0.00055702 11.7631 0.276873 11.4868 0.553188 11.671C4.21249 13.7439 8.29669 14.9542 12.4946 15.2095C16.6925 15.4649 20.8933 14.7587 24.7769 13.1447C25.2374 12.9604 25.6979 13.5131 25.2374 13.8815Z" fill="#FF9900"/>
    <path d="M26.4346 12.4077C26.0662 11.9472 23.8556 12.1314 22.9346 12.3156C22.5662 12.3156 22.5662 12.0393 22.8425 11.8551C24.5925 10.6577 27.4477 11.0261 27.7241 11.3945C28.0925 11.8551 27.6319 14.7103 26.0662 16.0919C25.7898 16.2761 25.5135 16.184 25.6056 15.9077C26.0662 14.9866 26.803 12.8682 26.4346 12.4077Z" fill="#FF9900"/>
  </g>
  <defs>
    <clipPath id="clip0_18320_122319">
      <rect width="28" height="16.7632" fill="white" transform="translate(0 0.618408)"/>
    </clipPath>
  </defs>
</svg>