<svg width="28" height="28" viewBox="0 0 28 28" fill="none" xmlns="http://www.w3.org/2000/svg">
<path fill-rule="evenodd" clip-rule="evenodd" d="M15.4025 0.238385L14.8283 7.31013C14.5565 7.27733 14.2812 7.25973 14 7.25973C13.6506 7.25973 13.3071 7.28553 12.9717 7.33713L12.6447 3.90801C12.6341 3.80126 12.7199 3.70741 12.8282 3.70858H13.4153L13.1317 0.238385C13.1223 0.131627 13.2071 0.0401211 13.3141 0.0401211H15.2177C15.3248 0.0401211 15.4083 0.131627 15.4001 0.238385H15.4025ZM10.5975 0.589158C10.5693 0.48592 10.4587 0.429609 10.3575 0.465977L8.568 1.11591C8.4668 1.15227 8.41973 1.26724 8.46447 1.36461L9.9198 4.52861L9.36687 4.72805C9.26567 4.76442 9.21627 4.88056 9.26333 4.97911L10.7457 8.09033C11.2834 7.79467 11.8658 7.57293 12.4811 7.4322L10.5975 0.589158ZM6.20436 2.55889L10.3222 8.34373C9.7998 8.68273 9.328 9.091 8.9186 9.55673L6.45613 7.13773C6.37848 7.06147 6.38437 6.93593 6.46672 6.86673L6.91733 6.4913L4.46545 4.01477C4.39015 3.93851 4.39604 3.81533 4.47839 3.74612L5.93611 2.52487C6.01847 2.45565 6.142 2.47207 6.20436 2.55889ZM2.75008 5.90825C2.66184 5.84841 2.54065 5.87539 2.48653 5.9669L1.53473 7.61167C1.48061 7.70433 1.51825 7.82287 1.61473 7.8686L4.76899 9.35967L4.47369 9.86647C4.41957 9.96033 4.45721 10.08 4.55605 10.1245L7.69853 11.557C7.9268 10.9739 8.23033 10.4307 8.60213 9.9404L2.75008 5.90825ZM0.426439 10.378C0.445263 10.2724 0.548797 10.2055 0.653508 10.2325L7.5362 12.0251C7.35853 12.6046 7.25853 13.2182 7.2444 13.8529L3.79836 13.5771C3.69012 13.5689 3.61365 13.4692 3.63247 13.3625L3.73601 12.7865L0.261725 12.4615C0.154661 12.4509 0.0793633 12.3524 0.098188 12.2468L0.427615 10.3768L0.426439 10.378ZM0.166427 15.0131C0.0593625 15.0237 -0.0159351 15.1222 0.00288934 15.2278L0.333493 17.0978C0.352317 17.2034 0.457028 17.2703 0.560563 17.2433L3.93719 16.3634L4.03837 16.9394C4.0572 17.0462 4.16426 17.1131 4.26779 17.0837L7.59853 16.1663C7.40207 15.5903 7.28087 14.9814 7.24913 14.3479L0.166427 15.0131ZM1.26765 19.9275C1.21353 19.8348 1.25119 19.7163 1.34766 19.6705L7.77387 16.6321C8.01853 17.2069 8.34213 17.7407 8.7292 18.2193L5.91258 20.2172C5.82434 20.2806 5.70081 20.2524 5.64786 20.1597L5.35491 19.6517L2.48418 21.6309C2.39594 21.6919 2.27476 21.6649 2.22064 21.5722L1.26765 19.9275ZM9.05393 18.5947L4.05485 23.644C3.97955 23.7203 3.98543 23.8435 4.06779 23.9127L5.52668 25.1327C5.60903 25.2019 5.73257 25.1855 5.79493 25.0987L7.81387 22.2597L8.26327 22.6375C8.34567 22.7067 8.47153 22.6903 8.53273 22.6011L10.4928 19.7655C9.961 19.4418 9.47747 19.0464 9.05393 18.5947ZM8.0668 26.7013C7.9656 26.6649 7.91853 26.5499 7.96327 26.4525L10.9281 20.0025C11.474 20.2806 12.0623 20.4882 12.6811 20.6102L11.8117 23.9443C11.7846 24.0487 11.6729 24.1074 11.5717 24.0699L11.0199 23.8681L10.0951 27.2245C10.0669 27.3277 9.95627 27.384 9.85513 27.3477L8.0656 26.6989L8.0668 26.7013ZM13.1729 20.6888L12.5988 27.7618C12.5905 27.8685 12.6741 27.9601 12.7811 27.9601H14.6847C14.7918 27.9601 14.8765 27.8685 14.8671 27.7618L14.5836 24.2927H15.1707C15.2789 24.2939 15.3636 24.2013 15.3542 24.0933L15.0271 20.6642C14.6918 20.7147 14.3483 20.7416 13.9989 20.7416C13.7188 20.7416 13.4435 20.7229 13.1717 20.69L13.1729 20.6888ZM20.0379 1.54645C20.0827 1.44908 20.0344 1.33529 19.9344 1.29774L18.1449 0.648989C18.0449 0.612621 17.9331 0.668934 17.9049 0.772167L16.9801 4.12857L16.4284 3.92679C16.3272 3.88925 16.2154 3.9479 16.1883 4.05231L15.3189 7.3864C15.9377 7.5084 16.526 7.71607 17.0719 7.99413L20.0379 1.54528V1.54645ZM23.9452 4.35733L18.9461 9.4066C18.5237 8.95373 18.0402 8.5584 17.5073 8.2346L19.4673 5.39909C19.5285 5.31111 19.6544 5.29351 19.7367 5.3639L20.1862 5.74165L22.2051 2.90262C22.2675 2.81581 22.391 2.79938 22.4733 2.8686L23.9323 4.08868C24.0146 4.15789 24.0205 4.28225 23.9452 4.35733ZM26.6524 8.3308C26.75 8.28507 26.7865 8.1666 26.7324 8.07387L25.7794 6.42913C25.7253 6.33645 25.6041 6.30947 25.5159 6.37047L22.6451 8.3496L22.3522 7.8416C22.2981 7.74773 22.1745 7.7208 22.0875 7.78413L19.2709 9.782C19.6579 10.2618 19.9815 10.7945 20.2262 11.3693L26.6524 8.3308ZM27.6665 10.9047L27.9971 12.7747C28.016 12.8815 27.9395 12.98 27.8336 12.9894L20.7509 13.6523C20.7191 13.0187 20.598 12.4099 20.4015 11.8339L23.7323 10.9176C23.8358 10.8883 23.9429 10.9563 23.9617 11.0619L24.0617 11.6379L27.4383 10.7581C27.5418 10.7311 27.6465 10.7979 27.6653 10.9035L27.6665 10.9047ZM27.3465 17.7689C27.4501 17.7958 27.5548 17.7289 27.5736 17.6234L27.903 15.7534C27.9219 15.6478 27.8454 15.5493 27.7395 15.5387L24.2652 15.2137L24.3687 14.6377C24.3875 14.5309 24.3111 14.4324 24.2029 14.423L20.7568 14.1473C20.7427 14.7831 20.6427 15.3955 20.465 15.9763L27.3477 17.7677L27.3465 17.7689ZM25.5135 22.0356C25.4594 22.1271 25.3382 22.1541 25.2499 22.0943L19.3955 18.0621C19.7673 17.5717 20.0721 17.0286 20.2991 16.4455L23.4417 17.8791C23.5405 17.9237 23.5793 18.0445 23.524 18.1372L23.2287 18.644L26.3829 20.1351C26.4794 20.1809 26.5171 20.2993 26.4629 20.392L25.5111 22.0368L25.5135 22.0356ZM17.6779 19.6576L21.7957 25.4436C21.858 25.5305 21.9804 25.5469 22.0639 25.4777L23.5217 24.2564C23.604 24.1872 23.6099 24.0628 23.5346 23.9877L21.0827 21.5112L21.5333 21.1358C21.6157 21.0666 21.6215 20.9411 21.5439 20.866L19.0814 18.4469C18.672 18.9115 18.2002 19.3197 17.6779 19.6588V19.6576ZM17.6425 27.5354C17.5425 27.5717 17.4308 27.5154 17.4025 27.4122L15.5177 20.5703C16.1331 20.4295 16.7155 20.2067 17.2531 19.9122L18.7355 23.0234C18.7826 23.1208 18.7343 23.2381 18.632 23.2745L18.079 23.4739L19.5344 26.6379C19.5791 26.7353 19.5309 26.8491 19.4309 26.8866L17.6413 27.5365L17.6425 27.5354Z" fill="#fff"/>
</svg>
