<svg xmlns="http://www.w3.org/2000/svg" width="28" height="30" viewBox="0 0 28 30" fill="none">
  <g clip-path="url(#clip0_18320_122311)">
    <path d="M26.1608 12.398C26.4782 11.4422 26.5879 10.4297 26.4828 9.42808C26.3776 8.42648 26.0599 7.45885 25.5509 6.58983C24.0026 3.89472 20.8906 2.5084 17.8514 3.15983C17.0099 2.22379 15.9369 1.52564 14.7402 1.13551C13.5435 0.74537 12.2652 0.676982 11.0337 0.937209C9.80224 1.19744 8.66089 1.77712 7.72431 2.61803C6.78774 3.45895 6.08891 4.5315 5.69802 5.72796C4.71121 5.93031 3.77895 6.34096 2.96356 6.93247C2.14816 7.52397 1.46842 8.28271 0.969741 9.15796C-0.595415 11.8488 -0.240056 15.2429 1.84835 17.5514C1.52979 18.5067 1.41891 19.5191 1.52312 20.5207C1.62733 21.5223 1.94424 22.4902 2.45265 23.3594C4.00293 26.0555 7.11683 27.4417 10.1577 26.7894C10.8262 27.5423 11.6477 28.1439 12.5673 28.554C13.4868 28.9641 14.4833 29.1733 15.4901 29.1677C18.6053 29.1704 21.3651 27.1595 22.3167 24.1932C23.3033 23.9905 24.2354 23.5797 25.0508 22.9882C25.8661 22.3968 26.5459 21.6382 27.0448 20.7632C28.5911 18.0772 28.2343 14.7014 26.1608 12.398ZM15.4901 27.31C14.2467 27.3119 13.0423 26.8761 12.088 26.0789L12.2559 25.9838L17.9073 22.7217C18.048 22.6392 18.1648 22.5215 18.2462 22.3803C18.3277 22.239 18.371 22.079 18.3718 21.9159V13.9479L20.7611 15.33C20.785 15.3421 20.8016 15.365 20.8059 15.3916V21.9942C20.7998 24.9274 18.4234 27.3038 15.4901 27.31ZM4.06418 22.4307C3.4406 21.354 3.2167 20.0918 3.43188 18.8663L3.59966 18.967L9.25676 22.2293C9.39673 22.3114 9.55608 22.3547 9.71837 22.3547C9.88066 22.3547 10.04 22.3114 10.18 22.2293L17.0904 18.2453V21.0038C17.0898 21.0181 17.0859 21.0321 17.0791 21.0447C17.0724 21.0573 17.0628 21.0682 17.0513 21.0766L11.3271 24.3779C8.78338 25.8433 5.53352 24.972 4.06418 22.4307ZM2.57569 10.1205C3.2036 9.03679 4.19469 8.21025 5.37351 7.78716V14.5017C5.37138 14.6639 5.41283 14.8238 5.49353 14.9645C5.57424 15.1053 5.69124 15.2218 5.83233 15.3019L12.7092 19.2691L10.3199 20.6512C10.307 20.658 10.2926 20.6616 10.2779 20.6616C10.2633 20.6616 10.2489 20.658 10.236 20.6512L4.52301 17.3556C1.9843 15.8841 1.11368 12.6367 2.57569 10.0926V10.1205ZM22.2048 14.6809L15.3054 10.6744L17.6892 9.29796C17.7022 9.29109 17.7166 9.2875 17.7312 9.2875C17.7459 9.2875 17.7603 9.29109 17.7732 9.29796L23.4862 12.5993C24.3597 13.1034 25.0718 13.8455 25.5394 14.739C26.007 15.6326 26.2107 16.6407 26.1268 17.6457C26.0429 18.6507 25.6748 19.6111 25.0656 20.4148C24.4563 21.2184 23.631 21.8322 22.686 22.1844V15.4698C22.6811 15.3078 22.6341 15.15 22.5498 15.0117C22.4654 14.8734 22.3465 14.7594 22.2048 14.6809ZM24.5828 11.1054L24.4149 11.0045L18.7691 7.71443C18.6283 7.6318 18.468 7.58824 18.3047 7.58824C18.1414 7.58824 17.9811 7.6318 17.8403 7.71443L10.9353 11.6985V8.93998C10.9339 8.92595 10.9362 8.91179 10.9421 8.89899C10.948 8.88619 10.9573 8.87522 10.9689 8.86724L16.6819 5.57144C17.5575 5.06704 18.5586 4.82236 19.5681 4.86603C20.5777 4.9097 21.5539 5.23991 22.3827 5.81804C23.2114 6.39617 23.8584 7.19833 24.248 8.13068C24.6376 9.06304 24.7537 10.0871 24.5827 11.083V11.1054H24.5828ZM9.63169 15.9958L7.2424 14.6193C7.23045 14.6121 7.22025 14.6023 7.2125 14.5907C7.20475 14.5791 7.19965 14.5659 7.19755 14.5521V7.96632C7.19888 6.95601 7.48779 5.96695 8.03051 5.11479C8.57323 4.26262 9.34733 3.58257 10.2623 3.15414C11.1773 2.7257 12.1953 2.5666 13.1974 2.69542C14.1994 2.82424 15.1441 3.23567 15.921 3.8816L15.7531 3.97676L10.1017 7.23887C9.96104 7.32137 9.84427 7.43903 9.76285 7.5803C9.68143 7.72157 9.63815 7.88158 9.63727 8.04463L9.63169 15.9959V15.9958ZM10.9298 13.1979L14.0073 11.4242L17.0904 13.1981V16.7455L14.0185 18.5194L10.9354 16.7455L10.9298 13.1979Z" fill="white"/>
  </g>
  <defs>
    <clipPath id="clip0_18320_122311">
      <rect width="28" height="28.4375" fill="white" transform="translate(0 0.78125)"/>
    </clipPath>
  </defs>
</svg>