<svg xmlns="http://www.w3.org/2000/svg" width="320" height="232" fill="none" viewBox="0 0 320 232"><g filter="url(#a)"><rect width="160" height="90" x="80" y="71" fill="#fff" rx="12"/><path fill="#AA99EC" d="M149.09 121v-7.63c-.504.686-1.358 1.232-2.45 1.428v-2.1c1.036-.126 2.338-.994 2.744-1.778h1.806V121zm7.2.14c-2.66 0-4.158-1.792-4.158-4.956 0-3.318 1.666-5.404 4.284-5.404 1.96 0 3.262 1.092 3.542 2.926h-2.142c-.098-.826-.644-1.274-1.414-1.274-1.33 0-1.988 1.078-2.03 3.388.518-.742 1.358-1.176 2.436-1.176 1.96 0 3.29 1.288 3.29 3.206 0 1.988-1.484 3.29-3.808 3.29m-.154-1.652c.952 0 1.68-.56 1.68-1.624s-.756-1.596-1.708-1.596c-.98 0-1.736.546-1.736 1.568 0 1.05.812 1.652 1.764 1.652m4.772-3.038v-2.31h2.31v2.31zm0 4.55v-2.31h2.31V121zm7.065.14c-2.184 0-3.388-1.274-3.598-3.136h2.142c.098.994.588 1.484 1.526 1.484 1.288 0 1.736-.924 1.778-3.304-.518.63-1.33.98-2.324.98-1.932 0-3.276-1.288-3.276-3.136 0-1.946 1.512-3.248 3.794-3.248 2.688 0 4.186 1.778 4.186 5.04 0 3.318-1.54 5.32-4.228 5.32m.238-5.6c1.036 0 1.568-.63 1.568-1.484 0-.896-.532-1.624-1.568-1.624s-1.61.686-1.61 1.568.588 1.54 1.61 1.54"/><path fill="#EBE4FF" d="M92.235 79A4.235 4.235 0 0 0 88 83.235V93.5a1.5 1.5 0 0 0 3 0v-9.707c0-.99.803-1.793 1.793-1.793h9.707a1.5 1.5 0 0 0 0-3zm135.53 74a4.235 4.235 0 0 0 4.235-4.235V138.5a1.5 1.5 0 0 0-3 0v9.707c0 .99-.803 1.793-1.793 1.793H217.5a1.5 1.5 0 0 0 0 3z"/></g><defs><filter id="a" width="200" height="130" x="60" y="63" color-interpolation-filters="sRGB" filterUnits="userSpaceOnUse"><feFlood flood-opacity="0" result="BackgroundImageFix"/><feColorMatrix in="SourceAlpha" result="hardAlpha" values="0 0 0 0 0 0 0 0 0 0 0 0 0 0 0 0 0 0 127 0"/><feOffset dy="12"/><feGaussianBlur stdDeviation="10"/><feComposite in2="hardAlpha" operator="out"/><feColorMatrix values="0 0 0 0 0 0 0 0 0 0 0 0 0 0 0 0 0 0 0.03 0"/><feBlend in2="BackgroundImageFix" result="effect1_dropShadow_10185_10888"/><feColorMatrix in="SourceAlpha" result="hardAlpha" values="0 0 0 0 0 0 0 0 0 0 0 0 0 0 0 0 0 0 127 0"/><feOffset dy="2"/><feGaussianBlur stdDeviation="3"/><feComposite in2="hardAlpha" operator="out"/><feColorMatrix values="0 0 0 0 0 0 0 0 0 0 0 0 0 0 0 0 0 0 0.05 0"/><feBlend in2="effect1_dropShadow_10185_10888" result="effect2_dropShadow_10185_10888"/><feBlend in="SourceGraphic" in2="effect2_dropShadow_10185_10888" result="shape"/></filter></defs></svg>