<svg xmlns="http://www.w3.org/2000/svg" width="320" height="232" fill="none" viewBox="0 0 320 232"><g filter="url(#a)"><rect width="160" height="90" x="80" y="71" fill="#fff" rx="12"/><path fill="#AA99EC" d="m145.68 121.104-7.168-3.376v-2l7.168-3.376v1.84l-4.64 2.144a8 8 0 0 1-.64.256 4 4 0 0 1-.48.128q.175.032.496.128.32.096.624.24l4.64 2.144zm4.569 1.056q-1.28 0-2.08-.912-.783-.912-.784-2.448v-2.384q0-1.552.784-2.464.8-.912 2.08-.912 1.185 0 1.872.752.688.737.688 2.016l-.592-.832h.464l-.064-2.192v-2.464h2V122h-1.952v-1.776h-.448l.576-.832q0 1.28-.688 2.032-.672.736-1.856.736m.752-1.728q.768 0 1.184-.464.432-.464.432-1.312v-2.112q0-.848-.432-1.312-.416-.464-1.184-.464t-1.2.416q-.416.416-.416 1.28v2.272q0 .848.416 1.28.432.416 1.2.416m5.418 1.568v-1.808h3.008v-5.184h-2.688V113.2h4.688v6.992h2.704V122zm3.872-10.272q-.608 0-.96-.304-.352-.32-.352-.848t.352-.832q.352-.32.96-.32t.96.32q.352.304.352.832t-.352.848q-.352.304-.96.304M167.693 122l-2.96-8.8h2.096l1.696 5.344q.16.48.288.976.128.48.16.832.064-.352.176-.832.113-.496.24-.96l1.68-5.36h2.112l-2.944 8.8zm6.634-.896v-1.84l4.64-2.144q.32-.144.624-.24.32-.113.496-.144a5 5 0 0 1-.496-.128 6 6 0 0 1-.624-.224l-4.64-2.16v-1.872l7.168 3.376v2z"/></g><defs><filter id="a" width="200" height="130" x="60" y="63" color-interpolation-filters="sRGB" filterUnits="userSpaceOnUse"><feFlood flood-opacity="0" result="BackgroundImageFix"/><feColorMatrix in="SourceAlpha" result="hardAlpha" values="0 0 0 0 0 0 0 0 0 0 0 0 0 0 0 0 0 0 127 0"/><feOffset dy="12"/><feGaussianBlur stdDeviation="10"/><feComposite in2="hardAlpha" operator="out"/><feColorMatrix values="0 0 0 0 0 0 0 0 0 0 0 0 0 0 0 0 0 0 0.03 0"/><feBlend in2="BackgroundImageFix" result="effect1_dropShadow_10185_10929"/><feColorMatrix in="SourceAlpha" result="hardAlpha" values="0 0 0 0 0 0 0 0 0 0 0 0 0 0 0 0 0 0 127 0"/><feOffset dy="2"/><feGaussianBlur stdDeviation="3"/><feComposite in2="hardAlpha" operator="out"/><feColorMatrix values="0 0 0 0 0 0 0 0 0 0 0 0 0 0 0 0 0 0 0.05 0"/><feBlend in2="effect1_dropShadow_10185_10929" result="effect2_dropShadow_10185_10929"/><feBlend in="SourceGraphic" in2="effect2_dropShadow_10185_10929" result="shape"/></filter></defs></svg>