<svg width="320" height="232" viewBox="0 0 320 232" fill="none" xmlns="https://www.w3.org/2000/svg">
<g filter="url(#filter0_dd_10185_11215)">
<rect x="80" y="71" width="160" height="90" rx="12" fill="white"/>
<rect x="88" y="79" width="144" height="74" rx="4" fill="#F4F0FE"/>
<path d="M101 116L111 116M101 116C101 116.7 102.994 118.008 103.5 118.5M101 116C101 115.3 102.994 113.991 103.5 113.5" stroke="#AA99EC" stroke-width="2" stroke-linecap="round" stroke-linejoin="round"/>
<path d="M115 123L115 109" stroke="#AA99EC" stroke-width="2" stroke-linecap="round" stroke-linejoin="round"/>
<path d="M219 116L209 116M219 116C219 115.3 217.006 113.992 216.5 113.5M219 116C219 116.7 217.006 118.009 216.5 118.5" stroke="#AA99EC" stroke-width="2" stroke-linecap="round" stroke-linejoin="round"/>
<path d="M205 109L205 123" stroke="#AA99EC" stroke-width="2" stroke-linecap="round" stroke-linejoin="round"/>
</g>
<defs>
<filter id="filter0_dd_10185_11215" x="60" y="63" width="200" height="130" filterUnits="userSpaceOnUse" color-interpolation-filters="sRGB">
<feFlood flood-opacity="0" result="BackgroundImageFix"/>
<feColorMatrix in="SourceAlpha" type="matrix" values="0 0 0 0 0 0 0 0 0 0 0 0 0 0 0 0 0 0 127 0" result="hardAlpha"/>
<feOffset dy="12"/>
<feGaussianBlur stdDeviation="10"/>
<feComposite in2="hardAlpha" operator="out"/>
<feColorMatrix type="matrix" values="0 0 0 0 0 0 0 0 0 0 0 0 0 0 0 0 0 0 0.03 0"/>
<feBlend mode="normal" in2="BackgroundImageFix" result="effect1_dropShadow_10185_11215"/>
<feColorMatrix in="SourceAlpha" type="matrix" values="0 0 0 0 0 0 0 0 0 0 0 0 0 0 0 0 0 0 127 0" result="hardAlpha"/>
<feOffset dy="2"/>
<feGaussianBlur stdDeviation="3"/>
<feComposite in2="hardAlpha" operator="out"/>
<feColorMatrix type="matrix" values="0 0 0 0 0 0 0 0 0 0 0 0 0 0 0 0 0 0 0.05 0"/>
<feBlend mode="normal" in2="effect1_dropShadow_10185_11215" result="effect2_dropShadow_10185_11215"/>
<feBlend mode="normal" in="SourceGraphic" in2="effect2_dropShadow_10185_11215" result="shape"/>
</filter>
</defs>
</svg>
