<svg xmlns="http://www.w3.org/2000/svg" width="320" height="232" fill="none" viewBox="0 0 320 232"><g filter="url(#a)"><rect width="160" height="90" x="80" y="71" fill="#fff" rx="12"/><rect width="144" height="74" x="88" y="79" fill="#F4F0FE" rx="4"/><path stroke="#AA99EC" stroke-linecap="round" stroke-linejoin="round" stroke-width="2" d="M101 116h10m-10 0c0 .7 1.994 2.008 2.5 2.5M101 116c0-.7 1.994-2.009 2.5-2.5M115 123v-14m104 7h-10m10 0c0-.7-1.994-2.008-2.5-2.5m2.5 2.5c0 .7-1.994 2.009-2.5 2.5M205 109v14"/></g><defs><filter id="a" width="200" height="130" x="60" y="63" color-interpolation-filters="sRGB" filterUnits="userSpaceOnUse"><feFlood flood-opacity="0" result="BackgroundImageFix"/><feColorMatrix in="SourceAlpha" result="hardAlpha" values="0 0 0 0 0 0 0 0 0 0 0 0 0 0 0 0 0 0 127 0"/><feOffset dy="12"/><feGaussianBlur stdDeviation="10"/><feComposite in2="hardAlpha" operator="out"/><feColorMatrix values="0 0 0 0 0 0 0 0 0 0 0 0 0 0 0 0 0 0 0.03 0"/><feBlend in2="BackgroundImageFix" result="effect1_dropShadow_10185_11215"/><feColorMatrix in="SourceAlpha" result="hardAlpha" values="0 0 0 0 0 0 0 0 0 0 0 0 0 0 0 0 0 0 127 0"/><feOffset dy="2"/><feGaussianBlur stdDeviation="3"/><feComposite in2="hardAlpha" operator="out"/><feColorMatrix values="0 0 0 0 0 0 0 0 0 0 0 0 0 0 0 0 0 0 0.05 0"/><feBlend in2="effect1_dropShadow_10185_11215" result="effect2_dropShadow_10185_11215"/><feBlend in="SourceGraphic" in2="effect2_dropShadow_10185_11215" result="shape"/></filter></defs></svg>