<svg width="229" height="56" viewBox="0 0 229 56" fill="none" xmlns="http://www.w3.org/2000/svg">
<path d="M198.026 20.2212L192.923 25.3242C192.158 26.0887 190.897 26.0887 190.113 25.3242L173.275 8.48601C172.511 7.7215 172.511 6.46007 173.275 5.67645L178.397 0.573379C179.162 -0.191126 180.423 -0.191126 181.207 0.573379L198.045 17.4116C198.81 18.1952 198.809 19.4375 198.026 20.2212Z" fill="#1C2024"/>
<path d="M228.128 50.3236L223.025 55.4266C222.261 56.1912 220.999 56.1912 220.216 55.4266L203.377 38.5884C202.613 37.8239 202.613 36.5625 203.377 35.7789L208.481 30.6758C209.245 29.9113 210.506 29.9113 211.29 30.6758L228.128 47.514C228.893 48.2976 228.893 49.54 228.128 50.3236Z" fill="#1C2024"/>
<path d="M192.923 30.6758L198.026 35.7789C198.79 36.5434 198.79 37.8048 198.026 38.5884L181.188 55.4266C180.423 56.1912 179.162 56.1912 178.378 55.4266L173.275 50.3236C172.511 49.5591 172.511 48.2976 173.275 47.514L190.113 30.6758C190.897 29.9113 192.139 29.9113 192.923 30.6758Z" fill="#1C2024"/>
<path d="M223.025 0.573379L228.128 5.67645C228.893 6.44096 228.893 7.70239 228.128 8.48601L211.29 25.3242C210.526 26.0887 209.264 26.0887 208.481 25.3242L203.377 20.2212C202.613 19.4567 202.613 18.1952 203.377 17.4116L220.216 0.573379C220.999 -0.191126 222.242 -0.191126 223.025 0.573379Z" fill="#1C2024"/>
<path d="M54.2608 16.972C43.5769 16.972 36.3905 23.3557 36.3905 32.8355C36.3905 42.3345 43.596 48.699 54.3181 48.699C63.1291 48.699 69.7803 44.4751 71.8062 37.671H63.1673C61.6765 40.6526 58.542 42.2772 54.3373 42.2772C49.1577 42.2772 45.469 39.5058 44.7045 35.0526L44.5707 34.2881H71.8635C72.1311 29.4335 70.7932 25.2669 67.9646 22.2089C64.8492 18.8451 59.9755 16.972 54.2608 16.972ZM63.2437 29.6437H44.8001L44.953 28.8601C45.6028 25.5727 49.4827 23.2792 54.3946 23.2792C59.0581 23.2792 62.4028 25.4198 63.0908 28.8601L63.2437 29.6437Z" fill="#1C2024"/>
<path d="M76.9474 47.839H84.86V7.37756H76.9474V47.839Z" fill="#1C2024"/>
<path d="M91.97 47.7816H99.8826V7.32019H91.97V47.7816Z" fill="#1C2024"/>
<path d="M122.55 16.972C111.866 16.972 104.68 23.3557 104.68 32.8355C104.68 42.3345 111.885 48.699 122.608 48.699C131.418 48.699 138.07 44.4751 140.096 37.671H131.457C129.966 40.6526 126.831 42.2772 122.627 42.2772C117.447 42.2772 113.758 39.5058 112.994 35.0526L112.86 34.2881H140.153C140.421 29.4335 139.083 25.2669 136.254 22.2089C133.139 18.8451 128.265 16.972 122.55 16.972ZM131.533 29.6437H113.089L113.242 28.8601C113.892 25.5727 117.772 23.2792 122.684 23.2792C127.348 23.2792 130.692 25.4198 131.38 28.8601L131.533 29.6437Z" fill="#1C2024"/>
<path d="M145.16 47.7816H153.207V32.4724C153.207 27.2738 156.494 23.7761 161.406 23.7761H161.769C162.018 23.7761 162.266 23.7761 162.515 23.7761H168.019V17.0676C167.274 17.0485 166.127 17.0676 165.324 17.0867C164.866 17.1058 164.483 17.1058 164.254 17.1058C160.317 17.1058 157.24 18.5775 154.851 21.5973L154.659 21.8458H153.169L152.557 17.9086H145.16V47.7816Z" fill="#1C2024"/>
<path d="M0 37.0595C1.52901 44.5898 7.60683 48.7182 17.1823 48.7182C26.7386 48.7182 32.3959 45.1823 32.3959 39.2765C32.3959 34.7086 29.0512 31.7844 22.3809 30.6376L12.6908 28.9366C10.0915 28.4779 9.02116 27.5987 9.02116 25.9168C9.02116 23.7379 11.3147 22.5721 15.6724 22.5721C20.0874 22.5721 22.744 24.3113 23.7952 27.8663H31.899C30.5611 20.9093 24.5597 16.7618 15.6915 16.7618C6.61297 16.7618 0.764505 20.4506 0.764505 26.1461C0.764505 31.6888 6.13515 33.7339 10.6266 34.4792L20.1638 36.1038C22.916 36.5434 24.1393 37.5946 24.1393 39.4868C24.1393 41.7803 21.8648 42.8888 17.1823 42.8888C12.0792 42.8888 9.19317 41.0158 8.12287 37.0212H0V37.0595Z" fill="#1C2024"/>
</svg>
