<?xml version="1.0" encoding="UTF-8" standalone="no"?>
<svg
   xmlns:dc="http://purl.org/dc/elements/1.1/"
   xmlns:cc="http://creativecommons.org/ns#"
   xmlns:rdf="http://www.w3.org/1999/02/22-rdf-syntax-ns#"
   xmlns:svg="http://www.w3.org/2000/svg"
   xmlns="http://www.w3.org/2000/svg"
   viewBox="0 0 117.33366 117.3335"
   height="117.3335"
   width="117.33366"
   xml:space="preserve"
   id="svg2"
   version="1.1"><metadata
     id="metadata8"><rdf:RDF><cc:Work
         rdf:about=""><dc:format>image/svg+xml</dc:format><dc:type
           rdf:resource="http://purl.org/dc/dcmitype/StillImage" /></cc:Work></rdf:RDF></metadata><defs
     id="defs6"><clipPath
       id="clipPath24"
       clipPathUnits="userSpaceOnUse"><path
         style="clip-rule:evenodd"
         id="path22"
         d="m 39.795204,56.224014 -8.019098,-8.019115 c -1.201365,-1.201367 -3.183621,-1.201367 -4.41502,0 L 0.901024,74.66497 c -1.201365,1.201363 -1.201365,3.183617 0,4.415017 l 8.049144,8.019111 c 1.201364,1.201363 3.183621,1.201363 4.415021,0 L 39.825268,60.63903 c 1.201366,-1.231399 1.201336,-3.183616 -0.03006,-4.415016 z" /></clipPath><clipPath
       id="clipPath42"
       clipPathUnits="userSpaceOnUse"><path
         style="clip-rule:evenodd"
         id="path40"
         d="M 87.099182,8.920181 79.080078,0.901077 c -1.201362,-1.20137 -3.183601,-1.20137 -4.415001,0 l -26.460098,26.46006 c -1.201366,1.201367 -1.201366,3.183617 0,4.415017 l 8.019134,8.019111 c 1.201367,1.201367 3.183602,1.201367 4.415001,0 l 26.460068,-26.46006 c 1.201363,-1.231399 1.201363,-3.183624 0,-4.415024 z" /></clipPath><clipPath
       id="clipPath60"
       clipPathUnits="userSpaceOnUse"><path
         style="clip-rule:evenodd"
         id="path58"
         d="m 31.77611,39.795265 8.019098,-8.019111 c 1.201366,-1.201363 1.201366,-3.183617 0,-4.415017 L 13.335144,0.901077 c -1.201364,-1.20137 -3.183603,-1.20137 -4.415003,0 L 0.901024,8.920181 c -1.201365,1.201363 -1.201365,3.183625 0,4.415024 l 26.460064,26.46006 c 1.231399,1.201367 3.183622,1.201367 4.415022,0 z" /></clipPath><clipPath
       id="clipPath78"
       clipPathUnits="userSpaceOnUse"><path
         style="clip-rule:evenodd"
         id="path76"
         d="m 79.080078,87.099098 8.019104,-8.019111 c 1.201363,-1.201371 1.201363,-3.183617 0,-4.415017 L 60.639114,48.204899 c -1.201362,-1.201367 -3.183601,-1.201367 -4.415001,0 l -8.019134,8.019115 c -1.201366,1.201363 -1.201366,3.183617 0,4.415016 l 26.460098,26.460068 c 1.2314,1.201363 3.183602,1.201363 4.415001,0 z" /></clipPath></defs><g
     transform="matrix(1.3333333,0,0,-1.3333333,0,117.3335)"
     id="g10"><g
       id="g12"><g
         id="g14"><g
           transform="translate(0,46.703247)"
           id="g16"><path
             id="path18"
             style="fill:#f9f9fb;fill-opacity:0.47999998;fill-rule:nonzero;stroke:none"
             d="M 39.795204,9.520765 31.776106,1.501652 c -1.201365,-1.201367 -3.183621,-1.201367 -4.41502,0 L 0.901024,27.96172 c -1.201365,1.201366 -1.201365,3.18362 0,4.41502 l 8.049144,8.019111 c 1.201364,1.201367 3.183621,1.201367 4.415021,0 l 26.460079,-26.46007 c 1.201366,-1.231397 1.201336,-3.183616 -0.03006,-4.415016 z" /></g></g><g
         clip-path="url(#clipPath24)"
         id="g20"><g
           transform="translate(0,46.703247)"
           id="g26"><path
             id="path28"
             style="fill:#6e56cf;fill-opacity:1;fill-rule:nonzero;stroke:none"
             d="M 39.795204,9.520765 39.44165,9.874319 v 0 z M 31.776106,1.501652 32.129662,1.148098 v 0 z m -4.41502,0 -0.353581,-0.353581 0.0044,-0.00431 0.349161,0.357891 z M 0.901024,27.96172 1.254577,28.315273 v 0 z m 0,4.41502 -0.352928,0.354248 -0.004963,-0.0051 0.357891,-0.349159 z m 8.049144,8.019111 0.352892,-0.354214 6.6e-4,6.6e-4 z m 4.415021,0 0.353579,0.353581 -0.0044,0.0043 -0.349161,-0.357891 z m 26.460079,-26.46007 0.357918,0.34919 -0.0044,0.0044 -0.353554,-0.353554 z M 39.44165,9.874319 38.773392,9.206059 39.480499,8.498955 40.148758,9.167213 Z M 37.436878,7.869541 36.100361,6.53302 36.807468,5.825916 38.143986,7.162434 Z M 34.763844,5.196503 33.427326,3.859982 34.134434,3.152878 35.470951,4.489395 Z M 32.090813,2.523464 31.422552,1.855206 32.129662,1.148098 32.79792,1.816357 Z M 31.422554,1.855206 C 31.173702,1.606354 30.885138,1.4193 30.575516,1.293602 l 0.376158,-0.926556 c 0.43011,0.174614 0.832044,0.435112 1.177988,0.781052 z M 28.566116,1.298592 C 28.255743,1.424896 27.9643,1.611687 27.710247,1.859543 L 27.011925,1.143761 c 0.34868,-0.340176 0.74992,-0.597508 1.177267,-0.771412 z m -0.851476,0.556614 -0.735003,0.735 -0.707105,-0.707107 0.735,-0.735001 z M 25.509634,4.060211 24.039631,5.530216 23.332523,4.823109 24.802526,3.353104 Z M 22.569628,7.000217 21.099625,8.470222 20.392517,7.763115 21.86252,6.29311 Z M 19.62962,9.940226 18.159616,11.410231 17.452509,10.703123 18.922514,9.23312 Z m -2.940007,2.940008 -1.470003,1.470003 -0.707106,-0.707106 1.470002,-1.470003 z m -2.940007,2.940008 -1.470002,1.470003 -0.707108,-0.707107 1.470004,-1.470004 z M 10.8096,18.76025 9.339596,20.230253 8.632488,19.523148 10.102492,18.053143 Z M 7.869593,21.700256 6.399589,23.170261 5.692482,22.463154 7.162486,20.993151 Z m -2.940008,2.94001 -1.470003,1.470002 -0.707107,-0.707106 1.470003,-1.470003 z m -2.940007,2.940007 -0.735001,0.735 -0.707106,-0.707107 0.735,-0.735001 z m -0.735001,0.735 c -0.248851,0.248852 -0.435905,0.537415 -0.561604,0.847039 l -0.926555,-0.37616 c 0.174613,-0.430109 0.435111,-0.832043 0.781053,-1.177986 z m -0.556613,2.856434 c 0.126303,0.310373 0.313094,0.601814 0.560951,0.855869 L 0.543133,32.725899 C 0.202956,32.37722 -0.054375,31.975979 -0.228279,31.548634 Z m 0.555952,0.850819 0.670762,0.668258 -0.705784,0.708428 -0.670762,-0.668263 z M 3.266202,34.027302 4.607726,35.363823 3.901942,36.07225 2.560418,34.735729 Z M 5.949249,36.70034 7.290773,38.036858 6.58499,38.745285 5.243465,37.408768 Z m 2.683049,2.673039 0.670762,0.668258 -0.705784,0.708428 -0.670762,-0.668259 z m 0.671422,0.668918 c 0.248852,0.248852 0.537416,0.435906 0.847038,0.561604 L 9.7746,41.530457 C 9.34449,41.355843 8.942555,41.095345 8.596614,40.749405 Z m 2.856437,0.556614 c 0.310374,-0.126304 0.601816,-0.313095 0.855869,-0.560951 l 0.698324,0.715782 c -0.348682,0.340176 -0.74992,0.597508 -1.177267,0.771412 z m 0.851478,-0.556614 0.735002,-0.735 0.707107,0.707107 -0.735003,0.735001 z m 2.205006,-2.205005 1.470005,-1.470005 0.707107,0.707107 -1.470005,1.470005 z m 2.94001,-2.940007 1.470005,-1.470005 0.707105,0.707108 -1.470003,1.470005 z m 2.940008,-2.94001 1.470005,-1.470001 0.707105,0.707108 -1.470003,1.470001 z m 2.940008,-2.940006 1.470005,-1.470003 0.707106,0.707108 -1.470004,1.470003 z m 2.94001,-2.940006 1.470003,-1.470003 0.707106,0.707105 -1.470003,1.470005 z m 2.940008,-2.940008 1.470003,-1.470003 0.707108,0.707107 -1.470005,1.470003 z m 2.940008,-2.940007 1.470005,-1.470003 0.707104,0.707106 -1.470005,1.470005 z m 2.940007,-2.940006 1.470005,-1.470003 0.707107,0.707108 -1.470005,1.470001 z m 2.94001,-2.940008 0.735004,-0.735004 0.707108,0.707105 -0.735005,0.735007 z m 0.730667,-0.730614 c 0.249801,-0.256048 0.43705,-0.547704 0.562626,-0.856998 l 0.926544,0.376188 c -0.173786,0.428036 -0.432175,0.829394 -0.773388,1.179135 z m 0.549026,-2.862335 C 39.887028,10.417969 39.696102,10.128769 39.44165,9.874319 l 0.707108,-0.707106 c 0.346363,0.346362 0.609676,0.743771 0.788853,1.167998 z m -0.221199,-1.20352 -0.707107,0.707108 v 0 z M 31.776106,1.501652 32.483215,0.794544 v 0 z m -4.41502,0 -0.707161,-0.707161 0.0088,-0.008621 0.698324,0.715782 z M 0.901024,27.96172 1.608131,28.668827 v 0 z m 0,4.41502 -0.705784,0.708427 -0.005035,-0.005 -0.004963,-0.0051 0.715782,-0.698322 z m 8.049144,8.019111 0.705784,-0.708427 0.00132,0.0013 -0.707106,0.707107 z m 4.415021,0 0.70716,0.707161 -0.0088,0.0086 -0.698323,-0.715782 z m 26.460079,-26.46007 0.715835,0.698378 -0.0087,0.0087 -0.707107,-0.707108 z M 39.088097,10.227873 38.419838,9.559612 39.834053,8.145401 40.502312,8.81366 Z M 37.083324,8.223095 35.746807,6.886574 37.161022,5.472363 38.49754,6.80888 Z M 34.41029,5.550056 33.073772,4.213535 34.487988,2.799324 35.824505,4.135845 Z M 31.737257,2.877018 31.068998,2.208759 32.483215,0.794544 33.151474,1.462807 Z M 31.069,2.208759 C 30.868694,2.008453 30.636816,1.85812 30.387438,1.756878 l 0.752315,-1.853111 c 0.490353,0.19907 0.948973,0.496292 1.343462,0.890777 z M 28.75458,1.761715 C 28.502693,1.864216 28.266148,2.015736 28.05941,2.217434 L 26.662762,0.78587 c 0.395996,-0.386338 0.852132,-0.678936 1.337967,-0.876645 z m -0.686387,0.447044 -0.735002,0.735001 -1.414213,-1.414211 0.735,-0.735005 z M 25.863188,4.413765 24.393185,5.883766 22.978971,4.469555 24.448975,2.99955 Z M 22.923182,7.353771 21.453176,8.823776 20.038963,7.409561 21.508966,5.93956 Z m -2.940009,2.940008 -1.470003,1.470005 -1.414215,-1.414213 1.470005,-1.470005 z m -2.940006,2.940009 -1.470003,1.470003 -1.414214,-1.414214 1.470003,-1.470003 z m -2.940007,2.940008 -1.470003,1.470003 -1.414213,-1.414215 1.470002,-1.470001 z M 11.163153,19.113802 9.693149,20.583807 8.278935,19.169594 9.74894,17.699589 Z M 8.223146,22.05381 6.753142,23.523815 5.338928,22.109602 6.808932,20.639597 Z M 5.283138,24.993818 3.813135,26.463821 2.398922,25.049608 3.868924,23.579605 Z m -2.940007,2.940008 -0.735,0.735001 -1.414214,-1.414213 0.735001,-0.735001 z m -0.735,0.735001 c -0.200306,0.200306 -0.350639,0.432184 -0.45188,0.681562 L -0.69686,28.598072 c 0.199071,-0.490353 0.496291,-0.948971 0.890777,-1.343458 z m -0.447045,2.314417 c 0.102502,0.251886 0.254023,0.488432 0.45572,0.695169 L 0.185242,33.075062 C -0.201096,32.679066 -0.493696,32.222931 -0.691401,31.737095 Z M 1.606808,31.668312 2.27757,32.336571 0.866002,33.753426 0.19524,33.085167 Z M 3.619094,33.673088 4.960618,35.009609 3.54905,36.42646 2.207526,35.089943 Z m 2.683048,2.673039 1.341523,1.336521 -1.411567,1.416851 -1.341524,-1.336518 z m 2.683047,2.673038 0.670762,0.668259 -1.411568,1.416855 -0.670762,-0.668259 z m 0.672085,0.669579 c 0.200306,0.200306 0.432184,0.350639 0.681563,0.451881 L 9.586521,41.993736 C 9.096168,41.794662 8.637547,41.497444 8.24306,41.102959 Z m 2.31442,0.447044 c 0.251887,-0.102501 0.488432,-0.254021 0.69517,-0.455719 l 1.396648,1.431564 c -0.395996,0.386338 -0.852133,0.678936 -1.337966,0.876644 z m 0.686388,-0.447044 0.735002,-0.735001 1.414213,1.414211 -0.735002,0.735005 z m 2.205007,-2.205006 1.470003,-1.470005 1.414213,1.414215 -1.470003,1.470005 z m 2.940008,-2.940006 1.470005,-1.470005 1.414213,1.414215 -1.470005,1.470001 z m 2.94001,-2.940008 1.470003,-1.470004 1.414213,1.414215 -1.470003,1.470002 z m 2.940006,-2.940009 1.470005,-1.470001 1.414213,1.414211 -1.470005,1.470005 z m 2.94001,-2.940006 1.470003,-1.470003 1.414213,1.414213 -1.470003,1.470005 z m 2.940008,-2.940008 1.470003,-1.470003 1.414216,1.414215 -1.470005,1.470003 z m 2.940008,-2.940004 1.470006,-1.470005 1.414211,1.414213 -1.470005,1.470005 z m 2.940007,-2.940009 1.470005,-1.470003 1.414215,1.414213 -1.470005,1.470004 z m 2.94001,-2.940008 0.735004,-0.735004 1.414215,1.414213 -0.735004,0.735006 z m 0.72633,-0.726221 c 0.204097,-0.209202 0.355774,-0.446008 0.457244,-0.69593 l 1.853089,0.752374 c -0.197895,0.487408 -0.491852,0.943615 -0.878769,1.340203 z m 0.446315,-2.318638 c -0.104477,-0.24736 -0.259208,-0.482454 -0.467704,-0.690948 L 40.502312,8.81366 c 0.392318,0.392315 0.691829,0.843832 0.8959,1.327015 z" /></g></g></g><g
       id="g30"><g
         id="g32"><g
           transform="translate(47.303955,-0.600586)"
           id="g34"><path
             id="path36"
             style="fill:#f9f9fb;fill-opacity:0.47999998;fill-rule:nonzero;stroke:none"
             d="M 39.795223,9.520767 31.776125,1.501659 c -1.201365,-1.201362 -3.183603,-1.201362 -4.415003,0 L 0.901024,27.961723 c -1.201365,1.201367 -1.201365,3.183617 0,4.415017 l 8.019134,8.019111 c 1.201366,1.201367 3.183604,1.201367 4.415003,0 L 39.795223,13.935787 c 1.201367,-1.231399 1.201367,-3.18362 0,-4.41502 z" /></g></g><g
         clip-path="url(#clipPath42)"
         id="g38"><g
           transform="translate(47.303955,-0.600586)"
           id="g44"><path
             id="path46"
             style="fill:#6e56cf;fill-opacity:1;fill-rule:nonzero;stroke:none"
             d="m 39.795223,9.520767 0.353581,-0.35358 0.0043,0.00442 -0.357891,0.349163 z M 31.776125,1.501659 32.129677,1.148106 v 0 z m -4.415003,0 -0.35358,-0.35358 0.0044,-0.00431 0.349161,0.357891 z M 0.901024,27.961723 0.547471,27.60817 v 0 z m 0,4.415017 -0.35358,0.35358 -0.004311,-0.0044 0.357891,-0.349163 z m 8.019134,8.019111 0.353554,-0.353554 v 0 z m 4.415003,0 0.353581,0.353581 -0.0044,0.0043 -0.349162,-0.357891 z m 26.460062,-26.460064 0.357918,0.349188 -0.0044,0.0044 -0.353554,-0.353554 z M 39.441669,9.874321 38.773411,9.206062 39.480518,8.498955 40.148777,9.167213 Z M 37.436893,7.869545 36.10038,6.533024 36.807487,5.82592 38.144001,7.162437 Z M 34.763863,5.196507 33.427345,3.859989 34.134453,3.152882 35.47097,4.489403 Z M 32.090828,2.523472 31.422571,1.855213 32.129677,1.148106 32.797935,1.816364 Z M 31.422571,1.855213 C 31.173721,1.606361 30.885159,1.419308 30.575539,1.29361 l 0.376159,-0.926556 c 0.430107,0.174614 0.832039,0.435112 1.177979,0.781052 z M 28.566151,1.298599 C 28.255779,1.424904 27.964338,1.611694 27.710285,1.85955 L 27.011961,1.143768 c 0.34868,-0.340175 0.749918,-0.597507 1.177261,-0.771412 z M 27.714676,1.855213 26.979673,2.590214 26.272566,1.88311 27.00757,1.148106 Z M 25.509666,4.060219 24.039661,5.530224 23.332556,4.823116 24.802561,3.353111 Z M 22.569656,7.000225 21.099651,8.47023 20.392544,7.763123 21.862551,6.293118 Z m -2.94001,2.940008 -1.470007,1.470003 -0.707105,-0.707107 1.470005,-1.470001 z m -2.940012,2.940008 -1.470006,1.470004 -0.707105,-0.707108 1.470005,-1.470003 z m -2.940011,2.940007 -1.470006,1.470005 -0.707106,-0.707108 1.470006,-1.470005 z m -2.940011,2.940006 -1.470004,1.470003 -0.707106,-0.707108 1.470005,-1.470001 z M 7.869603,21.70026 6.399599,23.170263 5.692492,22.463156 7.162497,20.993153 Z M 4.929594,24.640266 3.459588,26.11027 2.752482,25.403164 4.222488,23.933159 Z M 1.989583,27.580273 1.254577,28.315277 0.547471,27.60817 1.282477,26.873165 Z m -0.735006,0.735004 c -0.248851,0.248852 -0.435905,0.537415 -0.561604,0.847038 l -0.926555,-0.376159 c 0.174613,-0.430109 0.435111,-0.832043 0.781053,-1.177986 z m -0.556613,2.856434 c 0.126304,0.310371 0.313094,0.601814 0.560951,0.855869 L 0.543133,32.725903 C 0.202956,32.37722 -0.054374,31.975983 -0.228279,31.548637 Z m 0.556613,0.851475 0.668261,0.668258 -0.707106,0.707108 -0.668261,-0.668259 z M 3.259361,34.027962 4.595883,35.364483 3.888777,36.07159 2.552255,34.735073 Z M 5.932405,36.701 7.268928,38.037521 6.561822,38.744629 5.2253,37.408108 Z m 2.673046,2.673039 0.668261,0.668258 -0.707106,0.707108 -0.668261,-0.668259 z m 0.668261,0.668258 c 0.248851,0.248852 0.537414,0.435906 0.847034,0.561604 l -0.37616,0.926556 C 9.314479,41.355843 8.912546,41.095345 8.566606,40.749405 Z m 2.856422,0.556614 c 0.310371,-0.126304 0.601812,-0.313095 0.855865,-0.560951 l 0.698324,0.715782 c -0.34868,0.340176 -0.749917,0.597508 -1.177262,0.771412 z m 0.851474,-0.556614 0.735002,-0.735 0.707107,0.707107 -0.735002,0.735001 z m 2.205005,-2.205005 1.470003,-1.470005 0.707108,0.707107 -1.470004,1.470005 z m 2.940006,-2.940007 1.470005,-1.470005 0.707106,0.707108 -1.470003,1.470005 z m 2.940009,-2.940006 1.470003,-1.470005 0.707107,0.707108 -1.470005,1.470001 z m 2.940006,-2.940008 1.470005,-1.470005 0.707105,0.707108 -1.470003,1.470003 z m 2.940008,-2.940008 1.470003,-1.470003 0.707108,0.707105 -1.470004,1.470004 z m 2.940008,-2.940008 1.470003,-1.470003 0.707106,0.707105 -1.470003,1.470005 z m 2.940006,-2.940008 1.470005,-1.470004 0.707104,0.707108 -1.470001,1.470003 z m 2.940007,-2.940007 1.470005,-1.470005 0.707107,0.707108 -1.470005,1.470003 z m 2.94001,-2.940008 0.734996,-0.734999 0.707108,0.707108 -0.734997,0.734997 z m 0.730659,-0.730606 c 0.249172,-0.255403 0.436245,-0.546379 0.56234,-0.85519 l 0.925793,0.378025 c -0.174141,0.426483 -0.431969,0.826597 -0.772351,1.175487 z m 0.56234,-2.861507 c -0.126095,-0.308812 -0.313168,-0.599787 -0.56234,-0.855191 l 0.715782,-0.698324 c 0.340382,0.348892 0.59821,0.749006 0.772354,1.17549 z m -0.204449,-1.204352 0.707161,-0.707161 0.0086,0.00883 -0.715782,0.698326 z M 31.776125,1.501659 32.483231,0.794552 v 4e-6 z m -4.415003,0 -0.707159,-0.707161 0.0088,-0.008621 0.698324,0.715782 z M 0.901024,27.961723 0.193917,27.254618 l 1e-6,-2e-6 z m 0,4.415017 -0.70716,0.70716 -0.008622,-0.0088 0.715782,-0.698326 z m 8.019134,8.019111 0.707107,-0.707107 h 1e-6 z m 4.415003,0 0.707161,0.707161 -0.0088,0.0086 -0.698324,-0.715782 z m 26.460062,-26.460064 0.715836,0.698378 -0.0087,0.0087 -0.707108,-0.707108 z M 39.088116,10.227873 38.419857,9.559614 39.834072,8.145401 40.502331,8.81366 Z M 37.083344,8.223095 35.746826,6.886578 37.161041,5.472366 38.497555,6.808884 Z M 34.410309,5.55006 33.073792,4.213543 34.488007,2.799332 35.824524,4.135849 Z M 31.737276,2.877026 31.069017,2.208767 32.483231,0.794556 33.151489,1.462814 Z M 31.069017,2.208767 C 30.868711,2.008461 30.636835,1.858128 30.387459,1.756886 l 0.752319,-1.853108 c 0.490351,0.19907 0.948967,0.496292 1.343453,0.890774 z M 28.754614,1.761723 c -0.251885,0.1025 -0.488428,0.254024 -0.695168,0.455719 L 26.662798,0.785877 c 0.395996,-0.386333 0.852129,-0.678936 1.337961,-0.87664 z M 28.06823,2.208767 27.333225,2.943768 25.919014,1.529556 26.654016,0.794552 Z M 25.86322,4.413773 24.393215,5.883778 22.979002,4.469563 24.449007,2.999557 Z M 22.92321,7.353779 21.453205,8.823784 20.038992,7.409569 21.508997,5.939564 Z m -2.940012,2.940008 -1.470005,1.470003 -1.414213,-1.414215 1.470007,-1.470001 z m -2.94001,2.940008 -1.470006,1.470003 -1.414213,-1.414215 1.470006,-1.470003 z m -2.940012,2.940006 -1.470006,1.470005 -1.414212,-1.414215 1.470006,-1.470005 z m -2.94001,2.940007 -1.470005,1.470003 -1.414212,-1.414215 1.470004,-1.470002 z M 8.223157,22.053814 6.753152,23.523817 5.338939,22.109602 6.808944,20.639599 Z M 5.283147,24.993818 3.813141,26.463823 2.398928,25.049608 3.868935,23.579605 Z M 2.343137,27.933826 1.60813,28.668831 0.193918,27.254616 0.928924,26.519611 Z m -0.735006,0.735005 c -0.200306,0.200306 -0.350639,0.432184 -0.45188,0.681562 L -0.69686,28.598076 c 0.199071,-0.490353 0.496291,-0.948973 0.890777,-1.343458 z m -0.447045,2.314415 c 0.102502,0.251888 0.254023,0.48843 0.45572,0.695171 L 0.185242,33.075066 C -0.201095,32.67907 -0.493695,32.222931 -0.691401,31.737099 Z m 0.447044,0.686386 0.668261,0.668259 -1.414212,1.414215 -0.668261,-0.668259 z m 2.004783,2.004776 1.336523,1.336521 -1.414211,1.414215 -1.336523,-1.336517 z M 6.285958,36.347446 7.622481,37.683964 6.20827,39.098183 4.871747,37.761662 Z M 8.959003,39.020485 9.627265,39.688744 8.213053,41.102959 7.544792,40.4347 Z m 0.668263,0.668259 c 0.200306,0.200306 0.432183,0.350639 0.681559,0.451881 L 9.556506,41.993732 C 9.066155,41.794662 8.607537,41.497444 8.213052,41.102959 Z m 2.314403,0.447044 c 0.251885,-0.102501 0.48843,-0.254021 0.695169,-0.455719 l 1.396647,1.431564 c -0.395995,0.386338 -0.852129,0.678936 -1.33796,0.876641 z m 0.686386,-0.447044 0.735001,-0.735001 1.414214,1.414215 -0.735002,0.735001 z m 2.205004,-2.205006 1.470003,-1.470001 1.414216,1.414211 -1.470006,1.470005 z m 2.940008,-2.940006 1.470004,-1.470002 1.414213,1.414212 -1.470003,1.470005 z m 2.940007,-2.940007 1.470003,-1.470005 1.414215,1.414215 -1.470005,1.470002 z m 2.940006,-2.940008 1.470005,-1.470003 1.414213,1.414211 -1.470003,1.470005 z m 2.94001,-2.940008 1.470001,-1.470003 1.414213,1.414213 -1.470001,1.470003 z m 2.940006,-2.940008 1.470003,-1.470003 1.414214,1.414213 -1.470004,1.470005 z m 2.940007,-2.940008 1.470005,-1.470001 1.414211,1.414213 -1.470001,1.470001 z m 2.94001,-2.940006 1.470001,-1.470006 1.414215,1.414216 -1.470005,1.470003 z m 2.940006,-2.940009 0.734997,-0.734998 1.414215,1.414215 -0.734997,0.734997 z m 0.726322,-0.726215 c 0.203571,-0.208658 0.355263,-0.445065 0.457333,-0.69504 l 1.851589,0.75605 c -0.198166,0.485318 -0.491371,0.940003 -0.877358,1.335638 z m 0.457333,-2.323332 c -0.10207,-0.249975 -0.253762,-0.486381 -0.457333,-0.69504 l 1.431564,-1.39665 c 0.385987,0.395638 0.679192,0.850321 0.877358,1.33564 z" /></g></g></g><g
       id="g48"><g
         id="g50"><g
           transform="translate(0,-0.600586)"
           id="g52"><path
             id="path54"
             style="fill:#f9f9fb;fill-opacity:0.47999998;fill-rule:nonzero;stroke:none"
             d="m 31.77611,40.395851 8.019098,-8.019111 c 1.201366,-1.201365 1.201366,-3.183617 0,-4.415017 L 13.335144,1.501659 c -1.201364,-1.201362 -3.183603,-1.201362 -4.415003,0 L 0.901024,9.520767 c -1.201365,1.201365 -1.201365,3.183621 0,4.41502 l 26.460064,26.460064 c 1.231399,1.201367 3.183622,1.201367 4.415022,0 z" /></g></g><g
         clip-path="url(#clipPath60)"
         id="g56"><g
           transform="translate(0,-0.600586)"
           id="g62"><path
             id="path64"
             style="fill:#6e56cf;fill-opacity:1;fill-rule:nonzero;stroke:none"
             d="m 31.77611,40.395851 0.353582,0.353581 -0.0044,0.0043 -0.349161,-0.357891 z m 8.019098,-8.019111 -0.353554,-0.353554 v 0 z m 0,-4.415017 0.35358,-0.35358 0.0043,0.0044 -0.357891,0.349161 z M 13.335144,1.501659 13.688698,1.148106 v 0 z m -4.415003,0 -0.353579,-0.35358 0.00442,-0.00431 0.349162,0.357891 z M 0.901024,9.520767 0.547471,9.167213 v 0 z m 0,4.41502 -0.35358,0.353581 -0.004311,-0.0044 0.357891,-0.349161 z m 26.460064,26.460064 -0.349188,0.357918 -0.0044,-0.0044 0.353552,-0.353554 z m 4.764183,0.357891 c -0.34889,0.340382 -0.749006,0.59821 -1.175488,0.772351 L 30.571758,40.6003 c 0.308811,-0.126095 0.599787,-0.313168 0.855191,-0.56234 z m -3.937857,0.772354 c -0.426481,-0.174144 -0.826595,-0.431972 -1.175487,-0.772354 l 0.698324,-0.715782 c 0.255403,0.249172 0.546379,0.436245 0.85519,0.56234 z m -1.179878,-0.776691 -0.735003,-0.735001 0.707108,-0.707107 0.735001,0.735 z m -2.205006,-2.205006 -1.470005,-1.470005 0.707108,-0.707107 1.470003,1.470005 z m -2.940008,-2.940006 -1.470003,-1.470005 0.707108,-0.707108 1.470003,1.470005 z m -2.940006,-2.94001 -1.470005,-1.470001 0.707107,-0.707108 1.470004,1.470005 z m -2.940008,-2.940006 -1.470004,-1.470003 0.707106,-0.707108 1.470005,1.470005 z m -2.940008,-2.940008 -1.470004,-1.470004 0.707107,-0.707105 1.470003,1.470003 z m -2.940008,-2.940007 -1.470004,-1.470005 0.707107,-0.707105 1.470004,1.470003 z M 7.162484,20.904354 5.692481,19.434351 6.399588,18.727243 7.86959,20.197247 Z M 4.222476,17.964346 2.752472,16.494343 3.459579,15.787235 4.929584,17.25724 Z M 1.282468,15.024338 0.547471,14.289341 1.254577,13.582233 1.989575,14.317232 Z m -0.739335,-0.73939 c -0.340177,-0.34868 -0.597508,-0.74992 -0.771413,-1.177267 l 0.926244,-0.376924 c 0.126303,0.310373 0.313094,0.601816 0.560951,0.855869 z M -0.233582,10.3452 C -0.058969,9.915091 0.201529,9.513155 0.547471,9.167213 l 0.707106,0.707108 c -0.248851,0.24885 -0.435905,0.537415 -0.561604,0.847036 z M 0.547471,9.167213 1.215731,8.498955 1.922837,9.206062 1.254577,9.874321 Z M 2.55225,7.162437 3.88877,5.82592 4.595876,6.533028 3.259356,7.869545 Z M 5.22529,4.489399 6.561809,3.152882 7.268915,3.859989 5.932396,5.196507 Z M 7.898328,1.816364 8.566588,1.148106 9.273695,1.855213 8.605434,2.523472 Z M 8.570979,1.143768 C 8.919661,0.803593 9.320897,0.546261 9.748241,0.372356 L 10.12517,1.298599 C 9.814798,1.424904 9.523356,1.611694 9.269303,1.85955 Z m 3.939738,-0.776714 c 0.430108,0.174614 0.83204,0.435112 1.177981,0.781052 L 12.981591,1.855213 C 12.732739,1.606361 12.444178,1.419308 12.134557,1.29361 Z m 1.177981,0.781052 0.735001,0.735004 -0.707106,0.707104 -0.735002,-0.735001 z m 2.205005,2.205005 1.470004,1.470005 -0.707106,0.707108 -1.470005,-1.470005 z M 18.83371,6.293118 20.303715,7.763123 19.596607,8.47023 18.126604,7.000225 Z m 2.940008,2.94001 1.470003,1.470003 -0.707106,0.707105 -1.470005,-1.470003 z m 2.940008,2.940006 1.470003,1.470005 -0.707105,0.707106 -1.470006,-1.470004 z m 2.940008,2.940008 1.470003,1.470003 -0.707107,0.707108 -1.470003,-1.470003 z m 2.940006,2.940008 1.470004,1.470003 -0.707106,0.707108 -1.470003,-1.470005 z m 2.940009,2.940008 1.470005,1.470003 -0.707108,0.707106 -1.470005,-1.470003 z m 2.940006,2.940007 1.470005,1.470003 -0.707108,0.707107 -1.470001,-1.470003 z m 2.94001,2.940008 0.734997,0.734997 -0.707108,0.707107 -0.734997,-0.734997 z m 0.739334,0.739389 c 0.34018,0.348681 0.597508,0.74992 0.771412,1.177267 l -0.926243,0.376927 c -0.126301,-0.310376 -0.313095,-0.601817 -0.560951,-0.85587 z m 0.776714,3.939747 c -0.17461,0.430109 -0.435108,0.832045 -0.781051,1.177984 l -0.707108,-0.707107 c 0.248852,-0.24885 0.435906,-0.537415 0.561608,-0.847035 z m -0.781051,1.177984 -0.668259,0.668259 -0.707107,-0.707108 0.668258,-0.668258 z m -2.004772,2.004776 -1.336518,1.336521 -0.707107,-0.707107 1.336517,-1.336517 z M 35.470955,37.408108 34.134438,38.744625 33.42733,38.037521 34.763847,36.701 Z m -2.673035,2.673038 -0.668255,0.668259 -0.707109,-0.707108 0.66826,-0.668258 z m -1.02181,0.314705 0.707163,0.707161 -0.0088,0.0086 -0.698324,-0.715782 z M 39.795208,32.37674 39.0881,31.669634 v -2e-6 z m 0,-4.415017 0.707161,-0.707161 0.0086,0.0088 -0.715782,0.698322 z M 13.335144,1.501659 14.042252,0.794552 v 0 z m -4.415003,0 -0.70716,-0.707161 0.00884,-0.008621 0.698323,0.715782 z M 0.901024,9.520767 0.193917,8.81366 h 1e-6 z m 0,4.41502 -0.707161,0.707161 -0.008621,-0.0088 0.715782,-0.698324 z m 26.460064,26.460064 -0.698376,0.715836 -0.0087,-0.0087 0.707106,-0.707108 z m 5.113346,0.715782 c -0.395638,0.385987 -0.850321,0.679192 -1.335638,0.877358 l -0.75605,-1.851589 c 0.249975,-0.10207 0.486381,-0.253762 0.695039,-0.457333 z m -4.476032,0.877358 C 27.513084,41.790825 27.058401,41.49762 26.662766,41.111633 l 1.396646,-1.431564 c 0.208658,0.203571 0.445066,0.355263 0.695042,0.457333 z m -1.34442,-0.886032 -0.735002,-0.735001 1.414213,-1.414215 0.735002,0.735001 z m -2.205005,-2.205006 -1.470004,-1.470005 1.414214,-1.414211 1.470003,1.470001 z m -2.940009,-2.940006 -1.470003,-1.470005 1.414213,-1.414212 1.470005,1.470002 z m -2.940006,-2.94001 -1.470005,-1.470002 1.414215,-1.414215 1.470003,1.470005 z m -2.940008,-2.940007 -1.470004,-1.470005 1.414214,-1.414211 1.470003,1.470003 z m -2.940008,-2.940008 -1.470003,-1.470003 1.414214,-1.414213 1.470002,1.470003 z M 9.748939,24.197916 8.278934,22.727911 9.693148,21.313698 11.163153,22.783701 Z M 6.80893,21.257906 5.338928,19.787905 6.753141,18.373692 8.223144,19.843693 Z M 3.868923,18.3179 2.398919,16.847897 3.813133,15.433681 5.283137,16.903687 Z M 0.928915,15.377892 0.193917,14.642895 1.608131,13.22868 2.343128,13.963678 Z M 0.185242,14.634111 c -0.386338,-0.395996 -0.678938,-0.852132 -0.876643,-1.337967 l 1.852487,-0.75385 c 0.102503,0.251886 0.254023,0.48843 0.45572,0.695169 z M -0.69686,10.15712 C -0.497789,9.666767 -0.200569,9.208145 0.193917,8.81366 l 1.414214,1.414213 c -0.200306,0.200306 -0.350639,0.432184 -0.45188,0.681564 z M 0.193918,8.81366 0.862177,8.145401 2.27639,9.559616 1.60813,10.227875 Z M 2.198697,6.808884 3.535217,5.472366 4.94943,6.886578 3.61291,8.223099 Z M 4.871737,4.135845 6.208256,2.799328 7.622468,4.213543 6.285949,5.55006 Z M 7.544775,1.462811 8.213035,0.794552 9.627248,2.208767 8.958987,2.877026 Z M 8.221818,0.785877 c 0.395994,-0.386333 0.852128,-0.678936 1.33796,-0.87664 l 0.753855,1.852486 c -0.251884,0.1025 -0.488428,0.254024 -0.695168,0.455719 z m 4.476979,-0.882099 c 0.490351,0.19907 0.948969,0.496292 1.343455,0.890774 L 12.628037,2.208767 C 12.427732,2.008461 12.195854,1.858128 11.946477,1.756886 Z m 1.343455,0.890774 0.735001,0.735004 -1.414214,1.414212 -0.735002,-0.735001 z m 2.205005,2.205005 1.470003,1.470006 -1.414213,1.414215 -1.470004,-1.470005 z m 2.940006,2.940011 1.470004,1.470001 -1.414214,1.414215 -1.470003,-1.470005 z m 2.940009,2.940006 1.470003,1.470003 -1.414213,1.414213 -1.470005,-1.470003 z m 2.940006,2.940006 1.470005,1.470005 -1.414213,1.414213 -1.470005,-1.470005 z m 2.94001,2.940008 1.470001,1.470003 -1.414213,1.414214 -1.470003,-1.470002 z m 2.940006,2.940008 1.470003,1.470004 -1.414213,1.414215 -1.470003,-1.470005 z m 2.940008,2.940009 1.470002,1.470003 -1.414212,1.414213 -1.470005,-1.470003 z m 2.940007,2.940006 1.470005,1.470005 -1.414215,1.414213 -1.470002,-1.470003 z m 2.94001,2.940008 0.734997,0.734999 -1.414216,1.414213 -0.734996,-0.734997 z m 0.743671,0.743782 c 0.386337,0.395996 0.67894,0.852131 0.876644,1.337963 l -1.852485,0.753853 c -0.102505,-0.251884 -0.254025,-0.48843 -0.455723,-0.695169 z m 0.882103,4.476986 c -0.19907,0.490353 -0.496292,0.948975 -0.890777,1.34346 L 39.0881,31.669632 c 0.20031,-0.200306 0.35064,-0.432182 0.451882,-0.681561 z m -0.890777,1.34346 -0.668259,0.668259 -1.414215,-1.414215 0.668258,-0.668257 z m -2.004773,2.004776 -1.336517,1.336517 -1.414215,-1.414211 1.336517,-1.336517 z m -2.673034,2.673039 -1.336518,1.336517 -1.414215,-1.414211 1.336518,-1.336518 z m -2.673035,2.673034 -0.668259,0.668263 -1.414213,-1.414215 0.668259,-0.668259 z" /></g></g></g><g
       id="g66"><g
         id="g68"><g
           transform="translate(47.303955,46.703247)"
           id="g70"><path
             id="path72"
             style="fill:#f9f9fb;fill-opacity:0.47999998;fill-rule:nonzero;stroke:none"
             d="m 31.776125,40.395851 8.019098,-8.019111 c 1.201367,-1.201367 1.201367,-3.183621 0,-4.41502 L 13.335161,1.501652 c -1.201365,-1.201367 -3.183603,-1.201367 -4.415003,0 L 0.901024,9.520765 c -1.201365,1.201367 -1.201365,3.183619 0,4.415016 l 26.460098,26.46007 c 1.2314,1.201367 3.183603,1.201367 4.415003,0 z" /></g></g><g
         clip-path="url(#clipPath78)"
         id="g74"><g
           transform="translate(47.303955,46.703247)"
           id="g80"><path
             id="path82"
             style="fill:#6e56cf;fill-opacity:1;fill-rule:nonzero;stroke:none"
             d="m 31.776125,40.395851 0.353582,0.353581 -0.0044,0.0043 -0.349161,-0.357891 z m 8.019098,-8.019111 -0.353554,-0.353554 v 0 z m 0,-4.41502 0.353581,-0.353581 0.0043,0.0044 -0.357891,0.349162 z M 13.335161,1.501652 13.688715,1.148098 v 0 z m -4.415003,0 L 8.566579,1.148071 8.570999,1.143761 8.92016,1.501652 Z M 0.901024,9.520765 0.547471,9.167213 v 0 z m 0,4.415016 -0.35358,0.353581 -0.004311,-0.0044 0.357891,-0.349164 z m 26.460098,26.46007 -0.349188,0.357918 -0.0044,-0.0044 0.353554,-0.353554 z m 4.764164,0.357891 c -0.34889,0.340382 -0.749002,0.59821 -1.175482,0.772351 L 30.571777,40.6003 c 0.308808,-0.126095 0.599783,-0.313168 0.855187,-0.56234 z m -3.937843,0.772351 c -0.42648,-0.174141 -0.826592,-0.431969 -1.175482,-0.772351 l 0.698324,-0.715782 c 0.255402,0.249172 0.546377,0.436245 0.855185,0.56234 z m -1.179875,-0.776688 -0.735002,-0.735001 0.707107,-0.707107 0.735003,0.735 z m -2.205007,-2.205006 -1.470005,-1.470005 0.707105,-0.707107 1.470007,1.470005 z m -2.94001,-2.940006 -1.470005,-1.470005 0.707105,-0.707108 1.470005,1.470005 z m -2.94001,-2.94001 -1.470007,-1.470001 0.707107,-0.707108 1.470005,1.470003 z m -2.940011,-2.940006 -1.470006,-1.470003 0.707106,-0.707108 1.470006,1.470003 z m -2.940013,-2.94001 -1.470004,-1.470002 0.707105,-0.707107 1.470005,1.470003 z m -2.940009,-2.940005 -1.470004,-1.470003 0.707105,-0.707107 1.470005,1.470003 z M 7.162498,20.904356 5.692494,19.434353 6.399601,18.727245 7.869605,20.197248 Z M 4.222489,17.96435 2.752485,16.494347 3.459591,15.787241 4.929596,17.257244 Z M 1.28248,15.024345 0.547471,14.289335 1.254577,13.58223 1.989586,14.317238 Z m -0.739347,-0.7394 c -0.340177,-0.348683 -0.597508,-0.74992 -0.771412,-1.177268 l 0.926243,-0.376924 c 0.126303,0.310371 0.313094,0.601814 0.560951,0.855867 z M -0.233582,10.345198 C -0.058969,9.915089 0.201529,9.513153 0.547471,9.167213 L 1.254577,9.874319 C 1.005726,10.123171 0.818672,10.411734 0.692973,10.721355 Z M 0.547471,9.167213 1.215732,8.498951 1.922838,9.206059 1.254577,9.874319 Z M 2.552255,7.162434 3.888777,5.825916 4.595883,6.533024 3.259361,7.869541 Z M 5.225299,4.489395 6.561822,3.152878 7.268928,3.859985 5.932405,5.196503 Z M 7.898345,1.816357 8.566606,1.148098 9.273712,1.855206 8.605451,2.523464 Z M 8.570997,1.143761 C 8.919678,0.803585 9.320914,0.546253 9.748259,0.372349 l 0.376928,0.926243 C 9.814816,1.424896 9.523374,1.611687 9.26932,1.859543 Z m 3.939738,-0.776715 c 0.430107,0.174614 0.832039,0.435112 1.17798,0.781052 L 12.981608,1.855206 C 12.732757,1.606354 12.444195,1.4193 12.134574,1.293602 Z m 1.17798,0.781052 0.735002,0.735001 -0.707107,0.707107 -0.735002,-0.735 z M 15.89372,3.353104 17.363724,4.823109 16.656616,5.530216 15.186613,4.060211 Z M 18.833727,6.29311 20.30373,7.763115 19.596624,8.470222 18.126619,7.000217 Z m 2.940006,2.94001 1.470005,1.470003 -0.707107,0.707108 -1.470003,-1.470005 z m 2.940008,2.940008 1.470003,1.470003 -0.707107,0.707106 -1.470003,-1.470003 z m 2.940007,2.940006 1.470003,1.470004 -0.707108,0.707107 -1.470001,-1.470003 z m 2.940006,2.940009 1.470005,1.470005 -0.707108,0.707105 -1.470003,-1.470003 z m 2.940006,2.940008 1.470005,1.470003 -0.707107,0.707107 -1.470005,-1.470005 z m 2.94001,2.940008 1.470001,1.470003 -0.707107,0.707106 -1.470001,-1.470002 z m 2.940006,2.940006 0.735001,0.735001 -0.707108,0.707107 -0.735,-0.735 z m 0.739338,0.739393 c 0.340176,0.348681 0.597508,0.74992 0.771412,1.177267 l -0.926243,0.376927 c -0.126304,-0.310375 -0.313095,-0.601816 -0.560951,-0.855869 z m 0.776715,3.939749 c -0.174614,0.430107 -0.435112,0.832043 -0.781052,1.177986 l -0.707108,-0.707107 c 0.248852,-0.248852 0.435906,-0.537415 0.561604,-0.847039 z m -0.781052,1.177986 -0.668259,0.668259 -0.707107,-0.707108 0.668258,-0.668258 z m -2.004776,2.004776 -1.336514,1.336518 -0.707107,-0.707104 1.336513,-1.336521 z M 35.47097,37.408108 34.134453,38.744625 33.427345,38.037521 34.763863,36.701 Z m -2.673035,2.673038 -0.668254,0.668259 -0.70711,-0.707108 0.668257,-0.668258 z m -1.02181,0.314705 0.707163,0.707161 -0.0088,0.0086 -0.698324,-0.715782 z m 8.019098,-8.019111 -0.707107,-0.707108 v 0 z m 0,-4.41502 0.707161,-0.707161 0.0086,0.0088 -0.715782,0.698323 z M 13.335161,1.501652 14.042268,0.794544 h 10e-7 z m -4.415003,0 L 8.212999,0.794491 8.221835,0.78587 Z M 0.901024,9.520765 0.193917,8.81366 h 1e-6 z m 0,4.415016 -0.70716,0.707161 -0.008622,-0.0088 0.715782,-0.698325 z m 26.460098,26.46007 -0.698377,0.715836 -0.0087,-0.0087 0.707106,-0.707108 z m 5.113327,0.715782 c -0.395634,0.385987 -0.850317,0.679188 -1.33563,0.877358 l -0.756056,-1.851589 c 0.249973,-0.10207 0.48638,-0.253762 0.695038,-0.457333 z m -4.476021,0.877358 c -0.485313,-0.19817 -0.939994,-0.491371 -1.33563,-0.877358 l 1.396648,-1.431564 c 0.20866,0.203571 0.445065,0.355263 0.695038,0.457333 z m -1.344412,-0.886032 -0.735002,-0.735001 1.414211,-1.414215 0.735005,0.735001 z m -2.205007,-2.205006 -1.470007,-1.470005 1.414213,-1.414215 1.470005,1.470005 z m -2.940012,-2.940006 -1.470005,-1.470005 1.414213,-1.414215 1.470005,1.470005 z m -2.94001,-2.94001 -1.470005,-1.470002 1.414213,-1.414215 1.470005,1.470004 z m -2.940011,-2.940007 -1.470005,-1.470003 1.414212,-1.414215 1.470005,1.470003 z m -2.940012,-2.94001 -1.470005,-1.470001 1.414213,-1.414215 1.470004,1.470003 z M 9.748955,24.197916 8.27895,22.727913 9.693163,21.313698 11.163167,22.783701 Z M 6.808945,21.25791 5.338941,19.787907 6.753153,18.373693 8.223158,19.843695 Z M 3.868936,18.317904 2.398932,16.8479 3.813144,15.433687 5.283149,16.90369 Z M 0.928927,15.377897 0.193918,14.642889 1.60813,13.228676 2.34314,13.963684 Z M 0.185242,14.634106 C -0.201095,14.23811 -0.493696,13.781975 -0.691401,13.296141 L 1.161086,12.54229 c 0.102502,0.251884 0.254023,0.48843 0.45572,0.695169 z M -0.69686,10.157118 C -0.497789,9.666765 -0.200569,9.208145 0.193917,8.81366 l 1.414214,1.414213 c -0.200306,0.200306 -0.350639,0.432184 -0.45188,0.681562 z M 0.193918,8.81366 0.862179,8.145397 2.276391,9.559614 1.60813,10.227873 Z M 2.198702,6.80888 3.535224,5.472363 4.949436,6.886578 3.612914,8.223095 Z M 4.871747,4.135841 6.208269,2.799324 7.622481,4.213539 6.285958,5.550056 Z M 7.544791,1.462803 8.213053,0.794544 9.627265,2.208759 8.959003,2.877018 Z M 8.221835,0.78587 C 8.617829,0.399532 9.073963,0.106934 9.559795,-0.090771 L 10.31365,1.761715 C 10.061766,1.864216 9.825222,2.015736 9.618483,2.217434 Z m 4.476979,-0.8821 c 0.490351,0.19907 0.948969,0.496289 1.343454,0.890774 L 12.628055,2.208759 C 12.427748,2.008453 12.195871,1.85812 11.946494,1.756878 Z M 14.042269,0.794544 14.77727,1.529549 13.363056,2.94376 12.628055,2.208759 Z m 2.205003,2.205006 1.470006,1.470005 -1.414216,1.414211 -1.470003,-1.470001 z m 2.940009,2.94001 1.470003,1.470001 -1.414213,1.414215 -1.470005,-1.470005 z m 2.940006,2.940006 1.470005,1.470005 -1.414215,1.414213 -1.470003,-1.470005 z m 2.940008,2.940008 1.470001,1.470003 -1.414213,1.414214 -1.470003,-1.470003 z m 2.940006,2.940009 1.470003,1.470001 -1.414215,1.414215 -1.470001,-1.470003 z m 2.940007,2.940006 1.470005,1.470005 -1.414215,1.414213 -1.470004,-1.470005 z m 2.940006,2.940008 1.470005,1.470005 -1.414215,1.414213 -1.470001,-1.470005 z m 2.94001,2.940008 1.470001,1.470003 -1.414215,1.414213 -1.470001,-1.470003 z m 2.940006,2.940008 0.735001,0.735001 -1.414215,1.414213 -0.735001,-0.735001 z m 0.743675,0.743784 c 0.386338,0.395996 0.678936,0.852131 0.876645,1.337965 l -1.85249,0.753851 c -0.102501,-0.251884 -0.254021,-0.48843 -0.455719,-0.695167 z m 0.882103,4.476988 c -0.199073,0.490355 -0.496292,0.948973 -0.890777,1.343462 l -1.414215,-1.414215 c 0.200306,-0.200306 0.350639,-0.432186 0.451881,-0.681564 z m -0.890777,1.343458 -0.668259,0.668259 -1.414215,-1.414211 0.668259,-0.668259 z m -2.004776,2.00478 -1.336514,1.336517 -1.414215,-1.414211 1.336514,-1.336521 z m -2.673031,2.673039 -1.336517,1.336517 -1.414215,-1.414211 1.336517,-1.336522 z m -2.673035,2.673034 -0.668255,0.668263 -1.414217,-1.414215 0.668259,-0.668259 z" /></g></g></g></g></svg>