<svg width="72" height="102" viewBox="0 0 72 102" fill="none" xmlns="http://www.w3.org/2000/svg">
<mask id="mask0_20013_5737" style="mask-type:luminance" maskUnits="userSpaceOnUse" x="0" y="0" width="72" height="102">
<path d="M71.2998 0.5V100.91H0.5V0.5H71.2998Z" fill="white" stroke="white"/>
</mask>
<g mask="url(#mask0_20013_5737)">
<path d="M35.9004 0.5C44.3925 0.500031 53.1678 1.52361 59.8369 3.50488C63.1683 4.49461 66.0072 5.73241 68.0234 7.22559C70.0386 8.71804 71.2998 10.52 71.2998 12.6299V92.2695H67.2998V56.9551C66.4688 57.5195 65.5923 58.0149 64.6787 58.4346L64.6777 58.4336C64.3726 58.5759 64.06 58.7065 63.7441 58.835L63.7451 58.8359C63.0138 59.1655 62.1466 59.4918 61.0586 59.8545L61.0547 59.8555C54.51 61.9865 45.3449 63.1991 35.9014 63.1992L35.9023 63.2002C30.3804 63.2314 24.8647 62.8106 19.4111 61.9434L18.9141 61.8643L18.9971 61.3682L19.4971 58.3682L19.5791 57.877L20.0703 57.9561C25.3031 58.8046 30.5973 59.2212 35.8984 59.2002H35.9004C44.9681 59.2002 53.6911 58.0724 59.8145 56.0742C60.7876 55.7565 61.5403 55.4827 62.1787 55.2021L62.1807 55.2012L63.0049 54.8428C64.4352 54.181 65.5322 53.4889 66.2627 52.8203C67.0073 52.1387 67.2998 51.55 67.2998 51.0996V12.6299C67.2998 12.3194 67.1702 11.9482 66.8428 11.5205C66.5154 11.0929 66.01 10.6348 65.3145 10.1641C63.9232 9.22251 61.8386 8.27543 59.1123 7.43164C53.6654 5.74588 45.742 4.50003 35.9004 4.5C25.4243 4.5 15.6093 6.02565 9.58496 8.53906L9.58594 8.54004C7.92212 9.24679 6.62276 10.0282 5.74902 10.7754C4.84772 11.5462 4.5 12.1924 4.5 12.6201C4.50005 13.0704 4.79277 13.6584 5.53711 14.3398C6.26845 15.0093 7.36689 15.7037 8.7998 16.3662H8.79883L8.9502 16.4316H8.94922L9.56445 16.6992C10.2609 16.9935 11.0077 17.2789 11.9941 17.6045H11.9951C18.0994 19.603 26.7535 20.7598 35.8398 20.7598C44.9255 20.7598 53.6405 19.5836 59.7461 17.6045L59.748 17.6035L61.748 16.9639L62.4004 16.7549V46.3877L62.0605 46.5029L61.0605 46.8438L61.0557 46.8447C54.4407 49.016 45.5058 50.1989 35.9033 50.1992L35.9043 50.2002C28.3034 50.2704 20.7257 49.3767 13.3496 47.5479V68.7969C19.325 70.5696 27.4272 71.5302 35.8496 71.5303C44.8745 71.5303 53.6297 70.3436 59.7559 68.3643H59.7578L61.7578 67.7236L62.4102 67.5146V97.0977L62.0713 97.2139L61.0713 97.5537L61.0664 97.5547C54.4506 99.7263 45.5039 100.91 35.9102 100.91C26.3163 100.91 17.3795 99.7262 10.7539 97.5547L10.75 97.5537C9.85192 97.251 8.93984 96.9169 8.0459 96.541V96.54C3.22271 94.5201 0.509766 91.9418 0.509766 88.7695V25.2002H4.50977V25.7412L4.53027 25.916C4.6111 26.3382 4.92806 26.8596 5.57812 27.4482C6.30811 28.1092 7.39229 28.794 8.7998 29.4463L9.17578 29.6152C9.30119 29.6695 9.42852 29.7218 9.5625 29.7744L9.57031 29.7773L9.57715 29.7803C10.2619 30.0737 11.0075 30.3589 11.9941 30.6846H11.9951C18.1098 32.6732 26.8241 33.8301 35.9004 33.8301H35.9033C41.2034 33.8642 46.4975 33.4612 51.7314 32.626L52.2217 32.5479L52.3027 33.0381L52.8027 36.0381L52.8857 36.5332L52.3896 36.6133C46.9377 37.4939 41.423 37.9271 35.9004 37.9092V37.9102L35.8994 37.9092L35.8984 37.9102V37.9092C26.4549 37.909 17.2897 36.6965 10.7451 34.5654L10.7422 34.5645C9.65242 34.2012 8.78864 33.8763 8.02344 33.5498L8.01953 33.5479L7.12891 33.1582L7.11816 33.1533C6.21041 32.7295 5.33833 32.2342 4.50977 31.6729V76.3906L4.53027 76.5674C4.61106 76.9932 4.92848 77.5144 5.57812 78.1016C6.30778 78.761 7.39134 79.4433 8.79883 80.0957C8.92597 80.1544 9.05039 80.2104 9.17578 80.2646L9.5625 80.4248L9.57031 80.4277L9.57715 80.4307C10.2625 80.7244 11.0093 81.009 11.9971 81.335H11.9961C18.1107 83.3234 26.8345 84.4805 35.9004 84.4805H35.9014C41.2033 84.4914 46.4975 84.0656 51.7295 83.207L52.2217 83.126L52.3027 83.6182L52.8027 86.6182L52.8857 87.1143L52.3896 87.1934C46.9375 88.0706 41.4226 88.5005 35.9004 88.4795V88.4805L35.8994 88.4795L35.8984 88.4805V88.4795C26.4451 88.4794 17.2799 87.2668 10.7451 85.1357L10.7432 85.1348C9.64265 84.7713 8.77905 84.4467 8.01367 84.1201L8.00977 84.1182L7.11914 83.7275L7.11523 83.7256C6.20514 83.3162 5.33062 82.8327 4.5 82.2812V88.7695C4.5 89.2693 4.85029 89.9202 5.73535 90.667C6.6028 91.3988 7.90027 92.1504 9.58398 92.8594L10.1787 93.1006C10.7737 93.3341 11.3699 93.5442 11.9844 93.7441L11.9863 93.7451C18.1001 95.7533 26.8138 96.9102 35.9004 96.9102C44.2998 96.9101 52.4028 95.9115 58.4004 94.1738V72.9258C51.0378 74.733 43.477 75.611 35.8945 75.5303V75.5293C26.304 75.5288 17.3711 74.3463 10.7471 72.1758L9.6875 71.8359L9.33984 71.7246V42.1846L9.99219 42.3936L11.9922 43.0342L11.9961 43.0352C18.1201 45.0434 26.8339 46.2002 35.9004 46.2002C44.3266 46.2002 52.4301 45.1546 58.4004 43.415V22.166C51.037 23.9675 43.4764 24.841 35.8945 24.7598V24.7588C26.3027 24.7583 17.3685 23.5764 10.7441 21.4053L10.7402 21.4043C9.66532 21.0426 8.79968 20.727 8.02051 20.3887L7.33105 20.0889L7.32715 20.0869L7.14648 20.0068L7.14062 20.0039C1.7828 17.5342 0.500048 14.7114 0.5 12.6201C0.5 9.44742 3.21283 6.86861 8.03711 4.8584L8.66992 4.60156C15.3196 1.97644 25.2117 0.5 35.9004 0.5Z" fill="#FF5F46" stroke="#FF5F46"/>
</g>
</svg>
