<svg width="67" height="60" viewBox="0 0 67 60" fill="none" xmlns="http://www.w3.org/2000/svg">
<path d="M21.582 15.7615C24.2294 15.7616 26.376 17.9079 26.376 20.5554C26.3758 23.2028 24.2294 25.3483 21.582 25.3484C18.9347 25.3484 16.7882 23.2029 16.7881 20.5554C16.7881 17.9079 18.9346 15.7615 21.582 15.7615ZM21.582 18.1619C20.2601 18.1619 19.1885 19.2335 19.1885 20.5554C19.1886 21.8773 20.2602 22.949 21.582 22.949C22.9038 22.9488 23.9755 21.8772 23.9756 20.5554C23.9756 19.2335 22.9039 18.162 21.582 18.1619Z" fill="#FF5F46" stroke="#FF5F46"/>
<path d="M5.29395 22.9487C7.94136 22.9488 10.0879 25.0953 10.0879 27.7427C10.0878 30.39 7.94129 32.5365 5.29395 32.5366C2.64652 32.5366 0.500132 30.3901 0.5 27.7427C0.5 25.0952 2.64644 22.9487 5.29395 22.9487ZM5.29395 25.3491C3.972 25.3491 2.90039 26.4207 2.90039 27.7427C2.90052 29.0645 3.97208 30.1362 5.29395 30.1362C6.61573 30.1361 7.68737 29.0644 7.6875 27.7427C7.6875 26.4208 6.61581 25.3492 5.29395 25.3491Z" fill="#FF5F46" stroke="#FF5F46"/>
<path d="M45.3379 12.7278C47.9853 12.7279 50.1318 14.8744 50.1318 17.5217C50.1317 20.1691 47.9852 22.3155 45.3379 22.3157C42.6905 22.3157 40.5441 20.1691 40.5439 17.5217C40.5439 14.8743 42.6904 12.7278 45.3379 12.7278ZM45.3379 15.1282C44.0159 15.1282 42.9443 16.1998 42.9443 17.5217C42.9445 18.8436 44.016 19.9153 45.3379 19.9153C46.6597 19.9151 47.7313 18.8435 47.7314 17.5217C47.7314 16.1999 46.6597 15.1283 45.3379 15.1282Z" fill="#FF5F46" stroke="#FF5F46"/>
<path d="M43.0977 29.7627C45.7451 29.7628 47.8906 31.9093 47.8906 34.5566C47.8905 37.204 45.745 39.3505 43.0977 39.3506C40.4502 39.3506 38.3038 37.2041 38.3037 34.5566C38.3037 31.9092 40.4501 29.7627 43.0977 29.7627ZM43.0977 32.1631C41.7757 32.1631 40.7041 33.2348 40.7041 34.5566C40.7042 35.8785 41.7758 36.9502 43.0977 36.9502C44.4194 36.9501 45.4911 35.8784 45.4912 34.5566C45.4912 33.2349 44.4195 32.1632 43.0977 32.1631Z" fill="#FF5F46" stroke="#FF5F46"/>
<path d="M28.3027 37.4167C30.9501 37.4169 33.0967 39.5632 33.0967 42.2107C33.0965 44.8581 30.9501 47.0035 28.3027 47.0037C25.6554 47.0037 23.5089 44.8581 23.5088 42.2107C23.5088 39.5631 25.6553 37.4167 28.3027 37.4167ZM28.3027 39.8171C26.9808 39.8171 25.9092 40.8887 25.9092 42.2107C25.9093 43.5325 26.9809 44.6042 28.3027 44.6042C29.6245 44.6041 30.6962 43.5325 30.6963 42.2107C30.6963 40.8888 29.6246 39.8173 28.3027 39.8171Z" fill="#FF5F46" stroke="#FF5F46"/>
<path d="M23.6084 23.4004L28.4629 38.1484L28.6191 38.623L28.1436 38.7793L26.8135 39.2178L26.3389 39.374L26.1826 38.8984L21.3291 24.1504L21.1729 23.6758L21.6475 23.5195L22.9775 23.082L23.4521 22.9258L23.6084 23.4004Z" fill="#FF5F46" stroke="#FF5F46"/>
<path d="M42.1035 17.2305L42.2822 18.6191L42.3467 19.1143L41.8506 19.1787L25.1895 21.3252L24.6934 21.3896L24.6289 20.8936L24.4502 19.5049L24.3867 19.0088L24.8828 18.9453L41.5439 16.7979L42.04 16.7344L42.1035 17.2305Z" fill="#FF5F46" stroke="#FF5F46"/>
<path d="M44.1807 20.0771L45.5732 20.2256L46.0703 20.2783L46.0176 20.7754L44.9443 30.8564L44.8916 31.3535L44.3945 31.3008L43.002 31.1523L42.5049 31.0996L42.5576 30.6025L43.6309 20.5215L43.6836 20.0244L44.1807 20.0771Z" fill="#FF5F46" stroke="#FF5F46"/>
<path d="M24.7974 21.3188L40.479 31.3999L40.8999 31.6704L40.6294 32.0913L39.8726 33.269L39.6021 33.689L39.1812 33.4194L23.4995 23.3384L23.0786 23.0679L23.3491 22.647L24.1069 21.4692L24.3765 21.0483L24.7974 21.3188Z" fill="#FF5F46" stroke="#FF5F46"/>
<path d="M45.4004 37.5767L48.2939 46.0708L48.4551 46.5444L47.9814 46.7056L46.6562 47.1567L46.1826 47.3179L46.0215 46.8442L43.1279 38.3501L42.9668 37.8774L43.4404 37.7163L44.7656 37.2642L45.2393 37.103L45.4004 37.5767Z" fill="#FF5F46" stroke="#FF5F46"/>
<path d="M40.0449 35.3384L40.6895 36.5806L40.9199 37.0249L40.4766 37.2554L32.0293 41.6421L31.585 41.8726L31.3545 41.4292L30.71 40.186L30.4795 39.7427L30.9229 39.5122L39.3701 35.1255L39.8145 34.895L40.0449 35.3384Z" fill="#FF5F46" stroke="#FF5F46"/>
<path d="M25.2534 42.9929L25.894 44.2371L26.1226 44.6824L25.6782 44.9109L19.3306 48.1775L18.8862 48.407L18.6577 47.9617L18.0171 46.7175L17.7876 46.2722L18.2329 46.0437L24.5796 42.7771L25.0239 42.5476L25.2534 42.9929Z" fill="#FF5F46" stroke="#FF5F46"/>
<path d="M25.3374 7.99512L26.6558 8.46387L27.1274 8.63184L26.9595 9.10254L24.019 17.3643L23.8511 17.835L23.3804 17.667L22.061 17.1973L21.5903 17.0303L21.7583 16.5586L24.6987 8.29785L24.8657 7.82715L25.3374 7.99512Z" fill="#FF5F46" stroke="#FF5F46"/>
<path d="M63.6079 18.51L64.8159 19.217L65.2476 19.469L64.9956 19.9006L61.7485 25.4524L61.4956 25.884L61.064 25.6321L55.5122 22.385L55.0815 22.1321L55.3335 21.7004L56.0405 20.4915L56.2925 20.0608L56.7241 20.3127L60.6353 22.5999L62.9233 18.6897L63.1763 18.2581L63.6079 18.51Z" fill="#FF5F46" stroke="#FF5F46"/>
<path d="M33.4834 0.5C47.6946 0.500101 59.5644 10.6219 62.2891 24.0498L62.3877 24.54L61.8984 24.6396L60.5254 24.918L60.0361 25.0176L59.9365 24.5273C57.4339 12.1933 46.5278 2.90049 33.4834 2.90039C20.4351 2.90039 9.53202 12.1505 7.03027 24.4346L6.92969 24.9248L6.44043 24.8252L5.06836 24.5459L4.57812 24.4463L4.67773 23.9561C7.40333 10.5713 19.2761 0.5 33.4834 0.5Z" fill="#FF5F46" stroke="#FF5F46"/>
<path d="M61.4858 27.1492C64.1333 27.1493 66.2798 29.2956 66.2798 31.9431C66.2797 34.5905 64.1332 36.736 61.4858 36.7361C58.8385 36.7361 56.692 34.5906 56.6919 31.9431C56.6919 29.2956 58.8384 27.1492 61.4858 27.1492ZM61.4858 29.5496C60.1639 29.5496 59.0923 30.6212 59.0923 31.9431C59.0924 33.265 60.164 34.3367 61.4858 34.3367C62.8076 34.3365 63.8793 33.2649 63.8794 31.9431C63.8794 30.6212 62.8077 29.5497 61.4858 29.5496Z" fill="#FF5F46" stroke="#FF5F46"/>
<path d="M5.71484 34.0537L11.2666 37.3008L11.6982 37.5537L11.4463 37.9854L10.7393 39.1934L10.4863 39.625L10.0547 39.373L6.14355 37.084L3.85645 40.9961L3.60352 41.4277L3.17188 41.1758L1.96289 40.4688L1.53223 40.2158L1.78418 39.7842L5.03125 34.2324L5.28418 33.8018L5.71484 34.0537Z" fill="#FF5F46" stroke="#FF5F46"/>
<path d="M6.89014 35.1577C9.39274 47.492 20.2987 56.7856 33.3433 56.7856C46.3439 56.7856 57.2478 47.536 59.7495 35.2505L59.8491 34.7603L60.3394 34.8599L61.7114 35.1401L62.2017 35.2397L62.1021 35.729C59.3767 49.1125 47.5052 59.185 33.3433 59.1851C19.1319 59.1851 7.26215 49.0633 4.5376 35.6353L4.43799 35.145L4.92822 35.0454L6.30029 34.7671L6.79053 34.6675L6.89014 35.1577Z" fill="#FF5F46" stroke="#FF5F46"/>
<path d="M31.8647 43.394L40.2192 49.6011L40.6206 49.8999L40.3228 50.3013L39.4878 51.4243L39.189 51.8257L38.7876 51.5278L30.4341 45.3208L30.0327 45.0229L30.3306 44.6216L31.1655 43.4976L31.4634 43.0962L31.8647 43.394Z" fill="#FF5F46" stroke="#FF5F46"/>
<path d="M58.2896 31.6929L58.4849 33.0796L58.5552 33.5747L58.0601 33.645L46.812 35.2319L46.3169 35.3013L46.2466 34.8062L46.0513 33.4194L45.981 32.9243L46.4761 32.855L57.7241 31.2681L58.2192 31.1978L58.2896 31.6929Z" fill="#FF5F46" stroke="#FF5F46"/>
<path d="M18.4907 21.1602L19.0552 22.4414L19.2563 22.8994L18.7983 23.1006L9.04443 27.3945L8.58643 27.5957L8.38525 27.1377L7.8208 25.8564L7.61963 25.3994L8.07764 25.1973L17.8315 20.9033L18.2896 20.7021L18.4907 21.1602Z" fill="#FF5F46" stroke="#FF5F46"/>
<path d="M40.4028 8.69971L44.6499 13.5063L44.981 13.8813L44.606 14.2124L43.5571 15.1392L43.1821 15.4702L42.8511 15.0962L38.604 10.2886L38.2729 9.91455L38.6479 9.5835L39.6968 8.65576L40.0718 8.32471L40.4028 8.69971Z" fill="#FF5F46" stroke="#FF5F46"/>
</svg>
