<svg width="28" height="28" viewBox="0 0 28 28" fill="none" xmlns="http://www.w3.org/2000/svg">
<path d="M27.3346 20.7333V15.8L26.8026 15.4667L14.0346 22.4667L1.93148 15.8V12.9333L14.0346 19.5333L27.4011 12.2667V7.4L26.8691 7.06667L14.0346 14.1333L2.39698 7.73333L14.0346 1.33333L23.4111 6.46667L24.1426 6.06667V5.53333L14.0346 0L0.667969 7.26667V8L14.0346 15.3333L26.1376 8.66667V11.6L14.0346 18.2667L1.19997 11.2L0.667969 11.5333V16.4667L14.0346 23.7333L26.1376 17.1333V20L14.0346 26.6667L1.19997 19.6667L0.667969 20V20.7333L14.0346 28L27.3346 20.7333Z" fill="#FF3621"/>
</svg>
