<svg width="129" height="120" viewBox="0 0 129 120" fill="none" xmlns="http://www.w3.org/2000/svg">
<path d="M48.1045 1.63574C59.5773 -0.64584 71.4695 0.526593 82.2764 5.00391C93.0835 9.48135 102.319 17.063 108.817 26.79C115.314 36.5172 118.782 47.9528 118.78 59.6504V60.1504H114.78V59.6504C114.777 47.9281 111.037 36.5115 104.104 27.0586C97.1724 17.6057 87.4086 10.6078 76.2295 7.08105C65.0503 3.55425 53.0382 3.68268 41.9365 7.44629C30.8348 11.2101 21.2208 18.4135 14.4912 28.0117C7.76182 37.6097 4.26605 49.1028 4.51172 60.8223C4.75759 72.542 8.73247 83.8786 15.8584 93.1865C22.9845 102.494 32.8918 109.289 44.1416 112.583C55.3913 115.878 67.3985 115.503 78.4199 111.51L78.8926 111.338L79.0615 111.812L80.0615 114.633L80.2275 115.101L79.7598 115.271C73.3124 117.604 66.5067 118.79 59.6504 118.779V118.78C47.9528 118.782 36.5171 115.314 26.79 108.817C17.063 102.319 9.48136 93.0834 5.00391 82.2764C0.526586 71.4695 -0.645943 59.5775 1.63574 48.1045C3.91737 36.6316 9.54985 26.0926 17.8213 17.8213C26.0926 9.54984 36.6316 3.91738 48.1045 1.63574Z" fill="#FF5F46" stroke="#FF5F46"/>
<path d="M108.06 113.149C115.001 108.913 118.912 103.581 121.115 97.7095C123.358 91.7324 123.84 85.1763 123.905 78.5972C120.657 77.8505 117.503 76.7428 114.502 75.2905V75.2896C112.286 74.2387 110.135 73.0568 108.06 71.7515V113.149ZM104.06 71.7017C101.982 73.0061 99.8303 74.1886 97.6143 75.2417C94.6142 76.6933 91.4608 77.801 88.2139 78.5474C88.2791 85.1511 88.7606 91.7194 91.0039 97.6968C93.2074 103.568 97.1189 108.888 104.06 113.101V71.7017ZM127.91 76.8696C127.91 84.2531 127.512 92.1633 124.692 99.4517C121.865 106.762 116.612 113.419 106.966 118.316L106.964 118.317L106.283 118.657L106.06 118.769L105.836 118.657L105.154 118.316C95.5027 113.429 90.2504 106.776 87.4238 99.4663C84.6057 92.1779 84.21 84.2628 84.21 76.8696V75.1108L84.6455 75.0542L85.9365 74.8853C89.4124 74.2969 92.7827 73.1974 95.9365 71.6226L95.9482 71.6167C99.0773 70.1582 102.062 68.4054 104.858 66.3813L105.759 65.7007L106.06 65.4731L106.361 65.7007L107.253 66.3745L107.781 66.7515C110.26 68.4964 112.879 70.0309 115.613 71.3394L116.2 71.6167L116.214 71.6226C119.356 73.1946 122.712 74.2939 126.176 74.8853L127.475 75.0542L127.91 75.1108V76.8696Z" fill="#FF5F46" stroke="#FF5F46"/>
<path d="M59.6597 25.77C70.5711 25.77 78.4398 34.5314 78.4399 46.4497C78.4399 53.2113 75.0591 59.4423 71.4204 63.6323L80.5698 68.9067L81.0015 69.1558L80.7534 69.5884L79.2642 72.189L79.0151 72.6235L78.5806 72.3735L65.481 64.8335L64.9009 64.4995L65.3853 64.0376L66.8354 62.6577L66.8364 62.6567C71.5131 58.2256 74.4399 51.8511 74.4399 46.4497C74.4399 41.4918 72.9093 37.3212 70.312 34.397C67.7187 31.4773 64.0362 29.77 59.6597 29.77C55.2829 29.7701 51.5878 31.4776 48.9819 34.3979C46.3723 37.3225 44.8297 41.4929 44.8296 46.4497C44.8296 51.8592 47.8054 58.2346 52.4546 62.6577L53.9048 64.0376L54.3901 64.4995L53.8091 64.8335L40.6997 72.3735H40.6987C39.6578 72.9713 38.7929 73.833 38.1909 74.8716C37.5889 75.9103 37.2711 77.0899 37.27 78.2905V92.0796H33.27V78.3403C33.2641 76.4292 33.763 74.5504 34.7163 72.894C35.6699 71.2372 37.0447 69.8616 38.7007 68.9067L47.8687 63.6411C44.2208 59.4434 40.8296 53.2214 40.8296 46.4497C40.8297 34.5297 48.7502 25.7702 59.6597 25.77Z" fill="#FF5F46" stroke="#FF5F46"/>
</svg>
