<svg width="105" height="112" viewBox="0 0 105 112" fill="none" xmlns="http://www.w3.org/2000/svg">
<path d="M96.4233 47.6826C100.852 47.6826 104.331 51.2654 104.332 55.6787C104.332 60.0998 100.757 63.6748 96.3354 63.6748C92.6161 63.6747 89.4269 61.0563 88.6079 57.502H66.3794V53.8564H88.6958C89.508 50.3051 92.6158 47.6828 96.4233 47.6826ZM96.4233 51.2402C94.0536 51.2404 92.0728 53.2214 92.0728 55.5908C92.0728 57.9603 94.0536 59.9412 96.4233 59.9414C98.7931 59.9414 100.774 57.9605 100.774 55.5908C100.774 53.2212 98.7931 51.2402 96.4233 51.2402Z" fill="#FF5F46" stroke="#FF5F46"/>
<path d="M20.2261 47.6826C23.9456 47.6826 27.1345 50.3019 27.9536 53.8564H32.9849V57.502H27.9536C27.1408 61.0531 24.0337 63.6748 20.2261 63.6748C15.805 63.6747 12.23 60.0998 12.23 55.6787C12.2301 51.2577 15.8051 47.6827 20.2261 47.6826ZM20.2261 51.3281C17.8566 51.3282 15.8756 53.3093 15.8755 55.6787C15.8755 58.0483 17.8565 60.0292 20.2261 60.0293C22.5956 60.0293 24.5767 58.0484 24.5767 55.6787C24.5765 53.227 22.6015 51.3281 20.2261 51.3281Z" fill="#FF5F46" stroke="#FF5F46"/>
<path d="M30.063 21.7139C31.1619 27.0391 35.8102 30.8389 41.2153 30.8389C43.0782 30.8388 44.8496 30.4163 46.4497 29.5742L46.895 29.3398L47.1265 29.7861L48.3618 32.167L48.5952 32.6182L48.1411 32.8447C45.956 33.9373 43.5866 34.4844 41.3032 34.4844C34.1848 34.4844 27.986 29.3772 26.5269 22.4463L26.4233 21.9561L26.9146 21.8535L29.4722 21.3252L29.9624 21.2236L30.063 21.7139Z" fill="#FF5F46" stroke="#FF5F46"/>
<path d="M25.478 37.0308C27.9201 37.7285 30.2675 39.01 32.2095 40.5503C33.8135 39.8762 35.2444 38.975 36.4409 37.6987L36.7778 37.3394L37.1421 37.6704L39.0825 39.4341L39.4575 39.7759L39.1108 40.146C37.8994 41.4382 36.5437 42.4431 35.0493 43.2251C36.4687 44.899 37.5894 46.7374 38.3345 48.8071L38.4985 49.2642L38.0464 49.4419L35.5776 50.4116L35.103 50.5981L34.9253 50.1196C33.218 45.5104 29.2868 41.9177 24.4976 40.5493L24.022 40.4136L24.1528 39.936L24.8589 37.3784L24.9927 36.8921L25.478 37.0308Z" fill="#FF5F46" stroke="#FF5F46"/>
<path d="M61.8369 86.9021L67.084 95.4509C67.8377 95.1772 68.6524 95.0418 69.5244 95.0417C73.9531 95.0417 77.5214 98.7122 77.5215 103.126C77.5215 107.547 73.9456 111.123 69.5244 111.123C65.1034 111.123 61.5283 107.547 61.5283 103.126C61.5283 100.833 62.4415 98.8665 63.9463 97.3943L58.6924 88.8367L58.4307 88.4109L58.8564 88.1492L61.1494 86.738L61.5752 86.4753L61.8369 86.9021ZM69.5244 98.5994C67.1548 98.5996 65.1738 100.58 65.1738 102.95C65.1739 105.32 67.155 107.3 69.5244 107.301C71.8939 107.301 73.8749 105.32 73.875 102.95C73.875 100.58 71.8941 98.5994 69.5244 98.5994Z" fill="#FF5F46" stroke="#FF5F46"/>
<path d="M45.3604 0.500977C50.928 0.500977 55.4736 5.04662 55.4736 10.6143V52.123H51.8271V10.6143C51.8271 7.09397 48.9606 4.14648 45.3604 4.14648C42.0215 4.14651 39.2933 6.69957 38.9189 9.93262C42.8835 12.7747 45.5039 17.4222 45.9473 22.832L45.9873 23.3252L45.4941 23.3701L42.584 23.6348L42.084 23.6807L42.04 23.1807C41.5256 17.3521 38.0235 12.7078 33.0596 11.3613L33.0576 11.3604C29.6736 10.4298 25.8402 11.0172 22.5 12.9014L22.4941 12.9043C18.9094 14.8675 16.44 18.0183 15.417 21.8516L15.418 21.8525C14.0856 26.9321 15.1036 32.2973 18.1719 35.8623L18.4756 36.2021L18.5889 36.3232L18.6064 36.4883L18.959 39.752L19.0127 40.248L18.5156 40.3027C10.6587 41.1569 4.76274 47.8186 4.7627 55.6797C4.7627 60.4637 6.98357 64.9842 10.9043 67.7969L11.3193 68.0947L11.0127 68.5029L10.7852 68.8057C9.94615 70.755 9.52539 72.8737 9.52539 74.9941C9.5255 79.3892 11.4912 83.6795 14.5254 86.875C17.4613 89.9669 21.3603 91.9955 25.374 92.125C25.9865 89.2674 27.5007 86.6795 29.6689 84.5986L30.0303 84.252L30.377 84.6143L32.2285 86.5547L32.5791 86.9209L32.207 87.2666C29.8412 89.4636 28.5752 92.4171 28.5752 95.6309C28.5752 101.971 33.7333 107.213 40.1572 107.213C46.4978 107.213 51.7392 102.054 51.7393 95.6309V87.5908C48.9583 90.9048 44.8125 92.956 40.1572 92.9561C38.9883 92.9561 37.7971 92.8664 36.6846 92.5879L36.2031 92.4678L36.3193 91.9854L36.9375 89.4287L37.0605 88.915L37.5664 89.0664C38.3874 89.3122 39.2179 89.3975 40.1572 89.3975C46.3326 89.3974 51.4652 84.5055 51.7285 78.3154H51.6514V59.1484H55.2969V95.7188C55.2969 104.109 48.459 110.946 40.0693 110.946C31.928 110.946 25.2822 104.541 24.8594 96.4678C14.4399 95.9991 5.08597 86.0205 5.08594 75.082C5.08594 73.0953 5.41762 71.1969 5.99219 69.3115C2.50074 65.7091 0.5 60.8241 0.5 55.6797C0.500036 46.9633 6.07138 39.5312 14.042 36.8877C10.9994 32.4008 10.072 26.4241 11.6289 20.7139C12.9005 15.9909 16.0778 12.0056 20.5068 9.47461L20.5127 9.4707C24.7575 7.12261 29.6532 6.38885 34.0264 7.57324H34.0254C34.5564 7.70651 35.0826 7.88664 35.5703 8.07715C36.7113 3.73378 40.6503 0.500999 45.3604 0.500977Z" fill="#FF5F46" stroke="#FF5F46"/>
<path d="M87.3394 17.6084C91.7605 17.6084 95.3353 21.1835 95.3354 25.6045C95.3354 30.0256 91.7605 33.6006 87.3394 33.6006C85.8008 33.6005 84.4074 33.208 83.1704 32.4219L71.5552 44.124L71.4087 44.2725H58.1772V40.626H69.8452L80.5278 29.7725C79.809 28.6008 79.3433 27.1433 79.3433 25.6045C79.3434 21.1836 82.9184 17.6086 87.3394 17.6084ZM87.4272 21.2539C84.9756 21.2541 83.0777 23.229 83.0776 25.6045C83.0776 27.974 85.0577 29.9549 87.4272 29.9551C89.7972 29.9551 91.7788 27.974 91.7788 25.6045C91.7787 23.235 89.7971 21.2539 87.4272 21.2539Z" fill="#FF5F46" stroke="#FF5F46"/>
<path d="M64.7324 53.8555V57.501H58.4414V53.8555H64.7324Z" fill="#FF5F46" stroke="#FF5F46"/>
<path d="M56.7964 53.8555V57.501H50.5044V53.8555H56.7964Z" fill="#FF5F46" stroke="#FF5F46"/>
<path d="M48.8584 53.8555V57.501H42.5674V53.8555H48.8584Z" fill="#FF5F46" stroke="#FF5F46"/>
<path d="M40.9209 53.8555V57.501H34.6299V53.8555H40.9209Z" fill="#FF5F46" stroke="#FF5F46"/>
<path d="M69.5244 0.5C73.9455 0.5 77.5214 4.07505 77.5215 8.49609C77.5215 12.9172 73.9456 16.4922 69.5244 16.4922C68.6346 16.4922 67.8122 16.3511 67.002 16.0732L61.8369 24.457L61.5742 24.8818L61.1494 24.6201L58.8564 23.209L58.4297 22.9473L58.6924 22.5215L63.8574 14.1377C62.4297 12.7244 61.5283 10.6909 61.5283 8.49609C61.5284 4.07516 65.1035 0.500189 69.5244 0.5ZM69.5244 4.14551C67.155 4.1457 65.1739 6.12666 65.1738 8.49609C65.1738 10.8655 67.1549 12.8465 69.5244 12.8467C71.894 12.8467 73.875 10.8657 73.875 8.49609C73.8749 6.12653 71.8939 4.14551 69.5244 4.14551Z" fill="#FF5F46" stroke="#FF5F46"/>
<path d="M71.3179 67.084L71.4644 67.2295L83.2612 78.9385C84.4323 78.2197 85.8897 77.755 87.4272 77.7549C91.7488 77.7549 95.4233 81.2305 95.4233 85.6631C95.4232 90.084 91.8484 93.6602 87.4272 93.6602C83.0063 93.6599 79.4323 90.0839 79.4321 85.6631C79.4321 84.1249 79.8234 82.7301 80.6099 81.4922L69.8472 70.7295H58.1772V67.084H71.3179ZM87.4272 81.3125C85.0576 81.3127 83.0776 83.2943 83.0776 85.6631C83.0778 88.0328 85.0578 90.0134 87.4272 90.0137C89.797 90.0137 91.7786 88.0328 91.7788 85.6631C91.7788 83.2943 89.7972 81.3125 87.4272 81.3125Z" fill="#FF5F46" stroke="#FF5F46"/>
<path d="M35.6509 60.9409L38.1196 61.8228L38.5962 61.9927L38.4204 62.4673C37.6189 64.6313 36.4615 66.5803 35.0767 68.2544C38.4141 69.2071 40.8325 72.2185 40.8325 75.8755C40.8325 76.456 40.7349 76.9465 40.6499 77.4565L40.5669 77.9526L40.0718 77.8667L37.5142 77.4263L36.9829 77.3345L37.1138 76.812C37.1854 76.5254 37.187 76.3167 37.187 75.9634C37.187 73.5938 35.206 71.6128 32.8364 71.6128C31.9712 71.6128 31.2609 71.8441 30.5249 72.2524C27.5352 74.2368 23.9232 75.3169 20.1372 75.3169C19.5281 75.3169 18.7854 75.3173 18.1265 75.2231L17.6519 75.1558L17.6997 74.6792L17.9634 72.0327L18.0171 71.5015L18.5435 71.5894C19.0241 71.6695 19.5982 71.6714 20.1372 71.6714C23.1261 71.6713 25.9459 70.8176 28.4282 69.2769L28.5493 69.2017H28.5835L28.5962 69.1938C31.5111 67.3078 33.8168 64.57 35.0112 61.2427L35.1802 60.7729L35.6509 60.9409Z" fill="#FF5F46" stroke="#FF5F46"/>
</svg>
