<svg xmlns="http://www.w3.org/2000/svg" width="28" height="18" viewBox="0 0 28 18" fill="none">
  <path d="M9.09358 17.8558H19.3811C24.2714 17.7365 28.1181 13.6513 27.9988 8.79082C27.8795 4.04961 24.0627 0.262601 19.3811 0.143325H9.09358C4.20327 0.0240496 0.11807 3.87069 -0.0012058 8.761C-0.120482 13.6513 3.72617 17.7067 8.61648 17.826C8.76557 17.8558 8.91467 17.8558 9.09358 17.8558ZM19.1426 14.7248H9.30231C6.1415 14.6353 3.66653 11.9815 3.75598 8.82064C3.87526 5.80893 6.2906 3.36377 9.30231 3.27432H19.1426C22.3034 3.18486 24.9573 5.65983 25.0467 8.82064C25.1362 11.9815 22.6612 14.6353 19.5004 14.7248C19.3811 14.7248 19.2618 14.7248 19.1426 14.7248Z" fill="#C74634"/>
</svg>