<svg xmlns="http://www.w3.org/2000/svg" width="320" height="232" fill="none" viewBox="0 0 320 232"><g filter="url(#a)"><rect width="162" height="32" x="79" y="62" fill="#fff" rx="8"/><path fill="#AA99EC" d="M91.7 83V72.92h2.786l3.794 7.546V72.92h2.1V83h-2.786L93.8 75.454V83zm12.043.14c-1.414 0-2.324-.77-2.324-1.974 0-1.33 1.05-2.142 2.842-2.394l1.764-.252v-.364c0-.574-.392-.924-1.134-.924-.714 0-1.134.252-1.26.714h-2.002c.182-1.288 1.344-2.226 3.332-2.226 2.044 0 3.164.938 3.164 2.66v3.15c0 .476.056.924.21 1.47h-2.1c-.098-.336-.14-.7-.154-1.162-.448.854-1.26 1.302-2.338 1.302m-.224-2.254c0 .462.364.714.924.714.882 0 1.582-.56 1.582-1.19v-.658l-1.414.21c-.756.112-1.092.406-1.092.924M109.564 83v-7.14h2.058v1.302c.49-.882 1.344-1.442 2.478-1.442 1.148 0 1.918.56 2.226 1.372.504-.84 1.372-1.372 2.534-1.372 1.54 0 2.408.952 2.408 2.352V83h-2.1v-4.536c0-.728-.406-1.064-1.092-1.064-.91 0-1.61.658-1.61 1.652V83h-2.1v-4.536c0-.728-.406-1.064-1.092-1.064-.91 0-1.61.658-1.61 1.652V83zm16.488.14c-2.38 0-3.92-1.512-3.92-3.71 0-2.212 1.554-3.71 3.85-3.71 2.212 0 3.626 1.428 3.626 3.57 0 .308-.028.546-.056.77h-5.292c.14 1.064.742 1.568 1.778 1.568.672 0 1.162-.21 1.414-.714h1.974c-.476 1.386-1.596 2.226-3.374 2.226m-.098-5.908c-.882 0-1.47.476-1.666 1.442h3.192c-.084-.98-.644-1.442-1.526-1.442"/></g><g filter="url(#b)"><rect width="162" height="32" x="79" y="100" fill="#fff" rx="8"/><path fill="#AA99EC" d="M91.7 121v-10.08h7.336v1.652h-5.18v2.464h4.858v1.624h-4.858v2.688h5.348V121zm8.729 0v-7.14h2.058v1.302c.49-.882 1.344-1.442 2.478-1.442 1.148 0 1.918.56 2.226 1.372.504-.84 1.372-1.372 2.534-1.372 1.54 0 2.408.952 2.408 2.352V121h-2.1v-4.536c0-.728-.406-1.064-1.092-1.064-.91 0-1.61.658-1.61 1.652V121h-2.1v-4.536c0-.728-.406-1.064-1.092-1.064-.91 0-1.61.658-1.61 1.652V121zm14.952.14c-1.414 0-2.324-.77-2.324-1.974 0-1.33 1.05-2.142 2.842-2.394l1.764-.252v-.364c0-.574-.392-.924-1.134-.924-.714 0-1.134.252-1.26.714h-2.002c.182-1.288 1.344-2.226 3.332-2.226 2.044 0 3.164.938 3.164 2.66v3.15c0 .476.056.924.21 1.47h-2.1c-.098-.336-.14-.7-.154-1.162-.448.854-1.26 1.302-2.338 1.302m-.224-2.254c0 .462.364.714.924.714.882 0 1.582-.56 1.582-1.19v-.658l-1.414.21c-.756.112-1.092.406-1.092.924m5.674-5.978v-2.268h2.24v2.268zm.07 8.092v-7.14h2.1V121zm3.598 0v-10.08h2.1V121z"/></g><g filter="url(#c)"><rect width="162" height="32" x="79" y="138" fill="#AA99EC" rx="8"/><path fill="#fff" d="M141.165 159.126c-2.618 0-4.242-1.218-4.508-3.346h2.072c.126 1.078 1.106 1.75 2.534 1.75 1.162 0 1.806-.434 1.806-1.134 0-.644-.336-1.022-1.246-1.274l-1.876-.518c-1.932-.532-2.772-1.456-2.772-2.884 0-1.82 1.498-2.954 3.794-2.954 2.352 0 3.822 1.204 4.004 3.038h-2.072c-.182-.98-.938-1.442-2.058-1.442-.98 0-1.596.406-1.596 1.036 0 .49.224.896 1.232 1.176l1.876.518c1.974.546 2.786 1.47 2.786 2.898 0 2.016-1.47 3.136-3.976 3.136m7.237.014c-1.526 0-2.394-1.092-2.394-2.45v-4.83h2.1v4.424c0 .784.406 1.176 1.12 1.176.938 0 1.638-.714 1.638-1.764v-3.836h2.1V159h-2.058v-1.302c-.49.882-1.344 1.442-2.506 1.442m10.427 0c-1.162 0-1.988-.49-2.296-1.33V159h-2.058v-10.08h2.1v4.088c.35-.798 1.204-1.288 2.366-1.288 1.918 0 3.15 1.442 3.15 3.682 0 2.268-1.288 3.738-3.262 3.738m-.588-1.68c.98 0 1.666-.742 1.666-2.044s-.686-2.016-1.694-2.016c-.98 0-1.666.728-1.666 2.03s.686 2.03 1.694 2.03m4.85 1.54v-7.14h2.058v1.302c.49-.882 1.344-1.442 2.478-1.442 1.148 0 1.918.56 2.226 1.372.504-.84 1.372-1.372 2.534-1.372 1.54 0 2.408.952 2.408 2.352V159h-2.1v-4.536c0-.728-.406-1.064-1.092-1.064-.91 0-1.61.658-1.61 1.652V159h-2.1v-4.536c0-.728-.406-1.064-1.092-1.064-.91 0-1.61.658-1.61 1.652V159zm12.976-8.092v-2.268h2.24v2.268zm.07 8.092v-7.14h2.1V159zm6.877.154c-1.834 0-2.702-.868-2.702-2.688v-3.01h-1.33v-1.596h1.33v-1.596l2.1-.784v2.38h1.848v1.596h-1.848v3.08c0 .644.35.952 1.092.952.28 0 .518-.056.756-.14v1.596c-.252.14-.7.21-1.246.21"/></g><defs><filter id="a" width="202" height="72" x="59" y="54" color-interpolation-filters="sRGB" filterUnits="userSpaceOnUse"><feFlood flood-opacity="0" result="BackgroundImageFix"/><feColorMatrix in="SourceAlpha" result="hardAlpha" values="0 0 0 0 0 0 0 0 0 0 0 0 0 0 0 0 0 0 127 0"/><feOffset dy="12"/><feGaussianBlur stdDeviation="10"/><feComposite in2="hardAlpha" operator="out"/><feColorMatrix values="0 0 0 0 0 0 0 0 0 0 0 0 0 0 0 0 0 0 0.03 0"/><feBlend in2="BackgroundImageFix" result="effect1_dropShadow_10159_2672"/><feColorMatrix in="SourceAlpha" result="hardAlpha" values="0 0 0 0 0 0 0 0 0 0 0 0 0 0 0 0 0 0 127 0"/><feOffset dy="2"/><feGaussianBlur stdDeviation="3"/><feComposite in2="hardAlpha" operator="out"/><feColorMatrix values="0 0 0 0 0 0 0 0 0 0 0 0 0 0 0 0 0 0 0.05 0"/><feBlend in2="effect1_dropShadow_10159_2672" result="effect2_dropShadow_10159_2672"/><feBlend in="SourceGraphic" in2="effect2_dropShadow_10159_2672" result="shape"/></filter><filter id="b" width="202" height="72" x="59" y="92" color-interpolation-filters="sRGB" filterUnits="userSpaceOnUse"><feFlood flood-opacity="0" result="BackgroundImageFix"/><feColorMatrix in="SourceAlpha" result="hardAlpha" values="0 0 0 0 0 0 0 0 0 0 0 0 0 0 0 0 0 0 127 0"/><feOffset dy="12"/><feGaussianBlur stdDeviation="10"/><feComposite in2="hardAlpha" operator="out"/><feColorMatrix values="0 0 0 0 0 0 0 0 0 0 0 0 0 0 0 0 0 0 0.03 0"/><feBlend in2="BackgroundImageFix" result="effect1_dropShadow_10159_2672"/><feColorMatrix in="SourceAlpha" result="hardAlpha" values="0 0 0 0 0 0 0 0 0 0 0 0 0 0 0 0 0 0 127 0"/><feOffset dy="2"/><feGaussianBlur stdDeviation="3"/><feComposite in2="hardAlpha" operator="out"/><feColorMatrix values="0 0 0 0 0 0 0 0 0 0 0 0 0 0 0 0 0 0 0.05 0"/><feBlend in2="effect1_dropShadow_10159_2672" result="effect2_dropShadow_10159_2672"/><feBlend in="SourceGraphic" in2="effect2_dropShadow_10159_2672" result="shape"/></filter><filter id="c" width="202" height="72" x="59" y="130" color-interpolation-filters="sRGB" filterUnits="userSpaceOnUse"><feFlood flood-opacity="0" result="BackgroundImageFix"/><feColorMatrix in="SourceAlpha" result="hardAlpha" values="0 0 0 0 0 0 0 0 0 0 0 0 0 0 0 0 0 0 127 0"/><feOffset dy="12"/><feGaussianBlur stdDeviation="10"/><feComposite in2="hardAlpha" operator="out"/><feColorMatrix values="0 0 0 0 0 0 0 0 0 0 0 0 0 0 0 0 0 0 0.03 0"/><feBlend in2="BackgroundImageFix" result="effect1_dropShadow_10159_2672"/><feColorMatrix in="SourceAlpha" result="hardAlpha" values="0 0 0 0 0 0 0 0 0 0 0 0 0 0 0 0 0 0 127 0"/><feOffset dy="2"/><feGaussianBlur stdDeviation="3"/><feComposite in2="hardAlpha" operator="out"/><feColorMatrix values="0 0 0 0 0 0 0 0 0 0 0 0 0 0 0 0 0 0 0.05 0"/><feBlend in2="effect1_dropShadow_10159_2672" result="effect2_dropShadow_10159_2672"/><feBlend in="SourceGraphic" in2="effect2_dropShadow_10159_2672" result="shape"/></filter></defs></svg>