<svg xmlns="http://www.w3.org/2000/svg" width="320" height="232" fill="none" viewBox="0 0 320 232"><g filter="url(#a)"><rect width="162" height="32" x="79" y="100" fill="#fff" rx="8"/><path fill="#AA99EC" d="M95.844 121.126c-2.618 0-4.242-1.218-4.508-3.346h2.072c.126 1.078 1.106 1.75 2.534 1.75 1.162 0 1.806-.434 1.806-1.134 0-.644-.336-1.022-1.246-1.274l-1.876-.518c-1.932-.532-2.772-1.456-2.772-2.884 0-1.82 1.498-2.954 3.794-2.954 2.352 0 3.822 1.204 4.004 3.038H97.58c-.182-.98-.938-1.442-2.058-1.442-.98 0-1.596.406-1.596 1.036 0 .49.224.896 1.232 1.176l1.876.518c1.974.546 2.786 1.47 2.786 2.898 0 2.016-1.47 3.136-3.976 3.136m8.286.014c-2.38 0-3.92-1.512-3.92-3.71 0-2.212 1.554-3.71 3.85-3.71 2.212 0 3.626 1.428 3.626 3.57 0 .308-.028.546-.056.77h-5.292c.14 1.064.742 1.568 1.778 1.568.672 0 1.162-.21 1.414-.714h1.974c-.476 1.386-1.596 2.226-3.374 2.226m-.098-5.908c-.882 0-1.47.476-1.666 1.442h3.192c-.084-.98-.644-1.442-1.526-1.442m4.603 5.768v-10.08h2.1V121zm6.958.14c-2.38 0-3.92-1.512-3.92-3.71 0-2.212 1.554-3.71 3.85-3.71 2.212 0 3.626 1.428 3.626 3.57 0 .308-.028.546-.056.77h-5.292c.14 1.064.742 1.568 1.778 1.568.672 0 1.162-.21 1.414-.714h1.974c-.476 1.386-1.596 2.226-3.374 2.226m-.098-5.908c-.882 0-1.47.476-1.666 1.442h3.192c-.084-.98-.644-1.442-1.526-1.442m7.973 5.908c-2.24 0-3.794-1.554-3.794-3.71s1.554-3.71 3.794-3.71c1.876 0 3.262 1.092 3.542 2.702h-2.03c-.21-.686-.784-1.05-1.484-1.05-1.022 0-1.638.798-1.638 2.058s.616 2.058 1.638 2.058c.7 0 1.274-.364 1.484-1.05h2.03c-.28 1.61-1.666 2.702-3.542 2.702m7.744.014c-1.834 0-2.702-.868-2.702-2.688v-3.01h-1.33v-1.596h1.33v-1.596l2.1-.784v2.38h1.848v1.596h-1.848v3.08c0 .644.35.952 1.092.952.28 0 .518-.056.756-.14v1.596c-.252.14-.7.21-1.246.21"/><path stroke="#D4CAFE" stroke-linecap="round" stroke-linejoin="round" stroke-width="2" d="m216 114 5 5 5-5"/></g><defs><filter id="a" width="202" height="72" x="59" y="92" color-interpolation-filters="sRGB" filterUnits="userSpaceOnUse"><feFlood flood-opacity="0" result="BackgroundImageFix"/><feColorMatrix in="SourceAlpha" result="hardAlpha" values="0 0 0 0 0 0 0 0 0 0 0 0 0 0 0 0 0 0 127 0"/><feOffset dy="12"/><feGaussianBlur stdDeviation="10"/><feComposite in2="hardAlpha" operator="out"/><feColorMatrix values="0 0 0 0 0 0 0 0 0 0 0 0 0 0 0 0 0 0 0.03 0"/><feBlend in2="BackgroundImageFix" result="effect1_dropShadow_10159_3219"/><feColorMatrix in="SourceAlpha" result="hardAlpha" values="0 0 0 0 0 0 0 0 0 0 0 0 0 0 0 0 0 0 127 0"/><feOffset dy="2"/><feGaussianBlur stdDeviation="3"/><feComposite in2="hardAlpha" operator="out"/><feColorMatrix values="0 0 0 0 0 0 0 0 0 0 0 0 0 0 0 0 0 0 0.05 0"/><feBlend in2="effect1_dropShadow_10159_3219" result="effect2_dropShadow_10159_3219"/><feBlend in="SourceGraphic" in2="effect2_dropShadow_10159_3219" result="shape"/></filter></defs></svg>