<svg xmlns="http://www.w3.org/2000/svg" width="126" height="136" fill="none" viewBox="0 0 126 136"><g filter="url(#a)"><rect width="126" height="28" fill="#F9F9FB" fill-opacity=".48" rx="8"/><rect width="125" height="27" x=".5" y=".5" stroke="#E8E8EC" rx="7.5"/><g clip-path="url(#b)"><path fill="#6E56CF" d="M13.044 7.202c.277-.211.582-.369.956-.369s.68.158.956.37c.26.198.547.484.882.82l.024.023c.343.343.642.478 1.103.478q.088 0 .214-.004c.21-.006.481-.014.718.006.348.03.784.123 1.116.452.334.332.43.77.46 1.12.021.239.013.512.007.723l-.004.214c0 .3.033.468.091.6.06.137.165.281.387.504l.024.023c.335.335.622.622.82.882.211.277.369.582.369.956s-.158.679-.37.956c-.197.26-.484.547-.82.882l-.023.024c-.222.222-.327.366-.387.502-.058.133-.091.3-.091.601q0 .088.004.213c.006.212.014.485-.007.725-.03.35-.126.787-.46 1.119-.333.33-.768.423-1.116.452a7 7 0 0 1-.718.006l-.214-.004c-.294 0-.459.03-.59.083s-.268.15-.478.36l-.171.18a8 8 0 0 1-.54.54c-.282.248-.687.528-1.186.528s-.904-.28-1.187-.527a8 8 0 0 1-.538-.54l-.172-.182c-.21-.21-.348-.305-.479-.359-.13-.054-.295-.083-.59-.083q-.087 0-.213.004c-.21.006-.48.014-.718-.006-.348-.03-.783-.123-1.115-.452-.335-.332-.43-.77-.461-1.12a7 7 0 0 1-.007-.723l.004-.214c0-.3-.033-.468-.091-.6-.06-.137-.164-.281-.387-.503l-.023-.024c-.336-.335-.622-.622-.82-.882-.212-.277-.37-.582-.37-.956s.158-.679.37-.956c.198-.26.484-.547.82-.882l.023-.023c.343-.343.478-.643.478-1.104q0-.088-.004-.214c-.006-.21-.014-.481.006-.718.03-.348.123-.783.452-1.115.332-.335.77-.43 1.12-.461.239-.02.512-.013.724-.007q.125.004.213.004c.461 0 .76-.135 1.104-.478l.023-.024c.335-.335.622-.621.882-.82"/><path fill="#D4CAFE" d="M16.592 12.026a.666.666 0 0 1-.284.899c-.648.337-1.271 1.055-1.758 1.765a12 12 0 0 0-.749 1.265.667.667 0 0 1-1.165.066c-.138-.219-.364-.429-.587-.596a8 8 0 0 0-.367-.244.667.667 0 0 1 .636-1.171h.002l.164.098a5 5 0 0 1 .583.423c.11-.182.239-.385.383-.595.514-.749 1.29-1.698 2.242-2.194a.667.667 0 0 1 .9.283"/></g><path fill="#8B8D98" d="m28.758 19 2.392-9.49h2.093L35.648 19h-1.664l-.52-2.301h-2.522L30.422 19zm2.483-3.627h1.924l-.572-2.548a63 63 0 0 1-.247-1.144 27 27 0 0 1-.143-.754q-.04.234-.143.754-.09.507-.247 1.131zm8.562 3.757q-1.365 0-2.145-.754-.78-.767-.78-2.08V11.85h1.625v4.433q0 .676.338 1.053t.962.377q.611 0 .949-.377.35-.377.35-1.053V11.85h1.626v4.446q0 1.313-.793 2.08-.794.754-2.132.754m8.315-.13q-1.001 0-1.6-.572-.585-.585-.584-1.573v-3.536h-1.976V11.85h1.976V9.835h1.638v2.015h2.847v1.469h-2.847v3.497q0 .312.169.52.182.195.494.195h2.119V19zm6.885.117q-.91 0-1.586-.351a2.5 2.5 0 0 1-1.04-.988q-.364-.65-.364-1.521v-1.664q0-.884.364-1.521a2.5 2.5 0 0 1 1.04-.988q.676-.351 1.586-.351.923 0 1.586.351.675.35 1.04.988.363.638.364 1.521v1.664q0 .87-.364 1.521-.365.637-1.04.988-.662.351-1.586.351m0-1.417q.65 0 1-.351.365-.365.365-1.04v-1.768q0-.69-.364-1.04-.351-.351-1.001-.351-.638 0-1.001.351-.364.35-.364 1.04v1.768q0 .675.364 1.04.364.351 1 .351m7.717 1.43q-.924 0-1.612-.338a2.6 2.6 0 0 1-1.053-.975q-.377-.637-.377-1.495v-1.794q0-.87.377-1.495a2.5 2.5 0 0 1 1.053-.962q.688-.351 1.612-.351 1.338 0 2.145.702.805.69.858 1.885h-1.6q-.038-.56-.415-.858-.378-.312-.988-.312-.663 0-1.04.364-.377.351-.377 1.014v1.807q0 .663.377 1.027t1.04.364q.61 0 .988-.299.377-.312.416-.871h1.599q-.052 1.196-.858 1.898-.807.69-2.145.689m7.483-.013q-.91 0-1.586-.351a2.5 2.5 0 0 1-1.04-.988q-.364-.65-.364-1.521v-1.664q-.001-.884.364-1.521.363-.637 1.04-.988.675-.351 1.586-.351.923 0 1.586.351.675.35 1.04.988.364.638.364 1.521v1.664q0 .87-.364 1.521a2.5 2.5 0 0 1-1.04.988q-.663.351-1.586.351m0-1.417q.65 0 1-.351.365-.365.365-1.04v-1.768q0-.69-.364-1.04-.351-.351-1.001-.351-.638 0-1.001.351-.364.35-.364 1.04v1.768q-.001.675.364 1.04.364.351 1 .351m4.7 1.3v-7.15h1.587v1.365h.442l-.481.377q.012-.858.546-1.365.532-.507 1.416-.507 1.053 0 1.678.702.636.702.637 1.885V19h-1.625v-4.498q0-.663-.338-1.014-.339-.364-.936-.364-.611 0-.962.364-.339.365-.339 1.04V19zm9.2 0v-4.706h-1.964v-1.469H84.1v-1.261q0-.936.624-1.495.624-.56 1.651-.559h2.093v1.43h-2.054a.7.7 0 0 0-.507.182q-.181.17-.182.468v1.235h2.743v1.469h-2.743V19zm5.987 0v-1.469h2.444v-4.212H90.35V11.85h3.81v5.681h2.196V19zm3.146-8.346q-.493 0-.78-.247-.285-.26-.286-.689 0-.429.286-.676.287-.26.78-.26.495 0 .78.26.286.247.286.676t-.286.689q-.285.247-.78.247m5.442 10.686v-1.352h2.015q.573 0 .884-.312.312-.3.312-.819v-.429l.026-1.443h-.351l.507-.624q0 1.027-.559 1.625-.558.585-1.495.585-1.091 0-1.742-.728-.637-.74-.637-2.002V14.45q0-1.248.637-1.989.65-.741 1.742-.741.937 0 1.495.598.56.598.559 1.625l-.507-.858h.351V11.85h1.586v7.046q0 1.131-.754 1.781-.741.663-2.028.663zm1.885-4.16q.624 0 .962-.364.351-.377.351-1.04v-1.248q0-.663-.351-1.027-.338-.377-.962-.377t-.962.364q-.338.35-.338.988v1.352q0 .637.338 1.001.339.351.962.351m7.652 1.95q-.91 0-1.586-.351a2.6 2.6 0 0 1-1.053-.988q-.364-.65-.364-1.521v-1.69q0-.87.364-1.508a2.56 2.56 0 0 1 1.053-1.001q.677-.351 1.586-.351.897 0 1.56.351.677.35 1.04.988.377.624.377 1.469v1.3h-4.42v.494q0 .728.377 1.105.378.364 1.066.364.507 0 .858-.169.364-.182.429-.52h1.612q-.168.923-.962 1.482-.792.546-1.937.546m1.417-4.225v-.39q0-.74-.364-1.144-.351-.403-1.053-.403t-1.079.416q-.364.403-.364 1.144v.247l2.977-.013zm5.52 4.225q-1.04 0-1.69-.741-.637-.741-.637-1.989v-1.937q0-1.26.637-2.002.65-.741 1.69-.741.962 0 1.521.611.56.599.559 1.638l-.481-.676h.377l-.052-1.781V9.51h1.625V19h-1.586v-1.443h-.364l.468-.676q0 1.04-.559 1.651-.546.598-1.508.598m.611-1.404q.624 0 .962-.377.351-.377.351-1.066v-1.716q0-.69-.351-1.066-.338-.377-.962-.377t-.975.338q-.338.338-.338 1.04v1.846q0 .69.338 1.04.351.338.975.338"/></g><g filter="url(#c)"><rect width="57" height="28" x="28" y="36" fill="#F9F9FB" fill-opacity=".48" rx="8"/><rect width="56" height="27" x="28.5" y="36.5" stroke="#E8E8EC" rx="7.5"/><path fill="#6E56CF" d="M41.277 42.999c.245-.093.486-.166.723-.166.236 0 .478.073.724.166.248.093.559.231.946.403.569.253 1.32.543 2.125.772.588.167 1.064.302 1.424.441.362.14.69.315.91.607.215.283.297.614.335.971.036.344.036.776.036 1.3v1.963c0 2.037-.92 3.652-2.031 4.856-1.108 1.2-2.428 2.017-3.298 2.477l-.042.022c-.37.196-.674.356-1.129.356s-.758-.16-1.129-.356l-.042-.023c-.87-.459-2.19-1.275-3.298-2.476-1.111-1.204-2.031-2.82-2.031-4.856v-1.963c0-.524 0-.956.036-1.3.038-.357.12-.688.334-.97.221-.293.55-.467.911-.608.36-.14.836-.274 1.424-.441a16.5 16.5 0 0 0 2.125-.772c.388-.172.698-.31.947-.403"/><path fill="#D4CAFE" d="M45.962 47.778a.667.667 0 0 1-.406.85c-.356.127-.767.398-1.202.78-.428.375-.845.827-1.214 1.27-.368.44-.68.863-.902 1.175-.11.156-.342.505-.342.505a.667.667 0 0 1-1.159-.06c-.294-.587-.663-.955-.8-.967A.667.667 0 0 1 40 50c.368 0 .604.156.787.278.182.122.374.29.567.52.21-.286.469-.625.762-.976a13 13 0 0 1 1.359-1.418c.49-.43 1.05-.826 1.636-1.033a.667.667 0 0 1 .85.406"/><path fill="#8B8D98" d="M59.942 55.13q-.963 0-1.69-.338a2.6 2.6 0 0 1-1.118-.975q-.39-.637-.39-1.495h1.599q0 .637.429 1.014.441.377 1.17.377.702 0 1.105-.377.416-.376.416-.988 0-.468-.26-.832-.261-.364-.767-.481l-1.274-.325q-1.028-.26-1.625-.975-.598-.715-.598-1.703 0-.806.35-1.404.364-.598 1.015-.923.663-.325 1.547-.325.897 0 1.56.325t1.027.923q.377.585.377 1.378h-1.586q0-.559-.377-.884-.378-.338-1.001-.338-.612 0-.975.338-.351.326-.351.858 0 .442.247.728.26.286.715.416l1.313.325q1.053.26 1.65 1.04.612.78.612 1.859 0 .845-.39 1.469a2.57 2.57 0 0 1-1.08.975q-.701.338-1.65.338m7.6 0q-.963 0-1.69-.338a2.6 2.6 0 0 1-1.118-.975q-.39-.637-.39-1.495h1.599q0 .637.428 1.014.442.377 1.17.377.703 0 1.106-.377.415-.376.415-.988 0-.468-.26-.832-.259-.364-.767-.481l-1.273-.325q-1.028-.26-1.626-.975t-.597-1.703q0-.806.35-1.404.364-.598 1.014-.923.663-.325 1.547-.325.898 0 1.56.325.663.325 1.027.923.377.585.377 1.378H68.83q0-.559-.377-.884-.377-.338-1.001-.338-.612 0-.975.338-.351.326-.352.858 0 .442.248.728.26.286.715.416l1.313.325q1.052.26 1.65 1.04.612.78.612 1.859 0 .845-.39 1.469a2.57 2.57 0 0 1-1.08.975q-.701.338-1.65.338m5.233-.13v-9.49H74.4v8.021h4.03V55z"/></g><g filter="url(#d)"><rect width="57" height="28" x="28" y="72" fill="#F9F9FB" fill-opacity=".48" rx="8"/><rect width="56" height="27" x="28.5" y="72.5" stroke="#E8E8EC" rx="7.5"/><g clip-path="url(#e)"><path fill="#6E56CF" d="M34.834 86a3.834 3.834 0 0 1 3.068-3.757 4.168 4.168 0 0 1 8.263.626 3.5 3.5 0 0 1-.498 6.964h-7A3.833 3.833 0 0 1 34.833 86"/><path fill="#D4CAFE" d="M41.5 89.833v.667h-.166c-.529 0-.975.351-1.119.833h-2.882a.5.5 0 1 0 0 1h2.882c.144.482.59.834 1.118.834h1.334c.528 0 .975-.352 1.118-.834h2.882a.5.5 0 1 0 0-1h-2.882a1.17 1.17 0 0 0-1.118-.833H42.5v-.667z"/></g><path fill="#8B8D98" d="M60.007 91.13q-.91 0-1.6-.338a2.6 2.6 0 0 1-1.052-.975q-.364-.637-.364-1.495v-4.134q0-.87.364-1.495a2.5 2.5 0 0 1 1.053-.962q.689-.351 1.599-.351.923 0 1.586.351.675.337 1.053.975.377.624.377 1.482h-1.638q0-.675-.364-1.027-.351-.351-1.014-.351t-1.027.351q-.364.35-.364 1.027v4.134q0 .663.364 1.027.364.351 1.027.351t1.014-.351q.363-.364.364-1.027h1.638q0 .845-.377 1.482a2.57 2.57 0 0 1-1.053.988q-.663.338-1.586.338m4.57-.13v-9.49H67.4q.96 0 1.663.364a2.64 2.64 0 0 1 1.106 1.027q.39.663.39 1.573v3.549q0 .897-.39 1.573-.39.663-1.106 1.04Q68.36 91 67.4 91zm1.626-1.456h1.195q.703 0 1.118-.416t.416-1.105v-3.549q0-.69-.416-1.092-.416-.416-1.118-.416h-1.195zM72.138 91v-9.49h1.99l2.638 7.67-.09-.975a49 49 0 0 1-.066-1.157 24 24 0 0 1-.025-1.04V81.51h1.482V91h-1.99l-2.612-7.67q.025.377.064.91t.066 1.092q.026.56.026 1.027V91z"/></g><g filter="url(#f)"><rect width="73" height="28" x="28" y="108" fill="#F9F9FB" fill-opacity=".48" rx="8"/><rect width="72" height="27" x="28.5" y="108.5" stroke="#E8E8EC" rx="7.5"/><path fill="#6E56CF" d="M39.017 119.567A64 64 0 0 1 42 119.5c1.064 0 2.03.023 2.983.067 1.372.063 2.486 1.125 2.667 2.47.099.733.183 1.504.183 2.296s-.084 1.563-.183 2.297c-.18 1.345-1.295 2.407-2.667 2.47-.952.044-1.92.067-2.983.067a64 64 0 0 1-2.983-.067c-1.372-.063-2.486-1.125-2.668-2.47-.098-.734-.182-1.505-.182-2.297s.084-1.563.182-2.296c.182-1.345 1.296-2.407 2.668-2.47"/><path fill="#D4CAFE" fill-rule="evenodd" d="M42 123c.368 0 .667.298.667.667V125a.667.667 0 0 1-1.334 0v-1.333c0-.369.299-.667.667-.667" clip-rule="evenodd"/><path fill="#6E56CF" d="M39.667 118.5a2.333 2.333 0 1 1 4.666 0v1.04q.327.012.65.027.356.017.684.118V118.5a3.667 3.667 0 1 0-7.334 0v1.185q.328-.101.684-.118.323-.015.65-.027z"/><path fill="#8B8D98" d="M57.404 127v-9.49h1.625v3.848h2.548v-3.848h1.625V127h-1.625v-4.173h-2.548V127zm9.68 0v-8.021H64.6v-1.469h6.604v1.469h-2.483V127zm7.6 0v-8.021H72.2v-1.469h6.604v1.469H76.32V127zm5.52 0v-9.49h3.159q.949 0 1.65.364.716.364 1.105 1.027.39.65.39 1.534 0 .871-.402 1.534a2.66 2.66 0 0 1-1.093 1.027q-.702.364-1.65.364h-1.534V127zm1.625-5.07h1.534q.675 0 1.079-.416.416-.416.416-1.079-.001-.676-.416-1.079-.404-.416-1.08-.416H81.83zm8.912 5.2q-.961 0-1.69-.338a2.6 2.6 0 0 1-1.118-.975q-.39-.637-.39-1.495h1.6q0 .637.428 1.014.443.377 1.17.377.703 0 1.105-.377.416-.377.416-.988 0-.468-.26-.832t-.767-.481l-1.274-.325q-1.026-.26-1.625-.975-.597-.715-.598-1.703 0-.805.351-1.404.365-.598 1.014-.923.663-.325 1.547-.325.897 0 1.56.325t1.027.923q.377.585.377 1.378h-1.586q0-.559-.377-.884-.377-.338-1-.338-.612 0-.976.338-.35.325-.35.858 0 .442.246.728.26.286.715.416l1.313.325q1.053.26 1.651 1.04.611.78.611 1.859 0 .845-.39 1.469a2.57 2.57 0 0 1-1.079.975q-.702.338-1.65.338"/></g><path stroke="#E8E8EC" d="M13.5 28v95M13 50.5h15m-15 35h15m-15 37h15"/><defs><filter id="a" width="150" height="52" x="-12" y="-12" color-interpolation-filters="sRGB" filterUnits="userSpaceOnUse"><feFlood flood-opacity="0" result="BackgroundImageFix"/><feGaussianBlur in="BackgroundImageFix" stdDeviation="6"/><feComposite in2="SourceAlpha" operator="in" result="effect1_backgroundBlur_10744_9868"/><feBlend in="SourceGraphic" in2="effect1_backgroundBlur_10744_9868" result="shape"/></filter><filter id="c" width="81" height="52" x="16" y="24" color-interpolation-filters="sRGB" filterUnits="userSpaceOnUse"><feFlood flood-opacity="0" result="BackgroundImageFix"/><feGaussianBlur in="BackgroundImageFix" stdDeviation="6"/><feComposite in2="SourceAlpha" operator="in" result="effect1_backgroundBlur_10744_9868"/><feBlend in="SourceGraphic" in2="effect1_backgroundBlur_10744_9868" result="shape"/></filter><filter id="d" width="81" height="52" x="16" y="60" color-interpolation-filters="sRGB" filterUnits="userSpaceOnUse"><feFlood flood-opacity="0" result="BackgroundImageFix"/><feGaussianBlur in="BackgroundImageFix" stdDeviation="6"/><feComposite in2="SourceAlpha" operator="in" result="effect1_backgroundBlur_10744_9868"/><feBlend in="SourceGraphic" in2="effect1_backgroundBlur_10744_9868" result="shape"/></filter><filter id="f" width="97" height="52" x="16" y="96" color-interpolation-filters="sRGB" filterUnits="userSpaceOnUse"><feFlood flood-opacity="0" result="BackgroundImageFix"/><feGaussianBlur in="BackgroundImageFix" stdDeviation="6"/><feComposite in2="SourceAlpha" operator="in" result="effect1_backgroundBlur_10744_9868"/><feBlend in="SourceGraphic" in2="effect1_backgroundBlur_10744_9868" result="shape"/></filter><clipPath id="b"><path fill="#fff" d="M6 6h16v16H6z"/></clipPath><clipPath id="e"><path fill="#fff" d="M34 78h16v16H34z"/></clipPath></defs></svg>