<svg width="126" height="136" viewBox="0 0 126 136" fill="none" xmlns="http://www.w3.org/2000/svg">
<g filter="url(#filter0_b_10744_9868)">
<rect width="126" height="28" rx="8" fill="#F9F9FB" fill-opacity="0.48"/>
<rect x="0.5" y="0.5" width="125" height="27" rx="7.5" stroke="#E8E8EC"/>
<g clip-path="url(#clip0_10744_9868)">
<path d="M13.0439 7.20243C13.3212 6.99078 13.626 6.83337 14.0002 6.83337C14.3743 6.83337 14.6791 6.99078 14.9564 7.20243C15.2162 7.40063 15.5028 7.68721 15.838 8.02249L15.8616 8.04607C16.2046 8.38911 16.5037 8.52421 16.9654 8.52421C17.0232 8.52421 17.0963 8.52214 17.179 8.5198C17.3888 8.51385 17.6602 8.50617 17.8972 8.52618C18.245 8.55554 18.6805 8.64897 19.0126 8.97835C19.3473 9.31026 19.443 9.74757 19.4733 10.0975C19.494 10.3367 19.4863 10.6101 19.4804 10.8214C19.478 10.9038 19.476 10.9769 19.476 11.0347C19.476 11.3353 19.5094 11.5032 19.5673 11.6357C19.6268 11.7719 19.7317 11.9161 19.9542 12.1386L19.9778 12.1622C20.313 12.4974 20.5996 12.784 20.7978 13.0437C21.0094 13.3211 21.1668 13.6259 21.1668 14C21.1668 14.3741 21.0094 14.6789 20.7978 14.9563C20.5996 15.2162 20.3129 15.5028 19.9776 15.8381L19.9541 15.8615C19.7317 16.0839 19.6268 16.2282 19.5673 16.3643C19.5094 16.4969 19.476 16.6648 19.476 16.9653C19.476 17.0231 19.478 17.096 19.4804 17.1784C19.4863 17.3898 19.494 17.6634 19.4733 17.9026C19.443 18.2525 19.3473 18.6898 19.0126 19.0218C18.6804 19.3511 18.2449 19.4445 17.8972 19.4738C17.6602 19.4939 17.3888 19.4862 17.179 19.4802C17.0963 19.4779 17.0232 19.4758 16.9654 19.4758C16.6713 19.4758 16.506 19.5054 16.3758 19.5591C16.2458 19.6128 16.1068 19.7088 15.8974 19.9182C15.8526 19.963 15.7936 20.0262 15.7256 20.0991C15.5724 20.2634 15.373 20.477 15.1869 20.6398C14.9044 20.8867 14.4992 21.1667 14.0002 21.1667C13.5012 21.1667 13.096 20.8867 12.8135 20.6398C12.6273 20.477 12.428 20.2634 12.2747 20.0991C12.2067 20.0262 12.1477 19.963 12.103 19.9183C11.8935 19.7088 11.7545 19.6128 11.6245 19.5591C11.4943 19.5054 11.329 19.4758 11.0349 19.4758C10.9772 19.4758 10.904 19.4779 10.8214 19.4802C10.6115 19.4862 10.3401 19.4939 10.1031 19.4738C9.75541 19.4445 9.3199 19.3511 8.98776 19.0218C8.65305 18.6898 8.55729 18.2525 8.52702 17.9026C8.50634 17.6634 8.51403 17.39 8.51998 17.1786C8.5223 17.0962 8.52435 17.0232 8.52435 16.9653C8.52435 16.6648 8.49096 16.4969 8.43304 16.3643C8.37357 16.2282 8.26864 16.0839 8.0462 15.8615L8.0228 15.8381C7.68744 15.5028 7.4008 15.2162 7.20255 14.9563C6.99092 14.6789 6.8335 14.3741 6.8335 14C6.8335 13.6259 6.99091 13.3211 7.20255 13.0437C7.40076 12.784 7.68733 12.4974 8.02261 12.1622L8.04618 12.1386C8.3893 11.7955 8.52435 11.4964 8.52435 11.0347C8.52435 10.977 8.52228 10.9039 8.51994 10.8212C8.514 10.6114 8.50631 10.34 8.52632 10.103C8.55568 9.75525 8.6491 9.31974 8.97846 8.9876C9.31038 8.6529 9.74768 8.55715 10.0976 8.52689C10.3368 8.5062 10.6102 8.51389 10.8216 8.51984C10.904 8.52216 10.977 8.52421 11.0349 8.52421C11.4965 8.52421 11.7956 8.38917 12.1387 8.04607L12.1623 8.02249C12.4975 7.68721 12.7841 7.40063 13.0439 7.20243Z" fill="#6E56CF"/>
<path d="M16.5915 12.0255C16.7616 12.352 16.6348 12.7546 16.3082 12.9247C15.6602 13.2622 15.0368 13.9797 14.55 14.6896C14.3146 15.033 14.1255 15.353 13.9954 15.587C13.9219 15.7168 13.8354 15.8866 13.8012 15.9552C13.6962 16.174 13.4803 16.3186 13.238 16.3324C12.9956 16.3461 12.7648 16.227 12.6357 16.0214C12.4982 15.8024 12.2716 15.5922 12.0492 15.4248C11.9855 15.3754 11.7779 15.2418 11.682 15.1812C11.3587 15.0054 11.2387 14.6006 11.4144 14.2772C11.5901 13.9536 11.9949 13.8338 12.3184 14.0095L12.3195 14.0101L12.4844 14.1076C12.5786 14.1664 12.7077 14.2516 12.8512 14.3596C12.9184 14.4102 12.9912 14.4676 13.0667 14.5315C13.1772 14.3488 13.3058 14.1465 13.4504 13.9356C13.9636 13.1872 14.7403 12.238 15.6923 11.7422C16.0188 11.5721 16.4214 11.6989 16.5915 12.0255Z" fill="#D4CAFE"/>
</g>
<path d="M28.758 19L31.15 9.51H33.243L35.648 19H33.984L33.464 16.699H30.942L30.422 19H28.758ZM31.241 15.373H33.165L32.593 12.825C32.4976 12.4003 32.4153 12.019 32.346 11.681C32.2766 11.3343 32.229 11.083 32.203 10.927C32.177 11.083 32.1293 11.3343 32.06 11.681C31.9993 12.019 31.917 12.396 31.813 12.812L31.241 15.373ZM39.8029 19.13C38.8929 19.13 38.1779 18.8787 37.6579 18.376C37.1379 17.8647 36.8779 17.1713 36.8779 16.296V11.85H38.5029V16.283C38.5029 16.7337 38.6156 17.0847 38.8409 17.336C39.0662 17.5873 39.3869 17.713 39.8029 17.713C40.2102 17.713 40.5266 17.5873 40.7519 17.336C40.9859 17.0847 41.1029 16.7337 41.1029 16.283V11.85H42.7279V16.296C42.7279 17.1713 42.4636 17.8647 41.9349 18.376C41.4062 18.8787 40.6956 19.13 39.8029 19.13ZM48.1178 19C47.4505 19 46.9175 18.8093 46.5188 18.428C46.1288 18.038 45.9338 17.5137 45.9338 16.855V13.319H43.9578V11.85H45.9338V9.835H47.5718V11.85H50.4188V13.319H47.5718V16.816C47.5718 17.024 47.6281 17.1973 47.7408 17.336C47.8621 17.466 48.0268 17.531 48.2348 17.531H50.3538V19H48.1178ZM55.0027 19.117C54.3961 19.117 53.8674 19 53.4167 18.766C52.9661 18.532 52.6194 18.2027 52.3767 17.778C52.1341 17.3447 52.0127 16.8377 52.0127 16.257V14.593C52.0127 14.0037 52.1341 13.4967 52.3767 13.072C52.6194 12.6473 52.9661 12.318 53.4167 12.084C53.8674 11.85 54.3961 11.733 55.0027 11.733C55.6181 11.733 56.1467 11.85 56.5887 12.084C57.0394 12.318 57.3861 12.6473 57.6287 13.072C57.8714 13.4967 57.9927 14.0037 57.9927 14.593V16.257C57.9927 16.8377 57.8714 17.3447 57.6287 17.778C57.3861 18.2027 57.0394 18.532 56.5887 18.766C56.1467 19 55.6181 19.117 55.0027 19.117ZM55.0027 17.7C55.4361 17.7 55.7697 17.583 56.0037 17.349C56.2464 17.1063 56.3677 16.7597 56.3677 16.309V14.541C56.3677 14.0817 56.2464 13.735 56.0037 13.501C55.7697 13.267 55.4361 13.15 55.0027 13.15C54.5781 13.15 54.2444 13.267 54.0017 13.501C53.7591 13.735 53.6377 14.0817 53.6377 14.541V16.309C53.6377 16.7597 53.7591 17.1063 54.0017 17.349C54.2444 17.583 54.5781 17.7 55.0027 17.7ZM62.7197 19.13C62.1043 19.13 61.567 19.0173 61.1077 18.792C60.657 18.558 60.306 18.233 60.0547 17.817C59.8033 17.3923 59.6777 16.894 59.6777 16.322V14.528C59.6777 13.9473 59.8033 13.449 60.0547 13.033C60.306 12.617 60.657 12.2963 61.1077 12.071C61.567 11.837 62.1043 11.72 62.7197 11.72C63.6123 11.72 64.3273 11.954 64.8647 12.422C65.402 12.8813 65.688 13.5097 65.7227 14.307H64.1237C64.0977 13.9343 63.959 13.6483 63.7077 13.449C63.4563 13.241 63.127 13.137 62.7197 13.137C62.2777 13.137 61.931 13.2583 61.6797 13.501C61.4283 13.735 61.3027 14.073 61.3027 14.515V16.322C61.3027 16.764 61.4283 17.1063 61.6797 17.349C61.931 17.5917 62.2777 17.713 62.7197 17.713C63.127 17.713 63.4563 17.6133 63.7077 17.414C63.959 17.206 64.0977 16.9157 64.1237 16.543H65.7227C65.688 17.3403 65.402 17.973 64.8647 18.441C64.3273 18.9003 63.6123 19.13 62.7197 19.13ZM70.2026 19.117C69.5959 19.117 69.0672 19 68.6166 18.766C68.1659 18.532 67.8192 18.2027 67.5766 17.778C67.3339 17.3447 67.2126 16.8377 67.2126 16.257V14.593C67.2126 14.0037 67.3339 13.4967 67.5766 13.072C67.8192 12.6473 68.1659 12.318 68.6166 12.084C69.0672 11.85 69.5959 11.733 70.2026 11.733C70.8179 11.733 71.3466 11.85 71.7886 12.084C72.2392 12.318 72.5859 12.6473 72.8286 13.072C73.0712 13.4967 73.1926 14.0037 73.1926 14.593V16.257C73.1926 16.8377 73.0712 17.3447 72.8286 17.778C72.5859 18.2027 72.2392 18.532 71.7886 18.766C71.3466 19 70.8179 19.117 70.2026 19.117ZM70.2026 17.7C70.6359 17.7 70.9696 17.583 71.2036 17.349C71.4462 17.1063 71.5676 16.7597 71.5676 16.309V14.541C71.5676 14.0817 71.4462 13.735 71.2036 13.501C70.9696 13.267 70.6359 13.15 70.2026 13.15C69.7779 13.15 69.4442 13.267 69.2016 13.501C68.9589 13.735 68.8376 14.0817 68.8376 14.541V16.309C68.8376 16.7597 68.9589 17.1063 69.2016 17.349C69.4442 17.583 69.7779 17.7 70.2026 17.7ZM74.9035 19V11.85H76.4895V13.215H76.9315L76.4505 13.592C76.4592 13.02 76.6412 12.565 76.9965 12.227C77.3518 11.889 77.8242 11.72 78.4135 11.72C79.1155 11.72 79.6745 11.954 80.0905 12.422C80.5152 12.89 80.7275 13.5183 80.7275 14.307V19H79.1025V14.502C79.1025 14.06 78.9898 13.722 78.7645 13.488C78.5392 13.2453 78.2272 13.124 77.8285 13.124C77.4212 13.124 77.1005 13.2453 76.8665 13.488C76.6412 13.7307 76.5285 14.0773 76.5285 14.528V19H74.9035ZM84.1024 19V14.294H82.1394V12.825H84.1024V11.564C84.1024 10.94 84.3104 10.4417 84.7264 10.069C85.1424 9.69633 85.6928 9.51 86.3774 9.51H88.4704V10.94H86.4164C86.2084 10.94 86.0394 11.0007 85.9094 11.122C85.7881 11.2347 85.7274 11.3907 85.7274 11.59V12.825H88.4704V14.294H85.7274V19H84.1024ZM90.0903 19V17.531H92.5343V13.319H90.3503V11.85H94.1593V17.531H96.3563V19H90.0903ZM93.2363 10.654C92.907 10.654 92.647 10.5717 92.4563 10.407C92.2657 10.2337 92.1703 10.004 92.1703 9.718C92.1703 9.432 92.2657 9.20667 92.4563 9.042C92.647 8.86867 92.907 8.782 93.2363 8.782C93.5657 8.782 93.8257 8.86867 94.0163 9.042C94.207 9.20667 94.3023 9.432 94.3023 9.718C94.3023 10.004 94.207 10.2337 94.0163 10.407C93.8257 10.5717 93.5657 10.654 93.2363 10.654ZM98.6783 21.34V19.988H100.693C101.075 19.988 101.369 19.884 101.577 19.676C101.785 19.4767 101.889 19.2037 101.889 18.857V18.428L101.915 16.985H101.564L102.071 16.361C102.071 17.0457 101.885 17.5873 101.512 17.986C101.14 18.376 100.641 18.571 100.017 18.571C99.2893 18.571 98.7086 18.3283 98.2753 17.843C97.8506 17.349 97.6383 16.6817 97.6383 15.841V14.45C97.6383 13.618 97.8506 12.955 98.2753 12.461C98.7086 11.967 99.2893 11.72 100.017 11.72C100.641 11.72 101.14 11.9193 101.512 12.318C101.885 12.7167 102.071 13.2583 102.071 13.943L101.564 13.085H101.915V11.85H103.501V18.896C103.501 19.65 103.25 20.2437 102.747 20.677C102.253 21.119 101.577 21.34 100.719 21.34H98.6783ZM100.563 17.18C100.979 17.18 101.3 17.0587 101.525 16.816C101.759 16.5647 101.876 16.218 101.876 15.776V14.528C101.876 14.086 101.759 13.7437 101.525 13.501C101.3 13.2497 100.979 13.124 100.563 13.124C100.147 13.124 99.8266 13.2453 99.6013 13.488C99.3759 13.722 99.2633 14.0513 99.2633 14.476V15.828C99.2633 16.2527 99.3759 16.5863 99.6013 16.829C99.8266 17.063 100.147 17.18 100.563 17.18ZM108.215 19.13C107.609 19.13 107.08 19.013 106.629 18.779C106.179 18.545 105.828 18.2157 105.576 17.791C105.334 17.3577 105.212 16.8507 105.212 16.27V14.58C105.212 13.9993 105.334 13.4967 105.576 13.072C105.828 12.6387 106.179 12.305 106.629 12.071C107.08 11.837 107.609 11.72 108.215 11.72C108.813 11.72 109.333 11.837 109.775 12.071C110.226 12.305 110.573 12.6343 110.815 13.059C111.067 13.475 111.192 13.9647 111.192 14.528V15.828H106.772V16.322C106.772 16.8073 106.898 17.1757 107.149 17.427C107.401 17.6697 107.756 17.791 108.215 17.791C108.553 17.791 108.839 17.7347 109.073 17.622C109.316 17.5007 109.459 17.3273 109.502 17.102H111.114C111.002 17.7173 110.681 18.2113 110.152 18.584C109.624 18.948 108.978 19.13 108.215 19.13ZM109.632 14.905V14.515C109.632 14.021 109.511 13.6397 109.268 13.371C109.034 13.1023 108.683 12.968 108.215 12.968C107.747 12.968 107.388 13.1067 107.136 13.384C106.894 13.6527 106.772 14.034 106.772 14.528V14.775L109.749 14.762L109.632 14.905ZM115.152 19.13C114.459 19.13 113.895 18.883 113.462 18.389C113.037 17.895 112.825 17.232 112.825 16.4V14.463C112.825 13.6223 113.037 12.955 113.462 12.461C113.895 11.967 114.459 11.72 115.152 11.72C115.793 11.72 116.3 11.9237 116.673 12.331C117.046 12.7297 117.232 13.2757 117.232 13.969L116.751 13.293H117.128L117.076 11.512V9.51H118.701V19H117.115V17.557H116.751L117.219 16.881C117.219 17.5743 117.033 18.1247 116.66 18.532C116.296 18.9307 115.793 19.13 115.152 19.13ZM115.763 17.726C116.179 17.726 116.5 17.6003 116.725 17.349C116.959 17.0977 117.076 16.7423 117.076 16.283V14.567C117.076 14.1077 116.959 13.7523 116.725 13.501C116.5 13.2497 116.179 13.124 115.763 13.124C115.347 13.124 115.022 13.2367 114.788 13.462C114.563 13.6873 114.45 14.034 114.45 14.502V16.348C114.45 16.8073 114.563 17.154 114.788 17.388C115.022 17.6133 115.347 17.726 115.763 17.726Z" fill="#8B8D98"/>
</g>
<g filter="url(#filter1_b_10744_9868)">
<rect x="28" y="36" width="57" height="28" rx="8" fill="#F9F9FB" fill-opacity="0.48"/>
<rect x="28.5" y="36.5" width="56" height="27" rx="7.5" stroke="#E8E8EC"/>
<path d="M41.2765 42.9986C41.5221 42.906 41.7635 42.8334 42 42.8334C42.2365 42.8334 42.4779 42.906 42.7235 42.9986C42.9721 43.0924 43.2825 43.2302 43.6697 43.402C44.2387 43.6547 44.9899 43.9446 45.7955 44.1736C46.3833 44.3407 46.8587 44.4758 47.2188 44.6154C47.5807 44.7558 47.9087 44.9298 48.1295 45.2222C48.3435 45.5054 48.4257 45.8362 48.4635 46.193C48.5 46.5374 48.5 46.9694 48.5 47.4926V49.4556C48.5 51.4928 47.5803 53.1083 46.4689 54.3124C45.3608 55.5128 44.0408 56.3293 43.1707 56.7885L43.1287 56.8107C42.7582 57.0066 42.4553 57.1667 42 57.1667C41.5447 57.1667 41.2418 57.0066 40.8713 56.8107L40.8293 56.7885C39.9592 56.3293 38.6392 55.5128 37.5311 54.3124C36.4196 53.1083 35.5 51.4928 35.5 49.4556V47.4926C35.5 46.9695 35.5 46.5373 35.5365 46.193C35.5743 45.8362 35.6565 45.5054 35.8704 45.2222C36.0913 44.9298 36.4194 44.7558 36.7812 44.6154C37.1413 44.4758 37.6166 44.3407 38.2045 44.1736C39.0101 43.9446 39.7612 43.6547 40.3303 43.4021C40.7175 43.2302 41.0279 43.0924 41.2765 42.9986Z" fill="#6E56CF"/>
<path d="M45.9619 47.7777C46.0848 48.1247 45.9031 48.5057 45.556 48.6286C45.2003 48.7546 44.7893 49.0259 44.354 49.4077C43.9255 49.7834 43.5087 50.2348 43.1396 50.6773C42.7716 51.1183 42.4592 51.5408 42.2384 51.8534C42.1283 52.0094 41.8962 52.3577 41.8962 52.3577C41.7674 52.5604 41.5393 52.6783 41.2994 52.666C41.0594 52.6537 40.8447 52.5132 40.7372 52.2984C40.4434 51.7108 40.0738 51.3433 39.9377 51.3306C39.5988 51.2992 39.3335 51.014 39.3335 50.6669C39.3335 50.2987 39.632 50.0002 40.0002 50.0002C40.3683 50.0002 40.6037 50.1569 40.7866 50.2788C40.9695 50.4008 41.1612 50.5692 41.3538 50.7998C41.5639 50.5126 41.8228 50.1742 42.1157 49.8232C42.5112 49.349 42.9768 48.842 43.4748 48.4052C43.9659 47.9746 44.5255 47.5791 45.111 47.3718C45.458 47.2489 45.839 47.4306 45.9619 47.7777Z" fill="#D4CAFE"/>
<path d="M59.9416 55.13C59.3003 55.13 58.737 55.0173 58.2516 54.792C57.775 54.5667 57.4023 54.2417 57.1336 53.817C56.8736 53.3923 56.7436 52.894 56.7436 52.322H58.3426C58.3426 52.7467 58.4856 53.0847 58.7716 53.336C59.0663 53.5873 59.4563 53.713 59.9416 53.713C60.4096 53.713 60.778 53.5873 61.0466 53.336C61.324 53.0847 61.4626 52.7553 61.4626 52.348C61.4626 52.036 61.376 51.7587 61.2026 51.516C61.0293 51.2733 60.7736 51.113 60.4356 51.035L59.1616 50.71C58.477 50.5367 57.9353 50.2117 57.5366 49.735C57.138 49.2583 56.9386 48.6907 56.9386 48.032C56.9386 47.4947 57.0556 47.0267 57.2896 46.628C57.5323 46.2293 57.8703 45.9217 58.3036 45.705C58.7456 45.4883 59.2613 45.38 59.8506 45.38C60.4486 45.38 60.9686 45.4883 61.4106 45.705C61.8526 45.9217 62.195 46.2293 62.4376 46.628C62.689 47.018 62.8146 47.4773 62.8146 48.006H61.2286C61.2286 47.6333 61.103 47.3387 60.8516 47.122C60.6003 46.8967 60.2666 46.784 59.8506 46.784C59.4433 46.784 59.1183 46.8967 58.8756 47.122C58.6416 47.3387 58.5246 47.6247 58.5246 47.98C58.5246 48.2747 58.607 48.5173 58.7716 48.708C58.945 48.8987 59.1833 49.0373 59.4866 49.124L60.7996 49.449C61.5016 49.6223 62.052 49.969 62.4506 50.489C62.858 51.009 63.0616 51.6287 63.0616 52.348C63.0616 52.9113 62.9316 53.401 62.6716 53.817C62.4203 54.233 62.0606 54.558 61.5926 54.792C61.1246 55.0173 60.5743 55.13 59.9416 55.13ZM67.5415 55.13C66.9002 55.13 66.3369 55.0173 65.8515 54.792C65.3749 54.5667 65.0022 54.2417 64.7335 53.817C64.4735 53.3923 64.3435 52.894 64.3435 52.322H65.9425C65.9425 52.7467 66.0855 53.0847 66.3715 53.336C66.6662 53.5873 67.0562 53.713 67.5415 53.713C68.0095 53.713 68.3779 53.5873 68.6465 53.336C68.9239 53.0847 69.0625 52.7553 69.0625 52.348C69.0625 52.036 68.9759 51.7587 68.8025 51.516C68.6292 51.2733 68.3735 51.113 68.0355 51.035L66.7615 50.71C66.0769 50.5367 65.5352 50.2117 65.1365 49.735C64.7379 49.2583 64.5385 48.6907 64.5385 48.032C64.5385 47.4947 64.6555 47.0267 64.8895 46.628C65.1322 46.2293 65.4702 45.9217 65.9035 45.705C66.3455 45.4883 66.8612 45.38 67.4505 45.38C68.0485 45.38 68.5685 45.4883 69.0105 45.705C69.4525 45.9217 69.7949 46.2293 70.0375 46.628C70.2889 47.018 70.4145 47.4773 70.4145 48.006H68.8285C68.8285 47.6333 68.7029 47.3387 68.4515 47.122C68.2002 46.8967 67.8665 46.784 67.4505 46.784C67.0432 46.784 66.7182 46.8967 66.4755 47.122C66.2415 47.3387 66.1245 47.6247 66.1245 47.98C66.1245 48.2747 66.2069 48.5173 66.3715 48.708C66.5449 48.8987 66.7832 49.0373 67.0865 49.124L68.3995 49.449C69.1015 49.6223 69.6519 49.969 70.0505 50.489C70.4579 51.009 70.6615 51.6287 70.6615 52.348C70.6615 52.9113 70.5315 53.401 70.2715 53.817C70.0202 54.233 69.6605 54.558 69.1925 54.792C68.7245 55.0173 68.1742 55.13 67.5415 55.13ZM72.7755 55V45.51H74.4005V53.531H78.4305V55H72.7755Z" fill="#8B8D98"/>
</g>
<g filter="url(#filter2_b_10744_9868)">
<rect x="28" y="72" width="57" height="28" rx="8" fill="#F9F9FB" fill-opacity="0.48"/>
<rect x="28.5" y="72.5" width="56" height="27" rx="7.5" stroke="#E8E8EC"/>
<g clip-path="url(#clip1_10744_9868)">
<path d="M34.8335 86C34.8335 84.1447 36.1513 82.5977 37.9022 82.2431C38.2584 80.3031 39.9574 78.8334 42.0002 78.8334C44.2574 78.8334 46.0954 80.6282 46.1648 82.8685C47.862 83.1103 49.1668 84.5694 49.1668 86.3334C49.1668 88.2664 47.5998 89.8334 45.6668 89.8334H38.6668C36.5497 89.8334 34.8335 88.1171 34.8335 86Z" fill="#6E56CF"/>
<path d="M41.5002 89.8334V90.5H41.3335C40.805 90.5 40.3586 90.8514 40.2151 91.3334H37.3335C37.0574 91.3334 36.8335 91.5572 36.8335 91.8334C36.8335 92.1095 37.0574 92.3334 37.3335 92.3334H40.2151C40.3586 92.8153 40.805 93.1667 41.3335 93.1667H42.6668C43.1954 93.1667 43.6418 92.8153 43.7852 92.3334H46.6668C46.943 92.3334 47.1668 92.1095 47.1668 91.8334C47.1668 91.5572 46.943 91.3334 46.6668 91.3334H43.7852C43.6418 90.8514 43.1954 90.5 42.6668 90.5H42.5002V89.8334H41.5002Z" fill="#D4CAFE"/>
</g>
<path d="M60.0066 91.13C59.4 91.13 58.867 91.0173 58.4076 90.792C57.957 90.558 57.606 90.233 57.3546 89.817C57.112 89.3923 56.9906 88.894 56.9906 88.322V84.188C56.9906 83.6073 57.112 83.109 57.3546 82.693C57.606 82.277 57.957 81.9563 58.4076 81.731C58.867 81.497 59.4 81.38 60.0066 81.38C60.622 81.38 61.1506 81.497 61.5926 81.731C62.0433 81.9563 62.3943 82.2813 62.6456 82.706C62.897 83.122 63.0226 83.616 63.0226 84.188H61.3846C61.3846 83.7373 61.2633 83.395 61.0206 83.161C60.7866 82.927 60.4486 82.81 60.0066 82.81C59.5646 82.81 59.2223 82.927 58.9796 83.161C58.737 83.395 58.6156 83.7373 58.6156 84.188V88.322C58.6156 88.764 58.737 89.1063 58.9796 89.349C59.2223 89.583 59.5646 89.7 60.0066 89.7C60.4486 89.7 60.7866 89.583 61.0206 89.349C61.2633 89.1063 61.3846 88.764 61.3846 88.322H63.0226C63.0226 88.8853 62.897 89.3793 62.6456 89.804C62.3943 90.2287 62.0433 90.558 61.5926 90.792C61.1506 91.0173 60.622 91.13 60.0066 91.13ZM64.5775 91V81.51H67.3985C68.0399 81.51 68.5945 81.6313 69.0625 81.874C69.5392 82.1167 69.9075 82.459 70.1675 82.901C70.4275 83.343 70.5575 83.8673 70.5575 84.474V88.023C70.5575 88.621 70.4275 89.1453 70.1675 89.596C69.9075 90.038 69.5392 90.3847 69.0625 90.636C68.5945 90.8787 68.0399 91 67.3985 91H64.5775ZM66.2025 89.544H67.3985C67.8665 89.544 68.2392 89.4053 68.5165 89.128C68.7939 88.8507 68.9325 88.4823 68.9325 88.023V84.474C68.9325 84.0147 68.7939 83.6507 68.5165 83.382C68.2392 83.1047 67.8665 82.966 67.3985 82.966H66.2025V89.544ZM72.1385 91V81.51H74.1275L76.7665 89.18C76.7405 88.9027 76.7101 88.5777 76.6755 88.205C76.6495 87.8237 76.6278 87.438 76.6105 87.048C76.5931 86.6493 76.5845 86.3027 76.5845 86.008V81.51H78.0665V91H76.0775L73.4645 83.33C73.4818 83.5813 73.5035 83.8847 73.5295 84.24C73.5555 84.5953 73.5771 84.9593 73.5945 85.332C73.6118 85.7047 73.6205 86.047 73.6205 86.359V91H72.1385Z" fill="#8B8D98"/>
</g>
<g filter="url(#filter3_b_10744_9868)">
<rect x="28" y="108" width="73" height="28" rx="8" fill="#F9F9FB" fill-opacity="0.48"/>
<rect x="28.5" y="108.5" width="72" height="27" rx="7.5" stroke="#E8E8EC"/>
<path d="M39.0167 119.567C39.9689 119.523 40.936 119.5 41.9998 119.5C43.0637 119.5 44.0308 119.523 44.983 119.567C46.355 119.63 47.4691 120.692 47.6502 122.037C47.7489 122.77 47.8332 123.541 47.8332 124.333C47.8332 125.125 47.7489 125.896 47.6502 126.63C47.4691 127.975 46.355 129.037 44.983 129.1C44.0308 129.144 43.0637 129.167 41.9998 129.167C40.936 129.167 39.9689 129.144 39.0167 129.1C37.6446 129.037 36.5306 127.975 36.3495 126.63C36.2507 125.896 36.1665 125.125 36.1665 124.333C36.1665 123.541 36.2507 122.77 36.3495 122.037C36.5306 120.692 37.6446 119.63 39.0167 119.567Z" fill="#6E56CF"/>
<path fill-rule="evenodd" clip-rule="evenodd" d="M42.0002 123C42.3684 123 42.6668 123.298 42.6668 123.667V125C42.6668 125.368 42.3684 125.667 42.0002 125.667C41.632 125.667 41.3335 125.368 41.3335 125V123.667C41.3335 123.298 41.632 123 42.0002 123Z" fill="#D4CAFE"/>
<path d="M39.6668 118.5C39.6668 117.211 40.7115 116.167 42.0002 116.167C43.2888 116.167 44.3335 117.211 44.3335 118.5V119.54C44.5515 119.548 44.7678 119.557 44.9834 119.567C45.22 119.578 45.449 119.618 45.6668 119.685V118.5C45.6668 116.475 44.0252 114.833 42.0002 114.833C39.9751 114.833 38.3335 116.475 38.3335 118.5V119.685C38.5513 119.618 38.7803 119.578 39.017 119.567C39.2325 119.557 39.4488 119.548 39.6668 119.54V118.5Z" fill="#6E56CF"/>
<path d="M57.4037 127V117.51H59.0287V121.358H61.5767V117.51H63.2017V127H61.5767V122.827H59.0287V127H57.4037ZM67.0836 127V118.979H64.6006V117.51H71.2046V118.979H68.7216V127H67.0836ZM74.6835 127V118.979H72.2005V117.51H78.8045V118.979H76.3215V127H74.6835ZM80.2035 127V117.51H83.3625C83.9951 117.51 84.5455 117.631 85.0135 117.874C85.4901 118.117 85.8585 118.459 86.1185 118.901C86.3785 119.334 86.5085 119.846 86.5085 120.435C86.5085 121.016 86.3741 121.527 86.1055 121.969C85.8455 122.411 85.4815 122.753 85.0135 122.996C84.5455 123.239 83.9951 123.36 83.3625 123.36H81.8285V127H80.2035ZM81.8285 121.93H83.3625C83.8131 121.93 84.1728 121.791 84.4415 121.514C84.7188 121.237 84.8575 120.877 84.8575 120.435C84.8575 119.984 84.7188 119.625 84.4415 119.356C84.1728 119.079 83.8131 118.94 83.3625 118.94H81.8285V121.93ZM90.7414 127.13C90.1 127.13 89.5367 127.017 89.0514 126.792C88.5747 126.567 88.202 126.242 87.9334 125.817C87.6734 125.392 87.5434 124.894 87.5434 124.322H89.1424C89.1424 124.747 89.2854 125.085 89.5714 125.336C89.866 125.587 90.256 125.713 90.7414 125.713C91.2094 125.713 91.5777 125.587 91.8464 125.336C92.1237 125.085 92.2624 124.755 92.2624 124.348C92.2624 124.036 92.1757 123.759 92.0024 123.516C91.829 123.273 91.5734 123.113 91.2354 123.035L89.9614 122.71C89.2767 122.537 88.735 122.212 88.3364 121.735C87.9377 121.258 87.7384 120.691 87.7384 120.032C87.7384 119.495 87.8554 119.027 88.0894 118.628C88.332 118.229 88.67 117.922 89.1034 117.705C89.5454 117.488 90.061 117.38 90.6504 117.38C91.2484 117.38 91.7684 117.488 92.2104 117.705C92.6524 117.922 92.9947 118.229 93.2374 118.628C93.4887 119.018 93.6144 119.477 93.6144 120.006H92.0284C92.0284 119.633 91.9027 119.339 91.6514 119.122C91.4 118.897 91.0664 118.784 90.6504 118.784C90.243 118.784 89.918 118.897 89.6754 119.122C89.4414 119.339 89.3244 119.625 89.3244 119.98C89.3244 120.275 89.4067 120.517 89.5714 120.708C89.7447 120.899 89.983 121.037 90.2864 121.124L91.5994 121.449C92.3014 121.622 92.8517 121.969 93.2504 122.489C93.6577 123.009 93.8614 123.629 93.8614 124.348C93.8614 124.911 93.7314 125.401 93.4714 125.817C93.22 126.233 92.8604 126.558 92.3924 126.792C91.9244 127.017 91.374 127.13 90.7414 127.13Z" fill="#8B8D98"/>
</g>
<line x1="13.5" y1="28" x2="13.5" y2="123" stroke="#E8E8EC"/>
<line x1="13" y1="50.5" x2="28" y2="50.5" stroke="#E8E8EC"/>
<line x1="13" y1="85.5" x2="28" y2="85.5" stroke="#E8E8EC"/>
<line x1="13" y1="122.5" x2="28" y2="122.5" stroke="#E8E8EC"/>
<defs>
<filter id="filter0_b_10744_9868" x="-12" y="-12" width="150" height="52" filterUnits="userSpaceOnUse" color-interpolation-filters="sRGB">
<feFlood flood-opacity="0" result="BackgroundImageFix"/>
<feGaussianBlur in="BackgroundImageFix" stdDeviation="6"/>
<feComposite in2="SourceAlpha" operator="in" result="effect1_backgroundBlur_10744_9868"/>
<feBlend mode="normal" in="SourceGraphic" in2="effect1_backgroundBlur_10744_9868" result="shape"/>
</filter>
<filter id="filter1_b_10744_9868" x="16" y="24" width="81" height="52" filterUnits="userSpaceOnUse" color-interpolation-filters="sRGB">
<feFlood flood-opacity="0" result="BackgroundImageFix"/>
<feGaussianBlur in="BackgroundImageFix" stdDeviation="6"/>
<feComposite in2="SourceAlpha" operator="in" result="effect1_backgroundBlur_10744_9868"/>
<feBlend mode="normal" in="SourceGraphic" in2="effect1_backgroundBlur_10744_9868" result="shape"/>
</filter>
<filter id="filter2_b_10744_9868" x="16" y="60" width="81" height="52" filterUnits="userSpaceOnUse" color-interpolation-filters="sRGB">
<feFlood flood-opacity="0" result="BackgroundImageFix"/>
<feGaussianBlur in="BackgroundImageFix" stdDeviation="6"/>
<feComposite in2="SourceAlpha" operator="in" result="effect1_backgroundBlur_10744_9868"/>
<feBlend mode="normal" in="SourceGraphic" in2="effect1_backgroundBlur_10744_9868" result="shape"/>
</filter>
<filter id="filter3_b_10744_9868" x="16" y="96" width="97" height="52" filterUnits="userSpaceOnUse" color-interpolation-filters="sRGB">
<feFlood flood-opacity="0" result="BackgroundImageFix"/>
<feGaussianBlur in="BackgroundImageFix" stdDeviation="6"/>
<feComposite in2="SourceAlpha" operator="in" result="effect1_backgroundBlur_10744_9868"/>
<feBlend mode="normal" in="SourceGraphic" in2="effect1_backgroundBlur_10744_9868" result="shape"/>
</filter>
<clipPath id="clip0_10744_9868">
<rect width="16" height="16" fill="white" transform="translate(6 6)"/>
</clipPath>
<clipPath id="clip1_10744_9868">
<rect width="16" height="16" fill="white" transform="translate(34 78)"/>
</clipPath>
</defs>
</svg>
