<svg xmlns="http://www.w3.org/2000/svg" width="320" height="232" fill="none" viewBox="0 0 320 232"><g filter="url(#a)"><g clip-path="url(#b)"><rect width="216" height="112" x="52" y="60" fill="#fff" rx="12"/><mask id="c" fill="#fff"><path d="M52 60h216v36H52z"/></mask><path fill="#F4F0FE" d="M268 95H52v2h216z" mask="url(#c)"/><rect width="138" height="10" x="68" y="73" fill="#D4CAFE" rx="5"/><path fill="#D4CAFE" d="M243.392 76.94a.67.67 0 0 0 .608.393h8a.668.668 0 0 0 .5-1.108l-.001-.001-.134-.148a32 32 0 0 0-1.508-1.557 15 15 0 0 0-1.392-1.202 5 5 0 0 0-.691-.436c-.214-.108-.487-.214-.774-.214s-.56.106-.774.214a5 5 0 0 0-.691.436c-.458.338-.949.777-1.392 1.202a32 32 0 0 0-1.641 1.705h-.001a.67.67 0 0 0-.109.717" opacity=".4"/><path fill="#D4CAFE" d="M243.392 79.06a.67.67 0 0 1 .608-.393h8a.668.668 0 0 1 .5 1.108l-.001.001-.134.148a32 32 0 0 1-1.508 1.557c-.443.425-.934.864-1.392 1.202a5 5 0 0 1-.691.436c-.214.108-.487.214-.774.214s-.56-.106-.774-.214a5 5 0 0 1-.691-.436 15 15 0 0 1-1.392-1.202 32 32 0 0 1-1.641-1.705h-.001a.67.67 0 0 1-.109-.717"/><rect width="125" height="10" x="68" y="109" fill="#D4CAFE" rx="5"/><path fill="#D4CAFE" d="M243.392 118.941a.67.67 0 0 0 .608.392h8a.667.667 0 0 0 .5-1.108l-.001-.001-.134-.148a32 32 0 0 0-1.508-1.557 15 15 0 0 0-1.392-1.202 5 5 0 0 0-.691-.436c-.214-.108-.487-.214-.774-.214s-.56.106-.774.214a5 5 0 0 0-.691.436c-.458.338-.949.777-1.392 1.202a32 32 0 0 0-1.641 1.705l-.001.001a.67.67 0 0 0-.109.716"/><path fill="#D4CAFE" d="M243.392 109.059a.67.67 0 0 1 .608-.392h8a.667.667 0 0 1 .5 1.108l-.001.001-.134.148a32 32 0 0 1-1.508 1.557c-.443.425-.934.864-1.392 1.202a5 5 0 0 1-.691.436c-.214.108-.487.214-.774.214s-.56-.106-.774-.214a5 5 0 0 1-.691-.436 15 15 0 0 1-1.392-1.202 32 32 0 0 1-1.641-1.705l-.001-.001a.67.67 0 0 1-.109-.716" opacity=".4"/><rect width="152" height="10" x="68" y="129" fill="#EBE4FF" rx="5"/><rect width="125" height="10" x="68" y="149" fill="#EBE4FF" rx="5"/></g></g><defs><clipPath id="b"><rect width="216" height="112" x="52" y="60" fill="#fff" rx="12"/></clipPath><filter id="a" width="256" height="152" x="32" y="52" color-interpolation-filters="sRGB" filterUnits="userSpaceOnUse"><feFlood flood-opacity="0" result="BackgroundImageFix"/><feColorMatrix in="SourceAlpha" result="hardAlpha" values="0 0 0 0 0 0 0 0 0 0 0 0 0 0 0 0 0 0 127 0"/><feOffset dy="12"/><feGaussianBlur stdDeviation="10"/><feComposite in2="hardAlpha" operator="out"/><feColorMatrix values="0 0 0 0 0 0 0 0 0 0 0 0 0 0 0 0 0 0 0.03 0"/><feBlend in2="BackgroundImageFix" result="effect1_dropShadow_10061_23119"/><feColorMatrix in="SourceAlpha" result="hardAlpha" values="0 0 0 0 0 0 0 0 0 0 0 0 0 0 0 0 0 0 127 0"/><feOffset dy="2"/><feGaussianBlur stdDeviation="3"/><feComposite in2="hardAlpha" operator="out"/><feColorMatrix values="0 0 0 0 0 0 0 0 0 0 0 0 0 0 0 0 0 0 0.05 0"/><feBlend in2="effect1_dropShadow_10061_23119" result="effect2_dropShadow_10061_23119"/><feBlend in="SourceGraphic" in2="effect2_dropShadow_10061_23119" result="shape"/></filter></defs></svg>