<svg width="16" height="16" viewBox="0 0 16 16" fill="none" xmlns="http://www.w3.org/2000/svg">
<g clip-path="url(#clip0_95_4529)">
<path opacity="0.33" d="M8.75488 12C8.75488 9.99926 10.3768 8.37735 12.3775 8.37735C14.3783 8.37735 16.0002 9.99926 16.0002 12C16.0002 14.0007 14.3783 15.6226 12.3775 15.6226C10.3768 15.6226 8.75488 14.0007 8.75488 12Z" fill="#494369"/>
<path opacity="0.66" d="M3.62264 8.37735C1.62191 8.37735 0 9.99926 0 12C0 14.0007 1.62191 15.6226 3.62264 15.6226C5.62337 15.6226 7.24528 14.0007 7.24528 12C7.24528 9.99926 5.62337 8.37735 3.62264 8.37735Z" fill="#494369"/>
<path d="M8.00008 0.37735C5.99935 0.37735 4.37744 1.99926 4.37744 3.99999C4.37744 6.00072 5.99935 7.62263 8.00008 7.62263C10.0008 7.62263 11.6227 6.00072 11.6227 3.99999C11.6227 1.99926 10.0008 0.37735 8.00008 0.37735Z" fill="#494369"/>
</g>
<defs>
<clipPath id="clip0_95_4529">
<rect width="16" height="16" fill="white"/>
</clipPath>
</defs>
</svg>
