<svg xmlns="http://www.w3.org/2000/svg" width="320" height="232" fill="none" viewBox="0 0 320 232"><g filter="url(#a)"><g clip-path="url(#b)"><rect width="216" height="108" x="52" y="62" fill="#fff" rx="12"/><path fill="#FAF8FF" d="M110.5 128.006c-27.557 0-36.947 25.494-62.5 25.494v19h243l2-21.5h-8.518c-40.583 0-42.927-31-69.482-31s-35.243 31-52 31-24.943-22.994-52.5-22.994"/><rect width="18" height="36" x="82" y="126" fill="#EBE4FF" rx="4"/><rect width="18" height="42" x="128" y="120" fill="#EBE4FF" rx="4"/><rect width="18" height="24" x="174" y="138" fill="#EBE4FF" rx="4"/><rect width="18" height="56" x="220" y="106" fill="#EBE4FF" rx="4"/><path stroke="#D4CAFE" stroke-linecap="round" stroke-width="2" d="M276 90c-25.5 0-39.5 59.5-67 59.5S177.5 110 158 110s-23.5 31-50 31-25.5-34-66-34"/></g></g><defs><clipPath id="b"><rect width="216" height="108" x="52" y="62" fill="#fff" rx="12"/></clipPath><filter id="a" width="256" height="148" x="32" y="54" color-interpolation-filters="sRGB" filterUnits="userSpaceOnUse"><feFlood flood-opacity="0" result="BackgroundImageFix"/><feColorMatrix in="SourceAlpha" result="hardAlpha" values="0 0 0 0 0 0 0 0 0 0 0 0 0 0 0 0 0 0 127 0"/><feOffset dy="12"/><feGaussianBlur stdDeviation="10"/><feComposite in2="hardAlpha" operator="out"/><feColorMatrix values="0 0 0 0 0 0 0 0 0 0 0 0 0 0 0 0 0 0 0.03 0"/><feBlend in2="BackgroundImageFix" result="effect1_dropShadow_10191_39547"/><feColorMatrix in="SourceAlpha" result="hardAlpha" values="0 0 0 0 0 0 0 0 0 0 0 0 0 0 0 0 0 0 127 0"/><feOffset dy="2"/><feGaussianBlur stdDeviation="3"/><feComposite in2="hardAlpha" operator="out"/><feColorMatrix values="0 0 0 0 0 0 0 0 0 0 0 0 0 0 0 0 0 0 0.05 0"/><feBlend in2="effect1_dropShadow_10191_39547" result="effect2_dropShadow_10191_39547"/><feBlend in="SourceGraphic" in2="effect2_dropShadow_10191_39547" result="shape"/></filter></defs></svg>