<svg xmlns="http://www.w3.org/2000/svg" width="320" height="232" fill="none" viewBox="0 0 320 232"><g filter="url(#a)"><rect width="216" height="108" x="52" y="62" fill="#fff" rx="12"/><path fill="#EBE4FF" d="M192 116c2.209 0 4.023 1.796 3.778 3.992a36.004 36.004 0 0 1-42.801 31.316 36 36 0 0 1-28.285-28.285 36.003 36.003 0 0 1 31.316-42.801C158.204 79.977 160 81.791 160 84v28a4 4 0 0 0 4 4z"/><path fill="#D4CAFE" stroke="#fff" stroke-width="2" d="M164.103 79.228C161.24 78.908 159 81.272 159 84v28a5 5 0 0 0 5 5h28c2.728 0 5.091-2.24 4.772-5.103a37 37 0 0 0-32.669-32.669Z"/></g><defs><filter id="a" width="256" height="148" x="32" y="54" color-interpolation-filters="sRGB" filterUnits="userSpaceOnUse"><feFlood flood-opacity="0" result="BackgroundImageFix"/><feColorMatrix in="SourceAlpha" result="hardAlpha" values="0 0 0 0 0 0 0 0 0 0 0 0 0 0 0 0 0 0 127 0"/><feOffset dy="12"/><feGaussianBlur stdDeviation="10"/><feComposite in2="hardAlpha" operator="out"/><feColorMatrix values="0 0 0 0 0 0 0 0 0 0 0 0 0 0 0 0 0 0 0.03 0"/><feBlend in2="BackgroundImageFix" result="effect1_dropShadow_10191_39749"/><feColorMatrix in="SourceAlpha" result="hardAlpha" values="0 0 0 0 0 0 0 0 0 0 0 0 0 0 0 0 0 0 127 0"/><feOffset dy="2"/><feGaussianBlur stdDeviation="3"/><feComposite in2="hardAlpha" operator="out"/><feColorMatrix values="0 0 0 0 0 0 0 0 0 0 0 0 0 0 0 0 0 0 0.05 0"/><feBlend in2="effect1_dropShadow_10191_39749" result="effect2_dropShadow_10191_39749"/><feBlend in="SourceGraphic" in2="effect2_dropShadow_10191_39749" result="shape"/></filter></defs></svg>