<svg xmlns="http://www.w3.org/2000/svg" width="320" height="232" fill="none" viewBox="0 0 320 232"><g filter="url(#a)"><rect width="216" height="108" x="52" y="62" fill="#fff" rx="12"/><path fill="#FAF8FF" d="M196 116c0 19.882-16.118 36-36 36s-36-16.118-36-36 16.118-36 36-36 36 16.118 36 36m-64.014 0c0 15.472 12.542 28.014 28.014 28.014s28.014-12.542 28.014-28.014S175.472 87.986 160 87.986 131.986 100.528 131.986 116"/><path fill="#FAF8FF" d="M186 116c0 14.359-11.641 26-26 26s-26-11.641-26-26 11.641-26 26-26 26 11.641 26 26m-43.997 0c0 9.939 8.058 17.997 17.997 17.997s17.997-8.058 17.997-17.997S169.939 98.003 160 98.003s-17.997 8.058-17.997 17.997"/><path fill="#FAF8FF" d="M176 116c0 8.837-7.163 16-16 16s-16-7.163-16-16 7.163-16 16-16 16 7.163 16 16m-24.059 0a8.059 8.059 0 1 0 16.118 0 8.059 8.059 0 1 0-16.118 0"/><path fill="#EBE4FF" d="M169.188 85.34c.633-2.113 2.87-3.332 4.899-2.47a36 36 0 1 1-47.847 20.63c.766-2.068 3.188-2.858 5.159-1.868s2.735 3.385 2.035 5.476a28.02 28.02 0 0 0 6.186 28.114 28.02 28.02 0 0 0 44.221-4.51 28.016 28.016 0 0 0-12.069-40.133c-2.001-.927-3.217-3.127-2.584-5.24"/><path fill="#D4CAFE" d="M166.315 94.927c.634-2.116-.568-4.38-2.757-4.682a26 26 0 1 0 21.709 31.885c.521-2.147-1.145-4.095-3.347-4.281s-4.095 1.474-4.762 3.58a17.996 17.996 0 1 1-15.919-23.383c2.203.152 4.441-1.002 5.076-3.119"/><path fill="#EBE4FF" d="M153.612 105.807c-1.165-1.858-.606-4.364 1.481-5.036a15.999 15.999 0 1 1-10.684 18.825c-.493-2.136 1.372-3.901 3.564-3.854s3.851 1.963 4.846 3.917q.309.605.718 1.155a8.06 8.06 0 0 0 9.548 2.631 8.06 8.06 0 0 0 2.488-13.267 8.06 8.06 0 0 0-6.114-2.219c-2.188.147-4.683-.294-5.847-2.152"/></g><defs><filter id="a" width="256" height="148" x="32" y="54" color-interpolation-filters="sRGB" filterUnits="userSpaceOnUse"><feFlood flood-opacity="0" result="BackgroundImageFix"/><feColorMatrix in="SourceAlpha" result="hardAlpha" values="0 0 0 0 0 0 0 0 0 0 0 0 0 0 0 0 0 0 127 0"/><feOffset dy="12"/><feGaussianBlur stdDeviation="10"/><feComposite in2="hardAlpha" operator="out"/><feColorMatrix values="0 0 0 0 0 0 0 0 0 0 0 0 0 0 0 0 0 0 0.03 0"/><feBlend in2="BackgroundImageFix" result="effect1_dropShadow_10191_39834"/><feColorMatrix in="SourceAlpha" result="hardAlpha" values="0 0 0 0 0 0 0 0 0 0 0 0 0 0 0 0 0 0 127 0"/><feOffset dy="2"/><feGaussianBlur stdDeviation="3"/><feComposite in2="hardAlpha" operator="out"/><feColorMatrix values="0 0 0 0 0 0 0 0 0 0 0 0 0 0 0 0 0 0 0.05 0"/><feBlend in2="effect1_dropShadow_10191_39834" result="effect2_dropShadow_10191_39834"/><feBlend in="SourceGraphic" in2="effect2_dropShadow_10191_39834" result="shape"/></filter></defs></svg>