<svg xmlns="http://www.w3.org/2000/svg" width="320" height="232" fill="none" viewBox="0 0 320 232"><path fill="#AA99EC" d="M158.322 102.626c1.145-.879 2.507-1.593 3.959-.979 1.439.608 1.901 2.074 2.101 3.516.204 1.478.204 3.513.204 6.043v9.593c0 2.53 0 4.565-.204 6.043-.2 1.442-.662 2.908-2.101 3.516-1.452.614-2.814-.1-3.959-.979-1.171-.899-2.658-2.418-4.408-4.205-.899-.918-1.496-1.362-2.1-1.612-.608-.251-1.346-.357-2.634-.357-1.115 0-2.111 0-2.866-.079-.792-.082-1.527-.261-2.188-.712-1.259-.859-1.741-2.118-1.924-3.274-.136-.863-.121-1.81-.108-2.573v-1.129c-.013-.763-.028-1.71.108-2.573.183-1.156.665-2.415 1.924-3.274.661-.451 1.396-.63 2.188-.712.755-.079 1.751-.079 2.866-.079 1.288 0 2.026-.106 2.634-.357.604-.25 1.201-.694 2.1-1.612 1.75-1.787 3.237-3.306 4.408-4.205"/><path fill="#AA99EC" fill-rule="evenodd" d="M167.32 109.675a1.667 1.667 0 0 1 2.336.314 9.9 9.9 0 0 1 2.008 6.011 9.9 9.9 0 0 1-2.008 6.011 1.666 1.666 0 1 1-2.65-2.022 6.56 6.56 0 0 0 1.325-3.989c0-1.525-.502-2.91-1.325-3.989a1.666 1.666 0 0 1 .314-2.336" clip-rule="evenodd"/><path fill="#AA99EC" fill-rule="evenodd" d="M172.205 106.437a1.667 1.667 0 0 1 2.355.104c2.339 2.554 3.771 5.846 3.771 9.459s-1.432 6.905-3.771 9.459a1.667 1.667 0 0 1-2.458-2.251c1.83-2 2.895-4.506 2.895-7.208s-1.065-5.208-2.895-7.208a1.666 1.666 0 0 1 .103-2.355" clip-rule="evenodd"/></svg>