<svg xmlns="http://www.w3.org/2000/svg" width="320" height="232" fill="none" viewBox="0 0 320 232"><g filter="url(#a)"><rect width="164" height="40" x="78.5" y="94" fill="#140E2B" rx="12"/><rect width="52" height="32" x="82.5" y="98" fill="#5F43D0" rx="10"/><path fill="#16112C" d="M103.344 119.126q-1.96 0-3.136-.868-1.176-.882-1.372-2.478h2.072q.098.812.784 1.288.686.462 1.75.462.868 0 1.33-.308.476-.308.476-.826 0-.49-.28-.784-.28-.308-.966-.49l-1.876-.518q-1.442-.406-2.114-1.106-.658-.714-.658-1.778 0-.91.462-1.568.476-.672 1.33-1.022.854-.364 2.002-.364 1.764 0 2.814.84 1.05.826 1.19 2.198h-2.072q-.14-.742-.686-1.092-.532-.35-1.372-.35-.728 0-1.162.28t-.434.756q0 .364.238.672.238.294.994.504l1.876.518q1.484.406 2.128 1.12.658.7.658 1.778 0 1.512-1.05 2.324t-2.926.812m9.588.014q-1.092 0-2.016-.378a4.9 4.9 0 0 1-1.61-1.092 5 5 0 0 1-1.05-1.652 5.7 5.7 0 0 1-.378-2.1q0-1.134.364-2.072a4.9 4.9 0 0 1 1.05-1.624 4.6 4.6 0 0 1 1.61-1.064 5.3 5.3 0 0 1 2.03-.378q1.245 0 2.24.49 1.008.476 1.638 1.358.643.868.784 2.044h-2.1q-.183-1.078-.882-1.624-.7-.56-1.666-.56-.855 0-1.512.406-.645.406-1.008 1.176-.364.756-.364 1.834 0 1.092.364 1.89.378.784 1.036 1.218.657.42 1.512.42.91 0 1.61-.546t.91-1.624h2.128q-.183 1.176-.826 2.058a4.35 4.35 0 0 1-1.638 1.344q-.995.476-2.226.476"/><path fill="#5F43D0" d="M155.344 119.126q-1.96 0-3.136-.868-1.176-.882-1.372-2.478h2.072q.098.812.784 1.288.686.462 1.75.462.868 0 1.33-.308.476-.308.476-.826 0-.49-.28-.784-.28-.308-.966-.49l-1.876-.518q-1.442-.406-2.114-1.106-.658-.714-.658-1.778 0-.91.462-1.568.476-.672 1.33-1.022.854-.364 2.002-.364 1.764 0 2.814.84 1.05.826 1.19 2.198h-2.072q-.14-.742-.686-1.092-.532-.35-1.372-.35-.728 0-1.162.28t-.434.756q0 .364.238.672.238.294.994.504l1.876.518q1.484.406 2.128 1.12.658.7.658 1.778 0 1.512-1.05 2.324t-2.926.812m9.588.014q-1.092 0-2.016-.378a4.9 4.9 0 0 1-1.61-1.092 5 5 0 0 1-1.05-1.652 5.7 5.7 0 0 1-.378-2.1q0-1.134.364-2.072a4.9 4.9 0 0 1 1.05-1.624 4.6 4.6 0 0 1 1.61-1.064 5.3 5.3 0 0 1 2.03-.378q1.245 0 2.24.49 1.008.476 1.638 1.358.643.868.784 2.044h-2.1q-.183-1.078-.882-1.624-.7-.56-1.666-.56-.855 0-1.512.406-.645.406-1.008 1.176-.364.756-.364 1.834 0 1.092.364 1.89.378.784 1.036 1.218.657.42 1.512.42.91 0 1.61-.546t.91-1.624h2.128q-.183 1.176-.826 2.058a4.35 4.35 0 0 1-1.638 1.344q-.995.476-2.226.476m42.412-.014q-1.96 0-3.136-.868-1.176-.882-1.372-2.478h2.072q.098.812.784 1.288.686.462 1.75.462.868 0 1.33-.308.476-.308.476-.826 0-.49-.28-.784-.28-.308-.966-.49l-1.876-.518q-1.442-.406-2.114-1.106-.658-.714-.658-1.778 0-.91.462-1.568.476-.672 1.33-1.022.854-.364 2.002-.364 1.764 0 2.814.84 1.05.826 1.19 2.198h-2.072q-.14-.742-.686-1.092-.532-.35-1.372-.35-.728 0-1.162.28t-.434.756q0 .364.238.672.238.294.994.504l1.876.518q1.484.406 2.128 1.12.658.7.658 1.778 0 1.512-1.05 2.324t-2.926.812m9.588.014q-1.092 0-2.016-.378a4.9 4.9 0 0 1-1.61-1.092 5 5 0 0 1-1.05-1.652 5.7 5.7 0 0 1-.378-2.1q0-1.134.364-2.072a4.9 4.9 0 0 1 1.05-1.624 4.6 4.6 0 0 1 1.61-1.064 5.3 5.3 0 0 1 2.03-.378q1.245 0 2.24.49 1.008.476 1.638 1.358.643.868.784 2.044h-2.1q-.183-1.078-.882-1.624-.7-.56-1.666-.56-.855 0-1.512.406-.645.406-1.008 1.176-.364.756-.364 1.834 0 1.092.364 1.89.378.784 1.036 1.218.657.42 1.512.42.91 0 1.61-.546t.91-1.624h2.128q-.183 1.176-.826 2.058a4.35 4.35 0 0 1-1.638 1.344q-.995.476-2.226.476"/></g><path stroke="#5F43D0" stroke-linecap="round" d="M188.5 130V98"/><defs><filter id="a" width="204" height="80" x="58.5" y="86" color-interpolation-filters="sRGB" filterUnits="userSpaceOnUse"><feFlood flood-opacity="0" result="BackgroundImageFix"/><feColorMatrix in="SourceAlpha" result="hardAlpha" values="0 0 0 0 0 0 0 0 0 0 0 0 0 0 0 0 0 0 127 0"/><feOffset dy="12"/><feGaussianBlur stdDeviation="10"/><feComposite in2="hardAlpha" operator="out"/><feColorMatrix values="0 0 0 0 0 0 0 0 0 0 0 0 0 0 0 0 0 0 0.03 0"/><feBlend in2="BackgroundImageFix" result="effect1_dropShadow_7_1169"/><feColorMatrix in="SourceAlpha" result="hardAlpha" values="0 0 0 0 0 0 0 0 0 0 0 0 0 0 0 0 0 0 127 0"/><feOffset dy="2"/><feGaussianBlur stdDeviation="3"/><feComposite in2="hardAlpha" operator="out"/><feColorMatrix values="0 0 0 0 0 0 0 0 0 0 0 0 0 0 0 0 0 0 0.05 0"/><feBlend in2="effect1_dropShadow_7_1169" result="effect2_dropShadow_7_1169"/><feBlend in="SourceGraphic" in2="effect2_dropShadow_7_1169" result="shape"/></filter></defs></svg>