<svg xmlns="http://www.w3.org/2000/svg" xml:space="preserve" width="512" height="512" viewBox="0 0 512 512"><path d="M85.333 0h64c47.128 0 85.333 38.205 85.333 85.333v64c0 47.128-38.205 85.333-85.333 85.333h-64C38.205 234.667 0 196.462 0 149.333v-64C0 38.205 38.205 0 85.333 0m0 277.333h64c47.128 0 85.333 38.205 85.333 85.333v64c0 47.128-38.205 85.333-85.333 85.333h-64C38.205 512 0 473.795 0 426.667v-64c0-47.129 38.205-85.334 85.333-85.334m277.334 0h64c47.128 0 85.333 38.205 85.333 85.333v64C512 473.795 473.795 512 426.667 512h-64c-47.128 0-85.333-38.205-85.333-85.333v-64c-.001-47.129 38.204-85.334 85.333-85.334m-64-128h64v64c0 11.782 9.551 21.333 21.333 21.333s21.333-9.551 21.333-21.333v-64h64c11.782 0 21.333-9.551 21.333-21.333s-9.551-21.333-21.333-21.333h-64v-64c0-11.782-9.551-21.333-21.333-21.333s-21.333 9.551-21.333 21.333v64h-64c-11.782 0-21.333 9.551-21.333 21.333s9.551 21.333 21.333 21.333"/></svg>