<?xml version="1.0" encoding="UTF-8"?>
<svg xmlns="http://www.w3.org/2000/svg" id="Layer_1" data-name="Layer 1" viewBox="0 0 24 24" width="512" height="512"><path d="M8,19c0,.552-.448,1-1,1h-2c-2.757,0-5-2.243-5-5v-6c0-2.757,2.243-5,5-5h2c.552,0,1,.448,1,1s-.448,1-1,1h-2c-1.654,0-3,1.346-3,3v6c0,1.654,1.346,3,3,3h2c.552,0,1,.448,1,1Zm6.762-6.984c-.336-.627-.976-1.016-1.668-1.016l-4.011,.05,3.031-5.572c.264-.485,.084-1.093-.4-1.356-.486-.264-1.093-.084-1.356,.4,0,0-3.255,5.998-3.274,6.063-.174,.574-.073,1.174,.277,1.646,.357,.481,.942,.769,1.563,.769h4.042l-.013,.025-2.743,5.53c-.245,.495-.043,1.095,.452,1.34,.143,.071,.294,.104,.443,.104,.368,0,.722-.204,.897-.556l2.72-5.484c.356-.585,.374-1.323,.041-1.944Zm8.238-4.016h-1.101c-.465-2.279-2.485-4-4.899-4h-2c-.553,0-1,.448-1,1s.447,1,1,1h2c1.654,0,3,1.346,3,3v6c0,1.654-1.346,3-3,3h-2c-.553,0-1,.448-1,1s.447,1,1,1h2c2.414,0,4.435-1.721,4.899-4h1.101c.552,0,1-.448,1-1v-6c0-.552-.448-1-1-1Z"/></svg>
