<svg xmlns="http://www.w3.org/2000/svg" width="512" height="512" data-name="Layer 1" viewBox="0 0 24 24"><path d="M24 5c0-2.206-1.794-4-4-4s-4 1.794-4 4c0 1.858 1.28 3.411 3 3.858V17c0 .551-.449 1-1 1h-4.996l2.203-2.203-1.414-1.414-3.256 3.256a1.993 1.993 0 0 0 0 2.812l3.256 3.256 1.414-1.414L12.903 20H18c1.654 0 3-1.346 3-3V8.858c1.72-.447 3-2 3-3.858M10.162 9.662l3.256-3.255a1.99 1.99 0 0 0 0-2.812L10.162.338 8.748 1.752 11.007 4H6C4.346 4 3 5.346 3 7v8.142c-1.72.447-3 2-3 3.858 0 2.206 1.794 4 4 4s4-1.794 4-4c0-1.858-1.28-3.411-3-3.858V7c0-.551.449-1 1-1h4.995L8.747 8.248l1.414 1.414Z"/></svg>