<?xml version="1.0" encoding="UTF-8"?>
<svg xmlns="http://www.w3.org/2000/svg" id="Layer_1" data-name="Layer 1" viewBox="0 0 24 24" width="512" height="512"><path d="M24,5c0-2.206-1.794-4-4-4s-4,1.794-4,4c0,1.86,1.277,3.428,3,3.873v8.127c0,.551-.449,1-1,1h-4.996l2.203-2.203-1.414-1.414-3.256,3.256c-.774,.775-.774,2.037,0,2.812l3.256,3.256,1.414-1.414-2.304-2.293h5.097c1.654,0,3-1.346,3-3V8.873c1.723-.445,3-2.013,3-3.873Zm-4,2c-1.103,0-2-.897-2-2s.897-2,2-2,2,.897,2,2-.897,2-2,2Zm-9.838,2.662l3.256-3.255c.775-.775,.775-2.037,0-2.812L10.162,.338l-1.414,1.414,2.259,2.248H6c-1.654,0-3,1.346-3,3V15.127c-1.723,.445-3,2.013-3,3.873,0,2.206,1.794,4,4,4s4-1.794,4-4c0-1.86-1.277-3.428-3-3.873V7c0-.551,.449-1,1-1h4.995l-2.248,2.248,1.414,1.414Zm-4.162,9.338c0,1.103-.897,2-2,2s-2-.897-2-2,.897-2,2-2,2,.897,2,2Z"/></svg>
