<?xml version="1.0" encoding="UTF-8"?>
<svg xmlns="http://www.w3.org/2000/svg" id="Layer_1" data-name="Layer 1" viewBox="0 0 24 24" width="512" height="512"><path d="M24,5c0-2.206-1.794-4-4-4s-4,1.794-4,4c0,1.858,1.28,3.411,3,3.858v8.142c0,.551-.449,1-1,1h-4.996l2.203-2.203-1.414-1.414-3.256,3.256c-.774,.775-.774,2.037,0,2.812l3.256,3.256,1.414-1.414-2.304-2.293h5.097c1.654,0,3-1.346,3-3V8.858c1.72-.447,3-2,3-3.858Zm-13.838,4.662l3.256-3.255c.775-.775,.775-2.037,0-2.812L10.162,.338l-1.414,1.414,2.259,2.248H6c-1.654,0-3,1.346-3,3V15.142c-1.72,.447-3,2-3,3.858,0,2.206,1.794,4,4,4s4-1.794,4-4c0-1.858-1.28-3.411-3-3.858V7c0-.551,.449-1,1-1h4.995l-2.248,2.248,1.414,1.414Z"/></svg>
