<svg id="Layer_1" height="512" viewBox="0 0 24 24" width="512" xmlns="http://www.w3.org/2000/svg" data-name="Layer 1"><path d="m24 11.5a4.476 4.476 0 0 0 -1.706-3.5 4.481 4.481 0 0 0 -2.794-8h-15a4.481 4.481 0 0 0 -2.794 8 4.443 4.443 0 0 0 0 7 4.481 4.481 0 0 0 2.794 8h15a4.481 4.481 0 0 0 2.794-8 4.476 4.476 0 0 0 1.706-3.5zm-22-7a2.5 2.5 0 0 1 2.5-2.5h.5v1a1 1 0 0 0 2 0v-1h2v1a1 1 0 0 0 2 0v-1h8.5a2.5 2.5 0 0 1 0 5h-15a2.5 2.5 0 0 1 -2.5-2.5zm20 14a2.5 2.5 0 0 1 -2.5 2.5h-15a2.5 2.5 0 0 1 0-5h.5v1a1 1 0 0 0 2 0v-1h2v1a1 1 0 0 0 2 0v-1h8.5a2.5 2.5 0 0 1 2.5 2.5zm-17.5-4.5a2.5 2.5 0 0 1 0-5h.5v1a1 1 0 0 0 2 0v-1h2v1a1 1 0 0 0 2 0v-1h8.5a2.5 2.5 0 0 1 0 5z"/></svg>