<svg xmlns="http://www.w3.org/2000/svg" width="512" height="512" data-name="Layer 1" viewBox="0 0 24 24"><path d="M24 11.5A4.48 4.48 0 0 0 22.294 8 4.481 4.481 0 0 0 19.5 0h-15a4.481 4.481 0 0 0-2.794 8 4.443 4.443 0 0 0 0 7A4.481 4.481 0 0 0 4.5 23h15a4.481 4.481 0 0 0 2.794-8A4.48 4.48 0 0 0 24 11.5m-22-7A2.5 2.5 0 0 1 4.5 2H5v1a1 1 0 0 0 2 0V2h2v1a1 1 0 0 0 2 0V2h8.5a2.5 2.5 0 0 1 0 5h-15A2.5 2.5 0 0 1 2 4.5m20 14a2.5 2.5 0 0 1-2.5 2.5h-15a2.5 2.5 0 0 1 0-5H5v1a1 1 0 0 0 2 0v-1h2v1a1 1 0 0 0 2 0v-1h8.5a2.5 2.5 0 0 1 2.5 2.5M4.5 14a2.5 2.5 0 0 1 0-5H5v1a1 1 0 0 0 2 0V9h2v1a1 1 0 0 0 2 0V9h8.5a2.5 2.5 0 0 1 0 5z"/></svg>