<svg width="10" height="10" viewBox="0 0 10 10" fill="none" xmlns="http://www.w3.org/2000/svg">
<path d="M8.04308 2.24074C7.47267 1.97986 6.86687 1.78972 6.23454 1.68359C6.15496 1.82067 6.0665 2.00639 6.00458 2.15231C5.33204 2.05503 4.66433 2.05503 4.00106 2.15231C3.93915 2.00639 3.84629 1.82067 3.77112 1.68359C3.13438 1.78972 2.52859 1.97986 1.96215 2.24074C0.816887 3.92989 0.507358 5.57922 0.662124 7.20647C1.42268 7.75922 2.15672 8.09526 2.87792 8.31639C3.0548 8.07759 3.21398 7.82109 3.35106 7.55139C3.09017 7.45409 2.84255 7.33472 2.60377 7.19322C2.66567 7.14901 2.72758 7.10039 2.78507 7.05172C4.22658 7.71059 5.78796 7.71059 7.21175 7.05172C7.27367 7.10039 7.33117 7.14901 7.39308 7.19322C7.15429 7.33472 6.90667 7.45409 6.64579 7.55139C6.78287 7.82109 6.94204 8.07759 7.11892 8.31639C7.83967 8.09526 8.57812 7.75922 9.33471 7.20647C9.52483 5.3228 9.03358 3.68671 8.04308 2.24074ZM3.55004 6.20272C3.1167 6.20272 2.76295 5.80918 2.76295 5.32722C2.76295 4.84522 3.10785 4.45168 3.55004 4.45168C3.98779 4.45168 4.34596 4.84522 4.33712 5.32722C4.33712 5.80918 3.98779 6.20272 3.55004 6.20272ZM6.45567 6.20272C6.02229 6.20272 5.66808 5.80918 5.66808 5.32722C5.66808 4.84522 6.01346 4.45168 6.45567 4.45168C6.89342 4.45168 7.25158 4.84522 7.24271 5.32722C7.24271 5.80918 6.89783 6.20272 6.45567 6.20272Z" fill="#494369"/>
</svg>
