<svg xmlns="http://www.w3.org/2000/svg" width="10" height="10" fill="none" viewBox="0 0 10 10"><path fill="#D6D6ED" fill-rule="evenodd" d="M5 2.469A3.74 3.74 0 0 0 2.14 3.8l-.556.66a.84.84 0 0 0 0 1.08l.555.66a3.74 3.74 0 0 0 5.722 0l.556-.66a.84.84 0 0 0 0-1.08L7.86 3.8A3.74 3.74 0 0 0 5 2.469m-.625-1.211a5 5 0 0 0-3.192 1.737l-.556.66a2.09 2.09 0 0 0 0 2.69l.556.66a4.99 4.99 0 0 0 7.634 0l.556-.66a2.09 2.09 0 0 0 0-2.69l-.556-.66A4.99 4.99 0 0 0 5 1.22h-.625z" clip-rule="evenodd"/><path fill="#D6D6ED" d="M3.375 5a1.625 1.625 0 1 1 3.25 0 1.625 1.625 0 0 1-3.25 0" opacity=".33"/></svg>