<?xml version="1.0" encoding="UTF-8"?>
<svg xmlns="http://www.w3.org/2000/svg" id="Layer_1" data-name="Layer 1" viewBox="0 0 24 24" width="512" height="512"><path d="M7.669,12.15c-.886-.886-.886-2.304-.015-3.176l1.681-1.681c.391-.391,1.023-.391,1.414,0s.391,1.023,0,1.414l-1.681,1.681c-.092,.092-.092,.241,0,.333l1.624,1.557c.398,.382,.412,1.016,.029,1.414-.196,.205-.459,.308-.722,.308-.249,0-.499-.092-.692-.278l-1.638-1.572Zm7.262-1.762c.092,.092,.092,.241,.015,.318l-1.638,1.572c-.398,.382-.412,1.016-.029,1.414,.196,.205,.459,.308,.722,.308,.249,0,.499-.092,.692-.278l1.653-1.586c.872-.872,.872-2.29,0-3.161l-1.681-1.681c-.391-.391-1.023-.391-1.414,0s-.391,1.023,0,1.414l1.681,1.681Zm9.069,7.612c0,1.654-1.346,3-3,3H3c-1.654,0-3-1.346-3-3,0-1.304,.836-2.415,2-2.828v-7.172c0-2.757,2.243-5,5-5h10c2.757,0,5,2.243,5,5v7.172c1.164,.413,2,1.524,2,2.828ZM4,8v7h4.5c.265,0,.52,.105,.707,.293l.707,.707h4.172l.707-.707c.188-.188,.442-.293,.707-.293h4.5v-7c0-1.654-1.346-3-3-3H7c-1.654,0-3,1.346-3,3Zm18,10c0-.551-.449-1-1-1h-5.086l-.707,.707c-.188,.188-.442,.293-.707,.293h-5c-.265,0-.52-.105-.707-.293l-.707-.707H3c-.551,0-1,.449-1,1s.449,1,1,1H21c.551,0,1-.449,1-1Z"/></svg>
