<?xml version="1.0" encoding="UTF-8"?>
<!-- Generator: Adobe Illustrator 25.0.0, SVG Export Plug-In . SVG Version: 6.00 Build 0)  -->
<svg xmlns="http://www.w3.org/2000/svg" xmlns:xlink="http://www.w3.org/1999/xlink" version="1.1" id="Capa_1" x="0px" y="0px" viewBox="0 0 512.292 512.292" style="enable-background:new 0 0 512.292 512.292;" xml:space="preserve" width="512" height="512">
<g>
	<path d="M256.061,0L256.061,0c17.673,0,32,14.327,32,32v106.667c0,17.673-14.327,32-32,32l0,0c-17.673,0-32-14.327-32-32V32   C224.061,14.327,238.387,0,256.061,0z"/>
	<path d="M330.727,105.387L330.727,105.387c-0.157,10.742,5.259,20.8,14.315,26.581c80.432,49.143,105.796,154.185,56.652,234.616   S247.51,472.38,167.078,423.237S61.282,269.052,110.426,188.62c14.042-22.982,33.324-42.315,56.269-56.418   c9.211-5.781,14.773-15.92,14.699-26.795l0,0c0.049-17.673-14.238-32.039-31.911-32.088c-6.07-0.017-12.02,1.693-17.155,4.931   C22.233,146.634-11.58,291.318,56.803,401.412s213.067,143.907,323.161,75.524s143.907-213.067,75.524-323.161   c-19.035-30.645-44.879-56.489-75.524-75.524c-14.997-9.461-34.824-4.973-44.285,10.024   C332.447,93.397,330.731,99.33,330.727,105.387z"/>
</g>















</svg>
