<svg xmlns="http://www.w3.org/2000/svg" xml:space="preserve" width="512" height="512" viewBox="0 0 512.292 512.292"><path d="M256.061 0c17.673 0 32 14.327 32 32v106.667c0 17.673-14.327 32-32 32s-32-14.327-32-32V32c0-17.673 14.326-32 32-32"/><path d="M330.727 105.387a31 31 0 0 0 14.315 26.581c80.432 49.143 105.796 154.185 56.652 234.616S247.51 472.38 167.078 423.237 61.282 269.052 110.426 188.62a170.7 170.7 0 0 1 56.269-56.418 31.38 31.38 0 0 0 14.699-26.795c.049-17.673-14.238-32.039-31.911-32.088a32 32 0 0 0-17.155 4.931C22.233 146.634-11.58 291.318 56.803 401.412s213.067 143.907 323.161 75.524 143.907-213.067 75.524-323.161a234.7 234.7 0 0 0-75.524-75.524c-14.997-9.461-34.824-4.973-44.285 10.024a32.1 32.1 0 0 0-4.952 17.112"/></svg>