<svg xmlns="http://www.w3.org/2000/svg" width="512" height="512" viewBox="0 0 24 24"><path d="M1 4.75h2.736a3.728 3.728 0 0 0 7.195 0H23a1 1 0 0 0 0-2H10.931a3.728 3.728 0 0 0-7.195 0H1a1 1 0 0 0 0 2M7.333 2a1.75 1.75 0 1 1-1.75 1.75A1.75 1.75 0 0 1 7.333 2M23 11h-2.736a3.727 3.727 0 0 0-7.194 0H1a1 1 0 0 0 0 2h12.07a3.727 3.727 0 0 0 7.194 0H23a1 1 0 0 0 0-2m-6.333 2.75a1.75 1.75 0 1 1 1.75-1.75 1.75 1.75 0 0 1-1.75 1.75M23 19.25H10.931a3.728 3.728 0 0 0-7.195 0H1a1 1 0 0 0 0 2h2.736a3.728 3.728 0 0 0 7.195 0H23a1 1 0 0 0 0-2M7.333 22a1.75 1.75 0 1 1 1.75-1.75A1.753 1.753 0 0 1 7.333 22"/></svg>