<svg xmlns="http://www.w3.org/2000/svg" xml:space="preserve" width="512" height="512" viewBox="0 0 512.051 512.051"><path d="M21.359 101.359h58.368c11.52 42.386 55.219 67.408 97.605 55.888a79.53 79.53 0 0 0 55.888-55.888h257.472c11.782 0 21.333-9.551 21.333-21.333s-9.551-21.333-21.333-21.333H233.22C221.7 16.306 178.001-8.716 135.615 2.804a79.53 79.53 0 0 0-55.888 55.888H21.359C9.577 58.692.026 68.243.026 80.025s9.551 21.334 21.333 21.334m469.333 133.333h-58.368c-11.497-42.38-55.172-67.416-97.552-55.92a79.51 79.51 0 0 0-55.92 55.92H21.359c-11.782 0-21.333 9.551-21.333 21.333s9.551 21.333 21.333 21.333h257.493c11.497 42.38 55.172 67.416 97.552 55.92a79.51 79.51 0 0 0 55.92-55.92h58.368c11.782 0 21.333-9.551 21.333-21.333s-9.551-21.333-21.333-21.333m0 176H233.22c-11.52-42.386-55.219-67.408-97.605-55.888a79.53 79.53 0 0 0-55.888 55.888H21.359c-11.782 0-21.333 9.551-21.333 21.333s9.551 21.333 21.333 21.333h58.368c11.52 42.386 55.219 67.408 97.605 55.888a79.53 79.53 0 0 0 55.888-55.888h257.472c11.782 0 21.333-9.551 21.333-21.333s-9.551-21.333-21.333-21.333"/></svg>