<?xml version="1.0" encoding="UTF-8"?>
<!-- Generator: Adobe Illustrator 25.0.0, SVG Export Plug-In . SVG Version: 6.00 Build 0)  -->
<svg xmlns="http://www.w3.org/2000/svg" xmlns:xlink="http://www.w3.org/1999/xlink" version="1.1" id="Capa_1" x="0px" y="0px" viewBox="0 0 512.051 512.051" style="enable-background:new 0 0 512.051 512.051;" xml:space="preserve" width="512" height="512">
<g>
	<path d="M21.359,101.359h58.368c11.52,42.386,55.219,67.408,97.605,55.888c27.223-7.399,48.489-28.665,55.888-55.888h257.472   c11.782,0,21.333-9.551,21.333-21.333s-9.551-21.333-21.333-21.333H233.22C221.7,16.306,178.001-8.716,135.615,2.804   c-27.223,7.399-48.489,28.665-55.888,55.888H21.359c-11.782,0-21.333,9.551-21.333,21.333S9.577,101.359,21.359,101.359z"/>
	<path d="M490.692,234.692h-58.368c-11.497-42.38-55.172-67.416-97.552-55.92c-27.245,7.391-48.529,28.674-55.92,55.92H21.359   c-11.782,0-21.333,9.551-21.333,21.333c0,11.782,9.551,21.333,21.333,21.333h257.493c11.497,42.38,55.172,67.416,97.552,55.92   c27.245-7.391,48.529-28.674,55.92-55.92h58.368c11.782,0,21.333-9.551,21.333-21.333   C512.025,244.243,502.474,234.692,490.692,234.692z"/>
	<path d="M490.692,410.692H233.22c-11.52-42.386-55.219-67.408-97.605-55.888c-27.223,7.399-48.489,28.665-55.888,55.888H21.359   c-11.782,0-21.333,9.551-21.333,21.333c0,11.782,9.551,21.333,21.333,21.333h58.368c11.52,42.386,55.219,67.408,97.605,55.888   c27.223-7.399,48.489-28.665,55.888-55.888h257.472c11.782,0,21.333-9.551,21.333-21.333   C512.025,420.243,502.474,410.692,490.692,410.692z"/>
</g>















</svg>
