<svg xmlns="http://www.w3.org/2000/svg" width="16" height="14" fill="none" viewBox="0 0 16 14"><path fill="#494369" fill-rule="evenodd" d="M6.707 1.307a1.75 1.75 0 0 1 2.694-.267l.037.037a2.8 2.8 0 0 1 .766 2.53l-.192.956h4.238a1.4 1.4 0 0 1 1.4 1.4v1.462q0 .231-.05.456l-.881 3.966a2.1 2.1 0 0 1-2.05 1.645H2.329a1.4 1.4 0 0 1-1.4-1.4v-5.55a1.4 1.4 0 0 1 1.4-1.4h1.822zM3.825 6.542H2.33v5.55h1.495zm1.4 5.55h7.444a.7.7 0 0 0 .683-.549l.881-3.966q.017-.075.017-.152V5.963H9.16a.7.7 0 0 1-.687-.838l.359-1.793a1.4 1.4 0 0 0-.383-1.265l-.037-.037a.35.35 0 0 0-.539.053l-2.647 3.97z" clip-rule="evenodd"/></svg>