<svg xmlns="http://www.w3.org/2000/svg" width="16" height="14" fill="none" viewBox="0 0 16 14"><path fill="#494369" fill-rule="evenodd" d="M9.293 12.693a1.75 1.75 0 0 1-2.693.267l-.037-.037a2.8 2.8 0 0 1-.766-2.53l.191-.955H1.751a1.4 1.4 0 0 1-1.4-1.4V6.575a2 2 0 0 1 .05-.456l.88-3.966A2.1 2.1 0 0 1 3.332.509h10.34a1.4 1.4 0 0 1 1.4 1.4v5.55a1.4 1.4 0 0 1-1.4 1.4H11.85zm2.882-5.235h1.496v-5.55h-1.496zm-1.4-5.55H3.332a.7.7 0 0 0-.683.549l-.882 3.966a.7.7 0 0 0-.016.152v1.463h5.091a.7.7 0 0 1 .687.837l-.36 1.793a1.4 1.4 0 0 0 .384 1.265l.037.037a.35.35 0 0 0 .538-.053l2.647-3.97z" clip-rule="evenodd"/></svg>