<svg xmlns="http://www.w3.org/2000/svg" width="20" height="20" fill="none" viewBox="0 0 20 20"><path fill="#1C2024" fill-rule="evenodd" d="M0 3.864A3.864 3.864 0 0 1 3.864 0h12.272A3.864 3.864 0 0 1 20 3.864v12.272A3.864 3.864 0 0 1 16.136 20H3.864A3.864 3.864 0 0 1 0 16.136zm4.988-.694c.058.605-.037.74-.523.744-.9.005-.624 1.144.328 1.353.14.03.216.048.246.094.036.059 0 .163-.083.398-.236.668-.153 3.362.116 3.788.054.086.127.506.163.935.076.916.401 1.479 1.15 1.994.448.308.465.342.466.883 0 .31.047.963.103 1.453.112.972-.06 1.895-.375 2.016-.345.132-.187.501.215.501.414 0 .64-.31.928-1.275.16-.536.314-.424.317.232 0 .289-.082.516-.269.738-.374.445-.343.522.213.522.61 0 .72-.18.826-1.353.229-2.538.271-2.636 1.115-2.574.7.052 1.673-.058 2.146-.242.155-.06.19-.013.19.262 0 .216.133.51.378.83.546.716.472 1.752-.166 2.346-.351.327-.27.514.22.514.394 0 .433-.025.433-.282 0-.155.12-.425.267-.6.148-.174.323-.522.391-.772s.144-.524.169-.608c.032-.11.151-.05.42.21.468.453.558 1.529.16 1.89-.325.293-.267.379.258.379.57 0 .593-.039.738-1.299l.001-.013c.062-.536.094-.815.094-1.095 0-.306-.037-.612-.117-1.253l-.002-.018c-.278-2.253-.274-2.347.1-2.696.997-.932.098-2.563-1.34-2.433-.667.06-.836.038-1.238-.167-.774-.395-1.759-.542-3.648-.544-1.051-.001-1.47-.002-1.652-.21-.12-.136-.139-.363-.17-.739-.194-2.413-.582-3.564-1.398-4.156-.48-.348-.606-.377-.606-.137 0 .152-.022.152-.24 0-.356-.25-.382-.22-.324.384" clip-rule="evenodd"/></svg>